v 2.260589 3.415207 99.263992
v 2.255942 -8.891037 99.709061
v 7.468826 -8.890987 92.098373
v 7.193074 3.415342 92.106277
v 7.721436 -28.301645 92.590408
v 8.271938 -11.690378 91.365662
v 2.513961 -11.684882 99.623627
v 2.788395 -30.469353 99.755493
v 1.143932 -29.631760 100.300568
v 2.788395 -30.469353 99.755493
v 2.513961 -11.684882 99.623627
v 0.000000 -11.709430 100.590637
v 0.000000 -8.891102 100.729950
v 2.255942 -8.891037 99.709061
v 2.260589 3.415207 99.263992
v 0.000000 4.143474 100.288910
v 9.163229 -31.804903 89.621292
v 9.471967 -29.957554 88.945755
v 7.654446 -30.723982 91.622810
v 3.735474 -32.461697 97.895096
v 6.145982 -39.835434 90.919075
v 10.073195 -27.330050 89.613121
v 10.039930 -21.094864 89.516922
v 9.945436 -11.657267 89.563515
v 0.511279 -31.712505 99.518944
v 0.000000 -31.466600 99.796051
v 3.396363 -39.994270 92.058891
v 4.456903 -40.408951 91.682343
v 1.476706 -32.172989 99.103783
v 0.000000 -29.631987 100.314331
v 0.000000 -39.994316 92.058937
v -2.260589 3.415207 99.263992
v -7.193074 3.415342 92.106277
v -7.468826 -8.890987 92.098373
v -2.255942 -8.891037 99.709061
v -7.721436 -28.301645 92.590408
v -2.788395 -30.469353 99.755493
v -2.513961 -11.684882 99.623627
v -8.271938 -11.690378 91.365662
v -1.143932 -29.631760 100.300568
v 0.000000 -11.709430 100.590637
v -2.513961 -11.684882 99.623627
v -2.788395 -30.469353 99.755493
v 0.000000 -8.891102 100.729950
v 0.000000 4.143474 100.288910
v -2.260589 3.415207 99.263992
v -2.255942 -8.891037 99.709061
v -6.145982 -39.835434 90.919075
v -3.735474 -32.461697 97.895096
v -7.654446 -30.723982 91.622810
v -9.163229 -31.804903 89.621292
v -6.145982 -39.835434 90.919075
v -7.654446 -30.723982 91.622810
v -9.471967 -29.957554 88.945755
v -9.945436 -11.657267 89.563515
v -10.039930 -21.094864 89.516922
v -10.073195 -27.330050 89.613121
v -0.511279 -31.712505 99.518944
v -1.476706 -32.172989 99.103783
v -4.456903 -40.408951 91.682343
v -3.396363 -39.994270 92.058891
v 0.000000 -31.466600 99.796051
v 0.000000 -29.631987 100.314331
v 0.000000 -39.994316 92.058937
vt 0.331275 0.537713
vt 0.357852 0.533694
vt 0.359740 0.550198
vt 0.333052 0.553235
vt 0.401711 0.544314
vt 0.365993 0.551092
vt 0.363931 0.533186
vt 0.404633 0.528238
vt 0.369432 0.932505
vt 0.371255 0.936084
vt 0.330370 0.935487
vt 0.330423 0.930015
vt 0.324289 0.930015
vt 0.324289 0.934925
vt 0.297504 0.934935
vt 0.295918 0.930015
vt 0.410045 0.549883
vt 0.406206 0.551807
vt 0.407204 0.545811
vt 0.409416 0.531778
vt 0.427137 0.545076
vt 0.400343 0.551012
vt 0.386845 0.552768
vt 0.366368 0.555009
vt 0.373961 0.931128
vt 0.373426 0.930015
vt 0.391987 0.937407
vt 0.392889 0.939715
vt 0.374963 0.933229
vt 0.369433 0.930015
vt 0.391987 0.930015
vt 0.392297 0.668044
vt 0.390504 0.683455
vt 0.364006 0.680390
vt 0.365912 0.664004
vt 0.322337 0.674470
vt 0.319464 0.658500
vt 0.359875 0.663488
vt 0.357795 0.681266
vt 0.384759 0.921551
vt 0.344123 0.924145
vt 0.344067 0.918445
vt 0.386658 0.917823
vt 0.337733 0.924145
vt 0.308179 0.924145
vt 0.309830 0.919019
vt 0.337732 0.919030
vt 0.297085 0.675180
vt 0.314709 0.662006
vt 0.316879 0.675946
vt 0.389686 0.903369
vt 0.407894 0.910210
vt 0.387235 0.906790
vt 0.385497 0.902669
vt 0.357415 0.685155
vt 0.337084 0.682892
vt 0.323683 0.681123
vt 0.389476 0.922986
vt 0.390521 0.920797
vt 0.409194 0.914039
vt 0.408254 0.916444
vt 0.388919 0.924145
vt 0.384759 0.924145
vt 0.408254 0.924145
vn 0.630155 0.026255 0.776025
vn 0.639065 0.027558 0.768659
vn 0.824243 0.019323 0.565906
vn 0.823286 0.018083 0.567339
vn 0.804877 0.014748 0.593258
vn 0.775798 0.020787 0.630639
vn 0.615470 0.012192 0.788066
vn 0.624468 0.014605 0.780914
vn 0.194765 -0.000036 0.980850
vn 0.624468 0.014605 0.780914
vn 0.615470 0.012192 0.788066
vn 0.000000 0.007336 0.999973
vn 0.000000 0.035697 0.999363
vn 0.639065 0.027558 0.768659
vn 0.630155 0.026255 0.776025
vn 0.000000 0.033817 0.999428
vn 0.783234 -0.053679 0.619406
vn 0.815123 0.073877 0.574558
vn 0.810755 -0.126667 0.571517
vn 0.855891 -0.179168 0.485129
vn 0.827165 -0.178109 0.532987
vn 0.782453 0.013780 0.622557
vn 0.791163 0.006294 0.611573
vn 0.741655 0.022817 0.670393
vn 0.075854 -0.652667 0.753838
vn -0.000000 -0.656693 0.754158
vn 0.002482 -0.669749 0.742584
vn 0.002275 -0.668856 0.743389
vn 0.000203 -0.669376 0.742924
vn 0.000000 -0.015415 0.999881
vn 0.000000 -0.671942 0.740604
vn -0.630155 0.026255 0.776025
vn -0.823286 0.018083 0.567339
vn -0.824243 0.019323 0.565906
vn -0.639065 0.027558 0.768659
vn -0.804877 0.014748 0.593258
vn -0.624468 0.014605 0.780914
vn -0.615470 0.012192 0.788066
vn -0.775798 0.020787 0.630639
vn -0.194765 -0.000036 0.980850
vn 0.000000 0.007336 0.999973
vn -0.615470 0.012192 0.788066
vn -0.624468 0.014605 0.780914
vn 0.000000 0.035697 0.999363
vn 0.000000 0.033817 0.999428
vn -0.630155 0.026255 0.776025
vn -0.639065 0.027558 0.768659
vn -0.827165 -0.178109 0.532987
vn -0.855891 -0.179168 0.485129
vn -0.810755 -0.126667 0.571517
vn -0.783234 -0.053679 0.619406
vn -0.827165 -0.178109 0.532987
vn -0.810755 -0.126667 0.571517
vn -0.815123 0.073877 0.574558
vn -0.741655 0.022817 0.670393
vn -0.791163 0.006294 0.611573
vn -0.782453 0.013780 0.622557
vn -0.075855 -0.652667 0.753838
vn -0.000203 -0.669376 0.742924
vn -0.002275 -0.668856 0.743389
vn -0.002482 -0.669749 0.742584
vn -0.000000 -0.656693 0.754158
vn 0.000000 -0.015415 0.999881
vn 0.000000 -0.671942 0.740604
f 1/1/1 2/2/2 3/3/3
f 3/3/3 4/4/4 1/1/1
f 5/5/5 6/6/6 7/7/7
f 7/7/7 8/8/8 5/5/5
f 9/9/9 10/10/10 11/11/11
f 11/11/11 12/12/12 9/9/9
f 13/13/13 14/14/14 15/15/15
f 15/15/15 16/16/16 13/13/13
f 17/17/17 18/18/18 19/19/19
f 19/19/19 20/20/20 21/21/21
f 17/17/17 19/19/19 21/21/21
f 5/5/5 22/22/22 23/23/23
f 5/5/5 23/23/23 24/24/24
f 5/5/5 24/24/24 6/6/6
f 25/25/25 26/26/26 27/27/27
f 25/25/25 27/27/27 28/28/28
f 25/25/25 28/28/28 29/29/29
f 9/9/9 12/12/12 30/30/30
f 26/26/26 31/31/31 27/27/27
f 32/32/32 33/33/33 34/34/34
f 34/34/34 35/35/35 32/32/32
f 36/36/36 37/37/37 38/38/38
f 38/38/38 39/39/39 36/36/36
f 40/40/40 41/41/41 42/42/42
f 42/42/42 43/43/43 40/40/40
f 44/44/44 45/45/45 46/46/46
f 46/46/46 47/47/47 44/44/44
f 48/48/48 49/49/49 50/50/50
f 51/51/51 52/52/52 53/53/53
f 51/51/51 53/53/53 54/54/54
f 36/36/36 39/39/39 55/55/55
f 36/36/36 55/55/55 56/56/56
f 36/36/36 56/56/56 57/57/57
f 58/58/58 59/59/59 60/60/60
f 58/58/58 60/60/60 61/61/61
f 58/58/58 61/61/61 62/62/62
f 40/40/40 63/63/63 41/41/41
f 62/62/62 61/61/61 64/64/64
