v 12.924858 4.199541 -0.203365
v 10.994541 7.988001 -0.203365
v 12.924858 4.199541 0.203365
v 10.994541 7.988001 0.203365
v 7.988001 10.994541 -0.203365
v 7.988001 10.994541 0.203365
v 4.199541 12.924857 -0.203365
v 4.199541 12.924857 0.203365
v 0.000000 13.589998 -0.203365
v 0.000000 13.589998 0.203365
v -4.199541 12.924856 -0.203365
v -4.199541 12.924856 0.203365
v -7.988000 10.994538 -0.203365
v -7.988000 10.994538 0.203365
v -10.994537 7.987999 -0.203365
v -10.994537 7.987999 0.203365
v -12.924853 4.199539 -0.203365
v -12.924853 4.199539 0.203365
v -13.589994 -0.000000 -0.203365
v -13.589994 0.000000 0.203365
v -12.924853 -4.199539 -0.203365
v -12.924853 -4.199539 0.203365
v -10.994536 -7.987998 -0.203365
v -10.994536 -7.987998 0.203365
v -7.987998 -10.994535 -0.203365
v -7.987998 -10.994535 0.203365
v -4.199539 -12.924852 -0.203365
v -4.199539 -12.924852 0.203365
v -0.000000 -13.589993 -0.203365
v -0.000000 -13.589993 0.203365
v 4.199538 -12.924851 -0.203365
v 4.199538 -12.924851 0.203365
v 7.987997 -10.994535 -0.203365
v 7.987997 -10.994535 0.203365
v 10.994534 -7.987998 -0.203365
v 10.994534 -7.987998 0.203365
v 12.924850 -4.199538 -0.203365
v 12.924850 -4.199538 0.203365
v 13.589992 -0.000000 -0.203365
v 13.589992 0.000000 0.203365
v 12.924858 4.199541 -0.203365
v 12.924858 4.199541 0.203365
v 10.994541 7.988001 -0.203365
v 12.924858 4.199541 -0.203365
v 0.000000 -0.000000 -0.203365
v 7.988001 10.994541 -0.203365
v 4.199541 12.924857 -0.203365
v 0.000000 13.589998 -0.203365
v -4.199541 12.924856 -0.203365
v -7.988000 10.994538 -0.203365
v -10.994537 7.987999 -0.203365
v -12.924853 4.199539 -0.203365
v -13.589994 -0.000000 -0.203365
v -12.924853 -4.199539 -0.203365
v -10.994536 -7.987998 -0.203365
v -7.987998 -10.994535 -0.203365
v -4.199539 -12.924852 -0.203365
v -0.000000 -13.589993 -0.203365
v 4.199538 -12.924851 -0.203365
v 7.987997 -10.994535 -0.203365
v 10.994534 -7.987998 -0.203365
v 12.924850 -4.199538 -0.203365
v 13.589992 -0.000000 -0.203365
v 12.924858 4.199541 0.203365
v 10.994541 7.988001 0.203365
v 0.000000 0.000000 0.203365
v 7.988001 10.994541 0.203365
v 4.199541 12.924857 0.203365
v 0.000000 13.589998 0.203365
v -4.199541 12.924856 0.203365
v -7.988000 10.994538 0.203365
v -10.994537 7.987999 0.203365
v -12.924853 4.199539 0.203365
v -13.589994 0.000000 0.203365
v -12.924853 -4.199539 0.203365
v -10.994536 -7.987998 0.203365
v -7.987998 -10.994535 0.203365
v -4.199539 -12.924852 0.203365
v -0.000000 -13.589993 0.203365
v 4.199538 -12.924851 0.203365
v 7.987997 -10.994535 0.203365
v 10.994534 -7.987998 0.203365
v 12.924850 -4.199538 0.203365
v 13.589992 0.000000 0.203365
vt 0.000000 0.000000
vt 0.000000 0.000000
vt 0.000000 0.000000
vt 0.000000 0.000000
vt 0.000000 0.000000
vt 0.000000 0.000000
vt 0.000000 0.000000
vt 0.000000 0.000000
vt 0.000000 0.000000
vt 0.000000 0.000000
vt 0.000000 0.000000
vt 0.000000 0.000000
vt 0.000000 0.000000
vt 0.000000 0.000000
vt 0.000000 0.000000
vt 0.000000 0.000000
vt 0.000000 0.000000
vt 0.000000 0.000000
vt 0.000000 0.000000
vt 0.000000 0.000000
vt 0.000000 0.000000
vt 0.000000 0.000000
vt 0.000000 0.000000
vt 0.000000 0.000000
vt 0.000000 0.000000
vt 0.000000 0.000000
vt 0.000000 0.000000
vt 0.000000 0.000000
vt 0.000000 0.000000
vt 0.000000 0.000000
vt 0.000000 0.000000
vt 0.000000 0.000000
vt 0.000000 0.000000
vt 0.000000 0.000000
vt 0.000000 0.000000
vt 0.000000 0.000000
vt 0.000000 0.000000
vt 0.000000 0.000000
vt 0.000000 0.000000
vt 0.000000 0.000000
vt 0.000000 0.000000
vt 0.000000 0.000000
vt 0.000000 0.000000
vt 0.000000 0.000000
vt 0.000000 0.000000
vt 0.000000 0.000000
vt 0.000000 0.000000
vt 0.000000 0.000000
vt 0.000000 0.000000
vt 0.000000 0.000000
vt 0.000000 0.000000
vt 0.000000 0.000000
vt 0.000000 0.000000
vt 0.000000 0.000000
vt 0.000000 0.000000
vt 0.000000 0.000000
vt 0.000000 0.000000
vt 0.000000 0.000000
vt 0.000000 0.000000
vt 0.000000 0.000000
vt 0.000000 0.000000
vt 0.000000 0.000000
vt 0.000000 0.000000
vt 0.000000 0.000000
vt 0.000000 0.000000
vt 0.000000 0.000000
vt 0.000000 0.000000
vt 0.000000 0.000000
vt 0.000000 0.000000
vt 0.000000 0.000000
vt 0.000000 0.000000
vt 0.000000 0.000000
vt 0.000000 0.000000
vt 0.000000 0.000000
vt 0.000000 0.000000
vt 0.000000 0.000000
vt 0.000000 0.000000
vt 0.000000 0.000000
vt 0.000000 0.000000
vt 0.000000 0.000000
vt 0.000000 0.000000
vt 0.000000 0.000000
vt 0.000000 0.000000
vt 0.000000 0.000000
vn 0.951057 0.309016 0.000000
vn 0.809017 0.587785 0.000000
vn 0.951057 0.309016 0.000000
vn 0.809017 0.587785 0.000000
vn 0.587785 0.809017 0.000000
vn 0.587785 0.809017 0.000000
vn 0.309017 0.951057 0.000000
vn 0.309017 0.951057 0.000000
vn -0.000000 1.000000 0.000000
vn -0.000000 1.000000 0.000000
vn -0.309017 0.951056 0.000000
vn -0.309017 0.951056 0.000000
vn -0.587786 0.809017 0.000000
vn -0.587786 0.809017 0.000000
vn -0.809017 0.587785 0.000000
vn -0.809017 0.587785 0.000000
vn -0.951057 0.309017 0.000000
vn -0.951057 0.309017 0.000000
vn -1.000000 0.000000 0.000000
vn -1.000000 -0.000000 0.000000
vn -0.951057 -0.309017 0.000000
vn -0.951057 -0.309017 0.000000
vn -0.809017 -0.587785 0.000000
vn -0.809017 -0.587785 0.000000
vn -0.587785 -0.809017 0.000000
vn -0.587785 -0.809017 0.000000
vn -0.309017 -0.951057 0.000000
vn -0.309017 -0.951057 0.000000
vn 0.000000 -1.000000 0.000000
vn 0.000000 -1.000000 0.000000
vn 0.309017 -0.951057 0.000000
vn 0.309017 -0.951057 0.000000
vn 0.587785 -0.809017 0.000000
vn 0.587785 -0.809017 0.000000
vn 0.809017 -0.587785 0.000000
vn 0.809017 -0.587785 0.000000
vn 0.951056 -0.309017 0.000000
vn 0.951057 -0.309017 0.000000
vn 1.000000 -0.000001 0.000000
vn 1.000000 -0.000001 0.000000
vn 0.951057 0.309016 0.000000
vn 0.951057 0.309016 0.000000
vn 0.000000 0.000000 -1.000000
vn 0.000000 0.000000 -1.000000
vn 0.000000 0.000000 -1.000000
vn 0.000000 0.000000 -1.000000
vn 0.000000 0.000000 -1.000000
vn 0.000000 0.000000 -1.000000
vn 0.000000 0.000000 -1.000000
vn -0.000000 0.000000 -1.000000
vn -0.000000 0.000000 -1.000000
vn 0.000000 0.000000 -1.000000
vn 0.000000 0.000000 -1.000000
vn 0.000000 0.000000 -1.000000
vn 0.000000 0.000000 -1.000000
vn 0.000000 0.000000 -1.000000
vn 0.000000 0.000000 -1.000000
vn 0.000000 0.000000 -1.000000
vn 0.000000 0.000000 -1.000000
vn 0.000000 0.000000 -1.000000
vn 0.000000 0.000000 -1.000000
vn 0.000000 0.000000 -1.000000
vn 0.000000 0.000000 -1.000000
vn 0.000000 0.000000 1.000000
vn -0.000000 0.000000 1.000000
vn 0.000000 0.000000 1.000000
vn 0.000000 0.000000 1.000000
vn 0.000000 0.000000 1.000000
vn -0.000000 0.000000 1.000000
vn 0.000000 0.000000 1.000000
vn 0.000000 0.000000 1.000000
vn 0.000000 0.000000 1.000000
vn 0.000000 0.000000 1.000000
vn 0.000000 0.000000 1.000000
vn 0.000000 0.000000 1.000000
vn 0.000000 0.000000 1.000000
vn 0.000000 0.000000 1.000000
vn 0.000000 0.000000 1.000000
vn 0.000000 0.000000 1.000000
vn 0.000000 0.000000 1.000000
vn 0.000000 0.000000 1.000000
vn 0.000000 0.000000 1.000000
vn 0.000000 0.000000 1.000000
vn 0.000000 0.000000 1.000000
f 1/1/1 2/2/2 3/3/3
f 3/3/3 2/2/2 4/4/4
f 2/2/2 5/5/5 4/4/4
f 4/4/4 5/5/5 6/6/6
f 5/5/5 7/7/7 6/6/6
f 6/6/6 7/7/7 8/8/8
f 7/7/7 9/9/9 8/8/8
f 8/8/8 9/9/9 10/10/10
f 9/9/9 11/11/11 10/10/10
f 10/10/10 11/11/11 12/12/12
f 11/11/11 13/13/13 12/12/12
f 12/12/12 13/13/13 14/14/14
f 13/13/13 15/15/15 14/14/14
f 14/14/14 15/15/15 16/16/16
f 15/15/15 17/17/17 16/16/16
f 16/16/16 17/17/17 18/18/18
f 17/17/17 19/19/19 18/18/18
f 18/18/18 19/19/19 20/20/20
f 19/19/19 21/21/21 20/20/20
f 20/20/20 21/21/21 22/22/22
f 21/21/21 23/23/23 22/22/22
f 22/22/22 23/23/23 24/24/24
f 23/23/23 25/25/25 24/24/24
f 24/24/24 25/25/25 26/26/26
f 25/25/25 27/27/27 26/26/26
f 26/26/26 27/27/27 28/28/28
f 27/27/27 29/29/29 28/28/28
f 28/28/28 29/29/29 30/30/30
f 29/29/29 31/31/31 30/30/30
f 30/30/30 31/31/31 32/32/32
f 31/31/31 33/33/33 32/32/32
f 32/32/32 33/33/33 34/34/34
f 33/33/33 35/35/35 34/34/34
f 34/34/34 35/35/35 36/36/36
f 35/35/35 37/37/37 36/36/36
f 36/36/36 37/37/37 38/38/38
f 37/37/37 39/39/39 38/38/38
f 38/38/38 39/39/39 40/40/40
f 39/39/39 41/41/41 40/40/40
f 40/40/40 41/41/41 42/42/42
f 43/43/43 44/44/44 45/45/45
f 46/46/46 43/43/43 45/45/45
f 47/47/47 46/46/46 45/45/45
f 48/48/48 47/47/47 45/45/45
f 49/49/49 48/48/48 45/45/45
f 50/50/50 49/49/49 45/45/45
f 51/51/51 50/50/50 45/45/45
f 52/52/52 51/51/51 45/45/45
f 53/53/53 52/52/52 45/45/45
f 54/54/54 53/53/53 45/45/45
f 55/55/55 54/54/54 45/45/45
f 56/56/56 55/55/55 45/45/45
f 57/57/57 56/56/56 45/45/45
f 58/58/58 57/57/57 45/45/45
f 59/59/59 58/58/58 45/45/45
f 60/60/60 59/59/59 45/45/45
f 61/61/61 60/60/60 45/45/45
f 62/62/62 61/61/61 45/45/45
f 63/63/63 62/62/62 45/45/45
f 44/44/44 63/63/63 45/45/45
f 64/64/64 65/65/65 66/66/66
f 65/65/65 67/67/67 66/66/66
f 67/67/67 68/68/68 66/66/66
f 68/68/68 69/69/69 66/66/66
f 69/69/69 70/70/70 66/66/66
f 70/70/70 71/71/71 66/66/66
f 71/71/71 72/72/72 66/66/66
f 72/72/72 73/73/73 66/66/66
f 73/73/73 74/74/74 66/66/66
f 74/74/74 75/75/75 66/66/66
f 75/75/75 76/76/76 66/66/66
f 76/76/76 77/77/77 66/66/66
f 77/77/77 78/78/78 66/66/66
f 78/78/78 79/79/79 66/66/66
f 79/79/79 80/80/80 66/66/66
f 80/80/80 81/81/81 66/66/66
f 81/81/81 82/82/82 66/66/66
f 82/82/82 83/83/83 66/66/66
f 83/83/83 84/84/84 66/66/66
f 84/84/84 64/64/64 66/66/66
