v -0.518171 -0.006226 0.000000
v -0.610182 0.369775 0.000000
v -1.195937 0.059547 0.023545
v -1.168871 0.373957 0.023545
v -1.511193 1.048438 0.000000
v -0.876068 0.997460 0.000000
v -1.511193 1.511193 0.000000
v -1.511193 -0.312569 0.000000
v -0.798160 -0.637104 0.000000
v -0.717999 -0.578712 0.000000
v 1.511194 0.102512 0.000000
v 1.255311 -0.682688 0.000000
v 1.240293 -0.866665 0.000000
v 1.511193 -1.511193 0.000000
v 0.399536 -0.959362 -0.000000
v -0.238703 -0.959229 -0.000000
v -1.511193 -1.511193 0.000000
v -0.109579 1.374068 -0.000000
v -0.076679 1.001224 0.000000
v -0.880698 -0.905151 0.000000
v 0.749440 -0.888911 -0.000000
v -0.824851 -0.783692 0.000000
v 1.180678 -0.507582 0.000000
v 0.431491 0.088045 -0.000000
v -0.518171 -0.006226 0.000000
v -0.528115 -0.268628 0.000000
v 1.511193 1.511193 0.000000
v 0.766947 1.340515 -0.000000
v -0.109579 1.374068 -0.000000
v -0.109579 1.374068 0.037813
v 0.766947 1.340515 0.024227
v 0.735915 0.987072 0.000000
v 0.721094 0.666314 0.000000
v -0.859586 0.867811 0.000000
v -1.511193 0.047843 0.000000
v -1.195937 0.059547 0.000000
v -1.168871 0.373957 0.000000
v -1.511194 0.683176 0.000000
v 0.465585 0.336013 0.000000
v -0.610182 0.369775 0.000000
v 0.431491 0.088045 0.036164
v 0.465585 0.336013 0.036164
v -1.191091 -0.291323 0.000000
v 0.090295 -0.586612 -0.000000
v 0.739441 -0.543848 -0.000000
v 1.061200 0.083143 0.000000
v -0.909120 0.710186 0.000000
v 1.156160 0.688210 0.000000
v 1.120312 0.415222 0.000000
v 1.511194 0.703858 -0.000000
v 1.511194 0.430376 -0.000000
v -1.511193 1.048438 0.021005
v -0.859586 0.867811 0.021005
v -0.876068 0.997460 0.021005
v -1.511194 0.683176 0.021005
v -0.909120 0.710186 0.021005
v 1.511193 1.511193 0.000000
v 1.195596 1.061579 0.000000
v 1.511194 1.017940 0.000000
v 0.766947 1.340515 0.024227
v -0.109579 1.374068 0.037813
v -0.076679 1.001224 0.037813
v 0.735915 0.987072 0.000000
v 0.090533 -0.586612 0.028038
v -0.237664 -0.959229 0.032778
v 0.399021 -0.959362 0.023583
v 0.738098 -0.543848 0.018687
v -0.715792 -0.578712 0.039683
v -0.795758 -0.637104 0.040838
v 0.748072 -0.888911 0.018543
v 1.255311 -0.682688 0.000000
v 1.240293 -0.866665 0.000000
v -0.822384 -0.783692 0.041222
v -0.878095 -0.905151 0.042027
v 1.180678 -0.507582 0.000000
v -0.798160 -0.637104 0.000000
v -0.824851 -0.783692 0.000000
v -0.822384 -0.783692 0.041222
v -0.795758 -0.637104 0.040838
v -0.880698 -0.905151 0.000000
v -0.878095 -0.905151 0.042027
v -1.511193 -0.312569 -0.026601
v -1.191091 -0.291323 -0.026601
v -1.195937 0.059547 -0.026601
v -1.511193 0.047843 -0.026601
v -0.528115 -0.268628 -0.026601
v -0.518171 -0.006226 -0.026601
v 1.511194 1.017940 -0.024006
v 1.195596 1.061579 -0.024006
v 1.156160 0.688210 -0.024006
v 1.511194 0.703858 -0.024006
v 0.735915 0.987072 -0.024006
v 0.721094 0.666314 -0.024006
v 1.120312 0.415222 0.029313
v 0.465585 0.336013 0.036164
v 0.431491 0.088045 0.036164
v 1.061200 0.083143 0.029313
v 1.511194 0.430376 0.020193
v 1.511194 0.102512 0.020193
v 1.120312 0.415222 0.000000
v 0.465585 0.336013 0.000000
v 0.465585 0.336013 0.036164
v 1.120312 0.415222 0.029313
v 1.511194 0.430376 -0.000000
v 1.511194 0.430376 0.020193
v 0.431491 0.088045 -0.000000
v 1.061200 0.083143 0.000000
v 1.061200 0.083143 0.029313
v 0.431491 0.088045 0.036164
v 1.511194 0.102512 0.000000
v 1.511194 0.102512 0.020193
v -1.511193 -0.312569 0.000000
v -1.191091 -0.291323 0.000000
v -1.191091 -0.291323 -0.026601
v -1.511193 -0.312569 -0.026601
v -0.528115 -0.268628 0.000000
v -0.528115 -0.268628 -0.026601
v 1.511194 1.017940 0.000000
v 1.195596 1.061579 0.000000
v 1.195596 1.061579 -0.024006
v 1.511194 1.017940 -0.024006
v 0.735915 0.987072 0.000000
v 0.735915 0.987072 -0.024006
v 1.156160 0.688210 0.000000
v 1.511194 0.703858 -0.000000
v 1.511194 0.703858 -0.024006
v 1.156160 0.688210 -0.024006
v 0.721094 0.666314 0.000000
v 0.721094 0.666314 -0.024006
v -0.859586 0.867811 0.000000
v -0.876068 0.997460 0.000000
v -0.876068 0.997460 0.021005
v -0.859586 0.867811 0.021005
v -0.909120 0.710186 0.000000
v -0.909120 0.710186 0.021005
v 0.739441 -0.543848 -0.000000
v 0.090295 -0.586612 -0.000000
v 0.090533 -0.586612 0.028038
v 0.738098 -0.543848 0.018687
v -0.717999 -0.578712 0.000000
v -0.715792 -0.578712 0.039683
v 1.180678 -0.507582 0.000000
v -1.195937 0.059547 0.000000
v -1.511193 0.047843 0.000000
v -1.511193 0.047843 -0.026601
v -1.195937 0.059547 -0.026601
v -0.518171 -0.006226 0.000000
v -0.518171 -0.006226 -0.026601
v -1.195937 0.059547 0.023545
v -0.238703 -0.959229 -0.000000
v 0.399536 -0.959362 -0.000000
v 0.399021 -0.959362 0.023583
v -0.237664 -0.959229 0.032778
v 0.749440 -0.888911 -0.000000
v 0.748072 -0.888911 0.018543
v 1.240293 -0.866665 0.000000
v -0.880698 -0.905151 0.000000
v -0.878095 -0.905151 0.042027
v -0.717999 -0.578712 0.000000
v -0.798160 -0.637104 0.000000
v -0.795758 -0.637104 0.040838
v -0.715792 -0.578712 0.039683
v -0.109579 1.374068 -0.000000
v -0.076679 1.001224 0.000000
v -0.076679 1.001224 0.037813
v -0.109579 1.374068 0.037813
v -0.076679 1.001224 0.000000
v 0.735915 0.987072 0.000000
v -0.076679 1.001224 0.037813
v 1.511194 0.102512 0.000000
v 1.511194 0.430376 -0.000000
v 1.511194 0.430376 0.020193
v 1.511194 0.102512 0.020193
v -0.528115 -0.268628 0.000000
v -0.518171 -0.006226 0.000000
v -0.518171 -0.006226 -0.026601
v -0.528115 -0.268628 -0.026601
v 0.735915 0.987072 0.000000
v 0.721094 0.666314 0.000000
v 0.721094 0.666314 -0.024006
v 0.735915 0.987072 -0.024006
v -1.168871 0.373957 0.000000
v -1.195937 0.059547 0.000000
v -1.195937 0.059547 0.023545
v -1.168871 0.373957 0.023545
v -0.610182 0.369775 0.000000
v -1.168871 0.373957 0.000000
v -1.168871 0.373957 0.023545
v -0.876068 0.997460 0.000000
v -1.511193 1.048438 0.000000
v -1.511193 1.048438 0.021005
v -0.876068 0.997460 0.021005
v -1.511194 0.683176 0.000000
v -0.909120 0.710186 0.000000
v -0.909120 0.710186 0.021005
v -1.511194 0.683176 0.021005
vt 0.497943 0.671443
vt 0.622350 0.701882
vt 0.519702 0.895690
vt 0.623731 0.886737
vt 0.846891 1.000000
vt 0.830024 0.789859
vt 0.999875 0.999966
vt 0.396522 0.999983
vt 0.289198 0.764083
vt 0.308526 0.737560
vt 0.533898 0.000086
vt 0.274122 0.084234
vt 0.213249 0.089206
vt 0.000039 0.000044
vt 0.182582 0.367804
vt 0.182625 0.578977
vt 0.000056 0.999980
vt 0.954626 0.536255
vt 0.831259 0.525370
vt 0.200517 0.791391
vt 0.205891 0.252031
vt 0.240703 0.772914
vt 0.332060 0.108955
vt 0.529124 0.357211
vt 0.497943 0.671443
vt 0.411123 0.674733
vt 0.999868 0.000040
vt 0.943527 0.246245
vt 0.954626 0.536255
vt 0.954626 0.536255
vt 0.943527 0.246245
vt 0.826585 0.256506
vt 0.720461 0.261387
vt 0.787127 0.784406
vt 0.515830 1.000000
vt 0.519702 0.895690
vt 0.623731 0.886737
vt 0.726009 0.999980
vt 0.611177 0.345925
vt 0.622350 0.701882
vt 0.529130 0.357197
vt 0.611178 0.345909
vt 0.403614 0.894087
vt 0.305912 0.470125
vt 0.320061 0.255344
vt 0.527496 0.148818
vt 0.734974 0.800794
vt 0.727705 0.117440
vt 0.637383 0.129245
vt 0.732882 0.000000
vt 0.642396 0.000000
vt 0.846836 0.999990
vt 0.787127 0.784406
vt 0.830024 0.789859
vt 0.726039 1.000000
vt 0.734974 0.800794
vt 0.999868 0.000040
vt 0.851237 0.104420
vt 0.836800 0.000000
vt 0.943527 0.246245
vt 0.954626 0.536255
vt 0.831267 0.525370
vt 0.826585 0.256506
vt 0.305912 0.470125
vt 0.182625 0.578977
vt 0.182582 0.367804
vt 0.320061 0.255344
vt 0.308526 0.737560
vt 0.289198 0.764083
vt 0.205891 0.252031
vt 0.274122 0.084234
vt 0.213249 0.089206
vt 0.240703 0.772914
vt 0.200517 0.791391
vt 0.332060 0.108955
vt 0.289198 0.764083
vt 0.240703 0.772914
vt 0.240703 0.772914
vt 0.289198 0.764083
vt 0.200517 0.791391
vt 0.200517 0.791391
vt 0.396582 1.000000
vt 0.403614 0.894087
vt 0.519702 0.895690
vt 0.515830 1.000000
vt 0.411123 0.674733
vt 0.497943 0.671443
vt 0.836800 0.000000
vt 0.851237 0.104420
vt 0.727705 0.117440
vt 0.732882 0.000000
vt 0.826585 0.256506
vt 0.720461 0.261387
vt 0.637383 0.129245
vt 0.611178 0.345909
vt 0.529130 0.357197
vt 0.527508 0.148769
vt 0.642396 0.000000
vt 0.533918 0.000000
vt 0.637383 0.129245
vt 0.611177 0.345925
vt 0.611178 0.345909
vt 0.637383 0.129245
vt 0.642396 0.000000
vt 0.642396 0.000000
vt 0.529124 0.357211
vt 0.527496 0.148818
vt 0.527508 0.148769
vt 0.529130 0.357197
vt 0.533898 0.000086
vt 0.533918 0.000000
vt 0.396522 0.999983
vt 0.403614 0.894087
vt 0.403614 0.894087
vt 0.396582 1.000000
vt 0.411123 0.674733
vt 0.411123 0.674733
vt 0.836800 0.000000
vt 0.851237 0.104420
vt 0.851237 0.104420
vt 0.836800 0.000000
vt 0.826585 0.256506
vt 0.826585 0.256506
vt 0.727705 0.117440
vt 0.732882 0.000000
vt 0.732882 0.000000
vt 0.727705 0.117440
vt 0.720461 0.261387
vt 0.720461 0.261387
vt 0.787127 0.784406
vt 0.830024 0.789859
vt 0.830024 0.789859
vt 0.787127 0.784406
vt 0.734974 0.800794
vt 0.734974 0.800794
vt 0.320061 0.255344
vt 0.305912 0.470125
vt 0.305912 0.470125
vt 0.320061 0.255344
vt 0.308526 0.737560
vt 0.308526 0.737560
vt 0.332060 0.108955
vt 0.519702 0.895690
vt 0.515830 1.000000
vt 0.515830 1.000000
vt 0.519702 0.895690
vt 0.497943 0.671443
vt 0.497943 0.671443
vt 0.519702 0.895690
vt 0.182625 0.578977
vt 0.182582 0.367804
vt 0.182582 0.367804
vt 0.182625 0.578977
vt 0.205891 0.252031
vt 0.205891 0.252031
vt 0.213249 0.089206
vt 0.200517 0.791391
vt 0.200517 0.791391
vt 0.308526 0.737560
vt 0.289198 0.764083
vt 0.289198 0.764083
vt 0.308526 0.737560
vt 0.954626 0.536255
vt 0.831259 0.525370
vt 0.831267 0.525370
vt 0.954626 0.536255
vt 0.831259 0.525370
vt 0.826585 0.256506
vt 0.831267 0.525370
vt 0.533898 0.000086
vt 0.642396 0.000000
vt 0.642396 0.000000
vt 0.533918 0.000000
vt 0.411123 0.674733
vt 0.497943 0.671443
vt 0.497943 0.671443
vt 0.411123 0.674733
vt 0.826585 0.256506
vt 0.720461 0.261387
vt 0.720461 0.261387
vt 0.826585 0.256506
vt 0.623731 0.886737
vt 0.519702 0.895690
vt 0.519702 0.895690
vt 0.623731 0.886737
vt 0.622350 0.701882
vt 0.623731 0.886737
vt 0.623731 0.886737
vt 0.830024 0.789859
vt 0.846891 1.000000
vt 0.846836 0.999990
vt 0.830024 0.789859
vt 0.726009 0.999980
vt 0.734974 0.800794
vt 0.734974 0.800794
vt 0.726039 1.000000
vn 0.035561 0.008702 0.999330
vn 0.036922 0.006130 0.999299
vn 0.039130 0.001957 0.999232
vn 0.042079 -0.003622 0.999108
vn 0.000000 0.000000 1.000000
vn 0.000000 0.000000 1.000000
vn 0.000000 0.000000 1.000000
vn -0.000000 -0.000000 1.000000
vn -0.000000 0.000000 1.000000
vn 0.000000 0.000000 1.000000
vn 0.000000 -0.000000 1.000000
vn 0.000000 -0.000000 1.000000
vn -0.000000 -0.000000 1.000000
vn -0.000000 0.000000 1.000000
vn 0.000000 0.000000 1.000000
vn 0.000000 0.000000 1.000000
vn -0.000000 0.000000 1.000000
vn 0.000000 0.000000 1.000000
vn 0.000000 0.000000 1.000000
vn -0.000000 -0.000000 1.000000
vn -0.000000 0.000000 1.000000
vn -0.000000 0.000000 1.000000
vn -0.000000 0.000000 1.000000
vn -0.009670 0.001330 0.999952
vn 0.000000 -0.000000 1.000000
vn 0.000000 0.000000 1.000000
vn -0.002200 0.009595 0.999952
vn -0.006261 0.220799 0.975299
vn 0.038251 0.999268 0.000000
vn 0.038251 0.999268 0.000000
vn -0.026848 0.999640 0.000000
vn 0.000000 0.000000 1.000000
vn -0.000000 0.000000 1.000000
vn 0.000000 -0.000000 1.000000
vn -0.000000 0.000000 1.000000
vn -0.000000 0.000000 1.000000
vn -0.000000 0.000000 1.000000
vn -0.000000 0.000000 1.000000
vn -0.011007 0.001513 0.999938
vn 0.000000 -0.000000 1.000000
vn -0.990680 0.136213 0.000000
vn -0.990680 0.136213 0.000000
vn -0.000000 -0.000000 1.000000
vn 0.000000 0.000000 1.000000
vn -0.000000 0.000000 1.000000
vn -0.000000 0.000000 1.000000
vn 0.000000 -0.000000 1.000000
vn 0.000000 0.000000 1.000000
vn 0.000000 0.000000 1.000000
vn 0.000000 0.000000 1.000000
vn 0.000000 0.000000 1.000000
vn 0.000000 -0.000000 1.000000
vn 0.000000 -0.000000 1.000000
vn 0.000000 -0.000000 1.000000
vn 0.000000 -0.000000 1.000000
vn 0.000000 -0.000000 1.000000
vn 0.022231 -0.032883 0.999212
vn 0.024693 -0.036525 0.999028
vn 0.000000 -0.000000 1.000000
vn 0.029131 -0.037621 0.998867
vn 0.029460 -0.033248 0.999013
vn 0.029460 -0.033248 0.999013
vn 0.029203 -0.036664 0.998901
vn 0.014440 -0.000000 0.999896
vn 0.014440 0.000000 0.999896
vn 0.014440 -0.000000 0.999896
vn 0.025138 0.002694 0.999680
vn 0.014440 -0.000000 0.999896
vn 0.014440 0.000000 0.999896
vn 0.028839 0.003128 0.999579
vn 0.037696 0.004070 0.999281
vn 0.037784 -0.003084 0.999281
vn 0.014440 0.000000 0.999896
vn 0.014440 -0.000000 0.999896
vn 0.037674 0.005851 0.999273
vn -0.982177 0.178696 0.058281
vn -0.953528 0.295813 0.057272
vn -0.954264 0.293422 0.057302
vn -0.982177 0.178696 0.058281
vn -0.907295 0.416849 0.055261
vn -0.907295 0.416849 0.055261
vn 0.000000 0.000000 1.000000
vn 0.000000 0.000000 1.000000
vn 0.000000 0.000000 1.000000
vn 0.000000 0.000000 1.000000
vn 0.000000 -0.000000 1.000000
vn 0.000000 -0.000000 1.000000
vn 0.000000 -0.000000 1.000000
vn 0.000000 -0.000000 1.000000
vn 0.000000 -0.000000 1.000000
vn 0.000000 -0.000000 1.000000
vn 0.000000 -0.000000 1.000000
vn 0.000000 -0.000000 1.000000
vn 0.016401 -0.001843 0.999864
vn 0.010767 -0.001730 0.999941
vn 0.010767 -0.001730 0.999941
vn 0.014815 -0.001811 0.999889
vn 0.021767 -0.001950 0.999761
vn 0.021767 -0.001950 0.999761
vn -0.094980 0.995479 0.000000
vn -0.120104 0.992761 0.000000
vn -0.120104 0.992761 0.000000
vn -0.095353 0.995444 0.000000
vn -0.038739 0.999249 0.000000
vn -0.038739 0.999249 0.000000
vn -0.007784 -0.999970 -0.000000
vn 0.010045 -0.999950 0.000000
vn 0.009815 -0.999952 0.000000
vn -0.007784 -0.999970 -0.000000
vn 0.043004 -0.999075 0.000000
vn 0.043004 -0.999075 0.000000
vn -0.066227 0.997805 0.000000
vn -0.044653 0.999003 0.000000
vn -0.044653 0.999003 0.000000
vn -0.066227 0.997805 0.000000
vn -0.034212 0.999415 0.000000
vn -0.034212 0.999415 0.000000
vn -0.136971 -0.990575 0.000000
vn 0.039785 -0.999208 0.000000
vn 0.039785 -0.999208 0.000000
vn -0.136971 -0.990575 0.000000
vn 0.159997 -0.987117 0.000000
vn 0.159997 -0.987117 0.000000
vn -0.047464 0.998873 0.000000
vn -0.044033 0.999030 0.000000
vn -0.044033 0.999030 0.000000
vn -0.047464 0.998873 0.000000
vn -0.050264 0.998736 0.000000
vn -0.050264 0.998736 0.000000
vn 0.993446 -0.114301 0.000000
vn 0.992017 0.126107 0.000000
vn 0.992017 0.126107 0.000000
vn 0.993446 -0.114301 0.000000
vn 0.954003 -0.299797 0.000000
vn 0.954003 -0.299797 0.000000
vn -0.069526 0.997577 -0.002553
vn -0.017028 0.999855 -0.000781
vn -0.017084 0.999854 -0.000781
vn -0.068937 0.997618 -0.002395
vn 0.009783 0.999952 -0.000353
vn 0.009783 0.999952 -0.000353
vn -0.081915 0.996622 -0.005889
vn -0.064198 -0.997937 0.000000
vn 0.037101 -0.999312 0.000000
vn 0.037101 -0.999312 0.000000
vn -0.054368 -0.998521 0.000000
vn -0.096590 -0.995324 0.000000
vn -0.096590 -0.995324 0.000000
vn -0.096590 -0.995324 0.000000
vn -0.049065 -0.998793 0.002386
vn 0.059496 -0.998225 0.002667
vn 0.056473 -0.998401 0.002533
vn -0.047790 -0.998855 0.002323
vn 0.137144 -0.990529 0.006658
vn 0.144973 -0.989411 0.006940
vn 0.045275 -0.998969 0.003340
vn -0.084008 -0.996457 0.004091
vn -0.084008 -0.996457 0.004091
vn -0.588764 0.807602 0.033700
vn -0.588764 0.807602 0.033700
vn -0.588764 0.807602 0.033700
vn -0.588764 0.807602 0.033700
vn -0.996129 -0.087900 0.000000
vn -0.996129 -0.087900 0.000000
vn -0.996129 -0.087900 0.000000
vn -0.996129 -0.087900 0.000000
vn -0.017413 -0.999848 0.000000
vn -0.017413 -0.999848 0.000000
vn -0.017413 -0.999848 0.000000
vn 1.000000 -0.000000 0.000000
vn 1.000000 -0.000000 0.000000
vn 1.000000 -0.000000 0.000000
vn 1.000000 -0.000000 0.000000
vn -0.999283 0.037868 0.000000
vn -0.999283 0.037868 0.000000
vn -0.999283 0.037868 0.000000
vn -0.999283 0.037868 0.000000
vn 0.998934 -0.046158 0.000000
vn 0.998934 -0.046158 0.000000
vn 0.998934 -0.046158 0.000000
vn 0.998934 -0.046158 0.000000
vn -0.996315 0.085766 0.000000
vn -0.996315 0.085766 0.000000
vn -0.996315 0.085766 0.000000
vn -0.996315 0.085766 0.000000
vn 0.007484 0.999972 0.000000
vn 0.007484 0.999972 0.000000
vn 0.007484 0.999972 0.000000
vn 0.080008 0.996794 0.000000
vn 0.080008 0.996794 0.000000
vn 0.080008 0.996794 0.000000
vn 0.080008 0.996794 0.000000
vn 0.044817 -0.998995 0.000000
vn 0.044817 -0.998995 0.000000
vn 0.044817 -0.998995 0.000000
vn 0.044817 -0.998995 0.000000
f 1/1/1 2/2/2 3/3/3
f 4/4/4 3/3/3 2/2/2
f 5/5/5 6/6/6 7/7/7
f 8/8/8 9/9/9 10/10/10
f 11/11/11 12/12/12 13/13/13
f 11/11/11 13/13/13 14/14/14
f 14/14/14 15/15/15 16/16/16
f 14/14/14 16/16/16 17/17/17
f 18/18/18 7/7/7 6/6/6
f 18/18/18 6/6/6 19/19/19
f 17/17/17 16/16/16 20/20/20
f 14/14/14 21/21/21 15/15/15
f 14/14/14 13/13/13 21/21/21
f 8/8/8 22/22/22 9/9/9
f 17/17/17 20/20/20 22/22/22
f 17/17/17 22/22/22 8/8/8
f 23/23/23 12/12/12 11/11/11
f 24/24/24 25/25/25 26/26/26
f 27/27/27 18/18/18 28/28/28
f 7/7/7 18/18/18 27/27/27
f 28/28/28 29/29/29 30/30/30
f 28/28/28 30/30/30 31/31/31
f 27/27/27 28/28/28 31/31/31
f 32/32/32 19/19/19 33/33/33
f 19/19/19 6/6/6 34/34/34
f 35/35/35 36/36/36 37/37/37
f 35/35/35 37/37/37 38/38/38
f 39/39/39 40/40/40 25/25/25
f 39/39/39 25/25/25 24/24/24
f 39/39/39 24/24/24 41/41/41
f 39/39/39 41/41/41 42/42/42
f 8/8/8 10/10/10 43/43/43
f 24/24/24 26/26/26 10/10/10
f 24/24/24 10/10/10 44/44/44
f 24/24/24 44/44/44 45/45/45
f 46/46/46 24/24/24 45/45/45
f 46/46/46 45/45/45 23/23/23
f 11/11/11 46/46/46 23/23/23
f 10/10/10 26/26/26 43/43/43
f 38/38/38 37/37/37 47/47/47
f 19/19/19 47/47/47 40/40/40
f 19/19/19 40/40/40 39/39/39
f 33/33/33 19/19/19 39/39/39
f 48/48/48 33/33/33 39/39/39
f 48/48/48 39/39/39 49/49/49
f 50/50/50 48/48/48 49/49/49
f 50/50/50 49/49/49 51/51/51
f 47/47/47 37/37/37 40/40/40
f 19/19/19 34/34/34 47/47/47
f 52/52/52 53/53/53 54/54/54
f 55/55/55 56/56/56 53/53/53
f 55/55/55 53/53/53 52/52/52
f 57/57/57 58/58/58 59/59/59
f 60/60/60 61/61/61 62/62/62
f 60/60/60 62/62/62 63/63/63
f 57/57/57 60/60/60 63/63/63
f 57/57/57 63/63/63 58/58/58
f 64/64/64 65/65/65 66/66/66
f 64/64/64 66/66/66 67/67/67
f 68/68/68 69/69/69 64/64/64
f 67/67/67 66/66/66 70/70/70
f 71/71/71 70/70/70 72/72/72
f 64/64/64 69/69/69 73/73/73
f 64/64/64 73/73/73 65/65/65
f 65/65/65 73/73/73 74/74/74
f 67/67/67 70/70/70 71/71/71
f 67/67/67 71/71/71 75/75/75
f 76/76/76 77/77/77 78/78/78
f 76/76/76 78/78/78 79/79/79
f 77/77/77 80/80/80 81/81/81
f 77/77/77 81/81/81 78/78/78
f 82/82/82 83/83/83 84/84/84
f 82/82/82 84/84/84 85/85/85
f 86/86/86 87/87/87 84/84/84
f 86/86/86 84/84/84 83/83/83
f 88/88/88 89/89/89 90/90/90
f 88/88/88 90/90/90 91/91/91
f 89/89/89 92/92/92 93/93/93
f 89/89/89 93/93/93 90/90/90
f 94/94/94 95/95/95 96/96/96
f 94/94/94 96/96/96 97/97/97
f 98/98/98 94/94/94 97/97/97
f 98/98/98 97/97/97 99/99/99
f 100/100/100 101/101/101 102/102/102
f 100/100/100 102/102/102 103/103/103
f 104/104/104 100/100/100 103/103/103
f 104/104/104 103/103/103 105/105/105
f 106/106/106 107/107/107 108/108/108
f 106/106/106 108/108/108 109/109/109
f 107/107/107 110/110/110 111/111/111
f 107/107/107 111/111/111 108/108/108
f 112/112/112 113/113/113 114/114/114
f 112/112/112 114/114/114 115/115/115
f 113/113/113 116/116/116 117/117/117
f 113/113/113 117/117/117 114/114/114
f 118/118/118 119/119/119 120/120/120
f 118/118/118 120/120/120 121/121/121
f 119/119/119 122/122/122 123/123/123
f 119/119/119 123/123/123 120/120/120
f 124/124/124 125/125/125 126/126/126
f 124/124/124 126/126/126 127/127/127
f 128/128/128 124/124/124 127/127/127
f 128/128/128 127/127/127 129/129/129
f 130/130/130 131/131/131 132/132/132
f 130/130/130 132/132/132 133/133/133
f 134/134/134 130/130/130 133/133/133
f 134/134/134 133/133/133 135/135/135
f 136/136/136 137/137/137 138/138/138
f 136/136/136 138/138/138 139/139/139
f 137/137/137 140/140/140 141/141/141
f 137/137/137 141/141/141 138/138/138
f 142/142/142 136/136/136 139/139/139
f 143/143/143 144/144/144 145/145/145
f 143/143/143 145/145/145 146/146/146
f 147/147/147 143/143/143 146/146/146
f 147/147/147 146/146/146 148/148/148
f 143/143/143 147/147/147 149/149/149
f 150/150/150 151/151/151 152/152/152
f 150/150/150 152/152/152 153/153/153
f 151/151/151 154/154/154 155/155/155
f 151/151/151 155/155/155 152/152/152
f 154/154/154 156/156/156 155/155/155
f 157/157/157 150/150/150 153/153/153
f 157/157/157 153/153/153 158/158/158
f 159/159/159 160/160/160 161/161/161
f 159/159/159 161/161/161 162/162/162
f 163/163/163 164/164/164 165/165/165
f 163/163/163 165/165/165 166/166/166
f 167/167/167 168/168/168 169/169/169
f 170/170/170 171/171/171 172/172/172
f 170/170/170 172/172/172 173/173/173
f 174/174/174 175/175/175 176/176/176
f 174/174/174 176/176/176 177/177/177
f 178/178/178 179/179/179 180/180/180
f 178/178/178 180/180/180 181/181/181
f 182/182/182 183/183/183 184/184/184
f 182/182/182 184/184/184 185/185/185
f 186/186/186 187/187/187 188/188/188
f 189/189/189 190/190/190 191/191/191
f 189/189/189 191/191/191 192/192/192
f 193/193/193 194/194/194 195/195/195
f 193/193/193 195/195/195 196/196/196
