v 6.363088 2.088342 0.095304
v 6.358837 2.106178 0.085534
v 6.357413 2.088403 0.093667
v 6.380818 2.083314 0.069978
v 6.377897 2.083263 0.065195
v 6.374163 2.102232 0.064838
v 6.359956 2.072066 -0.047976
v 6.350224 2.052531 -0.055674
v 6.333933 2.103091 -0.080385
v 6.226618 2.090880 0.100546
v 6.243591 2.102207 0.109062
v 6.210857 2.134809 0.085730
v 6.348892 2.016621 0.096614
v 6.341954 2.014553 0.097973
v 6.342170 1.996291 0.099046
v 6.359114 2.019614 0.093014
v 6.356215 2.019082 0.094629
v 6.353932 2.003193 0.094139
v 6.360284 2.018904 0.089666
v 6.362121 2.012811 0.076039
v 6.361286 2.015896 0.082349
v 6.355370 1.996826 0.082822
v 6.308555 2.086831 0.121128
v 6.310610 2.112753 0.115733
v 6.287926 2.115109 0.119258
v 6.286165 2.089896 0.123441
v 6.263859 2.096291 0.118917
v 6.268492 2.119421 0.117780
v 6.246168 2.126426 0.109272
v 6.329488 2.110072 0.105139
v 6.329165 2.086570 0.109764
v 6.344819 2.086816 0.100299
v 6.345687 2.108363 0.094763
v 6.368654 2.107810 0.084051
v 6.377241 2.086870 0.096577
v 6.383907 2.085774 0.091183
v 6.374646 2.107934 0.080441
v 6.387891 2.066471 0.013306
v 6.384735 2.064432 -0.009188
v 6.385415 2.089981 -0.012402
v 6.388680 2.092636 0.010295
v 6.374843 2.067667 -0.030658
v 6.378817 2.090982 -0.031215
v 6.365264 2.095729 -0.051572
v 6.384114 2.095986 0.031354
v 6.382961 2.072248 0.034950
v 6.379120 2.099817 0.049693
v 6.380179 2.077731 0.052206
v 6.377173 2.106102 0.074638
v 6.387527 2.084134 0.083474
v 6.283336 2.062775 0.121126
v 6.305202 2.058514 0.120397
v 6.262268 2.069789 0.118398
v 6.240577 2.076825 0.110946
v 6.324617 2.058102 0.110921
v 6.341148 2.058839 0.104219
v 6.351821 2.060261 0.097901
v 6.360076 2.061081 0.096658
v 6.370492 2.061004 0.096108
v 6.375587 2.060505 0.092483
v 6.385728 2.041766 0.022609
v 6.379481 2.041289 0.002512
v 6.373173 2.042785 -0.019239
v 6.362034 2.042077 -0.037946
v 6.379532 2.046346 0.041698
v 6.377273 2.051538 0.057427
v 6.374962 2.055684 0.068280
v 6.377746 2.059092 0.085811
v 6.376479 2.057345 0.075388
v 6.303053 2.033867 0.115023
v 6.282020 2.038143 0.119085
v 6.278636 2.010752 0.116759
v 6.298201 2.008214 0.111571
v 6.259584 2.043803 0.117884
v 6.256839 2.016057 0.116832
v 6.237079 2.053384 0.111021
v 6.236447 2.020860 0.113449
v 6.320887 2.033955 0.107679
v 6.315309 2.007778 0.104848
v 6.336109 2.034426 0.101951
v 6.330059 2.009486 0.099406
v 6.346208 2.036646 0.098304
v 6.362037 2.038884 0.094715
v 6.354486 2.037996 0.096298
v 6.366090 2.038978 0.092093
v 6.368619 2.022390 0.014044
v 6.379733 2.017826 0.030860
v 6.375390 1.996030 0.038553
v 6.357980 2.002492 0.029703
v 6.370741 2.018418 -0.007158
v 6.369174 2.001545 0.015994
v 6.356091 2.023461 -0.021829
v 6.353833 2.004397 0.011119
v 6.374025 2.023161 0.047138
v 6.371696 2.000433 0.054249
v 6.370795 2.028144 0.061206
v 6.363569 2.006384 0.066130
v 6.368906 2.032988 0.071494
v 6.368365 2.035933 0.079336
v 6.367826 2.038070 0.087098
v 6.257479 1.991307 0.115990
v 6.235556 1.990267 0.113957
v 6.215526 1.962411 0.109196
v 6.236758 1.967763 0.116096
v 6.278467 1.986852 0.114227
v 6.270290 1.966275 0.114060
v 6.295632 1.985168 0.108489
v 6.293991 1.964222 0.108098
v 6.312550 1.984379 0.103246
v 6.310947 1.963052 0.108208
v 6.326981 1.986184 0.101204
v 6.324217 1.964869 0.111569
v 6.338278 1.970155 0.111066
v 6.349299 1.971993 0.101715
v 6.347184 1.970828 0.087296
v 6.350640 1.986156 0.069857
v 6.336737 1.969442 0.077695
v 6.356402 1.976068 0.056672
v 6.352690 1.960834 0.074210
v 6.363013 1.981387 0.061048
v 6.345915 1.970197 0.066146
v 6.355814 1.995162 0.050111
v 6.348156 1.985735 0.065151
v 6.366746 1.996288 0.047085
v 6.360914 1.973365 0.069308
v 6.355750 1.997913 0.036885
v 6.356240 1.983097 0.070052
v 6.218212 1.941700 0.115549
v 6.195940 1.939845 0.103854
v 6.191051 1.924945 0.103687
v 6.208863 1.921789 0.116042
v 6.264444 1.945291 0.114818
v 6.243275 1.922238 0.118849
v 6.295221 1.944902 0.112589
v 6.268338 1.925604 0.114554
v 6.310272 1.946960 0.119078
v 6.287112 1.929561 0.120399
v 6.322124 1.946275 0.123522
v 6.291988 1.926718 0.126511
v 6.333783 1.944665 0.116814
v 6.300879 1.927849 0.131405
v 6.338152 1.945728 0.104793
v 6.312276 1.925796 0.127938
v 6.329937 1.952007 0.096145
v 6.319139 1.933433 0.129382
v 6.328984 1.958601 0.088533
v 6.315507 1.941248 0.118049
v 6.344275 1.959733 0.093154
v 6.313809 1.952861 0.109606
v 6.338754 1.975453 0.084356
v 6.313876 1.955436 0.097172
v 6.326451 1.975792 0.066720
v 6.304733 1.952462 0.084577
v 6.337950 1.957243 0.083459
v 6.315968 1.947184 0.100887
v 6.348495 1.956039 0.093103
v 6.331974 1.943649 0.102424
v 6.211423 2.148152 0.087642
v 6.338229 2.115410 -0.083520
v 6.348156 1.985735 0.065151
v 6.185677 1.910874 0.103196
v 6.199070 1.905518 0.115708
v 6.222725 1.903664 0.122719
v 6.244182 1.904069 0.115857
v 6.266557 1.911160 0.119167
v 6.265204 1.905570 0.125142
v 6.300879 1.927849 0.131405
v 6.271115 1.905518 0.131223
v 6.312276 1.925796 0.127938
v 6.279127 1.909529 0.136711
v 6.319139 1.933433 0.129382
v 6.287802 1.909957 0.138294
v 6.300697 1.914268 0.138069
v 6.299400 1.925738 0.123929
v 6.290956 1.930398 0.114867
v 6.285297 1.932868 0.105677
v 6.301745 1.934260 0.113303
v 6.317433 1.938761 0.115124
vt 0.448101 0.519374
vt 0.446418 0.571433
vt 0.434860 0.519938
vt 0.551870 0.519396
vt 0.565113 0.519957
vt 0.553615 0.571466
vt 0.879202 0.498306
vt 0.923478 0.465105
vt 0.995789 0.562332
vt 0.076509 0.465134
vt 0.120750 0.498471
vt 0.004195 0.562550
vt 0.460200 0.338263
vt 0.450019 0.336666
vt 0.461560 0.285565
vt 0.500253 0.342237
vt 0.493236 0.341893
vt 0.500434 0.305329
vt 0.507310 0.342107
vt 0.550293 0.337727
vt 0.540130 0.339207
vt 0.539145 0.287683
vt 0.296884 0.490781
vt 0.293349 0.558876
vt 0.232651 0.553217
vt 0.239683 0.488058
vt 0.180070 0.493839
vt 0.180278 0.554462
vt 0.115844 0.560809
vt 0.350597 0.563191
vt 0.354171 0.500861
vt 0.400018 0.510371
vt 0.401668 0.568677
vt 0.480527 0.576404
vt 0.481632 0.516035
vt 0.500001 0.516544
vt 0.499980 0.578280
vt 0.703062 0.490694
vt 0.760258 0.487943
vt 0.767345 0.553094
vt 0.706666 0.558781
vt 0.819876 0.493701
vt 0.819710 0.554320
vt 0.884141 0.560641
vt 0.649438 0.563143
vt 0.645794 0.500831
vt 0.598377 0.568673
vt 0.599949 0.510373
vt 0.519463 0.576505
vt 0.518354 0.516006
vt 0.251247 0.426418
vt 0.309285 0.427422
vt 0.190287 0.430661
vt 0.126905 0.436749
vt 0.362839 0.436308
vt 0.406156 0.445352
vt 0.436669 0.453853
vt 0.453449 0.456003
vt 0.481835 0.457410
vt 0.499987 0.458105
vt 0.690615 0.427309
vt 0.748658 0.426309
vt 0.809626 0.430541
vt 0.873012 0.436607
vt 0.637082 0.436320
vt 0.593781 0.445374
vt 0.563277 0.453864
vt 0.518133 0.457406
vt 0.546512 0.456046
vt 0.321686 0.364063
vt 0.262811 0.364778
vt 0.276820 0.303532
vt 0.331087 0.304244
vt 0.200505 0.367483
vt 0.216648 0.306576
vt 0.133060 0.375028
vt 0.153222 0.304738
vt 0.371507 0.371754
vt 0.379668 0.309857
vt 0.412295 0.380333
vt 0.419128 0.318889
vt 0.438477 0.387767
vt 0.482037 0.398785
vt 0.458797 0.392632
vt 0.499973 0.399667
vt 0.737058 0.364674
vt 0.678167 0.363924
vt 0.668681 0.303662
vt 0.723361 0.303953
vt 0.799375 0.367380
vt 0.783318 0.306628
vt 0.866823 0.374907
vt 0.846680 0.304664
vt 0.628370 0.371809
vt 0.620474 0.311009
vt 0.587613 0.380374
vt 0.581004 0.320651
vt 0.561440 0.387772
vt 0.541154 0.392696
vt 0.517911 0.398806
vt 0.232792 0.245668
vt 0.173384 0.234449
vt 0.191466 0.198446
vt 0.245878 0.200116
vt 0.290830 0.242286
vt 0.300695 0.195856
vt 0.340488 0.244424
vt 0.349180 0.195885
vt 0.387829 0.247960
vt 0.394696 0.197399
vt 0.425960 0.257445
vt 0.431044 0.199682
vt 0.465298 0.215480
vt 0.500579 0.227463
vt 0.535679 0.217032
vt 0.574394 0.260928
vt 0.569641 0.202115
vt 0.612578 0.250210
vt 0.605917 0.198942
vt 0.659196 0.243401
vt 0.650944 0.195346
vt 0.709664 0.243232
vt 0.699919 0.196419
vt 0.767260 0.245876
vt 0.754189 0.200324
vt 0.826538 0.234421
vt 0.808466 0.198435
vt 0.258965 0.154564
vt 0.209549 0.162442
vt 0.225274 0.124649
vt 0.270426 0.107664
vt 0.310561 0.149427
vt 0.322001 0.101412
vt 0.357872 0.147346
vt 0.368201 0.098122
vt 0.401562 0.146837
vt 0.413146 0.098598
vt 0.436128 0.141919
vt 0.440173 0.081526
vt 0.469035 0.145395
vt 0.470611 0.075493
vt 0.500724 0.149597
vt 0.500372 0.075799
vt 0.532214 0.146382
vt 0.530035 0.075976
vt 0.564887 0.143303
vt 0.560356 0.082203
vt 0.599255 0.147675
vt 0.587270 0.099006
vt 0.642693 0.147290
vt 0.632087 0.098089
vt 0.690174 0.149605
vt 0.678369 0.101501
vt 0.741117 0.154771
vt 0.729616 0.107774
vt 0.790393 0.162449
vt 0.774689 0.124666
vt 0.002000 0.597317
vt 0.998000 0.597098
vt 0.699919 0.196419
vt 0.240999 0.086856
vt 0.281886 0.060764
vt 0.333442 0.053398
vt 0.378530 0.048898
vt 0.424730 0.050359
vt 0.444217 0.021133
vt 0.470611 0.075493
vt 0.472186 0.005591
vt 0.500372 0.075799
vt 0.500019 0.002000
vt 0.530035 0.075976
vt 0.527855 0.005570
vt 0.555825 0.021103
vt 0.575286 0.050337
vt 0.621481 0.048887
vt 0.666565 0.053396
vt 0.718116 0.060776
vt 0.758985 0.086883
vn -0.029344 0.242518 0.969703
vn 0.261296 0.394004 0.881184
vn 0.346959 0.177273 0.920974
vn 0.931627 -0.050759 -0.359853
vn 0.997595 0.007548 0.068906
vn 0.973850 0.188523 -0.126788
vn 0.715359 -0.221770 -0.662631
vn 0.683106 -0.274994 -0.676569
vn 0.623679 -0.275665 -0.731460
vn -0.513907 0.106366 0.851226
vn -0.454258 0.064558 0.888528
vn -0.549010 0.012566 0.835721
vn 0.278296 -0.040875 0.959625
vn 0.202010 -0.038690 0.978619
vn 0.240186 0.199435 0.950019
vn 0.741589 -0.229253 0.630467
vn 0.338555 -0.072036 0.938185
vn 0.832935 -0.115964 0.541083
vn 0.915884 -0.299696 0.267093
vn 0.917567 -0.316928 0.240059
vn 0.927437 -0.292492 0.233043
vn 0.936839 -0.345518 0.054313
vn 0.291945 0.042531 0.955489
vn 0.322123 0.163855 0.932410
vn 0.019713 0.148836 0.988666
vn -0.017709 0.042662 0.998933
vn -0.264724 0.056223 0.962684
vn -0.256123 0.098162 0.961647
vn -0.497883 0.024696 0.866893
vn 0.505359 0.160719 0.847810
vn 0.480000 0.063300 0.874982
vn 0.492908 0.110040 0.863095
vn 0.520322 0.209593 0.827850
vn 0.217779 0.545560 0.809282
vn 0.269492 0.228315 0.935546
vn 0.795536 0.160866 0.584162
vn 0.689709 0.544015 0.477860
vn 0.996005 -0.086323 0.022838
vn 0.943650 -0.182068 -0.276363
vn 0.961389 -0.081203 -0.262941
vn 0.998867 -0.027456 0.038875
vn 0.833210 -0.207816 -0.512419
vn 0.838959 -0.165791 -0.518325
vn 0.659676 -0.269458 -0.701584
vn 0.976888 0.006279 0.213660
vn 0.975043 -0.022290 0.220896
vn 0.975169 0.070600 0.209909
vn 0.979282 -0.012226 0.202130
vn 0.922947 0.353192 -0.153052
vn 0.998954 -0.009872 -0.044652
vn -0.035208 -0.070529 0.996888
vn 0.250864 -0.117641 0.960848
vn -0.237575 0.000643 0.971369
vn -0.418332 0.070048 0.905589
vn 0.424983 -0.101889 0.899449
vn 0.436942 -0.052622 0.897949
vn 0.344000 -0.001852 0.938968
vn 0.046393 0.005699 0.998907
vn 0.232841 -0.083583 0.968917
vn 0.748579 -0.267847 0.606538
vn 0.972424 -0.233217 0.001265
vn 0.914341 -0.329307 -0.235662
vn 0.827746 -0.353592 -0.435671
vn 0.698861 -0.357741 -0.619366
vn 0.959697 -0.099601 0.262795
vn 0.965855 -0.133808 0.221854
vn 0.978492 -0.173005 0.112350
vn 0.938438 -0.340829 0.056295
vn 0.941826 -0.299331 -0.152858
vn 0.264122 -0.170819 0.949242
vn 0.033273 -0.098000 0.994630
vn 0.101740 -0.096047 0.990164
vn 0.284181 -0.145602 0.947651
vn -0.165852 -0.006733 0.986128
vn -0.099543 -0.021073 0.994810
vn -0.294531 0.039179 0.954839
vn -0.183892 0.018628 0.982770
vn 0.373355 -0.185890 0.908873
vn 0.327935 -0.134001 0.935149
vn 0.351492 -0.153877 0.923458
vn 0.250445 -0.069630 0.965624
vn 0.318718 -0.097765 0.942794
vn 0.293194 -0.121025 0.948362
vn 0.198494 -0.058468 0.978357
vn 0.739072 -0.303932 0.601163
vn 0.907017 -0.363433 -0.212688
vn 0.903199 -0.386949 -0.185748
vn 0.604713 -0.701643 -0.376854
vn 0.771054 -0.185747 -0.609076
vn 0.682944 -0.633179 -0.364241
vn 0.660209 -0.744030 -0.102686
vn 0.531740 -0.604587 -0.593067
vn 0.070385 -0.898163 -0.433992
vn 0.937795 -0.111458 0.328813
vn 0.856880 -0.167003 0.487716
vn 0.933655 -0.178868 0.310313
vn 0.857979 -0.290156 0.423889
vn 0.941444 -0.252036 0.223968
vn 0.938251 -0.326842 0.113397
vn 0.910194 -0.359283 0.206067
vn -0.026052 -0.026552 0.999308
vn -0.176095 0.043248 0.983423
vn -0.373724 0.189790 0.907916
vn -0.077591 0.032319 0.996461
vn 0.158747 -0.078808 0.984169
vn 0.106930 -0.001516 0.994265
vn 0.258833 -0.066992 0.963596
vn 0.127016 0.107422 0.986067
vn 0.170753 0.064665 0.983190
vn -0.087890 0.336262 0.937658
vn 0.011487 0.246626 0.969043
vn -0.049591 0.413257 0.909263
vn 0.361851 0.231078 0.903143
vn 0.917830 -0.187857 0.349711
vn 0.835689 -0.480870 -0.265306
vn 0.870673 -0.313455 0.379043
vn 0.964135 0.038244 0.262645
vn 0.737838 -0.170968 0.652966
vn -0.257084 -0.045106 0.965336
vn -0.152878 -0.748196 -0.645625
vn -0.567457 -0.594582 -0.569618
vn -0.479739 -0.589117 -0.650225
vn -0.087043 0.973178 -0.212953
vn 0.893255 -0.449541 -0.002796
vn -0.277609 0.630302 0.725019
vn -0.090300 -0.955148 -0.282027
vn -0.599244 -0.554817 -0.577134
vn -0.180719 0.137795 0.973834
vn -0.470076 0.213721 0.856360
vn -0.528238 0.234539 0.816062
vn -0.257989 0.206268 0.943872
vn 0.068517 0.033940 0.997073
vn 0.050641 0.047695 0.997577
vn -0.093760 0.315818 0.944176
vn -0.023100 0.128537 0.991436
vn -0.291120 0.523553 0.800713
vn -0.399773 0.561772 0.724288
vn -0.035205 0.429916 0.902182
vn -0.408579 0.590605 0.695880
vn 0.559581 -0.022630 0.828467
vn 0.244714 0.158319 0.956583
vn 0.786388 -0.617705 0.005860
vn 0.575751 -0.563452 0.592480
vn 0.172700 -0.771221 -0.612693
vn -0.538653 -0.515856 -0.666143
vn 0.276080 -0.051355 -0.959762
vn 0.079198 -0.712686 -0.696998
vn -0.496084 -0.486335 -0.719291
vn 0.252352 -0.646795 -0.719705
vn 0.024845 -0.876356 -0.481024
vn 0.400976 -0.798140 -0.449657
vn 0.412403 0.136658 0.900693
vn 0.679626 0.246410 0.690935
vn -0.162406 0.753830 0.636682
vn -0.162610 0.816684 0.553702
vn -0.414292 0.822699 0.389267
vn -0.087380 0.830648 0.549898
vn -0.554810 -0.000587 0.831977
vn 0.606713 -0.299639 -0.736285
vn -0.088645 0.467944 0.879301
vn -0.558228 0.257578 0.788692
vn -0.362305 0.251509 0.897485
vn -0.075249 0.158449 0.984496
vn 0.182876 -0.091647 0.978855
vn -0.390829 0.439961 0.808509
vn -0.518051 0.615315 0.594147
vn -0.249177 0.494027 0.832975
vn -0.444942 0.600227 0.664646
vn -0.433970 0.820286 0.372561
vn -0.203056 0.521589 0.828681
vn 0.702736 -0.651998 -0.284711
vn -0.460794 0.871298 0.168847
vn 0.529996 -0.709354 -0.464674
vn 0.445247 -0.660492 -0.604571
vn 0.547548 -0.736570 -0.397058
vn 0.847583 -0.526703 0.064708
vn -0.268669 0.827447 0.493101
vn -0.080454 0.854222 0.513647
f 1/1/1 2/2/2 3/3/3
f 4/4/4 5/5/5 6/6/6
f 7/7/7 8/8/8 9/9/9
f 10/10/10 11/11/11 12/12/12
f 13/13/13 14/14/14 15/15/15
f 16/16/16 17/17/17 18/18/18
f 19/19/19 16/16/16 18/18/18
f 20/20/20 21/21/21 22/22/22
f 23/23/23 24/24/24 25/25/25
f 23/23/23 25/25/25 26/26/26
f 27/27/27 26/26/26 25/25/25
f 27/27/27 25/25/25 28/28/28
f 29/29/29 11/11/11 27/27/27
f 29/29/29 27/27/27 28/28/28
f 30/30/30 24/24/24 23/23/23
f 30/30/30 23/23/23 31/31/31
f 30/30/30 31/31/31 32/32/32
f 30/30/30 32/32/32 33/33/33
f 34/34/34 2/2/2 1/1/1
f 34/34/34 1/1/1 35/35/35
f 36/36/36 37/37/37 34/34/34
f 36/36/36 34/34/34 35/35/35
f 2/2/2 33/33/33 32/32/32
f 2/2/2 32/32/32 3/3/3
f 38/38/38 39/39/39 40/40/40
f 38/38/38 40/40/40 41/41/41
f 42/42/42 43/43/43 40/40/40
f 42/42/42 40/40/40 39/39/39
f 44/44/44 43/43/43 42/42/42
f 44/44/44 42/42/42 7/7/7
f 45/45/45 46/46/46 38/38/38
f 45/45/45 38/38/38 41/41/41
f 45/45/45 47/47/47 48/48/48
f 45/45/45 48/48/48 46/46/46
f 49/49/49 50/50/50 4/4/4
f 49/49/49 4/4/4 6/6/6
f 36/36/36 50/50/50 49/49/49
f 36/36/36 49/49/49 37/37/37
f 6/6/6 5/5/5 48/48/48
f 6/6/6 48/48/48 47/47/47
f 23/23/23 26/26/26 51/51/51
f 23/23/23 51/51/51 52/52/52
f 26/26/26 27/27/27 53/53/53
f 26/26/26 53/53/53 51/51/51
f 27/27/27 11/11/11 54/54/54
f 27/27/27 54/54/54 53/53/53
f 31/31/31 23/23/23 52/52/52
f 31/31/31 52/52/52 55/55/55
f 32/32/32 31/31/31 55/55/55
f 32/32/32 55/55/55 56/56/56
f 3/3/3 32/32/32 56/56/56
f 3/3/3 56/56/56 57/57/57
f 35/35/35 1/1/1 58/58/58
f 35/35/35 58/58/58 59/59/59
f 36/36/36 35/35/35 59/59/59
f 36/36/36 59/59/59 60/60/60
f 1/1/1 3/3/3 57/57/57
f 1/1/1 57/57/57 58/58/58
f 39/39/39 38/38/38 61/61/61
f 39/39/39 61/61/61 62/62/62
f 42/42/42 39/39/39 62/62/62
f 42/42/42 62/62/62 63/63/63
f 7/7/7 42/42/42 63/63/63
f 7/7/7 63/63/63 64/64/64
f 38/38/38 46/46/46 65/65/65
f 38/38/38 65/65/65 61/61/61
f 46/46/46 48/48/48 66/66/66
f 46/46/46 66/66/66 65/65/65
f 48/48/48 5/5/5 67/67/67
f 48/48/48 67/67/67 66/66/66
f 4/4/4 50/50/50 68/68/68
f 4/4/4 68/68/68 69/69/69
f 50/50/50 36/36/36 60/60/60
f 50/50/50 60/60/60 68/68/68
f 5/5/5 4/4/4 69/69/69
f 5/5/5 69/69/69 67/67/67
f 70/70/70 71/71/71 72/72/72
f 70/70/70 72/72/72 73/73/73
f 71/71/71 74/74/74 75/75/75
f 71/71/71 75/75/75 72/72/72
f 74/74/74 76/76/76 77/77/77
f 74/74/74 77/77/77 75/75/75
f 78/78/78 70/70/70 73/73/73
f 78/78/78 73/73/73 79/79/79
f 80/80/80 78/78/78 79/79/79
f 80/80/80 79/79/79 81/81/81
f 82/82/82 80/80/80 81/81/81
f 82/82/82 81/81/81 14/14/14
f 83/83/83 84/84/84 13/13/13
f 83/83/83 13/13/13 17/17/17
f 85/85/85 83/83/83 17/17/17
f 85/85/85 17/17/17 16/16/16
f 84/84/84 82/82/82 14/14/14
f 84/84/84 14/14/14 13/13/13
f 86/86/86 87/87/87 88/88/88
f 86/86/86 88/88/88 89/89/89
f 90/90/90 86/86/86 89/89/89
f 90/90/90 89/89/89 91/91/91
f 92/92/92 90/90/90 91/91/91
f 92/92/92 91/91/91 93/93/93
f 87/87/87 94/94/94 95/95/95
f 87/87/87 95/95/95 88/88/88
f 94/94/94 96/96/96 97/97/97
f 94/94/94 97/97/97 95/95/95
f 96/96/96 98/98/98 20/20/20
f 96/96/96 20/20/20 97/97/97
f 99/99/99 100/100/100 19/19/19
f 99/99/99 19/19/19 21/21/21
f 100/100/100 85/85/85 16/16/16
f 100/100/100 16/16/16 19/19/19
f 98/98/98 99/99/99 21/21/21
f 98/98/98 21/21/21 20/20/20
f 101/101/101 102/102/102 103/103/103
f 101/101/101 103/103/103 104/104/104
f 105/105/105 101/101/101 104/104/104
f 105/105/105 104/104/104 106/106/106
f 107/107/107 105/105/105 106/106/106
f 107/107/107 106/106/106 108/108/108
f 109/109/109 107/107/107 108/108/108
f 109/109/109 108/108/108 110/110/110
f 111/111/111 109/109/109 110/110/110
f 111/111/111 110/110/110 112/112/112
f 15/15/15 111/111/111 112/112/112
f 15/15/15 112/112/112 113/113/113
f 18/18/18 15/15/15 113/113/113
f 18/18/18 113/113/113 114/114/114
f 22/22/22 18/18/18 114/114/114
f 22/22/22 114/114/114 115/115/115
f 116/116/116 22/22/22 115/115/115
f 116/116/116 115/115/115 117/117/117
f 118/118/118 116/116/116 117/117/117
f 118/118/118 117/117/117 119/119/119
f 120/120/120 118/118/118 119/119/119
f 120/120/120 119/119/119 121/121/121
f 122/122/122 120/120/120 121/121/121
f 122/122/122 121/121/121 123/123/123
f 124/124/124 122/122/122 123/123/123
f 124/124/124 123/123/123 125/125/125
f 126/126/126 124/124/124 125/125/125
f 126/126/126 125/125/125 127/127/127
f 128/128/128 129/129/129 130/130/130
f 128/128/128 130/130/130 131/131/131
f 132/132/132 128/128/128 131/131/131
f 132/132/132 131/131/131 133/133/133
f 134/134/134 132/132/132 133/133/133
f 134/134/134 133/133/133 135/135/135
f 136/136/136 134/134/134 135/135/135
f 136/136/136 135/135/135 137/137/137
f 138/138/138 136/136/136 137/137/137
f 138/138/138 137/137/137 139/139/139
f 140/140/140 138/138/138 139/139/139
f 140/140/140 139/139/139 141/141/141
f 142/142/142 140/140/140 141/141/141
f 142/142/142 141/141/141 143/143/143
f 144/144/144 142/142/142 143/143/143
f 144/144/144 143/143/143 145/145/145
f 146/146/146 144/144/144 145/145/145
f 146/146/146 145/145/145 147/147/147
f 148/148/148 146/146/146 147/147/147
f 148/148/148 147/147/147 149/149/149
f 150/150/150 148/148/148 149/149/149
f 150/150/150 149/149/149 151/151/151
f 152/152/152 150/150/150 151/151/151
f 152/152/152 151/151/151 153/153/153
f 154/154/154 152/152/152 153/153/153
f 154/154/154 153/153/153 155/155/155
f 156/156/156 154/154/154 155/155/155
f 156/156/156 155/155/155 157/157/157
f 11/11/11 29/29/29 158/158/158
f 11/11/11 158/158/158 12/12/12
f 44/44/44 7/7/7 9/9/9
f 44/44/44 9/9/9 159/159/159
f 76/76/76 54/54/54 11/11/11
f 76/76/76 11/11/11 10/10/10
f 7/7/7 64/64/64 92/92/92
f 7/7/7 92/92/92 8/8/8
f 104/104/104 103/103/103 129/129/129
f 104/104/104 129/129/129 128/128/128
f 106/106/106 104/104/104 128/128/128
f 106/106/106 128/128/128 132/132/132
f 108/108/108 106/106/106 132/132/132
f 108/108/108 132/132/132 134/134/134
f 110/110/110 108/108/108 134/134/134
f 110/110/110 134/134/134 136/136/136
f 112/112/112 110/110/110 136/136/136
f 112/112/112 136/136/136 138/138/138
f 113/113/113 112/112/112 138/138/138
f 113/113/113 138/138/138 140/140/140
f 114/114/114 113/113/113 140/140/140
f 114/114/114 140/140/140 142/142/142
f 115/115/115 114/114/114 142/142/142
f 115/115/115 142/142/142 144/144/144
f 117/117/117 115/115/115 144/144/144
f 117/117/117 144/144/144 146/146/146
f 119/119/119 117/117/117 146/146/146
f 119/119/119 146/146/146 148/148/148
f 121/121/121 119/119/119 148/148/148
f 121/121/121 148/148/148 150/150/150
f 160/160/160 121/121/121 150/150/150
f 160/160/160 150/150/150 152/152/152
f 125/125/125 160/160/160 152/152/152
f 125/125/125 152/152/152 154/154/154
f 127/127/127 125/125/125 154/154/154
f 127/127/127 154/154/154 156/156/156
f 131/131/131 130/130/130 161/161/161
f 131/131/131 161/161/161 162/162/162
f 133/133/133 131/131/131 162/162/162
f 133/133/133 162/162/162 163/163/163
f 135/135/135 133/133/133 163/163/163
f 135/135/135 163/163/163 164/164/164
f 137/137/137 135/135/135 164/164/164
f 137/137/137 164/164/164 165/165/165
f 139/139/139 137/137/137 165/165/165
f 139/139/139 165/165/165 166/166/166
f 167/167/167 139/139/139 166/166/166
f 167/167/167 166/166/166 168/168/168
f 169/169/169 167/167/167 168/168/168
f 169/169/169 168/168/168 170/170/170
f 171/171/171 169/169/169 170/170/170
f 171/171/171 170/170/170 172/172/172
f 147/147/147 171/171/171 172/172/172
f 147/147/147 172/172/172 173/173/173
f 149/149/149 147/147/147 173/173/173
f 149/149/149 173/173/173 174/174/174
f 151/151/151 149/149/149 174/174/174
f 151/151/151 174/174/174 175/175/175
f 153/153/153 151/151/151 175/175/175
f 153/153/153 175/175/175 176/176/176
f 155/155/155 153/153/153 176/176/176
f 155/155/155 176/176/176 177/177/177
f 157/157/157 155/155/155 177/177/177
f 157/157/157 177/177/177 178/178/178
f 53/53/53 54/54/54 76/76/76
f 53/53/53 76/76/76 74/74/74
f 51/51/51 53/53/53 74/74/74
f 51/51/51 74/74/74 71/71/71
f 52/52/52 51/51/51 71/71/71
f 52/52/52 71/71/71 70/70/70
f 55/55/55 52/52/52 70/70/70
f 55/55/55 70/70/70 78/78/78
f 56/56/56 55/55/55 78/78/78
f 56/56/56 78/78/78 80/80/80
f 57/57/57 56/56/56 80/80/80
f 57/57/57 80/80/80 82/82/82
f 58/58/58 57/57/57 82/82/82
f 58/58/58 82/82/82 84/84/84
f 59/59/59 58/58/58 84/84/84
f 59/59/59 84/84/84 83/83/83
f 60/60/60 59/59/59 83/83/83
f 60/60/60 83/83/83 85/85/85
f 68/68/68 60/60/60 85/85/85
f 68/68/68 85/85/85 100/100/100
f 69/69/69 68/68/68 100/100/100
f 69/69/69 100/100/100 99/99/99
f 67/67/67 69/69/69 99/99/99
f 67/67/67 99/99/99 98/98/98
f 66/66/66 67/67/67 98/98/98
f 66/66/66 98/98/98 96/96/96
f 65/65/65 66/66/66 96/96/96
f 65/65/65 96/96/96 94/94/94
f 61/61/61 65/65/65 94/94/94
f 61/61/61 94/94/94 87/87/87
f 62/62/62 61/61/61 87/87/87
f 62/62/62 87/87/87 86/86/86
f 63/63/63 62/62/62 86/86/86
f 63/63/63 86/86/86 90/90/90
f 64/64/64 63/63/63 90/90/90
f 64/64/64 90/90/90 92/92/92
f 75/75/75 77/77/77 102/102/102
f 75/75/75 102/102/102 101/101/101
f 72/72/72 75/75/75 101/101/101
f 72/72/72 101/101/101 105/105/105
f 73/73/73 72/72/72 105/105/105
f 73/73/73 105/105/105 107/107/107
f 79/79/79 73/73/73 107/107/107
f 79/79/79 107/107/107 109/109/109
f 81/81/81 79/79/79 109/109/109
f 81/81/81 109/109/109 111/111/111
f 14/14/14 81/81/81 111/111/111
f 14/14/14 111/111/111 15/15/15
f 97/97/97 20/20/20 22/22/22
f 97/97/97 22/22/22 116/116/116
f 95/95/95 97/97/97 116/116/116
f 95/95/95 116/116/116 118/118/118
f 88/88/88 95/95/95 118/118/118
f 88/88/88 118/118/118 120/120/120
f 89/89/89 88/88/88 120/120/120
f 89/89/89 120/120/120 122/122/122
f 91/91/91 89/89/89 122/122/122
f 91/91/91 122/122/122 124/124/124
f 93/93/93 91/91/91 124/124/124
f 93/93/93 124/124/124 126/126/126
f 17/17/17 13/13/13 15/15/15
f 17/17/17 15/15/15 18/18/18
f 21/21/21 19/19/19 18/18/18
f 21/21/21 18/18/18 22/22/22
