v 6.573686 1.144830 0.236323
v 6.504946 1.148232 0.243729
v 6.504261 1.032761 0.266244
v 6.567456 1.028001 0.261767
v 6.447028 1.140636 0.209094
v 6.451599 1.028077 0.231106
v 6.621955 1.132189 0.198557
v 6.615651 1.016347 0.223251
v 6.411727 1.120755 0.130693
v 6.416527 1.013481 0.158660
v 6.411727 1.120755 0.130693
v 6.449648 1.102271 0.070698
v 6.445058 0.999825 0.100594
v 6.416527 1.013481 0.158660
v 6.516145 1.092502 0.038572
v 6.509915 0.989570 0.069408
v 6.623453 1.120828 0.132157
v 6.615479 1.002452 0.157991
v 6.596780 1.099684 0.076153
v 6.588129 0.991774 0.101595
vt 0.320345 0.982864
vt 0.227100 0.982864
vt 0.228514 0.496868
vt 0.320770 0.496868
vt 0.138985 0.982864
vt 0.136239 0.496868
vt 0.410617 0.982864
vt 0.414809 0.496868
vt 0.010371 0.982864
vt 0.010371 0.496868
vt 0.989164 0.982864
vt 0.875616 0.982864
vt 0.875368 0.496868
vt 0.989164 0.496868
vt 0.755821 0.982864
vt 0.755026 0.496868
vt 0.510798 0.982864
vt 0.516124 0.496868
vt 0.610189 0.982864
vt 0.616327 0.496868
vn 0.376418 0.172438 0.910261
vn -0.227769 0.186088 0.955768
vn -0.218353 0.186743 0.957836
vn 0.378154 0.172219 0.909583
vn -0.776156 0.102442 0.622164
vn -0.772361 0.103498 0.626695
vn 0.909055 0.036411 0.415083
vn 0.909173 0.036347 0.414829
vn -0.998975 -0.027491 0.035966
vn -0.998809 -0.026420 0.041024
vn -0.998975 -0.027491 0.035966
vn -0.688879 -0.189844 -0.699575
vn -0.698236 -0.187601 -0.690849
vn -0.998809 -0.026420 0.041024
vn 0.024952 -0.274468 -0.961272
vn 0.014868 -0.274228 -0.961550
vn 0.979186 -0.104600 -0.173937
vn 0.977512 -0.106539 -0.181986
vn 0.683447 -0.226808 -0.693872
vn 0.665865 -0.230230 -0.709661
f 1/1/1 2/2/2 3/3/3
f 1/1/1 3/3/3 4/4/4
f 2/2/2 5/5/5 6/6/6
f 2/2/2 6/6/6 3/3/3
f 7/7/7 1/1/1 4/4/4
f 7/7/7 4/4/4 8/8/8
f 5/5/5 9/9/9 10/10/10
f 5/5/5 10/10/10 6/6/6
f 11/11/11 12/12/12 13/13/13
f 11/11/11 13/13/13 14/14/14
f 12/12/12 15/15/15 16/16/16
f 12/12/12 16/16/16 13/13/13
f 17/17/17 7/7/7 8/8/8
f 17/17/17 8/8/8 18/18/18
f 19/19/19 17/17/17 18/18/18
f 19/19/19 18/18/18 20/20/20
f 15/15/15 19/19/19 20/20/20
f 15/15/15 20/20/20 16/16/16
