v 6.440447 0.196596 0.152375
v 6.422056 0.198288 0.172445
v 6.413122 0.163733 0.169793
v 6.429734 0.160462 0.148998
v 6.446668 0.196825 0.124079
v 6.434407 0.158105 0.120757
v 6.431825 0.201924 0.099324
v 6.419641 0.161219 0.103174
v 6.404444 0.208510 0.093158
v 6.397530 0.167091 0.095048
v 6.380300 0.165696 0.113538
v 6.382843 0.207108 0.115023
v 6.380300 0.165696 0.113538
v 6.370926 0.165572 0.138325
v 6.378051 0.203261 0.143069
v 6.382843 0.207108 0.115023
v 6.397341 0.200700 0.162642
v 6.389416 0.165051 0.159400
vt 0.520148 0.459327
vt 0.397305 0.459327
vt 0.384477 0.016041
vt 0.522548 0.016041
vt 0.645166 0.459327
vt 0.658612 0.016041
vt 0.761133 0.459327
vt 0.762620 0.016042
vt 0.867180 0.459327
vt 0.874935 0.016042
vt 0.988844 0.016041
vt 0.988844 0.459327
vt 0.009466 0.016041
vt 0.126830 0.016041
vt 0.139019 0.459327
vt 0.011432 0.459327
vt 0.271389 0.459327
vt 0.251836 0.016041
vn 0.862481 -0.290589 0.414349
vn 0.276083 -0.164812 0.946898
vn 0.187936 -0.143511 0.971640
vn 0.865066 -0.291160 0.408517
vn 0.933431 -0.298570 -0.198902
vn 0.924957 -0.295316 -0.239256
vn 0.529237 -0.191548 -0.826570
vn 0.536549 -0.193182 -0.821460
vn -0.263698 -0.029177 -0.964164
vn -0.301976 -0.021104 -0.953082
vn -0.867433 0.111223 -0.484964
vn -0.857845 0.108924 -0.502233
vn -0.867433 0.111223 -0.484964
vn -0.974035 0.124300 0.189223
vn -0.961779 0.120796 0.245742
vn -0.857845 0.108924 -0.502233
vn -0.562193 0.044770 0.825793
vn -0.597673 0.051035 0.800114
f 1/1/1 2/2/2 3/3/3
f 1/1/1 3/3/3 4/4/4
f 5/5/5 1/1/1 4/4/4
f 5/5/5 4/4/4 6/6/6
f 7/7/7 5/5/5 6/6/6
f 7/7/7 6/6/6 8/8/8
f 9/9/9 7/7/7 8/8/8
f 9/9/9 8/8/8 10/10/10
f 10/10/10 11/11/11 12/12/12
f 10/10/10 12/12/12 9/9/9
f 13/13/13 14/14/14 15/15/15
f 13/13/13 15/15/15 16/16/16
f 17/17/17 15/15/15 14/14/14
f 17/17/17 14/14/14 18/18/18
f 2/2/2 17/17/17 18/18/18
f 2/2/2 18/18/18 3/3/3
