v 6.330565 1.917528 0.136675
v 6.310515 1.909070 0.137223
v 6.315649 1.897182 0.155907
v 6.335947 1.905133 0.154645
v 6.290439 1.900663 0.137841
v 6.295896 1.888113 0.155593
v 6.271053 1.890844 0.136469
v 6.276187 1.878955 0.155153
v 6.251643 1.881075 0.135167
v 6.257025 1.868680 0.153137
v 6.322176 1.882443 0.170570
v 6.342505 1.890333 0.169222
v 6.302353 1.873518 0.170460
v 6.282715 1.864216 0.169816
v 6.263582 1.853880 0.167714
v 6.328344 1.868439 0.186271
v 6.347772 1.878171 0.187521
v 6.309508 1.857495 0.183311
v 6.289254 1.849452 0.184444
v 6.268850 1.841718 0.186012
v 6.335262 1.852902 0.199808
v 6.353691 1.864677 0.203941
v 6.316302 1.842212 0.197207
v 6.295800 1.834675 0.199054
v 6.274769 1.828224 0.202432
vt 0.007361 0.008004
vt 0.253789 0.008004
vt 0.253789 0.254433
vt 0.007361 0.254433
vt 0.500217 0.008004
vt 0.500217 0.254433
vt 0.746646 0.008004
vt 0.746646 0.254433
vt 0.993074 0.008004
vt 0.993074 0.254433
vt 0.253789 0.500861
vt 0.007361 0.500861
vt 0.500217 0.500861
vt 0.746646 0.500861
vt 0.993074 0.500861
vt 0.253789 0.747290
vt 0.007361 0.747290
vt 0.500217 0.747290
vt 0.746646 0.747290
vt 0.993074 0.747290
vt 0.253789 0.993718
vt 0.007361 0.993718
vt 0.500217 0.993718
vt 0.746646 0.993718
vt 0.993074 0.993718
vn -0.282943 0.760219 0.584816
vn -0.301606 0.750860 0.587575
vn -0.275212 0.693893 0.665411
vn -0.245337 0.706641 0.663678
vn -0.347860 0.728725 0.589876
vn -0.323724 0.673377 0.664655
vn -0.394606 0.707907 0.585794
vn -0.370796 0.649741 0.663586
vn -0.413736 0.699811 0.582311
vn -0.399803 0.635290 0.660731
vn -0.287804 0.631967 0.719574
vn -0.256484 0.673251 0.693505
vn -0.296078 0.591265 0.750162
vn -0.312568 0.607971 0.729845
vn -0.350217 0.618828 0.703136
vn -0.370561 0.583472 0.722665
vn -0.365472 0.631261 0.684061
vn -0.296127 0.572143 0.764828
vn -0.226793 0.649761 0.725518
vn -0.235883 0.689290 0.685010
vn -0.409699 0.530149 0.742353
vn -0.418113 0.556237 0.718179
vn -0.295966 0.571656 0.765254
vn -0.170918 0.665951 0.726152
vn -0.155641 0.698273 0.698706
f 1/1/1 2/2/2 3/3/3
f 1/1/1 3/3/3 4/4/4
f 2/2/2 5/5/5 6/6/6
f 2/2/2 6/6/6 3/3/3
f 5/5/5 7/7/7 8/8/8
f 5/5/5 8/8/8 6/6/6
f 7/7/7 9/9/9 10/10/10
f 7/7/7 10/10/10 8/8/8
f 4/4/4 3/3/3 11/11/11
f 4/4/4 11/11/11 12/12/12
f 3/3/3 6/6/6 13/13/13
f 3/3/3 13/13/13 11/11/11
f 6/6/6 8/8/8 14/14/14
f 6/6/6 14/14/14 13/13/13
f 8/8/8 10/10/10 15/15/15
f 8/8/8 15/15/15 14/14/14
f 12/12/12 11/11/11 16/16/16
f 12/12/12 16/16/16 17/17/17
f 11/11/11 13/13/13 18/18/18
f 11/11/11 18/18/18 16/16/16
f 13/13/13 14/14/14 19/19/19
f 13/13/13 19/19/19 18/18/18
f 14/14/14 15/15/15 20/20/20
f 14/14/14 20/20/20 19/19/19
f 17/17/17 16/16/16 21/21/21
f 17/17/17 21/21/21 22/22/22
f 16/16/16 18/18/18 23/23/23
f 16/16/16 23/23/23 21/21/21
f 18/18/18 19/19/19 24/24/24
f 18/18/18 24/24/24 23/23/23
f 19/19/19 20/20/20 25/25/25
f 19/19/19 25/25/25 24/24/24
