v 6.297183 2.132627 0.109812
v 6.300583 2.131920 0.109139
v 6.297715 2.133025 0.109512
v 6.298540 2.133302 0.109121
v 6.299578 2.133432 0.108676
v 6.300725 2.133402 0.108221
v 6.301872 2.133214 0.107800
v 6.302904 2.132888 0.107455
v 6.303721 2.132454 0.107219
v 6.304243 2.131956 0.107116
v 6.304420 2.131442 0.107156
v 6.304232 2.130963 0.107334
v 6.303699 2.130565 0.107633
v 6.302875 2.130287 0.108025
v 6.301837 2.130157 0.108470
v 6.300689 2.130188 0.108925
v 6.299543 2.130375 0.109346
v 6.298511 2.130702 0.109691
v 6.297693 2.131135 0.109926
v 6.297171 2.131634 0.110029
v 6.296995 2.132148 0.109990
vt 0.059166 0.960778
vt 0.045830 0.956445
vt 0.057174 0.964687
vt 0.054072 0.967789
vt 0.050163 0.969781
vt 0.045830 0.970467
vt 0.041497 0.969781
vt 0.037588 0.967789
vt 0.034486 0.964687
vt 0.032494 0.960778
vt 0.031808 0.956445
vt 0.032494 0.952112
vt 0.034486 0.948203
vt 0.037588 0.945101
vt 0.041497 0.943109
vt 0.045830 0.942423
vt 0.050163 0.943109
vt 0.054072 0.945101
vt 0.057174 0.948203
vt 0.059166 0.952112
vt 0.059852 0.956445
vn 0.242586 0.284589 0.927449
vn 0.359262 0.195857 0.912453
vn 0.256552 0.363578 0.895540
vn 0.280774 0.426407 0.859851
vn 0.314660 0.463089 0.828576
vn 0.355825 0.467547 0.809190
vn 0.395913 0.439740 0.806153
vn 0.429272 0.389151 0.815038
vn 0.453036 0.324107 0.830490
vn 0.466354 0.251834 0.847994
vn 0.469479 0.183798 0.863602
vn 0.464645 0.115929 0.877876
vn 0.449791 0.043621 0.892068
vn 0.424434 -0.022510 0.905179
vn 0.389985 -0.071008 0.918079
vn 0.349473 -0.093868 0.932233
vn 0.308635 -0.081036 0.947722
vn 0.275608 -0.034084 0.960666
vn 0.252732 0.039063 0.966748
vn 0.240816 0.124073 0.962608
vn 0.238191 0.205238 0.949285
f 1/1/1 2/2/2 3/3/3
f 3/3/3 2/2/2 4/4/4
f 4/4/4 2/2/2 5/5/5
f 5/5/5 2/2/2 6/6/6
f 6/6/6 2/2/2 7/7/7
f 7/7/7 2/2/2 8/8/8
f 8/8/8 2/2/2 9/9/9
f 9/9/9 2/2/2 10/10/10
f 10/10/10 2/2/2 11/11/11
f 11/11/11 2/2/2 12/12/12
f 12/12/12 2/2/2 13/13/13
f 13/13/13 2/2/2 14/14/14
f 14/14/14 2/2/2 15/15/15
f 15/15/15 2/2/2 16/16/16
f 16/16/16 2/2/2 17/17/17
f 17/17/17 2/2/2 18/18/18
f 18/18/18 2/2/2 19/19/19
f 19/19/19 2/2/2 20/20/20
f 20/20/20 2/2/2 21/21/21
f 21/21/21 2/2/2 1/1/1
