v 6.367620 2.127080 0.027989
v 6.370456 2.120530 0.015945
v 6.368361 2.130977 0.025617
v 6.369568 2.133874 0.022418
v 6.371125 2.135488 0.018705
v 6.372878 2.135661 0.014842
v 6.374655 2.134376 0.011207
v 6.376284 2.131759 0.008156
v 6.377604 2.128067 0.005987
v 6.378487 2.123659 0.004913
v 6.378845 2.118969 0.005038
v 6.378644 2.114454 0.006351
v 6.377903 2.110558 0.008723
v 6.376696 2.107661 0.011922
v 6.375140 2.106046 0.015635
v 6.373386 2.105873 0.019498
v 6.371609 2.107158 0.023133
v 6.369980 2.109775 0.026184
v 6.368660 2.113468 0.028354
v 6.367778 2.117875 0.029428
v 6.367419 2.122566 0.029302
vt 0.968204 0.653234
vt 0.496630 0.500010
vt 0.897775 0.791459
vt 0.788079 0.901155
vt 0.649854 0.971584
vt 0.496630 0.995852
vt 0.343406 0.971584
vt 0.205181 0.901155
vt 0.095485 0.791459
vt 0.025056 0.653234
vt 0.000788 0.500010
vt 0.025056 0.346786
vt 0.095485 0.208561
vt 0.205181 0.098865
vt 0.343406 0.028436
vt 0.496630 0.004168
vt 0.649854 0.028436
vt 0.788079 0.098865
vt 0.897775 0.208561
vt 0.968204 0.346786
vt 0.992472 0.500010
vn 0.972372 -0.008090 0.233296
vn 0.906334 0.080317 0.414859
vn 0.961192 -0.057175 0.269890
vn 0.943021 -0.092360 0.319657
vn 0.919506 -0.110740 0.377155
vn 0.892691 -0.111038 0.436776
vn 0.864819 -0.093490 0.493304
vn 0.838463 -0.059443 0.541707
vn 0.816443 -0.011637 0.577309
vn 0.801429 0.045710 0.596340
vn 0.795451 0.106888 0.596518
vn 0.799357 0.165167 0.577709
vn 0.812569 0.214314 0.542034
vn 0.833219 0.249731 0.493337
vn 0.858634 0.268306 0.436760
vn 0.886174 0.268685 0.377496
vn 0.913345 0.251058 0.320580
vn 0.937759 0.216774 0.271326
vn 0.957338 0.168706 0.234612
vn 0.970330 0.111308 0.214638
vn 0.975513 0.050238 0.214126
f 1/1/1 2/2/2 3/3/3
f 3/3/3 2/2/2 4/4/4
f 4/4/4 2/2/2 5/5/5
f 5/5/5 2/2/2 6/6/6
f 6/6/6 2/2/2 7/7/7
f 7/7/7 2/2/2 8/8/8
f 8/8/8 2/2/2 9/9/9
f 9/9/9 2/2/2 10/10/10
f 10/10/10 2/2/2 11/11/11
f 11/11/11 2/2/2 12/12/12
f 12/12/12 2/2/2 13/13/13
f 13/13/13 2/2/2 14/14/14
f 14/14/14 2/2/2 15/15/15
f 15/15/15 2/2/2 16/16/16
f 16/16/16 2/2/2 17/17/17
f 17/17/17 2/2/2 18/18/18
f 18/18/18 2/2/2 19/19/19
f 19/19/19 2/2/2 20/20/20
f 20/20/20 2/2/2 21/21/21
f 21/21/21 2/2/2 1/1/1
