v -0.648915 -1.130080 -14.218550
v -1.303672 0.003993 -14.218550
v -0.648915 1.138065 -14.218550
v 0.660599 1.138065 -14.218550
v 1.315356 0.003993 -14.218550
v 0.660599 -1.130080 -14.218550
v 1.315356 0.003993 -14.218550
v 0.660599 1.138065 -14.218550
v 0.660599 1.138066 -4.043161
v 1.315356 0.003993 -4.043161
v 0.660598 6.905336 -18.806051
v -0.648916 6.905336 -18.806051
v -0.648916 6.905336 -8.630663
v 0.660598 6.905336 -8.630663
v -0.648915 1.138065 -14.218550
v -1.303672 0.003993 -14.218550
v -1.303672 0.003993 -4.043161
v -0.648915 1.138065 -4.043161
v -0.648915 -1.130080 -14.218550
v -0.648915 -1.130080 -4.043161
v -0.648915 -6.897351 -18.806051
v 0.660599 -6.897351 -18.806051
v 0.660599 -6.897352 -8.630665
v -0.648915 -6.897352 -8.630665
v 0.660599 -1.130080 -14.218550
v 0.660599 -1.130080 -4.043161
v 0.660599 1.138066 6.132225
v 1.315356 0.003993 6.132225
v -0.648916 6.905336 1.544724
v 0.660598 6.905336 1.544724
v -1.303672 0.003993 6.132225
v -0.648915 1.138065 6.132225
v -0.648915 -1.130080 6.132225
v 0.660599 -6.897352 1.544724
v -0.648915 -6.897352 1.544724
v 0.660599 -1.130080 6.132225
v 0.660599 1.138066 16.307615
v 1.315356 0.003993 16.307615
v 0.660599 1.138066 6.132225
v -0.648915 1.138065 6.132225
v -0.648915 1.138065 16.307615
v 0.660599 1.138066 16.307615
v -1.303672 0.003993 16.307615
v -0.648915 1.138065 16.307615
v -0.648915 -1.130080 16.307615
v -0.648915 -1.130080 6.132225
v 0.660599 -1.130080 6.132225
v 0.660599 -1.130080 16.307615
v -0.648915 -1.130080 16.307615
v 0.660599 -1.130080 16.307615
v 0.660599 1.138066 26.482998
v 1.315356 0.003993 26.482998
v -0.648915 1.138065 26.482998
v 0.660599 1.138066 26.482998
v -1.303672 0.003993 26.482998
v -0.648915 1.138065 26.482998
v -0.648915 -1.130080 26.482998
v 0.660599 -1.130080 26.482998
v -0.648915 -1.130080 26.482998
v 0.660599 -1.130080 26.482998
v 0.660599 1.138066 36.658386
v 1.315356 0.003993 36.658386
v -0.648915 1.138065 36.658386
v 0.660599 1.138066 36.658386
v -1.303672 0.003993 36.658386
v -0.648915 1.138065 36.658386
v -0.648915 -1.130080 36.658386
v 0.660599 -1.130080 36.658386
v -0.648915 -1.130080 36.658386
v 0.660599 -1.130080 36.658386
v 4.212245 0.003993 36.658386
v 2.109043 3.646845 36.658386
v -0.375398 -0.255966 48.874512
v 2.109043 3.646845 36.658386
v -2.097359 3.646845 36.658386
v -0.375398 -0.255966 48.874512
v -2.097359 3.646845 36.658386
v -4.200560 0.003992 36.658386
v -0.375398 -0.255966 48.874512
v -4.200560 0.003992 36.658386
v -2.097359 -3.638859 36.658386
v -0.375398 -0.255966 48.874512
v -2.097359 -3.638859 36.658386
v 2.109043 -3.638859 36.658386
v -0.375398 -0.255966 48.874512
v 2.109043 -3.638859 36.658386
v 4.212245 0.003993 36.658386
v -0.375398 -0.255966 48.874512
v 1.315356 0.003993 36.658386
v 0.660599 1.138066 36.658386
v 2.109043 3.646845 36.658386
v 4.212245 0.003993 36.658386
v -0.648915 1.138065 36.658386
v -2.097359 3.646845 36.658386
v -1.303672 0.003993 36.658386
v -4.200560 0.003992 36.658386
v -0.648915 -1.130080 36.658386
v -2.097359 -3.638859 36.658386
v 0.660599 -1.130080 36.658386
v 2.109043 -3.638859 36.658386
v 0.660599 1.138065 -14.218550
v -0.648915 1.138065 -14.218550
v -0.648916 6.905336 -18.806051
v -0.648916 6.905336 -18.806051
v 0.660598 6.905336 -18.806051
v 0.660599 1.138065 -14.218550
v -0.648915 1.138065 -14.218550
v -0.648915 1.138065 -4.043161
v -0.648916 6.905336 -8.630663
v -0.648916 6.905336 -8.630663
v -0.648916 6.905336 -18.806051
v -0.648915 1.138065 -14.218550
v -0.648915 1.138065 -4.043161
v -0.648915 1.138065 6.132225
v -0.648916 6.905336 1.544724
v -0.648916 6.905336 1.544724
v -0.648916 6.905336 -8.630663
v -0.648915 1.138065 6.132225
v 0.660599 1.138066 6.132225
v 0.660598 6.905336 1.544724
v 0.660598 6.905336 1.544724
v -0.648916 6.905336 1.544724
v -0.648915 1.138065 6.132225
v 0.660599 1.138066 6.132225
v 0.660599 1.138066 -4.043161
v 0.660598 6.905336 -8.630663
v 0.660598 6.905336 -8.630663
v 0.660598 6.905336 1.544724
v 0.660599 1.138066 -4.043161
v 0.660599 1.138065 -14.218550
v 0.660598 6.905336 -18.806051
v 0.660598 6.905336 -18.806051
v 0.660598 6.905336 -8.630663
v 0.660599 1.138066 -4.043161
v -0.648915 -1.130080 -14.218550
v 0.660599 -1.130080 -14.218550
v 0.660599 -6.897351 -18.806051
v -0.648915 -6.897351 -18.806051
v 0.660599 -1.130080 -14.218550
v 0.660599 -1.130080 -4.043161
v 0.660599 -6.897352 -8.630665
v 0.660599 -6.897351 -18.806051
v 0.660599 -1.130080 6.132225
v 0.660599 -6.897352 1.544724
v 0.660599 -1.130080 6.132225
v -0.648915 -1.130080 6.132225
v -0.648915 -6.897352 1.544724
v -0.648915 -6.897352 1.544724
v 0.660599 -6.897352 1.544724
v 0.660599 -1.130080 6.132225
v -0.648915 -1.130080 6.132225
v -0.648915 -1.130080 -4.043161
v -0.648915 -6.897352 -8.630665
v -0.648915 -6.897352 1.544724
v -0.648915 -1.130080 -14.218550
v -0.648915 -6.897351 -18.806051
v -0.013987 -18.345509 16.109688
v -0.003997 -18.383221 15.758188
v -0.178069 -11.677578 15.668131
v -0.188058 -11.639866 16.019630
v -0.003997 -18.383221 15.758188
v -0.262602 -18.407108 15.535532
v -0.436674 -11.701467 15.445474
v -0.178069 -11.677578 15.668131
v -0.638315 -18.403181 15.572146
v -0.812387 -11.697538 15.482089
v -0.638315 -18.403181 15.572146
v -0.911048 -18.373737 15.846586
v -1.085120 -11.668095 15.756528
v -0.812387 -11.697538 15.482089
v -0.921038 -18.336025 16.198086
v -1.095110 -11.630383 16.108028
v -0.921038 -18.336025 16.198086
v -0.662432 -18.312136 16.420742
v -0.836504 -11.606494 16.330685
v -1.095110 -11.630383 16.108028
v -0.286720 -18.316063 16.384127
v -0.460791 -11.610422 16.294069
v -0.286720 -18.316063 16.384127
v -0.460791 -11.610422 16.294069
v 0.223977 -5.108782 14.302566
v 0.213988 -5.071070 14.654065
v -0.034628 -5.132671 14.079908
v 0.223977 -5.108782 14.302566
v -0.410341 -5.128742 14.116524
v -0.683074 -5.099298 14.390963
v -0.410341 -5.128742 14.116524
v -0.693063 -5.061586 14.742462
v -0.434458 -5.037697 14.965119
v -0.693063 -5.061586 14.742462
v -0.058745 -5.041626 14.928504
v -0.058745 -5.041626 14.928504
v -0.008814 0.702971 14.407278
v -0.013987 0.474981 14.766987
v -0.269414 0.789131 14.181221
v -0.008814 0.702971 14.407278
v -0.643132 0.683010 14.221235
v -0.911048 0.446753 14.503885
v -0.643132 0.683010 14.221235
v -0.916221 0.218765 14.863594
v -0.655620 0.132603 15.089652
v -0.916221 0.218765 14.863594
v -0.281903 0.238724 15.049637
v -0.281903 0.238724 15.049637
v -0.662432 -18.312136 16.420742
v -0.921038 -18.336025 16.198086
v -0.911048 -18.373737 15.846586
v -0.638315 -18.403181 15.572146
v -0.262602 -18.407108 15.535532
v -0.003997 -18.383221 15.758188
v -0.013987 -18.345509 16.109688
v -0.286720 -18.316063 16.384127
v -0.008814 0.702971 14.407278
v -0.269414 0.789131 14.181221
v -0.643132 0.683010 14.221235
v -0.911048 0.446753 14.503885
v -0.916221 0.218765 14.863594
v -0.655620 0.132603 15.089652
v -0.281903 0.238724 15.049637
v -0.013987 0.474981 14.766987
vt 0.487179 0.184581
vt 0.498972 0.205008
vt 0.487179 0.225434
vt 0.463592 0.225434
vt 0.451799 0.205008
vt 0.463592 0.184581
vt 0.374668 0.916872
vt 0.354242 0.916872
vt 0.354242 0.733598
vt 0.374668 0.733598
vt 0.249108 0.549762
vt 0.225521 0.549762
vt 0.225521 0.366487
vt 0.249108 0.366487
vt 0.145230 0.916872
vt 0.124804 0.916872
vt 0.124804 0.733598
vt 0.145230 0.733598
vt 0.104377 0.916872
vt 0.104377 0.733598
vt 0.225102 0.549762
vt 0.201516 0.549762
vt 0.201516 0.366487
vt 0.225102 0.366487
vt 0.395094 0.916872
vt 0.395094 0.733598
vt 0.354242 0.550323
vt 0.374668 0.550323
vt 0.225521 0.183213
vt 0.249108 0.183213
vt 0.124804 0.550323
vt 0.145230 0.550323
vt 0.104377 0.550323
vt 0.201516 0.183213
vt 0.225102 0.183213
vt 0.395094 0.550323
vt 0.354242 0.367049
vt 0.374668 0.367049
vt 0.523815 0.992899
vt 0.500228 0.992899
vt 0.500228 0.809624
vt 0.523815 0.809624
vt 0.124804 0.367049
vt 0.145230 0.367049
vt 0.104377 0.367049
vt 0.656298 0.771611
vt 0.632712 0.771611
vt 0.632712 0.588337
vt 0.656298 0.588337
vt 0.395094 0.367049
vt 0.354242 0.183774
vt 0.374668 0.183774
vt 0.500228 0.626350
vt 0.523815 0.626350
vt 0.124804 0.183774
vt 0.145230 0.183774
vt 0.104377 0.183774
vt 0.632712 0.405062
vt 0.656298 0.405062
vt 0.395094 0.183774
vt 0.354242 0.000500
vt 0.374668 0.000500
vt 0.500228 0.443076
vt 0.523815 0.443076
vt 0.124804 0.000500
vt 0.145230 0.000500
vt 0.104377 0.000500
vt 0.632712 0.221788
vt 0.656298 0.221788
vt 0.395094 0.000500
vt 0.565842 0.220531
vt 0.500228 0.220531
vt 0.570524 0.000500
vt 0.352046 0.549762
vt 0.276282 0.549762
vt 0.307298 0.329730
vt 0.631455 0.441819
vt 0.565842 0.441819
vt 0.561160 0.221788
vt 0.565842 0.441819
vt 0.500228 0.441819
vt 0.561160 0.221788
vt 0.498972 0.549762
vt 0.423208 0.549762
vt 0.467957 0.329730
vt 0.631455 0.220531
vt 0.565842 0.220531
vt 0.570524 0.000500
vt 0.677899 0.064471
vt 0.677899 0.088057
vt 0.632712 0.114146
vt 0.632712 0.038382
vt 0.698325 0.099850
vt 0.698325 0.152028
vt 0.718752 0.088057
vt 0.763939 0.114146
vt 0.718752 0.064471
vt 0.763939 0.038382
vt 0.698325 0.052677
vt 0.698325 0.000500
vt 0.463592 0.225434
vt 0.487179 0.225434
vt 0.487179 0.329311
vt 0.487179 0.329311
vt 0.463592 0.329311
vt 0.463592 0.225434
vt 0.145230 0.916872
vt 0.145230 0.733598
vt 0.249108 0.816226
vt 0.249108 0.816226
vt 0.249108 0.999500
vt 0.145230 0.916872
vt 0.145230 0.733598
vt 0.145230 0.550323
vt 0.249108 0.632951
vt 0.249108 0.632951
vt 0.249108 0.816226
vt 0.352046 0.329311
vt 0.328460 0.329311
vt 0.328460 0.225434
vt 0.328460 0.225434
vt 0.352046 0.225434
vt 0.352046 0.329311
vt 0.354242 0.550323
vt 0.354242 0.733598
vt 0.250364 0.816226
vt 0.250364 0.816226
vt 0.250364 0.632951
vt 0.354242 0.733598
vt 0.354242 0.916872
vt 0.250364 0.999500
vt 0.250364 0.999500
vt 0.250364 0.816226
vt 0.354242 0.733598
vt 0.487179 0.184581
vt 0.463592 0.184581
vt 0.463592 0.080704
vt 0.487179 0.080704
vt 0.395094 0.916872
vt 0.395094 0.733598
vt 0.498972 0.816226
vt 0.498972 0.999500
vt 0.395094 0.550323
vt 0.498972 0.632951
vt 0.304455 0.225434
vt 0.328041 0.225434
vt 0.328041 0.329311
vt 0.328041 0.329311
vt 0.304455 0.329311
vt 0.304455 0.225434
vt 0.104377 0.550323
vt 0.104377 0.733598
vt 0.000500 0.816226
vt 0.000500 0.632951
vt 0.104377 0.916872
vt 0.000500 0.999500
vt 0.048271 0.549748
vt 0.041903 0.549762
vt 0.052915 0.429475
vt 0.059282 0.429461
vt 0.186537 0.204438
vt 0.191195 0.204008
vt 0.194330 0.324787
vt 0.189672 0.325217
vt 0.197962 0.204078
vt 0.201097 0.324857
vt 0.090908 0.205990
vt 0.095851 0.206520
vt 0.094229 0.327299
vt 0.089286 0.326769
vt 0.102182 0.207199
vt 0.100560 0.327978
vt 0.037267 0.549762
vt 0.032609 0.549331
vt 0.035744 0.428552
vt 0.040402 0.428983
vt 0.025842 0.549402
vt 0.028977 0.428623
vt 0.053242 0.549737
vt 0.064254 0.429450
vt 0.040821 0.309238
vt 0.047188 0.309224
vt 0.187089 0.443101
vt 0.182431 0.443531
vt 0.193856 0.443172
vt 0.069633 0.445613
vt 0.064690 0.445083
vt 0.075964 0.446293
vt 0.028503 0.310238
vt 0.033161 0.310668
vt 0.021736 0.310309
vt 0.052160 0.309213
vt 0.053639 0.205330
vt 0.059653 0.210091
vt 0.191317 0.549762
vt 0.186624 0.548210
vt 0.198049 0.547850
vt 0.071667 0.545506
vt 0.066576 0.549762
vt 0.078146 0.541400
vt 0.032486 0.217113
vt 0.037180 0.215561
vt 0.025755 0.215202
vt 0.064271 0.214855
vt 0.065255 0.321811
vt 0.064690 0.315691
vt 0.069217 0.311262
vt 0.076185 0.311118
vt 0.081511 0.315345
vt 0.082075 0.321465
vt 0.077548 0.325894
vt 0.070581 0.326038
vt 0.082983 0.532718
vt 0.089196 0.532833
vt 0.093716 0.537872
vt 0.093895 0.544885
vt 0.089629 0.549762
vt 0.083417 0.549647
vt 0.078897 0.544607
vt 0.078717 0.537595
vn 0.000000 0.000000 -1.000000
vn 0.000000 0.000000 -1.000000
vn 0.000000 0.000000 -1.000000
vn 0.000000 0.000000 -1.000000
vn 0.000000 0.000000 -1.000000
vn 0.000000 0.000000 -1.000000
vn 1.000000 0.000000 -0.000000
vn 0.866025 0.500000 -0.000000
vn 0.866025 0.500000 -0.000000
vn 1.000000 -0.000000 0.000000
vn 0.000000 1.000000 0.000000
vn 0.000000 1.000000 0.000000
vn 0.000000 1.000000 0.000000
vn 0.000000 1.000000 0.000000
vn -0.866026 0.500000 -0.000000
vn -1.000000 -0.000000 0.000000
vn -1.000000 -0.000000 -0.000000
vn -0.866026 0.500000 -0.000000
vn -0.866025 -0.500000 0.000000
vn -0.866025 -0.500000 0.000000
vn 0.000000 -1.000000 -0.000000
vn 0.000000 -1.000000 -0.000000
vn 0.000000 -1.000000 -0.000000
vn 0.000000 -1.000000 -0.000000
vn 0.866025 -0.500000 0.000000
vn 0.866025 -0.500000 0.000000
vn 0.654654 0.755929 0.000000
vn 1.000000 -0.000000 0.000000
vn 0.000000 1.000000 0.000000
vn 0.000000 1.000000 0.000000
vn -1.000000 -0.000000 -0.000000
vn -0.654654 0.755929 0.000000
vn -0.654654 -0.755929 -0.000000
vn 0.000000 -1.000000 0.000000
vn 0.000000 -1.000000 0.000000
vn 0.654654 -0.755929 0.000000
vn 0.500000 0.866026 -0.000000
vn 1.000000 0.000000 -0.000000
vn 0.654654 0.755929 0.000000
vn -0.654654 0.755929 0.000000
vn -0.500000 0.866025 0.000000
vn 0.500000 0.866026 -0.000000
vn -1.000000 -0.000000 0.000000
vn -0.500000 0.866025 0.000000
vn -0.500000 -0.866026 0.000000
vn -0.654654 -0.755929 -0.000000
vn 0.654654 -0.755929 0.000000
vn 0.500000 -0.866026 -0.000000
vn -0.500000 -0.866026 0.000000
vn 0.500000 -0.866026 -0.000000
vn 0.500000 0.866025 0.000000
vn 1.000000 -0.000000 0.000000
vn -0.500000 0.866025 0.000000
vn 0.500000 0.866025 0.000000
vn -1.000000 -0.000000 -0.000000
vn -0.500000 0.866025 0.000000
vn -0.500000 -0.866026 -0.000000
vn 0.500000 -0.866026 -0.000000
vn -0.500000 -0.866026 -0.000000
vn 0.500000 -0.866026 -0.000000
vn 0.500000 0.866026 0.000000
vn 1.000000 -0.000000 -0.000000
vn -0.500000 0.866025 0.000000
vn 0.500000 0.866026 0.000000
vn -1.000000 -0.000000 0.000000
vn -0.500000 0.866025 0.000000
vn -0.500000 -0.866025 -0.000000
vn 0.500000 -0.866026 -0.000000
vn -0.500000 -0.866025 -0.000000
vn 0.500000 -0.866026 -0.000000
vn 0.820958 0.473980 0.318389
vn 0.820958 0.473980 0.318389
vn 0.820958 0.473980 0.318389
vn -0.000000 0.952568 0.304327
vn -0.000000 0.952568 0.304327
vn -0.000000 0.952568 0.304327
vn -0.833558 0.481255 0.271248
vn -0.833558 0.481255 0.271248
vn -0.833558 0.481255 0.271248
vn -0.838050 -0.483848 0.252117
vn -0.838050 -0.483848 0.252117
vn -0.838050 -0.483848 0.252117
vn 0.000000 -0.963731 0.266877
vn 0.000000 -0.963731 0.266877
vn 0.000000 -0.963731 0.266877
vn 0.826112 -0.476956 0.300088
vn 0.826112 -0.476956 0.300088
vn 0.826111 -0.476956 0.300088
vn 0.000000 0.000000 -1.000000
vn 0.000000 0.000000 -1.000000
vn 0.000000 0.000000 -1.000000
vn 0.000000 0.000000 -1.000000
vn 0.000000 0.000000 -1.000000
vn 0.000000 0.000000 -1.000000
vn 0.000000 0.000000 -1.000000
vn 0.000000 0.000000 -1.000000
vn 0.000000 0.000000 -1.000000
vn 0.000000 0.000000 -1.000000
vn 0.000000 0.000000 -1.000000
vn 0.000000 0.000000 -1.000000
vn 0.000000 -0.622515 -0.782608
vn 0.000000 -0.622515 -0.782608
vn 0.000000 -0.622515 -0.782608
vn 0.000000 -0.622515 -0.782608
vn 0.000000 -0.622515 -0.782608
vn 0.000000 -0.622515 -0.782608
vn -1.000000 -0.000000 0.000000
vn -1.000000 -0.000000 0.000000
vn -1.000000 -0.000000 0.000000
vn -1.000000 -0.000000 -0.000000
vn -1.000000 -0.000000 -0.000000
vn -1.000000 -0.000000 -0.000000
vn -1.000000 -0.000000 0.000000
vn -1.000000 -0.000000 0.000000
vn -1.000000 -0.000000 0.000000
vn -1.000000 -0.000000 0.000000
vn -1.000000 -0.000000 0.000000
vn -0.000000 0.622515 0.782608
vn -0.000000 0.622515 0.782608
vn -0.000000 0.622515 0.782608
vn 0.000000 0.622515 0.782608
vn 0.000000 0.622515 0.782608
vn 0.000000 0.622515 0.782608
vn 1.000000 0.000000 0.000000
vn 1.000000 0.000000 0.000000
vn 1.000000 0.000000 0.000000
vn 1.000000 0.000000 0.000000
vn 1.000000 0.000000 0.000000
vn 1.000000 0.000000 -0.000000
vn 1.000000 0.000000 -0.000000
vn 1.000000 0.000000 -0.000000
vn 1.000000 0.000000 0.000000
vn 1.000000 0.000000 0.000000
vn 1.000000 0.000000 0.000000
vn 0.000000 0.622515 -0.782608
vn 0.000000 0.622515 -0.782608
vn 0.000000 0.622515 -0.782608
vn 0.000000 0.622515 -0.782608
vn 1.000000 0.000000 0.000000
vn 1.000000 0.000000 0.000000
vn 1.000000 0.000000 0.000000
vn 1.000000 0.000000 0.000000
vn 1.000000 0.000000 0.000000
vn 1.000000 0.000000 0.000000
vn 0.000000 -0.622515 0.782608
vn 0.000000 -0.622515 0.782608
vn 0.000000 -0.622515 0.782608
vn 0.000000 -0.622515 0.782608
vn 0.000000 -0.622515 0.782608
vn 0.000000 -0.622515 0.782608
vn -1.000000 0.000000 0.000000
vn -1.000000 0.000000 0.000000
vn -1.000000 0.000000 0.000000
vn -1.000000 0.000000 0.000000
vn -1.000000 0.000000 0.000000
vn -1.000000 0.000000 0.000000
vn 0.928130 0.029077 0.371119
vn 0.905324 0.017802 -0.424348
vn 0.922983 -0.057919 -0.380457
vn 0.909559 0.030062 0.414487
vn 0.905324 0.017802 -0.424348
vn 0.300899 -0.004997 -0.953643
vn 0.300148 -0.109137 -0.947629
vn 0.922983 -0.057919 -0.380457
vn -0.416718 -0.023022 -0.908744
vn -0.445907 -0.089649 -0.890579
vn -0.416718 -0.023022 -0.908744
vn -0.910452 -0.029176 -0.412586
vn -0.928785 -0.024415 -0.369813
vn -0.445907 -0.089649 -0.890579
vn -0.921924 -0.018736 0.386916
vn -0.907586 0.060602 0.415469
vn -0.921924 -0.018736 0.386916
vn -0.302594 0.004945 0.953107
vn -0.305856 0.108746 0.945847
vn -0.907586 0.060602 0.415469
vn 0.441557 0.023508 0.896925
vn 0.414693 0.092514 0.905246
vn 0.441557 0.023508 0.896925
vn 0.414693 0.092514 0.905246
vn 0.906529 -0.048111 -0.419393
vn 0.930342 0.025042 0.365837
vn 0.306190 -0.092454 -0.947470
vn 0.906529 -0.048111 -0.419393
vn -0.412311 -0.081067 -0.907430
vn -0.907694 -0.030084 -0.418552
vn -0.412311 -0.081067 -0.907430
vn -0.924677 0.042807 0.378338
vn -0.299376 0.088538 0.950018
vn -0.924677 0.042807 0.378338
vn 0.449064 0.077160 0.890161
vn 0.449064 0.077160 0.890161
vn 0.858445 0.043946 -0.511020
vn 0.960614 0.033551 0.275855
vn 0.297037 0.028597 -0.954438
vn 0.858445 0.043946 -0.511020
vn -0.355555 0.002047 -0.934653
vn -0.861251 -0.025668 -0.507531
vn -0.355555 0.002047 -0.934653
vn -0.956592 -0.046336 0.287725
vn -0.305012 -0.035333 0.951693
vn -0.956592 -0.046336 0.287725
vn 0.509306 0.001356 0.860584
vn 0.509306 0.001356 0.860584
vn 0.000002 -0.994294 0.106679
vn 0.000004 -0.994294 0.106677
vn 0.000002 -0.994294 0.106677
vn 0.000003 -0.994294 0.106677
vn 0.000001 -0.994294 0.106675
vn -0.000004 -0.994294 0.106677
vn 0.000001 -0.994294 0.106678
vn 0.000004 -0.994293 0.106686
vn -0.180083 0.832000 0.524735
vn -0.180078 0.832014 0.524714
vn -0.180083 0.831999 0.524735
vn -0.180087 0.831997 0.524739
vn -0.180082 0.832000 0.524735
vn -0.180076 0.832013 0.524716
vn -0.180082 0.831999 0.524736
vn -0.180082 0.831995 0.524742
f 1/1/1 2/2/2 3/3/3
f 3/3/3 4/4/4 5/5/5
f 1/1/1 3/3/3 5/5/5
f 6/6/6 1/1/1 5/5/5
f 7/7/7 8/8/8 9/9/9
f 9/9/9 10/10/10 7/7/7
f 11/11/11 12/12/12 13/13/13
f 13/13/13 14/14/14 11/11/11
f 15/15/15 16/16/16 17/17/17
f 17/17/17 18/18/18 15/15/15
f 16/16/16 19/19/19 20/20/20
f 20/20/20 17/17/17 16/16/16
f 21/21/21 22/22/22 23/23/23
f 23/23/23 24/24/24 21/21/21
f 25/25/25 7/7/7 10/10/10
f 10/10/10 26/26/26 25/25/25
f 10/10/10 9/9/9 27/27/27
f 27/27/27 28/28/28 10/10/10
f 14/14/14 13/13/13 29/29/29
f 29/29/29 30/30/30 14/14/14
f 18/18/18 17/17/17 31/31/31
f 31/31/31 32/32/32 18/18/18
f 17/17/17 20/20/20 33/33/33
f 33/33/33 31/31/31 17/17/17
f 24/24/24 23/23/23 34/34/34
f 34/34/34 35/35/35 24/24/24
f 26/26/26 10/10/10 28/28/28
f 28/28/28 36/36/36 26/26/26
f 28/28/28 27/27/27 37/37/37
f 37/37/37 38/38/38 28/28/28
f 39/39/39 40/40/40 41/41/41
f 41/41/41 42/42/42 39/39/39
f 32/32/32 31/31/31 43/43/43
f 43/43/43 44/44/44 32/32/32
f 31/31/31 33/33/33 45/45/45
f 45/45/45 43/43/43 31/31/31
f 46/46/46 47/47/47 48/48/48
f 48/48/48 49/49/49 46/46/46
f 36/36/36 28/28/28 38/38/38
f 38/38/38 50/50/50 36/36/36
f 38/38/38 37/37/37 51/51/51
f 51/51/51 52/52/52 38/38/38
f 42/42/42 41/41/41 53/53/53
f 53/53/53 54/54/54 42/42/42
f 44/44/44 43/43/43 55/55/55
f 55/55/55 56/56/56 44/44/44
f 43/43/43 45/45/45 57/57/57
f 57/57/57 55/55/55 43/43/43
f 49/49/49 48/48/48 58/58/58
f 58/58/58 59/59/59 49/49/49
f 50/50/50 38/38/38 52/52/52
f 52/52/52 60/60/60 50/50/50
f 52/52/52 51/51/51 61/61/61
f 61/61/61 62/62/62 52/52/52
f 54/54/54 53/53/53 63/63/63
f 63/63/63 64/64/64 54/54/54
f 56/56/56 55/55/55 65/65/65
f 65/65/65 66/66/66 56/56/56
f 55/55/55 57/57/57 67/67/67
f 67/67/67 65/65/65 55/55/55
f 59/59/59 58/58/58 68/68/68
f 68/68/68 69/69/69 59/59/59
f 60/60/60 52/52/52 62/62/62
f 62/62/62 70/70/70 60/60/60
f 71/71/71 72/72/72 73/73/73
f 74/74/74 75/75/75 76/76/76
f 77/77/77 78/78/78 79/79/79
f 80/80/80 81/81/81 82/82/82
f 83/83/83 84/84/84 85/85/85
f 86/86/86 87/87/87 88/88/88
f 89/89/89 90/90/90 91/91/91
f 91/91/91 92/92/92 89/89/89
f 90/90/90 93/93/93 94/94/94
f 94/94/94 91/91/91 90/90/90
f 93/93/93 95/95/95 96/96/96
f 96/96/96 94/94/94 93/93/93
f 95/95/95 97/97/97 98/98/98
f 98/98/98 96/96/96 95/95/95
f 97/97/97 99/99/99 100/100/100
f 100/100/100 98/98/98 97/97/97
f 99/99/99 89/89/89 92/92/92
f 92/92/92 100/100/100 99/99/99
f 101/101/101 102/102/102 103/103/103
f 104/104/104 105/105/105 106/106/106
f 107/107/107 108/108/108 109/109/109
f 110/110/110 111/111/111 112/112/112
f 113/113/113 114/114/114 115/115/115
f 116/116/116 117/117/117 113/113/113
f 118/118/118 119/119/119 120/120/120
f 121/121/121 122/122/122 123/123/123
f 124/124/124 125/125/125 126/126/126
f 127/127/127 128/128/128 124/124/124
f 129/129/129 130/130/130 131/131/131
f 132/132/132 133/133/133 134/134/134
f 135/135/135 136/136/136 137/137/137
f 137/137/137 138/138/138 135/135/135
f 139/139/139 140/140/140 141/141/141
f 141/141/141 142/142/142 139/139/139
f 140/140/140 143/143/143 144/144/144
f 144/144/144 141/141/141 140/140/140
f 145/145/145 146/146/146 147/147/147
f 148/148/148 149/149/149 150/150/150
f 151/151/151 152/152/152 153/153/153
f 153/153/153 154/154/154 151/151/151
f 152/152/152 155/155/155 156/156/156
f 156/156/156 153/153/153 152/152/152
f 157/157/157 158/158/158 159/159/159
f 159/159/159 160/160/160 157/157/157
f 161/161/161 162/162/162 163/163/163
f 163/163/163 164/164/164 161/161/161
f 162/162/162 165/165/165 166/166/166
f 166/166/166 163/163/163 162/162/162
f 167/167/167 168/168/168 169/169/169
f 169/169/169 170/170/170 167/167/167
f 168/168/168 171/171/171 172/172/172
f 172/172/172 169/169/169 168/168/168
f 173/173/173 174/174/174 175/175/175
f 175/175/175 176/176/176 173/173/173
f 174/174/174 177/177/177 178/178/178
f 178/178/178 175/175/175 174/174/174
f 179/179/179 157/157/157 160/160/160
f 160/160/160 180/180/180 179/179/179
f 160/160/160 159/159/159 181/181/181
f 181/181/181 182/182/182 160/160/160
f 164/164/164 163/163/163 183/183/183
f 183/183/183 184/184/184 164/164/164
f 163/163/163 166/166/166 185/185/185
f 185/185/185 183/183/183 163/163/163
f 170/170/170 169/169/169 186/186/186
f 186/186/186 187/187/187 170/170/170
f 169/169/169 172/172/172 188/188/188
f 188/188/188 186/186/186 169/169/169
f 176/176/176 175/175/175 189/189/189
f 189/189/189 190/190/190 176/176/176
f 175/175/175 178/178/178 191/191/191
f 191/191/191 189/189/189 175/175/175
f 180/180/180 160/160/160 182/182/182
f 182/182/182 192/192/192 180/180/180
f 182/182/182 181/181/181 193/193/193
f 193/193/193 194/194/194 182/182/182
f 184/184/184 183/183/183 195/195/195
f 195/195/195 196/196/196 184/184/184
f 183/183/183 185/185/185 197/197/197
f 197/197/197 195/195/195 183/183/183
f 187/187/187 186/186/186 198/198/198
f 198/198/198 199/199/199 187/187/187
f 186/186/186 188/188/188 200/200/200
f 200/200/200 198/198/198 186/186/186
f 190/190/190 189/189/189 201/201/201
f 201/201/201 202/202/202 190/190/190
f 189/189/189 191/191/191 203/203/203
f 203/203/203 201/201/201 189/189/189
f 192/192/192 182/182/182 194/194/194
f 194/194/194 204/204/204 192/192/192
f 205/205/205 206/206/206 207/207/207
f 207/207/207 208/208/208 209/209/209
f 209/209/209 210/210/210 211/211/211
f 207/207/207 209/209/209 211/211/211
f 205/205/205 207/207/207 211/211/211
f 212/212/212 205/205/205 211/211/211
f 213/213/213 214/214/214 215/215/215
f 215/215/215 216/216/216 217/217/217
f 217/217/217 218/218/218 219/219/219
f 215/215/215 217/217/217 219/219/219
f 213/213/213 215/215/215 219/219/219
f 220/220/220 213/213/213 219/219/219
