v -3.103353 -2.725384 0.000000
v -3.103353 2.725384 0.000000
v 3.103353 2.725384 0.000000
v 3.103353 -2.725384 0.000000
v -3.103353 -0.815289 25.128349
v 3.103353 -0.815289 25.128349
v 3.103353 4.635479 25.128349
v -3.103353 4.635479 25.128349
v -3.103353 -2.725384 0.000000
v 3.103353 -2.725384 0.000000
v 3.103353 -0.815289 25.128349
v -3.103353 -0.815289 25.128349
v 3.103353 -2.725384 0.000000
v 3.103353 2.725384 0.000000
v 3.103353 4.635479 25.128349
v 3.103353 -0.815289 25.128349
v 3.103353 2.725384 0.000000
v -3.103353 2.725384 0.000000
v -3.103353 4.635479 25.128349
v 3.103353 4.635479 25.128349
v -3.103353 2.725384 0.000000
v -3.103353 -2.725384 0.000000
v -3.103353 -0.815289 25.128349
v -3.103353 4.635479 25.128349
v -3.103353 -44.476391 1.004128
v -3.103353 -39.025623 1.004128
v 3.103353 -39.025623 1.004128
v 3.103353 -44.476391 1.004128
v -3.103353 -47.692516 24.042564
v 3.103353 -47.692516 24.042564
v 3.103353 -42.241749 24.042564
v -3.103353 -42.241749 24.042564
v -3.103353 -44.476391 1.004128
v 3.103353 -44.476391 1.004128
v 3.103353 -47.692516 24.042564
v -3.103353 -47.692516 24.042564
v 3.103353 -44.476391 1.004128
v 3.103353 -39.025623 1.004128
v 3.103353 -42.241749 24.042564
v 3.103353 -47.692516 24.042564
v 3.103353 -39.025623 1.004128
v -3.103353 -39.025623 1.004128
v -3.103353 -42.241749 24.042564
v 3.103353 -42.241749 24.042564
v -3.103353 -39.025623 1.004128
v -3.103353 -44.476391 1.004128
v -3.103353 -47.692516 24.042564
v -3.103353 -42.241749 24.042564
v -3.103353 40.788555 0.000000
v -3.103353 46.239323 0.000000
v 3.103353 46.239323 0.000000
v 3.103353 40.788555 0.000000
v -2.442587 38.058331 25.128349
v 3.764120 38.058331 25.128349
v 3.764120 43.509098 25.128349
v -2.442587 43.509098 25.128349
v -3.103353 40.788555 0.000000
v 3.103353 40.788555 0.000000
v 3.764120 38.058331 25.128349
v -2.442587 38.058331 25.128349
v 3.103353 40.788555 0.000000
v 3.103353 46.239323 0.000000
v 3.764120 43.509098 25.128349
v 3.764120 38.058331 25.128349
v 3.103353 46.239323 0.000000
v -3.103353 46.239323 0.000000
v -2.442587 43.509098 25.128349
v 3.764120 43.509098 25.128349
v -3.103353 46.239323 0.000000
v -3.103353 40.788555 0.000000
v -2.442587 38.058331 25.128349
v -2.442587 43.509098 25.128349
vt 0.754915 0.857027
vt 0.754915 0.965225
vt 0.631711 0.965225
vt 0.631711 0.857027
vt 0.754915 0.357868
vt 0.630296 0.397142
vt 0.631711 0.249669
vt 0.754915 0.249669
vt 0.754915 0.857027
vt 0.631711 0.857027
vt 0.630296 0.397142
vt 0.754915 0.357868
vt 0.631711 0.857027
vt 0.523980 0.849018
vt 0.523979 0.349499
vt 0.630296 0.397142
vt 0.985939 0.848838
vt 0.862647 0.848928
vt 0.862647 0.349589
vt 0.985939 0.349678
vt 0.862647 0.848928
vt 0.754915 0.857027
vt 0.754915 0.357868
vt 0.862647 0.349589
vt 0.097742 0.992510
vt 0.097742 0.918935
vt 0.181520 0.918935
vt 0.181520 0.992510
vt 0.097741 0.533632
vt 0.181520 0.533632
vt 0.181520 0.607207
vt 0.097741 0.607207
vt 0.338020 0.908812
vt 0.254038 0.909000
vt 0.254038 0.596895
vt 0.338020 0.597084
vt 0.254038 0.909000
vt 0.181520 0.918935
vt 0.181520 0.607207
vt 0.254038 0.596895
vt 0.181520 0.918935
vt 0.097742 0.918935
vt 0.097741 0.607207
vt 0.181520 0.607207
vt 0.097742 0.918935
vt 0.025223 0.909189
vt 0.025223 0.596707
vt 0.097741 0.607207
vt 0.311276 0.098066
vt 0.311276 0.010967
vt 0.212097 0.010967
vt 0.212097 0.098066
vt 0.300703 0.500156
vt 0.201524 0.500156
vt 0.201524 0.587255
vt 0.300703 0.587255
vt 0.311276 0.098066
vt 0.212097 0.098066
vt 0.201524 0.500156
vt 0.300703 0.500156
vt 0.212097 0.098066
vt 0.126029 0.086139
vt 0.115442 0.488785
vt 0.201524 0.500156
vt 0.497023 0.096177
vt 0.397848 0.090818
vt 0.387268 0.493186
vt 0.486450 0.498266
vt 0.397848 0.090818
vt 0.311276 0.098066
vt 0.300703 0.500156
vt 0.387268 0.493186
vn 0.000000 0.000000 -1.000000
vn 0.000000 0.000000 -1.000000
vn 0.000000 0.000000 -1.000000
vn 0.000000 0.000000 -1.000000
vn 0.000000 0.000000 1.000000
vn 0.000000 0.000000 1.000000
vn 0.000000 0.000000 1.000000
vn 0.000000 0.000000 1.000000
vn 0.000000 -0.997123 0.075795
vn 0.000000 -0.997123 0.075795
vn 0.000000 -0.997123 0.075795
vn 0.000000 -0.997123 0.075795
vn 1.000000 0.000000 0.000000
vn 1.000000 0.000000 0.000000
vn 1.000000 0.000000 0.000000
vn 1.000000 0.000000 0.000000
vn 0.000000 0.997123 -0.075795
vn 0.000000 0.997123 -0.075795
vn 0.000000 0.997123 -0.075795
vn 0.000000 0.997123 -0.075795
vn -1.000000 0.000000 0.000000
vn -1.000000 0.000000 0.000000
vn -1.000000 0.000000 0.000000
vn -1.000000 0.000000 0.000000
vn 0.000000 0.000000 -1.000000
vn 0.000000 0.000000 -1.000000
vn 0.000000 0.000000 -1.000000
vn 0.000000 0.000000 -1.000000
vn 0.000000 0.000000 1.000000
vn 0.000000 0.000000 1.000000
vn 0.000000 0.000000 1.000000
vn 0.000000 0.000000 1.000000
vn 0.000000 -0.990396 -0.138258
vn 0.000000 -0.990396 -0.138258
vn 0.000000 -0.990396 -0.138258
vn 0.000000 -0.990396 -0.138258
vn 1.000000 0.000000 0.000000
vn 1.000000 0.000000 0.000000
vn 1.000000 0.000000 0.000000
vn 1.000000 0.000000 0.000000
vn 0.000000 0.990396 0.138258
vn 0.000000 0.990396 0.138258
vn 0.000000 0.990396 0.138258
vn 0.000000 0.990396 0.138258
vn -1.000000 0.000000 0.000000
vn -1.000000 0.000000 0.000000
vn -1.000000 0.000000 0.000000
vn -1.000000 0.000000 0.000000
vn 0.000000 0.000000 -1.000000
vn 0.000000 0.000000 -1.000000
vn 0.000000 0.000000 -1.000000
vn 0.000000 0.000000 -1.000000
vn 0.000000 0.000000 1.000000
vn 0.000000 0.000000 1.000000
vn 0.000000 0.000000 1.000000
vn 0.000000 0.000000 1.000000
vn 0.000000 -0.994149 -0.108015
vn 0.000000 -0.994149 -0.108015
vn 0.000000 -0.994149 -0.108015
vn 0.000000 -0.994149 -0.108015
vn 0.999655 0.000000 -0.026287
vn 0.999655 0.000000 -0.026287
vn 0.999655 0.000000 -0.026287
vn 0.999655 0.000000 -0.026287
vn 0.000000 0.994149 0.108015
vn 0.000000 0.994149 0.108015
vn 0.000000 0.994149 0.108015
vn 0.000000 0.994149 0.108015
vn -0.999655 0.000000 0.026287
vn -0.999655 0.000000 0.026287
vn -0.999655 0.000000 0.026287
vn -0.999655 0.000000 0.026287
f 1/1/1 2/2/2 3/3/3
f 1/1/1 3/3/3 4/4/4
f 5/5/5 6/6/6 7/7/7
f 5/5/5 7/7/7 8/8/8
f 9/9/9 10/10/10 11/11/11
f 9/9/9 11/11/11 12/12/12
f 13/13/13 14/14/14 15/15/15
f 13/13/13 15/15/15 16/16/16
f 17/17/17 18/18/18 19/19/19
f 17/17/17 19/19/19 20/20/20
f 21/21/21 22/22/22 23/23/23
f 21/21/21 23/23/23 24/24/24
f 25/25/25 26/26/26 27/27/27
f 25/25/25 27/27/27 28/28/28
f 29/29/29 30/30/30 31/31/31
f 29/29/29 31/31/31 32/32/32
f 33/33/33 34/34/34 35/35/35
f 33/33/33 35/35/35 36/36/36
f 37/37/37 38/38/38 39/39/39
f 37/37/37 39/39/39 40/40/40
f 41/41/41 42/42/42 43/43/43
f 41/41/41 43/43/43 44/44/44
f 45/45/45 46/46/46 47/47/47
f 45/45/45 47/47/47 48/48/48
f 49/49/49 50/50/50 51/51/51
f 49/49/49 51/51/51 52/52/52
f 53/53/53 54/54/54 55/55/55
f 53/53/53 55/55/55 56/56/56
f 57/57/57 58/58/58 59/59/59
f 57/57/57 59/59/59 60/60/60
f 61/61/61 62/62/62 63/63/63
f 61/61/61 63/63/63 64/64/64
f 65/65/65 66/66/66 67/67/67
f 65/65/65 67/67/67 68/68/68
f 69/69/69 70/70/70 71/71/71
f 69/69/69 71/71/71 72/72/72
