v -3.864114 -3.397059 0.000000
v -3.864114 3.397059 0.000000
v 3.864114 3.397059 0.000000
v 3.864114 -3.397059 0.000000
v -3.864114 -3.397059 98.897041
v 3.864114 -3.397059 98.897041
v 3.864114 3.397059 98.897041
v -3.864114 3.397059 98.897041
v 3.864115 -3.261434 38.704731
v -3.864114 -3.397059 36.112255
v -3.864114 -3.397059 25.357201
v 3.864115 -3.261434 27.949677
v -3.864114 3.397059 36.112259
v 3.864113 3.532685 38.704735
v 3.864113 3.532686 27.949678
v -3.864114 3.397059 25.357204
v -3.864114 -3.397059 36.112255
v -3.864114 3.397059 36.112259
v -3.864114 3.397059 25.357204
v -3.864114 -3.397059 25.357201
v 3.864114 -3.397059 98.897041
v -3.864114 -3.397059 98.897041
v -3.864114 -3.397059 0.000000
v 3.864114 -3.397059 0.000000
v 3.864114 3.397059 98.897041
v 3.864114 -3.397059 98.897041
v 3.864115 -3.261434 38.704731
v 3.864113 3.532685 38.704735
v 3.864114 -3.397059 0.000000
v 3.864114 3.397059 0.000000
v 3.864113 3.532686 27.949678
v 3.864115 -3.261434 27.949677
v -3.864114 3.397059 98.897041
v 3.864114 3.397059 98.897041
v 3.864114 3.397059 0.000000
v -3.864114 3.397059 0.000000
v -3.864114 -3.397059 98.897041
v -3.864114 3.397059 98.897041
v -3.864114 3.397059 0.000000
v -3.864114 -3.397059 0.000000
v 48.061241 -7.840823 1.795197
v 48.061241 -1.046705 1.795197
v 55.789467 -1.046705 1.795197
v 55.789467 -7.840823 1.795197
v 48.061241 -7.840823 100.692230
v 55.789467 -7.840823 100.692230
v 55.789467 -1.046705 100.692230
v 48.061241 -1.046705 100.692230
v 55.789467 -7.840823 34.473148
v 48.061241 -7.705197 37.065620
v 48.061241 -7.705196 27.536892
v 55.789467 -7.840823 24.944420
v 55.789467 -1.046705 34.473148
v 55.789467 -7.840823 34.473148
v 55.789467 -7.840823 24.944420
v 55.789467 -1.046705 24.944420
v 48.061241 -0.911078 37.065624
v 55.789467 -1.046705 34.473148
v 55.789467 -1.046705 24.944420
v 48.061241 -0.911080 27.536894
v 55.789467 -7.840823 100.692230
v 48.061241 -7.840823 100.692230
v 48.061241 -7.840823 1.795197
v 55.789467 -7.840823 1.795197
v 55.789467 -1.046705 100.692230
v 55.789467 -7.840823 100.692230
v 55.789467 -7.840823 1.795197
v 55.789467 -1.046705 1.795197
v 48.061241 -1.046705 100.692230
v 55.789467 -1.046705 100.692230
v 55.789467 -1.046705 1.795197
v 48.061241 -1.046705 1.795197
v 48.061241 -7.840823 100.692230
v 48.061241 -1.046705 100.692230
v 48.061241 -0.911078 37.065624
v 48.061241 -7.705197 37.065620
v 48.061241 -1.046705 1.795197
v 48.061241 -7.840823 1.795197
v 48.061241 -7.705196 27.536892
v 48.061241 -0.911080 27.536894
v 3.864115 -3.261434 27.949677
v 3.864113 3.532686 27.949678
v 48.061241 -0.911080 27.536894
v 48.061241 -7.705196 27.536892
v 3.864113 3.532686 27.949678
v 3.864113 3.532685 38.704735
v 48.061241 -0.911078 37.065624
v 48.061241 -0.911080 27.536894
v 3.864113 3.532685 38.704735
v 3.864115 -3.261434 38.704731
v 48.061241 -7.705197 37.065620
v 48.061241 -0.911078 37.065624
v 3.864115 -3.261434 38.704731
v 3.864115 -3.261434 27.949677
v 48.061241 -7.705196 27.536892
v 48.061241 -7.705197 37.065620
vt 0.849688 0.716067
vt 0.849688 0.764349
vt 0.794767 0.764349
vt 0.794767 0.716067
vt 0.635901 0.436823
vt 0.635901 0.381902
vt 0.684183 0.381902
vt 0.684183 0.436823
vt 0.794767 0.441013
vt 0.849688 0.459436
vt 0.849688 0.535867
vt 0.794767 0.517443
vt 0.000500 0.459436
vt 0.055223 0.441005
vt 0.055224 0.517442
vt 0.000500 0.535867
vt 0.851022 0.446679
vt 0.899304 0.446679
vt 0.899304 0.523109
vt 0.851022 0.523109
vt 0.794767 0.013257
vt 0.849688 0.013257
vt 0.849688 0.716067
vt 0.794767 0.716067
vt 0.538295 0.009067
vt 0.586577 0.009067
vt 0.585614 0.436823
vt 0.537331 0.436823
vt 0.518732 0.741431
vt 0.518732 0.693149
vt 0.717355 0.692185
vt 0.717355 0.740467
vt 0.000500 0.013257
vt 0.055420 0.013257
vt 0.055420 0.716067
vt 0.000500 0.716067
vt 0.851022 0.000500
vt 0.899304 0.000500
vt 0.899304 0.703310
vt 0.851022 0.703310
vt 0.369506 0.751592
vt 0.369506 0.703310
vt 0.424427 0.703310
vt 0.424427 0.751592
vt 0.741993 0.122292
vt 0.741993 0.067372
vt 0.790276 0.067372
vt 0.790276 0.122292
vt 0.425761 0.471084
vt 0.480681 0.452661
vt 0.480681 0.520377
vt 0.425761 0.538800
vt 0.900638 0.471084
vt 0.948920 0.471084
vt 0.948920 0.538800
vt 0.900638 0.538800
vt 0.369704 0.452668
vt 0.424427 0.471084
vt 0.424427 0.538800
vt 0.369703 0.520379
vt 0.425761 0.000500
vt 0.480681 0.000500
vt 0.480681 0.703310
vt 0.425761 0.703310
vt 0.900638 0.000500
vt 0.948920 0.000500
vt 0.948920 0.703310
vt 0.900638 0.703310
vt 0.369506 0.000500
vt 0.424427 0.000500
vt 0.424427 0.703310
vt 0.369506 0.703310
vt 0.950254 0.000500
vt 0.998536 0.000500
vt 0.999500 0.452661
vt 0.951218 0.452661
vt 0.683219 0.272140
vt 0.634937 0.272140
vt 0.635901 0.089207
vt 0.684183 0.089207
vt 0.059398 0.565403
vt 0.055224 0.517442
vt 0.369703 0.520379
vt 0.374269 0.568344
vt 0.055224 0.517442
vt 0.055223 0.441005
vt 0.369704 0.452668
vt 0.369703 0.520379
vt 0.055223 0.441005
vt 0.061613 0.393290
vt 0.376489 0.404967
vt 0.369704 0.452668
vt 0.794767 0.441013
vt 0.794767 0.517443
vt 0.480681 0.520377
vt 0.480681 0.452661
vn 0.000000 0.000000 -1.000000
vn 0.000000 0.000000 -1.000000
vn 0.000000 0.000000 -1.000000
vn 0.000000 0.000000 -1.000000
vn 0.000000 0.000000 1.000000
vn 0.000000 0.000000 1.000000
vn 0.000000 0.000000 1.000000
vn 0.000000 0.000000 1.000000
vn 0.012369 -0.999923 -0.000665
vn 0.014138 -0.999900 -0.000438
vn 0.012000 -0.999927 0.001534
vn 0.013895 -0.999903 0.001010
vn -0.014138 0.999900 0.000438
vn -0.012369 0.999923 0.000665
vn -0.013895 0.999903 -0.001010
vn -0.012000 0.999927 -0.001534
vn -1.000000 0.000000 0.000000
vn -1.000000 0.000000 0.000000
vn -1.000000 0.000000 0.000000
vn -1.000000 0.000000 0.000000
vn 0.008959 -0.999959 -0.001103
vn 0.008959 -0.999959 -0.001103
vn 0.008348 -0.999962 0.002544
vn 0.008348 -0.999962 0.002544
vn 1.000000 0.000000 -0.000000
vn 1.000000 0.000000 -0.000000
vn 1.000000 0.000000 -0.000000
vn 1.000000 0.000000 -0.000000
vn 1.000000 0.000000 0.000000
vn 1.000000 0.000000 0.000000
vn 1.000000 0.000000 0.000000
vn 1.000000 0.000000 0.000000
vn -0.008959 0.999959 0.001103
vn -0.008959 0.999959 0.001103
vn -0.008348 0.999962 -0.002544
vn -0.008348 0.999962 -0.002544
vn -1.000000 0.000000 0.000000
vn -1.000000 0.000000 0.000000
vn -1.000000 0.000000 0.000000
vn -1.000000 0.000000 0.000000
vn 0.000000 0.000000 -1.000000
vn 0.000000 0.000000 -1.000000
vn 0.000000 0.000000 -1.000000
vn 0.000000 0.000000 -1.000000
vn 0.000000 0.000000 1.000000
vn 0.000000 0.000000 1.000000
vn 0.000000 0.000000 1.000000
vn 0.000000 0.000000 1.000000
vn -0.014134 -0.999900 -0.000415
vn -0.012363 -0.999923 -0.000630
vn -0.013880 -0.999903 0.001101
vn -0.011977 -0.999927 0.001673
vn 1.000000 0.000000 0.000000
vn 1.000000 0.000000 0.000000
vn 1.000000 0.000000 0.000000
vn 1.000000 0.000000 0.000000
vn 0.012363 0.999923 0.000630
vn 0.014134 0.999900 0.000415
vn 0.011976 0.999927 -0.001673
vn 0.013880 0.999903 -0.001101
vn -0.008950 -0.999959 -0.001044
vn -0.008950 -0.999959 -0.001044
vn -0.008309 -0.999962 0.002774
vn -0.008309 -0.999962 0.002774
vn 1.000000 0.000000 0.000000
vn 1.000000 0.000000 0.000000
vn 1.000000 0.000000 0.000000
vn 1.000000 0.000000 0.000000
vn 0.008950 0.999959 0.001044
vn 0.008950 0.999959 0.001044
vn 0.008309 0.999962 -0.002774
vn 0.008309 0.999962 -0.002774
vn -1.000000 0.000000 0.000000
vn -1.000000 0.000000 0.000000
vn -1.000000 0.000000 0.000000
vn -1.000000 0.000000 0.000000
vn -1.000000 0.000000 0.000000
vn -1.000000 0.000000 0.000000
vn -1.000000 0.000000 0.000000
vn -1.000000 0.000000 0.000000
vn -0.009339 0.000000 -0.999956
vn -0.009339 0.000000 -0.999956
vn -0.009339 0.000000 -0.999956
vn -0.009339 0.000000 -0.999956
vn 0.100040 0.994983 -0.000000
vn 0.100040 0.994983 -0.000000
vn 0.100040 0.994983 -0.000000
vn 0.100040 0.994983 -0.000000
vn 0.037061 -0.000001 0.999313
vn 0.037061 -0.000001 0.999313
vn 0.037061 -0.000001 0.999313
vn 0.037061 -0.000001 0.999313
vn -0.100040 -0.994983 -0.000000
vn -0.100040 -0.994983 -0.000000
vn -0.100040 -0.994983 -0.000000
vn -0.100040 -0.994983 -0.000000
f 1/1/1 2/2/2 3/3/3
f 1/1/1 3/3/3 4/4/4
f 5/5/5 6/6/6 7/7/7
f 5/5/5 7/7/7 8/8/8
f 9/9/9 10/10/10 11/11/11
f 9/9/9 11/11/11 12/12/12
f 13/13/13 14/14/14 15/15/15
f 13/13/13 15/15/15 16/16/16
f 17/17/17 18/18/18 19/19/19
f 17/17/17 19/19/19 20/20/20
f 21/21/21 22/22/22 10/10/10
f 21/21/21 10/10/10 9/9/9
f 23/23/23 24/24/24 12/12/12
f 23/23/23 12/12/12 11/11/11
f 25/25/25 26/26/26 27/27/27
f 25/25/25 27/27/27 28/28/28
f 29/29/29 30/30/30 31/31/31
f 29/29/29 31/31/31 32/32/32
f 33/33/33 34/34/34 14/14/14
f 33/33/33 14/14/14 13/13/13
f 35/35/35 36/36/36 16/16/16
f 35/35/35 16/16/16 15/15/15
f 37/37/37 38/38/38 18/18/18
f 37/37/37 18/18/18 17/17/17
f 39/39/39 40/40/40 20/20/20
f 39/39/39 20/20/20 19/19/19
f 41/41/41 42/42/42 43/43/43
f 41/41/41 43/43/43 44/44/44
f 45/45/45 46/46/46 47/47/47
f 45/45/45 47/47/47 48/48/48
f 49/49/49 50/50/50 51/51/51
f 49/49/49 51/51/51 52/52/52
f 53/53/53 54/54/54 55/55/55
f 53/53/53 55/55/55 56/56/56
f 57/57/57 58/58/58 59/59/59
f 57/57/57 59/59/59 60/60/60
f 61/61/61 62/62/62 50/50/50
f 61/61/61 50/50/50 49/49/49
f 63/63/63 64/64/64 52/52/52
f 63/63/63 52/52/52 51/51/51
f 65/65/65 66/66/66 54/54/54
f 65/65/65 54/54/54 53/53/53
f 67/67/67 68/68/68 56/56/56
f 67/67/67 56/56/56 55/55/55
f 69/69/69 70/70/70 58/58/58
f 69/69/69 58/58/58 57/57/57
f 71/71/71 72/72/72 60/60/60
f 71/71/71 60/60/60 59/59/59
f 73/73/73 74/74/74 75/75/75
f 73/73/73 75/75/75 76/76/76
f 77/77/77 78/78/78 79/79/79
f 77/77/77 79/79/79 80/80/80
f 81/81/81 82/82/82 83/83/83
f 81/81/81 83/83/83 84/84/84
f 85/85/85 86/86/86 87/87/87
f 85/85/85 87/87/87 88/88/88
f 89/89/89 90/90/90 91/91/91
f 89/89/89 91/91/91 92/92/92
f 93/93/93 94/94/94 95/95/95
f 93/93/93 95/95/95 96/96/96
