v -15.533976 -1.280019 1.847758
v -16.424210 -4.533175 1.974318
v -7.902421 -2.846473 0.472107
v -8.361852 -6.189986 0.509910
v -0.004362 -3.375045 0.000058
v -0.017451 -6.750166 0.000243
v 7.913481 -2.846848 0.453646
v 8.348308 -6.193839 0.468528
v 15.602608 -1.276104 1.825930
v 16.472912 -4.536106 1.907364
v -14.651917 1.975343 1.723312
v -7.451576 0.498122 0.435442
v -0.000000 -0.000000 0.000000
v 7.470059 0.498911 0.437875
v 14.724110 1.981549 1.742618
v -13.778043 5.232894 1.600967
v -7.009320 3.843781 0.399901
v -0.004363 3.374951 0.000053
v 7.018048 3.843421 0.421200
v 13.837429 5.236837 1.657416
v -12.912358 8.492617 1.480707
v -6.575656 7.190487 0.365468
v -0.017452 6.749791 0.000203
v 6.557452 7.186666 0.403607
v 12.942569 8.489743 1.570309
vt 1.001116 0.352634
vt 1.001116 0.465021
vt 0.751366 0.352634
vt 0.751366 0.465021
vt 0.501616 0.352634
vt 0.501616 0.465021
vt 0.251866 0.352634
vt 0.251866 0.465021
vt 0.002116 0.352634
vt 0.002116 0.465021
vt 1.001116 0.240246
vt 0.751366 0.240246
vt 0.501616 0.240246
vt 0.251866 0.240246
vt 0.002116 0.240246
vt 1.001116 0.127859
vt 0.751366 0.127859
vt 0.501616 0.127859
vt 0.251866 0.127859
vt 0.002116 0.127859
vt 1.001116 0.015471
vt 0.751366 0.015471
vt 0.501616 0.015471
vt 0.251866 0.015471
vt 0.002116 0.015471
vn 0.174928 -0.010060 0.984530
vn 0.175625 -0.010592 0.984400
vn 0.117554 -0.004933 0.993054
vn 0.118461 -0.005454 0.992944
vn 0.001232 0.000042 0.999999
vn 0.002211 -0.000353 0.999998
vn -0.114735 -0.010497 0.993341
vn -0.113716 -0.010758 0.993455
vn -0.171062 -0.020586 0.985045
vn -0.170222 -0.020833 0.985186
vn 0.173631 -0.009896 0.984761
vn 0.116254 -0.004790 0.993208
vn -0.000084 0.000010 1.000000
vn -0.116025 -0.010702 0.993189
vn -0.172345 -0.020810 0.984817
vn 0.172309 -0.009729 0.984995
vn 0.114929 -0.004646 0.993363
vn -0.001423 -0.000024 0.999999
vn -0.117338 -0.010913 0.993032
vn -0.173649 -0.021042 0.984583
vn 0.171492 -0.009199 0.985143
vn 0.114288 -0.004181 0.993439
vn -0.002128 0.000351 0.999998
vn -0.118084 -0.010636 0.992947
vn -0.174595 -0.020836 0.984420
f 1/1/1 2/2/2 3/3/3
f 4/4/4 3/3/3 2/2/2
f 3/3/3 4/4/4 5/5/5
f 6/6/6 5/5/5 4/4/4
f 5/5/5 6/6/6 7/7/7
f 8/8/8 7/7/7 6/6/6
f 7/7/7 8/8/8 9/9/9
f 10/10/10 9/9/9 8/8/8
f 11/11/11 1/1/1 12/12/12
f 3/3/3 12/12/12 1/1/1
f 12/12/12 3/3/3 13/13/13
f 5/5/5 13/13/13 3/3/3
f 13/13/13 5/5/5 14/14/14
f 7/7/7 14/14/14 5/5/5
f 14/14/14 7/7/7 15/15/15
f 9/9/9 15/15/15 7/7/7
f 16/16/16 11/11/11 17/17/17
f 12/12/12 17/17/17 11/11/11
f 17/17/17 12/12/12 18/18/18
f 13/13/13 18/18/18 12/12/12
f 18/18/18 13/13/13 19/19/19
f 14/14/14 19/19/19 13/13/13
f 19/19/19 14/14/14 20/20/20
f 15/15/15 20/20/20 14/14/14
f 21/21/21 16/16/16 22/22/22
f 17/17/17 22/22/22 16/16/16
f 22/22/22 17/17/17 23/23/23
f 18/18/18 23/23/23 17/17/17
f 23/23/23 18/18/18 24/24/24
f 19/19/19 24/24/24 18/18/18
f 24/24/24 19/19/19 25/25/25
f 20/20/20 25/25/25 19/19/19
