v -38.858871 12.492180 -6.684723
v 39.534855 13.398917 0.000000
v 45.482300 -21.694462 2.164691
v -54.203842 -14.305656 -6.684723
v 17.114628 13.398916 25.745653
v -17.114628 13.398917 12.901173
v -28.037052 -13.398916 6.901295
v 23.062069 -21.694464 27.910343
v -25.665428 -37.472584 -1.276228
v 29.573135 -29.212143 -1.220486
v 14.242051 -29.618317 0.601876
v -25.448555 -38.698227 0.090473
v 39.534855 13.398917 0.000000
v 17.114628 13.398916 25.745653
v 23.062069 -21.694464 27.910343
v 45.482300 -21.694462 2.164691
v 39.534855 22.383757 0.000000
v -17.114628 22.383757 0.000000
v -17.114628 22.383757 5.208332
v 17.114628 22.383757 7.803913
v -54.203842 -14.305656 -6.684723
v -28.037052 -13.398916 6.901295
v -17.114628 13.398917 12.901173
v -38.858871 12.492180 -6.684723
v -17.114628 22.383757 0.000000
v 39.534855 22.383757 0.000000
v 45.482300 -21.694462 2.164691
v 39.534855 -17.354338 0.000000
v -39.971195 -29.438932 0.000000
v 17.114628 22.383757 7.803913
v -17.114628 22.383757 5.208332
v -17.114628 13.398917 12.901173
v 17.114628 13.398916 25.745653
v -25.448555 -38.698227 0.090473
v 14.242051 -29.618317 0.601876
v 13.795245 -27.926792 14.397911
v -17.623631 -27.742651 1.119037
v 39.534855 22.383757 0.000000
v 17.114628 22.383757 7.803913
v 17.114628 13.398916 25.745653
v 39.534855 13.398917 0.000000
v 14.242051 -29.618317 0.601876
v 29.573135 -29.212143 -1.220486
v 28.457745 -27.293015 -2.863306
v 13.795245 -27.926792 14.397911
v -39.971195 -29.438932 0.000000
v -39.971195 -29.438932 4.698658
v -17.114628 22.383757 5.208332
v -17.114628 22.383757 0.000000
v -39.971195 -29.438932 0.000000
v 39.534855 -17.354338 0.000000
v 38.230515 -16.794903 2.188673
v -37.850941 -28.172215 2.111898
v 39.534855 -17.354338 0.000000
v 45.482300 -21.694462 2.164691
v 42.641701 -22.447186 2.090664
v 38.230515 -16.794903 2.188673
v 45.482300 -21.694462 2.164691
v 23.062069 -21.694464 27.910343
v 22.446676 -23.320103 25.864975
v 42.641701 -22.447186 2.090664
v 23.062069 -21.694464 27.910343
v -28.037052 -13.398916 6.901295
v -26.774771 -14.770937 5.410956
v 22.446676 -23.320103 25.864975
v -28.037052 -13.398916 6.901295
v -39.971195 -29.438932 4.698658
v -37.552238 -29.860321 3.994290
v -26.774771 -14.770937 5.410956
v -39.971195 -29.438932 4.698658
v -39.971195 -29.438932 0.000000
v -37.850941 -28.172215 2.111898
v -37.552238 -29.860321 3.994290
v -37.850941 -28.172215 2.111898
v 38.230515 -16.794903 2.188673
v 29.573135 -29.212143 -1.220486
v -25.665428 -37.472584 -1.276228
v 38.230515 -16.794903 2.188673
v 42.641701 -22.447186 2.090664
v 28.457745 -27.293015 -2.863306
v 29.573135 -29.212143 -1.220486
v 42.641701 -22.447186 2.090664
v 22.446676 -23.320103 25.864975
v 13.795245 -27.926792 14.397911
v 28.457745 -27.293015 -2.863306
v 22.446676 -23.320103 25.864975
v -26.774771 -14.770937 5.410956
v -17.623631 -27.742651 1.119037
v 13.795245 -27.926792 14.397911
v -26.774771 -14.770937 5.410956
v -37.552238 -29.860321 3.994290
v -25.448555 -38.698227 0.090473
v -17.623631 -27.742651 1.119037
v -37.552238 -29.860321 3.994290
v -37.850941 -28.172215 2.111898
v -25.665428 -37.472584 -1.276228
v -25.448555 -38.698227 0.090473
vt 0.307883 0.143290
vt 0.314530 0.583332
vt 0.118084 0.583332
vt 0.111437 0.030801
vt 0.560977 0.742408
vt 0.560977 0.491484
vt 0.757423 0.411416
vt 0.757423 0.742408
vt 0.506212 0.499059
vt 0.491672 0.903733
vt 0.482243 0.790949
vt 0.496144 0.500299
vt 0.935286 0.196946
vt 0.746553 0.196946
vt 0.746553 0.000500
vt 0.935286 0.000500
vt 0.189233 0.584222
vt 0.189233 0.999500
vt 0.151052 0.999500
vt 0.132025 0.748577
vt 0.938696 0.680373
vt 0.888105 0.673726
vt 0.844122 0.477281
vt 0.938696 0.483928
vt 0.380394 0.168054
vt 0.380394 0.583332
vt 0.118084 0.583332
vt 0.089088 0.583332
vt 0.000500 0.000500
vt 0.132025 0.748577
vt 0.151052 0.999500
vt 0.094658 0.999500
vt 0.000500 0.748577
vt 0.496144 0.500299
vt 0.482243 0.790949
vt 0.381285 0.784146
vt 0.486607 0.557362
vt 0.616197 0.997183
vt 0.560977 0.837357
vt 0.666326 0.743298
vt 0.667161 0.990159
vt 0.482243 0.790949
vt 0.491672 0.903733
vt 0.503993 0.895982
vt 0.381285 0.784146
vt 0.938696 0.791310
vt 0.904251 0.791310
vt 0.900515 0.411416
vt 0.938696 0.411416
vt 0.974031 0.411416
vt 0.974031 0.994248
vt 0.957986 0.984686
vt 0.958549 0.426959
vt 0.715407 0.189278
vt 0.730773 0.164688
vt 0.745508 0.180402
vt 0.725689 0.190867
vt 0.558093 0.498169
vt 0.381285 0.321049
vt 0.396557 0.317595
vt 0.560087 0.477434
vt 0.381285 0.321049
vt 0.542179 0.000500
vt 0.552432 0.010493
vt 0.396557 0.317595
vt 0.560977 0.083828
vt 0.681543 0.000500
vt 0.684011 0.018330
vt 0.570706 0.093427
vt 0.939586 0.411416
vt 0.974031 0.411416
vt 0.958549 0.426959
vt 0.944750 0.429149
vt 0.838260 0.411416
vt 0.843231 0.975323
vt 0.761923 0.899808
vt 0.758314 0.490386
vt 0.725689 0.190867
vt 0.745508 0.180402
vt 0.745663 0.294095
vt 0.731274 0.301693
vt 0.271221 0.803901
vt 0.190123 0.589998
vt 0.308257 0.584222
vt 0.367137 0.739526
vt 0.561493 0.410525
vt 0.570706 0.093427
vt 0.663398 0.163789
vt 0.656709 0.394016
vt 0.570706 0.093427
vt 0.684011 0.018330
vt 0.745663 0.109264
vt 0.663398 0.163789
vt 0.697121 0.170170
vt 0.714962 0.164688
vt 0.711262 0.279714
vt 0.698309 0.283694
vn 0.078755 0.011255 -0.996831
vn 0.067123 0.113524 -0.991265
vn 0.076803 -0.140987 -0.987028
vn 0.073969 -0.171013 -0.982488
vn -0.304926 0.364478 0.879873
vn -0.290413 0.419764 0.859918
vn -0.370964 -0.027700 0.928234
vn -0.370964 -0.027700 0.928234
vn 0.168335 -0.932038 0.320888
vn 0.168335 -0.932038 0.320888
vn 0.168335 -0.932038 0.320888
vn 0.168335 -0.932038 0.320888
vn 0.631589 0.405438 0.660844
vn 0.667988 0.340264 0.661825
vn 0.743670 0.165981 0.647615
vn 0.743670 0.165981 0.647615
vn 0.000000 1.000000 0.000000
vn 0.000000 1.000000 0.000000
vn 0.000000 1.000000 0.000000
vn 0.000000 1.000000 0.000000
vn -0.568671 0.139426 0.810663
vn -0.567573 0.151811 0.809206
vn -0.591407 0.455212 0.665598
vn -0.582377 0.305024 0.753524
vn 0.045447 0.286547 -0.956988
vn 0.045447 0.286547 -0.956988
vn 0.076803 -0.140987 -0.987028
vn 0.055347 -0.349245 -0.935395
vn 0.055347 -0.349245 -0.935395
vn -0.128390 0.812073 0.569258
vn -0.128390 0.812072 0.569258
vn -0.290413 0.419764 0.859918
vn -0.304926 0.364478 0.879873
vn -0.033582 -0.752025 0.658278
vn -0.033582 -0.752025 0.658278
vn -0.033582 -0.752025 0.658278
vn -0.033582 -0.752025 0.658278
vn 0.467926 0.624432 0.625404
vn 0.467926 0.624432 0.625404
vn 0.667988 0.340264 0.661825
vn 0.631589 0.405438 0.660844
vn 0.225501 -0.925606 0.303979
vn 0.225501 -0.925606 0.303979
vn 0.225501 -0.925606 0.303979
vn 0.225501 -0.925606 0.303979
vn -0.572917 0.075105 0.816165
vn -0.572917 0.075105 0.816165
vn -0.565621 0.676724 0.471295
vn -0.565621 0.676724 0.471294
vn 0.138666 -0.920753 0.364672
vn 0.138666 -0.920753 0.364672
vn 0.138666 -0.920753 0.364672
vn 0.138666 -0.920753 0.364672
vn -0.364005 -0.535028 -0.762394
vn -0.364005 -0.535028 -0.762394
vn -0.364005 -0.535028 -0.762394
vn -0.364005 -0.535028 -0.762394
vn 0.393666 -0.860409 0.323609
vn 0.393666 -0.860409 0.323609
vn 0.393667 -0.860409 0.323609
vn 0.393666 -0.860409 0.323609
vn -0.358249 -0.743439 0.564761
vn -0.358249 -0.743439 0.564761
vn -0.358249 -0.743439 0.564761
vn -0.358249 -0.743439 0.564761
vn 0.345963 -0.353460 0.869123
vn 0.345963 -0.353460 0.869123
vn 0.345963 -0.353460 0.869124
vn 0.345963 -0.353460 0.869123
vn 0.251928 -0.934585 -0.251165
vn 0.251928 -0.934585 -0.251165
vn 0.251928 -0.934585 -0.251165
vn 0.251928 -0.934585 -0.251165
vn -0.042716 0.292097 -0.955434
vn -0.042716 0.292097 -0.955434
vn -0.042716 0.292097 -0.955434
vn -0.042716 0.292097 -0.955434
vn 0.007430 0.427993 -0.903751
vn 0.007430 0.427993 -0.903751
vn 0.007430 0.427993 -0.903751
vn 0.007430 0.427993 -0.903751
vn 0.259122 -0.947902 0.185306
vn 0.259122 -0.947902 0.185306
vn 0.259122 -0.947902 0.185306
vn 0.259122 -0.947902 0.185306
vn -0.356968 -0.629149 0.690467
vn -0.356968 -0.629149 0.690467
vn -0.356968 -0.629149 0.690467
vn -0.356968 -0.629149 0.690467
vn 0.161124 -0.205705 0.965259
vn 0.161124 -0.205705 0.965259
vn 0.161124 -0.205705 0.965259
vn 0.161124 -0.205705 0.965259
vn -0.614285 -0.633420 -0.470567
vn -0.614285 -0.633420 -0.470567
vn -0.614285 -0.633420 -0.470567
vn -0.614285 -0.633420 -0.470567
f 1/1/1 2/2/2 3/3/3
f 1/1/1 3/3/3 4/4/4
f 5/5/5 6/6/6 7/7/7
f 5/5/5 7/7/7 8/8/8
f 9/9/9 10/10/10 11/11/11
f 9/9/9 11/11/11 12/12/12
f 13/13/13 14/14/14 15/15/15
f 13/13/13 15/15/15 16/16/16
f 17/17/17 18/18/18 19/19/19
f 17/17/17 19/19/19 20/20/20
f 21/21/21 22/22/22 23/23/23
f 21/21/21 23/23/23 24/24/24
f 25/25/25 26/26/26 2/2/2
f 25/25/25 2/2/2 1/1/1
f 27/27/27 28/28/28 29/29/29
f 27/27/27 29/29/29 4/4/4
f 30/30/30 31/31/31 32/32/32
f 30/30/30 32/32/32 33/33/33
f 34/34/34 35/35/35 36/36/36
f 34/34/34 36/36/36 37/37/37
f 38/38/38 39/39/39 40/40/40
f 38/38/38 40/40/40 41/41/41
f 42/42/42 43/43/43 44/44/44
f 42/42/42 44/44/44 45/45/45
f 46/46/46 47/47/47 22/22/22
f 46/46/46 22/22/22 21/21/21
f 48/48/48 49/49/49 24/24/24
f 48/48/48 24/24/24 23/23/23
f 50/50/50 51/51/51 52/52/52
f 50/50/50 52/52/52 53/53/53
f 54/54/54 55/55/55 56/56/56
f 54/54/54 56/56/56 57/57/57
f 58/58/58 59/59/59 60/60/60
f 58/58/58 60/60/60 61/61/61
f 62/62/62 63/63/63 64/64/64
f 62/62/62 64/64/64 65/65/65
f 66/66/66 67/67/67 68/68/68
f 66/66/66 68/68/68 69/69/69
f 70/70/70 71/71/71 72/72/72
f 70/70/70 72/72/72 73/73/73
f 74/74/74 75/75/75 76/76/76
f 74/74/74 76/76/76 77/77/77
f 78/78/78 79/79/79 80/80/80
f 78/78/78 80/80/80 81/81/81
f 82/82/82 83/83/83 84/84/84
f 82/82/82 84/84/84 85/85/85
f 86/86/86 87/87/87 88/88/88
f 86/86/86 88/88/88 89/89/89
f 90/90/90 91/91/91 92/92/92
f 90/90/90 92/92/92 93/93/93
f 94/94/94 95/95/95 96/96/96
f 94/94/94 96/96/96 97/97/97
