v 7.892628 -3.495152 122.512794
v 7.892628 3.495222 122.512794
v 73.233414 3.495222 122.512794
v 73.233414 -3.495152 122.512794
v 7.892628 -3.495152 125.184135
v 73.233414 -3.495152 125.184120
v 73.233414 3.495222 125.184120
v 7.892628 3.495222 125.184135
v 7.892628 -3.495152 122.512794
v 73.233414 -3.495152 122.512794
v 73.233414 -3.495152 125.184120
v 7.892628 -3.495152 125.184135
v 73.233414 -3.495152 122.512794
v 73.233414 3.495222 122.512794
v 73.233414 3.495222 125.184120
v 73.233414 -3.495152 125.184120
v 73.233414 3.495222 122.512794
v 7.892628 3.495222 122.512794
v 7.892628 3.495222 125.184135
v 73.233414 3.495222 125.184120
v 7.892628 3.495222 122.512794
v 7.892628 -3.495152 122.512794
v 7.892628 -3.495152 125.184135
v 7.892628 3.495222 125.184135
vt 0.065377 0.053069
vt 0.161031 0.053069
vt 0.161031 0.947174
vt 0.065377 0.947174
vt 0.293240 0.053069
vt 0.293240 0.947174
vt 0.197585 0.947174
vt 0.197585 0.053069
vt 0.065377 0.053069
vt 0.065377 0.947174
vt 0.028823 0.947174
vt 0.028823 0.053069
vt 0.065377 0.947174
vt 0.161031 0.947174
vt 0.161031 0.983728
vt 0.065377 0.983728
vt 0.161031 0.947174
vt 0.161031 0.053069
vt 0.197585 0.053069
vt 0.197585 0.947174
vt 0.161031 0.053069
vt 0.065377 0.053069
vt 0.065377 0.016515
vt 0.161031 0.016515
vn 0.000000 0.000000 -1.000000
vn 0.000000 0.000000 -1.000000
vn 0.000000 0.000000 -1.000000
vn 0.000000 0.000000 -1.000000
vn 0.000000 0.000000 1.000000
vn 0.000000 0.000000 1.000000
vn 0.000000 0.000000 1.000000
vn 0.000000 0.000000 1.000000
vn 0.000000 -1.000000 0.000000
vn 0.000000 -1.000000 0.000000
vn 0.000000 -1.000000 0.000000
vn 0.000000 -1.000000 0.000000
vn 1.000000 0.000000 0.000000
vn 1.000000 0.000000 0.000000
vn 1.000000 0.000000 0.000000
vn 1.000000 0.000000 0.000000
vn -0.000000 1.000000 -0.000000
vn -0.000000 1.000000 -0.000000
vn -0.000000 1.000000 -0.000000
vn -0.000000 1.000000 -0.000000
vn -1.000000 0.000000 0.000000
vn -1.000000 0.000000 0.000000
vn -1.000000 0.000000 0.000000
vn -1.000000 0.000000 0.000000
f 1/1/1 2/2/2 3/3/3
f 1/1/1 3/3/3 4/4/4
f 5/5/5 6/6/6 7/7/7
f 5/5/5 7/7/7 8/8/8
f 9/9/9 10/10/10 11/11/11
f 9/9/9 11/11/11 12/12/12
f 13/13/13 14/14/14 15/15/15
f 13/13/13 15/15/15 16/16/16
f 17/17/17 18/18/18 19/19/19
f 17/17/17 19/19/19 20/20/20
f 21/21/21 22/22/22 23/23/23
f 21/21/21 23/23/23 24/24/24
