v -15.000000 -3.375000 0.000000
v -15.000000 -6.750001 0.000000
v -7.500000 -3.375000 0.000000
v -7.500000 -6.750001 0.000000
v 0.000000 -3.375000 0.000000
v 0.000000 -6.750001 0.000000
v 7.500000 -3.375000 0.000000
v 7.500000 -6.750001 0.000000
v 15.000000 -3.375000 0.000000
v 15.000000 -6.750001 0.000000
v -15.000000 0.000000 0.000000
v -7.500000 0.000000 0.000000
v 0.000000 0.000000 0.000000
v 7.500000 0.000000 0.000000
v 15.000000 0.000000 0.000000
v -15.000000 3.375000 0.000000
v -7.500000 3.375000 0.000000
v 0.000000 3.375000 0.000000
v 7.500000 3.375000 0.000000
v 15.000000 3.375000 0.000000
v -15.000000 6.750001 0.000000
v -7.500000 6.750001 0.000000
v 0.000000 6.750001 0.000000
v 7.500000 6.750001 0.000000
v 15.000000 6.750001 0.000000
vt 1.001116 0.352634
vt 1.001116 0.465021
vt 0.751366 0.352634
vt 0.751366 0.465021
vt 0.501616 0.352634
vt 0.501616 0.465021
vt 0.251866 0.352634
vt 0.251866 0.465021
vt 0.002116 0.352634
vt 0.002116 0.465021
vt 1.001116 0.240246
vt 0.751366 0.240246
vt 0.501616 0.240246
vt 0.251866 0.240246
vt 0.002116 0.240246
vt 1.001116 0.127859
vt 0.751366 0.127859
vt 0.501616 0.127859
vt 0.251866 0.127859
vt 0.002116 0.127859
vt 1.001116 0.015471
vt 0.751366 0.015471
vt 0.501616 0.015471
vt 0.251866 0.015471
vt 0.002116 0.015471
vn 0.000000 0.000000 1.000000
vn 0.000000 0.000000 1.000000
vn 0.000000 0.000000 1.000000
vn 0.000000 0.000000 1.000000
vn 0.000000 0.000000 1.000000
vn 0.000000 0.000000 1.000000
vn 0.000000 0.000000 1.000000
vn 0.000000 0.000000 1.000000
vn 0.000000 0.000000 1.000000
vn 0.000000 0.000000 1.000000
vn 0.000000 0.000000 1.000000
vn 0.000000 0.000000 1.000000
vn 0.000000 0.000000 1.000000
vn 0.000000 0.000000 1.000000
vn 0.000000 0.000000 1.000000
vn 0.000000 0.000000 1.000000
vn 0.000000 0.000000 1.000000
vn 0.000000 0.000000 1.000000
vn 0.000000 0.000000 1.000000
vn 0.000000 0.000000 1.000000
vn 0.000000 0.000000 1.000000
vn 0.000000 0.000000 1.000000
vn 0.000000 0.000000 1.000000
vn 0.000000 0.000000 1.000000
vn 0.000000 0.000000 1.000000
f 1/1/1 2/2/2 3/3/3
f 4/4/4 3/3/3 2/2/2
f 3/3/3 4/4/4 5/5/5
f 6/6/6 5/5/5 4/4/4
f 5/5/5 6/6/6 7/7/7
f 8/8/8 7/7/7 6/6/6
f 7/7/7 8/8/8 9/9/9
f 10/10/10 9/9/9 8/8/8
f 11/11/11 1/1/1 12/12/12
f 3/3/3 12/12/12 1/1/1
f 12/12/12 3/3/3 13/13/13
f 5/5/5 13/13/13 3/3/3
f 13/13/13 5/5/5 14/14/14
f 7/7/7 14/14/14 5/5/5
f 14/14/14 7/7/7 15/15/15
f 9/9/9 15/15/15 7/7/7
f 16/16/16 11/11/11 17/17/17
f 12/12/12 17/17/17 11/11/11
f 17/17/17 12/12/12 18/18/18
f 13/13/13 18/18/18 12/12/12
f 18/18/18 13/13/13 19/19/19
f 14/14/14 19/19/19 13/13/13
f 19/19/19 14/14/14 20/20/20
f 15/15/15 20/20/20 14/14/14
f 21/21/21 16/16/16 22/22/22
f 17/17/17 22/22/22 16/16/16
f 22/22/22 17/17/17 23/23/23
f 18/18/18 23/23/23 17/17/17
f 23/23/23 18/18/18 24/24/24
f 19/19/19 24/24/24 18/18/18
f 24/24/24 19/19/19 25/25/25
f 20/20/20 25/25/25 19/19/19
