v -15.808175 -0.546403 0.063962
v -16.994799 -3.706105 0.073094
v -8.046775 -2.660122 0.017463
v -8.658359 -5.979440 0.020979
v -0.005800 -3.375059 0.000021
v -0.023201 -6.750212 0.000083
v 8.063685 -2.658822 0.013283
v 8.641022 -5.984282 0.012162
v 15.907945 -0.523867 0.057944
v 17.061970 -3.695661 0.057946
v -14.632463 2.617233 0.054956
v -7.446628 0.661146 0.014032
v -0.000000 -0.000000 0.000000
v 7.474946 0.664502 0.014402
v 14.743071 2.643815 0.057895
v -13.467676 5.784775 0.046076
v -6.857922 3.984335 0.010686
v -0.005801 3.374934 0.000021
v 6.874808 3.985659 0.015516
v 13.567359 5.807355 0.057797
v -12.313822 8.956196 0.037320
v -6.280662 7.309415 0.007424
v -0.023202 6.749712 0.000082
v 6.263279 7.304619 0.016627
v 12.380821 8.966727 0.057651
vt 1.001116 0.352634
vt 1.001116 0.465021
vt 0.751366 0.352634
vt 0.751366 0.465021
vt 0.501616 0.352634
vt 0.501616 0.465021
vt 0.251866 0.352634
vt 0.251866 0.465021
vt 0.002116 0.352634
vt 0.002116 0.465021
vt 1.001116 0.240246
vt 0.751366 0.240246
vt 0.501616 0.240246
vt 0.251866 0.240246
vt 0.002116 0.240246
vt 1.001116 0.127859
vt 0.751366 0.127859
vt 0.501616 0.127859
vt 0.251866 0.127859
vt 0.002116 0.127859
vt 1.001116 0.015471
vt 0.751366 0.015471
vt 0.501616 0.015471
vt 0.251866 0.015471
vt 0.002116 0.015471
vn 0.006034 0.000527 0.999982
vn 0.006169 0.000408 0.999981
vn 0.004109 0.000295 0.999992
vn 0.004258 0.000197 0.999991
vn 0.000270 0.000010 1.000000
vn 0.000432 -0.000060 1.000000
vn -0.003460 -0.000945 0.999994
vn -0.003288 -0.000985 0.999994
vn -0.005106 -0.001777 0.999985
vn -0.004948 -0.001800 0.999986
vn 0.005746 0.000602 0.999983
vn 0.003828 0.000333 0.999993
vn -0.000013 -0.000002 1.000000
vn -0.003734 -0.001006 0.999993
vn -0.005360 -0.001866 0.999984
vn 0.005413 0.000688 0.999985
vn 0.003503 0.000377 0.999994
vn -0.000338 -0.000016 1.000000
vn -0.004050 -0.001077 0.999991
vn -0.005652 -0.001967 0.999982
vn 0.005193 0.000871 0.999986
vn 0.003287 0.000524 0.999995
vn -0.000574 0.000090 1.000000
vn -0.004299 -0.001015 0.999990
vn -0.005900 -0.001937 0.999981
f 1/1/1 2/2/2 3/3/3
f 4/4/4 3/3/3 2/2/2
f 3/3/3 4/4/4 5/5/5
f 6/6/6 5/5/5 4/4/4
f 5/5/5 6/6/6 7/7/7
f 8/8/8 7/7/7 6/6/6
f 7/7/7 8/8/8 9/9/9
f 10/10/10 9/9/9 8/8/8
f 11/11/11 1/1/1 12/12/12
f 3/3/3 12/12/12 1/1/1
f 12/12/12 3/3/3 13/13/13
f 5/5/5 13/13/13 3/3/3
f 13/13/13 5/5/5 14/14/14
f 7/7/7 14/14/14 5/5/5
f 14/14/14 7/7/7 15/15/15
f 9/9/9 15/15/15 7/7/7
f 16/16/16 11/11/11 17/17/17
f 12/12/12 17/17/17 11/11/11
f 17/17/17 12/12/12 18/18/18
f 13/13/13 18/18/18 12/12/12
f 18/18/18 13/13/13 19/19/19
f 14/14/14 19/19/19 13/13/13
f 19/19/19 14/14/14 20/20/20
f 15/15/15 20/20/20 14/14/14
f 21/21/21 16/16/16 22/22/22
f 17/17/17 22/22/22 16/16/16
f 22/22/22 17/17/17 23/23/23
f 18/18/18 23/23/23 17/17/17
f 23/23/23 18/18/18 24/24/24
f 19/19/19 24/24/24 18/18/18
f 24/24/24 19/19/19 25/25/25
f 20/20/20 25/25/25 19/19/19
