v -0.000001 19.456581 0.000000
v -0.000001 18.626608 2.554394
v 13.171000 13.171000 2.554394
v 13.757880 13.757880 0.000000
v -0.000001 18.626608 2.554394
v -0.000001 16.453711 4.133096
v 11.634530 11.634530 4.133096
v 13.171000 13.171000 2.554394
v -0.000001 13.767860 4.133096
v 9.735348 9.735348 4.133096
v -0.000001 11.594963 2.554394
v 8.198877 8.198877 2.554394
v -0.000001 11.594963 2.554394
v -0.000000 10.764991 -0.000000
v 7.611998 7.611998 -0.000000
v 8.198877 8.198877 2.554394
v -0.000001 11.594964 -2.554394
v 8.198877 8.198877 -2.554394
v -0.000001 11.594964 -2.554394
v -0.000001 13.767860 -4.133096
v 9.735348 9.735348 -4.133096
v 8.198877 8.198877 -2.554394
v -0.000001 16.453711 -4.133096
v 11.634530 11.634530 -4.133096
v -0.000001 18.626608 -2.554393
v 13.171000 13.171000 -2.554393
v -0.000001 18.626608 -2.554393
v 13.171000 13.171000 -2.554393
v 13.757880 13.757880 0.000000
v 13.171000 13.171000 2.554394
v 18.626608 -0.000000 2.554394
v 19.456581 -0.000000 0.000000
v 16.453711 -0.000000 4.133096
v 18.626608 -0.000000 2.554394
v 13.767860 -0.000000 4.133096
v 11.594963 -0.000000 2.554394
v 8.198877 8.198877 2.554394
v 7.611998 7.611998 -0.000000
v 10.764991 -0.000000 -0.000000
v 11.594963 -0.000000 2.554394
v 8.198877 8.198877 -2.554394
v 11.594964 -0.000000 -2.554394
v 13.767860 -0.000000 -4.133096
v 11.594964 -0.000000 -2.554394
v 16.453711 -0.000000 -4.133096
v 18.626608 -0.000000 -2.554393
v 13.171000 13.171000 -2.554393
v 18.626608 -0.000000 -2.554393
v 13.171000 -13.171000 2.554394
v 13.757880 -13.757880 0.000000
v 11.634530 -11.634530 4.133096
v 13.171000 -13.171000 2.554394
v 9.735348 -9.735348 4.133096
v 8.198877 -8.198877 2.554394
v 7.611998 -7.611998 -0.000000
v 8.198877 -8.198877 2.554394
v 8.198877 -8.198877 -2.554394
v 9.735348 -9.735348 -4.133096
v 8.198877 -8.198877 -2.554394
v 11.634530 -11.634530 -4.133096
v 13.171000 -13.171000 -2.554393
v 13.171000 -13.171000 -2.554393
v 13.757880 -13.757880 0.000000
v 13.171000 -13.171000 2.554394
v -0.000001 -18.626608 2.554394
v -0.000001 -19.456581 0.000000
v -0.000001 -16.453711 4.133096
v -0.000001 -18.626608 2.554394
v -0.000001 -13.767860 4.133096
v -0.000001 -11.594963 2.554394
v 8.198877 -8.198877 2.554394
v 7.611998 -7.611998 -0.000000
v -0.000000 -10.764991 -0.000000
v -0.000001 -11.594963 2.554394
v 8.198877 -8.198877 -2.554394
v -0.000001 -11.594964 -2.554394
v -0.000001 -13.767860 -4.133096
v -0.000001 -11.594964 -2.554394
v -0.000001 -16.453711 -4.133096
v -0.000001 -18.626608 -2.554393
v 13.171000 -13.171000 -2.554393
v -0.000001 -18.626608 -2.554393
v -13.171000 -13.171000 2.554394
v -13.757880 -13.757880 0.000000
v -11.634530 -11.634530 4.133096
v -13.171000 -13.171000 2.554394
v -9.735348 -9.735348 4.133096
v -8.198877 -8.198877 2.554394
v -7.611998 -7.611998 -0.000000
v -8.198877 -8.198877 2.554394
v -8.198877 -8.198877 -2.554394
v -9.735348 -9.735348 -4.133096
v -8.198877 -8.198877 -2.554394
v -11.634530 -11.634530 -4.133096
v -13.171000 -13.171000 -2.554393
v -13.171000 -13.171000 -2.554393
v -13.757880 -13.757880 0.000000
v -13.171000 -13.171000 2.554394
v -18.626608 0.000002 2.554394
v -19.456581 0.000002 0.000000
v -16.453711 0.000001 4.133096
v -18.626608 0.000002 2.554394
v -13.767860 0.000001 4.133096
v -11.594963 0.000001 2.554394
v -8.198877 -8.198877 2.554394
v -7.611998 -7.611998 -0.000000
v -10.764991 0.000001 -0.000000
v -11.594963 0.000001 2.554394
v -8.198877 -8.198877 -2.554394
v -11.594964 0.000001 -2.554394
v -13.767860 0.000001 -4.133096
v -11.594964 0.000001 -2.554394
v -16.453711 0.000001 -4.133096
v -18.626608 0.000002 -2.554393
v -13.171000 -13.171000 -2.554393
v -18.626608 0.000002 -2.554393
v -13.170999 13.171002 2.554394
v -13.757878 13.757882 0.000000
v -11.634528 11.634532 4.133096
v -13.170999 13.171002 2.554394
v -9.735346 9.735349 4.133096
v -8.198875 8.198878 2.554394
v -7.611997 7.611999 -0.000000
v -8.198875 8.198878 2.554394
v -8.198876 8.198879 -2.554394
v -9.735346 9.735349 -4.133096
v -8.198876 8.198879 -2.554394
v -11.634528 11.634532 -4.133096
v -13.170999 13.171002 -2.554393
v -13.170999 13.171002 -2.554393
v -13.757878 13.757882 0.000000
v -13.170999 13.171002 2.554394
v -8.198875 8.198878 2.554394
v -7.611997 7.611999 -0.000000
v -8.198876 8.198879 -2.554394
v -13.170999 13.171002 -2.554393
v 1.080200 15.553284 -3.036695
v 1.066299 15.631157 -2.468714
v 0.140709 32.768810 -1.077551
v 0.154602 32.690937 -1.645523
v 1.066299 15.631157 -2.468714
v 1.543724 15.600929 -2.176027
v 0.618134 32.738594 -0.784855
v 0.140709 32.768810 -1.077551
v 2.035027 15.492844 -2.451281
v 1.109451 32.630501 -1.060116
v 2.035027 15.492844 -2.451281
v 2.048927 15.414963 -3.019249
v 1.123344 32.552620 -1.628088
v 1.109451 32.630501 -1.060116
v 2.048927 15.414963 -3.019249
v 1.571510 15.445179 -3.311954
v 0.645920 32.582840 -1.920790
v 1.123344 32.552620 -1.628088
v 1.080200 15.553284 -3.036695
v 0.154602 32.690937 -1.645523
v 2.777077 50.039631 -0.976234
v 2.790962 49.961758 -1.544207
v 3.254501 50.009411 -0.683540
v 2.777077 50.039631 -0.976234
v 3.745796 49.901325 -0.958803
v 3.759705 49.823444 -1.526773
v 3.745796 49.901325 -0.958803
v 3.282295 49.853668 -1.819475
v 3.759705 49.823444 -1.526773
v 2.790962 49.961758 -1.544207
v 2.637794 67.247742 -0.267452
v 2.651688 67.169868 -0.835411
v 3.115204 67.217522 0.025265
v 2.637794 67.247742 -0.267452
v 3.606522 67.109428 -0.250004
v 3.620422 67.031548 -0.817972
v 3.606522 67.109428 -0.250004
v 3.142998 67.061768 -1.110685
v 3.620422 67.031548 -0.817972
v 2.651688 67.169868 -0.835411
v 3.332924 84.404915 0.934462
v 3.346832 84.327042 0.366488
v 3.810364 84.374695 1.227160
v 3.332924 84.404915 0.934462
v 4.301666 84.266602 0.951896
v 4.315582 84.188736 0.383922
v 4.301666 84.266602 0.951896
v 3.838135 84.218948 0.091228
v 4.315582 84.188736 0.383922
v 3.346832 84.327042 0.366488
v 3.899597 101.598351 1.785258
v 3.913498 101.520485 1.217278
v 4.377022 101.568138 2.077952
v 3.899597 101.598351 1.785258
v 4.868332 101.460052 1.802692
v 4.882240 101.382172 1.234712
v 4.868332 101.460052 1.802692
v 4.404816 101.412376 0.942006
v 4.882240 101.382172 1.234712
v 3.913498 101.520485 1.217278
v 2.048927 15.414963 -3.019249
v 2.035027 15.492844 -2.451281
v 1.543724 15.600929 -2.176027
v 1.066299 15.631157 -2.468714
v 1.080200 15.553284 -3.036695
v 1.571510 15.445179 -3.311954
v 3.899597 101.598351 1.785258
v 4.377022 101.568138 2.077952
v 4.868332 101.460052 1.802692
v 4.882240 101.382172 1.234712
v 4.404816 101.412376 0.942006
v 3.913498 101.520485 1.217278
vt 0.601511 0.799644
vt 0.571894 0.799644
vt 0.571894 0.646932
vt 0.601511 0.640127
vt 0.119839 0.801857
vt 0.129277 0.778498
vt 0.275283 0.777224
vt 0.285127 0.800415
vt 0.140942 0.749624
vt 0.263115 0.748558
vt 0.150380 0.726265
vt 0.253271 0.725367
vt 0.691922 0.286467
vt 0.721539 0.286467
vt 0.721539 0.374725
vt 0.691922 0.381530
vt 0.751156 0.286467
vt 0.751156 0.381530
vt 0.251103 0.076092
vt 0.260541 0.052733
vt 0.347684 0.138368
vt 0.324493 0.148212
vt 0.272207 0.023859
vt 0.376350 0.126200
vt 0.281645 0.000500
vt 0.399541 0.116356
vt 0.631128 0.799644
vt 0.631128 0.646932
vt 0.601511 0.319534
vt 0.571894 0.312729
vt 0.571894 0.160017
vt 0.601511 0.160017
vt 0.377624 0.673080
vt 0.400984 0.682518
vt 0.348751 0.661415
vt 0.325391 0.651977
vt 0.060514 0.802247
vt 0.090131 0.809052
vt 0.090131 0.897309
vt 0.060514 0.897309
vt 0.119748 0.802247
vt 0.119748 0.897309
vt 0.348751 0.260541
vt 0.325391 0.251103
vt 0.377624 0.272207
vt 0.400984 0.281645
vt 0.631128 0.312729
vt 0.631128 0.160017
vt 0.571894 0.007305
vt 0.601511 0.000500
vt 0.376350 0.527074
vt 0.399541 0.517230
vt 0.347684 0.539242
vt 0.324493 0.549086
vt 0.090131 0.985567
vt 0.060514 0.992372
vt 0.119748 0.992372
vt 0.263115 0.347684
vt 0.253271 0.324493
vt 0.275283 0.376350
vt 0.285127 0.399541
vt 0.631128 0.007305
vt 0.661525 0.319534
vt 0.631908 0.312729
vt 0.631908 0.160017
vt 0.661525 0.160017
vt 0.272207 0.424733
vt 0.281645 0.401373
vt 0.260541 0.453606
vt 0.251103 0.476966
vt 0.691922 0.000500
vt 0.721539 0.007305
vt 0.721539 0.095563
vt 0.691922 0.095563
vt 0.751156 0.000500
vt 0.751156 0.095563
vt 0.140942 0.348751
vt 0.150380 0.325391
vt 0.129277 0.377624
vt 0.119839 0.400984
vt 0.691142 0.312729
vt 0.691142 0.160017
vt 0.631908 0.007305
vt 0.661525 0.000500
vt 0.126200 0.426007
vt 0.116356 0.402816
vt 0.138368 0.454673
vt 0.148212 0.477864
vt 0.721539 0.183820
vt 0.691922 0.190625
vt 0.751156 0.190625
vt 0.053799 0.263115
vt 0.076990 0.253271
vt 0.025133 0.275283
vt 0.001942 0.285127
vt 0.691142 0.007305
vt 0.601511 0.639347
vt 0.571894 0.632543
vt 0.571894 0.479830
vt 0.601511 0.479830
vt 0.023859 0.530150
vt 0.000500 0.520712
vt 0.052733 0.541816
vt 0.076092 0.551254
vt 0.000500 0.802247
vt 0.030117 0.809052
vt 0.030117 0.897309
vt 0.000500 0.897309
vt 0.059734 0.802247
vt 0.059734 0.897309
vt 0.052733 0.140942
vt 0.076092 0.150380
vt 0.023859 0.129277
vt 0.000500 0.119839
vt 0.631128 0.632543
vt 0.631128 0.479830
vt 0.571894 0.327118
vt 0.601511 0.320314
vt 0.025134 0.676157
vt 0.001942 0.686001
vt 0.053799 0.663989
vt 0.076990 0.654145
vt 0.030117 0.985567
vt 0.000500 0.992372
vt 0.059734 0.992372
vt 0.138368 0.053799
vt 0.148212 0.076990
vt 0.126201 0.025133
vt 0.116357 0.001942
vt 0.631128 0.327118
vt 0.601511 0.959161
vt 0.571894 0.952356
vt 0.691922 0.191405
vt 0.721539 0.198209
vt 0.751156 0.191405
vt 0.631128 0.952356
vt 0.571114 0.999500
vt 0.564564 0.998368
vt 0.555379 0.799222
vt 0.561929 0.800354
vt 0.531228 0.997793
vt 0.525683 0.997950
vt 0.543343 0.799742
vt 0.548888 0.799585
vt 0.519947 0.999004
vt 0.537606 0.800795
vt 0.450696 0.001403
vt 0.457282 0.000500
vt 0.441152 0.199204
vt 0.434566 0.200107
vt 0.490913 0.000500
vt 0.496448 0.000850
vt 0.507180 0.199554
vt 0.501644 0.199204
vt 0.502145 0.002104
vt 0.512877 0.200808
vt 0.561193 0.599055
vt 0.567743 0.600187
vt 0.519783 0.598549
vt 0.525327 0.598392
vt 0.514046 0.599602
vt 0.439977 0.399452
vt 0.433392 0.400355
vt 0.476612 0.399802
vt 0.471077 0.399452
vt 0.482309 0.401056
vt 0.559943 0.399369
vt 0.566493 0.400501
vt 0.528360 0.399206
vt 0.533904 0.399049
vt 0.522623 0.400260
vt 0.431759 0.598973
vt 0.425174 0.599876
vt 0.478227 0.599323
vt 0.472692 0.598973
vt 0.483924 0.600576
vt 0.552959 0.200074
vt 0.559509 0.201206
vt 0.527248 0.200116
vt 0.532792 0.199959
vt 0.521511 0.201169
vt 0.417823 0.797903
vt 0.411238 0.798806
vt 0.470168 0.798253
vt 0.464632 0.797903
vt 0.475864 0.799507
vt 0.550057 0.000500
vt 0.556607 0.001632
vt 0.527639 0.000657
vt 0.533183 0.000500
vt 0.521902 0.001711
vt 0.407959 0.997254
vt 0.401373 0.998157
vt 0.463597 0.997604
vt 0.458062 0.997254
vt 0.469294 0.998858
vt 0.543265 0.576399
vt 0.548888 0.579831
vt 0.548803 0.586360
vt 0.543097 0.589457
vt 0.537474 0.586025
vt 0.537558 0.579496
vt 0.548888 0.566377
vt 0.548832 0.572869
vt 0.543107 0.576009
vt 0.537437 0.572656
vt 0.537492 0.566163
vt 0.543218 0.563024
vn 0.000000 1.000000 -0.000000
vn -0.000000 0.832356 0.554241
vn 0.588565 0.588565 0.554241
vn 0.707107 0.707107 -0.000000
vn -0.000000 0.832356 0.554241
vn 0.000000 0.375217 0.926937
vn 0.265319 0.265318 0.926937
vn 0.588565 0.588565 0.554241
vn -0.000000 -0.236214 0.971701
vn -0.167028 -0.167028 0.971701
vn 0.000000 -0.779230 0.626738
vn -0.550999 -0.550999 0.626738
vn 0.000000 -0.779230 0.626738
vn 0.000000 -1.000000 -0.000000
vn -0.707107 -0.707107 -0.000000
vn -0.550999 -0.550999 0.626738
vn -0.000000 -0.779230 -0.626739
vn -0.550999 -0.550999 -0.626738
vn -0.000000 -0.779230 -0.626739
vn 0.000000 -0.236214 -0.971701
vn -0.167028 -0.167028 -0.971701
vn -0.550999 -0.550999 -0.626738
vn -0.000000 0.375217 -0.926937
vn 0.265319 0.265319 -0.926937
vn -0.000000 0.832357 -0.554241
vn 0.588565 0.588565 -0.554241
vn -0.000000 0.832357 -0.554241
vn 0.588565 0.588565 -0.554241
vn 0.707107 0.707107 -0.000000
vn 0.588565 0.588565 0.554241
vn 0.832356 0.000000 0.554241
vn 1.000000 0.000000 -0.000000
vn 0.375217 -0.000000 0.926937
vn 0.832356 0.000000 0.554241
vn -0.236214 0.000000 0.971701
vn -0.779230 -0.000000 0.626738
vn -0.550999 -0.550999 0.626738
vn -0.707107 -0.707107 -0.000000
vn -1.000000 0.000000 -0.000000
vn -0.779230 -0.000000 0.626738
vn -0.550999 -0.550999 -0.626738
vn -0.779230 0.000000 -0.626739
vn -0.236214 -0.000000 -0.971701
vn -0.779230 0.000000 -0.626739
vn 0.375217 0.000000 -0.926937
vn 0.832356 0.000000 -0.554241
vn 0.588565 0.588565 -0.554241
vn 0.832356 0.000000 -0.554241
vn 0.588565 -0.588565 0.554241
vn 0.707107 -0.707107 -0.000000
vn 0.265318 -0.265319 0.926937
vn 0.588565 -0.588565 0.554241
vn -0.167028 0.167028 0.971701
vn -0.550999 0.550999 0.626738
vn -0.707107 0.707107 -0.000000
vn -0.550999 0.550999 0.626738
vn -0.550999 0.550999 -0.626738
vn -0.167028 0.167028 -0.971701
vn -0.550999 0.550999 -0.626738
vn 0.265319 -0.265319 -0.926937
vn 0.588565 -0.588565 -0.554241
vn 0.588565 -0.588565 -0.554241
vn 0.707107 -0.707107 -0.000000
vn 0.588565 -0.588565 0.554241
vn -0.000000 -0.832356 0.554241
vn -0.000000 -1.000000 -0.000000
vn -0.000000 -0.375217 0.926937
vn -0.000000 -0.832356 0.554241
vn 0.000000 0.236214 0.971701
vn 0.000000 0.779230 0.626738
vn -0.550999 0.550999 0.626738
vn -0.707107 0.707107 -0.000000
vn 0.000000 1.000000 -0.000000
vn 0.000000 0.779230 0.626738
vn -0.550999 0.550999 -0.626738
vn 0.000000 0.779230 -0.626739
vn -0.000000 0.236214 -0.971701
vn 0.000000 0.779230 -0.626739
vn -0.000000 -0.375217 -0.926937
vn -0.000000 -0.832356 -0.554241
vn 0.588565 -0.588565 -0.554241
vn -0.000000 -0.832356 -0.554241
vn -0.588565 -0.588565 0.554241
vn -0.707107 -0.707107 -0.000000
vn -0.265319 -0.265318 0.926937
vn -0.588565 -0.588565 0.554241
vn 0.167028 0.167028 0.971701
vn 0.550999 0.550999 0.626738
vn 0.707107 0.707107 -0.000000
vn 0.550999 0.550999 0.626738
vn 0.550999 0.550999 -0.626738
vn 0.167028 0.167028 -0.971701
vn 0.550999 0.550999 -0.626738
vn -0.265319 -0.265319 -0.926937
vn -0.588565 -0.588565 -0.554241
vn -0.588565 -0.588565 -0.554241
vn -0.707107 -0.707107 -0.000000
vn -0.588565 -0.588565 0.554241
vn -0.832356 0.000000 0.554241
vn -1.000000 0.000000 -0.000000
vn -0.375217 0.000000 0.926937
vn -0.832356 0.000000 0.554241
vn 0.236214 -0.000000 0.971701
vn 0.779230 -0.000000 0.626738
vn 0.550999 0.550999 0.626738
vn 0.707107 0.707107 -0.000000
vn 1.000000 -0.000000 -0.000000
vn 0.779230 -0.000000 0.626738
vn 0.550999 0.550999 -0.626738
vn 0.779230 -0.000000 -0.626738
vn 0.236214 -0.000000 -0.971701
vn 0.779230 -0.000000 -0.626738
vn -0.375217 0.000000 -0.926937
vn -0.832356 0.000000 -0.554241
vn -0.588565 -0.588565 -0.554241
vn -0.832356 0.000000 -0.554241
vn -0.588565 0.588565 0.554241
vn -0.707107 0.707107 -0.000000
vn -0.265318 0.265319 0.926937
vn -0.588565 0.588565 0.554241
vn 0.167028 -0.167029 0.971701
vn 0.550999 -0.550999 0.626738
vn 0.707107 -0.707107 -0.000000
vn 0.550999 -0.550999 0.626738
vn 0.550999 -0.550999 -0.626738
vn 0.167029 -0.167029 -0.971701
vn 0.550999 -0.550999 -0.626738
vn -0.265319 0.265319 -0.926937
vn -0.588565 0.588565 -0.554241
vn -0.588565 0.588565 -0.554241
vn -0.707107 0.707107 -0.000000
vn -0.588565 0.588565 0.554241
vn 0.550999 -0.550999 0.626738
vn 0.707107 -0.707107 -0.000000
vn 0.550999 -0.550999 -0.626738
vn -0.588565 0.588565 -0.554241
vn -0.806540 0.004428 -0.591163
vn -0.887699 -0.084682 0.452569
vn -0.882230 0.028843 0.469935
vn -0.864227 0.057784 -0.499774
vn -0.887699 -0.084682 0.452569
vn 0.032206 -0.079140 0.996343
vn -0.058266 -0.041170 0.997452
vn -0.882230 0.028843 0.469935
vn 0.900187 0.013282 0.435302
vn 0.834310 -0.069623 0.546881
vn 0.900187 0.013282 0.435302
vn 0.859475 0.087305 -0.503666
vn 0.877128 -0.015500 -0.480007
vn 0.834310 -0.069623 0.546881
vn 0.859475 0.087305 -0.503666
vn 0.091577 0.085483 -0.992122
vn -0.006792 0.043054 -0.999050
vn 0.877128 -0.015500 -0.480007
vn -0.806540 0.004428 -0.591163
vn -0.864227 0.057784 -0.499774
vn -0.875536 0.047354 0.480827
vn -0.838491 0.076037 -0.539585
vn 0.000870 -0.022733 0.999741
vn -0.875536 0.047354 0.480827
vn 0.858244 -0.069915 0.508458
vn 0.882265 -0.056538 -0.467346
vn 0.858244 -0.069915 0.508458
vn 0.050060 0.020579 -0.998534
vn 0.882265 -0.056538 -0.467346
vn -0.838491 0.076037 -0.539585
vn -0.883275 -0.009988 0.468750
vn -0.852578 0.042824 -0.520843
vn -0.034589 -0.056680 0.997793
vn -0.883275 -0.009988 0.468750
vn 0.852470 -0.042694 0.521031
vn 0.875735 0.014353 -0.482579
vn 0.852470 -0.042694 0.521031
vn 0.018164 0.053363 -0.998410
vn 0.875735 0.014353 -0.482579
vn -0.852578 0.042824 -0.520843
vn -0.878432 0.003402 0.477855
vn -0.851430 0.061960 -0.520796
vn -0.026299 -0.057911 0.997975
vn -0.878432 0.003402 0.477855
vn 0.849075 -0.062990 0.524503
vn 0.881719 -0.004516 -0.471753
vn 0.849075 -0.062990 0.524503
vn 0.029154 0.059320 -0.997813
vn 0.881719 -0.004516 -0.471753
vn -0.851430 0.061960 -0.520796
vn -0.862122 0.003341 0.506690
vn -0.884596 0.052087 -0.463439
vn -0.062498 -0.047271 0.996925
vn -0.862122 0.003341 0.506690
vn 0.814119 -0.055436 0.578046
vn 0.894648 -0.007381 -0.446712
vn 0.814119 -0.055436 0.578046
vn -0.005755 0.049611 -0.998752
vn 0.894648 -0.007381 -0.446712
vn -0.884596 0.052087 -0.463439
vn -0.142440 -0.981091 0.131040
vn -0.142421 -0.981093 0.131044
vn -0.142439 -0.981092 0.131032
vn -0.142443 -0.981092 0.131027
vn -0.142445 -0.981091 0.131035
vn -0.142446 -0.981088 0.131058
vn 0.142434 0.981093 -0.131035
vn 0.142421 0.981094 -0.131038
vn 0.142418 0.981094 -0.131042
vn 0.142409 0.981095 -0.131039
vn 0.142431 0.981093 -0.131036
vn 0.142474 0.981090 -0.131013
f 1/1/1 2/2/2 3/3/3
f 3/3/3 4/4/4 1/1/1
f 5/5/5 6/6/6 7/7/7
f 7/7/7 8/8/8 5/5/5
f 6/6/6 9/9/9 10/10/10
f 10/10/10 7/7/7 6/6/6
f 9/9/9 11/11/11 12/12/12
f 12/12/12 10/10/10 9/9/9
f 13/13/13 14/14/14 15/15/15
f 15/15/15 16/16/16 13/13/13
f 14/14/14 17/17/17 18/18/18
f 18/18/18 15/15/15 14/14/14
f 19/19/19 20/20/20 21/21/21
f 21/21/21 22/22/22 19/19/19
f 20/20/20 23/23/23 24/24/24
f 24/24/24 21/21/21 20/20/20
f 23/23/23 25/25/25 26/26/26
f 26/26/26 24/24/24 23/23/23
f 27/27/27 1/1/1 4/4/4
f 4/4/4 28/28/28 27/27/27
f 29/29/29 30/30/30 31/31/31
f 31/31/31 32/32/32 29/29/29
f 8/8/8 7/7/7 33/33/33
f 33/33/33 34/34/34 8/8/8
f 7/7/7 10/10/10 35/35/35
f 35/35/35 33/33/33 7/7/7
f 10/10/10 12/12/12 36/36/36
f 36/36/36 35/35/35 10/10/10
f 37/37/37 38/38/38 39/39/39
f 39/39/39 40/40/40 37/37/37
f 38/38/38 41/41/41 42/42/42
f 42/42/42 39/39/39 38/38/38
f 22/22/22 21/21/21 43/43/43
f 43/43/43 44/44/44 22/22/22
f 21/21/21 24/24/24 45/45/45
f 45/45/45 43/43/43 21/21/21
f 24/24/24 26/26/26 46/46/46
f 46/46/46 45/45/45 24/24/24
f 47/47/47 29/29/29 32/32/32
f 32/32/32 48/48/48 47/47/47
f 32/32/32 31/31/31 49/49/49
f 49/49/49 50/50/50 32/32/32
f 34/34/34 33/33/33 51/51/51
f 51/51/51 52/52/52 34/34/34
f 33/33/33 35/35/35 53/53/53
f 53/53/53 51/51/51 33/33/33
f 35/35/35 36/36/36 54/54/54
f 54/54/54 53/53/53 35/35/35
f 40/40/40 39/39/39 55/55/55
f 55/55/55 56/56/56 40/40/40
f 39/39/39 42/42/42 57/57/57
f 57/57/57 55/55/55 39/39/39
f 44/44/44 43/43/43 58/58/58
f 58/58/58 59/59/59 44/44/44
f 43/43/43 45/45/45 60/60/60
f 60/60/60 58/58/58 43/43/43
f 45/45/45 46/46/46 61/61/61
f 61/61/61 60/60/60 45/45/45
f 48/48/48 32/32/32 50/50/50
f 50/50/50 62/62/62 48/48/48
f 63/63/63 64/64/64 65/65/65
f 65/65/65 66/66/66 63/63/63
f 52/52/52 51/51/51 67/67/67
f 67/67/67 68/68/68 52/52/52
f 51/51/51 53/53/53 69/69/69
f 69/69/69 67/67/67 51/51/51
f 53/53/53 54/54/54 70/70/70
f 70/70/70 69/69/69 53/53/53
f 71/71/71 72/72/72 73/73/73
f 73/73/73 74/74/74 71/71/71
f 72/72/72 75/75/75 76/76/76
f 76/76/76 73/73/73 72/72/72
f 59/59/59 58/58/58 77/77/77
f 77/77/77 78/78/78 59/59/59
f 58/58/58 60/60/60 79/79/79
f 79/79/79 77/77/77 58/58/58
f 60/60/60 61/61/61 80/80/80
f 80/80/80 79/79/79 60/60/60
f 81/81/81 63/63/63 66/66/66
f 66/66/66 82/82/82 81/81/81
f 66/66/66 65/65/65 83/83/83
f 83/83/83 84/84/84 66/66/66
f 68/68/68 67/67/67 85/85/85
f 85/85/85 86/86/86 68/68/68
f 67/67/67 69/69/69 87/87/87
f 87/87/87 85/85/85 67/67/67
f 69/69/69 70/70/70 88/88/88
f 88/88/88 87/87/87 69/69/69
f 74/74/74 73/73/73 89/89/89
f 89/89/89 90/90/90 74/74/74
f 73/73/73 76/76/76 91/91/91
f 91/91/91 89/89/89 73/73/73
f 78/78/78 77/77/77 92/92/92
f 92/92/92 93/93/93 78/78/78
f 77/77/77 79/79/79 94/94/94
f 94/94/94 92/92/92 77/77/77
f 79/79/79 80/80/80 95/95/95
f 95/95/95 94/94/94 79/79/79
f 82/82/82 66/66/66 84/84/84
f 84/84/84 96/96/96 82/82/82
f 97/97/97 98/98/98 99/99/99
f 99/99/99 100/100/100 97/97/97
f 86/86/86 85/85/85 101/101/101
f 101/101/101 102/102/102 86/86/86
f 85/85/85 87/87/87 103/103/103
f 103/103/103 101/101/101 85/85/85
f 87/87/87 88/88/88 104/104/104
f 104/104/104 103/103/103 87/87/87
f 105/105/105 106/106/106 107/107/107
f 107/107/107 108/108/108 105/105/105
f 106/106/106 109/109/109 110/110/110
f 110/110/110 107/107/107 106/106/106
f 93/93/93 92/92/92 111/111/111
f 111/111/111 112/112/112 93/93/93
f 92/92/92 94/94/94 113/113/113
f 113/113/113 111/111/111 92/92/92
f 94/94/94 95/95/95 114/114/114
f 114/114/114 113/113/113 94/94/94
f 115/115/115 97/97/97 100/100/100
f 100/100/100 116/116/116 115/115/115
f 100/100/100 99/99/99 117/117/117
f 117/117/117 118/118/118 100/100/100
f 102/102/102 101/101/101 119/119/119
f 119/119/119 120/120/120 102/102/102
f 101/101/101 103/103/103 121/121/121
f 121/121/121 119/119/119 101/101/101
f 103/103/103 104/104/104 122/122/122
f 122/122/122 121/121/121 103/103/103
f 108/108/108 107/107/107 123/123/123
f 123/123/123 124/124/124 108/108/108
f 107/107/107 110/110/110 125/125/125
f 125/125/125 123/123/123 107/107/107
f 112/112/112 111/111/111 126/126/126
f 126/126/126 127/127/127 112/112/112
f 111/111/111 113/113/113 128/128/128
f 128/128/128 126/126/126 111/111/111
f 113/113/113 114/114/114 129/129/129
f 129/129/129 128/128/128 113/113/113
f 116/116/116 100/100/100 118/118/118
f 118/118/118 130/130/130 116/116/116
f 131/131/131 132/132/132 2/2/2
f 2/2/2 1/1/1 131/131/131
f 120/120/120 119/119/119 6/6/6
f 6/6/6 5/5/5 120/120/120
f 119/119/119 121/121/121 9/9/9
f 9/9/9 6/6/6 119/119/119
f 121/121/121 122/122/122 11/11/11
f 11/11/11 9/9/9 121/121/121
f 133/133/133 134/134/134 14/14/14
f 14/14/14 13/13/13 133/133/133
f 134/134/134 135/135/135 17/17/17
f 17/17/17 14/14/14 134/134/134
f 127/127/127 126/126/126 20/20/20
f 20/20/20 19/19/19 127/127/127
f 126/126/126 128/128/128 23/23/23
f 23/23/23 20/20/20 126/126/126
f 128/128/128 129/129/129 25/25/25
f 25/25/25 23/23/23 128/128/128
f 136/136/136 131/131/131 1/1/1
f 1/1/1 27/27/27 136/136/136
f 137/137/137 138/138/138 139/139/139
f 139/139/139 140/140/140 137/137/137
f 141/141/141 142/142/142 143/143/143
f 143/143/143 144/144/144 141/141/141
f 142/142/142 145/145/145 146/146/146
f 146/146/146 143/143/143 142/142/142
f 147/147/147 148/148/148 149/149/149
f 149/149/149 150/150/150 147/147/147
f 151/151/151 152/152/152 153/153/153
f 153/153/153 154/154/154 151/151/151
f 152/152/152 155/155/155 156/156/156
f 156/156/156 153/153/153 152/152/152
f 140/140/140 139/139/139 157/157/157
f 157/157/157 158/158/158 140/140/140
f 144/144/144 143/143/143 159/159/159
f 159/159/159 160/160/160 144/144/144
f 143/143/143 146/146/146 161/161/161
f 161/161/161 159/159/159 143/143/143
f 150/150/150 149/149/149 162/162/162
f 162/162/162 163/163/163 150/150/150
f 154/154/154 153/153/153 164/164/164
f 164/164/164 165/165/165 154/154/154
f 153/153/153 156/156/156 166/166/166
f 166/166/166 164/164/164 153/153/153
f 158/158/158 157/157/157 167/167/167
f 167/167/167 168/168/168 158/158/158
f 160/160/160 159/159/159 169/169/169
f 169/169/169 170/170/170 160/160/160
f 159/159/159 161/161/161 171/171/171
f 171/171/171 169/169/169 159/159/159
f 163/163/163 162/162/162 172/172/172
f 172/172/172 173/173/173 163/163/163
f 165/165/165 164/164/164 174/174/174
f 174/174/174 175/175/175 165/165/165
f 164/164/164 166/166/166 176/176/176
f 176/176/176 174/174/174 164/164/164
f 168/168/168 167/167/167 177/177/177
f 177/177/177 178/178/178 168/168/168
f 170/170/170 169/169/169 179/179/179
f 179/179/179 180/180/180 170/170/170
f 169/169/169 171/171/171 181/181/181
f 181/181/181 179/179/179 169/169/169
f 173/173/173 172/172/172 182/182/182
f 182/182/182 183/183/183 173/173/173
f 175/175/175 174/174/174 184/184/184
f 184/184/184 185/185/185 175/175/175
f 174/174/174 176/176/176 186/186/186
f 186/186/186 184/184/184 174/174/174
f 178/178/178 177/177/177 187/187/187
f 187/187/187 188/188/188 178/178/178
f 180/180/180 179/179/179 189/189/189
f 189/189/189 190/190/190 180/180/180
f 179/179/179 181/181/181 191/191/191
f 191/191/191 189/189/189 179/179/179
f 183/183/183 182/182/182 192/192/192
f 192/192/192 193/193/193 183/183/183
f 185/185/185 184/184/184 194/194/194
f 194/194/194 195/195/195 185/185/185
f 184/184/184 186/186/186 196/196/196
f 196/196/196 194/194/194 184/184/184
f 197/197/197 198/198/198 199/199/199
f 199/199/199 200/200/200 201/201/201
f 197/197/197 199/199/199 201/201/201
f 202/202/202 197/197/197 201/201/201
f 203/203/203 204/204/204 205/205/205
f 205/205/205 206/206/206 207/207/207
f 203/203/203 205/205/205 207/207/207
f 208/208/208 203/203/203 207/207/207
