v -66.690857 0.000000 24.172228
v -44.484558 0.000000 5.244835
v -45.102959 61.904842 12.720349
v -67.304680 61.904842 23.809757
v -22.812796 0.000000 -4.234590
v -23.431198 61.904842 3.240927
v 0.618406 0.000000 -7.475517
v -0.000000 61.904842 0.000000
v 32.169834 0.000000 3.885637
v 31.551426 61.904842 11.361155
v 45.721363 0.000000 5.244833
v 45.102955 61.904842 12.720348
v 64.006371 0.000000 20.250950
v 63.387955 61.904842 27.726460
v -67.304680 -61.904842 23.809757
v -45.102959 -61.904842 12.720349
v -23.431198 -61.904842 3.240927
v -0.000000 -61.904842 0.000000
v 31.551426 -61.904842 11.361155
v 45.102955 -61.904842 12.720348
v 63.387955 -61.904842 27.726460
vt 0.964997 0.471465
vt 0.825887 0.471465
vt 0.830592 0.000500
vt 0.999500 0.000500
vt 0.661011 0.471465
vt 0.665715 0.000500
vt 0.482749 0.471465
vt 0.487453 0.000500
vt 0.304487 0.471465
vt 0.309191 0.000500
vt 0.139610 0.471465
vt 0.144315 0.000500
vt 0.000500 0.471465
vt 0.005205 0.000500
vt 0.999500 0.942430
vt 0.830592 0.942430
vt 0.665715 0.942430
vt 0.487453 0.942430
vt 0.309191 0.942430
vt 0.144315 0.942430
vt 0.005205 0.942430
vn 0.560003 0.000000 0.828490
vn 0.478898 -0.000000 0.877871
vn 0.484300 -0.073131 0.871840
vn 0.559509 -0.041987 0.827760
vn 0.267955 -0.000000 0.963432
vn 0.273274 -0.112633 0.955319
vn -0.103522 -0.000000 0.994627
vn -0.103551 -0.120262 0.987327
vn -0.222255 -0.000000 0.974989
vn -0.218131 -0.119148 0.968619
vn -0.377423 -0.000000 0.926041
vn -0.387410 -0.114338 0.914790
vn -0.634393 -0.000000 0.773011
vn -0.631265 -0.099193 0.769198
vn 0.559509 0.041987 0.827760
vn 0.484300 0.073131 0.871840
vn 0.273274 0.112633 0.955319
vn -0.103551 0.120262 0.987327
vn -0.218131 0.119148 0.968619
vn -0.387410 0.114338 0.914790
vn -0.631265 0.099193 0.769198
f 1/1/1 2/2/2 3/3/3
f 1/1/1 3/3/3 4/4/4
f 2/2/2 5/5/5 6/6/6
f 2/2/2 6/6/6 3/3/3
f 5/5/5 7/7/7 8/8/8
f 5/5/5 8/8/8 6/6/6
f 7/7/7 9/9/9 10/10/10
f 7/7/7 10/10/10 8/8/8
f 9/9/9 11/11/11 12/12/12
f 9/9/9 12/12/12 10/10/10
f 11/11/11 13/13/13 14/14/14
f 11/11/11 14/14/14 12/12/12
f 15/15/15 16/16/16 2/2/2
f 15/15/15 2/2/2 1/1/1
f 16/16/16 17/17/17 5/5/5
f 16/16/16 5/5/5 2/2/2
f 17/17/17 18/18/18 7/7/7
f 17/17/17 7/7/7 5/5/5
f 18/18/18 19/19/19 9/9/9
f 18/18/18 9/9/9 7/7/7
f 19/19/19 20/20/20 11/11/11
f 19/19/19 11/11/11 9/9/9
f 20/20/20 21/21/21 13/13/13
f 20/20/20 13/13/13 11/11/11
