v -15.258697 -1.953505 -2.351587
v -15.871102 -5.270570 -2.466823
v -7.762081 -3.016699 -0.599084
v -8.078499 -6.376750 -0.633924
v -0.003008 -3.375032 -0.000046
v -0.012033 -6.750120 -0.000191
v 7.776153 -3.017237 -0.580852
v 8.076313 -6.378946 -0.593090
v 15.331244 -1.954498 -2.330939
v 15.932714 -5.274828 -2.401678
v -14.651917 1.364592 -2.238230
v -7.451576 0.343846 -0.565249
v -0.000000 -0.000000 0.000000
v 7.470059 0.343865 -0.567806
v 14.724111 1.364695 -2.258509
v -14.050766 4.683710 -2.126740
v -7.146986 3.704877 -0.532406
v -0.003009 3.374967 -0.000041
v 7.158036 3.704354 -0.553939
v 14.111320 4.682745 -2.184376
v -13.455249 8.003841 -2.017102
v -6.848316 7.066386 -0.500542
v -0.012035 6.749861 -0.000156
v 6.840086 7.064221 -0.539239
v 13.492879 7.999644 -2.108528
vt 1.001116 0.352634
vt 1.001116 0.465021
vt 0.751366 0.352634
vt 0.751366 0.465021
vt 0.501616 0.352634
vt 0.501616 0.465021
vt 0.251866 0.352634
vt 0.251866 0.465021
vt 0.002116 0.352634
vt 0.002116 0.465021
vt 1.001116 0.240246
vt 0.751366 0.240246
vt 0.501616 0.240246
vt 0.251866 0.240246
vt 0.002116 0.240246
vt 1.001116 0.127859
vt 0.751366 0.127859
vt 0.501616 0.127859
vt 0.251866 0.127859
vt 0.002116 0.127859
vt 1.001116 0.015471
vt 0.751366 0.015471
vt 0.501616 0.015471
vt 0.251866 0.015471
vt 0.002116 0.015471
vn -0.226037 0.008372 0.974083
vn -0.226783 0.008870 0.973905
vn -0.152055 0.004074 0.988364
vn -0.152990 0.004573 0.988217
vn -0.001257 -0.000036 0.999999
vn -0.002251 0.000374 0.999997
vn 0.149308 0.009736 0.988743
vn 0.148287 0.010053 0.988893
vn 0.222565 0.019077 0.974731
vn 0.221707 0.019391 0.974921
vn -0.224743 0.008284 0.974383
vn -0.150739 0.003977 0.988566
vn 0.000077 -0.000011 1.000000
vn 0.150620 0.009882 0.988542
vn 0.223874 0.019216 0.974429
vn -0.223459 0.008199 0.974679
vn -0.149435 0.003882 0.988764
vn 0.001401 0.000015 0.999999
vn 0.151921 0.010029 0.988342
vn 0.225173 0.019355 0.974127
vn -0.222671 0.007748 0.974863
vn -0.148801 0.003458 0.988861
vn 0.002084 -0.000349 0.999998
vn 0.152632 0.009729 0.988235
vn 0.226061 0.019090 0.973926
f 1/1/1 2/2/2 3/3/3
f 4/4/4 3/3/3 2/2/2
f 3/3/3 4/4/4 5/5/5
f 6/6/6 5/5/5 4/4/4
f 5/5/5 6/6/6 7/7/7
f 8/8/8 7/7/7 6/6/6
f 7/7/7 8/8/8 9/9/9
f 10/10/10 9/9/9 8/8/8
f 11/11/11 1/1/1 12/12/12
f 3/3/3 12/12/12 1/1/1
f 12/12/12 3/3/3 13/13/13
f 5/5/5 13/13/13 3/3/3
f 13/13/13 5/5/5 14/14/14
f 7/7/7 14/14/14 5/5/5
f 14/14/14 7/7/7 15/15/15
f 9/9/9 15/15/15 7/7/7
f 16/16/16 11/11/11 17/17/17
f 12/12/12 17/17/17 11/11/11
f 17/17/17 12/12/12 18/18/18
f 13/13/13 18/18/18 12/12/12
f 18/18/18 13/13/13 19/19/19
f 14/14/14 19/19/19 13/13/13
f 19/19/19 14/14/14 20/20/20
f 15/15/15 20/20/20 14/14/14
f 21/21/21 16/16/16 22/22/22
f 17/17/17 22/22/22 16/16/16
f 22/22/22 17/17/17 23/23/23
f 18/18/18 23/23/23 17/17/17
f 23/23/23 18/18/18 24/24/24
f 19/19/19 24/24/24 18/18/18
f 24/24/24 19/19/19 25/25/25
f 20/20/20 25/25/25 19/19/19
