v 4.092611 -7.250363 77.302803
v 4.102275 -7.419628 77.287971
v 4.232533 -7.401688 77.281975
v 3.705813 -7.780214 76.699715
v 3.667089 -7.912184 76.511017
v 3.923776 -8.154862 76.651588
v 3.900848 -7.980383 76.809731
v 3.705813 -7.780214 76.699715
v 3.900848 -7.980383 76.809731
v 3.844605 -7.754456 76.974190
v 4.129250 -7.843104 77.038551
v 3.844605 -7.754456 76.974190
v 4.228819 -8.088639 76.898613
v 4.129250 -7.843104 77.038551
v 4.358380 -7.840308 77.095238
v 4.227295 -7.617451 77.198936
v 4.232533 -7.401688 77.281975
v 4.102275 -7.419628 77.287971
v 4.227295 -7.617451 77.198936
v 4.364513 -7.581529 77.205429
v 4.313186 -7.392631 77.259277
v 4.451520 -7.516957 77.195839
v 4.519743 -7.781541 77.119514
v 4.501920 -8.070588 76.979698
v 4.519743 -7.781541 77.119514
v 4.642153 -7.673545 77.102455
v 4.451520 -7.516957 77.195839
v 4.040177 -7.622931 77.166115
v 3.844605 -7.754456 76.974190
v 3.954295 -7.444441 77.260719
v 3.853634 -7.231075 77.287369
v 3.965134 -7.206306 77.318619
v 4.233237 -7.310563 77.248810
v 4.425183 -7.427538 77.150360
v 4.622263 -7.554862 77.031456
v 4.642153 -7.673545 77.102455
v 4.916254 -7.850912 76.947876
v 4.519743 -7.781541 77.119514
v 4.916254 -7.850912 76.947876
v 4.519743 -7.781541 77.119514
v 4.775700 -8.021428 76.977448
v 4.775700 -8.021428 76.977448
v 5.000131 -8.036748 76.798477
v 3.705813 -7.780214 76.699715
v 3.844605 -7.754456 76.974190
v 3.738577 -7.612053 76.926567
v 3.840960 -7.571376 77.124794
v 3.843582 -7.454807 77.214111
v 3.853634 -7.231075 77.287369
v 3.782702 -7.284147 77.240479
v 3.734357 -7.434058 77.103004
v 4.830439 -7.732725 76.878998
v 4.654288 -8.262967 76.808472
v 4.114496 -8.500708 76.246147
v 4.409959 -8.462479 76.566475
v 3.897425 -8.316906 76.517075
v 4.476611 -8.588264 76.368813
v 4.007754 -8.250265 76.009422
v 3.644784 -7.946066 76.274117
v 4.004147 -8.112824 75.948753
v 3.661475 -8.034351 76.331757
v 3.916852 -7.742837 76.227272
v 4.006751 -7.865873 76.016205
v 3.966948 -7.548795 76.630524
v 3.968011 -7.644579 76.411682
v 3.630150 -7.833099 76.467285
v 3.655748 -7.730230 76.672440
v 3.697165 -7.572362 76.915108
v 3.869266 -7.430219 76.885254
v 3.688182 -7.381490 77.089920
v 3.831559 -7.318890 77.098946
v 3.735414 -7.235950 77.233131
v 3.806157 -7.180155 77.284424
v 4.021011 -7.302040 77.118279
v 4.113415 -7.395864 76.907295
v 3.966948 -7.548795 76.630524
v 3.869266 -7.430219 76.885254
v 4.113415 -7.395864 76.907295
v 4.285315 -7.514538 76.675812
v 4.263063 -7.624457 76.468903
v 4.390851 -7.426821 76.950340
v 4.596534 -7.551755 76.759972
v 4.621867 -7.680064 76.561401
v 4.774247 -7.929393 76.141670
v 4.270528 -7.811608 76.130455
v 4.214720 -7.721035 76.285004
v 4.566939 -7.783740 76.430107
v 4.924518 -7.852085 76.658569
v 4.828469 -7.695429 76.866570
v 4.652204 -7.506854 77.010483
v 4.422543 -7.342930 77.156479
v 4.217143 -7.318235 77.133759
v 4.233237 -7.310563 77.248810
v 4.200166 -7.244706 77.245689
v 4.425183 -7.427538 77.150360
v 4.622263 -7.554862 77.031456
v 4.830439 -7.732725 76.878998
v 4.092611 -7.250363 77.302803
v 4.048964 -7.184941 77.299294
v 3.965134 -7.206306 77.318619
v 3.944596 -7.156286 77.320366
v 3.853634 -7.231075 77.287369
v 4.953847 -8.195868 76.794395
v 4.705983 -8.344101 76.709755
v 4.929778 -8.261106 76.723877
v 3.667089 -7.912184 76.511017
v 3.705813 -7.780214 76.699715
v 3.738577 -7.612053 76.926567
v 3.734357 -7.434058 77.103004
v 3.782702 -7.284147 77.240479
v -0.263653 1.402464 72.122475
v -0.418470 1.159859 73.048523
v -0.030236 0.859255 73.040535
v -0.541970 0.935793 74.063156
v -0.107954 0.626155 74.055954
v 0.107874 1.136356 72.090736
v 1.045363 0.473462 72.425728
v 1.073128 0.239973 71.599968
v 1.458090 0.239197 71.631149
v 1.472115 -0.334639 71.125549
v 0.571548 0.516405 72.412590
v 1.456550 -1.160569 70.651527
v 0.989859 -0.284391 71.139191
v 0.769006 -0.994082 70.685989
v -0.828470 1.479747 72.477310
v -0.962018 1.182222 71.682831
v -0.267262 0.612028 71.624817
v -0.495065 1.073677 72.441414
v 0.058165 -0.723053 70.702187
v 0.310785 -0.141698 71.140305
v -0.352879 0.054781 71.162811
v 0.058165 -0.723053 70.702187
v -0.352879 0.054781 71.162811
v -0.669488 -0.595876 70.713173
v 3.661475 -8.034351 76.331757
v 4.007754 -8.250265 76.009422
v 3.654640 -7.973520 76.419456
v 3.901801 -8.245025 76.583496
v 3.667089 -7.912184 76.511017
v 4.129250 -7.843104 77.038551
v 4.962202 -7.919452 76.684433
v 5.038739 -8.121528 76.701836
v 4.980996 -8.008309 76.600357
v 5.069947 -8.203861 76.619698
v 5.000894 -8.090982 76.533211
v 5.152180 -8.409739 76.460587
v 5.139280 -8.299095 76.400673
v 5.037994 -8.500557 76.459084
v 4.356768 -8.298787 76.707321
v 4.387798 -8.380086 76.633492
v 3.638866 -7.886683 76.369125
v 3.654640 -7.973520 76.419456
v 3.938213 -7.689101 76.318611
v 4.253857 -7.672722 76.365074
v 4.214720 -7.721035 76.285004
v 4.214720 -7.721035 76.285004
v 4.270528 -7.811608 76.130455
v 4.597077 -7.736018 76.488419
v 5.007468 -8.147269 76.386780
v 4.924989 -7.993815 76.507561
v 4.938556 -7.922739 76.578865
v 4.924518 -7.852085 76.658569
v 4.962202 -7.919452 76.684433
v 4.980996 -8.008309 76.600357
v 5.000894 -8.090982 76.533211
v 5.139280 -8.299095 76.400673
v 4.744643 -8.424476 76.619537
v 4.968980 -8.328010 76.637024
v 4.763526 -8.574726 76.440590
v 4.476611 -8.588264 76.368813
v 4.789075 -8.631811 76.388672
v 0.365308 0.413524 74.036949
v 0.431778 0.663749 73.023735
v 0.521549 0.942296 72.099548
v 0.388661 0.382639 71.645287
v -0.023095 0.652874 72.426369
v -1.077497 0.463303 71.176216
v -1.312067 -0.413088 70.705406
v -0.669488 -0.595876 70.713173
vt -15.970300 17.582800
vt -15.971000 17.585501
vt -15.969300 17.585199
vt -15.979300 17.597700
vt -15.979200 17.603500
vt -15.974300 17.602301
vt -15.975000 17.597401
vt -15.979300 17.597700
vt -15.975000 17.597401
vt -15.975600 17.592800
vt -15.972100 17.592800
vt -15.975600 17.592800
vt -15.971200 17.597401
vt -15.972100 17.592800
vt -15.969300 17.592600
vt -15.970200 17.588699
vt -15.969300 17.585199
vt -15.971000 17.585501
vt -15.970200 17.588699
vt -15.968300 17.588200
vt -15.968100 17.585199
vt -15.966600 17.587400
vt -15.967000 17.591801
vt -15.968100 17.596701
vt -15.967000 17.591801
vt -15.964500 17.590900
vt -15.966600 17.587400
vt -15.972500 17.588900
vt -15.975600 17.592800
vt -15.972800 17.586000
vt -15.973400 17.582800
vt -15.971800 17.582100
vt -15.968000 17.583799
vt -15.965000 17.586201
vt -15.962200 17.589399
vt -15.964500 17.590900
vt -15.962400 17.594999
vt -15.967000 17.591801
vt -15.962400 17.594999
vt -15.967000 17.591801
vt -15.965300 17.596701
vt -15.965300 17.596701
vt -15.960800 17.599899
vt -15.979300 17.597700
vt -15.975600 17.592800
vt -15.978100 17.592100
vt -15.974900 17.588900
vt -15.974200 17.586500
vt -15.973400 17.582800
vt -15.974700 17.583799
vt -15.976900 17.587400
vt -15.959700 17.594299
vt -15.966600 17.601299
vt -15.971600 17.612600
vt -15.968400 17.607000
vt -15.973100 17.606501
vt -15.966800 17.613100
vt -15.873000 17.341299
vt -15.870000 17.336500
vt -15.875000 17.339399
vt -15.868300 17.336901
vt -15.874000 17.333000
vt -15.879300 17.337400
vt -15.865800 17.325701
vt -15.870100 17.329599
vt -15.866200 17.332600
vt -15.862300 17.329100
vt -15.859600 17.324699
vt -15.862800 17.322300
vt -15.858300 17.320801
vt -15.860100 17.319401
vt -15.857300 17.317400
vt -15.857400 17.315901
vt -15.861800 17.317400
vt -15.865200 17.320299
vt -15.865800 17.325701
vt -15.862800 17.322300
vt -15.865200 17.320299
vt -15.868900 17.322800
vt -15.873200 17.326700
vt -15.867300 17.317900
vt -15.871600 17.319401
vt -15.876000 17.322800
vt -15.885300 17.330099
vt -15.882700 17.334000
vt -15.877200 17.330099
vt -15.880100 17.325701
vt -15.878400 17.318899
vt -15.873900 17.315901
vt -15.869100 17.315001
vt -15.864700 17.313999
vt -15.863300 17.315901
vt -15.861800 17.313000
vt -15.861500 17.313999
vt -15.865400 17.313000
vt -15.869100 17.313999
vt -15.874100 17.315500
vt -15.859500 17.313000
vt -15.859400 17.313999
vt -15.857700 17.313999
vt -15.858200 17.314501
vt -15.856600 17.315500
vt -15.963600 17.600901
vt -15.965900 17.603500
vt -15.962800 17.603100
vt -15.864700 17.333500
vt -15.861300 17.329100
vt -15.858900 17.325199
vt -15.857400 17.321301
vt -15.856400 17.317400
vt -15.907400 17.011700
vt -15.907400 17.021000
vt -15.902400 17.021500
vt -15.907600 17.031300
vt -15.902400 17.031300
vt -15.902400 17.011700
vt -15.889600 17.050301
vt -15.894200 17.061100
vt -15.887000 17.059601
vt -15.887300 17.068399
vt -15.895300 17.051300
vt -15.886900 17.078199
vt -15.894700 17.068399
vt -15.894300 17.077200
vt -15.915200 17.050301
vt -15.917800 17.059601
vt -15.910500 17.061100
vt -15.909500 17.051300
vt -15.902400 17.076200
vt -15.902400 17.068399
vt -15.910100 17.068399
vt -15.902400 17.076200
vt -15.910100 17.068399
vt -15.910400 17.077200
vt -15.978300 17.608400
vt -15.977400 17.613600
vt -15.978900 17.606001
vt -15.973700 17.604300
vt -15.979200 17.603500
vt -15.972100 17.592800
vt -15.957900 17.599899
vt -15.960100 17.602100
vt -15.957200 17.602301
vt -15.959400 17.604500
vt -15.956400 17.604500
vt -15.958000 17.610100
vt -15.954700 17.610100
vt -15.960300 17.610901
vt -15.969800 17.602600
vt -15.969100 17.604799
vt -15.868000 17.334499
vt -15.866500 17.335501
vt -15.872100 17.331100
vt -15.875200 17.328199
vt -15.877200 17.330099
vt -15.877200 17.330099
vt -15.882700 17.334000
vt -15.878000 17.324200
vt -15.888200 17.325199
vt -15.882700 17.321800
vt -15.880600 17.320299
vt -15.878400 17.318899
vt -15.879000 17.317900
vt -15.881300 17.318899
vt -15.883500 17.319901
vt -15.889400 17.322800
vt -15.965100 17.606001
vt -15.961900 17.605301
vt -15.963700 17.611401
vt -15.966800 17.613100
vt -15.962900 17.613800
vt -15.897200 17.031300
vt -15.897300 17.021000
vt -15.897400 17.011700
vt -15.902400 17.060600
vt -15.902400 17.051300
vt -15.917400 17.068399
vt -15.917800 17.078199
vt -15.910400 17.077200
vn 0.045792 0.170365 0.958384
vn -0.387660 -0.088147 0.898537
vn 0.115072 0.059076 0.968085
vn -0.886045 -0.385871 -0.172113
vn -0.895728 -0.355943 -0.172181
vn -0.815551 -0.547809 0.066418
vn -0.792037 -0.569715 0.155519
vn -0.938395 -0.287811 -0.059688
vn -0.936397 -0.302898 -0.051904
vn -0.939910 -0.291151 -0.029402
vn -0.713988 -0.547231 0.419253
vn -0.726852 -0.538827 0.397991
vn -0.540548 -0.688623 0.469065
vn -0.610657 -0.490195 0.608270
vn -0.297818 -0.493837 0.805921
vn -0.282343 -0.429986 0.843837
vn -0.037394 -0.314378 0.930250
vn -0.038306 -0.318833 0.927999
vn -0.037302 -0.309707 0.932546
vn 0.047626 -0.267522 0.944178
vn 0.465949 0.222109 0.827977
vn 0.508515 0.138891 0.822380
vn -0.067694 -0.392098 0.903673
vn -0.222488 -0.633477 0.731472
vn 0.252149 -0.137073 0.937788
vn 0.253551 -0.139640 0.936843
vn 0.266552 -0.158895 0.928638
vn -0.586569 -0.490206 0.629779
vn -0.739920 -0.475453 0.450443
vn -0.614465 -0.191504 0.746347
vn -0.612421 0.035512 0.766081
vn -0.488569 0.039836 0.848955
vn 0.504247 0.391306 0.737773
vn 0.659164 0.330216 0.642274
vn 0.683137 0.334764 0.616905
vn 0.576427 0.141346 0.778081
vn 0.682655 0.054664 0.703110
vn 0.322046 -0.226982 0.898554
vn 0.332362 -0.131181 0.915851
vn 0.342357 -0.158030 0.904903
vn 0.325854 -0.125145 0.919665
vn 0.199274 -0.490000 0.835496
vn 0.739545 -0.080050 0.639807
vn -0.972684 -0.122292 -0.080034
vn -0.968354 -0.175478 0.030168
vn -0.976315 -0.104481 -0.043935
vn -0.915851 -0.287355 0.227526
vn -0.931581 -0.128716 0.295601
vn -0.854498 0.068078 0.483399
vn -0.931396 0.075245 0.309293
vn -0.982273 -0.031879 -0.011274
vn 0.779495 0.256072 0.535877
vn -0.103620 -0.762077 0.627994
vn -0.629955 -0.705724 -0.232985
vn -0.335593 -0.877839 0.307368
vn -0.716531 -0.656698 -0.131190
vn -0.410656 -0.886203 0.105926
vn -0.685160 -0.249454 -0.631062
vn -0.674134 0.324546 -0.625999
vn -0.590105 0.300115 -0.704462
vn -0.813605 -0.212053 -0.491228
vn -0.313051 0.769336 -0.517040
vn -0.240368 0.799678 -0.502920
vn -0.344521 0.777669 -0.494216
vn -0.305045 0.821698 -0.448930
vn -0.653992 0.500056 -0.531658
vn -0.682433 0.503821 -0.492306
vn -0.702785 0.504173 -0.462576
vn -0.407264 0.731891 -0.514195
vn -0.641134 0.572095 -0.473590
vn -0.093844 0.840147 -0.505240
vn -0.554157 0.694688 -0.419509
vn -0.066601 0.908745 -0.378001
vn 0.154022 0.892941 -0.392133
vn 0.157589 0.910727 -0.345566
vn -0.045410 0.881436 -0.437636
vn -0.044916 0.886420 -0.427718
vn -0.047565 0.881453 -0.438867
vn 0.164457 0.906921 -0.353404
vn 0.178995 0.928080 -0.278005
vn 0.432421 0.869584 -0.188006
vn 0.538253 0.822347 -0.113804
vn 0.551891 0.813020 -0.073418
vn 0.464828 0.852954 0.048060
vn 0.342176 0.908831 -0.071884
vn 0.331897 0.910198 -0.136203
vn 0.570913 0.793073 0.024955
vn 0.805722 0.527203 0.209264
vn 0.773688 0.594349 0.154672
vn 0.712976 0.652111 0.203954
vn 0.617144 0.732448 0.234077
vn 0.323618 0.892533 -0.278955
vn 0.441084 0.225406 0.838987
vn 0.519764 0.819187 0.175393
vn 0.470995 -0.038506 0.854011
vn 0.530036 -0.017280 0.820874
vn 0.706487 0.027144 0.675327
vn 0.337527 0.358554 0.840054
vn 0.386298 0.907237 -0.067258
vn -0.282723 0.326445 0.875509
vn 0.133306 0.941727 -0.268603
vn -0.768504 0.152113 0.593454
vn 0.381601 -0.520687 0.747735
vn -0.002982 -0.799968 0.585973
vn 0.426939 -0.591929 0.664070
vn -0.901309 -0.200864 -0.321778
vn -0.934145 -0.286004 -0.107005
vn -0.937343 -0.281678 0.103947
vn -0.971728 -0.113386 0.103987
vn -0.949507 -0.056163 0.254552
vn 0.573547 0.754348 0.303959
vn 0.588053 0.755486 0.270428
vn 0.498652 0.813941 0.274397
vn 0.573210 0.776817 0.236558
vn 0.483712 0.834975 0.236750
vn 0.484253 0.811912 0.310952
vn -0.126766 -0.937620 0.294902
vn -0.064484 -0.821315 0.556015
vn -0.066922 -0.827743 0.537383
vn -0.059984 -0.561022 0.820847
vn -0.198920 -0.939790 0.238167
vn -0.063854 -0.498449 0.862004
vn -0.084061 -0.574010 0.812124
vn -0.122733 -0.497090 0.856326
vn -0.699862 -0.629856 0.310685
vn -0.493686 -0.661766 0.546026
vn -0.351045 -0.741772 0.561351
vn -0.648575 -0.704859 0.250318
vn -0.150642 -0.514916 0.840890
vn -0.140567 -0.606158 0.779997
vn -0.191239 -0.557293 0.805621
vn -0.083636 -0.510384 0.853014
vn -0.070110 -0.512164 0.854211
vn -0.081597 -0.510652 0.853194
vn -0.789651 -0.404976 -0.400880
vn -0.696644 -0.490954 -0.456875
vn -0.861116 -0.346484 -0.305589
vn -0.818530 -0.544505 0.043238
vn -0.890679 -0.324332 -0.242062
vn -0.432867 -0.583124 0.674738
vn 0.856786 0.153809 0.452914
vn 0.775897 -0.157912 0.582035
vn 0.857364 0.096768 0.466911
vn 0.745522 -0.186278 0.613233
vn 0.806540 0.032726 0.551419
vn 0.620544 -0.175730 0.744599
vn 0.653548 -0.026823 0.730084
vn 0.304664 -0.615216 0.710437
vn -0.453537 -0.776154 0.419667
vn -0.389448 -0.798721 0.437987
vn -0.650770 0.444167 -0.581410
vn -0.861781 -0.150555 -0.434245
vn -0.324263 0.803216 -0.464796
vn 0.183461 0.933436 -0.249794
vn -0.007051 0.919284 -0.338907
vn -0.010532 0.905037 -0.375253
vn -0.031927 0.900466 -0.369903
vn 0.567862 0.800374 -0.039314
vn 0.757119 0.525280 0.336050
vn 0.792593 0.502984 0.276280
vn 0.822104 0.504050 0.195859
vn 0.744061 0.646774 0.064391
vn 0.856758 0.132779 0.459244
vn 0.833064 0.071723 0.512084
vn 0.812042 0.178670 0.514313
vn 0.765007 0.249981 0.560519
vn 0.078127 -0.794496 0.585959
vn 0.420006 -0.594670 0.666848
vn 0.032085 -0.823790 0.542545
vn -0.151442 -0.903777 0.354414
vn -0.034965 -0.819262 0.546322
vn 0.393809 0.880088 0.241741
vn 0.379823 0.876983 0.276508
vn 0.390694 0.861506 0.309312
vn -0.223753 -0.831868 0.494758
vn -0.445498 -0.869929 0.150855
vn -0.245097 -0.503011 0.824579
vn -0.170444 -0.469243 0.864419
vn -0.164090 -0.482528 0.857882
f 1/1/1 2/2/2 3/3/3
f 4/4/4 5/5/5 6/6/6
f 4/4/4 6/6/6 7/7/7
f 8/8/8 9/9/9 10/10/10
f 11/11/11 12/12/12 7/7/7
f 11/11/11 7/7/7 13/13/13
f 14/14/14 15/15/15 16/16/16
f 17/17/17 18/18/18 19/19/19
f 3/3/3 16/16/16 20/20/20
f 20/20/20 16/16/16 15/15/15
f 20/20/20 21/21/21 3/3/3
f 20/20/20 22/22/22 21/21/21
f 23/23/23 22/22/22 20/20/20
f 20/20/20 15/15/15 23/23/23
f 23/23/23 15/15/15 24/24/24
f 25/25/25 26/26/26 27/27/27
f 14/14/14 16/16/16 28/28/28
f 28/28/28 29/29/29 14/14/14
f 30/30/30 16/16/16 2/2/2
f 30/30/30 28/28/28 16/16/16
f 31/31/31 30/30/30 2/2/2
f 31/31/31 2/2/2 32/32/32
f 1/1/1 32/32/32 2/2/2
f 33/33/33 1/1/1 3/3/3
f 33/33/33 3/3/3 21/21/21
f 21/21/21 34/34/34 33/33/33
f 21/21/21 22/22/22 34/34/34
f 22/22/22 35/35/35 34/34/34
f 22/22/22 36/36/36 35/35/35
f 37/37/37 36/36/36 38/38/38
f 35/35/35 36/36/36 37/37/37
f 39/39/39 40/40/40 41/41/41
f 23/23/23 24/24/24 42/42/42
f 42/42/42 43/43/43 37/37/37
f 44/44/44 45/45/45 46/46/46
f 28/28/28 47/47/47 45/45/45
f 46/46/46 45/45/45 47/47/47
f 28/28/28 48/48/48 47/47/47
f 28/28/28 30/30/30 48/48/48
f 30/30/30 49/49/49 50/50/50
f 30/30/30 50/50/50 48/48/48
f 51/51/51 47/47/47 48/48/48
f 51/51/51 48/48/48 50/50/50
f 46/46/46 47/47/47 51/51/51
f 35/35/35 37/37/37 52/52/52
f 42/42/42 24/24/24 53/53/53
f 54/54/54 55/55/55 56/56/56
f 54/54/54 57/57/57 55/55/55
f 58/58/58 59/59/59 60/60/60
f 58/58/58 61/61/61 59/59/59
f 60/60/60 59/59/59 62/62/62
f 60/60/60 62/62/62 63/63/63
f 64/64/64 65/65/65 66/66/66
f 64/64/64 66/66/66 67/67/67
f 68/68/68 64/64/64 67/67/67
f 68/68/68 69/69/69 64/64/64
f 69/69/69 68/68/68 70/70/70
f 69/69/69 70/70/70 71/71/71
f 71/71/71 70/70/70 72/72/72
f 71/71/71 72/72/72 73/73/73
f 69/69/69 71/71/71 74/74/74
f 73/73/73 74/74/74 71/71/71
f 69/69/69 74/74/74 75/75/75
f 76/76/76 77/77/77 78/78/78
f 79/79/79 65/65/65 64/64/64
f 64/64/64 75/75/75 79/79/79
f 79/79/79 80/80/80 65/65/65
f 81/81/81 79/79/79 75/75/75
f 81/81/81 82/82/82 79/79/79
f 79/79/79 83/83/83 80/80/80
f 79/79/79 82/82/82 83/83/83
f 84/84/84 85/85/85 86/86/86
f 84/84/84 86/86/86 87/87/87
f 82/82/82 88/88/88 83/83/83
f 82/82/82 89/89/89 88/88/88
f 82/82/82 90/90/90 89/89/89
f 82/82/82 81/81/81 90/90/90
f 91/91/91 90/90/90 81/81/81
f 92/92/92 75/75/75 74/74/74
f 92/92/92 81/81/81 75/75/75
f 91/91/91 81/81/81 92/92/92
f 93/93/93 91/91/91 94/94/94
f 94/94/94 91/91/91 92/92/92
f 93/93/93 95/95/95 91/91/91
f 95/95/95 90/90/90 91/91/91
f 95/95/95 96/96/96 90/90/90
f 90/90/90 96/96/96 97/97/97
f 90/90/90 97/97/97 89/89/89
f 98/98/98 93/93/93 94/94/94
f 94/94/94 92/92/92 99/99/99
f 99/99/99 92/92/92 74/74/74
f 98/98/98 94/94/94 99/99/99
f 99/99/99 100/100/100 98/98/98
f 99/99/99 74/74/74 101/101/101
f 99/99/99 101/101/101 100/100/100
f 73/73/73 101/101/101 74/74/74
f 102/102/102 100/100/100 101/101/101
f 102/102/102 73/73/73 72/72/72
f 102/102/102 101/101/101 73/73/73
f 42/42/42 103/103/103 43/43/43
f 42/42/42 53/53/53 103/103/103
f 103/103/103 53/53/53 104/104/104
f 103/103/103 104/104/104 105/105/105
f 67/67/67 66/66/66 106/106/106
f 107/107/107 68/68/68 67/67/67
f 67/67/67 106/106/106 107/107/107
f 107/107/107 108/108/108 68/68/68
f 68/68/68 109/109/109 70/70/70
f 68/68/68 108/108/108 109/109/109
f 70/70/70 110/110/110 72/72/72
f 102/102/102 72/72/72 110/110/110
f 70/70/70 109/109/109 110/110/110
f 111/111/111 112/112/112 113/113/113
f 114/114/114 113/113/113 112/112/112
f 114/114/114 115/115/115 113/113/113
f 111/111/111 113/113/113 116/116/116
f 117/117/117 118/118/118 119/119/119
f 120/120/120 119/119/119 118/118/118
f 117/117/117 121/121/121 118/118/118
f 122/122/122 123/123/123 124/124/124
f 120/120/120 118/118/118 123/123/123
f 122/122/122 120/120/120 123/123/123
f 125/125/125 126/126/126 127/127/127
f 125/125/125 127/127/127 128/128/128
f 129/129/129 124/124/124 123/123/123
f 129/129/129 123/123/123 130/130/130
f 129/129/129 130/130/130 131/131/131
f 132/132/132 133/133/133 134/134/134
f 135/135/135 136/136/136 54/54/54
f 135/135/135 54/54/54 56/56/56
f 56/56/56 137/137/137 135/135/135
f 56/56/56 138/138/138 137/137/137
f 139/139/139 137/137/137 138/138/138
f 5/5/5 138/138/138 6/6/6
f 13/13/13 7/7/7 6/6/6
f 13/13/13 15/15/15 140/140/140
f 13/13/13 24/24/24 15/15/15
f 52/52/52 37/37/37 43/43/43
f 52/52/52 43/43/43 141/141/141
f 141/141/141 43/43/43 142/142/142
f 141/141/141 142/142/142 143/143/143
f 144/144/144 143/143/143 142/142/142
f 144/144/144 145/145/145 143/143/143
f 145/145/145 144/144/144 146/146/146
f 147/147/147 145/145/145 146/146/146
f 146/146/146 144/144/144 148/148/148
f 13/13/13 53/53/53 24/24/24
f 13/13/13 6/6/6 149/149/149
f 149/149/149 6/6/6 138/138/138
f 13/13/13 149/149/149 53/53/53
f 56/56/56 150/150/150 138/138/138
f 149/149/149 138/138/138 150/150/150
f 56/56/56 55/55/55 150/150/150
f 61/61/61 151/151/151 59/59/59
f 61/61/61 152/152/152 151/151/151
f 59/59/59 153/153/153 62/62/62
f 59/59/59 151/151/151 153/153/153
f 65/65/65 153/153/153 151/151/151
f 65/65/65 151/151/151 66/66/66
f 66/66/66 151/151/151 152/152/152
f 80/80/80 153/153/153 65/65/65
f 80/80/80 154/154/154 153/153/153
f 62/62/62 153/153/153 154/154/154
f 62/62/62 154/154/154 155/155/155
f 63/63/63 62/62/62 156/156/156
f 63/63/63 156/156/156 157/157/157
f 80/80/80 158/158/158 154/154/154
f 80/80/80 83/83/83 158/158/158
f 87/87/87 154/154/154 158/158/158
f 87/87/87 86/86/86 154/154/154
f 87/87/87 159/159/159 84/84/84
f 160/160/160 87/87/87 158/158/158
f 87/87/87 160/160/160 159/159/159
f 83/83/83 161/161/161 158/158/158
f 160/160/160 158/158/158 161/161/161
f 83/83/83 162/162/162 161/161/161
f 89/89/89 163/163/163 88/88/88
f 89/89/89 97/97/97 163/163/163
f 88/88/88 163/163/163 164/164/164
f 88/88/88 164/164/164 161/161/161
f 165/165/165 160/160/160 161/161/161
f 165/165/165 161/161/161 164/164/164
f 160/160/160 166/166/166 159/159/159
f 160/160/160 165/165/165 166/166/166
f 149/149/149 104/104/104 53/53/53
f 149/149/149 150/150/150 104/104/104
f 43/43/43 103/103/103 105/105/105
f 43/43/43 105/105/105 142/142/142
f 167/167/167 150/150/150 55/55/55
f 167/167/167 104/104/104 150/150/150
f 167/167/167 105/105/105 104/104/104
f 144/144/144 168/168/168 148/148/148
f 168/168/168 144/144/144 142/142/142
f 168/168/168 142/142/142 105/105/105
f 167/167/167 168/168/168 105/105/105
f 55/55/55 169/169/169 167/167/167
f 168/168/168 169/169/169 148/148/148
f 168/168/168 167/167/167 169/169/169
f 55/55/55 170/170/170 169/169/169
f 148/148/148 169/169/169 171/171/171
f 170/170/170 171/171/171 169/169/169
f 66/66/66 152/152/152 106/106/106
f 113/113/113 115/115/115 172/172/172
f 113/113/113 172/172/172 173/173/173
f 113/113/113 173/173/173 174/174/174
f 113/113/113 174/174/174 116/116/116
f 175/175/175 121/121/121 176/176/176
f 175/175/175 118/118/118 121/121/121
f 175/175/175 123/123/123 118/118/118
f 175/175/175 176/176/176 128/128/128
f 175/175/175 128/128/128 127/127/127
f 175/175/175 130/130/130 123/123/123
f 131/131/131 130/130/130 175/175/175
f 131/131/131 175/175/175 127/127/127
f 127/127/127 126/126/126 177/177/177
f 127/127/127 177/177/177 131/131/131
f 131/131/131 177/177/177 178/178/178
f 131/131/131 178/178/178 179/179/179
