v 0.213110 1.816770 0.083340
v 0.216930 1.831020 0.040470
v 0.202390 1.831360 0.068870
v 0.161760 1.862800 0.082720
v 0.217250 1.805930 0.062490
v 0.230390 1.741100 0.044590
v 0.205260 1.794090 0.082090
v 0.213110 1.816770 0.083340
v 0.179930 1.789690 0.101120
v 0.230390 1.741100 0.044590
v 0.190330 1.819490 0.088810
v 0.161760 1.862800 0.082720
v 0.197950 1.809290 0.068410
v 0.179930 1.789690 0.101120
v 0.190330 1.819490 0.088810
v 0.197950 1.809290 0.068410
v 0.230390 1.741100 0.044590
v 0.205260 1.794090 0.082090
v 0.161760 1.862800 0.082720
v 0.202390 1.831360 0.068870
v 0.197950 1.809290 0.068410
v 0.197950 1.809290 0.068410
v 0.216930 1.831020 0.040470
v 0.217250 1.805930 0.062490
v 0.197950 1.809290 0.068410
v 0.205260 1.794090 0.082090
v 0.179930 1.789690 0.101120
v 0.197950 1.809290 0.068410
v 0.202390 1.831360 0.068870
v 0.216930 1.831020 0.040470
v 0.197950 1.809290 0.068410
v 0.217250 1.805930 0.062490
v 0.230390 1.741100 0.044590
v 0.161760 1.862800 0.082720
v 0.197950 1.809290 0.068410
v 0.190330 1.819490 0.088810
vt 0.683660 0.382430
vt 0.731190 0.382430
vt 0.699080 0.399770
vt 0.683660 0.462070
vt 0.699080 0.364440
vt 0.683660 0.290580
vt 0.668890 0.366370
vt 0.683660 0.382430
vt 0.635490 0.382430
vt 0.683660 0.290580
vt 0.668890 0.401700
vt 0.683660 0.462070
vt 0.376650 0.114590
vt 0.397840 0.124870
vt 0.379860 0.125510
vt 0.376650 0.114590
vt 0.397200 0.074130
vt 0.387570 0.110740
vt 0.359950 0.149280
vt 0.367010 0.119090
vt 0.376650 0.114590
vt 0.376650 0.114590
vt 0.356090 0.104320
vt 0.374720 0.103680
vt 0.376650 0.114590
vt 0.387570 0.110740
vt 0.397840 0.124870
vt 0.376650 0.114590
vt 0.367010 0.119090
vt 0.356090 0.104320
vt 0.376650 0.114590
vt 0.374720 0.103680
vt 0.397200 0.074130
vt 0.359950 0.149280
vt 0.376650 0.114590
vt 0.379860 0.125510
vn 0.857296 0.469360 0.211529
vn 0.860903 0.454971 0.227701
vn 0.625213 0.730845 0.273816
vn 0.644422 0.722305 0.250989
vn 0.981735 0.150492 0.116402
vn 0.979831 0.169190 0.106330
vn 0.605382 -0.251565 0.755135
vn 0.453451 0.028601 0.890822
vn 0.457995 0.022130 0.888679
vn 0.602319 -0.250654 0.757881
vn 0.256023 0.295144 0.920512
vn 0.256117 0.298149 0.919517
vn -0.900799 0.145153 -0.409258
vn -0.900799 0.145153 -0.409258
vn -0.900799 0.145153 -0.409258
vn -0.902537 -0.430598 0.003660
vn -0.902537 -0.430598 0.003660
vn -0.902537 -0.430598 0.003660
vn -0.269602 0.074500 -0.960086
vn -0.269602 0.074500 -0.960086
vn -0.269602 0.074500 -0.960086
vn -0.326007 -0.626073 -0.708345
vn -0.326007 -0.626073 -0.708345
vn -0.326007 -0.626073 -0.708345
vn -0.337004 -0.714249 -0.613415
vn -0.337004 -0.714249 -0.613415
vn -0.337004 -0.714249 -0.613415
vn -0.873889 0.185284 -0.449430
vn -0.873889 0.185284 -0.449430
vn -0.873889 0.185284 -0.449430
vn -0.253126 0.209485 -0.944481
vn -0.253126 0.209485 -0.944481
vn -0.253126 0.209485 -0.944481
vn -0.832089 -0.553599 -0.034001
vn -0.832089 -0.553599 -0.034001
vn -0.832089 -0.553599 -0.034001
f 1/1/1 2/2/2 3/3/3
f 1/1/1 3/3/3 4/4/4
f 1/1/1 5/5/5 2/2/2
f 6/6/6 5/5/5 1/1/1
f 7/7/7 8/8/8 9/9/9
f 10/10/10 8/8/8 7/7/7
f 8/8/8 11/11/11 9/9/9
f 11/11/11 8/8/8 12/12/12
f 13/13/13 14/14/14 15/15/15
f 16/16/16 17/17/17 18/18/18
f 19/19/19 20/20/20 21/21/21
f 22/22/22 23/23/23 24/24/24
f 25/25/25 26/26/26 27/27/27
f 28/28/28 29/29/29 30/30/30
f 31/31/31 32/32/32 33/33/33
f 34/34/34 35/35/35 36/36/36
