v 0.901711 -0.532766 -0.004469
v 1.041210 -0.000566 -0.004269
v -0.000000 -0.000566 -0.004269
v -0.000000 1.063844 -0.003869
v -0.520603 0.921244 -0.003969
v 0.520603 -0.922366 -0.004569
v -0.000000 -1.064976 -0.004569
v 0.520603 0.921244 -0.003969
v -0.520603 -0.922366 -0.004569
v -0.901711 -0.532766 -0.004469
v 0.901711 0.531644 -0.004069
v -1.041210 -0.000566 -0.004269
v -0.901711 0.531644 -0.004069
v -2.819050 -1.664203 0.627131
v -2.359850 -1.393290 0.288231
v -2.724920 -0.000466 0.288631
v -3.255160 -0.000356 0.627631
v -1.660770 -0.980756 0.065631
v -1.917690 -0.000536 0.065931
v -2.359850 1.392354 0.289131
v -2.819050 1.663494 0.628231
v -1.660770 0.979674 0.066331
v 2.819050 1.663494 0.628231
v 2.359850 1.392354 0.289131
v 2.724920 -0.000466 0.288631
v 3.255160 -0.000356 0.627631
v 1.660770 0.979674 0.066331
v 1.917690 -0.000536 0.065931
v -1.362460 2.411974 0.289431
v -1.627580 2.881524 0.628631
v -0.958845 1.697234 0.066531
v 3.422340 -0.000226 1.035580
v 2.819050 -1.664203 0.627131
v 2.963830 -1.749534 1.035080
v -1.711170 3.029654 1.036580
v -0.000000 3.327344 0.628731
v -0.000000 3.498384 1.036780
v 1.627580 -2.882226 0.626731
v 1.711170 -3.030114 1.034580
v -0.000000 -3.328056 0.626531
v -0.000000 -3.498836 1.034480
v 1.627580 2.881524 0.628631
v 1.711170 3.029654 1.036580
v -1.627580 -2.882226 0.626731
v -1.711170 -3.030114 1.034580
v -2.963830 -1.749534 1.035080
v 2.963830 1.749074 1.036180
v -3.422340 -0.000226 1.035580
v -2.963830 1.749074 1.036180
v 2.359850 -1.393290 0.288231
v 1.660770 -0.980756 0.065631
v -0.000000 2.785184 0.289531
v -0.000000 1.959884 0.066631
v 1.362460 -2.412909 0.287831
v 0.958845 -1.698319 0.065431
v -0.000000 -2.786115 0.287731
v -0.000000 -1.960966 0.065331
v 1.362460 2.411974 0.289431
v 0.958845 1.697234 0.066531
v -1.362460 -2.412909 0.287831
v -0.958845 -1.698319 0.065431
vt 0.495738 0.427277
vt 0.495097 0.424828
vt 0.499904 0.424828
vt 0.499904 0.419930
vt 0.502284 0.420571
vt 0.497501 0.429085
vt 0.499904 0.429726
vt 0.497501 0.420571
vt 0.502284 0.429085
vt 0.504047 0.427277
vt 0.495738 0.422379
vt 0.504687 0.424828
vt 0.504047 0.422379
vt 0.513248 0.432702
vt 0.510844 0.431283
vt 0.512538 0.424828
vt 0.515330 0.424828
vt 0.507549 0.429360
vt 0.508739 0.424828
vt 0.510844 0.418374
vt 0.513248 0.416932
vt 0.507549 0.420319
vt 0.486537 0.416955
vt 0.488952 0.418374
vt 0.487258 0.424828
vt 0.484466 0.424828
vt 0.492236 0.420319
vt 0.491058 0.424828
vt 0.506221 0.413636
vt 0.507594 0.411187
vt 0.504321 0.417001
vt 0.482669 0.424828
vt 0.486537 0.432702
vt 0.484981 0.433617
vt 0.508510 0.409631
vt 0.499892 0.409081
vt 0.499892 0.407273
vt 0.492191 0.438470
vt 0.491286 0.440026
vt 0.499904 0.440575
vt 0.499904 0.442384
vt 0.492179 0.411187
vt 0.491286 0.409631
vt 0.507594 0.438470
vt 0.508510 0.440026
vt 0.514804 0.433617
vt 0.484981 0.416039
vt 0.517116 0.424828
vt 0.514804 0.416039
vt 0.488952 0.431283
vt 0.492248 0.429360
vt 0.499892 0.411919
vt 0.499904 0.415787
vt 0.493575 0.436021
vt 0.495475 0.432656
vt 0.499904 0.437737
vt 0.499904 0.433869
vt 0.493575 0.413636
vt 0.495475 0.417001
vt 0.506221 0.436021
vt 0.504321 0.432656
vn -0.034595 0.019225 0.999216
vn -0.039956 -0.000368 0.999201
vn -0.000000 -0.000335 1.000000
vn 0.000000 -0.039449 0.999222
vn 0.019971 -0.034187 0.999216
vn -0.019944 0.033561 0.999238
vn 0.000000 0.038792 0.999247
vn -0.019971 -0.034187 0.999216
vn 0.019944 0.033561 0.999238
vn 0.034595 0.019225 0.999216
vn -0.034626 -0.019891 0.999202
vn 0.039956 -0.000368 0.999201
vn 0.034626 -0.019891 0.999202
vn 0.665391 0.376316 0.644703
vn 0.352275 0.198799 0.914539
vn 0.406339 -0.000295 0.913723
vn 0.765868 -0.000197 0.642998
vn 0.150365 0.084629 0.985002
vn 0.173571 -0.000340 0.984821
vn 0.352181 -0.199334 0.914459
vn 0.665197 -0.376605 0.644733
vn 0.150343 -0.085258 0.984951
vn -0.665197 -0.376605 0.644733
vn -0.352181 -0.199334 0.914459
vn -0.406339 -0.000295 0.913723
vn -0.765868 -0.000197 0.642998
vn -0.150343 -0.085258 0.984951
vn -0.173571 -0.000340 0.984821
vn 0.203696 -0.345614 0.916002
vn 0.386392 -0.656122 0.648233
vn 0.086830 -0.147442 0.985252
vn -0.925315 -0.000108 0.379199
vn -0.665391 0.376316 0.644703
vn -0.804659 0.455480 0.380869
vn 0.468217 -0.795447 0.384755
vn 0.000000 -0.759933 0.650002
vn 0.000000 -0.922247 0.386602
vn -0.386586 0.656048 0.648192
vn -0.468391 0.795513 0.384407
vn 0.000000 0.759968 0.649960
vn 0.000000 0.922412 0.386206
vn -0.386392 -0.656122 0.648233
vn -0.468217 -0.795447 0.384755
vn 0.386586 0.656048 0.648192
vn 0.468391 0.795513 0.384407
vn 0.804659 0.455480 0.380869
vn -0.804486 -0.455606 0.381085
vn 0.925315 -0.000108 0.379199
vn 0.804486 -0.455606 0.381085
vn -0.352275 0.198799 0.914539
vn -0.150365 0.084629 0.985002
vn 0.000000 -0.399391 0.916781
vn 0.000000 -0.170240 0.985403
vn -0.203779 0.345175 0.916149
vn -0.086840 0.146854 0.985339
vn 0.000000 0.398994 0.916954
vn 0.000000 0.169642 0.985506
vn -0.203696 -0.345614 0.916002
vn -0.086830 -0.147442 0.985252
vn 0.203779 0.345175 0.916149
vn 0.086840 0.146854 0.985339
f 1/1/1 2/2/2 3/3/3
f 4/4/4 5/5/5 3/3/3
f 6/6/6 1/1/1 3/3/3
f 7/7/7 6/6/6 3/3/3
f 8/8/8 4/4/4 3/3/3
f 9/9/9 7/7/7 3/3/3
f 10/10/10 9/9/9 3/3/3
f 11/11/11 8/8/8 3/3/3
f 12/12/12 10/10/10 3/3/3
f 13/13/13 12/12/12 3/3/3
f 2/2/2 11/11/11 3/3/3
f 5/5/5 13/13/13 3/3/3
f 14/14/14 15/15/15 16/16/16
f 14/14/14 16/16/16 17/17/17
f 15/15/15 18/18/18 19/19/19
f 15/15/15 19/19/19 16/16/16
f 18/18/18 10/10/10 12/12/12
f 18/18/18 12/12/12 19/19/19
f 17/17/17 16/16/16 20/20/20
f 17/17/17 20/20/20 21/21/21
f 16/16/16 19/19/19 22/22/22
f 16/16/16 22/22/22 20/20/20
f 19/19/19 12/12/12 13/13/13
f 19/19/19 13/13/13 22/22/22
f 23/23/23 24/24/24 25/25/25
f 23/23/23 25/25/25 26/26/26
f 24/24/24 27/27/27 28/28/28
f 24/24/24 28/28/28 25/25/25
f 27/27/27 11/11/11 2/2/2
f 27/27/27 2/2/2 28/28/28
f 21/21/21 20/20/20 29/29/29
f 21/21/21 29/29/29 30/30/30
f 20/20/20 22/22/22 31/31/31
f 20/20/20 31/31/31 29/29/29
f 22/22/22 13/13/13 5/5/5
f 22/22/22 5/5/5 31/31/31
f 32/32/32 26/26/26 33/33/33
f 32/32/32 33/33/33 34/34/34
f 35/35/35 30/30/30 36/36/36
f 35/35/35 36/36/36 37/37/37
f 34/34/34 33/33/33 38/38/38
f 34/34/34 38/38/38 39/39/39
f 39/39/39 38/38/38 40/40/40
f 39/39/39 40/40/40 41/41/41
f 37/37/37 36/36/36 42/42/42
f 37/37/37 42/42/42 43/43/43
f 41/41/41 40/40/40 44/44/44
f 41/41/41 44/44/44 45/45/45
f 45/45/45 44/44/44 14/14/14
f 45/45/45 14/14/14 46/46/46
f 43/43/43 42/42/42 23/23/23
f 43/43/43 23/23/23 47/47/47
f 46/46/46 14/14/14 17/17/17
f 46/46/46 17/17/17 48/48/48
f 48/48/48 17/17/17 21/21/21
f 48/48/48 21/21/21 49/49/49
f 47/47/47 23/23/23 26/26/26
f 47/47/47 26/26/26 32/32/32
f 49/49/49 21/21/21 30/30/30
f 49/49/49 30/30/30 35/35/35
f 26/26/26 25/25/25 50/50/50
f 26/26/26 50/50/50 33/33/33
f 25/25/25 28/28/28 51/51/51
f 25/25/25 51/51/51 50/50/50
f 28/28/28 2/2/2 1/1/1
f 28/28/28 1/1/1 51/51/51
f 30/30/30 29/29/29 52/52/52
f 30/30/30 52/52/52 36/36/36
f 29/29/29 31/31/31 53/53/53
f 29/29/29 53/53/53 52/52/52
f 31/31/31 5/5/5 4/4/4
f 31/31/31 4/4/4 53/53/53
f 33/33/33 50/50/50 54/54/54
f 33/33/33 54/54/54 38/38/38
f 50/50/50 51/51/51 55/55/55
f 50/50/50 55/55/55 54/54/54
f 51/51/51 1/1/1 6/6/6
f 51/51/51 6/6/6 55/55/55
f 38/38/38 54/54/54 56/56/56
f 38/38/38 56/56/56 40/40/40
f 54/54/54 55/55/55 57/57/57
f 54/54/54 57/57/57 56/56/56
f 55/55/55 6/6/6 7/7/7
f 55/55/55 7/7/7 57/57/57
f 36/36/36 52/52/52 58/58/58
f 36/36/36 58/58/58 42/42/42
f 52/52/52 53/53/53 59/59/59
f 52/52/52 59/59/59 58/58/58
f 53/53/53 4/4/4 8/8/8
f 53/53/53 8/8/8 59/59/59
f 40/40/40 56/56/56 60/60/60
f 40/40/40 60/60/60 44/44/44
f 56/56/56 57/57/57 61/61/61
f 56/56/56 61/61/61 60/60/60
f 57/57/57 7/7/7 9/9/9
f 57/57/57 9/9/9 61/61/61
f 44/44/44 60/60/60 15/15/15
f 44/44/44 15/15/15 14/14/14
f 60/60/60 61/61/61 18/18/18
f 60/60/60 18/18/18 15/15/15
f 61/61/61 9/9/9 10/10/10
f 61/61/61 10/10/10 18/18/18
f 42/42/42 58/58/58 24/24/24
f 42/42/42 24/24/24 23/23/23
f 58/58/58 59/59/59 27/27/27
f 58/58/58 27/27/27 24/24/24
f 59/59/59 8/8/8 11/11/11
f 59/59/59 11/11/11 27/27/27
# ext.tangent -0.999401 0.000098 -0.034603 1.0
# ext.tangent -0.999201 -0.000103 -0.039956 1.0
# ext.tangent -1.000000 0.000000 0.000000 1.0
# ext.tangent -1.000000 0.000515 0.000020 1.0
# ext.tangent -0.999800 -0.000134 0.019978 1.0
# ext.tangent -0.999800 -0.001867 -0.019893 1.0
# ext.tangent -1.000000 0.000556 -0.000022 1.0
# ext.tangent -0.999801 0.000870 -0.019953 1.0
# ext.tangent -0.999801 0.000915 0.019925 1.0
# ext.tangent -0.999401 0.000129 0.034599 1.0
# ext.tangent -0.999396 -0.002379 -0.034680 1.0
# ext.tangent -0.999201 0.001070 0.039956 1.0
# ext.tangent -0.999398 0.001574 0.034664 1.0
# ext.tangent -0.729896 0.146857 0.667597 1.0
# ext.tangent -0.934861 0.028800 0.353842 1.0
# ext.tangent -0.913690 0.008262 0.406327 1.0
# ext.tangent -0.642584 0.035666 0.765385 1.0
# ext.tangent -0.988603 0.005432 0.150448 1.0
# ext.tangent -0.984821 0.000749 0.173571 1.0
# ext.tangent -0.934411 -0.019200 0.355679 1.0
# ext.tangent -0.719216 -0.091194 0.688775 1.0
# ext.tangent -0.988563 -0.001014 0.150807 1.0
# ext.tangent -0.730019 0.146705 -0.667495 1.0
# ext.tangent -0.934970 0.030645 -0.353400 1.0
# ext.tangent -0.913687 0.008940 -0.406320 1.0
# ext.tangent -0.642579 0.036352 -0.765357 1.0
# ext.tangent -0.988600 0.004692 -0.150494 1.0
# ext.tangent -0.984820 0.001549 -0.173570 1.0
# ext.tangent -0.977620 -0.021540 0.209272 1.0
# ext.tangent -0.899362 -0.112138 0.422580 1.0
# ext.tangent -0.996170 -0.002607 0.087402 1.0
# ext.tangent -0.378188 -0.072711 -0.922869 1.0
# ext.tangent -0.719354 -0.092474 -0.688460 1.0
# ext.tangent -0.527889 -0.255210 -0.810062 1.0
# ext.tangent -0.834674 -0.255252 0.488023 1.0
# ext.tangent -0.999962 0.005639 0.006593 1.0
# ext.tangent -0.996981 -0.030020 -0.071614 1.0
# ext.tangent -0.899521 -0.113134 -0.421975 1.0
# ext.tangent -0.834479 -0.255385 -0.488286 1.0
# ext.tangent -0.999964 0.005530 -0.006466 1.0
# ext.tangent -0.996982 -0.029984 0.071614 1.0
# ext.tangent -0.905239 0.135086 -0.402857 1.0
# ext.tangent -0.782892 0.171558 -0.598037 1.0
# ext.tangent -0.905222 0.135471 0.402767 1.0
# ext.tangent -0.782692 0.171761 0.598241 1.0
# ext.tangent -0.484033 0.131730 0.865077 1.0
# ext.tangent -0.484247 0.131556 -0.864984 1.0
# ext.tangent -0.378312 -0.068638 0.923130 1.0
# ext.tangent -0.526345 -0.249507 0.812839 1.0
# ext.tangent -0.934215 -0.016143 -0.356345 1.0
# ext.tangent -0.988569 -0.001760 -0.150758 1.0
# ext.tangent -0.999996 0.002512 0.001094 1.0
# ext.tangent -0.999999 0.001582 0.000273 1.0
# ext.tangent -0.977539 -0.020333 -0.209773 1.0
# ext.tangent -0.996174 -0.003086 -0.087336 1.0
# ext.tangent -0.999996 0.002468 -0.001074 1.0
# ext.tangent -0.999999 0.001566 -0.000270 1.0
# ext.tangent -0.977969 0.028189 -0.206840 1.0
# ext.tangent -0.996174 0.003051 -0.087336 1.0
# ext.tangent -0.977961 0.028312 0.206860 1.0
# ext.tangent -0.996191 0.004954 0.087059 1.0
