v -22.161850 1.017559 -5.013367
v -22.161850 1.017559 4.695734
v 22.161850 1.017558 4.695734
v 22.161850 1.017558 -5.013367
v 22.161850 -0.932570 -4.431232
v 22.161850 -1.017559 4.683786
v -22.161850 -1.017558 4.683786
v -22.161850 -0.932569 -4.431232
v -22.481449 -0.698002 4.685623
v -22.481449 0.697976 4.693800
v -22.481449 0.711340 -4.921925
v -22.481449 -0.626351 -4.522675
v 22.161850 -0.699878 5.005190
v 22.161850 0.696100 5.013367
v -22.161850 0.696100 5.013367
v -22.161850 -0.699877 5.005190
v 22.481449 -0.626351 -4.522675
v 22.481449 0.711339 -4.921925
v 22.481449 0.697975 4.693800
v 22.481449 -0.698002 4.685623
v 22.387850 0.923954 4.695156
v 22.387850 0.927858 -4.986609
v 22.161850 0.922614 4.921078
v -22.161850 0.922615 4.921078
v -22.387850 0.927859 -4.986609
v -22.387850 0.923954 4.695156
v -22.387850 -0.923980 4.684267
v -22.387850 -0.842870 -4.457991
v -22.161850 -0.925294 4.910286
v 22.161850 -0.925294 4.910286
v 22.387850 -0.842870 -4.457991
v 22.387850 -0.923981 4.684267
v 22.387850 0.696662 4.919819
v 22.387850 -0.699316 4.911642
v 22.387850 0.923954 4.695156
v 22.387850 0.927858 -4.986609
v -22.387850 -0.699315 4.911642
v -22.387850 0.696662 4.919819
v 22.353251 -0.890467 4.875905
v 22.353251 0.888217 4.886307
v -22.387850 -0.923980 4.684267
v -22.353149 -0.890467 4.875905
v -22.387850 0.923954 4.695156
v -22.353149 0.888217 4.886307
v 22.387850 -0.923981 4.684267
v -22.387850 0.927859 -4.986609
v -22.387850 -0.842870 -4.457991
v 22.387850 -0.842870 -4.457991
vt 0.724915 0.338425
vt 0.694534 0.338455
vt 0.694412 0.199661
vt 0.724792 0.199646
vt 0.658676 0.199707
vt 0.687195 0.199677
vt 0.687347 0.338470
vt 0.658829 0.338486
vt 0.688751 0.339890
vt 0.693146 0.339890
vt 0.693024 0.369980
vt 0.688843 0.368713
vt 0.688644 0.199692
vt 0.692978 0.199692
vt 0.693115 0.338440
vt 0.688782 0.338440
vt 0.688583 0.169434
vt 0.692764 0.168152
vt 0.692993 0.198242
vt 0.688614 0.198242
vt 0.694351 0.198898
vt 0.724701 0.198883
vt 0.693695 0.199661
vt 0.693817 0.338455
vt 0.724823 0.339188
vt 0.694489 0.339218
vt 0.687408 0.339233
vt 0.658752 0.339249
vt 0.688065 0.338470
vt 0.687927 0.199661
vt 0.658600 0.198944
vt 0.687256 0.198898
vt 0.693008 0.198959
vt 0.688614 0.198975
vt 0.693771 0.198303
vt 0.693512 0.167953
vt 0.688751 0.339172
vt 0.693146 0.339157
vt 0.687958 0.199005
vt 0.693649 0.199005
vt 0.687988 0.339828
vt 0.688095 0.339127
vt 0.693909 0.339828
vt 0.693787 0.339127
vt 0.687836 0.198318
vt 0.693771 0.370178
vt 0.688110 0.368484
vt 0.687851 0.169647
vn -0.191442 0.981504 0.000095
vn -0.175147 0.967981 0.179821
vn 0.175129 0.967988 0.179804
vn 0.191442 0.981504 0.000095
vn 0.191192 -0.981511 -0.009045
vn 0.174971 -0.969870 0.169519
vn -0.174989 -0.969864 0.169537
vn -0.191192 -0.981511 -0.009045
vn -0.967856 -0.179962 0.175693
vn -0.967918 0.177794 0.177549
vn -0.980040 0.198800 0.000178
vn -0.980001 -0.198986 -0.001656
vn 0.176793 -0.182541 0.967173
vn 0.176776 0.171253 0.969238
vn -0.176794 0.171270 0.969232
vn -0.176810 -0.182558 0.967166
vn 0.980001 -0.198986 -0.001656
vn 0.980040 0.198800 0.000178
vn 0.967937 0.177742 0.177496
vn 0.967875 -0.179909 0.175641
vn 0.694572 0.699019 0.170126
vn 0.701782 0.712391 0.000290
vn 0.167855 0.692939 0.701185
vn -0.167889 0.692935 0.701181
vn -0.701782 0.712391 0.000290
vn -0.694534 0.699040 0.170193
vn -0.694266 -0.701061 0.162816
vn -0.701461 -0.712680 -0.006321
vn -0.167928 -0.701120 0.692987
vn 0.167894 -0.701124 0.692991
vn 0.701461 -0.712680 -0.006321
vn 0.694304 -0.701039 0.162750
vn 0.697002 0.163887 0.698090
vn 0.697016 -0.172034 0.696113
vn 0.694572 0.699019 0.170126
vn 0.701782 0.712391 0.000290
vn -0.696978 -0.172101 0.696134
vn -0.696964 0.163954 0.698112
vn 0.577310 -0.580748 0.573973
vn 0.577262 0.573988 0.580780
vn -0.694266 -0.701061 0.162816
vn -0.577256 -0.580775 0.574000
vn -0.694534 0.699040 0.170193
vn -0.577208 0.574015 0.580808
vn 0.694304 -0.701039 0.162750
vn -0.701782 0.712391 0.000290
vn -0.701461 -0.712680 -0.006321
vn 0.701461 -0.712680 -0.006321
f 1/1/1 2/2/2 3/3/3
f 1/1/1 3/3/3 4/4/4
f 5/5/5 6/6/6 7/7/7
f 5/5/5 7/7/7 8/8/8
f 9/9/9 10/10/10 11/11/11
f 9/9/9 11/11/11 12/12/12
f 13/13/13 14/14/14 15/15/15
f 13/13/13 15/15/15 16/16/16
f 17/17/17 18/18/18 19/19/19
f 17/17/17 19/19/19 20/20/20
f 3/3/3 21/21/21 22/22/22
f 3/3/3 22/22/22 4/4/4
f 14/14/14 23/23/23 24/24/24
f 14/14/14 24/24/24 15/15/15
f 1/1/1 25/25/25 26/26/26
f 1/1/1 26/26/26 2/2/2
f 7/7/7 27/27/27 28/28/28
f 7/7/7 28/28/28 8/8/8
f 16/16/16 29/29/29 30/30/30
f 16/16/16 30/30/30 13/13/13
f 5/5/5 31/31/31 32/32/32
f 5/5/5 32/32/32 6/6/6
f 33/33/33 14/14/14 13/13/13
f 33/33/33 13/13/13 34/34/34
f 35/35/35 19/19/19 18/18/18
f 35/35/35 18/18/18 36/36/36
f 9/9/9 37/37/37 38/38/38
f 9/9/9 38/38/38 10/10/10
f 19/19/19 33/33/33 34/34/34
f 19/19/19 34/34/34 20/20/20
f 30/30/30 6/6/6 32/32/32
f 30/30/30 32/32/32 39/39/39
f 23/23/23 14/14/14 33/33/33
f 23/23/23 33/33/33 40/40/40
f 37/37/37 9/9/9 41/41/41
f 37/37/37 41/41/41 42/42/42
f 43/43/43 10/10/10 38/38/38
f 43/43/43 38/38/38 44/44/44
f 34/34/34 13/13/13 30/30/30
f 34/34/34 30/30/30 39/39/39
f 45/45/45 20/20/20 34/34/34
f 45/45/45 34/34/34 39/39/39
f 23/23/23 3/3/3 2/2/2
f 23/23/23 2/2/2 24/24/24
f 46/46/46 11/11/11 10/10/10
f 46/46/46 10/10/10 43/43/43
f 21/21/21 3/3/3 23/23/23
f 21/21/21 23/23/23 40/40/40
f 33/33/33 19/19/19 35/35/35
f 33/33/33 35/35/35 40/40/40
f 41/41/41 9/9/9 12/12/12
f 41/41/41 12/12/12 47/47/47
f 29/29/29 7/7/7 6/6/6
f 29/29/29 6/6/6 30/30/30
f 48/48/48 17/17/17 20/20/20
f 48/48/48 20/20/20 45/45/45
f 37/37/37 16/16/16 15/15/15
f 37/37/37 15/15/15 38/38/38
f 29/29/29 16/16/16 37/37/37
f 29/29/29 37/37/37 42/42/42
f 27/27/27 7/7/7 29/29/29
f 27/27/27 29/29/29 42/42/42
f 24/24/24 2/2/2 26/26/26
f 24/24/24 26/26/26 44/44/44
f 38/38/38 15/15/15 24/24/24
f 38/38/38 24/24/24 44/44/44
