v -0.450850 -0.266400 -9.526062
v -0.520600 -0.000300 -9.526464
v 0.000005 -0.000300 -9.526464
v 0.000005 0.531904 -9.527267
v 0.260307 0.460604 -9.527183
v -0.260296 -0.461200 -9.525745
v 0.000005 -0.532504 -9.525611
v -0.260296 0.460604 -9.527183
v 0.260307 -0.461200 -9.525745
v 0.450861 -0.266400 -9.526062
v -0.450850 0.265805 -9.526866
v 0.520610 -0.000300 -9.526464
v 0.450861 0.265805 -9.526866
vt 0.493561 0.454736
vt 0.492600 0.451062
vt 0.499810 0.451062
vt 0.499810 0.443715
vt 0.503380 0.444676
vt 0.496205 0.457448
vt 0.499810 0.458409
vt 0.496205 0.444676
vt 0.503380 0.457448
vt 0.506024 0.454736
vt 0.493561 0.447389
vt 0.506985 0.451062
vt 0.506024 0.447389
vn 0.000047 -0.001534 -0.999999
vn 0.000028 -0.001509 -0.999999
vn -0.000000 -0.001550 -0.999999
vn -0.000000 -0.001537 -0.999999
vn -0.000036 -0.001571 -0.999999
vn 0.000075 -0.001570 -0.999999
vn -0.000000 -0.001576 -0.999999
vn 0.000036 -0.001571 -0.999999
vn -0.000075 -0.001570 -0.999999
vn -0.000047 -0.001534 -0.999999
vn 0.000002 -0.001561 -0.999999
vn -0.000028 -0.001509 -0.999999
vn -0.000002 -0.001561 -0.999999
f 1/1/1 2/2/2 3/3/3
f 4/4/4 5/5/5 3/3/3
f 6/6/6 1/1/1 3/3/3
f 7/7/7 6/6/6 3/3/3
f 8/8/8 4/4/4 3/3/3
f 9/9/9 7/7/7 3/3/3
f 10/10/10 9/9/9 3/3/3
f 11/11/11 8/8/8 3/3/3
f 12/12/12 10/10/10 3/3/3
f 13/13/13 12/12/12 3/3/3
f 2/2/2 11/11/11 3/3/3
f 5/5/5 13/13/13 3/3/3
# ext.tangent 0.999999 0.001591 0.000044 1.0
# ext.tangent 1.000000 0.000000 0.000028 1.0
# ext.tangent 1.000000 0.000000 -0.000000 1.0
# ext.tangent 1.000000 -0.000031 0.000000 1.0
# ext.tangent 0.999999 -0.001622 -0.000034 1.0
# ext.tangent 0.999999 -0.001620 0.000077 1.0
# ext.tangent 1.000000 0.000031 -0.000000 1.0
# ext.tangent 0.999999 0.001607 0.000034 1.0
# ext.tangent 0.999999 0.001634 -0.000077 1.0
# ext.tangent 0.999999 -0.001590 -0.000044 1.0
# ext.tangent 0.999999 -0.001594 0.000005 1.0
# ext.tangent 1.000000 -0.000000 -0.000028 1.0
# ext.tangent 0.999999 0.001593 -0.000005 1.0
