v 21.940231 -2.035117 4.842603
v -22.383469 -2.035117 4.842603
v -22.383469 -1.950128 -4.272416
v 21.940231 -1.950128 -4.272416
v 22.259832 -0.306219 -4.763108
v 22.259832 -0.319583 4.852617
v 22.259832 -1.715560 4.844440
v 22.259832 -1.643909 -4.363858
v 21.940231 -0.321458 5.172184
v -22.383469 -0.321458 5.172184
v -22.383469 -1.717436 5.164007
v 21.940231 -1.717436 5.164007
v -22.703068 -0.319583 4.852617
v -22.703068 -0.306219 -4.763108
v -22.703068 -1.643909 -4.363858
v -22.703068 -1.715560 4.844440
v -22.609468 -0.089700 -4.827792
v -22.609468 -0.093604 4.853972
v -22.383469 -0.000000 4.854550
v -22.383469 0.000000 -4.854550
v 21.940231 -0.094944 5.079895
v -22.383469 -0.094944 5.079895
v 22.166231 -0.093604 4.853972
v 22.166231 -0.089700 -4.827792
v 21.940231 0.000000 -4.854550
v 21.940231 -0.000000 4.854550
v -22.609468 -0.093604 4.853972
v -22.609468 -0.089700 -4.827792
v 22.166231 -1.860428 -4.299174
v 22.166231 -1.941539 4.843084
v -22.383469 -1.942853 5.069103
v 21.940231 -1.942853 5.069103
v -22.609468 -1.941539 4.843084
v -22.609468 -1.860428 -4.299174
v 22.166231 -1.941539 4.843084
v 22.166231 -1.716874 5.070458
v 22.131531 -1.908026 5.034721
v 22.166231 -0.320896 5.078636
v 22.166231 -0.093604 4.853972
v 22.131531 -0.129341 5.045124
v -22.609468 -0.320896 5.078636
v -22.609468 -1.716874 5.070458
v -22.574869 -1.908026 5.034721
v -22.574869 -0.129341 5.045124
v 22.166231 -0.089700 -4.827792
v 22.166231 -1.860428 -4.299174
v -22.609468 -1.941539 4.843084
v -22.609468 -1.860428 -4.299174
vt 0.312675 0.338501
vt 0.312683 0.199707
vt 0.341209 0.199707
vt 0.341202 0.338501
vt 0.306946 0.370056
vt 0.306870 0.339951
vt 0.311256 0.339966
vt 0.311134 0.368774
vt 0.306900 0.338486
vt 0.306923 0.199722
vt 0.311256 0.199722
vt 0.311234 0.338486
vt 0.306900 0.198242
vt 0.307053 0.168152
vt 0.311234 0.169418
vt 0.311287 0.198242
vt 0.275208 0.198929
vt 0.305550 0.198929
vt 0.305496 0.199692
vt 0.275116 0.199692
vt 0.306175 0.338501
vt 0.306213 0.199692
vt 0.305511 0.339279
vt 0.275162 0.339249
vt 0.275070 0.338486
vt 0.305450 0.338501
vt 0.306129 0.198303
vt 0.306313 0.167953
vt 0.341278 0.339264
vt 0.312614 0.339279
vt 0.311966 0.199692
vt 0.311951 0.338516
vt 0.312630 0.198929
vt 0.341286 0.198944
vt 0.312027 0.339905
vt 0.311264 0.339218
vt 0.311920 0.339188
vt 0.306870 0.339218
vt 0.306107 0.339890
vt 0.306213 0.339172
vt 0.306892 0.198975
vt 0.311287 0.198975
vt 0.311935 0.199020
vt 0.306244 0.199020
vt 0.306206 0.370239
vt 0.311874 0.368561
vt 0.312057 0.198303
vt 0.311974 0.169632
vn 0.174989 -0.969864 0.169537
vn -0.174971 -0.969870 0.169519
vn -0.191192 -0.981511 -0.009045
vn 0.191192 -0.981511 -0.009045
vn 0.980040 0.198800 0.000178
vn 0.967918 0.177794 0.177549
vn 0.967856 -0.179962 0.175693
vn 0.980001 -0.198986 -0.001656
vn 0.176794 0.171270 0.969232
vn -0.176776 0.171253 0.969238
vn -0.176793 -0.182541 0.967173
vn 0.176810 -0.182558 0.967166
vn -0.967937 0.177742 0.177496
vn -0.980040 0.198800 0.000178
vn -0.980001 -0.198986 -0.001656
vn -0.967875 -0.179909 0.175641
vn -0.701782 0.712391 0.000290
vn -0.694572 0.699019 0.170126
vn -0.175129 0.967988 0.179804
vn -0.191442 0.981504 0.000095
vn 0.167889 0.692935 0.701181
vn -0.167855 0.692939 0.701185
vn 0.694534 0.699040 0.170193
vn 0.701782 0.712391 0.000290
vn 0.191442 0.981504 0.000095
vn 0.175147 0.967981 0.179821
vn -0.694572 0.699019 0.170126
vn -0.701782 0.712391 0.000290
vn 0.701461 -0.712680 -0.006321
vn 0.694266 -0.701061 0.162816
vn -0.167894 -0.701124 0.692991
vn 0.167928 -0.701120 0.692987
vn -0.694304 -0.701039 0.162750
vn -0.701461 -0.712680 -0.006321
vn 0.694266 -0.701061 0.162816
vn 0.696978 -0.172101 0.696134
vn 0.577256 -0.580775 0.574000
vn 0.696964 0.163954 0.698112
vn 0.694534 0.699040 0.170193
vn 0.577208 0.574015 0.580808
vn -0.697002 0.163887 0.698090
vn -0.697016 -0.172034 0.696113
vn -0.577310 -0.580748 0.573973
vn -0.577262 0.573988 0.580780
vn 0.701782 0.712391 0.000290
vn 0.701461 -0.712680 -0.006321
vn -0.694304 -0.701039 0.162750
vn -0.701461 -0.712680 -0.006321
f 1/1/1 2/2/2 3/3/3
f 1/1/1 3/3/3 4/4/4
f 5/5/5 6/6/6 7/7/7
f 5/5/5 7/7/7 8/8/8
f 9/9/9 10/10/10 11/11/11
f 9/9/9 11/11/11 12/12/12
f 13/13/13 14/14/14 15/15/15
f 13/13/13 15/15/15 16/16/16
f 17/17/17 18/18/18 19/19/19
f 17/17/17 19/19/19 20/20/20
f 21/21/21 22/22/22 10/10/10
f 21/21/21 10/10/10 9/9/9
f 23/23/23 24/24/24 25/25/25
f 23/23/23 25/25/25 26/26/26
f 14/14/14 13/13/13 27/27/27
f 14/14/14 27/27/27 28/28/28
f 29/29/29 30/30/30 1/1/1
f 29/29/29 1/1/1 4/4/4
f 31/31/31 32/32/32 12/12/12
f 31/31/31 12/12/12 11/11/11
f 33/33/33 34/34/34 3/3/3
f 33/33/33 3/3/3 2/2/2
f 35/35/35 7/7/7 36/36/36
f 35/35/35 36/36/36 37/37/37
f 38/38/38 6/6/6 39/39/39
f 38/38/38 39/39/39 40/40/40
f 11/11/11 10/10/10 41/41/41
f 11/11/11 41/41/41 42/42/42
f 38/38/38 36/36/36 7/7/7
f 38/38/38 7/7/7 6/6/6
f 42/42/42 41/41/41 13/13/13
f 42/42/42 13/13/13 16/16/16
f 33/33/33 2/2/2 31/31/31
f 33/33/33 31/31/31 43/43/43
f 41/41/41 10/10/10 22/22/22
f 41/41/41 22/22/22 44/44/44
f 26/26/26 19/19/19 22/22/22
f 26/26/26 22/22/22 21/21/21
f 6/6/6 5/5/5 45/45/45
f 6/6/6 45/45/45 39/39/39
f 8/8/8 7/7/7 35/35/35
f 8/8/8 35/35/35 46/46/46
f 31/31/31 11/11/11 42/42/42
f 31/31/31 42/42/42 43/43/43
f 42/42/42 16/16/16 47/47/47
f 42/42/42 47/47/47 43/43/43
f 22/22/22 19/19/19 18/18/18
f 22/22/22 18/18/18 44/44/44
f 27/27/27 13/13/13 41/41/41
f 27/27/27 41/41/41 44/44/44
f 2/2/2 1/1/1 32/32/32
f 2/2/2 32/32/32 31/31/31
f 16/16/16 15/15/15 48/48/48
f 16/16/16 48/48/48 47/47/47
f 9/9/9 12/12/12 36/36/36
f 9/9/9 36/36/36 38/38/38
f 36/36/36 12/12/12 32/32/32
f 36/36/36 32/32/32 37/37/37
f 32/32/32 1/1/1 30/30/30
f 32/32/32 30/30/30 37/37/37
f 23/23/23 26/26/26 21/21/21
f 23/23/23 21/21/21 40/40/40
f 21/21/21 9/9/9 38/38/38
f 21/21/21 38/38/38 40/40/40
f 19/19/19 26/26/26 25/25/25
f 19/19/19 25/25/25 20/20/20
