v -2.171775 -6.048336 1.260772
v -2.171845 -0.000058 1.260751
v -2.171769 -0.000119 -1.237235
v -2.171809 -6.048435 -1.237023
v -1.309586 -6.048364 -2.284068
v -1.309657 -0.000086 -2.284089
v 1.309576 -0.000000 -2.284104
v 1.309551 -6.048476 -2.284125
v 2.171775 -0.000114 1.260698
v 2.171845 -6.048393 1.260719
v 2.171811 -6.048491 -1.237076
v 2.171736 -0.000016 -1.237061
v 1.000172 -8.425342 1.416618
v 1.385141 -8.425417 0.919322
v 1.385084 -6.562992 0.919261
v 1.000207 -6.563148 1.416723
v 1.329125 -6.048372 2.284020
v 1.329154 -0.000093 2.284005
v -1.329152 -0.000032 2.284110
v -1.329181 -6.048311 2.284125
v 1.385108 -8.425413 -0.894132
v 1.385150 -6.562987 -0.894187
v 0.980770 -8.425506 -1.416691
v 0.980712 -6.563080 -1.416752
v 1.329154 -0.000093 2.284005
v 1.329125 -6.048372 2.284020
v -2.171775 -6.048336 1.260772
v -2.171809 -6.048435 -1.237023
v -1.770568 -6.563019 -1.035269
v -1.770542 -6.563141 1.059020
v -1.309586 -6.048364 -2.284068
v 1.309551 -6.048476 -2.284125
v 1.143432 -6.563005 -1.796876
v -1.143423 -6.563147 -1.796878
v 2.171811 -6.048491 -1.237076
v 2.171845 -6.048393 1.260719
v 1.770582 -6.563057 1.059068
v 1.770561 -6.563132 -1.035257
v 1.329125 -6.048372 2.284020
v 1.162945 -6.563035 1.796897
v -1.329181 -6.048311 2.284125
v -1.162974 -6.562994 1.796788
v 0.980712 -6.563080 -1.416752
v -0.980785 -6.563035 -1.416710
v -1.385139 -6.563105 -0.894248
v -1.385106 -6.563109 0.919207
v -1.000149 -6.563115 1.416634
v 1.000207 -6.563148 1.416723
v 1.385084 -6.562992 0.919261
v 1.385150 -6.562987 -0.894187
v -0.980728 -8.425461 -1.416649
v -0.980785 -6.563035 -1.416710
v -1.385086 -8.425334 -0.894151
v -1.385139 -6.563105 -0.894248
v -1.385052 -8.425338 0.919303
v -1.385106 -6.563109 0.919207
v -1.000196 -8.425344 1.416725
v -1.000149 -6.563115 1.416634
v 1.000172 -8.425342 1.416618
v 1.000207 -6.563148 1.416723
vt 0.390419 0.270737
vt 0.336746 0.270752
vt 0.336746 0.292908
vt 0.390419 0.292892
vt 0.390419 0.304932
vt 0.336746 0.304947
vt 0.336746 0.328186
vt 0.390419 0.328171
vt 0.336746 0.362366
vt 0.390419 0.362366
vt 0.390419 0.340195
vt 0.336746 0.340210
vt 0.046410 0.997994
vt 0.046410 0.992411
vt 0.029908 0.992411
vt 0.029908 0.997994
vt 0.390419 0.235397
vt 0.336746 0.235397
vt 0.336746 0.258987
vt 0.390419 0.258972
vt 0.046410 0.976328
vt 0.029908 0.976328
vt 0.046410 0.970461
vt 0.029908 0.970461
vt 0.336746 0.374130
vt 0.390419 0.374130
vt 0.210098 0.529495
vt 0.186897 0.529495
vt 0.189346 0.534866
vt 0.207645 0.534866
vt 0.176956 0.538025
vt 0.176956 0.562363
vt 0.182823 0.560173
vt 0.182823 0.540230
vt 0.186897 0.570892
vt 0.210098 0.570892
vt 0.207645 0.565514
vt 0.189346 0.565514
vt 0.219822 0.562531
vt 0.213951 0.560341
vt 0.219822 0.537849
vt 0.213951 0.540047
vt 0.186104 0.558784
vt 0.186104 0.541618
vt 0.190571 0.538193
vt 0.206421 0.538193
vt 0.210712 0.541435
vt 0.210712 0.558952
vt 0.206421 0.562195
vt 0.190571 0.562195
vt 0.046410 0.953062
vt 0.029908 0.953062
vt 0.046410 0.947203
vt 0.029908 0.947203
vt 0.046410 0.931108
vt 0.029908 0.931108
vt 0.046410 0.925535
vt 0.029908 0.925535
vt 0.046410 0.907784
vt 0.029908 0.907784
vn -0.881346 -0.353518 0.313456
vn -0.941271 -0.000002 0.337654
vn -0.941258 -0.000009 -0.337688
vn -0.881345 -0.353518 -0.313459
vn -0.397007 -0.389913 -0.830875
vn -0.426799 -0.000008 -0.904347
vn 0.426796 0.000003 -0.904348
vn 0.396975 -0.389941 -0.830877
vn 0.941265 0.000009 0.337670
vn 0.881338 -0.353522 0.313474
vn 0.881329 -0.353558 -0.313459
vn 0.941261 0.000009 -0.337681
vn 0.440440 -0.000004 0.897782
vn 0.946264 0.000001 0.323396
vn 0.650354 -0.726381 0.222285
vn 0.294248 -0.744060 0.599827
vn 0.397001 -0.389900 0.830884
vn 0.426817 0.000004 0.904338
vn -0.426800 0.000001 0.904346
vn -0.396997 -0.389914 0.830879
vn 0.946271 -0.000006 -0.323375
vn 0.650320 -0.726419 -0.222260
vn 0.440441 -0.000027 -0.897782
vn 0.294216 -0.744147 -0.599736
vn 0.426817 0.000004 0.904338
vn 0.397001 -0.389900 0.830884
vn -0.881346 -0.353518 0.313456
vn -0.881345 -0.353518 -0.313459
vn -0.385147 -0.912863 -0.135433
vn -0.385142 -0.912859 0.135478
vn -0.397007 -0.389913 -0.830875
vn 0.396975 -0.389941 -0.830877
vn 0.163409 -0.927408 -0.336471
vn -0.163453 -0.927397 -0.336479
vn 0.881329 -0.353558 -0.313459
vn 0.881338 -0.353522 0.313474
vn 0.385070 -0.912892 0.135459
vn 0.384997 -0.912929 -0.135419
vn 0.397001 -0.389900 0.830884
vn 0.163465 -0.927355 0.336587
vn -0.396997 -0.389914 0.830879
vn -0.163456 -0.927345 0.336620
vn 0.294216 -0.744147 -0.599736
vn -0.294232 -0.744143 -0.599732
vn -0.650390 -0.726357 -0.222258
vn -0.650414 -0.726324 0.222293
vn -0.294240 -0.744037 0.599860
vn 0.294248 -0.744060 0.599827
vn 0.650354 -0.726381 0.222285
vn 0.650320 -0.726419 -0.222260
vn -0.440443 -0.000046 -0.897780
vn -0.294232 -0.744143 -0.599732
vn -0.946267 -0.000041 -0.323388
vn -0.650390 -0.726357 -0.222258
vn -0.946273 0.000000 0.323370
vn -0.650414 -0.726324 0.222293
vn -0.440465 0.000014 0.897770
vn -0.294240 -0.744037 0.599860
vn 0.440440 -0.000004 0.897782
vn 0.294248 -0.744060 0.599827
f 1/1/1 2/2/2 3/3/3
f 1/1/1 3/3/3 4/4/4
f 5/5/5 6/6/6 7/7/7
f 5/5/5 7/7/7 8/8/8
f 9/9/9 10/10/10 11/11/11
f 9/9/9 11/11/11 12/12/12
f 13/13/13 14/14/14 15/15/15
f 13/13/13 15/15/15 16/16/16
f 17/17/17 18/18/18 19/19/19
f 17/17/17 19/19/19 20/20/20
f 14/14/14 21/21/21 22/22/22
f 14/14/14 22/22/22 15/15/15
f 21/21/21 23/23/23 24/24/24
f 21/21/21 24/24/24 22/22/22
f 4/4/4 3/3/3 6/6/6
f 4/4/4 6/6/6 5/5/5
f 8/8/8 7/7/7 12/12/12
f 8/8/8 12/12/12 11/11/11
f 20/20/20 19/19/19 2/2/2
f 20/20/20 2/2/2 1/1/1
f 10/10/10 9/9/9 25/25/25
f 10/10/10 25/25/25 26/26/26
f 27/27/27 28/28/28 29/29/29
f 27/27/27 29/29/29 30/30/30
f 31/31/31 32/32/32 33/33/33
f 31/31/31 33/33/33 34/34/34
f 35/35/35 36/36/36 37/37/37
f 35/35/35 37/37/37 38/38/38
f 32/32/32 35/35/35 38/38/38
f 32/32/32 38/38/38 33/33/33
f 36/36/36 39/39/39 40/40/40
f 36/36/36 40/40/40 37/37/37
f 39/39/39 41/41/41 42/42/42
f 39/39/39 42/42/42 40/40/40
f 41/41/41 27/27/27 30/30/30
f 41/41/41 30/30/30 42/42/42
f 28/28/28 31/31/31 34/34/34
f 28/28/28 34/34/34 29/29/29
f 43/43/43 44/44/44 34/34/34
f 43/43/43 34/34/34 33/33/33
f 44/44/44 45/45/45 29/29/29
f 44/44/44 29/29/29 34/34/34
f 45/45/45 46/46/46 30/30/30
f 45/45/45 30/30/30 29/29/29
f 46/46/46 47/47/47 42/42/42
f 46/46/46 42/42/42 30/30/30
f 47/47/47 48/48/48 40/40/40
f 47/47/47 40/40/40 42/42/42
f 48/48/48 49/49/49 37/37/37
f 48/48/48 37/37/37 40/40/40
f 49/49/49 50/50/50 38/38/38
f 49/49/49 38/38/38 37/37/37
f 50/50/50 43/43/43 33/33/33
f 50/50/50 33/33/33 38/38/38
f 23/23/23 51/51/51 52/52/52
f 23/23/23 52/52/52 24/24/24
f 51/51/51 53/53/53 54/54/54
f 51/51/51 54/54/54 52/52/52
f 53/53/53 55/55/55 56/56/56
f 53/53/53 56/56/56 54/54/54
f 55/55/55 57/57/57 58/58/58
f 55/55/55 58/58/58 56/56/56
f 57/57/57 59/59/59 60/60/60
f 57/57/57 60/60/60 58/58/58
# ext.tangent 0.332989 -0.935428 -0.118716 -1.0
# ext.tangent -0.000087 -1.000000 -0.000248 -1.0
# ext.tangent 0.000091 -1.000000 -0.000227 -1.0
# ext.tangent 0.333166 -0.935428 0.118217 -1.0
# ext.tangent 0.168360 -0.920852 0.351692 -1.0
# ext.tangent 0.000235 -1.000000 -0.000102 -1.0
# ext.tangent 0.000234 -1.000000 0.000107 -1.0
# ext.tangent -0.167852 -0.920840 0.351966 -1.0
# ext.tangent -0.000021 -1.000000 0.000084 -1.0
# ext.tangent -0.333081 -0.935426 -0.118469 -1.0
# ext.tangent -0.333051 -0.935413 0.118662 -1.0
# ext.tangent 0.000099 -1.000000 0.000249 -1.0
# ext.tangent 0.000008 -1.000000 -0.000008 -1.0
# ext.tangent -0.000007 -1.000000 0.000025 -1.0
# ext.tangent -0.687341 -0.687293 -0.234930 -1.0
# ext.tangent -0.327686 -0.668113 -0.668017 -1.0
# ext.tangent -0.168225 -0.920857 -0.351742 -1.0
# ext.tangent -0.000003 -1.000000 0.000006 -1.0
# ext.tangent -0.000158 -1.000000 -0.000074 -1.0
# ext.tangent 0.167849 -0.920851 -0.351937 -1.0
# ext.tangent 0.000003 -1.000000 0.000028 -1.0
# ext.tangent -0.687369 -0.687252 0.234964 -1.0
# ext.tangent 0.000026 -1.000000 0.000043 -1.0
# ext.tangent -0.327712 -0.668016 0.668101 -1.0
# ext.tangent 0.000003 -1.000000 0.000003 -1.0
# ext.tangent -0.168100 -0.920857 -0.351802 -1.0
# ext.tangent 0.230654 0.257076 0.938462 -1.0
# ext.tangent -0.166388 -0.388709 0.906212 -1.0
# ext.tangent -0.055546 -0.123558 0.990782 -1.0
# ext.tangent 0.023658 0.136989 0.990290 -1.0
# ext.tangent -0.170289 -0.858264 0.484133 -1.0
# ext.tangent 0.285826 -0.807726 0.515638 -1.0
# ext.tangent 0.008241 -0.339760 0.940476 -1.0
# ext.tangent -0.073384 -0.328691 0.941582 -1.0
# ext.tangent 0.230913 -0.256502 0.938555 -1.0
# ext.tangent -0.166488 0.388543 0.906265 -1.0
# ext.tangent -0.056483 0.123190 0.990774 -1.0
# ext.tangent 0.023800 -0.136860 0.990305 -1.0
# ext.tangent -0.168299 0.859007 0.483511 -1.0
# ext.tangent -0.073140 0.328846 0.941547 -1.0
# ext.tangent 0.285694 0.807803 0.515590 -1.0
# ext.tangent 0.009253 0.339753 0.940469 -1.0
# ext.tangent 0.222159 -0.557073 0.800197 -1.0
# ext.tangent -0.220660 -0.557663 0.800201 -1.0
# ext.tangent -0.150342 -0.163717 0.974984 -1.0
# ext.tangent 0.150355 0.163752 0.974976 -1.0
# ext.tangent 0.222175 0.557200 0.800104 -1.0
# ext.tangent -0.221454 0.557451 0.800129 -1.0
# ext.tangent -0.150812 0.163332 0.974976 -1.0
# ext.tangent 0.150212 -0.163836 0.974984 -1.0
# ext.tangent 0.000029 -1.000000 0.000037 -1.0
# ext.tangent 0.327778 -0.668020 0.668065 -1.0
# ext.tangent 0.000026 -1.000000 0.000051 -1.0
# ext.tangent 0.687316 -0.687318 0.234928 -1.0
# ext.tangent 0.000016 -1.000000 0.000049 -1.0
# ext.tangent 0.687320 -0.687352 -0.234816 -1.0
# ext.tangent -0.000019 -1.000000 0.000006 -1.0
# ext.tangent 0.327686 -0.668138 -0.667992 -1.0
# ext.tangent 0.000005 -1.000000 -0.000007 -1.0
# ext.tangent -0.327721 -0.668113 -0.668000 -1.0
