v 90.000000 -155.884567 -0.000000
v 0.000000 0.000000 -0.000000
v 180.000000 -0.000000 -0.000000
v -90.000000 -155.884567 -0.000000
v -180.000000 -0.000000 -0.000000
v -90.000000 155.884567 -0.000000
v 90.000000 155.884567 -0.000000
vt 0.750000 0.933013
vt 0.500000 0.500000
vt 1.000000 0.500000
vt 0.250000 0.933013
vt 0.000000 0.500000
vt 0.250000 0.066987
vt 0.750000 0.066987
vn 0.000000 0.000000 -1.000000
vn 0.000000 0.000000 -1.000000
vn 0.000000 0.000000 -1.000000
vn 0.000000 0.000000 -1.000000
vn 0.000000 0.000000 -1.000000
vn 0.000000 0.000000 -1.000000
vn 0.000000 0.000000 -1.000000
f 1/1/1 2/2/2 3/3/3
f 4/4/4 2/2/2 1/1/1
f 5/5/5 2/2/2 4/4/4
f 6/6/6 2/2/2 5/5/5
f 7/7/7 2/2/2 6/6/6
f 3/3/3 2/2/2 7/7/7
