v 89.952408 87.314468 -15.953946
v 83.018089 87.144577 -8.922947
v 86.515099 53.322662 -16.503376
v 92.359955 53.414703 -23.502335
v 89.848877 141.048203 -24.973579
v 90.994583 140.785583 -13.511263
v 90.490295 111.891830 -19.812649
v 89.180367 112.611069 -29.463335
v 93.029572 87.749939 -24.834118
v 91.933311 88.374466 -34.142269
v 83.191040 141.718155 -35.240417
v 83.681450 113.408066 -37.930782
v 86.384666 89.081787 -42.006340
v 87.604698 111.341614 -10.292086
v 88.049156 140.059204 -1.659289
v 80.079918 111.127045 -3.059860
v 80.098267 139.793152 7.280736
v 74.194855 114.117920 -42.949177
v 70.793312 141.430862 -41.165760
v 77.348885 89.697189 -46.230129
v 63.096489 114.458511 -41.756561
v 57.535770 141.615158 -40.816135
v 66.740265 90.095718 -46.006485
v 54.546307 114.281693 -34.504723
v 46.838863 140.154175 -32.409531
v 52.540085 113.625397 -23.938120
v 43.213142 139.329697 -14.283044
v 43.213142 139.329697 -14.283044
v 52.540085 113.625397 -23.938120
v 55.455582 112.869339 -14.639833
v 47.284805 139.106125 -4.976441
v 57.274864 89.383224 -28.720921
v 59.675480 88.741806 -19.953558
v 60.800919 112.125015 -6.847036
v 55.150204 139.629608 3.601973
v 64.744843 88.083908 -12.582428
v 69.610916 111.446152 -1.903559
v 65.809555 140.450790 9.713076
v 73.034454 87.443054 -7.487213
v 81.087830 55.124283 -50.088062
v 88.301872 54.616211 -45.521751
v 93.075294 54.126831 -39.245872
v 65.998016 54.665558 -27.323063
v 69.680588 54.178864 -20.162601
v 94.664482 53.695663 -31.459137
v 77.149315 53.610336 -14.531737
v 57.274864 89.383224 -28.720921
v 58.860653 89.947342 -38.731110
v 65.120972 55.047318 -34.674187
v 72.116653 54.961853 -49.593708
v 67.403381 55.162552 -43.709164
v 65.120972 55.047318 -34.674187
v 42.526379 169.810059 -27.749804
v 38.061996 170.607574 -12.447482
v 40.984524 169.716553 -1.460586
v 38.061996 170.607574 -12.447482
v 42.104263 172.691086 -11.205143
v 45.618961 172.091919 -0.926971
v 49.974274 168.834061 9.342096
v 53.053795 171.440857 7.382811
v 61.542152 168.579407 16.029160
v 63.163742 171.202896 12.792942
v 75.905609 168.521027 13.426004
v 73.817558 170.441254 10.180920
v 84.414948 169.750504 3.473898
v 80.896263 171.674301 1.670462
v 88.507874 171.575577 -8.019733
v 84.499207 173.042725 -8.899708
v 88.665726 170.956909 -21.318039
v 84.044373 173.711441 -19.953863
v 80.489281 169.859314 -31.983276
v 77.184731 172.453552 -28.254717
v 68.093575 169.368423 -36.742275
v 66.129959 171.821121 -31.990376
v 53.347443 169.506119 -35.892788
v 53.678860 171.370789 -31.188332
v 44.877026 172.818558 -23.247343
v 42.104263 172.691086 -11.205143
vt 0.611481 0.230303
vt 0.617640 0.244062
vt 0.569452 0.253253
vt 0.567957 0.241784
vt 0.673903 0.180261
vt 0.680233 0.194177
vt 0.640693 0.206228
vt 0.634521 0.192122
vt 0.605518 0.217610
vt 0.599570 0.205013
vt 0.668472 0.164394
vt 0.628868 0.176917
vt 0.593512 0.191581
vt 0.647553 0.220170
vt 0.686849 0.208338
vt 0.654932 0.234630
vt 0.693797 0.221244
vt 0.623959 0.160032
vt 0.662832 0.145860
vt 0.587509 0.176741
vt 0.619916 0.141680
vt 0.659928 0.127069
vt 0.581465 0.159959
vt 0.616115 0.122590
vt 0.655865 0.107570
vt 0.611160 0.104154
vt 0.651038 0.079678
vt 0.712460 0.277580
vt 0.673494 0.295253
vt 0.670191 0.279632
vt 0.708854 0.265059
vt 0.628970 0.307710
vt 0.628180 0.290509
vt 0.666631 0.264864
vt 0.705442 0.251098
vt 0.626456 0.274846
vt 0.661669 0.249657
vt 0.702009 0.236692
vt 0.623092 0.259029
vt 0.541984 0.205689
vt 0.553769 0.216245
vt 0.560887 0.224253
vt 0.561900 0.292199
vt 0.569378 0.279884
vt 0.565527 0.232680
vt 0.572932 0.266629
vt 0.567410 0.123558
vt 0.575221 0.141709
vt 0.551526 0.305713
vt 0.533210 0.191812
vt 0.522605 0.181608
vt 0.505143 0.169873
vt 0.698397 0.096247
vt 0.699421 0.072517
vt 0.742242 0.254405
vt 0.746891 0.265095
vt 0.749265 0.260015
vt 0.745465 0.250457
vt 0.737549 0.240899
vt 0.741752 0.238287
vt 0.733303 0.227674
vt 0.737293 0.224939
vt 0.727255 0.213141
vt 0.731947 0.211434
vt 0.722428 0.198774
vt 0.727757 0.197085
vt 0.718521 0.184260
vt 0.723683 0.181961
vt 0.711379 0.169447
vt 0.717993 0.166566
vt 0.705126 0.153432
vt 0.712536 0.150766
vt 0.701134 0.135876
vt 0.708933 0.132749
vt 0.698788 0.115294
vt 0.705905 0.112606
vt 0.706248 0.092694
vt 0.707554 0.072684
vn 0.859908 -0.038150 0.509021
vn 0.456231 -0.154112 0.876415
vn 0.358647 -0.712716 0.602833
vn 0.635576 -0.699745 0.326191
vn 0.942855 0.065603 -0.326681
vn 0.994616 0.006102 0.103447
vn 0.995993 0.019844 0.087197
vn 0.935977 0.100692 -0.337356
vn 0.994462 0.056434 0.088655
vn 0.925330 0.126632 -0.357392
vn 0.646975 0.117493 -0.753405
vn 0.661560 0.141926 -0.736339
vn 0.658517 0.157189 -0.735967
vn 0.859058 -0.096129 0.502770
vn 0.869049 -0.077825 0.488566
vn 0.430283 -0.238029 0.870746
vn 0.473779 -0.204465 0.856579
vn 0.201430 0.123605 -0.971673
vn 0.183887 0.117505 -0.975899
vn 0.217497 0.146524 -0.965000
vn -0.373435 0.025938 -0.927294
vn -0.352077 0.035093 -0.935313
vn -0.396729 0.054932 -0.916291
vn -0.852118 -0.137315 -0.505015
vn -0.837661 -0.122119 -0.532363
vn -0.962175 -0.270111 0.035481
vn -0.962952 -0.260958 0.068006
vn -0.962952 -0.260958 0.068006
vn -0.962175 -0.270111 0.035481
vn -0.845083 -0.329639 0.420920
vn -0.824411 -0.314352 0.470669
vn -0.978788 -0.204454 0.013160
vn -0.896713 -0.244107 0.369212
vn -0.634737 -0.338730 0.694530
vn -0.603092 -0.322158 0.729722
vn -0.691412 -0.260997 0.673669
vn -0.193796 -0.325028 0.925635
vn -0.164117 -0.300754 0.939475
vn -0.208283 -0.245667 0.946713
vn 0.178552 -0.573809 -0.799289
vn 0.488880 -0.622350 -0.611291
vn 0.696101 -0.634344 -0.336233
vn -0.635972 -0.747306 0.192546
vn -0.513466 -0.748804 0.419101
vn 0.751716 -0.659374 0.012211
vn -0.159421 -0.720064 0.675346
vn -0.978788 -0.204454 0.013160
vn -0.870842 -0.097650 -0.481767
vn -0.679298 -0.732726 -0.040834
vn -0.293183 -0.613853 -0.732959
vn -0.611575 -0.707658 -0.353829
vn -0.679298 -0.732726 -0.040834
vn -0.742924 0.447968 -0.497382
vn -0.915614 0.401344 0.023940
vn -0.813656 0.347892 0.465763
vn -0.915614 0.401344 0.023940
vn -0.506847 0.860381 0.053392
vn -0.450720 0.818313 0.356671
vn -0.598978 0.302160 0.741569
vn -0.347714 0.795319 0.496550
vn -0.184632 0.316621 0.930409
vn -0.043485 0.823930 0.565021
vn 0.414385 0.385386 0.824477
vn 0.215896 0.859007 0.464215
vn 0.715312 0.508649 0.479170
vn 0.305088 0.903059 0.302335
vn 0.808860 0.566202 0.158624
vn 0.387807 0.914552 0.114892
vn 0.800316 0.527949 -0.284192
vn 0.395323 0.896727 -0.198997
vn 0.502722 0.536287 -0.677988
vn 0.227909 0.879624 -0.417516
vn 0.130523 0.564837 -0.814815
vn 0.032812 0.899670 -0.435336
vn -0.299734 0.534640 -0.790139
vn -0.159557 0.898560 -0.408818
vn -0.430072 0.867777 -0.248999
vn -0.506847 0.860381 0.053392
f 1/1/1 2/2/2 3/3/3
f 1/1/1 3/3/3 4/4/4
f 5/5/5 6/6/6 7/7/7
f 5/5/5 7/7/7 8/8/8
f 8/8/8 7/7/7 9/9/9
f 8/8/8 9/9/9 10/10/10
f 11/11/11 5/5/5 8/8/8
f 11/11/11 8/8/8 12/12/12
f 12/12/12 8/8/8 10/10/10
f 12/12/12 10/10/10 13/13/13
f 14/14/14 7/7/7 6/6/6
f 14/14/14 6/6/6 15/15/15
f 1/1/1 9/9/9 7/7/7
f 1/1/1 7/7/7 14/14/14
f 16/16/16 14/14/14 15/15/15
f 16/16/16 15/15/15 17/17/17
f 2/2/2 1/1/1 14/14/14
f 2/2/2 14/14/14 16/16/16
f 11/11/11 12/12/12 18/18/18
f 11/11/11 18/18/18 19/19/19
f 12/12/12 13/13/13 20/20/20
f 12/12/12 20/20/20 18/18/18
f 19/19/19 18/18/18 21/21/21
f 19/19/19 21/21/21 22/22/22
f 18/18/18 20/20/20 23/23/23
f 18/18/18 23/23/23 21/21/21
f 22/22/22 21/21/21 24/24/24
f 22/22/22 24/24/24 25/25/25
f 25/25/25 24/24/24 26/26/26
f 25/25/25 26/26/26 27/27/27
f 28/28/28 29/29/29 30/30/30
f 28/28/28 30/30/30 31/31/31
f 29/29/29 32/32/32 33/33/33
f 29/29/29 33/33/33 30/30/30
f 31/31/31 30/30/30 34/34/34
f 31/31/31 34/34/34 35/35/35
f 30/30/30 33/33/33 36/36/36
f 30/30/30 36/36/36 34/34/34
f 37/37/37 16/16/16 17/17/17
f 37/37/37 17/17/17 38/38/38
f 35/35/35 34/34/34 37/37/37
f 35/35/35 37/37/37 38/38/38
f 39/39/39 2/2/2 16/16/16
f 39/39/39 16/16/16 37/37/37
f 37/37/37 34/34/34 36/36/36
f 37/37/37 36/36/36 39/39/39
f 40/40/40 20/20/20 13/13/13
f 40/40/40 13/13/13 41/41/41
f 41/41/41 13/13/13 10/10/10
f 41/41/41 10/10/10 42/42/42
f 43/43/43 41/41/41 42/42/42
f 43/43/43 42/42/42 44/44/44
f 33/33/33 43/43/43 44/44/44
f 33/33/33 44/44/44 36/36/36
f 45/45/45 4/4/4 3/3/3
f 45/45/45 3/3/3 46/46/46
f 46/46/46 3/3/3 2/2/2
f 46/46/46 2/2/2 39/39/39
f 39/39/39 36/36/36 44/44/44
f 39/39/39 44/44/44 46/46/46
f 44/44/44 42/42/42 45/45/45
f 44/44/44 45/45/45 46/46/46
f 9/9/9 1/1/1 4/4/4
f 9/9/9 4/4/4 45/45/45
f 45/45/45 42/42/42 10/10/10
f 45/45/45 10/10/10 9/9/9
f 47/47/47 26/26/26 24/24/24
f 47/47/47 24/24/24 48/48/48
f 43/43/43 33/33/33 32/32/32
f 43/43/43 32/32/32 49/49/49
f 41/41/41 43/43/43 49/49/49
f 41/41/41 49/49/49 40/40/40
f 20/20/20 40/40/40 50/50/50
f 20/20/20 50/50/50 23/23/23
f 21/21/21 23/23/23 48/48/48
f 21/21/21 48/48/48 24/24/24
f 23/23/23 50/50/50 51/51/51
f 23/23/23 51/51/51 48/48/48
f 52/52/52 47/47/47 48/48/48
f 52/52/52 48/48/48 51/51/51
f 40/40/40 52/52/52 51/51/51
f 40/40/40 51/51/51 50/50/50
f 53/53/53 25/25/25 27/27/27
f 53/53/53 27/27/27 54/54/54
f 55/55/55 56/56/56 28/28/28
f 55/55/55 28/28/28 31/31/31
f 57/57/57 56/56/56 55/55/55
f 57/57/57 55/55/55 58/58/58
f 59/59/59 55/55/55 31/31/31
f 59/59/59 31/31/31 35/35/35
f 58/58/58 55/55/55 59/59/59
f 58/58/58 59/59/59 60/60/60
f 61/61/61 59/59/59 35/35/35
f 61/61/61 35/35/35 38/38/38
f 60/60/60 59/59/59 61/61/61
f 60/60/60 61/61/61 62/62/62
f 63/63/63 61/61/61 38/38/38
f 63/63/63 38/38/38 17/17/17
f 62/62/62 61/61/61 63/63/63
f 62/62/62 63/63/63 64/64/64
f 65/65/65 63/63/63 17/17/17
f 65/65/65 17/17/17 15/15/15
f 64/64/64 63/63/63 65/65/65
f 64/64/64 65/65/65 66/66/66
f 67/67/67 65/65/65 15/15/15
f 67/67/67 15/15/15 6/6/6
f 66/66/66 65/65/65 67/67/67
f 66/66/66 67/67/67 68/68/68
f 69/69/69 67/67/67 6/6/6
f 69/69/69 6/6/6 5/5/5
f 70/70/70 68/68/68 67/67/67
f 70/70/70 67/67/67 69/69/69
f 71/71/71 69/69/69 5/5/5
f 71/71/71 5/5/5 11/11/11
f 70/70/70 69/69/69 71/71/71
f 70/70/70 71/71/71 72/72/72
f 71/71/71 11/11/11 19/19/19
f 71/71/71 19/19/19 73/73/73
f 72/72/72 71/71/71 73/73/73
f 72/72/72 73/73/73 74/74/74
f 25/25/25 53/53/53 75/75/75
f 25/25/25 75/75/75 22/22/22
f 73/73/73 19/19/19 22/22/22
f 73/73/73 22/22/22 75/75/75
f 76/76/76 75/75/75 53/53/53
f 76/76/76 53/53/53 77/77/77
f 77/77/77 53/53/53 54/54/54
f 77/77/77 54/54/54 78/78/78
f 74/74/74 73/73/73 75/75/75
f 74/74/74 75/75/75 76/76/76
# ext.tangent -0.203172 0.889227 0.409873 1.0
# ext.tangent -0.276441 0.911613 0.304207 1.0
# ext.tangent -0.274564 -0.697771 -0.661611 -1.0
# ext.tangent 0.295289 0.610712 0.734735 1.0
# ext.tangent 0.073754 0.915017 0.396617 1.0
# ext.tangent -0.052550 0.890089 0.452748 1.0
# ext.tangent -0.058252 0.883787 0.464250 1.0
# ext.tangent 0.058271 0.900705 0.430506 1.0
# ext.tangent -0.092152 0.873807 0.477461 1.0
# ext.tangent 0.076515 0.860825 0.503116 1.0
# ext.tangent 0.164426 0.943315 0.288307 1.0
# ext.tangent 0.182525 0.921920 0.341685 1.0
# ext.tangent 0.248530 0.877653 0.409827 1.0
# ext.tangent -0.168211 0.874644 0.454645 1.0
# ext.tangent -0.178471 0.871733 0.456322 1.0
# ext.tangent -0.282259 0.880762 0.380247 1.0
# ext.tangent -0.313009 0.870062 0.380811 1.0
# ext.tangent 0.241132 0.955219 0.171499 1.0
# ext.tangent 0.172024 0.973660 0.149649 1.0
# ext.tangent 0.323246 0.922064 0.212860 1.0
# ext.tangent 0.169728 0.984646 -0.040809 1.0
# ext.tangent 0.101810 0.994803 -0.000999 1.0
# ext.tangent 0.280110 0.957842 -0.063857 1.0
# ext.tangent -0.039673 0.979137 -0.199290 1.0
# ext.tangent -0.066110 0.990188 -0.123118 1.0
# ext.tangent -0.270829 0.934262 -0.231963 1.0
# ext.tangent -0.267740 0.955292 -0.125425 1.0
# ext.tangent -0.268414 0.951825 -0.148265 1.0
# ext.tangent -0.271574 0.961302 -0.046322 1.0
# ext.tangent -0.365101 0.930960 -0.003943 1.0
# ext.tangent -0.380149 0.923627 -0.048984 1.0
# ext.tangent -0.202204 0.974363 0.098647 1.0
# ext.tangent -0.235143 0.969447 0.069861 1.0
# ext.tangent -0.396536 0.914216 0.083476 1.0
# ext.tangent -0.399457 0.913817 0.073294 1.0
# ext.tangent -0.277653 0.956848 0.085741 1.0
# ext.tangent -0.382165 0.894001 0.233908 1.0
# ext.tangent -0.398720 0.891346 0.215694 1.0
# ext.tangent -0.290623 0.939769 0.179926 1.0
# ext.tangent 0.229297 0.814242 -0.533322 1.0
# ext.tangent 0.845783 0.166531 0.506872 1.0
# ext.tangent 0.555708 0.179537 0.811761 1.0
# ext.tangent 0.001043 0.248672 0.968587 1.0
# ext.tangent 0.171638 0.388910 0.905146 1.0
# ext.tangent 0.364180 0.399604 -0.841243 1.0
# ext.tangent -0.892784 -0.186808 -0.409926 -1.0
# ext.tangent -0.197719 0.925805 -0.322168 1.0
# ext.tangent 0.060486 0.951336 -0.302162 1.0
# ext.tangent 0.031575 -0.084773 0.995900 1.0
# ext.tangent 0.083291 0.747334 -0.659208 1.0
# ext.tangent -0.144525 0.539610 -0.829418 1.0
# ext.tangent -0.433753 0.445764 -0.783041 1.0
# ext.tangent 0.323115 0.890749 0.319629 1.0
# ext.tangent 0.393485 0.882270 0.258397 1.0
# ext.tangent 0.083780 0.862987 -0.498231 1.0
# ext.tangent 0.295466 0.712059 -0.636924 1.0
# ext.tangent 0.584237 0.388394 -0.712613 1.0
# ext.tangent 0.461047 0.555541 -0.691962 1.0
# ext.tangent -0.064436 0.904885 -0.420750 1.0
# ext.tangent 0.131796 0.565798 -0.813942 1.0
# ext.tangent -0.277049 0.891525 -0.358367 1.0
# ext.tangent -0.359790 0.514693 -0.778230 1.0
# ext.tangent -0.526843 0.840273 -0.127976 1.0
# ext.tangent -0.796448 0.429961 -0.425211 1.0
# ext.tangent -0.618753 0.779696 0.096019 1.0
# ext.tangent -0.942047 0.332697 -0.043127 1.0
# ext.tangent -0.581418 0.729893 0.359458 1.0
# ext.tangent -0.914087 0.365558 0.175533 1.0
# ext.tangent -0.326708 0.781429 0.531631 1.0
# ext.tangent -0.681486 0.431590 0.591022 1.0
# ext.tangent -0.120910 0.820213 0.559134 1.0
# ext.tangent -0.209349 0.463041 0.861258 1.0
# ext.tangent 0.047531 0.817336 0.574198 1.0
# ext.tangent 0.144531 0.426721 0.892760 1.0
# ext.tangent 0.213329 0.844807 0.490706 1.0
# ext.tangent 0.509747 0.429635 0.745367 1.0
# ext.tangent 0.740839 0.496855 0.451988 1.0
# ext.tangent 0.833155 0.473027 0.286527 1.0
# ext.joint 4 4 4 4
# ext.joint 4 4 4 4
# ext.joint 4 5 4 4
# ext.joint 4 5 4 4
# ext.joint 4 4 4 4
# ext.joint 4 4 4 4
# ext.joint 4 4 4 4
# ext.joint 4 4 4 4
# ext.joint 4 4 4 4
# ext.joint 4 4 4 4
# ext.joint 4 4 4 4
# ext.joint 4 4 4 4
# ext.joint 4 4 4 4
# ext.joint 4 4 4 4
# ext.joint 4 4 4 4
# ext.joint 4 4 4 4
# ext.joint 4 4 4 4
# ext.joint 4 4 4 4
# ext.joint 4 4 4 4
# ext.joint 4 4 4 4
# ext.joint 4 4 4 4
# ext.joint 4 4 4 4
# ext.joint 4 4 4 4
# ext.joint 4 4 4 4
# ext.joint 4 4 4 4
# ext.joint 4 4 4 4
# ext.joint 4 4 4 4
# ext.joint 4 4 4 4
# ext.joint 4 4 4 4
# ext.joint 4 4 4 4
# ext.joint 4 4 4 4
# ext.joint 4 4 4 4
# ext.joint 4 4 4 4
# ext.joint 4 4 4 4
# ext.joint 4 4 4 4
# ext.joint 4 4 4 4
# ext.joint 4 4 4 4
# ext.joint 4 4 4 4
# ext.joint 4 4 4 4
# ext.joint 4 5 4 4
# ext.joint 4 5 4 4
# ext.joint 4 5 4 4
# ext.joint 4 5 4 4
# ext.joint 4 5 4 4
# ext.joint 4 5 4 4
# ext.joint 4 5 4 4
# ext.joint 4 4 4 4
# ext.joint 4 4 4 4
# ext.joint 4 5 4 4
# ext.joint 4 5 4 4
# ext.joint 4 5 4 4
# ext.joint 4 5 4 4
# ext.joint 4 3 4 4
# ext.joint 4 3 4 4
# ext.joint 4 3 4 4
# ext.joint 4 3 4 4
# ext.joint 4 3 4 4
# ext.joint 4 3 4 4
# ext.joint 4 3 4 4
# ext.joint 4 3 4 4
# ext.joint 4 3 4 4
# ext.joint 4 3 4 4
# ext.joint 4 3 4 4
# ext.joint 4 3 4 4
# ext.joint 4 3 4 4
# ext.joint 4 3 4 4
# ext.joint 4 3 4 4
# ext.joint 4 3 4 4
# ext.joint 4 3 4 4
# ext.joint 4 3 4 4
# ext.joint 4 3 4 4
# ext.joint 4 3 4 4
# ext.joint 4 3 4 4
# ext.joint 4 3 4 4
# ext.joint 4 3 4 4
# ext.joint 4 3 4 4
# ext.joint 4 3 4 4
# ext.joint 4 3 4 4
# ext.weight 1.000000 0.000000 0.000000 0.000000
# ext.weight 1.000000 0.000000 0.000000 0.000000
# ext.weight 0.962662 0.037338 0.000000 0.000000
# ext.weight 0.953856 0.046144 0.000000 0.000000
# ext.weight 1.000000 0.000000 0.000000 0.000000
# ext.weight 1.000000 0.000000 0.000000 0.000000
# ext.weight 1.000000 0.000000 0.000000 0.000000
# ext.weight 1.000000 0.000000 0.000000 0.000000
# ext.weight 1.000000 0.000000 0.000000 0.000000
# ext.weight 1.000000 0.000000 0.000000 0.000000
# ext.weight 1.000000 0.000000 0.000000 0.000000
# ext.weight 1.000000 0.000000 0.000000 0.000000
# ext.weight 1.000000 0.000000 0.000000 0.000000
# ext.weight 1.000000 0.000000 0.000000 0.000000
# ext.weight 1.000000 0.000000 0.000000 0.000000
# ext.weight 1.000000 0.000000 0.000000 0.000000
# ext.weight 1.000000 0.000000 0.000000 0.000000
# ext.weight 1.000000 0.000000 0.000000 0.000000
# ext.weight 1.000000 0.000000 0.000000 0.000000
# ext.weight 1.000000 0.000000 0.000000 0.000000
# ext.weight 1.000000 0.000000 0.000000 0.000000
# ext.weight 1.000000 0.000000 0.000000 0.000000
# ext.weight 1.000000 0.000000 0.000000 0.000000
# ext.weight 1.000000 0.000000 0.000000 0.000000
# ext.weight 1.000000 0.000000 0.000000 0.000000
# ext.weight 1.000000 0.000000 0.000000 0.000000
# ext.weight 1.000000 0.000000 0.000000 0.000000
# ext.weight 1.000000 0.000000 0.000000 0.000000
# ext.weight 1.000000 0.000000 0.000000 0.000000
# ext.weight 1.000000 0.000000 0.000000 0.000000
# ext.weight 1.000000 0.000000 0.000000 0.000000
# ext.weight 1.000000 0.000000 0.000000 0.000000
# ext.weight 1.000000 0.000000 0.000000 0.000000
# ext.weight 1.000000 0.000000 0.000000 0.000000
# ext.weight 1.000000 0.000000 0.000000 0.000000
# ext.weight 1.000000 0.000000 0.000000 0.000000
# ext.weight 1.000000 0.000000 0.000000 0.000000
# ext.weight 1.000000 0.000000 0.000000 0.000000
# ext.weight 1.000000 0.000000 0.000000 0.000000
# ext.weight 0.944991 0.055009 0.000000 0.000000
# ext.weight 0.936813 0.063187 0.000000 0.000000
# ext.weight 0.938313 0.061687 0.000000 0.000000
# ext.weight 0.983869 0.016131 0.000000 0.000000
# ext.weight 0.983182 0.016818 0.000000 0.000000
# ext.weight 0.948033 0.051967 0.000000 0.000000
# ext.weight 0.975695 0.024305 0.000000 0.000000
# ext.weight 1.000000 0.000000 0.000000 0.000000
# ext.weight 1.000000 0.000000 0.000000 0.000000
# ext.weight 0.980371 0.019629 0.000000 0.000000
# ext.weight 0.958061 0.041939 0.000000 0.000000
# ext.weight 0.971245 0.028755 0.000000 0.000000
# ext.weight 0.980371 0.019629 0.000000 0.000000
# ext.weight 0.720494 0.279506 0.000000 0.000000
# ext.weight 0.661539 0.338461 0.000000 0.000000
# ext.weight 0.686223 0.313777 0.000000 0.000000
# ext.weight 0.661539 0.338461 0.000000 0.000000
# ext.weight 0.674945 0.325055 0.000000 0.000000
# ext.weight 0.700045 0.299955 0.000000 0.000000
# ext.weight 0.721480 0.278520 0.000000 0.000000
# ext.weight 0.726819 0.273181 0.000000 0.000000
# ext.weight 0.728243 0.271757 0.000000 0.000000
# ext.weight 0.731964 0.268036 0.000000 0.000000
# ext.weight 0.774614 0.225386 0.000000 0.000000
# ext.weight 0.778930 0.221070 0.000000 0.000000
# ext.weight 0.810635 0.189365 0.000000 0.000000
# ext.weight 0.804385 0.195615 0.000000 0.000000
# ext.weight 0.811033 0.188967 0.000000 0.000000
# ext.weight 0.804097 0.195903 0.000000 0.000000
# ext.weight 0.842020 0.157980 0.000000 0.000000
# ext.weight 0.797454 0.202546 0.000000 0.000000
# ext.weight 0.872196 0.127804 0.000000 0.000000
# ext.weight 0.820846 0.179154 0.000000 0.000000
# ext.weight 0.863825 0.136175 0.000000 0.000000
# ext.weight 0.812422 0.187578 0.000000 0.000000
# ext.weight 0.802691 0.197309 0.000000 0.000000
# ext.weight 0.770275 0.229725 0.000000 0.000000
# ext.weight 0.688466 0.311534 0.000000 0.000000
# ext.weight 0.674945 0.325055 0.000000 0.000000
