v 75.521927 654.787964 -137.683105
v 76.087059 654.222900 -132.637146
v 122.950157 679.123413 -137.683121
v 77.727165 652.582825 -128.085144
v 80.281616 650.028381 -124.472633
v 83.500351 646.809631 -122.153168
v 87.068428 643.241577 -121.353958
v 87.068428 643.241577 -121.353958
v 90.636398 639.673462 -122.153160
v 93.855255 636.454712 -124.472626
v 96.409706 633.900269 -128.085144
v 98.049690 632.260193 -132.637146
v 98.614830 631.695129 -137.683105
v 98.049690 632.260193 -142.729065
v 96.409592 633.900269 -147.281189
v 93.855141 636.454712 -150.893707
v 90.636398 639.673462 -153.213058
v 87.068314 643.241577 -154.012253
v 83.500351 646.809631 -153.213058
v 80.281502 650.028381 -150.893585
v 77.727051 652.582825 -147.281082
v 76.087059 654.222900 -142.729080
v 84.287903 640.460999 -143.787369
v 85.621735 639.127197 -143.488632
v 86.824997 637.923950 -142.621582
v 88.393005 636.355896 -139.569397
v 88.604240 636.144714 -137.683105
v 88.393005 636.355896 -135.796829
v 86.824997 637.923950 -132.744644
v 85.621735 639.127197 -131.877594
v 84.287903 640.460999 -131.578857
v 81.750809 642.998108 -132.744644
v 80.795906 643.953003 -134.095154
v 80.182800 644.566101 -135.796829
v 81.750809 642.998108 -142.621582
v 79.971466 644.777344 -137.683105
v 80.182800 644.566101 -139.569397
v 76.087059 654.222900 -132.637146
v 75.521927 654.787964 -137.683105
v 76.087059 654.222900 -142.729080
v 77.727051 652.582825 -147.281082
v 80.795906 643.953003 -141.271072
v 80.281502 650.028381 -150.893585
v 83.500351 646.809631 -153.213058
v 82.954079 641.794861 -143.488632
v 87.068314 643.241577 -154.012253
v 90.636398 639.673462 -153.213058
v 93.855141 636.454712 -150.893707
v 96.409592 633.900269 -147.281189
v 87.779900 636.968994 -141.271072
v 98.049690 632.260193 -142.729065
v 98.614830 631.695129 -137.683105
v 98.049690 632.260193 -132.637146
v 96.409706 633.900269 -128.085144
v 87.779900 636.969055 -134.095154
v 93.855255 636.454712 -124.472626
v 90.636398 639.673462 -122.153160
v 87.068428 643.241577 -121.353958
v 83.500351 646.809631 -122.153168
v 82.954079 641.794861 -131.877594
v 80.281616 650.028381 -124.472633
v 77.727165 652.582825 -128.085144
vt 0.344180 0.274206
vt 0.333689 0.274006
vt 0.341582 0.179386
vt 0.325895 0.272607
vt 0.318102 0.270809
vt 0.310209 0.268811
vt 0.302415 0.266313
vt 0.436803 0.174989
vt 0.436902 0.183582
vt 0.436203 0.191875
vt 0.434604 0.199669
vt 0.432106 0.206962
vt 0.429309 0.217054
vt 0.424912 0.226546
vt 0.419017 0.235439
vt 0.412723 0.244231
vt 0.405129 0.252324
vt 0.396236 0.259718
vt 0.386245 0.264814
vt 0.375854 0.268910
vt 0.365362 0.272108
vt 0.354771 0.273507
vt 0.437802 0.271208
vt 0.438901 0.274606
vt 0.438901 0.278103
vt 0.435703 0.284298
vt 0.432906 0.286296
vt 0.429509 0.287395
vt 0.422714 0.286296
vt 0.419817 0.284298
vt 0.417818 0.281400
vt 0.416719 0.274606
vt 0.417818 0.271208
vt 0.419817 0.268411
vt 0.432906 0.266313
vt 0.422714 0.266313
vt 0.426011 0.265214
vt 0.406528 0.255122
vt 0.414121 0.249627
vt 0.423114 0.246629
vt 0.432506 0.246629
vt 0.429509 0.265214
vt 0.441398 0.249527
vt 0.448992 0.255122
vt 0.435703 0.268411
vt 0.454488 0.262716
vt 0.457485 0.271608
vt 0.457485 0.281000
vt 0.454587 0.289993
vt 0.437802 0.281400
vt 0.448992 0.297586
vt 0.441398 0.303082
vt 0.432506 0.305979
vt 0.423114 0.305979
vt 0.426011 0.287395
vt 0.414121 0.303082
vt 0.406528 0.297586
vt 0.401033 0.289993
vt 0.398135 0.281000
vt 0.416719 0.278103
vt 0.398135 0.271608
vt 0.401033 0.262716
vn -0.933797 0.357803 -0.000000
vn -0.901999 0.326612 0.282352
vn 0.707107 0.707107 0.000000
vn -0.810245 0.234986 0.536921
vn -0.667519 0.091546 0.738944
vn -0.487441 -0.088487 0.868660
vn -0.287655 -0.287655 0.913515
vn -0.287655 -0.287655 0.913515
vn -0.088487 -0.487441 0.868660
vn 0.091545 -0.667519 0.738944
vn 0.234986 -0.810245 0.536921
vn 0.326612 -0.901999 0.282352
vn 0.357803 -0.933797 0.000000
vn 0.326612 -0.901999 -0.282351
vn 0.234986 -0.810245 -0.536921
vn 0.091545 -0.667519 -0.738944
vn -0.088487 -0.487442 -0.868660
vn -0.287655 -0.287655 -0.913515
vn -0.487441 -0.088487 -0.868660
vn -0.667519 0.091545 -0.738944
vn -0.810245 0.234986 -0.536921
vn -0.901999 0.326612 -0.282352
vn -0.692806 -0.692806 -0.200097
vn -0.649332 -0.736317 -0.190279
vn -0.609642 -0.775977 -0.161853
vn -0.558560 -0.827157 -0.061832
vn -0.551352 -0.834273 0.000000
vn -0.558560 -0.827157 0.061832
vn -0.609642 -0.775977 0.161853
vn -0.649332 -0.736316 0.190279
vn -0.692806 -0.692806 0.200098
vn -0.775977 -0.609642 0.161853
vn -0.807261 -0.578359 0.117599
vn -0.830947 -0.555491 0.030939
vn -0.775977 -0.609642 -0.161853
vn -0.830947 -0.555491 0.030935
vn -0.827157 -0.558560 -0.061832
vn -0.901999 0.326612 0.282352
vn -0.933797 0.357803 -0.000000
vn -0.901999 0.326612 -0.282352
vn -0.810245 0.234986 -0.536921
vn -0.807261 -0.578359 -0.117598
vn -0.667519 0.091545 -0.738944
vn -0.487441 -0.088487 -0.868660
vn -0.736317 -0.649332 -0.190279
vn -0.287655 -0.287655 -0.913515
vn -0.088487 -0.487442 -0.868660
vn 0.091545 -0.667519 -0.738944
vn 0.234986 -0.810245 -0.536921
vn -0.578359 -0.807261 -0.117598
vn 0.326612 -0.901999 -0.282351
vn 0.357803 -0.933797 0.000000
vn 0.326612 -0.901999 0.282352
vn 0.234986 -0.810245 0.536921
vn -0.578359 -0.807261 0.117599
vn 0.091545 -0.667519 0.738944
vn -0.088487 -0.487441 0.868660
vn -0.287655 -0.287655 0.913515
vn -0.487441 -0.088487 0.868660
vn -0.736317 -0.649332 0.190279
vn -0.667519 0.091546 0.738944
vn -0.810245 0.234986 0.536921
f 1/1/1 2/2/2 3/3/3
f 2/2/2 4/4/4 3/3/3
f 4/4/4 5/5/5 3/3/3
f 5/5/5 6/6/6 3/3/3
f 6/6/6 7/7/7 3/3/3
f 8/8/8 9/9/9 3/3/3
f 9/9/9 10/10/10 3/3/3
f 10/10/10 11/11/11 3/3/3
f 11/11/11 12/12/12 3/3/3
f 12/12/12 13/13/13 3/3/3
f 13/13/13 14/14/14 3/3/3
f 14/14/14 15/15/15 3/3/3
f 15/15/15 16/16/16 3/3/3
f 16/16/16 17/17/17 3/3/3
f 17/17/17 18/18/18 3/3/3
f 18/18/18 19/19/19 3/3/3
f 19/19/19 20/20/20 3/3/3
f 20/20/20 21/21/21 3/3/3
f 21/21/21 22/22/22 3/3/3
f 22/22/22 1/1/1 3/3/3
f 23/23/23 24/24/24 25/25/25
f 26/26/26 27/27/27 28/28/28
f 29/29/29 30/30/30 31/31/31
f 32/32/32 33/33/33 34/34/34
f 35/35/35 25/25/25 34/34/34
f 36/36/36 37/37/37 34/34/34
f 36/36/36 34/34/34 38/38/38
f 36/36/36 38/38/38 39/39/39
f 37/37/37 36/36/36 39/39/39
f 37/37/37 39/39/39 40/40/40
f 41/41/41 42/42/42 37/37/37
f 41/41/41 37/37/37 40/40/40
f 35/35/35 42/42/42 41/41/41
f 35/35/35 41/41/41 43/43/43
f 44/44/44 45/45/45 35/35/35
f 44/44/44 35/35/35 43/43/43
f 23/23/23 45/45/45 44/44/44
f 23/23/23 44/44/44 46/46/46
f 47/47/47 24/24/24 23/23/23
f 47/47/47 23/23/23 46/46/46
f 25/25/25 24/24/24 47/47/47
f 25/25/25 47/47/47 48/48/48
f 49/49/49 50/50/50 25/25/25
f 49/49/49 25/25/25 48/48/48
f 50/50/50 49/49/49 51/51/51
f 50/50/50 51/51/51 26/26/26
f 52/52/52 27/27/27 26/26/26
f 52/52/52 26/26/26 51/51/51
f 27/27/27 52/52/52 53/53/53
f 27/27/27 53/53/53 28/28/28
f 54/54/54 55/55/55 28/28/28
f 54/54/54 28/28/28 53/53/53
f 55/55/55 54/54/54 56/56/56
f 55/55/55 56/56/56 29/29/29
f 57/57/57 30/30/30 29/29/29
f 57/57/57 29/29/29 56/56/56
f 30/30/30 57/57/57 58/58/58
f 30/30/30 58/58/58 31/31/31
f 59/59/59 60/60/60 31/31/31
f 59/59/59 31/31/31 58/58/58
f 60/60/60 59/59/59 61/61/61
f 60/60/60 61/61/61 32/32/32
f 32/32/32 61/61/61 62/62/62
f 32/32/32 62/62/62 33/33/33
f 33/33/33 62/62/62 38/38/38
f 33/33/33 38/38/38 34/34/34
f 37/37/37 42/42/42 35/35/35
f 37/37/37 35/35/35 34/34/34
f 23/23/23 25/25/25 35/35/35
f 23/23/23 35/35/35 45/45/45
f 26/26/26 28/28/28 25/25/25
f 26/26/26 25/25/25 50/50/50
f 29/29/29 31/31/31 28/28/28
f 29/29/29 28/28/28 55/55/55
f 25/25/25 28/28/28 31/31/31
f 25/25/25 31/31/31 34/34/34
f 32/32/32 34/34/34 31/31/31
f 32/32/32 31/31/31 60/60/60
# ext.tangent -0.007199 -0.018788 -0.999798 1.0
# ext.tangent -0.187180 0.293489 -0.937458 1.0
# ext.tangent 0.330564 -0.330564 -0.883999 1.0
# ext.tangent -0.356729 0.529140 -0.769906 1.0
# ext.tangent -0.488191 0.695529 -0.527171 1.0
# ext.tangent -0.551998 0.802056 -0.228047 1.0
# ext.tangent -0.594911 0.801164 0.064947 1.0
# ext.tangent -0.598922 -0.690284 -0.405956 1.0
# ext.tangent -0.775680 -0.513382 -0.367095 1.0
# ext.tangent -0.910473 -0.356649 -0.209380 1.0
# ext.tangent -0.965879 -0.256538 0.035592 1.0
# ext.tangent -0.933526 -0.261138 0.245632 1.0
# ext.tangent -0.838902 -0.321442 0.439225 1.0
# ext.tangent -0.651179 -0.431270 0.624478 1.0
# ext.tangent -0.423805 -0.582523 0.693582 1.0
# ext.tangent -0.184354 -0.740593 0.646170 1.0
# ext.tangent 0.043800 -0.873142 0.485495 1.0
# ext.tangent 0.268073 -0.939886 0.211546 1.0
# ext.tangent 0.402677 -0.905523 -0.133717 1.0
# ext.tangent 0.400029 -0.792936 -0.459597 1.0
# ext.tangent 0.329840 -0.574436 -0.749152 1.0
# ext.tangent 0.185367 -0.297667 -0.936501 1.0
# ext.tangent 0.433640 -0.178547 -0.883220 1.0
# ext.tangent 0.441204 -0.160934 -0.882858 1.0
# ext.tangent 0.454056 -0.174487 -0.873720 1.0
# ext.tangent 0.427642 -0.223299 -0.875934 1.0
# ext.tangent 0.390218 -0.257887 -0.883869 1.0
# ext.tangent 0.342056 -0.297610 -0.891306 1.0
# ext.tangent 0.263787 -0.391150 -0.881713 1.0
# ext.tangent 0.223204 -0.423696 -0.877873 1.0
# ext.tangent 0.200873 -0.451904 -0.869156 1.0
# ext.tangent 0.170819 -0.450120 -0.876477 1.0
# ext.tangent 0.181638 -0.433043 -0.882882 1.0
# ext.tangent 0.227319 -0.389747 -0.892426 1.0
# ext.tangent 0.383069 -0.251624 -0.888788 1.0
# ext.tangent 0.238828 -0.406372 -0.881943 1.0
# ext.tangent 0.299535 -0.345110 -0.889482 1.0
# ext.tangent -0.399151 -0.381605 -0.833700 1.0
# ext.tangent -0.124873 -0.325896 -0.937122 1.0
# ext.tangent 0.171219 -0.329748 -0.928413 1.0
# ext.tangent 0.461982 -0.307670 -0.831812 1.0
# ext.tangent 0.342096 -0.296165 -0.891771 1.0
# ext.tangent 0.705900 -0.237947 -0.667148 1.0
# ext.tangent 0.872420 -0.090195 -0.480363 1.0
# ext.tangent 0.407355 -0.200855 -0.890909 1.0
# ext.tangent 0.930336 0.142590 -0.337852 1.0
# ext.tangent 0.857814 0.405970 -0.315189 1.0
# ext.tangent 0.683598 0.581714 -0.440798 1.0
# ext.tangent 0.499600 0.574517 -0.648328 1.0
# ext.tangent 0.460290 -0.203905 -0.864034 1.0
# ext.tangent 0.393213 0.401330 -0.827235 1.0
# ext.tangent 0.345672 0.132451 -0.928961 1.0
# ext.tangent 0.343163 -0.165180 -0.924638 1.0
# ext.tangent 0.325100 -0.455060 -0.828994 1.0
# ext.tangent 0.293617 -0.340483 -0.893230 1.0
# ext.tangent 0.255818 -0.701391 -0.665288 1.0
# ext.tangent 0.109017 -0.871582 -0.477975 1.0
# ext.tangent -0.137825 -0.931468 -0.336708 1.0
# ext.tangent -0.407734 -0.856655 -0.316061 1.0
# ext.tangent 0.176437 -0.455735 -0.872454 1.0
# ext.tangent -0.584914 -0.678574 -0.444311 1.0
# ext.tangent -0.573831 -0.504461 -0.645164 1.0
# ext.joint 14 14 14 14
# ext.joint 14 14 14 14
# ext.joint 14 14 14 14
# ext.joint 14 14 14 14
# ext.joint 14 14 14 14
# ext.joint 14 14 14 14
# ext.joint 14 14 14 14
# ext.joint 14 14 14 14
# ext.joint 14 14 14 14
# ext.joint 14 14 14 14
# ext.joint 14 14 14 14
# ext.joint 14 14 14 14
# ext.joint 14 14 14 14
# ext.joint 14 14 14 14
# ext.joint 14 14 14 14
# ext.joint 14 14 14 14
# ext.joint 14 14 14 14
# ext.joint 14 14 14 14
# ext.joint 14 14 14 14
# ext.joint 14 14 14 14
# ext.joint 14 14 14 14
# ext.joint 14 14 14 14
# ext.joint 14 14 14 14
# ext.joint 14 14 14 14
# ext.joint 14 14 14 14
# ext.joint 14 14 14 14
# ext.joint 14 14 14 14
# ext.joint 14 14 14 14
# ext.joint 14 14 14 14
# ext.joint 14 14 14 14
# ext.joint 14 14 14 14
# ext.joint 14 14 14 14
# ext.joint 14 14 14 14
# ext.joint 14 14 14 14
# ext.joint 14 14 14 14
# ext.joint 14 14 14 14
# ext.joint 14 14 14 14
# ext.joint 14 14 14 14
# ext.joint 14 14 14 14
# ext.joint 14 14 14 14
# ext.joint 14 14 14 14
# ext.joint 14 14 14 14
# ext.joint 14 14 14 14
# ext.joint 14 14 14 14
# ext.joint 14 14 14 14
# ext.joint 14 14 14 14
# ext.joint 14 14 14 14
# ext.joint 14 14 14 14
# ext.joint 14 14 14 14
# ext.joint 14 14 14 14
# ext.joint 14 14 14 14
# ext.joint 14 14 14 14
# ext.joint 14 14 14 14
# ext.joint 14 14 14 14
# ext.joint 14 14 14 14
# ext.joint 14 14 14 14
# ext.joint 14 14 14 14
# ext.joint 14 14 14 14
# ext.joint 14 14 14 14
# ext.joint 14 14 14 14
# ext.joint 14 14 14 14
# ext.joint 14 14 14 14
# ext.weight 1.000000 0.000000 0.000000 0.000000
# ext.weight 1.000000 0.000000 0.000000 0.000000
# ext.weight 1.000000 0.000000 0.000000 0.000000
# ext.weight 1.000000 0.000000 0.000000 0.000000
# ext.weight 1.000000 0.000000 0.000000 0.000000
# ext.weight 1.000000 0.000000 0.000000 0.000000
# ext.weight 1.000000 0.000000 0.000000 0.000000
# ext.weight 1.000000 0.000000 0.000000 0.000000
# ext.weight 1.000000 0.000000 0.000000 0.000000
# ext.weight 1.000000 0.000000 0.000000 0.000000
# ext.weight 1.000000 0.000000 0.000000 0.000000
# ext.weight 1.000000 0.000000 0.000000 0.000000
# ext.weight 1.000000 0.000000 0.000000 0.000000
# ext.weight 1.000000 0.000000 0.000000 0.000000
# ext.weight 1.000000 0.000000 0.000000 0.000000
# ext.weight 1.000000 0.000000 0.000000 0.000000
# ext.weight 1.000000 0.000000 0.000000 0.000000
# ext.weight 1.000000 0.000000 0.000000 0.000000
# ext.weight 1.000000 0.000000 0.000000 0.000000
# ext.weight 1.000000 0.000000 0.000000 0.000000
# ext.weight 1.000000 0.000000 0.000000 0.000000
# ext.weight 1.000000 0.000000 0.000000 0.000000
# ext.weight 1.000000 0.000000 0.000000 0.000000
# ext.weight 1.000000 0.000000 0.000000 0.000000
# ext.weight 1.000000 0.000000 0.000000 0.000000
# ext.weight 1.000000 0.000000 0.000000 0.000000
# ext.weight 1.000000 0.000000 0.000000 0.000000
# ext.weight 1.000000 0.000000 0.000000 0.000000
# ext.weight 1.000000 0.000000 0.000000 0.000000
# ext.weight 1.000000 0.000000 0.000000 0.000000
# ext.weight 1.000000 0.000000 0.000000 0.000000
# ext.weight 1.000000 0.000000 0.000000 0.000000
# ext.weight 1.000000 0.000000 0.000000 0.000000
# ext.weight 1.000000 0.000000 0.000000 0.000000
# ext.weight 1.000000 0.000000 0.000000 0.000000
# ext.weight 1.000000 0.000000 0.000000 0.000000
# ext.weight 1.000000 0.000000 0.000000 0.000000
# ext.weight 1.000000 0.000000 0.000000 0.000000
# ext.weight 1.000000 0.000000 0.000000 0.000000
# ext.weight 1.000000 0.000000 0.000000 0.000000
# ext.weight 1.000000 0.000000 0.000000 0.000000
# ext.weight 1.000000 0.000000 0.000000 0.000000
# ext.weight 1.000000 0.000000 0.000000 0.000000
# ext.weight 1.000000 0.000000 0.000000 0.000000
# ext.weight 1.000000 0.000000 0.000000 0.000000
# ext.weight 1.000000 0.000000 0.000000 0.000000
# ext.weight 1.000000 0.000000 0.000000 0.000000
# ext.weight 1.000000 0.000000 0.000000 0.000000
# ext.weight 1.000000 0.000000 0.000000 0.000000
# ext.weight 1.000000 0.000000 0.000000 0.000000
# ext.weight 1.000000 0.000000 0.000000 0.000000
# ext.weight 1.000000 0.000000 0.000000 0.000000
# ext.weight 1.000000 0.000000 0.000000 0.000000
# ext.weight 1.000000 0.000000 0.000000 0.000000
# ext.weight 1.000000 0.000000 0.000000 0.000000
# ext.weight 1.000000 0.000000 0.000000 0.000000
# ext.weight 1.000000 0.000000 0.000000 0.000000
# ext.weight 1.000000 0.000000 0.000000 0.000000
# ext.weight 1.000000 0.000000 0.000000 0.000000
# ext.weight 1.000000 0.000000 0.000000 0.000000
# ext.weight 1.000000 0.000000 0.000000 0.000000
# ext.weight 1.000000 0.000000 0.000000 0.000000
