v -157.606018 557.723633 -62.353924
v -158.134903 556.786621 -64.484940
v -161.916031 563.155762 -66.347046
v -161.387146 564.092773 -64.216026
v -159.317841 555.589417 -66.177925
v -163.098969 561.958557 -68.040031
v -159.317841 555.589417 -66.177925
v -161.012161 554.276367 -67.228691
v -164.793289 560.645508 -69.090790
v -163.098969 561.958557 -68.040031
v -163.013489 553.005859 -67.510483
v -166.794617 559.375000 -69.372589
v -165.080444 551.931091 -66.989326
v -168.861588 558.300293 -68.851433
v -166.963730 551.181824 -65.728081
v -170.744858 557.550964 -67.590187
v -168.436172 550.848328 -63.878860
v -172.217316 557.217468 -65.740967
v -169.320190 550.970825 -61.664719
v -173.101334 557.340027 -63.526825
v -169.509155 551.534607 -59.352711
v -173.290298 557.903748 -61.214817
v -168.980270 552.471619 -57.221695
v -172.761414 558.840759 -59.083801
v -167.797333 553.668884 -55.528709
v -171.578461 560.038025 -57.390812
v -166.103012 554.981934 -54.477947
v -169.884155 561.351074 -56.340050
v -164.101685 556.252441 -54.196148
v -167.882828 562.621582 -56.058254
v -162.034729 557.327148 -54.717304
v -165.815857 563.696289 -56.579407
v -160.151443 558.076416 -55.978550
v -163.932587 564.445557 -57.840656
v -158.679001 558.409912 -57.827766
v -162.460129 564.779053 -59.689873
v -157.794983 558.287415 -60.041908
v -161.576111 564.656555 -61.904015
v -159.317841 555.589417 -66.177925
v -158.134903 556.786621 -64.484940
v -157.606018 557.723633 -62.353924
v -157.794983 558.287415 -60.041908
v -158.679001 558.409912 -57.827766
v -160.151443 558.076416 -55.978550
v -162.034729 557.327148 -54.717304
v -164.101685 556.252441 -54.196148
v -166.103012 554.981934 -54.477947
v -167.797333 553.668884 -55.528709
v -168.980270 552.471619 -57.221695
v -169.509155 551.534607 -59.352711
v -169.320190 550.970825 -61.664719
v -168.436172 550.848328 -63.878860
v -166.963730 551.181824 -65.728081
v -165.080444 551.931091 -66.989326
v -163.013489 553.005859 -67.510483
v -161.012161 554.276367 -67.228691
v -163.932587 564.445557 -57.840656
v -162.460129 564.779053 -59.689873
v -161.576111 564.656555 -61.904015
v -161.387146 564.092773 -64.216026
v -161.916031 563.155762 -66.347046
v -163.098969 561.958557 -68.040031
v -164.793289 560.645508 -69.090790
v -166.794617 559.375000 -69.372589
v -168.861588 558.300293 -68.851433
v -170.744858 557.550964 -67.590187
v -172.217316 557.217468 -65.740967
v -173.101334 557.340027 -63.526825
v -173.290298 557.903748 -61.214817
v -172.761414 558.840759 -59.083801
v -171.578461 560.038025 -57.390812
v -169.884155 561.351074 -56.340050
v -167.882828 562.621582 -56.058254
v -165.815857 563.696289 -56.579407
vt 0.979672 0.063053
vt 0.988234 0.063130
vt 0.988022 0.086925
vt 0.979460 0.086849
vt 0.996796 0.063206
vt 0.996584 0.087002
vt 0.842683 0.061831
vt 0.851245 0.061907
vt 0.851032 0.085703
vt 0.842471 0.085626
vt 0.859807 0.061984
vt 0.859594 0.085779
vt 0.868369 0.062060
vt 0.868156 0.085856
vt 0.876930 0.062137
vt 0.876718 0.085932
vt 0.885492 0.062213
vt 0.885280 0.086009
vt 0.894054 0.062290
vt 0.893841 0.086085
vt 0.902616 0.062366
vt 0.902403 0.086162
vt 0.911178 0.062443
vt 0.910965 0.086238
vt 0.919739 0.062519
vt 0.919527 0.086315
vt 0.928301 0.062596
vt 0.928089 0.086391
vt 0.936863 0.062672
vt 0.936651 0.086468
vt 0.945425 0.062748
vt 0.945213 0.086544
vt 0.953987 0.062825
vt 0.953775 0.086620
vt 0.962548 0.062901
vt 0.962336 0.086697
vt 0.971111 0.062977
vt 0.970898 0.086773
vt 0.983477 0.705688
vt 0.985768 0.710556
vt 0.986297 0.715744
vt 0.984999 0.720626
vt 0.982030 0.724614
vt 0.977750 0.727226
vt 0.972674 0.728146
vt 0.967414 0.727266
vt 0.962605 0.724689
vt 0.958827 0.720728
vt 0.956536 0.715860
vt 0.956007 0.710671
vt 0.957306 0.705789
vt 0.960274 0.701802
vt 0.964554 0.699190
vt 0.969630 0.698269
vt 0.974890 0.699150
vt 0.979699 0.701726
vt 0.920035 0.933372
vt 0.930401 0.928936
vt 0.941659 0.928313
vt 0.952451 0.931578
vt 0.961476 0.938337
vt 0.967644 0.947776
vt 0.970213 0.958754
vt 0.968871 0.969950
vt 0.963782 0.980011
vt 0.955558 0.987725
vt 0.945192 0.992161
vt 0.933934 0.992784
vt 0.923141 0.989519
vt 0.914117 0.982759
vt 0.907948 0.973321
vt 0.905380 0.962342
vt 0.906721 0.951147
vt 0.911811 0.941086
vn 0.865835 0.450190 -0.218308
vn 0.788911 0.313897 -0.528288
vn 0.788911 0.313897 -0.528288
vn 0.865835 0.450190 -0.218308
vn 0.616783 0.139686 -0.774640
vn 0.616783 0.139686 -0.774640
vn 0.616783 0.139686 -0.774640
vn 0.370352 -0.051294 -0.927474
vn 0.370352 -0.051295 -0.927474
vn 0.616783 0.139686 -0.774640
vn 0.079176 -0.236146 -0.968487
vn 0.079176 -0.236146 -0.968487
vn -0.221565 -0.392516 -0.892659
vn -0.221565 -0.392516 -0.892659
vn -0.495564 -0.501527 -0.709145
vn -0.495564 -0.501527 -0.709145
vn -0.709724 -0.550031 -0.440179
vn -0.709724 -0.550030 -0.440179
vn -0.838356 -0.532200 -0.117994
vn -0.838356 -0.532200 -0.117995
vn -0.865835 -0.450190 0.218308
vn -0.865835 -0.450190 0.218308
vn -0.788911 -0.313897 0.528288
vn -0.788911 -0.313897 0.528288
vn -0.616783 -0.139686 0.774640
vn -0.616783 -0.139686 0.774640
vn -0.370352 0.051294 0.927474
vn -0.370352 0.051295 0.927474
vn -0.079176 0.236146 0.968487
vn -0.079176 0.236146 0.968487
vn 0.221565 0.392516 0.892659
vn 0.221565 0.392516 0.892659
vn 0.495564 0.501527 0.709145
vn 0.495564 0.501527 0.709145
vn 0.709724 0.550031 0.440179
vn 0.709724 0.550030 0.440179
vn 0.838356 0.532200 0.117994
vn 0.838356 0.532200 0.117995
vn 0.495079 -0.833938 0.243813
vn 0.495079 -0.833938 0.243813
vn 0.495079 -0.833938 0.243813
vn 0.495079 -0.833938 0.243813
vn 0.495079 -0.833938 0.243813
vn 0.495079 -0.833938 0.243813
vn 0.495079 -0.833938 0.243813
vn 0.495079 -0.833938 0.243813
vn 0.495079 -0.833938 0.243813
vn 0.495079 -0.833938 0.243813
vn 0.495079 -0.833938 0.243813
vn 0.495079 -0.833938 0.243813
vn 0.495079 -0.833938 0.243813
vn 0.495079 -0.833938 0.243813
vn 0.495079 -0.833938 0.243813
vn 0.495079 -0.833938 0.243813
vn 0.495079 -0.833938 0.243813
vn 0.495079 -0.833938 0.243813
vn -0.495079 0.833938 -0.243813
vn -0.495079 0.833938 -0.243813
vn -0.495079 0.833938 -0.243813
vn -0.495079 0.833938 -0.243813
vn -0.495079 0.833938 -0.243813
vn -0.495079 0.833938 -0.243813
vn -0.495079 0.833938 -0.243813
vn -0.495079 0.833938 -0.243813
vn -0.495079 0.833938 -0.243813
vn -0.495079 0.833938 -0.243813
vn -0.495079 0.833938 -0.243813
vn -0.495079 0.833938 -0.243813
vn -0.495079 0.833938 -0.243813
vn -0.495079 0.833938 -0.243813
vn -0.495079 0.833938 -0.243813
vn -0.495079 0.833938 -0.243813
vn -0.495079 0.833938 -0.243813
vn -0.495079 0.833938 -0.243813
f 1/1/1 2/2/2 3/3/3
f 1/1/1 3/3/3 4/4/4
f 2/2/2 5/5/5 6/6/6
f 2/2/2 6/6/6 3/3/3
f 7/7/7 8/8/8 9/9/9
f 7/7/7 9/9/9 10/10/10
f 8/8/8 11/11/11 12/12/12
f 8/8/8 12/12/12 9/9/9
f 11/11/11 13/13/13 14/14/14
f 11/11/11 14/14/14 12/12/12
f 13/13/13 15/15/15 16/16/16
f 13/13/13 16/16/16 14/14/14
f 15/15/15 17/17/17 18/18/18
f 15/15/15 18/18/18 16/16/16
f 17/17/17 19/19/19 20/20/20
f 17/17/17 20/20/20 18/18/18
f 19/19/19 21/21/21 22/22/22
f 19/19/19 22/22/22 20/20/20
f 21/21/21 23/23/23 24/24/24
f 21/21/21 24/24/24 22/22/22
f 23/23/23 25/25/25 26/26/26
f 23/23/23 26/26/26 24/24/24
f 25/25/25 27/27/27 28/28/28
f 25/25/25 28/28/28 26/26/26
f 27/27/27 29/29/29 30/30/30
f 27/27/27 30/30/30 28/28/28
f 29/29/29 31/31/31 32/32/32
f 29/29/29 32/32/32 30/30/30
f 31/31/31 33/33/33 34/34/34
f 31/31/31 34/34/34 32/32/32
f 33/33/33 35/35/35 36/36/36
f 33/33/33 36/36/36 34/34/34
f 35/35/35 37/37/37 38/38/38
f 35/35/35 38/38/38 36/36/36
f 37/37/37 1/1/1 4/4/4
f 37/37/37 4/4/4 38/38/38
f 39/39/39 40/40/40 41/41/41
f 39/39/39 41/41/41 42/42/42
f 39/39/39 42/42/42 43/43/43
f 39/39/39 43/43/43 44/44/44
f 39/39/39 44/44/44 45/45/45
f 39/39/39 45/45/45 46/46/46
f 39/39/39 46/46/46 47/47/47
f 39/39/39 47/47/47 48/48/48
f 39/39/39 48/48/48 49/49/49
f 39/39/39 49/49/49 50/50/50
f 39/39/39 50/50/50 51/51/51
f 39/39/39 51/51/51 52/52/52
f 39/39/39 52/52/52 53/53/53
f 39/39/39 53/53/53 54/54/54
f 39/39/39 54/54/54 55/55/55
f 39/39/39 55/55/55 56/56/56
f 57/57/57 58/58/58 59/59/59
f 57/57/57 59/59/59 60/60/60
f 57/57/57 60/60/60 61/61/61
f 57/57/57 61/61/61 62/62/62
f 57/57/57 62/62/62 63/63/63
f 57/57/57 63/63/63 64/64/64
f 57/57/57 64/64/64 65/65/65
f 57/57/57 65/65/65 66/66/66
f 57/57/57 66/66/66 67/67/67
f 57/57/57 67/67/67 68/68/68
f 57/57/57 68/68/68 69/69/69
f 57/57/57 69/69/69 70/70/70
f 57/57/57 70/70/70 71/71/71
f 57/57/57 71/71/71 72/72/72
f 57/57/57 72/72/72 73/73/73
f 57/57/57 73/73/73 74/74/74
# ext.tangent -0.067134 -0.327848 -0.942342 1.0
# ext.tangent -0.358852 -0.462550 -0.810724 1.0
# ext.tangent -0.358852 -0.462549 -0.810724 1.0
# ext.tangent -0.067134 -0.327848 -0.942342 1.0
# ext.tangent -0.606755 -0.542543 -0.580943 1.0
# ext.tangent -0.606755 -0.542543 -0.580944 1.0
# ext.tangent -0.606738 -0.542571 -0.580935 1.0
# ext.tangent -0.780746 -0.558152 -0.280893 1.0
# ext.tangent -0.780747 -0.558152 -0.280893 1.0
# ext.tangent -0.606738 -0.542571 -0.580935 1.0
# ext.tangent -0.860013 -0.507467 0.053428 1.0
# ext.tangent -0.860013 -0.507467 0.053428 1.0
# ext.tangent -0.834904 -0.396607 0.381625 1.0
# ext.tangent -0.834904 -0.396608 0.381625 1.0
# ext.tangent -0.708451 -0.238957 0.664076 1.0
# ext.tangent -0.708450 -0.238958 0.664077 1.0
# ext.tangent -0.495988 -0.053592 0.866674 1.0
# ext.tangent -0.495987 -0.053592 0.866674 1.0
# ext.tangent -0.222975 0.137270 0.965111 1.0
# ext.tangent -0.222974 0.137269 0.965111 1.0
# ext.tangent 0.077458 0.310457 0.947426 1.0
# ext.tangent 0.077459 0.310457 0.947426 1.0
# ext.tangent 0.369173 0.445165 0.815806 1.0
# ext.tangent 0.369175 0.445161 0.815807 1.0
# ext.tangent 0.617074 0.525160 0.586025 1.0
# ext.tangent 0.617076 0.525158 0.586026 1.0
# ext.tangent 0.791081 0.540745 0.285983 1.0
# ext.tangent 0.791083 0.540742 0.285984 1.0
# ext.tangent 0.870345 0.490064 -0.048340 1.0
# ext.tangent 0.870347 0.490061 -0.048339 1.0
# ext.tangent 0.845233 0.379209 -0.376538 1.0
# ext.tangent 0.845235 0.379205 -0.376537 1.0
# ext.tangent 0.718778 0.221562 -0.658991 1.0
# ext.tangent 0.718779 0.221559 -0.658990 1.0
# ext.tangent 0.506314 0.036198 -0.861589 1.0
# ext.tangent 0.506315 0.036196 -0.861589 1.0
# ext.tangent 0.233300 -0.154661 -0.960027 1.0
# ext.tangent 0.233300 -0.154661 -0.960027 1.0
# ext.tangent 0.840990 0.389462 -0.375573 1.0
# ext.tangent 0.840990 0.389461 -0.375575 1.0
# ext.tangent 0.840991 0.389463 -0.375571 1.0
# ext.tangent 0.840994 0.389468 -0.375558 1.0
# ext.tangent 0.840995 0.389470 -0.375554 1.0
# ext.tangent 0.840992 0.389465 -0.375566 1.0
# ext.tangent 0.840988 0.389459 -0.375580 1.0
# ext.tangent 0.840990 0.389462 -0.375573 1.0
# ext.tangent 0.840990 0.389462 -0.375573 1.0
# ext.tangent 0.840989 0.389461 -0.375576 1.0
# ext.tangent 0.840991 0.389463 -0.375570 1.0
# ext.tangent 0.840989 0.389461 -0.375575 1.0
# ext.tangent 0.840989 0.389460 -0.375577 1.0
# ext.tangent 0.840988 0.389459 -0.375579 1.0
# ext.tangent 0.840991 0.389465 -0.375567 1.0
# ext.tangent 0.840989 0.389460 -0.375579 1.0
# ext.tangent 0.840985 0.389453 -0.375594 1.0
# ext.tangent 0.840988 0.389458 -0.375583 1.0
# ext.tangent 0.326317 -0.081605 -0.941731 1.0
# ext.tangent 0.326317 -0.081605 -0.941731 1.0
# ext.tangent 0.326318 -0.081604 -0.941731 1.0
# ext.tangent 0.326319 -0.081604 -0.941731 1.0
# ext.tangent 0.326318 -0.081604 -0.941731 1.0
# ext.tangent 0.326317 -0.081605 -0.941731 1.0
# ext.tangent 0.326316 -0.081606 -0.941732 1.0
# ext.tangent 0.326317 -0.081605 -0.941731 1.0
# ext.tangent 0.326319 -0.081604 -0.941731 1.0
# ext.tangent 0.326314 -0.081607 -0.941732 1.0
# ext.tangent 0.326314 -0.081607 -0.941732 1.0
# ext.tangent 0.326319 -0.081604 -0.941731 1.0
# ext.tangent 0.326322 -0.081602 -0.941730 1.0
# ext.tangent 0.326324 -0.081600 -0.941729 1.0
# ext.tangent 0.326309 -0.081610 -0.941733 1.0
# ext.tangent 0.326305 -0.081613 -0.941735 1.0
# ext.tangent 0.326324 -0.081600 -0.941729 1.0
# ext.tangent 0.326331 -0.081595 -0.941727 1.0
# ext.joint 41 41 41 41
# ext.joint 41 41 41 41
# ext.joint 41 41 41 41
# ext.joint 41 41 41 41
# ext.joint 41 41 41 41
# ext.joint 41 41 41 41
# ext.joint 41 41 41 41
# ext.joint 41 41 41 41
# ext.joint 41 41 41 41
# ext.joint 41 41 41 41
# ext.joint 41 41 41 41
# ext.joint 41 41 41 41
# ext.joint 41 41 41 41
# ext.joint 41 41 41 41
# ext.joint 41 41 41 41
# ext.joint 41 41 41 41
# ext.joint 41 41 41 41
# ext.joint 41 41 41 41
# ext.joint 41 41 41 41
# ext.joint 41 41 41 41
# ext.joint 41 41 41 41
# ext.joint 41 41 41 41
# ext.joint 41 41 41 41
# ext.joint 41 41 41 41
# ext.joint 41 41 41 41
# ext.joint 41 41 41 41
# ext.joint 41 41 41 41
# ext.joint 41 41 41 41
# ext.joint 41 41 41 41
# ext.joint 41 41 41 41
# ext.joint 41 41 41 41
# ext.joint 41 41 41 41
# ext.joint 41 41 41 41
# ext.joint 41 41 41 41
# ext.joint 41 41 41 41
# ext.joint 41 41 41 41
# ext.joint 41 41 41 41
# ext.joint 41 41 41 41
# ext.joint 41 41 41 41
# ext.joint 41 41 41 41
# ext.joint 41 41 41 41
# ext.joint 41 41 41 41
# ext.joint 41 41 41 41
# ext.joint 41 41 41 41
# ext.joint 41 41 41 41
# ext.joint 41 41 41 41
# ext.joint 41 41 41 41
# ext.joint 41 41 41 41
# ext.joint 41 41 41 41
# ext.joint 41 41 41 41
# ext.joint 41 41 41 41
# ext.joint 41 41 41 41
# ext.joint 41 41 41 41
# ext.joint 41 41 41 41
# ext.joint 41 41 41 41
# ext.joint 41 41 41 41
# ext.joint 41 41 41 41
# ext.joint 41 41 41 41
# ext.joint 41 41 41 41
# ext.joint 41 41 41 41
# ext.joint 41 41 41 41
# ext.joint 41 41 41 41
# ext.joint 41 41 41 41
# ext.joint 41 41 41 41
# ext.joint 41 41 41 41
# ext.joint 41 41 41 41
# ext.joint 41 41 41 41
# ext.joint 41 41 41 41
# ext.joint 41 41 41 41
# ext.joint 41 41 41 41
# ext.joint 41 41 41 41
# ext.joint 41 41 41 41
# ext.joint 41 41 41 41
# ext.joint 41 41 41 41
# ext.weight 1.000000 0.000000 0.000000 0.000000
# ext.weight 1.000000 0.000000 0.000000 0.000000
# ext.weight 1.000000 0.000000 0.000000 0.000000
# ext.weight 1.000000 0.000000 0.000000 0.000000
# ext.weight 1.000000 0.000000 0.000000 0.000000
# ext.weight 1.000000 0.000000 0.000000 0.000000
# ext.weight 1.000000 0.000000 0.000000 0.000000
# ext.weight 1.000000 0.000000 0.000000 0.000000
# ext.weight 1.000000 0.000000 0.000000 0.000000
# ext.weight 1.000000 0.000000 0.000000 0.000000
# ext.weight 1.000000 0.000000 0.000000 0.000000
# ext.weight 1.000000 0.000000 0.000000 0.000000
# ext.weight 1.000000 0.000000 0.000000 0.000000
# ext.weight 1.000000 0.000000 0.000000 0.000000
# ext.weight 1.000000 0.000000 0.000000 0.000000
# ext.weight 1.000000 0.000000 0.000000 0.000000
# ext.weight 1.000000 0.000000 0.000000 0.000000
# ext.weight 1.000000 0.000000 0.000000 0.000000
# ext.weight 1.000000 0.000000 0.000000 0.000000
# ext.weight 1.000000 0.000000 0.000000 0.000000
# ext.weight 1.000000 0.000000 0.000000 0.000000
# ext.weight 1.000000 0.000000 0.000000 0.000000
# ext.weight 1.000000 0.000000 0.000000 0.000000
# ext.weight 1.000000 0.000000 0.000000 0.000000
# ext.weight 1.000000 0.000000 0.000000 0.000000
# ext.weight 1.000000 0.000000 0.000000 0.000000
# ext.weight 1.000000 0.000000 0.000000 0.000000
# ext.weight 1.000000 0.000000 0.000000 0.000000
# ext.weight 1.000000 0.000000 0.000000 0.000000
# ext.weight 1.000000 0.000000 0.000000 0.000000
# ext.weight 1.000000 0.000000 0.000000 0.000000
# ext.weight 1.000000 0.000000 0.000000 0.000000
# ext.weight 1.000000 0.000000 0.000000 0.000000
# ext.weight 1.000000 0.000000 0.000000 0.000000
# ext.weight 1.000000 0.000000 0.000000 0.000000
# ext.weight 1.000000 0.000000 0.000000 0.000000
# ext.weight 1.000000 0.000000 0.000000 0.000000
# ext.weight 1.000000 0.000000 0.000000 0.000000
# ext.weight 1.000000 0.000000 0.000000 0.000000
# ext.weight 1.000000 0.000000 0.000000 0.000000
# ext.weight 1.000000 0.000000 0.000000 0.000000
# ext.weight 1.000000 0.000000 0.000000 0.000000
# ext.weight 1.000000 0.000000 0.000000 0.000000
# ext.weight 1.000000 0.000000 0.000000 0.000000
# ext.weight 1.000000 0.000000 0.000000 0.000000
# ext.weight 1.000000 0.000000 0.000000 0.000000
# ext.weight 1.000000 0.000000 0.000000 0.000000
# ext.weight 1.000000 0.000000 0.000000 0.000000
# ext.weight 1.000000 0.000000 0.000000 0.000000
# ext.weight 1.000000 0.000000 0.000000 0.000000
# ext.weight 1.000000 0.000000 0.000000 0.000000
# ext.weight 1.000000 0.000000 0.000000 0.000000
# ext.weight 1.000000 0.000000 0.000000 0.000000
# ext.weight 1.000000 0.000000 0.000000 0.000000
# ext.weight 1.000000 0.000000 0.000000 0.000000
# ext.weight 1.000000 0.000000 0.000000 0.000000
# ext.weight 1.000000 0.000000 0.000000 0.000000
# ext.weight 1.000000 0.000000 0.000000 0.000000
# ext.weight 1.000000 0.000000 0.000000 0.000000
# ext.weight 1.000000 0.000000 0.000000 0.000000
# ext.weight 1.000000 0.000000 0.000000 0.000000
# ext.weight 1.000000 0.000000 0.000000 0.000000
# ext.weight 1.000000 0.000000 0.000000 0.000000
# ext.weight 1.000000 0.000000 0.000000 0.000000
# ext.weight 1.000000 0.000000 0.000000 0.000000
# ext.weight 1.000000 0.000000 0.000000 0.000000
# ext.weight 1.000000 0.000000 0.000000 0.000000
# ext.weight 1.000000 0.000000 0.000000 0.000000
# ext.weight 1.000000 0.000000 0.000000 0.000000
# ext.weight 1.000000 0.000000 0.000000 0.000000
# ext.weight 1.000000 0.000000 0.000000 0.000000
# ext.weight 1.000000 0.000000 0.000000 0.000000
# ext.weight 1.000000 0.000000 0.000000 0.000000
# ext.weight 1.000000 0.000000 0.000000 0.000000
