v -58.117367 152.286499 11.172739
v -57.821510 155.433899 16.313181
v -44.413937 151.590424 11.200483
v -57.893585 154.141556 43.599659
v -58.211452 150.601532 46.681793
v -44.508022 149.905457 46.709534
v -71.720276 154.082275 11.246331
v -71.814354 152.397308 46.755383
v -31.966179 163.645935 44.025883
v -34.602013 161.042023 43.906044
v -27.548409 160.866867 47.684177
v -25.131363 164.430542 47.108555
v -42.070835 154.458130 43.328838
v -34.865829 152.122940 46.942112
v -20.242247 159.799683 42.943974
v -22.119570 156.935669 43.415829
v -40.048508 146.051758 42.755295
v -28.586119 149.352493 43.041553
v -58.560715 146.847229 42.716137
v -31.903299 164.784836 19.600756
v -25.049980 165.894135 16.061756
v -27.456062 162.532883 12.170480
v -34.534996 162.253006 18.028088
v -28.613377 150.623398 14.891855
v -39.975506 147.371536 14.530213
v -42.002079 155.688065 17.455524
v -34.771339 153.812729 11.413235
v -42.002079 155.688065 17.455524
v -42.070835 154.458130 43.328838
v -37.235561 157.511002 43.602905
v -37.168541 158.721970 17.724947
v -57.821510 155.433899 16.313181
v -57.893585 154.141556 43.599659
v -20.176924 160.953033 18.277431
v -22.065701 158.231659 15.240402
v -58.487713 148.167023 14.491055
v -37.235561 157.511002 43.602905
v -30.594627 156.398361 47.312737
v -24.595705 153.222672 43.279495
v -30.501873 158.069214 11.779222
v -37.168541 158.721970 17.724947
v -34.534996 162.253006 18.028088
v -34.602013 161.042023 43.906044
v -24.516947 154.540344 15.088300
v -81.670860 168.181747 44.109341
v -88.240448 170.189575 47.214516
v -86.506454 166.247101 47.783165
v -79.550285 165.143799 43.981514
v -73.398499 157.316956 43.381439
v -80.895088 156.323349 47.019394
v -93.900864 166.521423 43.067646
v -92.571381 163.364761 43.534119
v -87.585503 154.736496 43.140614
v -76.910896 149.415634 42.817184
v -81.607979 169.320648 19.684208
v -79.483269 166.354767 18.103558
v -86.414116 167.913116 12.269468
v -88.159065 171.653168 16.167715
v -87.422485 155.990036 14.990595
v -76.837898 150.735428 14.592105
v -73.329742 158.546875 17.508121
v -80.800598 158.013138 11.490518
v -73.329742 158.546875 17.508121
v -77.533371 162.405472 17.792719
v -77.600388 161.194504 43.670677
v -73.398499 157.316956 43.381439
v -92.483704 164.657684 15.358634
v -93.838570 167.675049 18.401110
v -84.320618 161.301147 47.402943
v -77.600388 161.194504 43.670677
v -90.808670 159.264969 43.390667
v -77.533371 162.405472 17.792719
v -84.227859 162.972000 11.869428
v -90.741600 160.583694 15.199491
v -79.483269 166.354767 18.103558
v -79.550285 165.143799 43.981514
v -24.664825 165.322372 42.797573
v -88.552223 171.152435 42.904842
v -81.107338 168.449768 40.572979
v -81.607979 169.320648 19.684208
v -81.107338 168.449768 40.572979
v -81.670860 168.181747 44.109341
vt 0.296700 0.290323
vt 0.298506 0.278787
vt 0.275284 0.289707
vt 0.286436 0.354062
vt 0.287696 0.345386
vt 0.266866 0.339970
vt 0.317451 0.296346
vt 0.308826 0.346175
vt 0.232007 0.328839
vt 0.237484 0.337762
vt 0.240871 0.328056
vt 0.239709 0.325739
vt 0.258315 0.347248
vt 0.253835 0.334621
vt 0.243973 0.322967
vt 0.245694 0.323833
vt 0.265430 0.330709
vt 0.253489 0.326482
vt 0.289087 0.336260
vt 0.238629 0.290038
vt 0.245051 0.294542
vt 0.249104 0.292841
vt 0.245977 0.283217
vt 0.258892 0.297951
vt 0.271116 0.297476
vt 0.268433 0.277489
vt 0.261605 0.290954
vt 0.217616 0.286377
vt 0.213152 0.323890
vt 0.220773 0.325575
vt 0.225970 0.287035
vt 0.196414 0.282917
vt 0.192284 0.321715
vt 0.248861 0.299535
vt 0.251113 0.297757
vt 0.295273 0.299224
vt 0.246501 0.343169
vt 0.246061 0.331664
vt 0.248887 0.324900
vt 0.254129 0.291452
vt 0.255770 0.279207
vt 0.232921 0.287599
vt 0.226888 0.327292
vt 0.254213 0.297944
vt 0.342015 0.347330
vt 0.338154 0.341675
vt 0.335863 0.343363
vt 0.335195 0.352861
vt 0.314578 0.355247
vt 0.322304 0.345125
vt 0.335521 0.337634
vt 0.333418 0.337909
vt 0.325333 0.337910
vt 0.313027 0.338105
vt 0.353629 0.308935
vt 0.348473 0.299556
vt 0.342080 0.307997
vt 0.345558 0.311079
vt 0.330521 0.309657
vt 0.318886 0.305147
vt 0.327973 0.286663
vt 0.330312 0.301957
vt 0.175296 0.282652
vt 0.167547 0.282287
vt 0.164022 0.318653
vt 0.171663 0.319107
vt 0.338353 0.312096
vt 0.339977 0.314446
vt 0.330097 0.344858
vt 0.326107 0.354835
vt 0.330055 0.337889
vt 0.339961 0.292346
vt 0.337527 0.304932
vt 0.335156 0.311239
vt 0.161403 0.282050
vt 0.157908 0.318450
vt 0.238752 0.323236
vt 0.340580 0.339860
vt 0.348933 0.342769
vt 0.156198 0.283690
vt 0.153555 0.313276
vt 0.152909 0.318087
vn 0.011961 0.149282 -0.988722
vn 0.086097 0.949056 -0.303117
vn 0.001165 0.112362 -0.993667
vn 0.080830 0.877038 0.473572
vn -0.005476 -0.078369 0.996909
vn -0.011765 -0.126842 0.991853
vn 0.015815 0.110935 -0.993702
vn -0.008027 -0.127206 0.991844
vn -0.553387 0.737744 0.386648
vn -0.742179 0.481869 0.465803
vn 0.018257 0.029658 0.999393
vn 0.314458 0.648849 0.692901
vn -0.295007 0.804807 0.515030
vn 0.013710 -0.169137 0.985497
vn 0.948989 0.002861 0.315297
vn 0.776547 -0.422554 0.467356
vn 0.154864 -0.909729 0.385241
vn 0.520506 -0.742977 0.420784
vn -0.083795 -0.925073 0.370429
vn -0.523738 0.836976 -0.158650
vn 0.312566 0.841886 -0.439921
vn 0.043237 0.425423 -0.903961
vn -0.726018 0.603756 -0.329206
vn 0.534124 -0.688123 -0.491119
vn 0.166348 -0.864318 -0.474639
vn -0.298712 0.897840 -0.323505
vn -0.009752 0.072213 -0.997342
vn -0.298712 0.897840 -0.323505
vn -0.295007 0.804807 0.515030
vn -0.672857 0.536249 0.509608
vn -0.688557 0.634568 -0.351017
vn 0.086097 0.949056 -0.303117
vn 0.080830 0.877038 0.473572
vn 0.972357 0.091294 -0.214912
vn 0.820988 -0.197322 -0.535764
vn -0.081504 -0.884693 -0.458994
vn -0.672857 0.536249 0.509608
vn -0.003185 -0.079831 0.996803
vn 0.719182 -0.531585 0.447430
vn -0.084562 0.158263 -0.983769
vn -0.688557 0.634568 -0.351017
vn -0.726018 0.603756 -0.329206
vn -0.742179 0.481869 0.465803
vn 0.728780 -0.463209 -0.504299
vn 0.679911 0.625481 0.382747
vn -0.196734 0.695285 0.691284
vn -0.008697 0.032118 0.999446
vn 0.826662 0.322493 0.461117
vn 0.437581 0.737980 0.513720
vn -0.041056 -0.164136 0.985583
vn -0.931738 0.174435 0.318493
vn -0.838590 -0.275284 0.470091
vn -0.644991 -0.636623 0.422725
vn -0.315868 -0.866735 0.386002
vn 0.676061 0.718832 -0.161933
vn 0.828724 0.450634 -0.331881
vn 0.031495 0.426474 -0.903951
vn -0.161236 0.884371 -0.438054
vn -0.651611 -0.579878 -0.489023
vn -0.321569 -0.819863 -0.473728
vn 0.455206 0.829045 -0.324765
vn 0.019386 0.069584 -0.997388
vn 0.455206 0.829045 -0.324765
vn 0.790717 0.499745 -0.353584
vn 0.760480 0.405440 0.507236
vn 0.437581 0.737980 0.513720
vn -0.844902 -0.045294 -0.533001
vn -0.940485 0.265851 -0.211686
vn -0.008440 -0.079306 0.996815
vn 0.760480 0.405440 0.507236
vn -0.801967 -0.392838 0.450031
vn 0.790717 0.499745 -0.353584
vn 0.108373 0.140651 -0.984110
vn -0.802235 -0.323501 -0.501763
vn 0.828724 0.450634 -0.331881
vn 0.826662 0.322493 0.461117
vn 0.359185 0.932807 0.029271
vn -0.194489 0.980443 0.030092
vn 0.699911 0.713866 0.022830
vn 0.676061 0.718832 -0.161933
vn 0.699911 0.713866 0.022830
vn 0.679911 0.625481 0.382747
f 1/1/1 2/2/2 3/3/3
f 4/4/4 5/5/5 6/6/6
f 1/1/1 7/7/7 2/2/2
f 4/4/4 8/8/8 5/5/5
f 9/9/9 10/10/10 11/11/11
f 9/9/9 11/11/11 12/12/12
f 13/13/13 4/4/4 6/6/6
f 13/13/13 6/6/6 14/14/14
f 15/15/15 12/12/12 11/11/11
f 15/15/15 11/11/11 16/16/16
f 14/14/14 6/6/6 17/17/17
f 14/14/14 17/17/17 18/18/18
f 6/6/6 5/5/5 19/19/19
f 6/6/6 19/19/19 17/17/17
f 20/20/20 21/21/21 22/22/22
f 20/20/20 22/22/22 23/23/23
f 24/24/24 18/18/18 17/17/17
f 24/24/24 17/17/17 25/25/25
f 26/26/26 27/27/27 3/3/3
f 26/26/26 3/3/3 2/2/2
f 28/28/28 29/29/29 30/30/30
f 28/28/28 30/30/30 31/31/31
f 29/29/29 28/28/28 32/32/32
f 29/29/29 32/32/32 33/33/33
f 21/21/21 34/34/34 35/35/35
f 21/21/21 35/35/35 22/22/22
f 27/27/27 24/24/24 25/25/25
f 27/27/27 25/25/25 3/3/3
f 36/36/36 25/25/25 17/17/17
f 36/36/36 17/17/17 19/19/19
f 3/3/3 25/25/25 36/36/36
f 3/3/3 36/36/36 1/1/1
f 10/10/10 37/37/37 38/38/38
f 10/10/10 38/38/38 11/11/11
f 16/16/16 11/11/11 38/38/38
f 16/16/16 38/38/38 39/39/39
f 23/23/23 22/22/22 40/40/40
f 23/23/23 40/40/40 41/41/41
f 20/20/20 42/42/42 43/43/43
f 20/20/20 43/43/43 9/9/9
f 40/40/40 22/22/22 35/35/35
f 40/40/40 35/35/35 44/44/44
f 42/42/42 31/31/31 30/30/30
f 42/42/42 30/30/30 43/43/43
f 37/37/37 13/13/13 14/14/14
f 37/37/37 14/14/14 38/38/38
f 38/38/38 14/14/14 18/18/18
f 38/38/38 18/18/18 39/39/39
f 41/41/41 40/40/40 27/27/27
f 41/41/41 27/27/27 26/26/26
f 40/40/40 44/44/44 24/24/24
f 40/40/40 24/24/24 27/27/27
f 18/18/18 24/24/24 44/44/44
f 18/18/18 44/44/44 39/39/39
f 44/44/44 35/35/35 16/16/16
f 44/44/44 16/16/16 39/39/39
f 15/15/15 16/16/16 35/35/35
f 15/15/15 35/35/35 34/34/34
f 45/45/45 46/46/46 47/47/47
f 45/45/45 47/47/47 48/48/48
f 49/49/49 50/50/50 8/8/8
f 49/49/49 8/8/8 4/4/4
f 51/51/51 52/52/52 47/47/47
f 51/51/51 47/47/47 46/46/46
f 50/50/50 53/53/53 54/54/54
f 50/50/50 54/54/54 8/8/8
f 8/8/8 54/54/54 19/19/19
f 8/8/8 19/19/19 5/5/5
f 55/55/55 56/56/56 57/57/57
f 55/55/55 57/57/57 58/58/58
f 54/54/54 53/53/53 59/59/59
f 54/54/54 59/59/59 60/60/60
f 61/61/61 2/2/2 7/7/7
f 61/61/61 7/7/7 62/62/62
f 63/63/63 64/64/64 65/65/65
f 63/63/63 65/65/65 66/66/66
f 32/32/32 63/63/63 66/66/66
f 32/32/32 66/66/66 33/33/33
f 58/58/58 57/57/57 67/67/67
f 58/58/58 67/67/67 68/68/68
f 62/62/62 7/7/7 60/60/60
f 62/62/62 60/60/60 59/59/59
f 36/36/36 19/19/19 54/54/54
f 36/36/36 54/54/54 60/60/60
f 7/7/7 1/1/1 36/36/36
f 7/7/7 36/36/36 60/60/60
f 48/48/48 47/47/47 69/69/69
f 48/48/48 69/69/69 70/70/70
f 52/52/52 71/71/71 69/69/69
f 52/52/52 69/69/69 47/47/47
f 56/56/56 72/72/72 73/73/73
f 56/56/56 73/73/73 57/57/57
f 73/73/73 74/74/74 67/67/67
f 73/73/73 67/67/67 57/57/57
f 75/75/75 76/76/76 65/65/65
f 75/75/75 65/65/65 64/64/64
f 70/70/70 69/69/69 50/50/50
f 70/70/70 50/50/50 49/49/49
f 69/69/69 71/71/71 53/53/53
f 69/69/69 53/53/53 50/50/50
f 72/72/72 61/61/61 62/62/62
f 72/72/72 62/62/62 73/73/73
f 73/73/73 62/62/62 59/59/59
f 73/73/73 59/59/59 74/74/74
f 74/74/74 59/59/59 53/53/53
f 74/74/74 53/53/53 71/71/71
f 52/52/52 67/67/67 74/74/74
f 52/52/52 74/74/74 71/71/71
f 67/67/67 52/52/52 51/51/51
f 67/67/67 51/51/51 68/68/68
f 77/77/77 12/12/12 15/15/15
f 77/77/77 15/15/15 34/34/34
f 77/77/77 34/34/34 21/21/21
f 77/77/77 21/21/21 20/20/20
f 77/77/77 20/20/20 9/9/9
f 77/77/77 9/9/9 12/12/12
f 78/78/78 58/58/58 68/68/68
f 78/78/78 68/68/68 51/51/51
f 78/78/78 51/51/51 46/46/46
f 78/78/78 46/46/46 45/45/45
f 78/78/78 45/45/45 79/79/79
f 78/78/78 79/79/79 55/55/55
f 78/78/78 55/55/55 58/58/58
f 76/76/76 75/75/75 80/80/80
f 76/76/76 80/80/80 81/81/81
f 76/76/76 81/81/81 82/82/82
# ext.tangent -0.983903 0.178132 0.014310 -1.0
# ext.tangent -0.981980 0.128090 0.138956 -1.0
# ext.tangent -0.997962 -0.063364 -0.007539 -1.0
# ext.tangent -0.992940 0.032717 0.114016 -1.0
# ext.tangent -0.999990 -0.001057 -0.004333 -1.0
# ext.tangent -0.964885 -0.259439 -0.041097 -1.0
# ext.tangent -0.900406 0.433937 0.031124 -1.0
# ext.tangent -0.971732 0.235180 0.020671 -1.0
# ext.tangent 0.770304 0.147819 0.620307 -1.0
# ext.tangent -0.074952 -0.725420 0.684214 -1.0
# ext.tangent 0.192358 -0.980195 0.047074 -1.0
# ext.tangent 0.658611 -0.646512 0.385036 -1.0
# ext.tangent -0.881539 -0.400522 0.249941 -1.0
# ext.tangent -0.703928 -0.702010 -0.108013 -1.0
# ext.tangent 0.083143 -0.986921 -0.138109 -1.0
# ext.tangent -0.417349 -0.883537 -0.212563 -1.0
# ext.tangent -0.957735 -0.198938 -0.207765 -1.0
# ext.tangent -0.755880 -0.585277 -0.293423 -1.0
# ext.tangent -0.991864 0.047852 -0.117966 -1.0
# ext.tangent 0.762646 0.291022 -0.577648 -1.0
# ext.tangent 0.402955 -0.491687 -0.771927 -1.0
# ext.tangent -0.118889 -0.888833 -0.442540 -1.0
# ext.tangent -0.299856 -0.652726 -0.695727 -1.0
# ext.tangent -0.866439 -0.495745 -0.059337 -1.0
# ext.tangent -0.990662 -0.136301 -0.003359 -1.0
# ext.tangent -0.954488 -0.280737 -0.100697 -1.0
# ext.tangent -0.860537 -0.508931 -0.021580 -1.0
# ext.tangent 0.970187 0.238427 -0.043466 -1.0
# ext.tangent 0.951411 0.302578 -0.057134 -1.0
# ext.tangent 0.676456 0.734548 -0.053353 -1.0
# ext.tangent 0.747932 0.663518 -0.018474 -1.0
# ext.tangent 0.989630 -0.114244 -0.087073 -1.0
# ext.tangent 0.995109 -0.046854 -0.086968 -1.0
# ext.tangent 0.048969 -0.952017 -0.302103 -1.0
# ext.tangent -0.420241 -0.879935 -0.221611 -1.0
# ext.tangent -0.980945 0.150977 -0.122278 -1.0
# ext.tangent -0.496331 -0.802619 0.330846 -1.0
# ext.tangent -0.243649 -0.967679 -0.065061 -1.0
# ext.tangent -0.528998 -0.808259 -0.258610 -1.0
# ext.tangent -0.537653 -0.838638 -0.087269 -1.0
# ext.tangent -0.633390 -0.718029 -0.288533 -1.0
# ext.tangent 0.714982 0.698318 -0.033948 -1.0
# ext.tangent 0.580779 0.809382 -0.087157 -1.0
# ext.tangent -0.666448 -0.737076 -0.112100 -1.0
# ext.tangent 0.312437 0.249358 -0.916626 -1.0
# ext.tangent 0.355475 0.675947 -0.645549 -1.0
# ext.tangent -0.029383 0.998115 -0.053883 -1.0
# ext.tangent -0.215096 0.901925 -0.374519 -1.0
# ext.tangent -0.898728 0.438446 0.007344 -1.0
# ext.tangent -0.774003 0.629100 0.071785 -1.0
# ext.tangent 0.154189 0.977099 -0.146638 -1.0
# ext.tangent -0.373817 0.927494 0.004039 -1.0
# ext.tangent -0.752274 0.657632 0.040045 -1.0
# ext.tangent -0.958100 0.281814 -0.051237 -1.0
# ext.tangent 0.690070 -0.427813 0.583763 -1.0
# ext.tangent 0.088207 0.448627 0.889355 -1.0
# ext.tangent 0.489931 0.774688 0.399782 -1.0
# ext.tangent 0.772006 0.344390 0.534230 -1.0
# ext.tangent -0.650123 0.736520 -0.186760 -1.0
# ext.tangent -0.869154 0.426827 -0.249779 -1.0
# ext.tangent -0.759089 0.497887 0.419395 -1.0
# ext.tangent -0.544591 0.837847 0.037852 -1.0
# ext.tangent 0.881514 -0.454423 -0.128189 -1.0
# ext.tangent 0.579253 -0.809729 -0.093830 -1.0
# ext.tangent 0.608086 -0.787716 -0.098662 -1.0
# ext.tangent 0.918271 -0.379791 -0.111967 -1.0
# ext.tangent -0.104765 0.994461 0.008444 -1.0
# ext.tangent 0.299410 0.953744 0.026964 -1.0
# ext.tangent -0.387152 0.920175 0.058234 -1.0
# ext.tangent -0.543046 0.839080 -0.032336 -1.0
# ext.tangent -0.493975 0.868395 0.043337 -1.0
# ext.tangent -0.283382 0.746279 0.602297 -1.0
# ext.tangent -0.071237 0.989224 0.127913 -1.0
# ext.tangent -0.410637 0.907669 -0.086688 -1.0
# ext.tangent 0.514619 -0.849054 -0.119475 -1.0
# ext.tangent 0.498692 -0.860713 -0.102374 -1.0
# ext.tangent 0.949499 -0.313739 0.004353 -1.0
# ext.tangent 0.901435 0.150942 -0.405747 -1.0
# ext.tangent 0.678772 -0.522777 -0.515726 -1.0
# ext.tangent 0.765302 -0.624921 -0.154230 -1.0
# ext.tangent 0.777369 -0.623554 -0.082934 -1.0
# ext.tangent 0.752532 -0.658456 -0.011431 -1.0
# ext.joint 9 8 9 9
# ext.joint 9 8 9 9
# ext.joint 9 8 9 9
# ext.joint 8 9 9 9
# ext.joint 8 9 9 9
# ext.joint 8 9 9 9
# ext.joint 9 8 9 9
# ext.joint 8 9 9 9
# ext.joint 8 9 9 9
# ext.joint 8 9 9 9
# ext.joint 8 9 9 9
# ext.joint 8 9 9 9
# ext.joint 8 9 9 9
# ext.joint 8 9 9 9
# ext.joint 8 9 9 9
# ext.joint 8 9 9 9
# ext.joint 8 9 9 9
# ext.joint 8 9 9 9
# ext.joint 8 9 9 9
# ext.joint 8 9 9 9
# ext.joint 8 9 9 9
# ext.joint 8 9 9 9
# ext.joint 9 8 9 9
# ext.joint 9 8 9 9
# ext.joint 9 8 9 9
# ext.joint 9 8 9 9
# ext.joint 9 8 9 9
# ext.joint 9 8 9 9
# ext.joint 8 9 9 9
# ext.joint 8 9 9 9
# ext.joint 9 8 9 9
# ext.joint 9 8 9 9
# ext.joint 8 9 9 9
# ext.joint 8 9 9 9
# ext.joint 8 9 9 9
# ext.joint 9 8 9 9
# ext.joint 8 9 9 9
# ext.joint 8 9 9 9
# ext.joint 8 9 9 9
# ext.joint 9 8 9 9
# ext.joint 9 8 9 9
# ext.joint 9 8 9 9
# ext.joint 8 9 9 9
# ext.joint 9 8 9 9
# ext.joint 8 9 9 9
# ext.joint 8 9 9 9
# ext.joint 8 9 9 9
# ext.joint 8 9 9 9
# ext.joint 8 9 9 9
# ext.joint 8 9 9 9
# ext.joint 8 9 9 9
# ext.joint 8 9 9 9
# ext.joint 8 9 9 9
# ext.joint 8 9 9 9
# ext.joint 8 9 9 9
# ext.joint 8 9 9 9
# ext.joint 8 9 9 9
# ext.joint 8 9 9 9
# ext.joint 9 8 9 9
# ext.joint 9 8 9 9
# ext.joint 9 8 9 9
# ext.joint 9 8 9 9
# ext.joint 9 8 9 9
# ext.joint 9 8 9 9
# ext.joint 8 9 9 9
# ext.joint 8 9 9 9
# ext.joint 8 9 9 9
# ext.joint 8 9 9 9
# ext.joint 8 9 9 9
# ext.joint 8 9 9 9
# ext.joint 8 9 9 9
# ext.joint 9 8 9 9
# ext.joint 9 8 9 9
# ext.joint 8 9 9 9
# ext.joint 8 9 9 9
# ext.joint 8 9 9 9
# ext.joint 8 9 9 9
# ext.joint 8 9 9 9
# ext.joint 8 9 9 9
# ext.joint 8 9 9 9
# ext.joint 8 9 9 9
# ext.joint 8 9 9 9
# ext.weight 0.804867 0.195133 0.000000 0.000000
# ext.weight 0.727794 0.272206 0.000000 0.000000
# ext.weight 0.785686 0.214314 0.000000 0.000000
# ext.weight 0.900000 0.100000 0.000000 0.000000
# ext.weight 0.900000 0.100000 0.000000 0.000000
# ext.weight 0.900000 0.100000 0.000000 0.000000
# ext.weight 0.774752 0.225248 0.000000 0.000000
# ext.weight 0.900000 0.100000 0.000000 0.000000
# ext.weight 0.900000 0.100000 0.000000 0.000000
# ext.weight 0.900000 0.100000 0.000000 0.000000
# ext.weight 0.900000 0.100000 0.000000 0.000000
# ext.weight 0.900000 0.100000 0.000000 0.000000
# ext.weight 0.900000 0.100000 0.000000 0.000000
# ext.weight 0.900000 0.100000 0.000000 0.000000
# ext.weight 0.900000 0.100000 0.000000 0.000000
# ext.weight 0.900000 0.100000 0.000000 0.000000
# ext.weight 0.900000 0.100000 0.000000 0.000000
# ext.weight 0.900000 0.100000 0.000000 0.000000
# ext.weight 0.900000 0.100000 0.000000 0.000000
# ext.weight 0.568512 0.431488 0.000000 0.000000
# ext.weight 0.620923 0.379077 0.000000 0.000000
# ext.weight 0.522402 0.477598 0.000000 0.000000
# ext.weight 0.500058 0.499942 0.000000 0.000000
# ext.weight 0.646443 0.353557 0.000000 0.000000
# ext.weight 0.794211 0.205789 0.000000 0.000000
# ext.weight 0.652171 0.347829 0.000000 0.000000
# ext.weight 0.685421 0.314579 0.000000 0.000000
# ext.weight 0.652171 0.347829 0.000000 0.000000
# ext.weight 0.900000 0.100000 0.000000 0.000000
# ext.weight 0.900000 0.100000 0.000000 0.000000
# ext.weight 0.570575 0.429425 0.000000 0.000000
# ext.weight 0.727794 0.272206 0.000000 0.000000
# ext.weight 0.900000 0.100000 0.000000 0.000000
# ext.weight 0.674569 0.325431 0.000000 0.000000
# ext.weight 0.574692 0.425308 0.000000 0.000000
# ext.weight 0.841356 0.158644 0.000000 0.000000
# ext.weight 0.900000 0.100000 0.000000 0.000000
# ext.weight 0.900000 0.100000 0.000000 0.000000
# ext.weight 0.900000 0.100000 0.000000 0.000000
# ext.weight 0.575637 0.424363 0.000000 0.000000
# ext.weight 0.570575 0.429425 0.000000 0.000000
# ext.weight 0.500058 0.499942 0.000000 0.000000
# ext.weight 0.900000 0.100000 0.000000 0.000000
# ext.weight 0.521236 0.478764 0.000000 0.000000
# ext.weight 0.900000 0.100000 0.000000 0.000000
# ext.weight 0.900000 0.100000 0.000000 0.000000
# ext.weight 0.900000 0.100000 0.000000 0.000000
# ext.weight 0.900000 0.100000 0.000000 0.000000
# ext.weight 0.900000 0.100000 0.000000 0.000000
# ext.weight 0.900000 0.100000 0.000000 0.000000
# ext.weight 0.900000 0.100000 0.000000 0.000000
# ext.weight 0.900000 0.100000 0.000000 0.000000
# ext.weight 0.900000 0.100000 0.000000 0.000000
# ext.weight 0.900000 0.100000 0.000000 0.000000
# ext.weight 0.591015 0.408985 0.000000 0.000000
# ext.weight 0.520686 0.479314 0.000000 0.000000
# ext.weight 0.550112 0.449888 0.000000 0.000000
# ext.weight 0.650128 0.349872 0.000000 0.000000
# ext.weight 0.620647 0.379353 0.000000 0.000000
# ext.weight 0.782902 0.217098 0.000000 0.000000
# ext.weight 0.638149 0.361851 0.000000 0.000000
# ext.weight 0.666170 0.333830 0.000000 0.000000
# ext.weight 0.638149 0.361851 0.000000 0.000000
# ext.weight 0.551884 0.448116 0.000000 0.000000
# ext.weight 0.900000 0.100000 0.000000 0.000000
# ext.weight 0.900000 0.100000 0.000000 0.000000
# ext.weight 0.613494 0.386506 0.000000 0.000000
# ext.weight 0.715585 0.284415 0.000000 0.000000
# ext.weight 0.900000 0.100000 0.000000 0.000000
# ext.weight 0.900000 0.100000 0.000000 0.000000
# ext.weight 0.900000 0.100000 0.000000 0.000000
# ext.weight 0.551884 0.448116 0.000000 0.000000
# ext.weight 0.550795 0.449205 0.000000 0.000000
# ext.weight 0.513732 0.486268 0.000000 0.000000
# ext.weight 0.520686 0.479314 0.000000 0.000000
# ext.weight 0.900000 0.100000 0.000000 0.000000
# ext.weight 0.900000 0.100000 0.000000 0.000000
# ext.weight 0.900000 0.100000 0.000000 0.000000
# ext.weight 0.900000 0.100000 0.000000 0.000000
# ext.weight 0.591015 0.408985 0.000000 0.000000
# ext.weight 0.900000 0.100000 0.000000 0.000000
# ext.weight 0.900000 0.100000 0.000000 0.000000
