v -43.119987 128.498886 -14.279067
v -42.982609 130.127930 -20.980352
v -44.580830 139.198868 -11.708035
v -43.257370 126.869858 -7.577782
v -77.257988 131.614227 -14.221666
v -73.875946 141.872253 -11.658777
v -77.120605 133.243256 -20.922951
v -77.395370 129.985184 -7.520379
v -42.526886 153.635300 -27.440353
v -46.066971 151.293961 -22.095306
v -44.118923 144.402451 -19.403303
v -41.027531 139.471268 -26.546385
v -46.171532 151.050003 -32.134693
v -46.003643 135.918625 -31.587189
v -49.787148 136.263901 -31.580826
v -49.438667 152.275665 -32.113800
v -47.110954 126.042656 -24.494768
v -50.851215 126.383980 -24.488480
v -46.750507 154.890945 -27.431784
v -46.066971 151.293961 -22.095306
v -49.420067 151.814667 -21.974457
v -48.205105 144.775345 -19.396433
v -44.118923 144.402451 -19.403303
v -48.667015 139.571762 -11.701164
v -44.580830 139.198868 -11.708035
v -49.420067 151.814667 -21.974457
v -59.570198 137.156662 -31.564377
v -57.900082 155.467056 -32.057655
v -60.461311 127.260963 -24.472319
v -57.651661 158.104507 -27.462282
v -58.091000 153.183411 -21.672462
v -58.766476 145.739151 -19.378674
v -59.228386 140.535553 -11.683405
v -58.091000 153.183411 -21.672462
v -47.294613 123.864029 -15.491309
v -51.034874 124.205353 -15.485021
v -60.644970 125.082344 -15.468860
v -43.273129 144.786469 8.960707
v -41.607124 132.598480 1.725899
v -44.466030 140.286499 -2.471655
v -46.581535 145.192322 3.004772
v -47.072227 140.369705 11.800357
v -50.347488 141.498978 12.217774
v -50.524445 127.521095 4.384058
v -46.740944 127.175819 4.377697
v -47.480011 121.666435 -6.492500
v -51.220272 122.007759 -6.486211
v -47.504879 145.945724 9.365806
v -44.466030 140.286499 -2.471655
v -48.552212 140.659393 -2.464784
v -49.932194 145.741943 3.006663
v -58.830040 144.439758 13.304886
v -60.307499 128.413864 4.400508
v -60.830368 122.884743 -6.470052
v -58.428795 148.889374 10.445576
v -59.113586 141.623184 -2.447026
v -58.597435 147.178162 3.031090
v -73.335396 156.446793 -27.388550
v -77.370766 142.787842 -26.485275
v -73.414032 147.075836 -19.354046
v -70.259758 153.501724 -22.054628
v -70.234604 153.245926 -32.094234
v -66.799530 153.859970 -32.084606
v -69.353249 138.049438 -31.547926
v -73.136757 138.394714 -31.541565
v -73.811668 128.479279 -24.449871
v -70.071404 128.137955 -24.456161
v -68.954262 156.917191 -27.394445
v -70.259758 153.501724 -22.054628
v -73.414032 147.075836 -19.354046
v -69.327850 146.702942 -19.360914
v -66.867416 153.406860 -21.945120
v -73.875946 141.872253 -11.658777
v -69.789764 141.499359 -11.665647
v -66.867416 153.406860 -21.945120
v -73.995323 126.300659 -15.446413
v -70.255066 125.959335 -15.452702
v -74.081642 147.597961 9.012512
v -70.774330 147.400085 3.045452
v -73.761147 142.959885 -2.422396
v -77.950371 135.915054 1.787010
v -71.135300 142.565628 11.840816
v -73.874054 129.651917 4.423320
v -70.090553 129.306641 4.416958
v -67.708359 143.083282 12.246967
v -74.180725 124.103058 -6.447604
v -70.440468 123.761734 -6.453893
v -69.708633 147.971970 9.403142
v -67.379547 147.334137 3.036000
v -69.674965 142.586990 -2.429267
v -73.761147 142.959885 -2.422396
vt 0.146023 0.475240
vt 0.131610 0.477859
vt 0.147423 0.440347
vt 0.159867 0.478155
vt 0.149206 0.544490
vt 0.154085 0.579714
vt 0.134347 0.543312
vt 0.162881 0.540022
vt 0.064601 0.465699
vt 0.054223 0.445420
vt 0.102984 0.440558
vt 0.106221 0.469692
vt 0.072667 0.481793
vt 0.108656 0.486675
vt 0.107768 0.493070
vt 0.069189 0.489485
vt 0.130671 0.489820
vt 0.130439 0.495073
vt 0.055444 0.472639
vt 0.332831 0.464481
vt 0.334553 0.475633
vt 0.313808 0.472692
vt 0.312784 0.462780
vt 0.290124 0.473150
vt 0.290892 0.462879
vt 0.023424 0.455341
vt 0.107091 0.511819
vt 0.060944 0.514300
vt 0.130496 0.510648
vt 0.042719 0.515678
vt 0.334992 0.499322
vt 0.314918 0.500695
vt 0.290568 0.501848
vt 0.007934 0.519608
vt 0.145956 0.487739
vt 0.145997 0.494264
vt 0.146455 0.509827
vt 0.218973 0.472873
vt 0.183858 0.471793
vt 0.189877 0.446282
vt 0.233945 0.460254
vt 0.210488 0.483947
vt 0.212359 0.489324
vt 0.181616 0.492130
vt 0.180951 0.486554
vt 0.160749 0.489495
vt 0.161081 0.494469
vt 0.222958 0.480033
vt 0.265244 0.457511
vt 0.263472 0.470755
vt 0.238885 0.476599
vt 0.217412 0.505711
vt 0.182886 0.507800
vt 0.161881 0.508995
vt 0.226972 0.505134
vt 0.264695 0.503060
vt 0.242508 0.504227
vt 0.066425 0.561490
vt 0.109139 0.554038
vt 0.108147 0.583926
vt 0.056687 0.582090
vt 0.073809 0.544898
vt 0.070038 0.537776
vt 0.109102 0.530463
vt 0.110338 0.536682
vt 0.132359 0.531382
vt 0.131744 0.526186
vt 0.056692 0.555037
vt 0.337298 0.536493
vt 0.316198 0.539487
vt 0.316597 0.529200
vt 0.337809 0.524120
vt 0.294253 0.540559
vt 0.292748 0.530476
vt 0.024311 0.572233
vt 0.147950 0.531934
vt 0.147425 0.525402
vt 0.222936 0.538110
vt 0.239421 0.548549
vt 0.196764 0.568620
vt 0.187769 0.543649
vt 0.213090 0.528155
vt 0.183203 0.529202
vt 0.183319 0.523555
vt 0.214334 0.522586
vt 0.162620 0.528568
vt 0.162514 0.523565
vt 0.225999 0.530485
vt 0.242192 0.531944
vt 0.266833 0.535108
vt 0.269860 0.547796
vn 0.965959 -0.255224 -0.042237
vn 0.948472 -0.291278 -0.124733
vn 0.809337 0.566701 0.154348
vn 0.945659 -0.324868 0.013796
vn -0.996332 -0.076194 -0.038948
vn -0.692786 0.703869 0.156896
vn -0.985941 -0.114701 -0.121510
vn -0.988798 -0.148288 0.017021
vn 0.801416 0.586608 -0.116719
vn 0.489342 0.496380 0.717043
vn 0.722513 0.364360 0.587551
vn 0.978307 -0.055017 -0.199722
vn 0.418405 0.270083 -0.867175
vn 0.450052 -0.299326 -0.841342
vn -0.031522 -0.287466 -0.957272
vn 0.154745 0.415922 -0.896138
vn 0.413116 -0.755898 -0.507891
vn -0.074978 -0.811237 -0.579890
vn 0.313395 0.949477 -0.016659
vn 0.489342 0.496380 0.717043
vn 0.143583 0.562014 0.814570
vn 0.069844 0.584932 0.808070
vn 0.722513 0.364360 0.587551
vn 0.088769 0.967448 0.236990
vn 0.809337 0.566701 0.154348
vn 0.143583 0.562014 0.814570
vn -0.027738 -0.286287 -0.957742
vn 0.045342 0.512675 -0.857385
vn -0.075007 -0.811234 -0.579890
vn 0.090894 0.995615 0.022112
vn 0.052220 0.556947 0.828905
vn 0.053843 0.574957 0.816410
vn 0.088686 0.967456 0.236990
vn 0.052220 0.556947 0.828905
vn 0.436208 -0.876395 -0.204094
vn -0.088664 -0.967458 -0.236990
vn -0.088686 -0.967456 -0.236990
vn 0.790735 0.460090 0.403802
vn 0.970289 -0.149768 0.190021
vn 0.741158 0.586577 -0.326515
vn 0.511925 0.765476 -0.389845
vn 0.382246 -0.161872 0.909772
vn 0.115988 -0.043176 0.992312
vn -0.065873 -0.694356 0.716610
vn 0.419910 -0.656239 0.626918
vn 0.400216 -0.908515 0.120117
vn -0.089742 -0.986114 0.139733
vn 0.303542 0.832908 0.462738
vn 0.741158 0.586577 -0.326515
vn 0.095584 0.889829 -0.446171
vn 0.169628 0.871746 -0.459658
vn 0.007317 0.061771 0.998064
vn -0.062082 -0.693535 0.717743
vn -0.089754 -0.986113 0.139733
vn 0.082314 0.893872 0.440702
vn 0.079988 0.884978 -0.458711
vn 0.079015 0.874670 -0.478235
vn -0.682440 0.721984 -0.114085
vn -0.972781 0.123019 -0.196377
vn -0.642551 0.488960 0.589954
vn -0.389039 0.576579 0.718474
vn -0.365856 0.341619 -0.865705
vn -0.079853 0.437408 -0.895711
vn -0.024158 -0.288023 -0.957319
vn -0.499414 -0.212548 -0.839887
vn -0.544740 -0.668458 -0.506382
vn -0.074980 -0.811257 -0.579862
vn -0.136443 0.990520 -0.015914
vn -0.389039 0.576579 0.718474
vn -0.642551 0.488960 0.589954
vn 0.040029 0.587654 0.808122
vn -0.036722 0.578471 0.814876
vn -0.692786 0.703869 0.156896
vn 0.088769 0.967448 0.236990
vn -0.036722 0.578471 0.814876
vn -0.588356 -0.782870 -0.202365
vn -0.088664 -0.967458 -0.236990
vn -0.693083 0.595474 0.406260
vn -0.366188 0.845633 -0.388344
vn -0.623730 0.711234 -0.324202
vn -0.980755 0.028308 0.193180
vn -0.401943 -0.090423 0.911189
vn -0.529683 -0.569566 0.628515
vn -0.058517 -0.694999 0.716626
vn -0.118615 -0.021681 0.992704
vn -0.557628 -0.821121 0.121704
vn -0.089742 -0.986119 0.139698
vn -0.146274 0.873950 0.463483
vn -0.010677 0.888188 -0.459355
vn 0.065771 0.892552 -0.446123
vn -0.623730 0.711234 -0.324202
f 1/1/1 2/2/2 3/3/3
f 1/1/1 3/3/3 4/4/4
f 5/5/5 6/6/6 7/7/7
f 5/5/5 8/8/8 6/6/6
f 9/9/9 10/10/10 11/11/11
f 9/9/9 11/11/11 12/12/12
f 13/13/13 14/14/14 15/15/15
f 13/13/13 15/15/15 16/16/16
f 17/17/17 18/18/18 15/15/15
f 17/17/17 15/15/15 14/14/14
f 11/11/11 3/3/3 2/2/2
f 11/11/11 2/2/2 12/12/12
f 13/13/13 16/16/16 19/19/19
f 13/13/13 19/19/19 9/9/9
f 20/20/20 21/21/21 22/22/22
f 20/20/20 22/22/22 23/23/23
f 22/22/22 24/24/24 25/25/25
f 22/22/22 25/25/25 23/23/23
f 13/13/13 9/9/9 12/12/12
f 13/13/13 12/12/12 14/14/14
f 14/14/14 12/12/12 2/2/2
f 14/14/14 2/2/2 17/17/17
f 19/19/19 26/26/26 10/10/10
f 19/19/19 10/10/10 9/9/9
f 16/16/16 15/15/15 27/27/27
f 16/16/16 27/27/27 28/28/28
f 18/18/18 29/29/29 27/27/27
f 18/18/18 27/27/27 15/15/15
f 16/16/16 28/28/28 30/30/30
f 16/16/16 30/30/30 19/19/19
f 21/21/21 31/31/31 32/32/32
f 21/21/21 32/32/32 22/22/22
f 32/32/32 33/33/33 24/24/24
f 32/32/32 24/24/24 22/22/22
f 30/30/30 34/34/34 26/26/26
f 30/30/30 26/26/26 19/19/19
f 18/18/18 17/17/17 35/35/35
f 18/18/18 35/35/35 36/36/36
f 35/35/35 17/17/17 2/2/2
f 35/35/35 2/2/2 1/1/1
f 29/29/29 18/18/18 36/36/36
f 29/29/29 36/36/36 37/37/37
f 38/38/38 39/39/39 40/40/40
f 38/38/38 40/40/40 41/41/41
f 42/42/42 43/43/43 44/44/44
f 42/42/42 44/44/44 45/45/45
f 46/46/46 45/45/45 44/44/44
f 46/46/46 44/44/44 47/47/47
f 40/40/40 39/39/39 4/4/4
f 40/40/40 4/4/4 3/3/3
f 42/42/42 38/38/38 48/48/48
f 42/42/42 48/48/48 43/43/43
f 41/41/41 49/49/49 50/50/50
f 41/41/41 50/50/50 51/51/51
f 50/50/50 49/49/49 25/25/25
f 50/50/50 25/25/25 24/24/24
f 42/42/42 45/45/45 39/39/39
f 42/42/42 39/39/39 38/38/38
f 45/45/45 46/46/46 4/4/4
f 45/45/45 4/4/4 39/39/39
f 48/48/48 38/38/38 41/41/41
f 48/48/48 41/41/41 51/51/51
f 43/43/43 52/52/52 53/53/53
f 43/43/43 53/53/53 44/44/44
f 47/47/47 44/44/44 53/53/53
f 47/47/47 53/53/53 54/54/54
f 43/43/43 48/48/48 55/55/55
f 43/43/43 55/55/55 52/52/52
f 51/51/51 50/50/50 56/56/56
f 51/51/51 56/56/56 57/57/57
f 56/56/56 50/50/50 24/24/24
f 56/56/56 24/24/24 33/33/33
f 55/55/55 48/48/48 51/51/51
f 55/55/55 51/51/51 57/57/57
f 35/35/35 46/46/46 47/47/47
f 35/35/35 47/47/47 36/36/36
f 35/35/35 1/1/1 4/4/4
f 35/35/35 4/4/4 46/46/46
f 36/36/36 47/47/47 54/54/54
f 36/36/36 54/54/54 37/37/37
f 58/58/58 59/59/59 60/60/60
f 58/58/58 60/60/60 61/61/61
f 62/62/62 63/63/63 64/64/64
f 62/62/62 64/64/64 65/65/65
f 66/66/66 65/65/65 64/64/64
f 66/66/66 64/64/64 67/67/67
f 60/60/60 59/59/59 7/7/7
f 60/60/60 7/7/7 6/6/6
f 62/62/62 58/58/58 68/68/68
f 62/62/62 68/68/68 63/63/63
f 69/69/69 70/70/70 71/71/71
f 69/69/69 71/71/71 72/72/72
f 71/71/71 70/70/70 73/73/73
f 71/71/71 73/73/73 74/74/74
f 62/62/62 65/65/65 59/59/59
f 62/62/62 59/59/59 58/58/58
f 65/65/65 66/66/66 7/7/7
f 65/65/65 7/7/7 59/59/59
f 68/68/68 58/58/58 61/61/61
f 68/68/68 61/61/61 75/75/75
f 63/63/63 28/28/28 27/27/27
f 63/63/63 27/27/27 64/64/64
f 67/67/67 64/64/64 27/27/27
f 67/67/67 27/27/27 29/29/29
f 63/63/63 68/68/68 30/30/30
f 63/63/63 30/30/30 28/28/28
f 72/72/72 71/71/71 32/32/32
f 72/72/72 32/32/32 31/31/31
f 32/32/32 71/71/71 74/74/74
f 32/32/32 74/74/74 33/33/33
f 30/30/30 68/68/68 75/75/75
f 30/30/30 75/75/75 34/34/34
f 76/76/76 66/66/66 67/67/67
f 76/76/76 67/67/67 77/77/77
f 76/76/76 5/5/5 7/7/7
f 76/76/76 7/7/7 66/66/66
f 77/77/77 67/67/67 29/29/29
f 77/77/77 29/29/29 37/37/37
f 78/78/78 79/79/79 80/80/80
f 78/78/78 80/80/80 81/81/81
f 82/82/82 83/83/83 84/84/84
f 82/82/82 84/84/84 85/85/85
f 86/86/86 87/87/87 84/84/84
f 86/86/86 84/84/84 83/83/83
f 80/80/80 6/6/6 8/8/8
f 80/80/80 8/8/8 81/81/81
f 82/82/82 85/85/85 88/88/88
f 82/82/82 88/88/88 78/78/78
f 79/79/79 89/89/89 90/90/90
f 79/79/79 90/90/90 91/91/91
f 90/90/90 74/74/74 73/73/73
f 90/90/90 73/73/73 91/91/91
f 82/82/82 78/78/78 81/81/81
f 82/82/82 81/81/81 83/83/83
f 83/83/83 81/81/81 8/8/8
f 83/83/83 8/8/8 86/86/86
f 88/88/88 89/89/89 79/79/79
f 88/88/88 79/79/79 78/78/78
f 85/85/85 84/84/84 53/53/53
f 85/85/85 53/53/53 52/52/52
f 87/87/87 54/54/54 53/53/53
f 87/87/87 53/53/53 84/84/84
f 85/85/85 52/52/52 55/55/55
f 85/85/85 55/55/55 88/88/88
f 89/89/89 57/57/57 56/56/56
f 89/89/89 56/56/56 90/90/90
f 56/56/56 33/33/33 74/74/74
f 56/56/56 74/74/74 90/90/90
f 55/55/55 57/57/57 89/89/89
f 55/55/55 89/89/89 88/88/88
f 87/87/87 86/86/86 76/76/76
f 87/87/87 76/76/76 77/77/77
f 76/76/76 86/86/86 8/8/8
f 76/76/76 8/8/8 5/5/5
f 54/54/54 87/87/87 77/77/77
f 54/54/54 77/77/77 37/37/37
# ext.tangent -0.016817 -0.226401 0.973889 1.0
# ext.tangent -0.065933 -0.543828 0.836603 1.0
# ext.tangent -0.044067 -0.209652 0.976783 1.0
# ext.tangent 0.038755 0.124518 0.991460 1.0
# ext.tangent -0.030921 -0.146932 0.988663 1.0
# ext.tangent 0.079137 -0.159717 0.983986 1.0
# ext.tangent -0.048712 -0.475243 0.878505 1.0
# ext.tangent -0.031469 0.222959 0.974320 1.0
# ext.tangent 0.648453 -0.747100 -0.146116 1.0
# ext.tangent 0.900757 -0.254962 -0.351613 1.0
# ext.tangent 0.007283 -0.823942 0.566628 1.0
# ext.tangent 0.047742 -0.908620 0.414886 1.0
# ext.tangent 0.323631 -0.931871 -0.163948 1.0
# ext.tangent 0.118233 -0.905563 0.407402 1.0
# ext.tangent 0.071518 -0.944964 0.319262 1.0
# ext.tangent 0.146110 -0.898538 -0.413861 1.0
# ext.tangent -0.068228 -0.558844 0.826461 1.0
# ext.tangent -0.079672 -0.552133 0.829941 1.0
# ext.tangent 0.774792 -0.220022 -0.592696 1.0
# ext.tangent -0.209423 0.834215 -0.510125 1.0
# ext.tangent -0.056616 0.802004 -0.594630 1.0
# ext.tangent -0.017220 0.786382 -0.617501 1.0
# ext.tangent 0.018263 0.810784 -0.585061 1.0
# ext.tangent 0.027290 0.235476 -0.971497 1.0
# ext.tangent 0.032766 0.222096 -0.974474 1.0
# ext.tangent 0.603514 0.585122 -0.541667 1.0
# ext.tangent -0.141222 -0.936142 0.322015 1.0
# ext.tangent -0.155911 -0.831393 -0.533365 1.0
# ext.tangent -0.108549 -0.548763 0.828901 1.0
# ext.tangent -0.069402 0.045143 -0.996567 1.0
# ext.tangent 0.006123 0.806491 -0.591214 1.0
# ext.tangent 0.019135 0.792901 -0.609051 1.0
# ext.tangent -0.029995 0.240412 -0.970207 1.0
# ext.tangent -0.008254 0.806949 -0.590564 1.0
# ext.tangent -0.023509 -0.237474 0.971109 1.0
# ext.tangent -0.050473 -0.233256 0.971105 1.0
# ext.tangent -0.074860 -0.230780 0.970122 1.0
# ext.tangent -0.579053 0.814786 -0.028663 1.0
# ext.tangent -0.051288 0.678108 0.733171 1.0
# ext.tangent -0.138078 0.549515 0.823995 1.0
# ext.tangent -0.545640 -0.071733 -0.834944 1.0
# ext.tangent -0.219783 0.946317 0.237021 1.0
# ext.tangent -0.136242 0.989903 0.039107 1.0
# ext.tangent -0.098075 0.693645 0.713609 1.0
# ext.tangent -0.111661 0.630716 0.767938 1.0
# ext.tangent 0.020278 0.113145 0.993372 1.0
# ext.tangent -0.008622 0.113770 0.993470 1.0
# ext.tangent -0.580714 0.514009 -0.631321 1.0
# ext.tangent 0.038044 -0.473078 -0.880199 1.0
# ext.tangent 0.075232 -0.417098 -0.905742 1.0
# ext.tangent -0.247871 -0.380002 -0.891156 1.0
# ext.tangent 0.022843 0.996044 -0.085881 1.0
# ext.tangent -0.003140 0.693404 0.720543 1.0
# ext.tangent -0.051425 0.117472 0.991744 1.0
# ext.tangent -0.027497 0.429080 -0.902848 1.0
# ext.tangent -0.090851 -0.415370 -0.905104 1.0
# ext.tangent -0.084797 -0.435816 -0.896032 1.0
# ext.tangent -0.783371 -0.616477 -0.079280 1.0
# ext.tangent -0.221102 -0.845322 0.486359 1.0
# ext.tangent -0.085952 -0.786955 0.610994 1.0
# ext.tangent -0.938952 -0.121881 -0.321737 1.0
# ext.tangent -0.560891 -0.819170 -0.119840 1.0
# ext.tangent -0.415322 -0.822797 -0.387961 1.0
# ext.tangent -0.352915 -0.882349 0.311306 1.0
# ext.tangent -0.364438 -0.821479 0.438585 1.0
# ext.tangent -0.122606 -0.516288 0.847593 1.0
# ext.tangent -0.137895 -0.544824 0.827135 1.0
# ext.tangent -0.828638 -0.078507 -0.554252 1.0
# ext.tangent 0.301976 0.786545 -0.538662 1.0
# ext.tangent 0.083916 0.786211 -0.612234 1.0
# ext.tangent 0.080951 0.779796 -0.620778 1.0
# ext.tangent 0.095691 0.789643 -0.606059 1.0
# ext.tangent -0.038194 0.191737 -0.980703 1.0
# ext.tangent -0.078148 0.243957 -0.966632 1.0
# ext.tangent -0.558148 0.650528 -0.515057 1.0
# ext.tangent -0.098462 -0.188659 0.977094 1.0
# ext.tangent -0.096064 -0.228511 0.968790 1.0
# ext.tangent 0.665096 0.730167 -0.156534 1.0
# ext.tangent 0.428399 -0.217689 -0.876975 1.0
# ext.tangent 0.347783 0.563289 0.749501 1.0
# ext.tangent 0.159807 0.738697 0.654820 1.0
# ext.tangent 0.261326 0.945996 0.191834 1.0
# ext.tangent 0.120108 0.658378 0.743043 1.0
# ext.tangent 0.080930 0.686052 0.723037 1.0
# ext.tangent 0.175911 0.984108 0.024231 1.0
# ext.tangent -0.096860 0.170372 0.980608 1.0
# ext.tangent -0.098468 0.121265 0.987724 1.0
# ext.tangent 0.570208 0.425061 -0.702983 1.0
# ext.tangent 0.074828 -0.422973 -0.903048 1.0
# ext.tangent -0.248954 -0.381980 -0.890007 1.0
# ext.tangent -0.190496 -0.491808 -0.849610 1.0
# ext.joint 9 9 9 9
# ext.joint 9 9 9 9
# ext.joint 9 8 9 9
# ext.joint 9 9 9 9
# ext.joint 9 9 9 9
# ext.joint 9 8 9 9
# ext.joint 9 9 9 9
# ext.joint 9 9 9 9
# ext.joint 9 8 9 9
# ext.joint 9 8 9 9
# ext.joint 9 8 9 9
# ext.joint 9 8 9 9
# ext.joint 9 8 9 9
# ext.joint 9 9 9 9
# ext.joint 9 9 9 9
# ext.joint 9 8 9 9
# ext.joint 9 9 9 9
# ext.joint 9 9 9 9
# ext.joint 9 8 9 9
# ext.joint 9 8 9 9
# ext.joint 9 8 9 9
# ext.joint 9 8 9 9
# ext.joint 9 8 9 9
# ext.joint 9 8 9 9
# ext.joint 9 8 9 9
# ext.joint 9 8 9 9
# ext.joint 9 9 9 9
# ext.joint 9 8 9 9
# ext.joint 9 9 9 9
# ext.joint 9 8 9 9
# ext.joint 9 8 9 9
# ext.joint 9 8 9 9
# ext.joint 9 8 9 9
# ext.joint 9 8 9 9
# ext.joint 9 9 9 9
# ext.joint 9 9 9 9
# ext.joint 9 9 9 9
# ext.joint 9 8 9 9
# ext.joint 9 8 9 9
# ext.joint 9 8 9 9
# ext.joint 9 8 9 9
# ext.joint 9 8 9 9
# ext.joint 9 8 9 9
# ext.joint 9 9 9 9
# ext.joint 9 9 9 9
# ext.joint 9 9 9 9
# ext.joint 9 9 9 9
# ext.joint 9 8 9 9
# ext.joint 9 8 9 9
# ext.joint 9 8 9 9
# ext.joint 9 8 9 9
# ext.joint 9 8 9 9
# ext.joint 9 9 9 9
# ext.joint 9 9 9 9
# ext.joint 9 8 9 9
# ext.joint 9 8 9 9
# ext.joint 9 8 9 9
# ext.joint 9 8 9 9
# ext.joint 9 8 9 9
# ext.joint 9 8 9 9
# ext.joint 9 8 9 9
# ext.joint 9 8 9 9
# ext.joint 9 8 9 9
# ext.joint 9 9 9 9
# ext.joint 9 9 9 9
# ext.joint 9 9 9 9
# ext.joint 9 9 9 9
# ext.joint 9 8 9 9
# ext.joint 9 8 9 9
# ext.joint 9 8 9 9
# ext.joint 9 8 9 9
# ext.joint 9 8 9 9
# ext.joint 9 8 9 9
# ext.joint 9 8 9 9
# ext.joint 9 8 9 9
# ext.joint 9 9 9 9
# ext.joint 9 9 9 9
# ext.joint 9 8 9 9
# ext.joint 9 8 9 9
# ext.joint 9 8 9 9
# ext.joint 9 8 9 9
# ext.joint 9 8 9 9
# ext.joint 9 9 9 9
# ext.joint 9 9 9 9
# ext.joint 9 8 9 9
# ext.joint 9 9 9 9
# ext.joint 9 9 9 9
# ext.joint 9 8 9 9
# ext.joint 9 8 9 9
# ext.joint 9 8 9 9
# ext.joint 9 8 9 9
# ext.weight 1.000000 0.000000 0.000000 0.000000
# ext.weight 1.000000 0.000000 0.000000 0.000000
# ext.weight 0.970321 0.029679 0.000000 0.000000
# ext.weight 1.000000 0.000000 0.000000 0.000000
# ext.weight 1.000000 0.000000 0.000000 0.000000
# ext.weight 0.972196 0.027804 0.000000 0.000000
# ext.weight 1.000000 0.000000 0.000000 0.000000
# ext.weight 1.000000 0.000000 0.000000 0.000000
# ext.weight 0.831270 0.168730 0.000000 0.000000
# ext.weight 0.880414 0.119586 0.000000 0.000000
# ext.weight 0.947236 0.052764 0.000000 0.000000
# ext.weight 0.983862 0.016138 0.000000 0.000000
# ext.weight 0.886720 0.113280 0.000000 0.000000
# ext.weight 1.000000 0.000000 0.000000 0.000000
# ext.weight 1.000000 0.000000 0.000000 0.000000
# ext.weight 0.874252 0.125748 0.000000 0.000000
# ext.weight 1.000000 0.000000 0.000000 0.000000
# ext.weight 1.000000 0.000000 0.000000 0.000000
# ext.weight 0.824658 0.175342 0.000000 0.000000
# ext.weight 0.880414 0.119586 0.000000 0.000000
# ext.weight 0.882594 0.117406 0.000000 0.000000
# ext.weight 0.950370 0.049630 0.000000 0.000000
# ext.weight 0.947236 0.052764 0.000000 0.000000
# ext.weight 0.966198 0.033802 0.000000 0.000000
# ext.weight 0.970321 0.029679 0.000000 0.000000
# ext.weight 0.882594 0.117406 0.000000 0.000000
# ext.weight 1.000000 0.000000 0.000000 0.000000
# ext.weight 0.835216 0.164784 0.000000 0.000000
# ext.weight 1.000000 0.000000 0.000000 0.000000
# ext.weight 0.794883 0.205117 0.000000 0.000000
# ext.weight 0.880298 0.119702 0.000000 0.000000
# ext.weight 0.948543 0.051457 0.000000 0.000000
# ext.weight 0.961905 0.038095 0.000000 0.000000
# ext.weight 0.880298 0.119702 0.000000 0.000000
# ext.weight 1.000000 0.000000 0.000000 0.000000
# ext.weight 1.000000 0.000000 0.000000 0.000000
# ext.weight 1.000000 0.000000 0.000000 0.000000
# ext.weight 0.880099 0.119901 0.000000 0.000000
# ext.weight 0.985887 0.014113 0.000000 0.000000
# ext.weight 0.949916 0.050084 0.000000 0.000000
# ext.weight 0.896181 0.103819 0.000000 0.000000
# ext.weight 0.922527 0.077473 0.000000 0.000000
# ext.weight 0.916038 0.083962 0.000000 0.000000
# ext.weight 1.000000 0.000000 0.000000 0.000000
# ext.weight 1.000000 0.000000 0.000000 0.000000
# ext.weight 1.000000 0.000000 0.000000 0.000000
# ext.weight 1.000000 0.000000 0.000000 0.000000
# ext.weight 0.879336 0.120664 0.000000 0.000000
# ext.weight 0.949916 0.050084 0.000000 0.000000
# ext.weight 0.943930 0.056070 0.000000 0.000000
# ext.weight 0.886707 0.113293 0.000000 0.000000
# ext.weight 0.892435 0.107565 0.000000 0.000000
# ext.weight 1.000000 0.000000 0.000000 0.000000
# ext.weight 1.000000 0.000000 0.000000 0.000000
# ext.weight 0.851952 0.148048 0.000000 0.000000
# ext.weight 0.937770 0.062230 0.000000 0.000000
# ext.weight 0.872223 0.127777 0.000000 0.000000
# ext.weight 0.824127 0.175873 0.000000 0.000000
# ext.weight 0.983975 0.016025 0.000000 0.000000
# ext.weight 0.944547 0.055453 0.000000 0.000000
# ext.weight 0.875336 0.124663 0.000000 0.000000
# ext.weight 0.883561 0.116439 0.000000 0.000000
# ext.weight 0.871556 0.128444 0.000000 0.000000
# ext.weight 1.000000 0.000000 0.000000 0.000000
# ext.weight 1.000000 0.000000 0.000000 0.000000
# ext.weight 1.000000 0.000000 0.000000 0.000000
# ext.weight 1.000000 0.000000 0.000000 0.000000
# ext.weight 0.819055 0.180945 0.000000 0.000000
# ext.weight 0.875336 0.124663 0.000000 0.000000
# ext.weight 0.944547 0.055453 0.000000 0.000000
# ext.weight 0.948152 0.051848 0.000000 0.000000
# ext.weight 0.878686 0.121314 0.000000 0.000000
# ext.weight 0.972196 0.027804 0.000000 0.000000
# ext.weight 0.968112 0.031888 0.000000 0.000000
# ext.weight 0.878686 0.121314 0.000000 0.000000
# ext.weight 1.000000 0.000000 0.000000 0.000000
# ext.weight 1.000000 0.000000 0.000000 0.000000
# ext.weight 0.872933 0.127067 0.000000 0.000000
# ext.weight 0.901128 0.098872 0.000000 0.000000
# ext.weight 0.953429 0.046571 0.000000 0.000000
# ext.weight 0.985458 0.014542 0.000000 0.000000
# ext.weight 0.919260 0.080740 0.000000 0.000000
# ext.weight 1.000000 0.000000 0.000000 0.000000
# ext.weight 1.000000 0.000000 0.000000 0.000000
# ext.weight 0.913218 0.086782 0.000000 0.000000
# ext.weight 1.000000 0.000000 0.000000 0.000000
# ext.weight 1.000000 0.000000 0.000000 0.000000
# ext.weight 0.873260 0.126740 0.000000 0.000000
# ext.weight 0.890522 0.109478 0.000000 0.000000
# ext.weight 0.946701 0.053299 0.000000 0.000000
# ext.weight 0.953429 0.046571 0.000000 0.000000
