v -139.433594 547.724182 -72.166054
v -139.112350 545.702881 -73.394875
v -137.152557 549.762390 -79.560104
v -137.473801 551.783691 -78.331284
v -139.591934 543.822632 -74.785385
v -137.632141 547.882141 -80.950623
v -139.591934 543.822632 -74.785385
v -140.814514 542.310181 -76.169876
v -138.854721 546.369690 -82.335106
v -137.632141 547.882141 -80.950623
v -142.632614 541.348022 -77.381348
v -140.672821 545.407532 -83.546585
v -144.826950 541.052185 -78.273689
v -142.867157 545.111694 -84.438919
v -147.132858 541.458313 -78.739265
v -145.173065 545.517822 -84.904495
v -149.272217 542.517456 -78.721916
v -147.312424 546.576965 -84.887146
v -150.986969 544.101868 -78.223740
v -149.027176 548.161377 -84.388969
v -152.070297 546.020447 -77.304825
v -150.110504 550.079956 -83.470055
v -152.391556 548.041748 -76.076004
v -150.431763 552.101257 -82.241234
v -151.911972 549.922058 -74.685493
v -149.952179 553.981567 -80.850723
v -150.689392 551.434448 -73.301003
v -148.729599 555.493958 -79.466232
v -148.871292 552.396606 -72.089531
v -146.911499 556.456116 -78.254761
v -146.676956 552.692505 -71.197189
v -144.717163 556.752014 -77.362427
v -144.371048 552.286316 -70.731621
v -142.411255 556.345825 -76.896851
v -142.231689 551.227173 -70.748962
v -140.271896 555.286682 -76.914192
v -140.516937 549.642761 -71.247139
v -138.557144 553.702271 -77.412369
v -139.591934 543.822632 -74.785385
v -139.112350 545.702881 -73.394875
v -139.433594 547.724182 -72.166054
v -140.516937 549.642761 -71.247139
v -142.231689 551.227173 -70.748962
v -144.371048 552.286316 -70.731621
v -146.676956 552.692505 -71.197189
v -148.871292 552.396606 -72.089531
v -150.689392 551.434448 -73.301003
v -151.911972 549.922058 -74.685493
v -152.391556 548.041748 -76.076004
v -152.070297 546.020447 -77.304825
v -150.986969 544.101868 -78.223740
v -149.272217 542.517456 -78.721916
v -147.132858 541.458313 -78.739265
v -144.826950 541.052185 -78.273689
v -142.632614 541.348022 -77.381348
v -140.814514 542.310181 -76.169876
v -142.411255 556.345825 -76.896851
v -140.271896 555.286682 -76.914192
v -138.557144 553.702271 -77.412369
v -137.473801 551.783691 -78.331284
v -137.152557 549.762390 -79.560104
v -137.632141 547.882141 -80.950623
v -138.854721 546.369690 -82.335106
v -140.672821 545.407532 -83.546585
v -142.867157 545.111694 -84.438919
v -145.173065 545.517822 -84.904495
v -147.312424 546.576965 -84.887146
v -149.027176 548.161377 -84.388969
v -150.110504 550.079956 -83.470055
v -150.431763 552.101257 -82.241234
v -149.952179 553.981567 -80.850723
v -148.729599 555.493958 -79.466232
v -146.911499 556.456116 -78.254761
v -144.717163 556.752014 -77.362427
vt 0.979541 0.037745
vt 0.988103 0.037822
vt 0.987891 0.061617
vt 0.979329 0.061541
vt 0.996665 0.037898
vt 0.996453 0.061694
vt 0.842552 0.036523
vt 0.851114 0.036599
vt 0.850901 0.060395
vt 0.842339 0.060318
vt 0.859675 0.036676
vt 0.859463 0.060471
vt 0.868237 0.036752
vt 0.868025 0.060548
vt 0.876799 0.036829
vt 0.876586 0.060624
vt 0.885361 0.036905
vt 0.885148 0.060701
vt 0.893923 0.036982
vt 0.893710 0.060777
vt 0.902484 0.037058
vt 0.902272 0.060854
vt 0.911046 0.037135
vt 0.910834 0.060930
vt 0.919608 0.037211
vt 0.919396 0.061007
vt 0.928170 0.037288
vt 0.927957 0.061083
vt 0.936731 0.037364
vt 0.936519 0.061160
vt 0.945293 0.037440
vt 0.945081 0.061236
vt 0.953855 0.037516
vt 0.953643 0.061312
vt 0.962417 0.037593
vt 0.962205 0.061389
vt 0.970979 0.037669
vt 0.970767 0.061465
vt 0.990615 0.670717
vt 0.992906 0.675585
vt 0.993435 0.680773
vt 0.992136 0.685655
vt 0.989168 0.689643
vt 0.984888 0.692254
vt 0.979812 0.693175
vt 0.974552 0.692295
vt 0.969743 0.689718
vt 0.965965 0.685757
vt 0.963674 0.680888
vt 0.963145 0.675700
vt 0.964443 0.670818
vt 0.967412 0.666831
vt 0.971692 0.664219
vt 0.976768 0.663298
vt 0.982028 0.664179
vt 0.986836 0.666755
vt 0.941403 0.863624
vt 0.951770 0.859188
vt 0.963028 0.858565
vt 0.973820 0.861830
vt 0.982845 0.868589
vt 0.989013 0.878027
vt 0.991581 0.889006
vt 0.990240 0.900201
vt 0.985150 0.910263
vt 0.976927 0.917977
vt 0.966561 0.922412
vt 0.955302 0.923035
vt 0.944510 0.919771
vt 0.935486 0.913011
vt 0.929317 0.903573
vt 0.926749 0.892594
vt 0.928090 0.881399
vt 0.933180 0.871337
vn 0.919195 0.123931 0.373794
vn 0.965932 -0.170089 0.195053
vn 0.965932 -0.170089 0.195053
vn 0.919195 0.123931 0.373794
vn 0.896150 -0.443691 -0.007282
vn 0.896150 -0.443691 -0.007282
vn 0.896150 -0.443691 -0.007282
vn 0.718335 -0.663671 -0.208652
vn 0.718335 -0.663671 -0.208652
vn 0.896150 -0.443691 -0.007282
vn 0.453821 -0.803670 -0.384917
vn 0.453822 -0.803670 -0.384917
vn 0.134547 -0.846716 -0.514751
vn 0.134546 -0.846716 -0.514751
vn -0.200947 -0.787614 -0.582482
vn -0.200947 -0.787614 -0.582481
vn -0.512107 -0.633560 -0.579956
vn -0.512107 -0.633560 -0.579955
vn -0.761621 -0.403007 -0.507463
vn -0.761621 -0.403007 -0.507463
vn -0.919195 -0.123931 -0.373794
vn -0.919195 -0.123931 -0.373794
vn -0.965932 0.170089 -0.195053
vn -0.965932 0.170089 -0.195053
vn -0.896150 0.443691 0.007282
vn -0.896150 0.443691 0.007282
vn -0.718335 0.663671 0.208652
vn -0.718335 0.663671 0.208652
vn -0.453821 0.803670 0.384917
vn -0.453822 0.803670 0.384917
vn -0.134547 0.846716 0.514751
vn -0.134546 0.846716 0.514751
vn 0.200947 0.787614 0.582482
vn 0.200947 0.787614 0.582481
vn 0.512107 0.633560 0.579956
vn 0.512107 0.633560 0.579955
vn 0.761621 0.403007 0.507463
vn 0.761621 0.403007 0.507463
vn -0.256603 -0.531527 0.807238
vn -0.256603 -0.531527 0.807238
vn -0.256603 -0.531527 0.807238
vn -0.256603 -0.531527 0.807238
vn -0.256603 -0.531527 0.807238
vn -0.256603 -0.531527 0.807238
vn -0.256603 -0.531527 0.807238
vn -0.256603 -0.531527 0.807238
vn -0.256603 -0.531527 0.807238
vn -0.256603 -0.531527 0.807238
vn -0.256603 -0.531527 0.807238
vn -0.256603 -0.531527 0.807238
vn -0.256603 -0.531527 0.807238
vn -0.256603 -0.531527 0.807238
vn -0.256603 -0.531527 0.807238
vn -0.256603 -0.531527 0.807238
vn -0.256603 -0.531527 0.807238
vn -0.256603 -0.531527 0.807238
vn 0.256603 0.531527 -0.807238
vn 0.256603 0.531527 -0.807238
vn 0.256603 0.531527 -0.807238
vn 0.256603 0.531527 -0.807238
vn 0.256603 0.531527 -0.807238
vn 0.256603 0.531527 -0.807238
vn 0.256603 0.531527 -0.807238
vn 0.256603 0.531527 -0.807238
vn 0.256603 0.531527 -0.807238
vn 0.256603 0.531527 -0.807238
vn 0.256603 0.531527 -0.807238
vn 0.256603 0.531527 -0.807238
vn 0.256603 0.531527 -0.807238
vn 0.256603 0.531527 -0.807238
vn 0.256603 0.531527 -0.807238
vn 0.256603 0.531527 -0.807238
vn 0.256603 0.531527 -0.807238
vn 0.256603 0.531527 -0.807238
f 1/1/1 2/2/2 3/3/3
f 1/1/1 3/3/3 4/4/4
f 2/2/2 5/5/5 6/6/6
f 2/2/2 6/6/6 3/3/3
f 7/7/7 8/8/8 9/9/9
f 7/7/7 9/9/9 10/10/10
f 8/8/8 11/11/11 12/12/12
f 8/8/8 12/12/12 9/9/9
f 11/11/11 13/13/13 14/14/14
f 11/11/11 14/14/14 12/12/12
f 13/13/13 15/15/15 16/16/16
f 13/13/13 16/16/16 14/14/14
f 15/15/15 17/17/17 18/18/18
f 15/15/15 18/18/18 16/16/16
f 17/17/17 19/19/19 20/20/20
f 17/17/17 20/20/20 18/18/18
f 19/19/19 21/21/21 22/22/22
f 19/19/19 22/22/22 20/20/20
f 21/21/21 23/23/23 24/24/24
f 21/21/21 24/24/24 22/22/22
f 23/23/23 25/25/25 26/26/26
f 23/23/23 26/26/26 24/24/24
f 25/25/25 27/27/27 28/28/28
f 25/25/25 28/28/28 26/26/26
f 27/27/27 29/29/29 30/30/30
f 27/27/27 30/30/30 28/28/28
f 29/29/29 31/31/31 32/32/32
f 29/29/29 32/32/32 30/30/30
f 31/31/31 33/33/33 34/34/34
f 31/31/31 34/34/34 32/32/32
f 33/33/33 35/35/35 36/36/36
f 33/33/33 36/36/36 34/34/34
f 35/35/35 37/37/37 38/38/38
f 35/35/35 38/38/38 36/36/36
f 37/37/37 1/1/1 4/4/4
f 37/37/37 4/4/4 38/38/38
f 39/39/39 40/40/40 41/41/41
f 39/39/39 41/41/41 42/42/42
f 39/39/39 42/42/42 43/43/43
f 39/39/39 43/43/43 44/44/44
f 39/39/39 44/44/44 45/45/45
f 39/39/39 45/45/45 46/46/46
f 39/39/39 46/46/46 47/47/47
f 39/39/39 47/47/47 48/48/48
f 39/39/39 48/48/48 49/49/49
f 39/39/39 49/49/49 50/50/50
f 39/39/39 50/50/50 51/51/51
f 39/39/39 51/51/51 52/52/52
f 39/39/39 52/52/52 53/53/53
f 39/39/39 53/53/53 54/54/54
f 39/39/39 54/54/54 55/55/55
f 39/39/39 55/55/55 56/56/56
f 57/57/57 58/58/58 59/59/59
f 57/57/57 59/59/59 60/60/60
f 57/57/57 60/60/60 61/61/61
f 57/57/57 61/61/61 62/62/62
f 57/57/57 62/62/62 63/63/63
f 57/57/57 63/63/63 64/64/64
f 57/57/57 64/64/64 65/65/65
f 57/57/57 65/65/65 66/66/66
f 57/57/57 66/66/66 67/67/67
f 57/57/57 67/67/67 68/68/68
f 57/57/57 68/68/68 69/69/69
f 57/57/57 69/69/69 70/70/70
f 57/57/57 70/70/70 71/71/71
f 57/57/57 71/71/71 72/72/72
f 57/57/57 72/72/72 73/73/73
f 57/57/57 73/73/73 74/74/74
# ext.tangent 0.296035 -0.843416 -0.448344 1.0
# ext.tangent -0.036296 -0.835278 -0.548628 1.0
# ext.tangent -0.036296 -0.835279 -0.548627 1.0
# ext.tangent 0.296036 -0.843415 -0.448346 1.0
# ext.tangent -0.364686 -0.727033 -0.581745 1.0
# ext.tangent -0.364686 -0.727033 -0.581744 1.0
# ext.tangent -0.364695 -0.727051 -0.581717 1.0
# ext.tangent -0.649291 -0.531852 -0.543650 1.0
# ext.tangent -0.649291 -0.531851 -0.543651 1.0
# ext.tangent -0.364695 -0.727051 -0.581717 1.0
# ext.tangent -0.855981 -0.273110 -0.438985 1.0
# ext.tangent -0.855981 -0.273110 -0.438984 1.0
# ext.tangent -0.959735 0.017921 -0.280335 1.0
# ext.tangent -0.959735 0.017921 -0.280335 1.0
# ext.tangent -0.948025 0.306110 -0.086859 1.0
# ext.tangent -0.948026 0.306109 -0.086857 1.0
# ext.tangent -0.822331 0.556629 0.118050 1.0
# ext.tangent -0.822331 0.556629 0.118051 1.0
# ext.tangent -0.597700 0.739436 0.309822 1.0
# ext.tangent -0.597700 0.739435 0.309823 1.0
# ext.tangent -0.301386 0.832332 0.465178 1.0
# ext.tangent -0.301387 0.832330 0.465180 1.0
# ext.tangent 0.030946 0.824197 0.565457 1.0
# ext.tangent 0.030946 0.824195 0.565460 1.0
# ext.tangent 0.359338 0.715955 0.598569 1.0
# ext.tangent 0.359337 0.715953 0.598572 1.0
# ext.tangent 0.643935 0.520757 0.560500 1.0
# ext.tangent 0.643934 0.520755 0.560504 1.0
# ext.tangent 0.850626 0.262018 0.455831 1.0
# ext.tangent 0.850626 0.262017 0.455832 1.0
# ext.tangent 0.954381 -0.029012 0.297179 1.0
# ext.tangent 0.954380 -0.029014 0.297182 1.0
# ext.tangent 0.942673 -0.317197 0.103696 1.0
# ext.tangent 0.942673 -0.317198 0.103699 1.0
# ext.tangent 0.816979 -0.567716 -0.101213 1.0
# ext.tangent 0.816979 -0.567717 -0.101212 1.0
# ext.tangent 0.592349 -0.750520 -0.292988 1.0
# ext.tangent 0.592349 -0.750521 -0.292986 1.0
# ext.tangent 0.956567 -0.020133 0.290815 1.0
# ext.tangent 0.956559 -0.020083 0.290846 1.0
# ext.tangent 0.956563 -0.020105 0.290832 1.0
# ext.tangent 0.956568 -0.020134 0.290815 1.0
# ext.tangent 0.956568 -0.020139 0.290812 1.0
# ext.tangent 0.956567 -0.020131 0.290817 1.0
# ext.tangent 0.956567 -0.020131 0.290817 1.0
# ext.tangent 0.956569 -0.020140 0.290811 1.0
# ext.tangent 0.956567 -0.020132 0.290816 1.0
# ext.tangent 0.956567 -0.020131 0.290816 1.0
# ext.tangent 0.956568 -0.020135 0.290814 1.0
# ext.tangent 0.956567 -0.020131 0.290816 1.0
# ext.tangent 0.956568 -0.020134 0.290815 1.0
# ext.tangent 0.956568 -0.020134 0.290814 1.0
# ext.tangent 0.956568 -0.020134 0.290814 1.0
# ext.tangent 0.956567 -0.020131 0.290816 1.0
# ext.tangent 0.956571 -0.020154 0.290803 1.0
# ext.tangent 0.956575 -0.020180 0.290787 1.0
# ext.tangent 0.681472 -0.691765 -0.238868 1.0
# ext.tangent 0.681472 -0.691765 -0.238868 1.0
# ext.tangent 0.681471 -0.691765 -0.238868 1.0
# ext.tangent 0.681471 -0.691765 -0.238869 1.0
# ext.tangent 0.681472 -0.691764 -0.238868 1.0
# ext.tangent 0.681472 -0.691765 -0.238868 1.0
# ext.tangent 0.681472 -0.691764 -0.238867 1.0
# ext.tangent 0.681471 -0.691765 -0.238868 1.0
# ext.tangent 0.681470 -0.691766 -0.238869 1.0
# ext.tangent 0.681476 -0.691762 -0.238865 1.0
# ext.tangent 0.681475 -0.691762 -0.238865 1.0
# ext.tangent 0.681466 -0.691769 -0.238873 1.0
# ext.tangent 0.681468 -0.691767 -0.238871 1.0
# ext.tangent 0.681472 -0.691764 -0.238868 1.0
# ext.tangent 0.681472 -0.691765 -0.238868 1.0
# ext.tangent 0.681478 -0.691760 -0.238863 1.0
# ext.tangent 0.681475 -0.691762 -0.238865 1.0
# ext.tangent 0.681470 -0.691766 -0.238869 1.0
# ext.joint 41 41 41 41
# ext.joint 41 41 41 41
# ext.joint 41 41 41 41
# ext.joint 41 41 41 41
# ext.joint 41 41 41 41
# ext.joint 41 41 41 41
# ext.joint 41 41 41 41
# ext.joint 41 41 41 41
# ext.joint 41 41 41 41
# ext.joint 41 41 41 41
# ext.joint 41 41 41 41
# ext.joint 41 41 41 41
# ext.joint 41 41 41 41
# ext.joint 41 41 41 41
# ext.joint 41 41 41 41
# ext.joint 41 41 41 41
# ext.joint 41 41 41 41
# ext.joint 41 41 41 41
# ext.joint 41 41 41 41
# ext.joint 41 41 41 41
# ext.joint 41 41 41 41
# ext.joint 41 41 41 41
# ext.joint 41 41 41 41
# ext.joint 41 41 41 41
# ext.joint 41 41 41 41
# ext.joint 41 41 41 41
# ext.joint 41 41 41 41
# ext.joint 41 41 41 41
# ext.joint 41 41 41 41
# ext.joint 41 41 41 41
# ext.joint 41 41 41 41
# ext.joint 41 41 41 41
# ext.joint 41 41 41 41
# ext.joint 41 41 41 41
# ext.joint 41 41 41 41
# ext.joint 41 41 41 41
# ext.joint 41 41 41 41
# ext.joint 41 41 41 41
# ext.joint 41 41 41 41
# ext.joint 41 41 41 41
# ext.joint 41 41 41 41
# ext.joint 41 41 41 41
# ext.joint 41 41 41 41
# ext.joint 41 41 41 41
# ext.joint 41 41 41 41
# ext.joint 41 41 41 41
# ext.joint 41 41 41 41
# ext.joint 41 41 41 41
# ext.joint 41 41 41 41
# ext.joint 41 41 41 41
# ext.joint 41 41 41 41
# ext.joint 41 41 41 41
# ext.joint 41 41 41 41
# ext.joint 41 41 41 41
# ext.joint 41 41 41 41
# ext.joint 41 41 41 41
# ext.joint 41 41 41 41
# ext.joint 41 41 41 41
# ext.joint 41 41 41 41
# ext.joint 41 41 41 41
# ext.joint 41 41 41 41
# ext.joint 41 41 41 41
# ext.joint 41 41 41 41
# ext.joint 41 41 41 41
# ext.joint 41 41 41 41
# ext.joint 41 41 41 41
# ext.joint 41 41 41 41
# ext.joint 41 41 41 41
# ext.joint 41 41 41 41
# ext.joint 41 41 41 41
# ext.joint 41 41 41 41
# ext.joint 41 41 41 41
# ext.joint 41 41 41 41
# ext.joint 41 41 41 41
# ext.weight 1.000000 0.000000 0.000000 0.000000
# ext.weight 1.000000 0.000000 0.000000 0.000000
# ext.weight 1.000000 0.000000 0.000000 0.000000
# ext.weight 1.000000 0.000000 0.000000 0.000000
# ext.weight 1.000000 0.000000 0.000000 0.000000
# ext.weight 1.000000 0.000000 0.000000 0.000000
# ext.weight 1.000000 0.000000 0.000000 0.000000
# ext.weight 1.000000 0.000000 0.000000 0.000000
# ext.weight 1.000000 0.000000 0.000000 0.000000
# ext.weight 1.000000 0.000000 0.000000 0.000000
# ext.weight 1.000000 0.000000 0.000000 0.000000
# ext.weight 1.000000 0.000000 0.000000 0.000000
# ext.weight 1.000000 0.000000 0.000000 0.000000
# ext.weight 1.000000 0.000000 0.000000 0.000000
# ext.weight 1.000000 0.000000 0.000000 0.000000
# ext.weight 1.000000 0.000000 0.000000 0.000000
# ext.weight 1.000000 0.000000 0.000000 0.000000
# ext.weight 1.000000 0.000000 0.000000 0.000000
# ext.weight 1.000000 0.000000 0.000000 0.000000
# ext.weight 1.000000 0.000000 0.000000 0.000000
# ext.weight 1.000000 0.000000 0.000000 0.000000
# ext.weight 1.000000 0.000000 0.000000 0.000000
# ext.weight 1.000000 0.000000 0.000000 0.000000
# ext.weight 1.000000 0.000000 0.000000 0.000000
# ext.weight 1.000000 0.000000 0.000000 0.000000
# ext.weight 1.000000 0.000000 0.000000 0.000000
# ext.weight 1.000000 0.000000 0.000000 0.000000
# ext.weight 1.000000 0.000000 0.000000 0.000000
# ext.weight 1.000000 0.000000 0.000000 0.000000
# ext.weight 1.000000 0.000000 0.000000 0.000000
# ext.weight 1.000000 0.000000 0.000000 0.000000
# ext.weight 1.000000 0.000000 0.000000 0.000000
# ext.weight 1.000000 0.000000 0.000000 0.000000
# ext.weight 1.000000 0.000000 0.000000 0.000000
# ext.weight 1.000000 0.000000 0.000000 0.000000
# ext.weight 1.000000 0.000000 0.000000 0.000000
# ext.weight 1.000000 0.000000 0.000000 0.000000
# ext.weight 1.000000 0.000000 0.000000 0.000000
# ext.weight 1.000000 0.000000 0.000000 0.000000
# ext.weight 1.000000 0.000000 0.000000 0.000000
# ext.weight 1.000000 0.000000 0.000000 0.000000
# ext.weight 1.000000 0.000000 0.000000 0.000000
# ext.weight 1.000000 0.000000 0.000000 0.000000
# ext.weight 1.000000 0.000000 0.000000 0.000000
# ext.weight 1.000000 0.000000 0.000000 0.000000
# ext.weight 1.000000 0.000000 0.000000 0.000000
# ext.weight 1.000000 0.000000 0.000000 0.000000
# ext.weight 1.000000 0.000000 0.000000 0.000000
# ext.weight 1.000000 0.000000 0.000000 0.000000
# ext.weight 1.000000 0.000000 0.000000 0.000000
# ext.weight 1.000000 0.000000 0.000000 0.000000
# ext.weight 1.000000 0.000000 0.000000 0.000000
# ext.weight 1.000000 0.000000 0.000000 0.000000
# ext.weight 1.000000 0.000000 0.000000 0.000000
# ext.weight 1.000000 0.000000 0.000000 0.000000
# ext.weight 1.000000 0.000000 0.000000 0.000000
# ext.weight 1.000000 0.000000 0.000000 0.000000
# ext.weight 1.000000 0.000000 0.000000 0.000000
# ext.weight 1.000000 0.000000 0.000000 0.000000
# ext.weight 1.000000 0.000000 0.000000 0.000000
# ext.weight 1.000000 0.000000 0.000000 0.000000
# ext.weight 1.000000 0.000000 0.000000 0.000000
# ext.weight 1.000000 0.000000 0.000000 0.000000
# ext.weight 1.000000 0.000000 0.000000 0.000000
# ext.weight 1.000000 0.000000 0.000000 0.000000
# ext.weight 1.000000 0.000000 0.000000 0.000000
# ext.weight 1.000000 0.000000 0.000000 0.000000
# ext.weight 1.000000 0.000000 0.000000 0.000000
# ext.weight 1.000000 0.000000 0.000000 0.000000
# ext.weight 1.000000 0.000000 0.000000 0.000000
# ext.weight 1.000000 0.000000 0.000000 0.000000
# ext.weight 1.000000 0.000000 0.000000 0.000000
# ext.weight 1.000000 0.000000 0.000000 0.000000
# ext.weight 1.000000 0.000000 0.000000 0.000000
