v -5.276935 -45.979160 0.839930
v -0.208111 -47.826759 0.790693
v -0.165839 -45.380501 1.095344
v 4.961629 -44.804939 0.973980
v -1.030067 -49.161346 0.969259
v -0.148641 -49.313877 -0.094039
v -0.208111 -47.826759 0.790693
v -0.148641 -49.313877 -0.094039
v 0.722739 -49.203587 0.753095
v -0.208111 -47.826759 0.790693
v 19.345158 -44.898941 0.687664
v 20.127811 -45.555939 1.118424
v 20.205162 -44.703556 0.275309
v 15.090098 -50.037178 0.910302
v 22.246311 -49.310677 0.985616
v 20.127811 -45.555939 1.118424
v -17.204325 -48.527416 -0.323202
v -16.288382 -46.715271 -0.153871
v -10.386600 -45.690968 0.166142
v -10.323046 -48.296951 0.117190
v -17.228350 -48.415257 1.053699
v -10.343533 -48.272888 1.385139
v -10.375546 -45.666901 1.434091
v -16.278790 -46.603107 1.223030
v -17.204325 -48.527416 -0.323202
v -10.323046 -48.296951 0.117190
v -10.343533 -48.272888 1.385139
v -17.228350 -48.415257 1.053699
v 22.241081 -49.335518 0.244425
v 20.205162 -44.703556 0.275309
v 20.127811 -45.555939 1.118424
v 22.246311 -49.310677 0.985616
v -10.386600 -45.690968 0.166142
v -16.288382 -46.715271 -0.153871
v -16.278790 -46.603107 1.223030
v -10.375546 -45.666901 1.434091
v -16.288382 -46.715271 -0.153871
v -17.204325 -48.527416 -0.323202
v -17.228350 -48.415257 1.053699
v -16.278790 -46.603107 1.223030
v -5.288784 -45.914093 -0.252557
v -5.234710 -49.034752 -0.027915
v -5.276935 -45.979160 0.839930
v -5.288784 -45.914093 -0.252557
v -5.248466 -49.099819 1.064572
v -5.234710 -49.034752 -0.027915
v -5.248466 -49.099819 1.064572
v -0.175411 -45.493832 0.196959
v -0.148641 -49.313877 -0.094039
v -0.165839 -45.380501 1.095344
v -0.175411 -45.493832 0.196959
v -0.148641 -49.313877 -0.094039
v -1.030067 -49.161346 0.969259
v 4.957696 -44.679214 0.232788
v 4.929105 -49.311176 0.396692
v 4.961629 -44.804939 0.973980
v 4.957696 -44.679214 0.232788
v -0.148641 -49.313877 -0.094039
v 4.929105 -49.311176 0.396692
v 4.934333 -49.436901 1.137884
v 0.722739 -49.203587 0.753095
v 10.104974 -43.922340 0.111138
v 9.991582 -49.400368 0.434449
v 10.111451 -43.994255 0.787588
v 10.104974 -43.922340 0.111138
v 4.934333 -49.436901 1.137884
v 10.007609 -49.472282 1.110900
v 10.111451 -43.994255 0.787588
v 9.991582 -49.400368 0.434449
v 10.007609 -49.472282 1.110900
v 15.187463 -44.566193 0.255469
v 15.074071 -50.044220 0.233851
v 15.193940 -44.559151 0.931920
v 15.187463 -44.566193 0.255469
v 15.193940 -44.559151 0.931920
v 15.074071 -50.044220 0.233851
v 15.090098 -50.037178 0.910302
v 20.205162 -44.703556 0.275309
v 22.241081 -49.335518 0.244425
v 19.345158 -44.898941 0.687664
v 20.205162 -44.703556 0.275309
v 19.345158 -44.898941 0.687664
v 22.241081 -49.335518 0.244425
v 22.246311 -49.310677 0.985616
v -1.030067 -49.161346 0.969259
v 0.722739 -49.203587 0.753095
vt 0.099434 0.969145
vt 0.134767 0.957495
vt 0.134376 0.974637
vt 0.169495 0.979983
vt 0.129320 0.946965
vt 0.135141 0.938601
vt 0.134767 0.957495
vt 0.135141 0.938601
vt 0.141475 0.947068
vt 0.134767 0.957495
vt 0.268400 0.983212
vt 0.274413 0.978070
vt 0.276141 0.986522
vt 0.240449 0.945980
vt 0.289328 0.950278
vt 0.274413 0.978070
vt 0.017859 0.937577
vt 0.023695 0.924879
vt 0.064017 0.916318
vt 0.065172 0.934227
vt 0.018553 0.947569
vt 0.065107 0.948615
vt 0.064168 0.969902
vt 0.023819 0.961521
vt 0.017859 0.937577
vt 0.065172 0.934227
vt 0.065107 0.948615
vt 0.018553 0.947569
vt 0.294214 0.953519
vt 0.276141 0.986522
vt 0.274413 0.978070
vt 0.289328 0.950278
vt 0.063672 0.976399
vt 0.021758 0.970747
vt 0.023819 0.961521
vt 0.064168 0.969902
vt 0.013150 0.963135
vt 0.008164 0.949928
vt 0.018553 0.947569
vt 0.023819 0.961521
vt 0.099132 0.916542
vt 0.100265 0.937984
vt 0.099434 0.969145
vt 0.099112 0.976552
vt 0.099987 0.946459
vt 0.100265 0.937984
vt 0.099987 0.946459
vt 0.134187 0.912337
vt 0.135141 0.938601
vt 0.134376 0.974637
vt 0.133299 0.980742
vt 0.135141 0.938601
vt 0.129320 0.946965
vt 0.169278 0.905416
vt 0.170296 0.937275
vt 0.169495 0.979983
vt 0.168764 0.985057
vt 0.135141 0.938601
vt 0.170296 0.937275
vt 0.170640 0.946674
vt 0.141475 0.947068
vt 0.204480 0.898887
vt 0.205139 0.936591
vt 0.204640 0.986929
vt 0.204338 0.991570
vt 0.170640 0.946674
vt 0.205231 0.947237
vt 0.204640 0.986929
vt 0.205139 0.936591
vt 0.205231 0.947237
vt 0.239597 0.902009
vt 0.240220 0.939702
vt 0.239749 0.984430
vt 0.240043 0.989083
vt 0.239749 0.984430
vt 0.240220 0.939702
vt 0.240449 0.945980
vt 0.274138 0.901663
vt 0.289300 0.932997
vt 0.268400 0.983212
vt 0.276141 0.986522
vt 0.268400 0.983212
vt 0.289300 0.932997
vt 0.289328 0.950278
vt 0.129320 0.946965
vt 0.141475 0.947068
vn 0.052900 0.029052 0.998177
vn -0.011035 -0.028774 0.999525
vn 0.004184 -0.123653 0.992317
vn -0.006483 0.013396 0.999889
vn 0.697488 -0.345582 0.627761
vn 0.697488 -0.345582 0.627761
vn 0.697488 -0.345582 0.627761
vn -0.602453 -0.425745 0.675124
vn -0.602453 -0.425745 0.675124
vn -0.602453 -0.425745 0.675124
vn 0.183939 0.682745 0.707125
vn 0.183939 0.682745 0.707125
vn 0.183939 0.682745 0.707125
vn -0.004066 0.023450 0.999717
vn -0.006553 -0.039040 0.999216
vn -0.015934 0.013650 0.999780
vn 0.055563 0.038573 -0.997710
vn 0.055563 0.038573 -0.997710
vn -0.002873 0.002440 -0.999993
vn -0.004058 0.001706 -0.999990
vn -0.038875 -0.041253 0.998392
vn 0.030323 -0.003077 0.999535
vn 0.028644 -0.004005 0.999582
vn -0.038875 -0.041253 0.998392
vn 0.024133 -0.998364 0.051827
vn -0.064544 -0.997782 0.016314
vn -0.063155 -0.997861 0.016873
vn 0.024133 -0.998364 0.051827
vn 0.867010 0.424383 0.261139
vn 0.867010 0.424383 0.261139
vn 0.867010 0.424383 0.261139
vn 0.867010 0.424383 0.261139
vn -0.053740 0.998421 -0.016361
vn -0.161462 0.985636 -0.049508
vn -0.161462 0.985637 -0.049508
vn -0.056258 0.998269 -0.017136
vn -0.886732 0.460359 -0.042148
vn -0.886732 0.460359 -0.042148
vn -0.886732 0.460359 -0.042148
vn -0.886732 0.460359 -0.042148
vn -0.010371 -0.010904 -0.999887
vn -0.006813 -0.009349 -0.999933
vn -0.020698 0.999782 -0.002846
vn -0.021168 0.999772 -0.002970
vn 0.061006 0.059589 0.996357
vn -0.093595 -0.995604 0.003470
vn -0.096431 -0.995337 0.002378
vn 0.044325 0.012679 -0.998937
vn 0.043990 0.012548 -0.998953
vn -0.116358 0.993184 -0.006850
vn -0.115085 0.993324 -0.007951
vn -0.036133 -0.999021 0.025528
vn -0.036133 -0.999021 0.025528
vn 0.019839 -0.019730 -0.999609
vn 0.022562 -0.016628 -0.999607
vn -0.139747 0.987612 0.071364
vn -0.140005 0.987349 0.074436
vn -0.025213 -0.999673 0.004201
vn -0.018911 -0.997746 -0.064387
vn -0.018431 -0.997407 -0.069566
vn -0.025213 -0.999673 0.004201
vn -0.007072 -0.037483 -0.999272
vn -0.007091 -0.037384 -0.999276
vn -0.014061 0.995580 0.092863
vn -0.015262 0.995523 0.093281
vn -0.022622 0.029988 0.999294
vn 0.012791 0.037393 0.999219
vn 0.012768 0.037338 0.999221
vn -0.065513 -0.993603 -0.091988
vn -0.066293 -0.993613 -0.091313
vn -0.003576 -0.011431 -0.999928
vn -0.003409 -0.010941 -0.999934
vn 0.086787 0.987749 0.129691
vn 0.087132 0.987842 0.128747
vn -0.007314 0.044701 0.998974
vn -0.010465 -0.999872 -0.012096
vn -0.009509 -0.999885 -0.011810
vn 0.002233 0.005618 -0.999982
vn 0.002233 0.005618 -0.999982
vn 0.055971 0.975530 0.212625
vn 0.055971 0.975530 0.212625
vn -0.024825 0.063786 0.997655
vn 0.099556 -0.994813 0.020881
vn 0.099556 -0.994813 0.020881
vn 0.032826 0.084284 0.995901
vn -0.063809 0.011381 0.997897
f 1/1/1 2/2/2 3/3/3
f 3/3/3 2/2/2 4/4/4
f 5/5/5 6/6/6 7/7/7
f 8/8/8 9/9/9 10/10/10
f 11/11/11 12/12/12 13/13/13
f 14/14/14 15/15/15 16/16/16
f 17/17/17 18/18/18 19/19/19
f 17/17/17 19/19/19 20/20/20
f 21/21/21 22/22/22 23/23/23
f 21/21/21 23/23/23 24/24/24
f 25/25/25 26/26/26 27/27/27
f 25/25/25 27/27/27 28/28/28
f 29/29/29 30/30/30 31/31/31
f 29/29/29 31/31/31 32/32/32
f 33/33/33 34/34/34 35/35/35
f 33/33/33 35/35/35 36/36/36
f 37/37/37 38/38/38 39/39/39
f 37/37/37 39/39/39 40/40/40
f 20/20/20 19/19/19 41/41/41
f 20/20/20 41/41/41 42/42/42
f 33/33/33 36/36/36 43/43/43
f 33/33/33 43/43/43 44/44/44
f 23/23/23 22/22/22 45/45/45
f 23/23/23 45/45/45 1/1/1
f 27/27/27 26/26/26 46/46/46
f 27/27/27 46/46/46 47/47/47
f 42/42/42 41/41/41 48/48/48
f 42/42/42 48/48/48 49/49/49
f 44/44/44 43/43/43 50/50/50
f 44/44/44 50/50/50 51/51/51
f 47/47/47 46/46/46 52/52/52
f 47/47/47 52/52/52 53/53/53
f 49/49/49 48/48/48 54/54/54
f 49/49/49 54/54/54 55/55/55
f 51/51/51 50/50/50 56/56/56
f 51/51/51 56/56/56 57/57/57
f 58/58/58 59/59/59 60/60/60
f 58/58/58 60/60/60 61/61/61
f 55/55/55 54/54/54 62/62/62
f 55/55/55 62/62/62 63/63/63
f 57/57/57 56/56/56 64/64/64
f 57/57/57 64/64/64 65/65/65
f 4/4/4 66/66/66 67/67/67
f 4/4/4 67/67/67 68/68/68
f 60/60/60 59/59/59 69/69/69
f 60/60/60 69/69/69 70/70/70
f 63/63/63 62/62/62 71/71/71
f 63/63/63 71/71/71 72/72/72
f 65/65/65 64/64/64 73/73/73
f 65/65/65 73/73/73 74/74/74
f 68/68/68 67/67/67 14/14/14
f 68/68/68 14/14/14 75/75/75
f 70/70/70 69/69/69 76/76/76
f 70/70/70 76/76/76 77/77/77
f 72/72/72 71/71/71 78/78/78
f 72/72/72 78/78/78 79/79/79
f 73/73/73 80/80/80 81/81/81
f 73/73/73 81/81/81 74/74/74
f 75/75/75 14/14/14 16/16/16
f 75/75/75 16/16/16 82/82/82
f 77/77/77 76/76/76 83/83/83
f 77/77/77 83/83/83 84/84/84
f 45/45/45 85/85/85 2/2/2
f 45/45/45 2/2/2 1/1/1
f 2/2/2 86/86/86 66/66/66
f 2/2/2 66/66/66 4/4/4
