v -1.646622 -3.921148 0.000000
v 3.921149 1.646622 0.000000
v 1.302712 4.265058 0.000000
v -4.265058 -1.302713 0.000000
v -2.839435 -2.728335 1.863702
v 2.728336 2.839435 1.863703
v 2.728335 2.839434 -1.839325
v -2.839435 -2.728335 -1.839326
vt 0.290879 0.002014
vt 0.997986 0.709121
vt 0.665444 1.041662
vt -0.041662 0.334556
vt 0.290879 0.002014
vt 0.997986 0.709121
vt 0.665444 1.041662
vt -0.041662 0.334556
vn 0.000000 0.000000 1.000000
vn 0.000000 0.000000 1.000000
vn 0.000000 0.000000 1.000000
vn 0.000000 0.000000 1.000000
vn -0.707107 0.707107 0.000000
vn -0.707107 0.707107 0.000000
vn -0.707107 0.707107 0.000000
vn -0.707107 0.707107 0.000000
f 1/1/1 2/2/2 3/3/3
f 1/1/1 3/3/3 4/4/4
f 5/5/5 6/6/6 7/7/7
f 5/5/5 7/7/7 8/8/8
