v 0.623380 1.852250 8.331040
v -0.980730 0.926130 8.331790
v -0.982460 0.926130 12.113650
v 0.621660 1.852250 12.112900
v -0.980730 0.926130 8.331790
v 0.623380 1.852250 8.331040
v 2.227500 0.926130 8.330290
v 2.227500 -0.926130 8.330290
v 0.623380 -1.852260 8.331040
v -0.980730 -0.926130 8.331790
vt 0.000000 0.000000
vt 0.000000 0.000000
vt 0.000000 0.000000
vt 0.000000 0.000000
vt 0.000000 0.000000
vt 0.000000 0.000000
vt 0.000000 0.000000
vt 0.000000 0.000000
vt 0.000000 0.000000
vt 0.000000 0.000000
vn -0.499998 0.866027 -0.000230
vn -0.499998 0.866027 -0.000230
vn -0.499998 0.866027 -0.000230
vn -0.499998 0.866027 -0.000230
vn -0.000470 -0.000000 -1.000000
vn -0.000470 -0.000000 -1.000000
vn -0.000470 -0.000000 -1.000000
vn -0.000470 0.000000 -1.000000
vn -0.000470 0.000000 -1.000000
vn -0.000470 -0.000000 -1.000000
f 5/5/5 6/6/6 7/7/7
f 7/7/7 8/8/8 9/9/9
f 9/9/9 10/10/10 5/5/5
f 7/7/7 9/9/9 5/5/5
f 1/1/1 2/2/2 3/3/3
f 1/1/1 3/3/3 4/4/4
