v 2.227500 0.926130 8.330290
v 0.623380 1.852250 8.331040
v 0.621660 1.852250 12.112900
v 2.225770 0.926130 12.112150
v -1.868250 -0.000000 9.023030
v -0.502650 1.185710 11.679390
v -0.983400 0.563590 8.126760
v -1.220480 -0.000000 6.218830
v -0.983400 0.563590 8.126760
v -0.861410 0.503010 0.971280
v -1.635150 0.276300 -0.731300
v -1.739450 0.000000 0.703380
v -0.861410 0.503010 0.971280
v -1.166340 0.552600 -0.635110
v -1.868250 -0.000000 9.023030
v -1.141340 0.521020 13.530200
v -0.502650 1.185710 11.679390
vt 0.000000 0.000000
vt 0.000000 0.000000
vt 0.000000 0.000000
vt 0.000000 0.000000
vt 0.000000 0.000000
vt 0.000000 0.000000
vt 0.000000 0.000000
vt 0.000000 0.000000
vt 0.000000 0.000000
vt 0.000000 0.000000
vt 0.000000 0.000000
vt 0.000000 0.000000
vt 0.000000 0.000000
vt 0.000000 0.000000
vt 0.000000 0.000000
vt 0.000000 0.000000
vt 0.000000 0.000000
vn 0.499998 0.866027 0.000230
vn 0.499998 0.866027 0.000230
vn 0.499998 0.866027 0.000230
vn 0.499998 0.866027 0.000230
vn -0.581068 0.811378 -0.063450
vn -0.581068 0.811378 -0.063450
vn -0.581068 0.811378 -0.063450
vn -0.896947 0.441729 -0.019030
vn -0.896947 0.441729 -0.019030
vn -0.896947 0.441729 -0.019030
vn -0.521980 0.843770 0.124860
vn -0.521980 0.843770 0.124860
vn -0.521980 0.843770 0.124860
vn -0.521980 0.843770 0.124860
vn -0.683721 0.729281 0.025970
vn -0.683721 0.729281 0.025970
vn -0.683721 0.729281 0.025970
f 5/5/5 6/6/6 7/7/7
f 8/8/8 9/9/9 10/10/10
f 15/15/15 16/16/16 17/17/17
f 1/1/1 2/2/2 3/3/3
f 1/1/1 3/3/3 4/4/4
f 11/11/11 12/12/12 13/13/13
f 11/11/11 13/13/13 14/14/14
