v 0.023540 0.984580 0.888610
v 0.023540 0.909430 0.998320
v 0.824480 0.447010 0.998320
v 0.889570 0.484580 0.888610
v 0.889570 0.484580 0.888610
v 0.824480 0.447010 0.998320
v 0.824480 -0.477840 0.998320
v 0.866030 -0.500000 0.890290
v 0.866030 -0.500000 0.890290
v 0.824480 -0.477840 0.998320
v 0.023540 -0.940260 0.998320
v 0.023540 -1.015420 0.888610
v 0.023540 -1.015420 0.888610
v 0.023540 -0.940260 0.998320
v -0.777390 -0.477840 0.998320
v -0.842480 -0.515420 0.888610
v 0.824480 -0.477840 0.998320
v 0.824480 0.447010 0.998320
v 0.023540 0.909430 0.998320
v -0.777390 0.447010 0.998320
v -0.777390 -0.477840 0.998320
v 0.023540 -0.940260 0.998320
v -0.842480 -0.515420 0.888610
v -0.777390 -0.477840 0.998320
v -0.777390 0.447010 0.998320
v -0.842480 0.484580 0.888610
v -0.842480 0.484580 0.888610
v -0.777390 0.447010 0.998320
v 0.023540 0.909430 0.998320
v 0.023540 0.984580 0.888610
v -1.007930 0.581930 -1.035760
v 0.000000 1.163860 -1.035760
v 1.007930 0.581930 -1.035760
v 1.007930 -0.581930 -1.035760
v -0.000000 -1.163860 -1.035760
v -1.007930 -0.581930 -1.035760
v 0.000000 1.163860 -0.527720
v 0.000000 1.163860 -1.035760
v -1.007930 0.581930 -1.035760
v -1.007930 0.581930 -0.527720
v -1.007930 -0.581930 -1.035760
v -1.007930 -0.581930 -0.527720
v -1.007930 0.581930 -0.527720
v -1.007930 0.581930 -1.035760
v -0.000000 -1.163860 -1.035760
v -0.000000 -1.163860 -0.527720
v -1.007930 -0.581930 -0.527720
v -1.007930 -0.581930 -1.035760
v 1.007930 -0.581930 -1.035760
v 1.007930 -0.581930 -0.527720
v -0.000000 -1.163860 -0.527720
v -0.000000 -1.163860 -1.035760
v 1.007930 0.581930 -1.035760
v 1.007930 0.581930 -0.527720
v 1.007930 -0.581930 -0.527720
v 1.007930 -0.581930 -1.035760
v 0.000000 1.163860 -1.035760
v 0.000000 1.163860 -0.527720
v 1.007930 0.581930 -0.527720
v 1.007930 0.581930 -1.035760
v -1.007930 0.581930 -0.527720
v -0.866030 0.500000 -0.495620
v 0.000000 1.000000 -0.495620
v 0.000000 1.163860 -0.527720
v -1.007930 -0.581930 -0.527720
v -0.866030 -0.500000 -0.495620
v -0.866030 0.500000 -0.495620
v -1.007930 0.581930 -0.527720
v 1.007930 0.581930 -0.527720
v 0.866030 0.500000 -0.495620
v 0.866030 -0.500000 -0.495620
v 1.007930 -0.581930 -0.527720
v 0.000000 1.163860 -0.527720
v 0.000000 1.000000 -0.495620
v 0.866030 0.500000 -0.495620
v 1.007930 0.581930 -0.527720
vt 0.000000 0.000000
vt 0.000000 0.000000
vt 0.000000 0.000000
vt 0.000000 0.000000
vt 0.000000 0.000000
vt 0.000000 0.000000
vt 0.000000 0.000000
vt 0.000000 0.000000
vt 0.000000 0.000000
vt 0.000000 0.000000
vt 0.000000 0.000000
vt 0.000000 0.000000
vt 0.000000 0.000000
vt 0.000000 0.000000
vt 0.000000 0.000000
vt 0.000000 0.000000
vt 0.000000 0.000000
vt 0.000000 0.000000
vt 0.000000 0.000000
vt 0.000000 0.000000
vt 0.000000 0.000000
vt 0.000000 0.000000
vt 0.000000 0.000000
vt 0.000000 0.000000
vt 0.000000 0.000000
vt 0.000000 0.000000
vt 0.000000 0.000000
vt 0.000000 0.000000
vt 0.000000 0.000000
vt 0.000000 0.000000
vt 0.000000 0.000000
vt 0.000000 0.000000
vt 0.000000 0.000000
vt 0.000000 0.000000
vt 0.000000 0.000000
vt 0.000000 0.000000
vt 0.000000 0.000000
vt 0.000000 0.000000
vt 0.000000 0.000000
vt 0.000000 0.000000
vt 0.000000 0.000000
vt 0.000000 0.000000
vt 0.000000 0.000000
vt 0.000000 0.000000
vt 0.000000 0.000000
vt 0.000000 0.000000
vt 0.000000 0.000000
vt 0.000000 0.000000
vt 0.000000 0.000000
vt 0.000000 0.000000
vt 0.000000 0.000000
vt 0.000000 0.000000
vt 0.000000 0.000000
vt 0.000000 0.000000
vt 0.000000 0.000000
vt 0.000000 0.000000
vt 0.000000 0.000000
vt 0.000000 0.000000
vt 0.000000 0.000000
vt 0.000000 0.000000
vt 0.000000 0.000000
vt 0.000000 0.000000
vt 0.000000 0.000000
vt 0.000000 0.000000
vt 0.000000 0.000000
vt 0.000000 0.000000
vt 0.000000 0.000000
vt 0.000000 0.000000
vt 0.000000 0.000000
vt 0.000000 0.000000
vt 0.000000 0.000000
vt 0.000000 0.000000
vt 0.000000 0.000000
vt 0.000000 0.000000
vt 0.000000 0.000000
vt 0.000000 0.000000
vn 0.430021 0.744812 0.510232
vn 0.430021 0.744812 0.510232
vn 0.430021 0.744812 0.510232
vn 0.430021 0.744812 0.510232
vn 0.898334 -0.010690 0.439182
vn 0.898334 -0.010690 0.439182
vn 0.898334 -0.010690 0.439182
vn 0.898334 -0.010690 0.439182
vn 0.460351 -0.774432 0.433971
vn 0.460351 -0.774432 0.433971
vn 0.460351 -0.774432 0.433971
vn 0.460351 -0.774432 0.433971
vn -0.430021 -0.744812 0.510232
vn -0.430021 -0.744812 0.510232
vn -0.430021 -0.744812 0.510232
vn -0.430021 -0.744812 0.510232
vn 0.000000 0.000000 1.000000
vn 0.000000 0.000000 1.000000
vn 0.000000 0.000000 1.000000
vn 0.000000 0.000000 1.000000
vn 0.000000 0.000000 1.000000
vn 0.000000 0.000000 1.000000
vn -0.860038 0.000000 0.510229
vn -0.860038 0.000000 0.510229
vn -0.860038 0.000000 0.510229
vn -0.860038 0.000000 0.510229
vn -0.430021 0.744812 0.510232
vn -0.430021 0.744812 0.510232
vn -0.430021 0.744812 0.510232
vn -0.430021 0.744812 0.510232
vn -0.000000 0.000000 -1.000000
vn -0.000000 0.000000 -1.000000
vn -0.000000 0.000000 -1.000000
vn 0.000000 0.000000 -1.000000
vn 0.000000 0.000000 -1.000000
vn 0.000000 0.000000 -1.000000
vn -0.499998 0.866027 0.000000
vn -0.499998 0.866027 0.000000
vn -0.499998 0.866027 0.000000
vn -0.499998 0.866027 0.000000
vn -1.000000 -0.000000 0.000000
vn -1.000000 -0.000000 0.000000
vn -1.000000 -0.000000 0.000000
vn -1.000000 -0.000000 0.000000
vn -0.499998 -0.866027 0.000000
vn -0.499998 -0.866027 0.000000
vn -0.499998 -0.866027 0.000000
vn -0.499998 -0.866027 0.000000
vn 0.499998 -0.866027 0.000000
vn 0.499998 -0.866027 0.000000
vn 0.499998 -0.866027 0.000000
vn 0.499998 -0.866027 0.000000
vn 1.000000 -0.000000 0.000000
vn 1.000000 -0.000000 0.000000
vn 1.000000 -0.000000 0.000000
vn 1.000000 -0.000000 0.000000
vn 0.499998 0.866027 0.000000
vn 0.499998 0.866027 0.000000
vn 0.499998 0.866027 0.000000
vn 0.499998 0.866027 0.000000
vn -0.110299 0.191039 0.975366
vn -0.110299 0.191039 0.975366
vn -0.110299 0.191039 0.975366
vn -0.110299 0.191039 0.975366
vn -0.220589 0.000000 0.975367
vn -0.220589 0.000000 0.975367
vn -0.220589 0.000000 0.975367
vn -0.220589 0.000000 0.975367
vn 0.220589 -0.000000 0.975367
vn 0.220589 -0.000000 0.975367
vn 0.220589 -0.000000 0.975367
vn 0.220589 -0.000000 0.975367
vn 0.110299 0.191039 0.975366
vn 0.110299 0.191039 0.975366
vn 0.110299 0.191039 0.975366
vn 0.110299 0.191039 0.975366
f 17/17/17 18/18/18 19/19/19
f 19/19/19 20/20/20 21/21/21
f 21/21/21 22/22/22 17/17/17
f 19/19/19 21/21/21 17/17/17
f 31/31/31 32/32/32 33/33/33
f 33/33/33 34/34/34 35/35/35
f 35/35/35 36/36/36 31/31/31
f 33/33/33 35/35/35 31/31/31
f 1/1/1 2/2/2 3/3/3
f 1/1/1 3/3/3 4/4/4
f 5/5/5 6/6/6 7/7/7
f 5/5/5 7/7/7 8/8/8
f 9/9/9 10/10/10 11/11/11
f 9/9/9 11/11/11 12/12/12
f 13/13/13 14/14/14 15/15/15
f 13/13/13 15/15/15 16/16/16
f 23/23/23 24/24/24 25/25/25
f 23/23/23 25/25/25 26/26/26
f 27/27/27 28/28/28 29/29/29
f 27/27/27 29/29/29 30/30/30
f 37/37/37 38/38/38 39/39/39
f 37/37/37 39/39/39 40/40/40
f 41/41/41 42/42/42 43/43/43
f 41/41/41 43/43/43 44/44/44
f 45/45/45 46/46/46 47/47/47
f 45/45/45 47/47/47 48/48/48
f 49/49/49 50/50/50 51/51/51
f 49/49/49 51/51/51 52/52/52
f 53/53/53 54/54/54 55/55/55
f 53/53/53 55/55/55 56/56/56
f 57/57/57 58/58/58 59/59/59
f 57/57/57 59/59/59 60/60/60
f 61/61/61 62/62/62 63/63/63
f 61/61/61 63/63/63 64/64/64
f 65/65/65 66/66/66 67/67/67
f 65/65/65 67/67/67 68/68/68
f 69/69/69 70/70/70 71/71/71
f 69/69/69 71/71/71 72/72/72
f 73/73/73 74/74/74 75/75/75
f 73/73/73 75/75/75 76/76/76
