v -0.866030 0.500000 0.830450
v -0.842480 0.484580 0.888610
v 0.023540 0.984580 0.888610
v 0.000000 1.000000 0.830450
v -0.866030 -0.500000 0.830450
v -0.842480 -0.515420 0.888610
v -0.842480 0.484580 0.888610
v -0.866030 0.500000 0.830450
v -0.000000 -1.000000 0.830450
v 0.023540 -1.015420 0.888610
v -0.842480 -0.515420 0.888610
v -0.866030 -0.500000 0.830450
v 0.866030 -0.500000 0.830450
v 0.866030 -0.500000 0.890290
v 0.023540 -1.015420 0.888610
v -0.000000 -1.000000 0.830450
v 0.866030 0.500000 0.830450
v 0.889570 0.484580 0.888610
v 0.866030 -0.500000 0.890290
v 0.866030 -0.500000 0.830450
v 0.000000 1.000000 0.830450
v 0.023540 0.984580 0.888610
v 0.889570 0.484580 0.888610
v 0.866030 0.500000 0.830450
vt 0.000000 0.000000
vt 0.000000 0.000000
vt 0.000000 0.000000
vt 0.000000 0.000000
vt 0.000000 0.000000
vt 0.000000 0.000000
vt 0.000000 0.000000
vt 0.000000 0.000000
vt 0.000000 0.000000
vt 0.000000 0.000000
vt 0.000000 0.000000
vt 0.000000 0.000000
vt 0.000000 0.000000
vt 0.000000 0.000000
vt 0.000000 0.000000
vt 0.000000 0.000000
vt 0.000000 0.000000
vt 0.000000 0.000000
vt 0.000000 0.000000
vt 0.000000 0.000000
vt 0.000000 0.000000
vt 0.000000 0.000000
vt 0.000000 0.000000
vt 0.000000 0.000000
vn -0.459010 0.795030 0.396530
vn -0.459010 0.795030 0.396530
vn -0.459010 0.795030 0.396530
vn -0.459010 0.795030 0.396530
vn -0.926940 0.000000 0.375210
vn -0.926940 0.000000 0.375210
vn -0.926940 0.000000 0.375210
vn -0.926940 0.000000 0.375210
vn -0.499817 -0.865705 -0.027140
vn -0.499817 -0.865705 -0.027140
vn -0.499817 -0.865705 -0.027140
vn -0.499817 -0.865705 -0.027140
vn 0.499720 -0.840470 -0.209500
vn 0.499720 -0.840470 -0.209500
vn 0.499720 -0.840470 -0.209500
vn 0.499720 -0.840470 -0.209500
vn 0.980309 -0.011800 -0.197120
vn 0.980309 -0.011800 -0.197120
vn 0.980309 -0.011800 -0.197120
vn 0.980309 -0.011800 -0.197120
vn 0.499817 0.865705 0.027140
vn 0.499817 0.865705 0.027140
vn 0.499817 0.865705 0.027140
vn 0.499817 0.865705 0.027140
f 1/1/1 2/2/2 3/3/3
f 1/1/1 3/3/3 4/4/4
f 5/5/5 6/6/6 7/7/7
f 5/5/5 7/7/7 8/8/8
f 9/9/9 10/10/10 11/11/11
f 9/9/9 11/11/11 12/12/12
f 13/13/13 14/14/14 15/15/15
f 13/13/13 15/15/15 16/16/16
f 17/17/17 18/18/18 19/19/19
f 17/17/17 19/19/19 20/20/20
f 21/21/21 22/22/22 23/23/23
f 21/21/21 23/23/23 24/24/24
