v 0.411580 0.333450 0.099850
v 0.392120 -0.217640 -1.000000
v 0.303250 -0.064670 -7.975370
v 0.321270 0.283760 -7.735140
v -0.007810 0.516640 0.712450
v 0.411580 0.333450 0.099850
v 0.321270 0.283760 -7.735140
v -0.025570 0.451410 -9.104200
v 0.392120 -0.217640 -1.000000
v 0.018250 -0.542340 0.101820
v -0.018230 -0.459780 -4.390100
v 0.303250 -0.064670 -7.975370
v 0.018250 -0.542340 0.101820
v -0.435630 -0.293270 0.234200
v -0.328350 -0.203600 -7.046710
v -0.018230 -0.459780 -4.390100
v -0.435630 -0.293270 0.234200
v -0.355000 0.374190 0.375380
v -0.237090 0.337940 -9.441450
v -0.328350 -0.203600 -7.046710
v -0.355000 0.374190 0.375380
v -0.007810 0.516640 0.712450
v -0.025570 0.451410 -9.104200
v -0.237090 0.337940 -9.441450
vt 0.000000 0.000000
vt 0.000000 0.000000
vt 0.000000 0.000000
vt 0.000000 0.000000
vt 0.000000 0.000000
vt 0.000000 0.000000
vt 0.000000 0.000000
vt 0.000000 0.000000
vt 0.000000 0.000000
vt 0.000000 0.000000
vt 0.000000 0.000000
vt 0.000000 0.000000
vt 0.000000 0.000000
vt 0.000000 0.000000
vt 0.000000 0.000000
vt 0.000000 0.000000
vt 0.000000 0.000000
vt 0.000000 0.000000
vt 0.000000 0.000000
vt 0.000000 0.000000
vt 0.000000 0.000000
vt 0.000000 0.000000
vt 0.000000 0.000000
vt 0.000000 0.000000
vn 0.999651 -0.023390 -0.012260
vn 0.999651 -0.023390 -0.012260
vn 0.999651 -0.023390 -0.012260
vn 0.999651 -0.023390 -0.012260
vn 0.423231 0.905982 -0.008490
vn 0.423231 0.905982 -0.008490
vn 0.423231 0.905982 -0.008490
vn 0.423231 0.905982 -0.008490
vn 0.640849 -0.767329 -0.022770
vn 0.640849 -0.767329 -0.022770
vn 0.640849 -0.767329 -0.022770
vn 0.640849 -0.767329 -0.022770
vn -0.515087 -0.856995 -0.015630
vn -0.515087 -0.856995 -0.015630
vn -0.515087 -0.856995 -0.015630
vn -0.515087 -0.856995 -0.015630
vn -0.992993 0.117490 -0.012710
vn -0.992993 0.117490 -0.012710
vn -0.992993 0.117490 -0.012710
vn -0.992993 0.117490 -0.012710
vn -0.409641 0.912222 -0.006800
vn -0.409641 0.912222 -0.006800
vn -0.409641 0.912222 -0.006800
vn -0.409641 0.912222 -0.006800
f 1/1/1 2/2/2 3/3/3
f 1/1/1 3/3/3 4/4/4
f 5/5/5 6/6/6 7/7/7
f 5/5/5 7/7/7 8/8/8
f 9/9/9 10/10/10 11/11/11
f 9/9/9 11/11/11 12/12/12
f 13/13/13 14/14/14 15/15/15
f 13/13/13 15/15/15 16/16/16
f 17/17/17 18/18/18 19/19/19
f 17/17/17 19/19/19 20/20/20
f 21/21/21 22/22/22 23/23/23
f 21/21/21 23/23/23 24/24/24
