v 2.670280 0.461150 1.107100
v 2.789710 0.200510 -0.264510
v 2.236770 0.713590 0.761480
v 2.371850 0.634020 1.011300
v 2.666780 -0.461150 1.422370
v 2.670530 -0.461150 1.085090
v 2.789710 0.200510 -0.264510
v 2.670280 0.461150 1.107100
vt 0.000000 0.000000
vt 0.000000 0.000000
vt 0.000000 0.000000
vt 0.000000 0.000000
vt 0.000000 0.000000
vt 0.000000 0.000000
vt 0.000000 0.000000
vt 0.000000 0.000000
vn 0.557690 0.824310 -0.097440
vn 0.557690 0.824310 -0.097440
vn 0.557690 0.824310 -0.097440
vn 0.557690 0.824310 -0.097440
vn 0.997395 -0.001460 0.072120
vn 0.997395 -0.001460 0.072120
vn 0.997395 -0.001460 0.072120
vn 0.997395 -0.001460 0.072120
f 1/1/1 2/2/2 3/3/3
f 1/1/1 3/3/3 4/4/4
f 5/5/5 6/6/6 7/7/7
f 5/5/5 7/7/7 8/8/8
