v 0.789120 -0.500000 8.929500
v 0.789120 0.500000 8.929500
v -0.078570 1.000000 9.003930
v -0.946250 0.500000 9.078360
v -0.946250 -0.500000 9.078360
v -0.078570 -1.000000 9.003930
v 1.942750 -0.359940 8.868490
v 1.942750 0.359940 8.868490
v 1.317590 0.719890 8.945640
v 0.692430 0.359940 9.022780
v 0.692430 -0.359940 9.022780
v 1.317590 -0.719890 8.945640
v 2.644650 -0.461150 3.412570
v 2.644650 0.461150 3.412570
v 1.845530 0.922300 3.430260
v 1.046400 0.461150 3.447950
v 1.046400 -0.461150 3.447950
v 1.845530 -0.922300 3.430260
v 2.225770 -0.926130 12.112150
v 2.225770 0.926130 12.112150
v 0.621660 1.852250 12.112900
v -0.982460 0.926130 12.113650
v -0.982460 -0.926130 12.113650
v 0.621660 -1.852260 12.112900
v -0.502650 1.185710 11.679390
v 1.450360 0.926600 11.742770
v 0.271330 0.575110 11.321030
v 0.093750 -0.558040 13.101930
v -1.185150 -0.526180 13.357000
v -0.452810 -1.210010 11.675280
v -1.868250 -0.000000 9.023030
v 0.309040 -0.545210 11.299860
v -0.579050 -0.000000 8.497720
v -0.094040 -0.000000 6.431100
v -0.983400 0.563590 8.126760
v -0.983400 -0.563590 8.126760
v -1.220480 -0.000000 6.218830
v -1.095450 -0.479610 0.933720
v -0.861410 0.503010 0.971280
v -1.739450 0.000000 0.703380
v -0.072450 0.000000 1.221730
v -0.732970 -0.486220 1.006240
v -1.635150 0.276300 -0.731300
v -1.635150 -0.276300 -0.731300
v 2.925380 -0.608690 10.752300
v 2.913830 -0.608690 11.407920
v 1.641170 -0.397240 10.144190
v 1.639540 -0.001510 7.832610
v 2.869890 0.012830 7.824310
v 1.641170 0.397240 10.144190
v 2.481160 0.627380 12.161710
v 2.770250 1.104670 13.689830
v 4.752270 0.611320 11.711630
v 3.802450 0.608690 12.288300
v 2.834830 0.608690 11.329660
v 3.486820 -0.608690 13.076830
v 1.721070 -0.608690 11.327460
v 3.579410 -0.608690 12.067330
v 4.814380 -0.600020 11.737610
v 2.851570 0.608690 10.380150
v 7.197750 -1.119820 13.241320
v 7.197750 1.119810 13.241320
v 6.597640 2.239630 15.085740
v 5.721840 0.933490 17.142420
v 5.997540 -1.119820 16.930170
v 6.597650 -2.239630 15.085740
v 4.357670 -0.608690 11.281790
v 2.745500 -1.217380 13.826480
v 0.227550 0.605730 13.021510
v -1.141340 0.521020 13.530200
v -1.166340 0.552600 -0.635110
v -0.697540 0.276300 -0.538920
v 4.003740 0.388290 10.820010
v 2.508950 0.589320 8.934150
v 3.969030 0.618860 8.955230
v 2.426310 0.589320 8.624770
v 3.993040 -0.321820 11.008260
v 0.961000 0.500000 -0.771460
v 0.961000 -0.500000 -0.771460
v 0.093320 -1.000000 -0.697030
v -0.774370 -0.500000 -0.622600
v -0.774370 0.500000 -0.622600
v 0.093320 1.000000 -0.697030
v 2.120910 0.359940 -0.553340
v 2.120910 -0.359940 -0.553340
v 1.495750 -0.719890 -0.476200
v 0.870590 -0.359940 -0.399050
v 0.870590 0.359940 -0.399050
v 1.495750 0.719890 -0.476200
v 1.886380 -0.922300 -0.244510
v 1.087250 -0.461150 -0.226820
v 1.087250 0.461150 -0.226820
v 2.227500 -0.926130 8.330290
v 0.623380 -1.852260 8.331040
v -0.980730 -0.926130 8.331790
v -0.980730 0.926130 8.331790
v -1.166340 -0.552600 -0.635110
v -0.697540 -0.276300 -0.538920
v 2.587410 -0.589320 9.227830
v 3.611890 -0.608690 9.233430
v 4.170900 -0.608690 8.912240
v 2.426310 -0.589320 8.624770
v -1.868250 -0.000000 9.023030
v -1.868250 -0.000000 9.023030
v -1.739450 0.000000 0.703380
v -1.739450 0.000000 0.703380
v -1.635150 -0.276300 -0.731300
v -1.220480 -0.000000 6.218830
v -1.185150 -0.526180 13.357000
v -1.185150 -0.526180 13.357000
v -1.185150 -0.526180 13.357000
v -1.141340 0.521020 13.530200
v -1.095450 -0.479610 0.933720
v -1.095450 -0.479610 0.933720
v -0.983400 -0.563590 8.126760
v -0.983400 0.563590 8.126760
v -0.982460 -0.926130 12.113650
v -0.982460 -0.926130 12.113650
v -0.982460 0.926130 12.113650
v -0.980730 -0.926130 8.331790
v -0.946250 -0.500000 9.078360
v -0.946250 -0.500000 9.078360
v -0.946250 0.500000 9.078360
v -0.946250 0.500000 9.078360
v -0.861410 0.503010 0.971280
v -0.861410 0.503010 0.971280
v -0.861410 0.503010 0.971280
v -0.861410 0.503010 0.971280
v -0.861410 0.503010 0.971280
v -0.774370 -0.500000 -0.622600
v -0.774370 0.500000 -0.622600
v -0.732970 -0.486220 1.006240
v -0.732970 -0.486220 1.006240
v -0.697540 -0.276300 -0.538920
v -0.697540 0.276300 -0.538920
v -0.452810 -1.210010 11.675280
v -0.452810 -1.210010 11.675280
v -0.452810 -1.210010 11.675280
v -0.094040 -0.000000 6.431100
v -0.078570 -1.000000 9.003930
v -0.078570 -1.000000 9.003930
v -0.078570 1.000000 9.003930
v -0.072450 0.000000 1.221730
v -0.072450 0.000000 1.221730
v 0.093320 -1.000000 -0.697030
v 0.093750 -0.558040 13.101930
v 0.093750 -0.558040 13.101930
v 0.093750 -0.558040 13.101930
v 0.227550 0.605730 13.021510
v 0.309040 -0.545210 11.299860
v 0.621660 -1.852260 12.112900
v 0.621660 -1.852260 12.112900
v 0.623380 -1.852260 8.331040
v 0.692430 -0.359940 9.022780
v 0.692430 -0.359940 9.022780
v 0.692430 0.359940 9.022780
v 0.692430 0.359940 9.022780
v 0.789120 -0.500000 8.929500
v 0.789120 -0.500000 8.929500
v 0.789120 0.500000 8.929500
v 0.870590 -0.359940 -0.399050
v 0.870590 0.359940 -0.399050
v 0.961000 -0.500000 -0.771460
v 1.046400 -0.461150 3.447950
v 1.046400 -0.461150 3.447950
v 1.046400 0.461150 3.447950
v 1.087250 -0.461150 -0.226820
v 1.317590 -0.719890 8.945640
v 1.317590 -0.719890 8.945640
v 1.317590 0.719890 8.945640
v 1.450360 0.926600 11.742770
v 1.450360 0.926600 11.742770
v 1.495750 -0.719890 -0.476200
v 1.639540 -0.001510 7.832610
v 1.639540 -0.001510 7.832610
v 1.641170 -0.397240 10.144190
v 1.641170 0.397240 10.144190
v 1.721070 -0.608690 11.327460
v 1.845530 -0.922300 3.430260
v 1.942750 -0.359940 8.868490
v 1.942750 -0.359940 8.868490
v 1.942750 0.359940 8.868490
v 2.120910 -0.359940 -0.553340
v 2.225770 -0.926130 12.112150
v 2.426310 -0.589320 8.624770
v 2.426310 -0.589320 8.624770
v 2.426310 0.589320 8.624770
v 2.426310 0.589320 8.624770
v 2.508950 0.589320 8.934150
v 2.508950 0.589320 8.934150
v 2.587410 -0.589320 9.227830
v 2.587410 -0.589320 9.227830
v 2.745500 -1.217380 13.826480
v 2.770250 1.104670 13.689830
v 2.770250 1.104670 13.689830
v 2.834830 0.608690 11.329660
v 2.834830 0.608690 11.329660
v 2.834830 0.608690 11.329660
v 2.834830 0.608690 11.329660
v 2.851570 0.608690 10.380150
v 2.851570 0.608690 10.380150
v 2.869890 0.012830 7.824310
v 2.869890 0.012830 7.824310
v 2.913830 -0.608690 11.407920
v 2.913830 -0.608690 11.407920
v 2.925380 -0.608690 10.752300
v 3.486820 -0.608690 13.076830
v 3.486820 -0.608690 13.076830
v 3.579410 -0.608690 12.067330
v 3.611890 -0.608690 9.233430
v 3.611890 -0.608690 9.233430
v 3.802450 0.608690 12.288300
v 3.969030 0.618860 8.955230
v 3.969030 0.618860 8.955230
v 3.969030 0.618860 8.955230
v 3.969030 0.618860 8.955230
v 3.993040 -0.321820 11.008260
v 3.993040 -0.321820 11.008260
v 4.003740 0.388290 10.820010
v 4.003740 0.388290 10.820010
v 4.170900 -0.608690 8.912240
v 4.170900 -0.608690 8.912240
v 4.357670 -0.608690 11.281790
v 4.752270 0.611320 11.711630
v 4.752270 0.611320 11.711630
v 4.752270 0.611320 11.711630
v 4.814380 -0.600020 11.737610
v 4.814380 -0.600020 11.737610
v 5.721840 0.933490 17.142420
v 5.997540 -1.119820 16.930170
v 5.997540 -1.119820 16.930170
v 6.597650 -2.239630 15.085740
v 7.197750 -1.119820 13.241320
v 7.197750 -1.119820 13.241320
v 7.197750 1.119810 13.241320
vt 0.000000 0.000000
vt 0.000000 0.000000
vt 0.000000 0.000000
vt 0.000000 0.000000
vt 0.000000 0.000000
vt 0.000000 0.000000
vt 0.000000 0.000000
vt 0.000000 0.000000
vt 0.000000 0.000000
vt 0.000000 0.000000
vt 0.000000 0.000000
vt 0.000000 0.000000
vt 0.000000 0.000000
vt 0.000000 0.000000
vt 0.000000 0.000000
vt 0.000000 0.000000
vt 0.000000 0.000000
vt 0.000000 0.000000
vt 0.000000 0.000000
vt 0.000000 0.000000
vt 0.000000 0.000000
vt 0.000000 0.000000
vt 0.000000 0.000000
vt 0.000000 0.000000
vt 0.000000 0.000000
vt 0.000000 0.000000
vt 0.000000 0.000000
vt 0.000000 0.000000
vt 0.000000 0.000000
vt 0.000000 0.000000
vt 0.000000 0.000000
vt 0.000000 0.000000
vt 0.000000 0.000000
vt 0.000000 0.000000
vt 0.000000 0.000000
vt 0.000000 0.000000
vt 0.000000 0.000000
vt 0.000000 0.000000
vt 0.000000 0.000000
vt 0.000000 0.000000
vt 0.000000 0.000000
vt 0.000000 0.000000
vt 0.000000 0.000000
vt 0.000000 0.000000
vt 0.000000 0.000000
vt 0.000000 0.000000
vt 0.000000 0.000000
vt 0.000000 0.000000
vt 0.000000 0.000000
vt 0.000000 0.000000
vt 0.000000 0.000000
vt 0.000000 0.000000
vt 0.000000 0.000000
vt 0.000000 0.000000
vt 0.000000 0.000000
vt 0.000000 0.000000
vt 0.000000 0.000000
vt 0.000000 0.000000
vt 0.000000 0.000000
vt 0.000000 0.000000
vt 0.000000 0.000000
vt 0.000000 0.000000
vt 0.000000 0.000000
vt 0.000000 0.000000
vt 0.000000 0.000000
vt 0.000000 0.000000
vt 0.000000 0.000000
vt 0.000000 0.000000
vt 0.000000 0.000000
vt 0.000000 0.000000
vt 0.000000 0.000000
vt 0.000000 0.000000
vt 0.000000 0.000000
vt 0.000000 0.000000
vt 0.000000 0.000000
vt 0.000000 0.000000
vt 0.000000 0.000000
vt 0.000000 0.000000
vt 0.000000 0.000000
vt 0.000000 0.000000
vt 0.000000 0.000000
vt 0.000000 0.000000
vt 0.000000 0.000000
vt 0.000000 0.000000
vt 0.000000 0.000000
vt 0.000000 0.000000
vt 0.000000 0.000000
vt 0.000000 0.000000
vt 0.000000 0.000000
vt 0.000000 0.000000
vt 0.000000 0.000000
vt 0.000000 0.000000
vt 0.000000 0.000000
vt 0.000000 0.000000
vt 0.000000 0.000000
vt 0.000000 0.000000
vt 0.000000 0.000000
vt 0.000000 0.000000
vt 0.000000 0.000000
vt 0.000000 0.000000
vt 0.000000 0.000000
vt 0.000000 0.000000
vt 0.000000 0.000000
vt 0.000000 0.000000
vt 0.000000 0.000000
vt 0.000000 0.000000
vt 0.000000 0.000000
vt 0.000000 0.000000
vt 0.000000 0.000000
vt 0.000000 0.000000
vt 0.000000 0.000000
vt 0.000000 0.000000
vt 0.000000 0.000000
vt 0.000000 0.000000
vt 0.000000 0.000000
vt 0.000000 0.000000
vt 0.000000 0.000000
vt 0.000000 0.000000
vt 0.000000 0.000000
vt 0.000000 0.000000
vt 0.000000 0.000000
vt 0.000000 0.000000
vt 0.000000 0.000000
vt 0.000000 0.000000
vt 0.000000 0.000000
vt 0.000000 0.000000
vt 0.000000 0.000000
vt 0.000000 0.000000
vt 0.000000 0.000000
vt 0.000000 0.000000
vt 0.000000 0.000000
vt 0.000000 0.000000
vt 0.000000 0.000000
vt 0.000000 0.000000
vt 0.000000 0.000000
vt 0.000000 0.000000
vt 0.000000 0.000000
vt 0.000000 0.000000
vt 0.000000 0.000000
vt 0.000000 0.000000
vt 0.000000 0.000000
vt 0.000000 0.000000
vt 0.000000 0.000000
vt 0.000000 0.000000
vt 0.000000 0.000000
vt 0.000000 0.000000
vt 0.000000 0.000000
vt 0.000000 0.000000
vt 0.000000 0.000000
vt 0.000000 0.000000
vt 0.000000 0.000000
vt 0.000000 0.000000
vt 0.000000 0.000000
vt 0.000000 0.000000
vt 0.000000 0.000000
vt 0.000000 0.000000
vt 0.000000 0.000000
vt 0.000000 0.000000
vt 0.000000 0.000000
vt 0.000000 0.000000
vt 0.000000 0.000000
vt 0.000000 0.000000
vt 0.000000 0.000000
vt 0.000000 0.000000
vt 0.000000 0.000000
vt 0.000000 0.000000
vt 0.000000 0.000000
vt 0.000000 0.000000
vt 0.000000 0.000000
vt 0.000000 0.000000
vt 0.000000 0.000000
vt 0.000000 0.000000
vt 0.000000 0.000000
vt 0.000000 0.000000
vt 0.000000 0.000000
vt 0.000000 0.000000
vt 0.000000 0.000000
vt 0.000000 0.000000
vt 0.000000 0.000000
vt 0.000000 0.000000
vt 0.000000 0.000000
vt 0.000000 0.000000
vt 0.000000 0.000000
vt 0.000000 0.000000
vt 0.000000 0.000000
vt 0.000000 0.000000
vt 0.000000 0.000000
vt 0.000000 0.000000
vt 0.000000 0.000000
vt 0.000000 0.000000
vt 0.000000 0.000000
vt 0.000000 0.000000
vt 0.000000 0.000000
vt 0.000000 0.000000
vt 0.000000 0.000000
vt 0.000000 0.000000
vt 0.000000 0.000000
vt 0.000000 0.000000
vt 0.000000 0.000000
vt 0.000000 0.000000
vt 0.000000 0.000000
vt 0.000000 0.000000
vt 0.000000 0.000000
vt 0.000000 0.000000
vt 0.000000 0.000000
vt 0.000000 0.000000
vt 0.000000 0.000000
vt 0.000000 0.000000
vt 0.000000 0.000000
vt 0.000000 0.000000
vt 0.000000 0.000000
vt 0.000000 0.000000
vt 0.000000 0.000000
vt 0.000000 0.000000
vt 0.000000 0.000000
vt 0.000000 0.000000
vt 0.000000 0.000000
vt 0.000000 0.000000
vt 0.000000 0.000000
vt 0.000000 0.000000
vt 0.000000 0.000000
vt 0.000000 0.000000
vt 0.000000 0.000000
vt 0.000000 0.000000
vt 0.000000 0.000000
vt 0.000000 0.000000
vt 0.000000 0.000000
vt 0.000000 0.000000
vt 0.000000 0.000000
vt 0.000000 0.000000
vt 0.000000 0.000000
vt 0.000000 0.000000
vt 0.000000 0.000000
vt 0.000000 0.000000
vt 0.000000 0.000000
vn 0.085466 0.000000 0.996341
vn 0.085466 0.000000 0.996341
vn 0.085466 -0.000000 0.996341
vn 0.085466 0.000000 0.996341
vn 0.085466 0.000000 0.996341
vn 0.085466 0.000000 0.996341
vn 0.122473 -0.000000 0.992472
vn 0.122478 0.000000 0.992471
vn 0.122472 -0.000002 0.992472
vn 0.122465 0.000000 0.992473
vn 0.122470 -0.000000 0.992472
vn 0.122472 0.000012 0.992472
vn 0.022131 -0.000000 0.999755
vn 0.022131 0.000000 0.999755
vn 0.022131 -0.000000 0.999755
vn 0.022131 0.000000 0.999755
vn 0.022131 -0.000000 0.999755
vn 0.022131 0.000000 0.999755
vn 0.000468 0.000000 1.000000
vn 0.000467 0.000000 1.000000
vn 0.000468 0.000000 1.000000
vn 0.000468 0.000000 1.000000
vn 0.000468 0.000000 1.000000
vn 0.000468 -0.000001 1.000000
vn 0.454342 0.802675 -0.386376
vn 0.140581 0.292367 -0.945917
vn 0.746547 0.464198 -0.476642
vn -0.207049 -0.857407 0.471152
vn 0.056367 -0.916068 0.397042
vn -0.207049 -0.857407 0.471152
vn -0.630660 -0.774822 -0.043805
vn 0.848763 -0.431294 -0.305920
vn 0.979464 0.015883 -0.200993
vn 0.564142 0.825388 0.021869
vn 0.627141 0.774256 -0.084982
vn -0.753216 -0.655417 -0.055629
vn -0.978926 -0.197694 -0.051196
vn -0.311408 0.037876 0.949521
vn -0.311408 0.037876 0.949521
vn -0.311408 0.037876 0.949521
vn 0.306089 0.006098 -0.951983
vn 0.306089 0.006098 -0.951983
vn -0.997368 0.000000 -0.072508
vn -0.997368 0.000000 -0.072508
vn -0.035904 -0.988468 -0.147111
vn -0.082030 -0.996084 0.032988
vn -0.030595 -0.989620 -0.140416
vn 0.010349 -0.985607 -0.168738
vn -0.031557 -0.981245 -0.190162
vn 0.088143 0.980360 -0.176421
vn 0.044458 0.980766 -0.190058
vn -0.045383 0.958921 -0.280018
vn -0.314215 0.798235 -0.513897
vn 0.057491 0.953715 -0.295164
vn -0.010037 0.985989 -0.166510
vn 0.069891 -0.936706 -0.343070
vn 0.222740 -0.823900 -0.521128
vn 0.005845 -0.999979 0.002836
vn 0.008375 -0.999964 0.001376
vn -0.998840 0.044823 -0.017610
vn 0.950933 0.000002 0.309398
vn 0.950932 0.000000 0.309400
vn 0.941235 0.017065 0.337322
vn 0.899040 0.076142 0.431196
vn 0.941235 0.017065 0.337321
vn 0.950933 0.000003 0.309397
vn 0.018766 -0.999824 0.000215
vn -0.334601 -0.802055 0.494722
vn -0.600125 0.123609 0.790298
vn -0.987404 0.015262 0.157483
vn 0.517342 0.852755 -0.071879
vn 0.517342 0.852755 -0.071879
vn 0.186671 0.982417 0.003291
vn -0.020306 0.999779 0.005424
vn -0.020306 0.999779 0.005424
vn -0.020306 0.999779 0.005424
vn 0.258466 -0.966010 0.004553
vn 0.999843 0.000000 0.017715
vn 0.999843 0.000000 0.017715
vn 0.499835 -0.866075 0.008857
vn -0.499831 -0.866078 -0.008856
vn -0.999843 0.000000 -0.017715
vn -0.499833 0.866077 -0.008856
vn 0.999821 0.000000 0.018906
vn 0.999821 0.000000 0.018906
vn 0.499828 -0.866073 0.009451
vn -0.499828 -0.866073 -0.009451
vn -0.999821 0.000000 -0.018906
vn -0.499828 0.866073 -0.009451
vn -0.499899 -0.866066 -0.005557
vn -0.499899 -0.866066 -0.005557
vn -0.999938 0.000000 -0.011116
vn 0.499998 -0.866027 0.000228
vn 0.499996 -0.866027 0.000227
vn -0.499999 -0.866026 -0.000229
vn -1.000000 0.000000 -0.000457
vn -0.004471 -0.999982 -0.003906
vn 0.999737 0.000000 0.022924
vn -0.011395 0.232463 0.972538
vn -0.001146 0.221342 0.975196
vn 0.961428 0.165792 -0.219475
vn -0.011613 -0.999928 0.003102
vn -0.987404 0.015262 0.157483
vn -0.632485 0.760669 -0.146104
vn -0.997368 0.000000 -0.072508
vn -0.617900 -0.779195 0.105142
vn -0.577261 -0.811805 0.087987
vn -0.632485 0.760669 -0.146104
vn -0.664892 -0.746806 0.014129
vn -0.987404 0.015262 0.157483
vn 0.277762 -0.062540 0.958612
vn 0.352506 -0.167038 0.920781
vn -0.999397 -0.027541 -0.021143
vn -0.249806 -0.967635 0.035780
vn 0.556618 -0.827083 -0.078163
vn -0.632485 0.760669 -0.146104
vn -0.499998 -0.866027 -0.000228
vn -1.000000 0.000000 -0.000457
vn -1.000000 0.000000 -0.000457
vn -1.000000 0.000000 -0.000457
vn -0.499833 -0.866077 -0.008856
vn -0.999843 0.000000 -0.017715
vn -0.999843 0.000000 -0.017715
vn -0.499833 0.866077 -0.008856
vn -0.971458 0.233068 -0.044132
vn 0.306089 0.006098 -0.951983
vn 0.517342 0.852755 -0.071879
vn 0.537660 0.843159 0.002112
vn 0.987479 0.131303 0.087439
vn -0.999843 0.000000 -0.017715
vn -0.499831 0.866078 -0.008856
vn 0.457003 -0.889465 -0.000575
vn 0.994358 0.084294 0.064398
vn 0.520670 -0.847498 -0.103199
vn 0.994358 0.084294 0.064398
vn -0.629190 -0.777027 -0.018712
vn 0.181055 -0.892946 -0.412150
vn 0.573489 -0.786546 -0.229033
vn 0.589892 -0.807006 0.027720
vn 0.499833 -0.866077 0.008856
vn -0.499835 -0.866075 -0.008857
vn -0.499835 0.866075 -0.008857
vn 0.592299 -0.805714 0.002455
vn 0.537090 0.843522 0.002226
vn -0.499833 -0.866077 -0.008856
vn -0.571860 -0.058754 0.818245
vn 0.196474 0.045095 0.979471
vn -0.338831 -0.859784 0.382053
vn 0.277762 -0.062540 0.958612
vn 0.117301 0.018570 -0.992923
vn 0.499998 -0.866027 0.000228
vn -0.499996 -0.866027 -0.000227
vn -0.499998 -0.866027 -0.000228
vn -0.499828 -0.866073 -0.009451
vn -0.999821 0.000000 -0.018906
vn -0.999821 0.000000 -0.018906
vn -0.499828 0.866073 -0.009451
vn 0.999843 0.000000 0.017715
vn 0.499831 -0.866078 0.008856
vn 0.999843 0.000000 0.017715
vn -0.999821 0.000000 -0.018906
vn -0.499828 0.866073 -0.009451
vn 0.499833 -0.866077 0.008856
vn -0.499899 -0.866066 -0.005557
vn -0.999938 0.000000 -0.011116
vn -0.999938 0.000000 -0.011116
vn -0.999938 0.000000 -0.011116
vn 0.499828 -0.866073 0.009451
vn -0.499828 -0.866073 -0.009451
vn -0.499828 0.866073 -0.009451
vn 0.363278 0.896526 -0.253517
vn -0.993495 -0.110633 -0.026967
vn -0.499828 -0.866073 -0.009451
vn -0.009939 0.985637 -0.168587
vn -1.000000 0.000000 0.000705
vn -0.997379 -0.070361 -0.016893
vn -0.998832 0.000000 -0.048325
vn -0.982645 -0.182397 0.033759
vn -0.499899 -0.866066 -0.005557
vn 0.999821 0.000000 0.018906
vn 0.499828 -0.866073 0.009451
vn 0.999821 0.000000 0.018906
vn 0.499828 -0.866073 0.009451
vn 0.499999 -0.866026 0.000229
vn 0.162585 0.000000 -0.986694
vn -0.966122 0.000000 0.258087
vn 0.184539 0.033032 -0.982270
vn -0.966123 -0.000004 0.258080
vn -0.018878 0.240550 0.970453
vn -0.966127 -0.000011 0.258067
vn -0.013379 -0.999894 -0.005760
vn -0.966123 -0.000004 0.258080
vn 0.066979 -0.876069 -0.477511
vn 0.710637 0.048323 0.701897
vn -0.025438 0.148687 -0.988557
vn -0.998840 0.044823 -0.017610
vn 0.186671 0.982417 0.003291
vn 0.703802 0.000004 -0.710396
vn 0.411651 0.085044 0.907365
vn 0.186671 0.982417 0.003291
vn 0.296021 -0.257719 -0.919757
vn -0.998840 0.044823 -0.017610
vn -0.012621 0.985759 -0.167691
vn 0.703804 0.000002 -0.710394
vn 0.367701 0.140142 0.919324
vn 0.291267 -0.263474 -0.919644
vn 0.709327 0.044983 0.703443
vn 0.091854 0.369276 -0.924769
vn 0.703807 -0.000002 -0.710392
vn -0.918959 0.264104 0.292855
vn 0.005277 -0.999976 -0.004587
vn 0.703804 0.000002 -0.710394
vn -0.011395 0.232463 0.972538
vn 0.963389 0.105993 -0.246267
vn -0.909950 0.323537 0.259450
vn 0.207714 0.068332 -0.975800
vn 0.279709 0.242080 0.929064
vn 0.296021 -0.257719 -0.919757
vn 0.367701 0.140142 0.919324
vn 0.303640 -0.248422 -0.919831
vn -0.004839 -0.999988 -0.000916
vn 0.184539 0.033032 -0.982270
vn -0.924245 0.180379 0.336505
vn 0.711882 0.051523 0.700407
vn 0.961043 0.043422 -0.272965
vn -0.918959 0.264104 0.292855
vn 0.710637 0.048323 0.701897
vn 0.963389 0.105993 -0.246267
vn -0.571860 -0.058754 0.818245
vn -0.547763 -0.158466 0.821489
vn -0.342476 -0.848394 0.403657
vn -0.262687 -0.963454 0.052466
vn -0.025438 0.148687 -0.988557
vn -0.057546 -0.816814 -0.574023
vn -0.100785 0.000000 -0.994908
f 1/1/1 2/2/2 3/3/3
f 3/3/3 4/4/4 5/5/5
f 5/5/5 6/6/6 1/1/1
f 3/3/3 5/5/5 1/1/1
f 7/7/7 8/8/8 9/9/9
f 9/9/9 10/10/10 11/11/11
f 11/11/11 12/12/12 7/7/7
f 9/9/9 11/11/11 7/7/7
f 13/13/13 14/14/14 15/15/15
f 15/15/15 16/16/16 17/17/17
f 17/17/17 18/18/18 13/13/13
f 15/15/15 17/17/17 13/13/13
f 19/19/19 20/20/20 21/21/21
f 21/21/21 22/22/22 23/23/23
f 23/23/23 24/24/24 19/19/19
f 21/21/21 23/23/23 19/19/19
f 25/25/25 26/26/26 27/27/27
f 28/28/28 29/29/29 30/30/30
f 109/109/109 31/31/31 136/136/136
f 27/27/27 32/32/32 33/33/33
f 33/33/33 34/34/34 35/35/35
f 36/36/36 31/31/31 37/37/37
f 38/38/38 39/39/39 40/40/40
f 37/37/37 125/125/125 113/113/113
f 41/41/41 42/42/42 126/126/126
f 105/105/105 43/43/43 44/44/44
f 45/45/45 46/46/46 47/47/47
f 47/47/47 48/48/48 49/49/49
f 47/47/47 49/49/49 45/45/45
f 50/50/50 171/171/171 51/51/51
f 52/52/52 53/53/53 54/54/54
f 55/55/55 50/50/50 51/51/51
f 52/52/52 54/54/54 55/55/55
f 51/51/51 52/52/52 55/55/55
f 56/56/56 57/57/57 47/47/47
f 56/56/56 47/47/47 46/46/46
f 58/58/58 59/59/59 56/56/56
f 56/56/56 46/46/46 58/58/58
f 174/174/174 50/50/50 55/55/55
f 196/196/196 60/60/60 202/202/202
f 55/55/55 203/203/203 174/174/174
f 61/61/61 62/62/62 63/63/63
f 63/63/63 64/64/64 65/65/65
f 65/65/65 66/66/66 61/61/61
f 63/63/63 65/65/65 61/61/61
f 146/146/146 230/230/230 229/229/229
f 59/59/59 58/58/58 67/67/67
f 30/30/30 68/68/68 28/28/28
f 69/69/69 146/146/146 229/229/229
f 110/110/110 70/70/70 103/103/103
f 57/57/57 137/137/137 150/150/150
f 136/136/136 31/31/31 36/36/36
f 139/139/139 33/33/33 115/115/115
f 104/104/104 116/116/116 108/108/108
f 71/71/71 127/127/127 72/72/72
f 176/176/176 177/177/177 175/175/175
f 200/200/200 197/197/197 73/73/73
f 74/74/74 75/75/75 76/76/76
f 46/46/46 45/45/45 77/77/77
f 78/78/78 160/160/160 158/158/158
f 78/78/78 158/158/158 79/79/79
f 163/163/163 159/159/159 140/140/140
f 163/163/163 140/140/140 80/80/80
f 145/145/145 141/141/141 121/121/121
f 145/145/145 121/121/121 81/81/81
f 82/82/82 130/130/130 122/122/122
f 82/82/82 122/122/122 123/123/123
f 83/83/83 131/131/131 124/124/124
f 83/83/83 124/124/124 142/142/142
f 84/84/84 182/182/182 180/180/180
f 84/84/84 180/180/180 85/85/85
f 183/183/183 181/181/181 168/168/168
f 183/183/183 168/168/168 86/86/86
f 173/173/173 169/169/169 154/154/154
f 173/173/173 154/154/154 87/87/87
f 88/88/88 161/161/161 155/155/155
f 88/88/88 155/155/155 156/156/156
f 89/89/89 162/162/162 157/157/157
f 89/89/89 157/157/157 170/170/170
f 90/90/90 179/179/179 164/164/164
f 90/90/90 164/164/164 91/91/91
f 92/92/92 167/167/167 165/165/165
f 92/92/92 165/165/165 166/166/166
f 93/93/93 184/184/184 151/151/151
f 93/93/93 151/151/151 94/94/94
f 153/153/153 152/152/152 117/117/117
f 153/153/153 117/117/117 95/95/95
f 96/96/96 120/120/120 118/118/118
f 96/96/96 118/118/118 119/119/119
f 194/194/194 207/207/207 227/227/227
f 194/194/194 227/227/227 224/224/224
f 57/57/57 56/56/56 193/193/193
f 57/57/57 193/193/193 137/137/137
f 233/233/233 208/208/208 195/195/195
f 233/233/233 195/195/195 235/235/235
f 26/26/26 57/57/57 150/150/150
f 26/26/26 150/150/150 27/27/27
f 32/32/32 138/138/138 115/115/115
f 32/32/32 115/115/115 33/33/33
f 35/35/35 25/25/25 27/27/27
f 35/35/35 27/27/27 33/33/33
f 36/36/36 37/37/37 113/113/113
f 115/115/115 114/114/114 132/132/132
f 139/139/139 115/115/115 132/132/132
f 139/139/139 132/132/132 143/143/143
f 128/128/128 35/35/35 34/34/34
f 128/128/128 34/34/34 144/144/144
f 114/114/114 106/106/106 107/107/107
f 114/114/114 107/107/107 97/97/97
f 135/135/135 129/129/129 133/133/133
f 135/135/135 133/133/133 98/98/98
f 132/132/132 114/114/114 97/97/97
f 132/132/132 97/97/97 134/134/134
f 111/111/111 147/147/147 149/149/149
f 111/111/111 149/149/149 112/112/112
f 176/176/176 178/178/178 172/172/172
f 176/176/176 172/172/172 177/177/177
f 204/204/204 198/198/198 212/212/212
f 204/204/204 212/212/212 209/209/209
f 193/193/193 56/56/56 234/234/234
f 193/193/193 234/234/234 232/232/232
f 148/148/148 193/193/193 232/232/232
f 148/148/148 232/232/232 231/231/231
f 99/99/99 100/100/100 213/213/213
f 99/99/99 213/213/213 189/189/189
f 214/214/214 225/225/225 228/228/228
f 214/214/214 228/228/228 101/101/101
f 210/210/210 223/223/223 226/226/226
f 210/210/210 226/226/226 215/215/215
f 59/59/59 67/67/67 211/211/211
f 59/59/59 211/211/211 221/221/221
f 221/221/221 211/211/211 191/191/191
f 221/221/221 191/191/191 102/102/102
f 187/187/187 216/216/216 222/222/222
f 187/187/187 222/222/222 185/185/185
f 192/192/192 190/190/190 188/188/188
f 192/192/192 188/188/188 186/186/186
f 219/219/219 199/199/199 205/205/205
f 219/219/219 205/205/205 217/217/217
f 218/218/218 206/206/206 201/201/201
f 218/218/218 201/201/201 220/220/220
