v 0.604620 -0.609570 8.564520
v 0.489530 -0.614760 8.764200
v 0.435040 -0.599150 8.654640
v 0.102180 1.186230 8.958930
v 0.178130 1.209890 9.222760
v 0.426970 1.275110 9.111430
v 0.536890 1.303180 9.002530
v 1.111810 0.591320 8.470270
v 0.863680 0.865050 8.443390
v 0.936040 1.050100 9.120570
v 1.239730 0.680050 9.153800
v 0.539980 1.070290 8.347670
v 0.095710 0.982490 8.722660
v 0.102180 1.186230 8.958930
v 0.536890 1.303180 9.002530
v 0.550060 1.303490 9.697220
v 0.536890 1.303180 9.002530
v 0.426970 1.275110 9.111430
v 0.178130 1.209890 9.222760
v 0.102180 1.186230 8.958930
v 0.079560 1.188990 9.652450
v 0.550060 1.303490 9.697220
v 0.426970 1.275110 9.111430
v 0.178130 1.209890 9.222760
v 0.178130 1.209890 9.222760
v 0.079560 1.188990 9.652450
v 0.550060 1.303490 9.697220
v -0.032210 -0.584940 9.283170
v -0.026370 -0.699290 8.862590
v 0.276890 -0.734920 8.881560
v 0.276890 -0.734920 8.881560
v 0.291020 -0.668330 9.116880
v 0.048580 -0.610260 9.295670
v 0.276890 -0.734920 8.881560
v 0.048580 -0.610260 9.295670
v -0.032210 -0.584940 9.283170
v 0.943670 1.050270 9.522750
v 0.936040 1.050100 9.120570
v 0.536890 1.303180 9.002530
v 0.536890 1.303180 9.002530
v 0.550060 1.303490 9.697220
v 0.949220 1.050440 9.815260
v 0.536890 1.303180 9.002530
v 0.949220 1.050440 9.815260
v 0.943670 1.050270 9.522750
v 1.239730 0.680050 9.153800
v 0.936040 1.050100 9.120570
v 0.943670 1.050270 9.522750
v 1.243720 0.713350 9.661470
v 0.863680 0.865050 8.443390
v 0.539980 1.070290 8.347670
v 0.536890 1.303180 9.002530
v 0.936040 1.050100 9.120570
v -0.013300 -0.611920 8.748120
v 0.228270 -0.623770 8.738890
v 0.252480 -0.637490 8.810580
v 0.252480 -0.637490 8.810580
v 0.291580 -0.659660 8.926360
v -0.028970 -0.657100 8.930860
v 0.252480 -0.637490 8.810580
v -0.028970 -0.657100 8.930860
v -0.013300 -0.611920 8.748120
v -0.624510 -0.523700 8.524100
v -0.461380 -0.536530 8.625160
v -0.524560 -0.543910 8.730850
v 0.102180 1.186230 8.958930
v -0.313990 1.362620 8.974550
v -0.216390 1.320060 9.090270
v 0.013170 1.221410 9.217330
v -0.946160 0.735080 8.402600
v -1.104940 0.843850 9.076700
v -0.751280 1.167970 9.065080
v -0.661210 0.971570 8.393250
v -0.306580 1.129430 8.319830
v -0.313990 1.362620 8.974550
v 0.102180 1.186230 8.958930
v 0.095710 0.982490 8.722660
v -0.216390 1.320060 9.090270
v -0.313990 1.362620 8.974550
v -0.372380 1.367930 9.666890
v 0.079560 1.188990 9.652450
v 0.102180 1.186230 8.958930
v 0.013170 1.221410 9.217330
v 0.013170 1.221410 9.217330
v -0.216390 1.320060 9.090270
v -0.372380 1.367930 9.666890
v -0.372380 1.367930 9.666890
v 0.079560 1.188990 9.652450
v 0.013170 1.221410 9.217330
v -0.332230 -0.692370 8.861530
v -0.026370 -0.699290 8.862590
v -0.032210 -0.584940 9.283170
v -0.032210 -0.584940 9.283170
v -0.116380 -0.598730 9.290240
v -0.352330 -0.623390 9.095720
v -0.032210 -0.584940 9.283170
v -0.352330 -0.623390 9.095720
v -0.332230 -0.692370 8.861530
v -0.313990 1.362620 8.974550
v -0.751280 1.167970 9.065080
v -0.785090 1.171040 9.465900
v -0.785090 1.171040 9.465900
v -0.809670 1.173320 9.757420
v -0.372380 1.367930 9.666890
v -0.785090 1.171040 9.465900
v -0.372380 1.367930 9.666890
v -0.313990 1.362620 8.974550
v -1.180310 -0.118190 9.105350
v -1.090060 -0.195390 8.570020
v -1.046470 -0.205160 8.512660
v -1.046470 -0.205160 8.512660
v -0.659520 -0.643270 8.494560
v -0.332230 -0.692370 8.861530
v -0.332230 -0.692370 8.861530
v -0.352330 -0.623390 9.095720
v -0.641370 -0.503180 8.872160
v -0.641370 -0.503180 8.872160
v -1.180310 -0.118190 9.105350
v -1.046470 -0.205160 8.512660
v -1.046470 -0.205160 8.512660
v -0.332230 -0.692370 8.861530
v -0.641370 -0.503180 8.872160
v -1.104940 0.843850 9.076700
v -1.137440 0.879700 9.583170
v -0.785090 1.171040 9.465900
v -0.751280 1.167970 9.065080
v -0.661210 0.971570 8.393250
v -0.751280 1.167970 9.065080
v -0.313990 1.362620 8.974550
v -0.306580 1.129430 8.319830
v -0.290180 -0.597090 8.778030
v -0.265990 -0.589240 8.722640
v -0.013300 -0.611920 8.748120
v -0.013300 -0.611920 8.748120
v -0.028970 -0.657100 8.930860
v -0.345790 -0.615130 8.905410
v -0.345790 -0.615130 8.905410
v -0.146170 -0.774250 6.625730
v -0.131870 -0.782050 6.467390
v -0.107650 -0.838770 6.469030
v -0.107650 -0.838770 6.469030
v -0.150470 -0.815400 6.844950
v -0.161960 -0.765630 6.800690
v -0.161960 -0.765630 6.800690
v -0.147490 -0.773530 6.640420
v -0.147250 -0.773660 6.637740
v -0.143420 -0.783910 6.633180
v -0.146170 -0.774250 6.625730
v -0.107650 -0.838770 6.469030
v -0.161960 -0.765630 6.800690
v -0.147250 -0.773660 6.637740
v -0.143420 -0.783910 6.633180
v -0.107650 -0.838770 6.469030
v -0.161960 -0.765630 6.800690
v -0.143420 -0.783910 6.633180
v -0.235430 -0.824090 6.837710
v -0.221110 -0.798770 6.898340
v -0.164850 -0.793020 6.903140
v -0.150470 -0.815400 6.844950
v -0.228150 -0.783480 6.433650
v -0.203930 -0.840200 6.435280
v -0.246750 -0.816830 6.811210
v -0.258240 -0.767060 6.766950
v -0.331700 -0.825520 6.803970
v -0.317390 -0.800200 6.864600
v -0.261130 -0.794450 6.869390
v -0.246750 -0.816830 6.811210
v -0.329870 -0.784720 6.395940
v -0.305640 -0.841440 6.397570
v -0.348470 -0.818070 6.773500
v -0.359950 -0.768300 6.729240
v -0.433420 -0.826760 6.766260
v -0.419110 -0.801440 6.826890
v -0.362840 -0.795690 6.831680
v -0.348470 -0.818070 6.773500
v -0.447030 -0.784720 6.361310
v -0.477120 -0.768300 6.694610
v -0.464720 -0.818070 6.737790
v -0.421900 -0.841440 6.361860
v -0.549670 -0.826760 6.730550
v -0.464720 -0.818070 6.737790
v -0.472100 -0.795690 6.797050
v -0.528370 -0.801440 6.792260
v -0.576830 -0.776440 6.367930
v -0.591600 -0.760770 6.702290
v -0.579080 -0.811750 6.744620
v -0.558070 -0.834050 6.367180
v 0.607950 -0.590460 8.913240
v 0.291020 -0.668330 9.116880
v 0.276890 -0.734920 8.881560
v 1.113820 -0.349350 8.642500
v 1.178720 -0.282990 9.182930
v 0.607950 -0.590460 8.913240
v 0.276890 -0.734920 8.881560
v 0.631120 -0.733430 8.537000
v 0.607950 -0.590460 8.913240
v 1.073140 -0.353230 8.582360
v 1.113820 -0.349350 8.642500
v 0.607950 -0.590460 8.913240
v 0.631120 -0.733430 8.537000
vt 0.000000 0.000000
vt 0.000000 0.000000
vt 0.000000 0.000000
vt 0.000000 0.000000
vt 0.000000 0.000000
vt 0.000000 0.000000
vt 0.000000 0.000000
vt 0.000000 0.000000
vt 0.000000 0.000000
vt 0.000000 0.000000
vt 0.000000 0.000000
vt 0.000000 0.000000
vt 0.000000 0.000000
vt 0.000000 0.000000
vt 0.000000 0.000000
vt 0.000000 0.000000
vt 0.000000 0.000000
vt 0.000000 0.000000
vt 0.000000 0.000000
vt 0.000000 0.000000
vt 0.000000 0.000000
vt 0.000000 0.000000
vt 0.000000 0.000000
vt 0.000000 0.000000
vt 0.000000 0.000000
vt 0.000000 0.000000
vt 0.000000 0.000000
vt 0.000000 0.000000
vt 0.000000 0.000000
vt 0.000000 0.000000
vt 0.000000 0.000000
vt 0.000000 0.000000
vt 0.000000 0.000000
vt 0.000000 0.000000
vt 0.000000 0.000000
vt 0.000000 0.000000
vt 0.000000 0.000000
vt 0.000000 0.000000
vt 0.000000 0.000000
vt 0.000000 0.000000
vt 0.000000 0.000000
vt 0.000000 0.000000
vt 0.000000 0.000000
vt 0.000000 0.000000
vt 0.000000 0.000000
vt 0.000000 0.000000
vt 0.000000 0.000000
vt 0.000000 0.000000
vt 0.000000 0.000000
vt 0.000000 0.000000
vt 0.000000 0.000000
vt 0.000000 0.000000
vt 0.000000 0.000000
vt 0.000000 0.000000
vt 0.000000 0.000000
vt 0.000000 0.000000
vt 0.000000 0.000000
vt 0.000000 0.000000
vt 0.000000 0.000000
vt 0.000000 0.000000
vt 0.000000 0.000000
vt 0.000000 0.000000
vt 0.000000 0.000000
vt 0.000000 0.000000
vt 0.000000 0.000000
vt 0.000000 0.000000
vt 0.000000 0.000000
vt 0.000000 0.000000
vt 0.000000 0.000000
vt 0.000000 0.000000
vt 0.000000 0.000000
vt 0.000000 0.000000
vt 0.000000 0.000000
vt 0.000000 0.000000
vt 0.000000 0.000000
vt 0.000000 0.000000
vt 0.000000 0.000000
vt 0.000000 0.000000
vt 0.000000 0.000000
vt 0.000000 0.000000
vt 0.000000 0.000000
vt 0.000000 0.000000
vt 0.000000 0.000000
vt 0.000000 0.000000
vt 0.000000 0.000000
vt 0.000000 0.000000
vt 0.000000 0.000000
vt 0.000000 0.000000
vt 0.000000 0.000000
vt 0.000000 0.000000
vt 0.000000 0.000000
vt 0.000000 0.000000
vt 0.000000 0.000000
vt 0.000000 0.000000
vt 0.000000 0.000000
vt 0.000000 0.000000
vt 0.000000 0.000000
vt 0.000000 0.000000
vt 0.000000 0.000000
vt 0.000000 0.000000
vt 0.000000 0.000000
vt 0.000000 0.000000
vt 0.000000 0.000000
vt 0.000000 0.000000
vt 0.000000 0.000000
vt 0.000000 0.000000
vt 0.000000 0.000000
vt 0.000000 0.000000
vt 0.000000 0.000000
vt 0.000000 0.000000
vt 0.000000 0.000000
vt 0.000000 0.000000
vt 0.000000 0.000000
vt 0.000000 0.000000
vt 0.000000 0.000000
vt 0.000000 0.000000
vt 0.000000 0.000000
vt 0.000000 0.000000
vt 0.000000 0.000000
vt 0.000000 0.000000
vt 0.000000 0.000000
vt 0.000000 0.000000
vt 0.000000 0.000000
vt 0.000000 0.000000
vt 0.000000 0.000000
vt 0.000000 0.000000
vt 0.000000 0.000000
vt 0.000000 0.000000
vt 0.000000 0.000000
vt 0.000000 0.000000
vt 0.000000 0.000000
vt 0.000000 0.000000
vt 0.000000 0.000000
vt 0.000000 0.000000
vt 0.000000 0.000000
vt 0.000000 0.000000
vt 0.000000 0.000000
vt 0.000000 0.000000
vt 0.000000 0.000000
vt 0.000000 0.000000
vt 0.000000 0.000000
vt 0.000000 0.000000
vt 0.000000 0.000000
vt 0.000000 0.000000
vt 0.000000 0.000000
vt 0.000000 0.000000
vt 0.000000 0.000000
vt 0.000000 0.000000
vt 0.000000 0.000000
vt 0.000000 0.000000
vt 0.000000 0.000000
vt 0.000000 0.000000
vt 0.000000 0.000000
vt 0.000000 0.000000
vt 0.000000 0.000000
vt 0.000000 0.000000
vt 0.000000 0.000000
vt 0.000000 0.000000
vt 0.000000 0.000000
vt 0.000000 0.000000
vt 0.000000 0.000000
vt 0.000000 0.000000
vt 0.000000 0.000000
vt 0.000000 0.000000
vt 0.000000 0.000000
vt 0.000000 0.000000
vt 0.000000 0.000000
vt 0.000000 0.000000
vt 0.000000 0.000000
vt 0.000000 0.000000
vt 0.000000 0.000000
vt 0.000000 0.000000
vt 0.000000 0.000000
vt 0.000000 0.000000
vt 0.000000 0.000000
vt 0.000000 0.000000
vt 0.000000 0.000000
vt 0.000000 0.000000
vt 0.000000 0.000000
vt 0.000000 0.000000
vt 0.000000 0.000000
vt 0.000000 0.000000
vt 0.000000 0.000000
vt 0.000000 0.000000
vt 0.000000 0.000000
vt 0.000000 0.000000
vt 0.000000 0.000000
vt 0.000000 0.000000
vt 0.000000 0.000000
vt 0.000000 0.000000
vt 0.000000 0.000000
vt 0.000000 0.000000
vt 0.000000 0.000000
vt 0.000000 0.000000
vt 0.000000 0.000000
vt 0.000000 0.000000
vt 0.000000 0.000000
vt 0.000000 0.000000
vt 0.000000 0.000000
vt 0.000000 0.000000
vn -0.107400 -0.990347 -0.087630
vn -0.107400 -0.990347 -0.087630
vn -0.107400 -0.990347 -0.087630
vn -0.258621 0.965903 -0.012150
vn -0.258621 0.965903 -0.012150
vn -0.258621 0.965903 -0.012150
vn -0.258621 0.965903 -0.012150
vn 0.748729 0.619849 -0.234930
vn 0.748729 0.619849 -0.234930
vn 0.748729 0.619849 -0.234930
vn 0.748729 0.619849 -0.234930
vn -0.350919 0.841418 -0.410939
vn -0.350919 0.841418 -0.410939
vn -0.350919 0.841418 -0.410939
vn -0.350919 0.841418 -0.410939
vn -0.243479 0.969897 0.004190
vn -0.243479 0.969897 0.004190
vn -0.243479 0.969897 0.004190
vn -0.258290 0.965990 -0.012260
vn -0.258290 0.965990 -0.012260
vn -0.258290 0.965990 -0.012260
vn -0.251070 0.967951 0.005880
vn -0.251070 0.967951 0.005880
vn -0.251070 0.967951 0.005880
vn -0.235821 0.971773 -0.006830
vn -0.235821 0.971773 -0.006830
vn -0.235821 0.971773 -0.006830
vn -0.128660 -0.957402 0.258511
vn -0.128660 -0.957402 0.258511
vn -0.128660 -0.957402 0.258511
vn -0.028420 -0.961381 0.273750
vn -0.028420 -0.961381 0.273750
vn -0.028420 -0.961381 0.273750
vn -0.312770 -0.943259 0.111520
vn -0.312770 -0.943259 0.111520
vn -0.312770 -0.943259 0.111520
vn 0.537681 0.843082 -0.010560
vn 0.537681 0.843082 -0.010560
vn 0.537681 0.843082 -0.010560
vn 0.537621 0.843121 -0.010570
vn 0.537621 0.843121 -0.010570
vn 0.537621 0.843121 -0.010570
vn 0.537802 0.843003 -0.010700
vn 0.537802 0.843003 -0.010700
vn 0.537802 0.843003 -0.010700
vn 0.764017 0.644328 -0.033460
vn 0.764017 0.644328 -0.033460
vn 0.764017 0.644328 -0.033460
vn 0.764017 0.644328 -0.033460
vn 0.571410 0.774070 -0.272590
vn 0.571410 0.774070 -0.272590
vn 0.571410 0.774070 -0.272590
vn 0.571410 0.774070 -0.272590
vn -0.054740 -0.983945 -0.169871
vn -0.054740 -0.983945 -0.169871
vn -0.054740 -0.983945 -0.169871
vn -0.010440 -0.982757 -0.184609
vn -0.010440 -0.982757 -0.184609
vn -0.010440 -0.982757 -0.184609
vn -0.036220 -0.969412 -0.242751
vn -0.036220 -0.969412 -0.242751
vn -0.036220 -0.969412 -0.242751
vn -0.025690 -0.996054 -0.084950
vn -0.025690 -0.996054 -0.084950
vn -0.025690 -0.996054 -0.084950
vn 0.390499 0.920558 0.009190
vn 0.390499 0.920558 0.009190
vn 0.390499 0.920558 0.009190
vn 0.390499 0.920558 0.009190
vn -0.638410 0.716750 -0.280540
vn -0.638410 0.716750 -0.280540
vn -0.638410 0.716750 -0.280540
vn -0.638410 0.716750 -0.280540
vn 0.490490 0.782639 -0.383270
vn 0.490490 0.782639 -0.383270
vn 0.490490 0.782639 -0.383270
vn 0.490490 0.782639 -0.383270
vn 0.375029 0.926688 0.024530
vn 0.375029 0.926688 0.024530
vn 0.375029 0.926688 0.024530
vn 0.390198 0.920686 0.009060
vn 0.390198 0.920686 0.009060
vn 0.390198 0.920686 0.009060
vn 0.382148 0.923715 0.026700
vn 0.382148 0.923715 0.026700
vn 0.382148 0.923715 0.026700
vn 0.368440 0.929560 0.013040
vn 0.368440 0.929560 0.013040
vn 0.368440 0.929560 0.013040
vn -0.022740 -0.964803 0.261991
vn -0.022740 -0.964803 0.261991
vn -0.022740 -0.964803 0.261991
vn 0.156060 -0.985649 -0.064360
vn 0.156060 -0.985649 -0.064360
vn 0.156060 -0.985649 -0.064360
vn -0.047840 -0.959261 0.278440
vn -0.047840 -0.959261 0.278440
vn -0.047840 -0.959261 0.278440
vn -0.413521 0.909533 -0.041840
vn -0.413521 0.909533 -0.041840
vn -0.413521 0.909533 -0.041840
vn -0.413470 0.909550 -0.041980
vn -0.413470 0.909550 -0.041980
vn -0.413470 0.909550 -0.041980
vn -0.413529 0.909529 -0.041850
vn -0.413529 0.909529 -0.041850
vn -0.413529 0.909529 -0.041850
vn -0.043570 -0.989833 0.135400
vn -0.043570 -0.989833 0.135400
vn -0.043570 -0.989833 0.135400
vn -0.641591 -0.587061 0.493681
vn -0.641591 -0.587061 0.493681
vn -0.641591 -0.587061 0.493681
vn -0.505970 -0.838209 0.203470
vn -0.505970 -0.838209 0.203470
vn -0.505970 -0.838209 0.203470
vn -0.584970 -0.810949 -0.013110
vn -0.584970 -0.810949 -0.013110
vn -0.584970 -0.810949 -0.013110
vn -0.521442 -0.845703 -0.113510
vn -0.521442 -0.845703 -0.113510
vn -0.521442 -0.845703 -0.113510
vn -0.663286 0.744036 -0.080390
vn -0.663286 0.744036 -0.080390
vn -0.663286 0.744036 -0.080390
vn -0.663286 0.744036 -0.080390
vn -0.439309 0.844679 -0.305819
vn -0.439309 0.844679 -0.305819
vn -0.439309 0.844679 -0.305819
vn -0.439309 0.844679 -0.305819
vn -0.071050 -0.982836 -0.170249
vn -0.071050 -0.982836 -0.170249
vn -0.071050 -0.982836 -0.170249
vn -0.107680 -0.962942 -0.247281
vn -0.107680 -0.962942 -0.247281
vn -0.107680 -0.962942 -0.247281
vn -0.071050 -0.982836 -0.170249
vn -0.917140 -0.393490 -0.063410
vn -0.917140 -0.393490 -0.063410
vn -0.917140 -0.393490 -0.063410
vn -0.950051 -0.298940 -0.089650
vn -0.950051 -0.298940 -0.089650
vn -0.950051 -0.298940 -0.089650
vn -0.646928 0.756578 -0.095260
vn -0.646928 0.756578 -0.095260
vn -0.646928 0.756578 -0.095260
vn -0.937079 -0.336880 -0.091620
vn -0.937079 -0.336880 -0.091620
vn -0.937079 -0.336880 -0.091620
vn -0.944265 -0.321788 -0.069390
vn -0.944265 -0.321788 -0.069390
vn -0.944265 -0.321788 -0.069390
vn -0.901492 -0.429551 -0.052900
vn -0.901492 -0.429551 -0.052900
vn -0.901492 -0.429551 -0.052900
vn -0.063020 0.926151 -0.371850
vn -0.063020 0.926151 -0.371850
vn -0.063020 0.926151 -0.371850
vn -0.063020 0.926151 -0.371850
vn -0.934903 -0.346521 -0.076680
vn -0.934903 -0.346521 -0.076680
vn -0.934903 -0.346521 -0.076680
vn -0.934903 -0.346521 -0.076680
vn -0.063020 0.926151 -0.371850
vn -0.063020 0.926151 -0.371850
vn -0.063020 0.926151 -0.371850
vn -0.063020 0.926151 -0.371850
vn -0.934903 -0.346521 -0.076680
vn -0.934903 -0.346521 -0.076680
vn -0.934903 -0.346521 -0.076680
vn -0.934903 -0.346521 -0.076680
vn -0.063020 0.926151 -0.371850
vn -0.063020 0.926151 -0.371850
vn -0.063020 0.926151 -0.371850
vn -0.063020 0.926151 -0.371850
vn 0.930312 0.358911 0.075510
vn 0.930312 0.358911 0.075510
vn 0.930312 0.358911 0.075510
vn 0.930312 0.358911 0.075510
vn 0.064550 -0.930868 0.359609
vn 0.064550 -0.930868 0.359609
vn 0.064550 -0.930868 0.359609
vn 0.064550 -0.930868 0.359609
vn 0.956995 0.288252 0.032730
vn 0.956995 0.288252 0.032730
vn 0.956995 0.288252 0.032730
vn 0.956995 0.288252 0.032730
vn 0.370251 -0.899422 0.232281
vn 0.370251 -0.899422 0.232281
vn 0.370251 -0.899422 0.232281
vn 0.453349 -0.889647 0.054800
vn 0.453349 -0.889647 0.054800
vn 0.453349 -0.889647 0.054800
vn 0.345891 -0.869813 0.351831
vn 0.345891 -0.869813 0.351831
vn 0.345891 -0.869813 0.351831
vn 0.571472 -0.784423 0.241041
vn 0.571472 -0.784423 0.241041
vn 0.571472 -0.784423 0.241041
vn 0.571472 -0.784423 0.241041
f 1/1/1 2/2/2 3/3/3
f 16/16/16 17/17/17 18/18/18
f 19/19/19 20/20/20 21/21/21
f 22/22/22 23/23/23 24/24/24
f 25/25/25 26/26/26 27/27/27
f 28/28/28 29/29/29 30/30/30
f 31/31/31 32/32/32 33/33/33
f 34/34/34 35/35/35 36/36/36
f 37/37/37 38/38/38 39/39/39
f 40/40/40 41/41/41 42/42/42
f 43/43/43 44/44/44 45/45/45
f 54/54/54 55/55/55 56/56/56
f 57/57/57 58/58/58 59/59/59
f 60/60/60 61/61/61 62/62/62
f 63/63/63 64/64/64 65/65/65
f 78/78/78 79/79/79 80/80/80
f 81/81/81 82/82/82 83/83/83
f 84/84/84 85/85/85 86/86/86
f 87/87/87 88/88/88 89/89/89
f 90/90/90 91/91/91 92/92/92
f 93/93/93 94/94/94 95/95/95
f 96/96/96 97/97/97 98/98/98
f 99/99/99 100/100/100 101/101/101
f 102/102/102 103/103/103 104/104/104
f 105/105/105 106/106/106 107/107/107
f 108/108/108 109/109/109 110/110/110
f 111/111/111 112/112/112 113/113/113
f 114/114/114 115/115/115 116/116/116
f 117/117/117 118/118/118 119/119/119
f 120/120/120 121/121/121 122/122/122
f 131/131/131 132/132/132 133/133/133
f 134/134/134 135/135/135 136/136/136
f 133/133/133 137/137/137 131/131/131
f 138/138/138 139/139/139 140/140/140
f 141/141/141 142/142/142 143/143/143
f 144/144/144 145/145/145 146/146/146
f 147/147/147 148/148/148 149/149/149
f 150/150/150 151/151/151 152/152/152
f 153/153/153 154/154/154 155/155/155
f 188/188/188 189/189/189 190/190/190
f 191/191/191 192/192/192 193/193/193
f 194/194/194 195/195/195 196/196/196
f 4/4/4 5/5/5 6/6/6
f 4/4/4 6/6/6 7/7/7
f 8/8/8 9/9/9 10/10/10
f 8/8/8 10/10/10 11/11/11
f 12/12/12 13/13/13 14/14/14
f 12/12/12 14/14/14 15/15/15
f 46/46/46 47/47/47 48/48/48
f 46/46/46 48/48/48 49/49/49
f 50/50/50 51/51/51 52/52/52
f 50/50/50 52/52/52 53/53/53
f 66/66/66 67/67/67 68/68/68
f 66/66/66 68/68/68 69/69/69
f 70/70/70 71/71/71 72/72/72
f 70/70/70 72/72/72 73/73/73
f 74/74/74 75/75/75 76/76/76
f 74/74/74 76/76/76 77/77/77
f 123/123/123 124/124/124 125/125/125
f 123/123/123 125/125/125 126/126/126
f 127/127/127 128/128/128 129/129/129
f 127/127/127 129/129/129 130/130/130
f 156/156/156 157/157/157 158/158/158
f 156/156/156 158/158/158 159/159/159
f 160/160/160 161/161/161 162/162/162
f 160/160/160 162/162/162 163/163/163
f 164/164/164 165/165/165 166/166/166
f 164/164/164 166/166/166 167/167/167
f 168/168/168 169/169/169 170/170/170
f 168/168/168 170/170/170 171/171/171
f 172/172/172 173/173/173 174/174/174
f 172/172/172 174/174/174 175/175/175
f 176/176/176 177/177/177 178/178/178
f 176/176/176 178/178/178 179/179/179
f 180/180/180 181/181/181 182/182/182
f 180/180/180 182/182/182 183/183/183
f 184/184/184 185/185/185 186/186/186
f 184/184/184 186/186/186 187/187/187
f 197/197/197 198/198/198 199/199/199
f 197/197/197 199/199/199 200/200/200
