v 0.337210 0.107920 10.202100
v 0.430690 0.305820 10.204130
v 0.382640 0.398130 10.545550
v 0.320650 0.220000 10.558490
v 0.103810 0.809040 10.190950
v 0.036320 0.822440 10.188680
v -0.076730 0.733140 10.487450
v 0.007210 0.731400 10.490870
v 0.155710 -0.017290 10.196830
v 0.337210 0.107920 10.202100
v 0.320650 0.220000 10.558490
v 0.198140 0.052590 10.491250
v 0.426890 0.527340 10.202890
v 0.306000 0.698130 10.198090
v 0.185440 0.675170 10.497200
v 0.317110 0.580220 10.500950
v -0.024500 -0.043350 10.199040
v 0.155710 -0.017290 10.196830
v 0.198140 0.052590 10.491250
v 0.032790 -0.020920 10.432590
v 0.306000 0.698130 10.198090
v 0.103810 0.809040 10.190950
v 0.007210 0.731400 10.490870
v 0.185440 0.675170 10.497200
v 0.430690 0.305820 10.204130
v 0.426890 0.527340 10.202890
v 0.317110 0.580220 10.500950
v 0.382640 0.398130 10.545550
v 0.007210 0.731400 10.490870
v -0.076730 0.733140 10.487450
v -0.093380 0.793730 10.672430
v 0.110620 0.746930 10.679980
v 0.431150 -0.126350 11.214420
v 0.383300 -0.192770 11.033610
v 0.460990 0.232150 11.127370
v 0.460990 0.232150 11.127370
v 0.428520 0.150250 11.254760
v 0.436410 0.086910 11.282270
v 0.460990 0.232150 11.127370
v 0.436410 0.086910 11.282270
v 0.431150 -0.126350 11.214420
v 0.315100 -0.018680 11.629630
v 0.367150 0.018020 11.633150
v 0.611150 -0.418180 11.164590
v 0.123590 -0.017780 11.780330
v 0.123590 -0.017780 11.780330
v -0.001480 -0.164310 11.688850
v -0.012820 -0.096280 11.727230
v 0.089450 -0.489660 10.661080
v 0.089280 -0.481250 10.637340
v 0.267910 -0.308370 10.647600
v 0.267910 -0.308370 10.647600
v 0.204670 -0.365670 10.950210
v 0.152330 -0.381420 10.945370
v 0.152330 -0.381420 10.945370
v 0.080900 -0.498650 10.887070
v 0.083120 -0.499310 10.838060
v 0.152330 -0.381420 10.945370
v 0.083120 -0.499310 10.838060
v 0.178220 -0.371190 10.844700
v 0.161040 -0.410370 10.760540
v 0.089450 -0.489660 10.661080
v 0.267910 -0.308370 10.647600
v 0.083900 -0.499600 10.821050
v 0.086410 -0.501030 10.768130
v 0.161040 -0.410370 10.760540
v 0.152330 -0.381420 10.945370
v 0.178220 -0.371190 10.844700
v 0.194920 -0.358360 10.827980
v 0.194920 -0.358360 10.827980
v 0.083900 -0.499600 10.821050
v 0.161040 -0.410370 10.760540
v 0.267910 -0.308370 10.647600
v 0.152330 -0.381420 10.945370
v 0.194920 -0.358360 10.827980
v 0.267910 -0.308370 10.647600
v 0.194920 -0.358360 10.827980
v 0.161040 -0.410370 10.760540
v 0.204670 -0.365670 10.950210
v 0.299190 -0.259180 10.735730
v 0.363740 -0.197080 10.715980
v 0.383300 -0.192770 11.033610
v 0.211560 -0.338880 11.114350
v 0.128130 -0.407980 11.109600
v 0.152330 -0.381420 10.945370
v 0.152330 -0.381420 10.945370
v 0.204670 -0.365670 10.950210
v 0.383300 -0.192770 11.033610
v 0.383300 -0.192770 11.033610
v 0.431150 -0.126350 11.214420
v 0.354120 -0.205040 11.167090
v 0.354120 -0.205040 11.167090
v 0.285220 -0.269730 11.141600
v 0.211560 -0.338880 11.114350
v 0.211560 -0.338880 11.114350
v 0.152330 -0.381420 10.945370
v 0.383300 -0.192770 11.033610
v 0.211560 -0.338880 11.114350
v 0.383300 -0.192770 11.033610
v 0.354120 -0.205040 11.167090
v -1.541470 0.023910 7.877570
v -2.006000 0.013130 6.988160
v -1.936580 0.239110 6.970280
v -1.407070 0.339580 7.858230
v -1.407070 0.339580 7.858230
v -1.936580 0.239110 6.970280
v -2.038200 0.479980 6.899380
v -1.518700 0.700330 7.751520
v -1.851580 0.808660 7.811210
v -2.274980 0.531110 6.940590
v -2.469640 0.486500 6.991900
v -2.138070 0.773070 7.885040
v -2.166050 0.036090 8.023720
v -2.436750 -0.022370 7.089560
v -2.222850 -0.029640 7.048100
v -1.859570 -0.005800 7.963880
v -2.213670 0.363140 8.034060
v -2.492660 0.199390 7.095990
v -2.436750 -0.022370 7.089560
v -2.166050 0.036090 8.023720
v -1.518700 0.700330 7.751520
v -2.038200 0.479980 6.899380
v -2.274980 0.531110 6.940590
v -1.851580 0.808660 7.811210
v -2.138070 0.773070 7.885040
v -2.469640 0.486500 6.991900
v -2.492660 0.199390 7.095990
v -2.213670 0.363140 8.034060
v -1.859570 -0.005800 7.963880
v -2.222850 -0.029640 7.048100
v -2.006000 0.013130 6.988160
v -1.541470 0.023910 7.877570
v -0.361110 0.156700 10.179140
v -0.320320 0.128930 10.530610
v -0.428060 0.282950 10.510290
v -0.426120 0.365680 10.175960
v -0.032370 0.818550 10.186470
v -0.156850 0.708090 10.483730
v -0.076730 0.733140 10.487450
v 0.036320 0.822440 10.188680
v -0.198800 0.007480 10.185170
v -0.150840 0.003010 10.476070
v -0.320320 0.128930 10.530610
v -0.361110 0.156700 10.179140
v -0.391530 0.584510 10.175970
v -0.412190 0.476610 10.469230
v -0.312280 0.604460 10.475550
v -0.248030 0.736830 10.179870
v -0.024500 -0.043350 10.199040
v 0.032790 -0.020920 10.432590
v -0.150840 0.003010 10.476070
v -0.198800 0.007480 10.185170
v -0.248030 0.736830 10.179870
v -0.312280 0.604460 10.475550
v -0.156850 0.708090 10.483730
v -0.032370 0.818550 10.186470
v -0.426120 0.365680 10.175960
v -0.428060 0.282950 10.510290
v -0.412190 0.476610 10.469230
v -0.391530 0.584510 10.175970
v -0.156850 0.708090 10.483730
v -0.276200 0.691970 10.663160
v -0.093380 0.793730 10.672430
v -0.076730 0.733140 10.487450
v -0.506400 0.094710 11.085290
v -0.305950 -0.290700 11.003630
v -0.385590 -0.242390 11.178890
v -0.385590 -0.242390 11.178890
v -0.434650 -0.212390 11.318360
v -0.463410 0.023530 11.215960
v -0.385590 -0.242390 11.178890
v -0.463410 0.023530 11.215960
v -0.506400 0.094710 11.085290
v -0.339840 -0.111730 11.601150
v -0.169680 -0.059440 11.767570
v -0.425110 -0.448030 11.110320
v -0.400140 -0.090990 11.599770
v -0.169680 -0.059440 11.767570
v -0.012820 -0.096280 11.727230
v -0.001480 -0.164310 11.688850
v -0.130560 -0.364980 10.630270
v 0.089280 -0.481250 10.637340
v 0.089450 -0.489660 10.661080
v -0.009560 -0.434610 10.753120
v 0.086410 -0.501030 10.768130
v 0.083900 -0.499600 10.821050
v -0.130560 -0.364980 10.630270
v 0.089450 -0.489660 10.661080
v -0.009560 -0.434610 10.753120
v 0.080900 -0.498650 10.887070
v -0.025010 -0.406620 10.937650
v -0.079870 -0.406090 10.937830
v -0.067310 -0.411360 10.894240
v 0.083120 -0.499310 10.838060
v 0.080900 -0.498650 10.887070
v -0.062180 -0.394890 10.816800
v -0.044060 -0.402770 10.835030
v -0.067310 -0.411360 10.894240
v -0.115910 -0.422960 10.783150
v -0.062180 -0.394890 10.816800
v -0.067310 -0.411360 10.894240
v -0.067310 -0.411360 10.894240
v 0.080900 -0.498650 10.887070
v -0.079870 -0.406090 10.937830
v -0.009560 -0.434610 10.753120
v 0.083900 -0.499600 10.821050
v 0.026900 -0.507900 10.799250
v -0.115910 -0.422960 10.783150
v -0.067310 -0.411360 10.894240
v -0.079870 -0.406090 10.937830
v -0.009560 -0.434610 10.753120
v 0.026900 -0.507900 10.799250
v -0.115910 -0.422960 10.783150
v -0.115910 -0.422960 10.783150
v -0.079870 -0.406090 10.937830
v -0.130560 -0.364980 10.630270
v -0.009560 -0.434610 10.753120
v -0.115910 -0.422960 10.783150
v -0.130560 -0.364980 10.630270
v -0.079870 -0.406090 10.937830
v -0.305950 -0.290700 11.003630
v -0.259010 -0.285560 10.688890
v -0.181660 -0.327500 10.714820
v -0.199910 -0.338650 11.120500
v -0.385590 -0.242390 11.178890
v -0.305950 -0.290700 11.003630
v -0.305950 -0.290700 11.003630
v -0.079870 -0.406090 10.937830
v -0.025010 -0.406620 10.937650
v -0.025010 -0.406620 10.937650
v -0.008450 -0.427390 11.103660
v -0.107890 -0.384260 11.100460
v -0.107890 -0.384260 11.100460
v -0.199910 -0.338650 11.120500
v -0.305950 -0.290700 11.003630
v -0.107890 -0.384260 11.100460
v -0.305950 -0.290700 11.003630
v -0.025010 -0.406620 10.937650
vt 0.000000 0.000000
vt 0.000000 0.000000
vt 0.000000 0.000000
vt 0.000000 0.000000
vt 0.000000 0.000000
vt 0.000000 0.000000
vt 0.000000 0.000000
vt 0.000000 0.000000
vt 0.000000 0.000000
vt 0.000000 0.000000
vt 0.000000 0.000000
vt 0.000000 0.000000
vt 0.000000 0.000000
vt 0.000000 0.000000
vt 0.000000 0.000000
vt 0.000000 0.000000
vt 0.000000 0.000000
vt 0.000000 0.000000
vt 0.000000 0.000000
vt 0.000000 0.000000
vt 0.000000 0.000000
vt 0.000000 0.000000
vt 0.000000 0.000000
vt 0.000000 0.000000
vt 0.000000 0.000000
vt 0.000000 0.000000
vt 0.000000 0.000000
vt 0.000000 0.000000
vt 0.000000 0.000000
vt 0.000000 0.000000
vt 0.000000 0.000000
vt 0.000000 0.000000
vt 0.000000 0.000000
vt 0.000000 0.000000
vt 0.000000 0.000000
vt 0.000000 0.000000
vt 0.000000 0.000000
vt 0.000000 0.000000
vt 0.000000 0.000000
vt 0.000000 0.000000
vt 0.000000 0.000000
vt 0.000000 0.000000
vt 0.000000 0.000000
vt 0.000000 0.000000
vt 0.000000 0.000000
vt 0.000000 0.000000
vt 0.000000 0.000000
vt 0.000000 0.000000
vt 0.000000 0.000000
vt 0.000000 0.000000
vt 0.000000 0.000000
vt 0.000000 0.000000
vt 0.000000 0.000000
vt 0.000000 0.000000
vt 0.000000 0.000000
vt 0.000000 0.000000
vt 0.000000 0.000000
vt 0.000000 0.000000
vt 0.000000 0.000000
vt 0.000000 0.000000
vt 0.000000 0.000000
vt 0.000000 0.000000
vt 0.000000 0.000000
vt 0.000000 0.000000
vt 0.000000 0.000000
vt 0.000000 0.000000
vt 0.000000 0.000000
vt 0.000000 0.000000
vt 0.000000 0.000000
vt 0.000000 0.000000
vt 0.000000 0.000000
vt 0.000000 0.000000
vt 0.000000 0.000000
vt 0.000000 0.000000
vt 0.000000 0.000000
vt 0.000000 0.000000
vt 0.000000 0.000000
vt 0.000000 0.000000
vt 0.000000 0.000000
vt 0.000000 0.000000
vt 0.000000 0.000000
vt 0.000000 0.000000
vt 0.000000 0.000000
vt 0.000000 0.000000
vt 0.000000 0.000000
vt 0.000000 0.000000
vt 0.000000 0.000000
vt 0.000000 0.000000
vt 0.000000 0.000000
vt 0.000000 0.000000
vt 0.000000 0.000000
vt 0.000000 0.000000
vt 0.000000 0.000000
vt 0.000000 0.000000
vt 0.000000 0.000000
vt 0.000000 0.000000
vt 0.000000 0.000000
vt 0.000000 0.000000
vt 0.000000 0.000000
vt 0.000000 0.000000
vt 0.000000 0.000000
vt 0.000000 0.000000
vt 0.000000 0.000000
vt 0.000000 0.000000
vt 0.000000 0.000000
vt 0.000000 0.000000
vt 0.000000 0.000000
vt 0.000000 0.000000
vt 0.000000 0.000000
vt 0.000000 0.000000
vt 0.000000 0.000000
vt 0.000000 0.000000
vt 0.000000 0.000000
vt 0.000000 0.000000
vt 0.000000 0.000000
vt 0.000000 0.000000
vt 0.000000 0.000000
vt 0.000000 0.000000
vt 0.000000 0.000000
vt 0.000000 0.000000
vt 0.000000 0.000000
vt 0.000000 0.000000
vt 0.000000 0.000000
vt 0.000000 0.000000
vt 0.000000 0.000000
vt 0.000000 0.000000
vt 0.000000 0.000000
vt 0.000000 0.000000
vt 0.000000 0.000000
vt 0.000000 0.000000
vt 0.000000 0.000000
vt 0.000000 0.000000
vt 0.000000 0.000000
vt 0.000000 0.000000
vt 0.000000 0.000000
vt 0.000000 0.000000
vt 0.000000 0.000000
vt 0.000000 0.000000
vt 0.000000 0.000000
vt 0.000000 0.000000
vt 0.000000 0.000000
vt 0.000000 0.000000
vt 0.000000 0.000000
vt 0.000000 0.000000
vt 0.000000 0.000000
vt 0.000000 0.000000
vt 0.000000 0.000000
vt 0.000000 0.000000
vt 0.000000 0.000000
vt 0.000000 0.000000
vt 0.000000 0.000000
vt 0.000000 0.000000
vt 0.000000 0.000000
vt 0.000000 0.000000
vt 0.000000 0.000000
vt 0.000000 0.000000
vt 0.000000 0.000000
vt 0.000000 0.000000
vt 0.000000 0.000000
vt 0.000000 0.000000
vt 0.000000 0.000000
vt 0.000000 0.000000
vt 0.000000 0.000000
vt 0.000000 0.000000
vt 0.000000 0.000000
vt 0.000000 0.000000
vt 0.000000 0.000000
vt 0.000000 0.000000
vt 0.000000 0.000000
vt 0.000000 0.000000
vt 0.000000 0.000000
vt 0.000000 0.000000
vt 0.000000 0.000000
vt 0.000000 0.000000
vt 0.000000 0.000000
vt 0.000000 0.000000
vt 0.000000 0.000000
vt 0.000000 0.000000
vt 0.000000 0.000000
vt 0.000000 0.000000
vt 0.000000 0.000000
vt 0.000000 0.000000
vt 0.000000 0.000000
vt 0.000000 0.000000
vt 0.000000 0.000000
vt 0.000000 0.000000
vt 0.000000 0.000000
vt 0.000000 0.000000
vt 0.000000 0.000000
vt 0.000000 0.000000
vt 0.000000 0.000000
vt 0.000000 0.000000
vt 0.000000 0.000000
vt 0.000000 0.000000
vt 0.000000 0.000000
vt 0.000000 0.000000
vt 0.000000 0.000000
vt 0.000000 0.000000
vt 0.000000 0.000000
vt 0.000000 0.000000
vt 0.000000 0.000000
vt 0.000000 0.000000
vt 0.000000 0.000000
vt 0.000000 0.000000
vt 0.000000 0.000000
vt 0.000000 0.000000
vt 0.000000 0.000000
vt 0.000000 0.000000
vt 0.000000 0.000000
vt 0.000000 0.000000
vt 0.000000 0.000000
vt 0.000000 0.000000
vt 0.000000 0.000000
vt 0.000000 0.000000
vt 0.000000 0.000000
vt 0.000000 0.000000
vt 0.000000 0.000000
vt 0.000000 0.000000
vt 0.000000 0.000000
vt 0.000000 0.000000
vt 0.000000 0.000000
vt 0.000000 0.000000
vt 0.000000 0.000000
vt 0.000000 0.000000
vt 0.000000 0.000000
vt 0.000000 0.000000
vt 0.000000 0.000000
vt 0.000000 0.000000
vt 0.000000 0.000000
vt 0.000000 0.000000
vt 0.000000 0.000000
vt 0.000000 0.000000
vt 0.000000 0.000000
vt 0.000000 0.000000
vt 0.000000 0.000000
vt 0.000000 0.000000
vt 0.000000 0.000000
vt 0.000000 0.000000
vn 0.908803 -0.370131 0.192561
vn 0.908803 -0.370131 0.192561
vn 0.908803 -0.370131 0.192561
vn 0.908803 -0.370131 0.192561
vn 0.084080 0.951837 0.294849
vn 0.084080 0.951837 0.294849
vn 0.084080 0.951837 0.294849
vn 0.084080 0.951837 0.294849
vn 0.660069 -0.729858 0.177810
vn 0.660069 -0.729858 0.177810
vn 0.660069 -0.729858 0.177810
vn 0.660069 -0.729858 0.177810
vn 0.700469 0.673379 0.236440
vn 0.700469 0.673379 0.236440
vn 0.700469 0.673379 0.236440
vn 0.700469 0.673379 0.236440
vn 0.256901 -0.959065 0.119151
vn 0.256901 -0.959065 0.119151
vn 0.256901 -0.959065 0.119151
vn 0.256901 -0.959065 0.119151
vn 0.377130 0.881310 0.284720
vn 0.377130 0.881310 0.284720
vn 0.377130 0.881310 0.284720
vn 0.377130 0.881310 0.284720
vn 0.962710 0.187480 0.195040
vn 0.962710 0.187480 0.195040
vn 0.962710 0.187480 0.195040
vn 0.962710 0.187480 0.195040
vn 0.170290 0.957141 -0.234270
vn 0.170290 0.957141 -0.234270
vn 0.170290 0.957141 -0.234270
vn 0.170290 0.957141 -0.234270
vn 0.969223 -0.131250 -0.208281
vn 0.969223 -0.131250 -0.208281
vn 0.969223 -0.131250 -0.208281
vn 0.869651 0.283680 0.404020
vn 0.869651 0.283680 0.404020
vn 0.869651 0.283680 0.404020
vn 0.992948 -0.057470 0.103690
vn 0.992948 -0.057470 0.103690
vn 0.992948 -0.057470 0.103690
vn -0.506460 0.467840 -0.724310
vn -0.506460 0.467840 -0.724310
vn -0.506460 0.467840 -0.724310
vn -0.506460 0.467840 -0.724310
vn 0.051040 0.497170 -0.866151
vn 0.051040 0.497170 -0.866151
vn 0.051040 0.497170 -0.866151
vn 0.680921 -0.688811 -0.248770
vn 0.680921 -0.688811 -0.248770
vn 0.680921 -0.688811 -0.248770
vn 0.296219 -0.947857 -0.117560
vn 0.296219 -0.947857 -0.117560
vn 0.296219 -0.947857 -0.117560
vn 0.842882 -0.536181 0.045380
vn 0.842882 -0.536181 0.045380
vn 0.842882 -0.536181 0.045380
vn 0.791149 -0.594669 0.143010
vn 0.791149 -0.594669 0.143010
vn 0.791149 -0.594669 0.143010
vn 0.713578 -0.699208 0.043760
vn 0.713578 -0.699208 0.043760
vn 0.713578 -0.699208 0.043760
vn 0.773120 -0.631990 0.053610
vn 0.773120 -0.631990 0.053610
vn 0.773120 -0.631990 0.053610
vn 0.664739 -0.740929 0.095630
vn 0.664739 -0.740929 0.095630
vn 0.664739 -0.740929 0.095630
vn 0.781387 -0.618328 0.084290
vn 0.781387 -0.618328 0.084290
vn 0.781387 -0.618328 0.084290
vn 0.864811 -0.448540 0.225640
vn 0.864811 -0.448540 0.225640
vn 0.864811 -0.448540 0.225640
vn 0.750419 -0.649280 0.123720
vn 0.750419 -0.649280 0.123720
vn 0.750419 -0.649280 0.123720
vn 0.699569 -0.713529 -0.038450
vn 0.699569 -0.713529 -0.038450
vn 0.699569 -0.713529 -0.038450
vn 0.699569 -0.713529 -0.038450
vn 0.638608 -0.768937 -0.030260
vn 0.638608 -0.768937 -0.030260
vn 0.638608 -0.768937 -0.030260
vn 0.066660 -0.488560 0.869980
vn 0.066660 -0.488560 0.869980
vn 0.066660 -0.488560 0.869980
vn 0.686510 -0.722290 0.083670
vn 0.686510 -0.722290 0.083670
vn 0.686510 -0.722290 0.083670
vn 0.129340 -0.479789 0.867798
vn 0.129340 -0.479789 0.867798
vn 0.129340 -0.479789 0.867798
vn 0.639282 -0.768362 -0.030640
vn 0.639282 -0.768362 -0.030640
vn 0.639282 -0.768362 -0.030640
vn 0.666957 -0.741037 0.077670
vn 0.666957 -0.741037 0.077670
vn 0.666957 -0.741037 0.077670
vn 0.828999 -0.342349 -0.442219
vn 0.828999 -0.342349 -0.442219
vn 0.828999 -0.342349 -0.442219
vn 0.828999 -0.342349 -0.442219
vn 0.836356 0.139999 -0.530008
vn 0.836356 0.139999 -0.530008
vn 0.836356 0.139999 -0.530008
vn 0.836356 0.139999 -0.530008
vn -0.214341 0.953223 -0.213131
vn -0.214341 0.953223 -0.213131
vn -0.214341 0.953223 -0.213131
vn -0.214341 0.953223 -0.213131
vn -0.079970 -0.994220 0.071630
vn -0.079970 -0.994220 0.071630
vn -0.079970 -0.994220 0.071630
vn -0.079970 -0.994220 0.071630
vn -0.936620 -0.185770 0.297040
vn -0.936620 -0.185770 0.297040
vn -0.936620 -0.185770 0.297040
vn -0.936620 -0.185770 0.297040
vn 0.189890 0.910592 -0.367101
vn 0.189890 0.910592 -0.367101
vn 0.189890 0.910592 -0.367101
vn 0.189890 0.910592 -0.367101
vn -0.939368 0.226420 0.257530
vn -0.939368 0.226420 0.257530
vn -0.939368 0.226420 0.257530
vn -0.939368 0.226420 0.257530
vn 0.123990 -0.991561 -0.037850
vn 0.123990 -0.991561 -0.037850
vn 0.123990 -0.991561 -0.037850
vn 0.123990 -0.991561 -0.037850
vn -0.902359 -0.430599 -0.018260
vn -0.902359 -0.430599 -0.018260
vn -0.902359 -0.430599 -0.018260
vn -0.902359 -0.430599 -0.018260
vn -0.194461 0.950803 0.241161
vn -0.194461 0.950803 0.241161
vn -0.194461 0.950803 0.241161
vn -0.194461 0.950803 0.241161
vn -0.633350 -0.772330 0.048730
vn -0.633350 -0.772330 0.048730
vn -0.633350 -0.772330 0.048730
vn -0.633350 -0.772330 0.048730
vn -0.748552 0.644681 0.155100
vn -0.748552 0.644681 0.155100
vn -0.748552 0.644681 0.155100
vn -0.748552 0.644681 0.155100
vn -0.198091 -0.977444 0.073230
vn -0.198091 -0.977444 0.073230
vn -0.198091 -0.977444 0.073230
vn -0.198091 -0.977444 0.073230
vn -0.443209 0.870177 0.215309
vn -0.443209 0.870177 0.215309
vn -0.443209 0.870177 0.215309
vn -0.443209 0.870177 0.215309
vn -0.992586 0.121539 0.001180
vn -0.992586 0.121539 0.001180
vn -0.992586 0.121539 0.001180
vn -0.992586 0.121539 0.001180
vn -0.409089 0.874827 -0.259469
vn -0.409089 0.874827 -0.259469
vn -0.409089 0.874827 -0.259469
vn -0.409089 0.874827 -0.259469
vn -0.873131 -0.393001 -0.288430
vn -0.873131 -0.393001 -0.288430
vn -0.873131 -0.393001 -0.288430
vn -0.931816 -0.234029 -0.277399
vn -0.931816 -0.234029 -0.277399
vn -0.931816 -0.234029 -0.277399
vn -0.943302 -0.296781 0.148670
vn -0.943302 -0.296781 0.148670
vn -0.943302 -0.296781 0.148670
vn 0.313701 0.757012 -0.573171
vn 0.313701 0.757012 -0.573171
vn 0.313701 0.757012 -0.573171
vn 0.313701 0.757012 -0.573171
vn -0.113310 0.473821 -0.873301
vn -0.113310 0.473821 -0.873301
vn -0.113310 0.473821 -0.873301
vn -0.438839 -0.847899 -0.297469
vn -0.438839 -0.847899 -0.297469
vn -0.438839 -0.847899 -0.297469
vn -0.568582 -0.822613 -0.004760
vn -0.568582 -0.822613 -0.004760
vn -0.568582 -0.822613 -0.004760
vn -0.492090 -0.870501 -0.008680
vn -0.492090 -0.870501 -0.008680
vn -0.492090 -0.870501 -0.008680
vn -0.001820 -0.483258 0.875476
vn -0.001820 -0.483258 0.875476
vn -0.001820 -0.483258 0.875476
vn -0.507887 -0.861346 -0.011590
vn -0.507887 -0.861346 -0.011590
vn -0.507887 -0.861346 -0.011590
vn -0.197689 -0.956067 -0.216459
vn -0.197689 -0.956067 -0.216459
vn -0.197689 -0.956067 -0.216459
vn 0.527180 -0.837601 -0.143200
vn 0.527180 -0.837601 -0.143200
vn 0.527180 -0.837601 -0.143200
vn -0.508572 -0.859963 -0.042630
vn -0.508572 -0.859963 -0.042630
vn -0.508572 -0.859963 -0.042630
vn 0.378690 -0.350740 -0.856490
vn 0.378690 -0.350740 -0.856490
vn 0.378690 -0.350740 -0.856490
vn -0.022550 -0.993274 0.113570
vn -0.022550 -0.993274 0.113570
vn -0.022550 -0.993274 0.113570
vn -0.276861 -0.606733 -0.745133
vn -0.276861 -0.606733 -0.745133
vn -0.276861 -0.606733 -0.745133
vn -0.944966 0.265469 0.191219
vn -0.944966 0.265469 0.191219
vn -0.944966 0.265469 0.191219
vn -0.194709 -0.923167 -0.331439
vn -0.194709 -0.923167 -0.331439
vn -0.194709 -0.923167 -0.331439
vn -0.467701 -0.879371 -0.089230
vn -0.467701 -0.879371 -0.089230
vn -0.467701 -0.879371 -0.089230
vn -0.467701 -0.879371 -0.089230
vn -0.449490 -0.892310 0.041720
vn -0.449490 -0.892310 0.041720
vn -0.449490 -0.892310 0.041720
vn -0.001990 -0.498332 0.866984
vn -0.001990 -0.498332 0.866984
vn -0.001990 -0.498332 0.866984
vn -0.394670 -0.915740 -0.075200
vn -0.394670 -0.915740 -0.075200
vn -0.394670 -0.915740 -0.075200
vn -0.438739 -0.898128 0.029570
vn -0.438739 -0.898128 0.029570
vn -0.438739 -0.898128 0.029570
vn -0.395449 -0.915367 -0.075650
vn -0.395449 -0.915367 -0.075650
vn -0.395449 -0.915367 -0.075650
f 33/33/33 34/34/34 35/35/35
f 36/36/36 37/37/37 38/38/38
f 39/39/39 40/40/40 41/41/41
f 46/46/46 47/47/47 48/48/48
f 49/49/49 50/50/50 51/51/51
f 52/52/52 53/53/53 54/54/54
f 55/55/55 56/56/56 57/57/57
f 58/58/58 59/59/59 60/60/60
f 61/61/61 62/62/62 63/63/63
f 64/64/64 65/65/65 66/66/66
f 67/67/67 68/68/68 69/69/69
f 70/70/70 71/71/71 72/72/72
f 73/73/73 74/74/74 75/75/75
f 76/76/76 77/77/77 78/78/78
f 83/83/83 84/84/84 85/85/85
f 86/86/86 87/87/87 88/88/88
f 89/89/89 90/90/90 91/91/91
f 92/92/92 93/93/93 94/94/94
f 95/95/95 96/96/96 97/97/97
f 98/98/98 99/99/99 100/100/100
f 165/165/165 166/166/166 167/167/167
f 168/168/168 169/169/169 170/170/170
f 171/171/171 172/172/172 173/173/173
f 178/178/178 179/179/179 180/180/180
f 181/181/181 182/182/182 183/183/183
f 184/184/184 185/185/185 186/186/186
f 187/187/187 188/188/188 189/189/189
f 190/190/190 191/191/191 192/192/192
f 193/193/193 194/194/194 195/195/195
f 196/196/196 197/197/197 198/198/198
f 199/199/199 200/200/200 201/201/201
f 202/202/202 203/203/203 204/204/204
f 205/205/205 206/206/206 207/207/207
f 208/208/208 209/209/209 210/210/210
f 211/211/211 212/212/212 213/213/213
f 214/214/214 215/215/215 216/216/216
f 217/217/217 218/218/218 219/219/219
f 224/224/224 225/225/225 226/226/226
f 227/227/227 228/228/228 229/229/229
f 230/230/230 231/231/231 232/232/232
f 233/233/233 234/234/234 235/235/235
f 236/236/236 237/237/237 238/238/238
f 1/1/1 2/2/2 3/3/3
f 1/1/1 3/3/3 4/4/4
f 5/5/5 6/6/6 7/7/7
f 5/5/5 7/7/7 8/8/8
f 9/9/9 10/10/10 11/11/11
f 9/9/9 11/11/11 12/12/12
f 13/13/13 14/14/14 15/15/15
f 13/13/13 15/15/15 16/16/16
f 17/17/17 18/18/18 19/19/19
f 17/17/17 19/19/19 20/20/20
f 21/21/21 22/22/22 23/23/23
f 21/21/21 23/23/23 24/24/24
f 25/25/25 26/26/26 27/27/27
f 25/25/25 27/27/27 28/28/28
f 29/29/29 30/30/30 31/31/31
f 29/29/29 31/31/31 32/32/32
f 42/42/42 43/43/43 44/44/44
f 42/42/42 44/44/44 45/45/45
f 79/79/79 80/80/80 81/81/81
f 79/79/79 81/81/81 82/82/82
f 101/101/101 102/102/102 103/103/103
f 101/101/101 103/103/103 104/104/104
f 105/105/105 106/106/106 107/107/107
f 105/105/105 107/107/107 108/108/108
f 109/109/109 110/110/110 111/111/111
f 109/109/109 111/111/111 112/112/112
f 113/113/113 114/114/114 115/115/115
f 113/113/113 115/115/115 116/116/116
f 117/117/117 118/118/118 119/119/119
f 117/117/117 119/119/119 120/120/120
f 121/121/121 122/122/122 123/123/123
f 121/121/121 123/123/123 124/124/124
f 125/125/125 126/126/126 127/127/127
f 125/125/125 127/127/127 128/128/128
f 129/129/129 130/130/130 131/131/131
f 129/129/129 131/131/131 132/132/132
f 133/133/133 134/134/134 135/135/135
f 133/133/133 135/135/135 136/136/136
f 137/137/137 138/138/138 139/139/139
f 137/137/137 139/139/139 140/140/140
f 141/141/141 142/142/142 143/143/143
f 141/141/141 143/143/143 144/144/144
f 145/145/145 146/146/146 147/147/147
f 145/145/145 147/147/147 148/148/148
f 149/149/149 150/150/150 151/151/151
f 149/149/149 151/151/151 152/152/152
f 153/153/153 154/154/154 155/155/155
f 153/153/153 155/155/155 156/156/156
f 157/157/157 158/158/158 159/159/159
f 157/157/157 159/159/159 160/160/160
f 161/161/161 162/162/162 163/163/163
f 161/161/161 163/163/163 164/164/164
f 174/174/174 175/175/175 176/176/176
f 174/174/174 176/176/176 177/177/177
f 220/220/220 221/221/221 222/222/222
f 220/220/220 222/222/222 223/223/223
