v 0.625080 0.639110 -1.000000
v 0.625080 0.639110 1.000000
v 0.864840 0.489850 -0.269890
v 0.864840 0.489850 -2.269890
v 0.864840 0.489850 -2.269890
v 0.864840 0.489850 -0.269890
v 0.938070 0.097020 0.272630
v 0.859510 -0.062480 -1.248170
v 0.865120 -0.507760 -1.970740
v 0.864840 -0.510150 -0.269890
v 0.564100 -0.674320 1.000000
v 0.566750 -0.691020 -0.915030
v 0.001690 -0.985530 0.809100
v 0.113960 -0.994430 2.778050
v -0.472680 -0.705930 2.316990
v -0.484230 -0.751800 0.803350
v 0.938070 0.097020 0.272630
v 0.864840 0.489850 -0.269890
v 0.625080 0.639110 1.000000
v 0.625080 0.639110 1.000000
v 0.564100 -0.674320 1.000000
v 0.864840 -0.510150 -0.269890
v 0.625080 0.639110 1.000000
v 0.864840 -0.510150 -0.269890
v 0.938070 0.097020 0.272630
v -0.775230 -0.491380 -0.992890
v -0.868720 -0.523030 -1.879690
v -0.953830 0.003350 -1.878920
v -0.953420 -0.006030 -3.432560
v -0.472640 0.727120 -1.000000
v -0.868720 0.476970 -3.879690
v -0.868720 0.476970 -1.879690
v -0.501630 0.710380 1.000000
v 0.000000 1.000000 1.000000
v -0.465920 0.731000 0.660630
v -0.465920 0.731000 0.660630
v -0.472640 0.727120 -1.000000
v -0.868720 0.476970 -1.879690
v -0.868720 0.476970 -1.879690
v -0.501630 0.710380 1.000000
v -0.465920 0.731000 0.660630
v 0.000000 1.000000 -1.000000
v 0.000000 1.000000 1.000000
v 0.625080 0.639110 1.000000
v 0.625080 0.639110 -1.000000
v 0.865120 -0.507760 -1.970740
v 0.566750 -0.691020 -0.915030
v 0.577250 -0.462100 -1.000000
v 0.625080 0.639110 -1.000000
v 0.864840 0.489850 -2.269890
v 0.859510 -0.062480 -1.248170
v 0.859510 -0.062480 -1.248170
v 0.865120 -0.507760 -1.970740
v 0.577250 -0.462100 -1.000000
v 0.577250 -0.462100 -1.000000
v 0.625080 0.639110 -1.000000
v 0.859510 -0.062480 -1.248170
v 0.113960 -0.994430 2.778050
v 0.564100 -0.674320 1.000000
v 0.625080 0.639110 1.000000
v 0.625080 0.639110 1.000000
v 0.000000 1.000000 1.000000
v -0.501630 0.710380 1.000000
v -0.501630 0.710380 1.000000
v -0.598480 -0.644070 2.218120
v -0.469740 -0.582660 2.202040
v -0.469740 -0.582660 2.202040
v -0.472680 -0.705930 2.316990
v 0.113960 -0.994430 2.778050
v 0.113960 -0.994430 2.778050
v 0.625080 0.639110 1.000000
v -0.501630 0.710380 1.000000
v -0.501630 0.710380 1.000000
v -0.469740 -0.582660 2.202040
v 0.113960 -0.994430 2.778050
v 0.566750 -0.691020 -0.915030
v 0.564100 -0.674320 1.000000
v 0.113960 -0.994430 2.778050
v 0.001690 -0.985530 0.809100
v -0.472640 0.727120 -1.000000
v 0.000000 1.000000 -1.000000
v -0.587380 -0.702190 0.802130
v -0.598480 -0.644070 2.218120
v -0.868720 -0.523030 -1.879690
v -0.775230 -0.491380 -0.992890
v -0.868720 0.476970 -3.879690
v -0.472640 0.727120 -1.000000
v -0.564440 -0.410380 -1.000000
v -0.564440 -0.410380 -1.000000
v -0.587380 -0.702190 0.802130
v -0.775230 -0.491380 -0.992890
v -0.775230 -0.491380 -0.992890
v -0.953420 -0.006030 -3.432560
v -0.868720 0.476970 -3.879690
v -0.564440 -0.410380 -1.000000
v -0.775230 -0.491380 -0.992890
v -0.868720 0.476970 -3.879690
v -0.868720 -0.523030 -1.879690
v -0.598480 -0.644070 2.218120
v -0.501630 0.710380 1.000000
v -0.501630 0.710380 1.000000
v -0.868720 0.476970 -1.879690
v -0.953830 0.003350 -1.878920
v -0.501630 0.710380 1.000000
v -0.953830 0.003350 -1.878920
v -0.868720 -0.523030 -1.879690
v -0.564440 -0.410380 -1.000000
v 0.026240 -0.659330 0.073650
v 0.001690 -0.985530 0.809100
v 0.001690 -0.985530 0.809100
v -0.484230 -0.751800 0.803350
v -0.518940 -0.621910 0.134330
v -0.518940 -0.621910 0.134330
v -0.587380 -0.702190 0.802130
v -0.564440 -0.410380 -1.000000
v -0.564440 -0.410380 -1.000000
v 0.001690 -0.985530 0.809100
v -0.518940 -0.621910 0.134330
v -0.953420 -0.006030 -3.432560
v -0.953830 0.003350 -1.878920
v -0.868720 0.476970 -1.879690
v -0.868720 0.476970 -3.879690
v 0.859510 -0.062480 -1.248170
v 0.938070 0.097020 0.272630
v 0.864840 -0.510150 -0.269890
v 0.865120 -0.507760 -1.970740
v -0.007810 0.516640 0.712450
v -0.355000 0.374190 0.375380
v -0.472640 0.727120 -1.000000
v 0.000000 1.000000 -1.000000
v 0.411580 0.333450 0.099850
v -0.007810 0.516640 0.712450
v 0.000000 1.000000 -1.000000
v 0.625080 0.639110 -1.000000
v -0.355000 0.374190 0.375380
v -0.435630 -0.293270 0.234200
v -0.564440 -0.410380 -1.000000
v -0.472640 0.727120 -1.000000
v 0.392120 -0.217640 -1.000000
v 0.411580 0.333450 0.099850
v 0.625080 0.639110 -1.000000
v 0.577250 -0.462100 -1.000000
v -0.435630 -0.293270 0.234200
v 0.018250 -0.542340 0.101820
v 0.026240 -0.659330 0.073650
v -0.564440 -0.410380 -1.000000
v -0.237090 0.337940 -9.441450
v -0.025570 0.451410 -9.104200
v 0.039560 0.363000 -11.108860
v -0.231200 0.326980 -11.534060
v 0.001690 -0.985530 0.809100
v 0.026240 -0.659330 0.073650
v 0.577250 -0.462100 -1.000000
v 0.566750 -0.691020 -0.915030
v 0.026240 -0.659330 0.073650
v 0.018250 -0.542340 0.101820
v 0.392120 -0.217640 -1.000000
v 0.577250 -0.462100 -1.000000
v -0.001320 -0.398680 -7.810570
v -0.265040 -0.149310 -11.934990
v -0.196660 -0.062320 -11.331750
v -0.005210 -0.167370 -11.387590
v 0.303250 -0.064670 -7.975370
v -0.018230 -0.459780 -4.390100
v -0.001320 -0.398680 -7.810570
v 0.161910 -0.148390 -12.988450
v 0.321270 0.283760 -7.735140
v 0.303250 -0.064670 -7.975370
v 0.161910 -0.148390 -12.988450
v 0.218970 0.246210 -11.913280
v -0.025570 0.451410 -9.104200
v 0.321270 0.283760 -7.735140
v 0.218970 0.246210 -11.913280
v 0.039560 0.363000 -11.108860
v -0.018230 -0.459780 -4.390100
v -0.328350 -0.203600 -7.046710
v -0.265040 -0.149310 -11.934990
v -0.001320 -0.398680 -7.810570
v -0.328350 -0.203600 -7.046710
v -0.237090 0.337940 -9.441450
v -0.231200 0.326980 -11.534060
v -0.265040 -0.149310 -11.934990
v -0.161010 0.243590 -11.132490
v -0.014560 0.303680 -10.990310
v 0.162330 0.226400 -11.248710
v 0.162330 0.226400 -11.248710
v 0.152490 -0.030420 -11.852340
v -0.005210 -0.167370 -11.387590
v -0.005210 -0.167370 -11.387590
v -0.196660 -0.062320 -11.331750
v -0.161010 0.243590 -11.132490
v 0.162330 0.226400 -11.248710
v -0.005210 -0.167370 -11.387590
v -0.161010 0.243590 -11.132490
v -0.265040 -0.149310 -11.934990
v -0.231200 0.326980 -11.534060
v -0.161010 0.243590 -11.132490
v -0.196660 -0.062320 -11.331750
v -0.231200 0.326980 -11.534060
v 0.039560 0.363000 -11.108860
v -0.014560 0.303680 -10.990310
v -0.161010 0.243590 -11.132490
v 0.161910 -0.148390 -12.988450
v -0.001320 -0.398680 -7.810570
v -0.005210 -0.167370 -11.387590
v 0.152490 -0.030420 -11.852340
v 0.218970 0.246210 -11.913280
v 0.161910 -0.148390 -12.988450
v 0.152490 -0.030420 -11.852340
v 0.162330 0.226400 -11.248710
v 0.039560 0.363000 -11.108860
v 0.218970 0.246210 -11.913280
v 0.162330 0.226400 -11.248710
v -0.014560 0.303680 -10.990310
v -0.587380 -0.702190 0.802130
v -0.518940 -0.621910 0.134330
v -0.469740 -0.582660 2.202040
v -0.469740 -0.582660 2.202040
v -0.598480 -0.644070 2.218120
v -0.587380 -0.702190 0.802130
v -0.518940 -0.621910 0.134330
v -0.484230 -0.751800 0.803350
v -0.472680 -0.705930 2.316990
v -0.469740 -0.582660 2.202040
vt 0.000000 0.000000
vt 0.000000 0.000000
vt 0.000000 0.000000
vt 0.000000 0.000000
vt 0.000000 0.000000
vt 0.000000 0.000000
vt 0.000000 0.000000
vt 0.000000 0.000000
vt 0.000000 0.000000
vt 0.000000 0.000000
vt 0.000000 0.000000
vt 0.000000 0.000000
vt 0.000000 0.000000
vt 0.000000 0.000000
vt 0.000000 0.000000
vt 0.000000 0.000000
vt 0.000000 0.000000
vt 0.000000 0.000000
vt 0.000000 0.000000
vt 0.000000 0.000000
vt 0.000000 0.000000
vt 0.000000 0.000000
vt 0.000000 0.000000
vt 0.000000 0.000000
vt 0.000000 0.000000
vt 0.000000 0.000000
vt 0.000000 0.000000
vt 0.000000 0.000000
vt 0.000000 0.000000
vt 0.000000 0.000000
vt 0.000000 0.000000
vt 0.000000 0.000000
vt 0.000000 0.000000
vt 0.000000 0.000000
vt 0.000000 0.000000
vt 0.000000 0.000000
vt 0.000000 0.000000
vt 0.000000 0.000000
vt 0.000000 0.000000
vt 0.000000 0.000000
vt 0.000000 0.000000
vt 0.000000 0.000000
vt 0.000000 0.000000
vt 0.000000 0.000000
vt 0.000000 0.000000
vt 0.000000 0.000000
vt 0.000000 0.000000
vt 0.000000 0.000000
vt 0.000000 0.000000
vt 0.000000 0.000000
vt 0.000000 0.000000
vt 0.000000 0.000000
vt 0.000000 0.000000
vt 0.000000 0.000000
vt 0.000000 0.000000
vt 0.000000 0.000000
vt 0.000000 0.000000
vt 0.000000 0.000000
vt 0.000000 0.000000
vt 0.000000 0.000000
vt 0.000000 0.000000
vt 0.000000 0.000000
vt 0.000000 0.000000
vt 0.000000 0.000000
vt 0.000000 0.000000
vt 0.000000 0.000000
vt 0.000000 0.000000
vt 0.000000 0.000000
vt 0.000000 0.000000
vt 0.000000 0.000000
vt 0.000000 0.000000
vt 0.000000 0.000000
vt 0.000000 0.000000
vt 0.000000 0.000000
vt 0.000000 0.000000
vt 0.000000 0.000000
vt 0.000000 0.000000
vt 0.000000 0.000000
vt 0.000000 0.000000
vt 0.000000 0.000000
vt 0.000000 0.000000
vt 0.000000 0.000000
vt 0.000000 0.000000
vt 0.000000 0.000000
vt 0.000000 0.000000
vt 0.000000 0.000000
vt 0.000000 0.000000
vt 0.000000 0.000000
vt 0.000000 0.000000
vt 0.000000 0.000000
vt 0.000000 0.000000
vt 0.000000 0.000000
vt 0.000000 0.000000
vt 0.000000 0.000000
vt 0.000000 0.000000
vt 0.000000 0.000000
vt 0.000000 0.000000
vt 0.000000 0.000000
vt 0.000000 0.000000
vt 0.000000 0.000000
vt 0.000000 0.000000
vt 0.000000 0.000000
vt 0.000000 0.000000
vt 0.000000 0.000000
vt 0.000000 0.000000
vt 0.000000 0.000000
vt 0.000000 0.000000
vt 0.000000 0.000000
vt 0.000000 0.000000
vt 0.000000 0.000000
vt 0.000000 0.000000
vt 0.000000 0.000000
vt 0.000000 0.000000
vt 0.000000 0.000000
vt 0.000000 0.000000
vt 0.000000 0.000000
vt 0.000000 0.000000
vt 0.000000 0.000000
vt 0.000000 0.000000
vt 0.000000 0.000000
vt 0.000000 0.000000
vt 0.000000 0.000000
vt 0.000000 0.000000
vt 0.000000 0.000000
vt 0.000000 0.000000
vt 0.000000 0.000000
vt 0.000000 0.000000
vt 0.000000 0.000000
vt 0.000000 0.000000
vt 0.000000 0.000000
vt 0.000000 0.000000
vt 0.000000 0.000000
vt 0.000000 0.000000
vt 0.000000 0.000000
vt 0.000000 0.000000
vt 0.000000 0.000000
vt 0.000000 0.000000
vt 0.000000 0.000000
vt 0.000000 0.000000
vt 0.000000 0.000000
vt 0.000000 0.000000
vt 0.000000 0.000000
vt 0.000000 0.000000
vt 0.000000 0.000000
vt 0.000000 0.000000
vt 0.000000 0.000000
vt 0.000000 0.000000
vt 0.000000 0.000000
vt 0.000000 0.000000
vt 0.000000 0.000000
vt 0.000000 0.000000
vt 0.000000 0.000000
vt 0.000000 0.000000
vt 0.000000 0.000000
vt 0.000000 0.000000
vt 0.000000 0.000000
vt 0.000000 0.000000
vt 0.000000 0.000000
vt 0.000000 0.000000
vt 0.000000 0.000000
vt 0.000000 0.000000
vt 0.000000 0.000000
vt 0.000000 0.000000
vt 0.000000 0.000000
vt 0.000000 0.000000
vt 0.000000 0.000000
vt 0.000000 0.000000
vt 0.000000 0.000000
vt 0.000000 0.000000
vt 0.000000 0.000000
vt 0.000000 0.000000
vt 0.000000 0.000000
vt 0.000000 0.000000
vt 0.000000 0.000000
vt 0.000000 0.000000
vt 0.000000 0.000000
vt 0.000000 0.000000
vt 0.000000 0.000000
vt 0.000000 0.000000
vt 0.000000 0.000000
vt 0.000000 0.000000
vt 0.000000 0.000000
vt 0.000000 0.000000
vt 0.000000 0.000000
vt 0.000000 0.000000
vt 0.000000 0.000000
vt 0.000000 0.000000
vt 0.000000 0.000000
vt 0.000000 0.000000
vt 0.000000 0.000000
vt 0.000000 0.000000
vt 0.000000 0.000000
vt 0.000000 0.000000
vt 0.000000 0.000000
vt 0.000000 0.000000
vt 0.000000 0.000000
vt 0.000000 0.000000
vt 0.000000 0.000000
vt 0.000000 0.000000
vt 0.000000 0.000000
vt 0.000000 0.000000
vt 0.000000 0.000000
vt 0.000000 0.000000
vt 0.000000 0.000000
vt 0.000000 0.000000
vt 0.000000 0.000000
vt 0.000000 0.000000
vt 0.000000 0.000000
vt 0.000000 0.000000
vt 0.000000 0.000000
vt 0.000000 0.000000
vt 0.000000 0.000000
vt 0.000000 0.000000
vt 0.000000 0.000000
vt 0.000000 0.000000
vt 0.000000 0.000000
vt 0.000000 0.000000
vt 0.000000 0.000000
vt 0.000000 0.000000
vt 0.000000 0.000000
vt 0.000000 0.000000
vt 0.000000 0.000000
vt 0.000000 0.000000
vt 0.000000 0.000000
vn 0.528513 0.848925 0.000000
vn 0.528513 0.848925 0.000000
vn 0.528513 0.848925 0.000000
vn 0.528513 0.848925 0.000000
vn 0.999191 0.032460 -0.023760
vn 0.999191 0.032460 -0.023760
vn 0.999191 0.032460 -0.023760
vn 0.999191 0.032460 -0.023760
vn 0.512681 -0.858571 0.003810
vn 0.512681 -0.858571 0.003810
vn 0.512681 -0.858571 0.003810
vn 0.512681 -0.858571 0.003810
vn -0.446530 -0.894409 0.025370
vn -0.446530 -0.894409 0.025370
vn -0.446530 -0.894409 0.025370
vn -0.446530 -0.894409 0.025370
vn 0.925046 0.355878 0.132819
vn 0.925046 0.355878 0.132819
vn 0.925046 0.355878 0.132819
vn 0.973384 -0.045190 0.224681
vn 0.973384 -0.045190 0.224681
vn 0.973384 -0.045190 0.224681
vn 0.418471 -0.632691 0.651601
vn 0.418471 -0.632691 0.651601
vn 0.418471 -0.632691 0.651601
vn -0.829937 -0.541288 -0.134950
vn -0.829937 -0.541288 -0.134950
vn -0.829937 -0.541288 -0.134950
vn -0.829937 -0.541288 -0.134950
vn -0.533979 0.845498 0.000000
vn -0.533979 0.845498 0.000000
vn -0.533979 0.845498 0.000000
vn -0.499998 0.866027 -0.000000
vn -0.499998 0.866027 -0.000000
vn -0.499998 0.866027 -0.000000
vn -0.534279 0.845308 0.000190
vn -0.534279 0.845308 0.000190
vn -0.534279 0.845308 0.000190
vn -0.520373 0.853934 -0.002880
vn -0.520373 0.853934 -0.002880
vn -0.520373 0.853934 -0.002880
vn 0.499998 0.866027 0.000000
vn 0.499998 0.866027 0.000000
vn 0.499998 0.866027 0.000000
vn 0.499998 0.866027 0.000000
vn -0.957756 -0.060400 -0.281169
vn -0.957756 -0.060400 -0.281169
vn -0.957756 -0.060400 -0.281169
vn -0.952527 -0.265719 -0.148610
vn -0.952527 -0.265719 -0.148610
vn -0.952527 -0.265719 -0.148610
vn -0.857472 0.435041 -0.274740
vn -0.857472 0.435041 -0.274740
vn -0.857472 0.435041 -0.274740
vn -0.683374 0.029680 -0.729465
vn -0.683374 0.029680 -0.729465
vn -0.683374 0.029680 -0.729465
vn 0.970332 -0.045050 0.237541
vn 0.970332 -0.045050 0.237541
vn 0.970332 -0.045050 0.237541
vn -0.000000 0.000000 1.000000
vn -0.000000 0.000000 1.000000
vn -0.000000 0.000000 1.000000
vn -0.225491 0.660342 0.716312
vn -0.225491 0.660342 0.716312
vn -0.225491 0.660342 0.716312
vn -0.229429 0.666718 0.709118
vn -0.229429 0.666718 0.709118
vn -0.229429 0.666718 0.709118
vn 0.046110 0.728971 0.682990
vn 0.046110 0.728971 0.682990
vn 0.046110 0.728971 0.682990
vn -0.240490 0.657689 0.713869
vn -0.240490 0.657689 0.713869
vn -0.240490 0.657689 0.713869
vn 0.487258 -0.873176 -0.012000
vn 0.487258 -0.873176 -0.012000
vn 0.487258 -0.873176 -0.012000
vn 0.487258 -0.873176 -0.012000
vn -0.499998 0.866027 0.000000
vn -0.499998 0.866027 0.000000
vn -0.360130 -0.932580 -0.024520
vn -0.360130 -0.932580 -0.024520
vn -0.360130 -0.932580 -0.024520
vn -0.360130 -0.932580 -0.024520
vn 0.988428 -0.079770 -0.129020
vn 0.988428 -0.079770 -0.129020
vn 0.988428 -0.079770 -0.129020
vn 0.350620 -0.925171 -0.145340
vn 0.350620 -0.925171 -0.145340
vn 0.350620 -0.925171 -0.145340
vn 0.950793 -0.283151 -0.125770
vn 0.950793 -0.283151 -0.125770
vn 0.950793 -0.283151 -0.125770
vn 0.331950 -0.891029 -0.309640
vn 0.331950 -0.891029 -0.309640
vn 0.331950 -0.891029 -0.309640
vn -0.988720 0.132870 0.069130
vn -0.988720 0.132870 0.069130
vn -0.988720 0.132870 0.069130
vn -0.978184 0.175961 0.110430
vn -0.978184 0.175961 0.110430
vn -0.978184 0.175961 0.110430
vn -0.969009 -0.156960 0.190750
vn -0.969009 -0.156960 0.190750
vn -0.969009 -0.156960 0.190750
vn 0.315992 -0.871144 -0.375842
vn 0.315992 -0.871144 -0.375842
vn 0.315992 -0.871144 -0.375842
vn -0.427051 -0.891542 -0.150930
vn -0.427051 -0.891542 -0.150930
vn -0.427051 -0.891542 -0.150930
vn -0.416690 -0.896509 -0.150470
vn -0.416690 -0.896509 -0.150470
vn -0.416690 -0.896509 -0.150470
vn -0.429188 -0.890856 -0.148909
vn -0.429188 -0.890856 -0.148909
vn -0.429188 -0.890856 -0.148909
vn -0.984655 0.174509 -0.000580
vn -0.984655 0.174509 -0.000580
vn -0.984655 0.174509 -0.000580
vn -0.984655 0.174509 -0.000580
vn 0.999055 -0.037200 -0.022460
vn 0.999055 -0.037200 -0.022460
vn 0.999055 -0.037200 -0.022460
vn 0.999055 -0.037200 -0.022460
vn 0.515632 -0.822212 -0.241021
vn 0.515632 -0.822212 -0.241021
vn 0.515632 -0.822212 -0.241021
vn 0.515632 -0.822212 -0.241021
vn -0.562869 -0.783238 -0.264039
vn -0.562869 -0.783238 -0.264039
vn -0.562869 -0.783238 -0.264039
vn -0.562869 -0.783238 -0.264039
vn 0.991053 -0.086740 -0.101440
vn 0.991053 -0.086740 -0.101440
vn 0.991053 -0.086740 -0.101440
vn 0.991053 -0.086740 -0.101440
vn -0.914949 0.248780 -0.317770
vn -0.914949 0.248780 -0.317770
vn -0.914949 0.248780 -0.317770
vn -0.914949 0.248780 -0.317770
vn 0.564097 0.800506 -0.202449
vn 0.564097 0.800506 -0.202449
vn 0.564097 0.800506 -0.202449
vn 0.564097 0.800506 -0.202449
vn -0.255490 0.966410 -0.027870
vn -0.255490 0.966410 -0.027870
vn -0.255490 0.966410 -0.027870
vn -0.255490 0.966410 -0.027870
vn -0.749492 -0.532991 -0.392661
vn -0.749492 -0.532991 -0.392661
vn -0.749492 -0.532991 -0.392661
vn -0.749492 -0.532991 -0.392661
vn -0.806592 -0.396811 -0.438121
vn -0.806592 -0.396811 -0.438121
vn -0.806592 -0.396811 -0.438121
vn -0.806592 -0.396811 -0.438121
vn 0.146771 -0.983884 -0.102130
vn 0.146771 -0.983884 -0.102130
vn 0.146771 -0.983884 -0.102130
vn 0.146771 -0.983884 -0.102130
vn 0.736661 -0.676201 -0.009050
vn 0.736661 -0.676201 -0.009050
vn 0.736661 -0.676201 -0.009050
vn 0.736661 -0.676201 -0.009050
vn 0.998138 -0.055300 -0.025730
vn 0.998138 -0.055300 -0.025730
vn 0.998138 -0.055300 -0.025730
vn 0.998138 -0.055300 -0.025730
vn 0.492491 0.870072 -0.020690
vn 0.492491 0.870072 -0.020690
vn 0.492491 0.870072 -0.020690
vn 0.492491 0.870072 -0.020690
vn -0.541032 -0.840833 -0.016900
vn -0.541032 -0.840833 -0.016900
vn -0.541032 -0.840833 -0.016900
vn -0.541032 -0.840833 -0.016900
vn -0.994515 0.104190 -0.009210
vn -0.994515 0.104190 -0.009210
vn -0.994515 0.104190 -0.009210
vn -0.994515 0.104190 -0.009210
vn -0.067900 0.942154 -0.328231
vn -0.067900 0.942154 -0.328231
vn -0.067900 0.942154 -0.328231
vn -0.883393 0.436242 -0.171201
vn -0.883393 0.436242 -0.171201
vn -0.883393 0.436242 -0.171201
vn 0.051920 0.540810 -0.839541
vn 0.051920 0.540810 -0.839541
vn 0.051920 0.540810 -0.839541
vn -0.286140 0.424690 -0.858931
vn -0.286140 0.424690 -0.858931
vn -0.286140 0.424690 -0.858931
vn 0.990474 0.016880 -0.136661
vn 0.990474 0.016880 -0.136661
vn 0.990474 0.016880 -0.136661
vn 0.990474 0.016880 -0.136661
vn 0.517270 -0.821110 -0.241270
vn 0.517270 -0.821110 -0.241270
vn 0.517270 -0.821110 -0.241270
vn 0.517270 -0.821110 -0.241270
vn -0.763899 -0.639399 -0.087330
vn -0.763899 -0.639399 -0.087330
vn -0.763899 -0.639399 -0.087330
vn -0.763899 -0.639399 -0.087330
vn -0.973550 0.223400 -0.047890
vn -0.973550 0.223400 -0.047890
vn -0.973550 0.223400 -0.047890
vn -0.973550 0.223400 -0.047890
vn -0.813456 -0.555857 -0.171209
vn -0.813456 -0.555857 -0.171209
vn -0.813456 -0.555857 -0.171209
vn -0.813456 -0.555857 -0.171209
vn 0.740614 -0.671913 -0.004870
vn 0.740614 -0.671913 -0.004870
vn 0.740614 -0.671913 -0.004870
vn 0.434262 -0.899883 0.040340
vn 0.434262 -0.899883 0.040340
vn 0.434262 -0.899883 0.040340
vn -0.997528 -0.067780 0.018530
vn -0.997528 -0.067780 0.018530
vn -0.997528 -0.067780 0.018530
vn -0.997528 -0.067780 0.018530
f 17/17/17 18/18/18 19/19/19
f 20/20/20 21/21/21 22/22/22
f 23/23/23 24/24/24 25/25/25
f 30/30/30 31/31/31 32/32/32
f 33/33/33 34/34/34 35/35/35
f 36/36/36 37/37/37 38/38/38
f 39/39/39 40/40/40 41/41/41
f 46/46/46 47/47/47 48/48/48
f 49/49/49 50/50/50 51/51/51
f 52/52/52 53/53/53 54/54/54
f 55/55/55 56/56/56 57/57/57
f 58/58/58 59/59/59 60/60/60
f 61/61/61 62/62/62 63/63/63
f 64/64/64 65/65/65 66/66/66
f 67/67/67 68/68/68 69/69/69
f 70/70/70 71/71/71 72/72/72
f 73/73/73 74/74/74 75/75/75
f 86/86/86 87/87/87 88/88/88
f 89/89/89 90/90/90 91/91/91
f 92/92/92 93/93/93 94/94/94
f 95/95/95 96/96/96 97/97/97
f 98/98/98 99/99/99 100/100/100
f 101/101/101 102/102/102 103/103/103
f 104/104/104 105/105/105 106/106/106
f 107/107/107 108/108/108 109/109/109
f 110/110/110 111/111/111 112/112/112
f 113/113/113 114/114/114 115/115/115
f 116/116/116 117/117/117 118/118/118
f 183/183/183 184/184/184 185/185/185
f 186/186/186 187/187/187 188/188/188
f 189/189/189 190/190/190 191/191/191
f 192/192/192 193/193/193 194/194/194
f 215/215/215 216/216/216 217/217/217
f 218/218/218 219/219/219 220/220/220
f 1/1/1 2/2/2 3/3/3
f 1/1/1 3/3/3 4/4/4
f 5/5/5 6/6/6 7/7/7
f 5/5/5 7/7/7 8/8/8
f 9/9/9 10/10/10 11/11/11
f 9/9/9 11/11/11 12/12/12
f 13/13/13 14/14/14 15/15/15
f 13/13/13 15/15/15 16/16/16
f 26/26/26 27/27/27 28/28/28
f 26/26/26 28/28/28 29/29/29
f 42/42/42 43/43/43 44/44/44
f 42/42/42 44/44/44 45/45/45
f 76/76/76 77/77/77 78/78/78
f 76/76/76 78/78/78 79/79/79
f 80/80/80 35/35/35 34/34/34
f 80/80/80 34/34/34 81/81/81
f 82/82/82 83/83/83 84/84/84
f 82/82/82 84/84/84 85/85/85
f 119/119/119 120/120/120 121/121/121
f 119/119/119 121/121/121 122/122/122
f 123/123/123 124/124/124 125/125/125
f 123/123/123 125/125/125 126/126/126
f 127/127/127 128/128/128 129/129/129
f 127/127/127 129/129/129 130/130/130
f 131/131/131 132/132/132 133/133/133
f 131/131/131 133/133/133 134/134/134
f 135/135/135 136/136/136 137/137/137
f 135/135/135 137/137/137 138/138/138
f 139/139/139 140/140/140 141/141/141
f 139/139/139 141/141/141 142/142/142
f 143/143/143 144/144/144 145/145/145
f 143/143/143 145/145/145 146/146/146
f 147/147/147 148/148/148 149/149/149
f 147/147/147 149/149/149 150/150/150
f 151/151/151 152/152/152 153/153/153
f 151/151/151 153/153/153 154/154/154
f 155/155/155 156/156/156 157/157/157
f 155/155/155 157/157/157 158/158/158
f 159/159/159 160/160/160 161/161/161
f 159/159/159 161/161/161 162/162/162
f 163/163/163 164/164/164 165/165/165
f 163/163/163 165/165/165 166/166/166
f 167/167/167 168/168/168 169/169/169
f 167/167/167 169/169/169 170/170/170
f 171/171/171 172/172/172 173/173/173
f 171/171/171 173/173/173 174/174/174
f 175/175/175 176/176/176 177/177/177
f 175/175/175 177/177/177 178/178/178
f 179/179/179 180/180/180 181/181/181
f 179/179/179 181/181/181 182/182/182
f 195/195/195 196/196/196 197/197/197
f 195/195/195 197/197/197 198/198/198
f 199/199/199 200/200/200 201/201/201
f 199/199/199 201/201/201 202/202/202
f 203/203/203 204/204/204 205/205/205
f 203/203/203 205/205/205 206/206/206
f 207/207/207 208/208/208 209/209/209
f 207/207/207 209/209/209 210/210/210
f 211/211/211 212/212/212 213/213/213
f 211/211/211 213/213/213 214/214/214
f 221/221/221 222/222/222 223/223/223
f 221/221/221 223/223/223 224/224/224
