v 0.061260 -0.464160 11.222340
v 0.080900 -0.498650 10.887070
v 0.152330 -0.381420 10.945370
v 0.128130 -0.407980 11.109600
v 0.108970 -0.429020 11.239680
v 0.061260 -0.464160 11.222340
v 0.152330 -0.381420 10.945370
v 0.151840 -0.445400 11.012230
v 0.152330 -0.381420 10.945370
v 0.080900 -0.498650 10.887070
v 0.151840 -0.445400 11.012230
v 0.080900 -0.498650 10.887070
v 0.096270 -0.618620 10.925500
v 0.108970 -0.429020 11.239680
v 0.151840 -0.445400 11.012230
v 0.096270 -0.618620 10.925500
v 0.061260 -0.464160 11.222340
v -0.025010 -0.406620 10.937650
v 0.080900 -0.498650 10.887070
v 0.061260 -0.464160 11.222340
v 0.061260 -0.464160 11.222340
v 0.004660 -0.443840 11.235140
v -0.008450 -0.427390 11.103660
v 0.061260 -0.464160 11.222340
v -0.008450 -0.427390 11.103660
v -0.025010 -0.406620 10.937650
v -0.012440 -0.468740 11.005080
v 0.080900 -0.498650 10.887070
v -0.025010 -0.406620 10.937650
v -0.012440 -0.468740 11.005080
v 0.096270 -0.618620 10.925500
v 0.080900 -0.498650 10.887070
v 0.004660 -0.443840 11.235140
v 0.061260 -0.464160 11.222340
v 0.096270 -0.618620 10.925500
v -0.012440 -0.468740 11.005080
vt 0.000000 0.000000
vt 0.000000 0.000000
vt 0.000000 0.000000
vt 0.000000 0.000000
vt 0.000000 0.000000
vt 0.000000 0.000000
vt 0.000000 0.000000
vt 0.000000 0.000000
vt 0.000000 0.000000
vt 0.000000 0.000000
vt 0.000000 0.000000
vt 0.000000 0.000000
vt 0.000000 0.000000
vt 0.000000 0.000000
vt 0.000000 0.000000
vt 0.000000 0.000000
vt 0.000000 0.000000
vt 0.000000 0.000000
vt 0.000000 0.000000
vt 0.000000 0.000000
vt 0.000000 0.000000
vt 0.000000 0.000000
vt 0.000000 0.000000
vt 0.000000 0.000000
vt 0.000000 0.000000
vt 0.000000 0.000000
vt 0.000000 0.000000
vt 0.000000 0.000000
vt 0.000000 0.000000
vt 0.000000 0.000000
vt 0.000000 0.000000
vt 0.000000 0.000000
vt 0.000000 0.000000
vt 0.000000 0.000000
vt 0.000000 0.000000
vt 0.000000 0.000000
vn 0.825028 -0.555168 0.105440
vn 0.825028 -0.555168 0.105440
vn 0.825028 -0.555168 0.105440
vn 0.602029 -0.797459 -0.040260
vn 0.602029 -0.797459 -0.040260
vn 0.602029 -0.797459 -0.040260
vn 0.602029 -0.797459 -0.040260
vn -0.868844 0.360882 0.338932
vn -0.868844 0.360882 0.338932
vn -0.868844 0.360882 0.338932
vn -0.876639 0.041210 0.479380
vn -0.876639 0.041210 0.479380
vn -0.876639 0.041210 0.479380
vn -0.790470 0.538020 -0.292730
vn -0.790470 0.538020 -0.292730
vn -0.790470 0.538020 -0.292730
vn -0.790470 0.538020 -0.292730
vn -0.644230 -0.763740 0.040840
vn -0.644230 -0.763740 0.040840
vn -0.644230 -0.763740 0.040840
vn -0.353112 -0.932034 -0.081390
vn -0.353112 -0.932034 -0.081390
vn -0.353112 -0.932034 -0.081390
vn -0.353129 -0.932028 -0.081380
vn -0.353129 -0.932028 -0.081380
vn -0.353129 -0.932028 -0.081380
vn 0.702127 0.584088 0.407258
vn 0.702127 0.584088 0.407258
vn 0.702127 0.584088 0.407258
vn 0.786510 0.277500 0.551720
vn 0.786510 0.277500 0.551720
vn 0.786510 0.277500 0.551720
vn 0.632684 0.739404 -0.230201
vn 0.632684 0.739404 -0.230201
vn 0.632684 0.739404 -0.230201
vn 0.632684 0.739404 -0.230201
f 1/1/1 2/2/2 3/3/3
f 4/4/4 5/5/5 6/6/6
f 7/7/7 4/4/4 6/6/6
f 8/8/8 9/9/9 10/10/10
f 11/11/11 12/12/12 13/13/13
f 18/18/18 19/19/19 20/20/20
f 21/21/21 22/22/22 23/23/23
f 24/24/24 25/25/25 26/26/26
f 27/27/27 28/28/28 29/29/29
f 30/30/30 31/31/31 32/32/32
f 14/14/14 15/15/15 16/16/16
f 14/14/14 16/16/16 17/17/17
f 33/33/33 34/34/34 35/35/35
f 33/33/33 35/35/35 36/36/36
