v 0.142480 1.193270 -1.181890
v 0.214080 1.003830 0.155990
v 0.786850 0.749950 1.072660
v 0.886690 0.895500 -0.450090
v 0.886690 0.895500 -0.450090
v 0.786850 0.749950 1.072660
v 1.055740 0.099950 1.966230
v 1.320800 0.203870 0.448330
v 1.320800 0.203870 0.448330
v 1.055740 0.099950 1.966230
v 0.754000 -0.610400 1.798080
v 1.016790 -0.688820 0.355790
v 1.016790 -0.688820 0.355790
v 0.754000 -0.610400 1.798080
v -0.011390 -0.779300 1.198380
v -0.012760 -0.902800 0.620220
v -0.012760 -0.902800 0.620220
v -0.011390 -0.779300 1.198380
v -0.521070 -0.562400 1.793810
v -0.682160 -0.713270 0.331270
v -0.682160 -0.713270 0.331270
v -0.521070 -0.562400 1.793810
v -0.626430 0.070230 1.659370
v -0.912870 0.078740 0.006420
v -0.912870 0.078740 0.006420
v -0.626430 0.070230 1.659370
v -0.397410 0.748600 0.861100
v -1.388510 0.831990 -0.800780
v 0.214080 1.003830 0.155990
v 0.142480 1.193270 -1.181890
v -1.388510 0.831990 -0.800780
v -0.397410 0.748600 0.861100
v -1.493810 -0.004660 -0.617350
v -1.052410 1.260300 -1.243510
v -0.867310 0.947610 -2.237520
v -1.668120 -0.241960 -2.076380
v -0.055120 -1.600510 -1.192650
v -0.117650 -1.575800 -0.484880
v -1.161600 -1.257550 -0.540500
v -1.161600 -1.257550 -0.540500
v -1.360160 -1.372600 -2.004270
v -0.688300 -1.491320 -1.674730
v -0.688050 -1.491650 -1.677270
v -0.252930 -1.568730 -1.465570
v -0.252930 -1.568730 -1.465570
v -0.055120 -1.600510 -1.192650
v -1.161600 -1.257550 -0.540500
v 1.506980 0.160570 0.488170
v 1.040520 -1.215570 0.347480
v 1.022310 -1.289440 -0.811180
v 1.417050 -0.010210 -0.675130
v 0.113060 1.702050 -2.658590
v 1.223530 1.230170 -1.545710
v 1.177360 0.933680 -2.507330
v 0.184980 1.346470 -3.515180
v -1.052410 1.260300 -1.243510
v 0.113060 1.702050 -2.658590
v 0.184980 1.346470 -3.515180
v -0.867310 0.947610 -2.237520
v -1.161600 -1.257550 -0.540500
v -1.493810 -0.004660 -0.617350
v -1.668120 -0.241960 -2.076380
v -1.360160 -1.372600 -2.004270
v 1.022310 -1.289440 -0.811180
v 1.040520 -1.215570 0.347480
v -0.117650 -1.575800 -0.484880
v -0.117650 -1.575800 -0.484880
v -0.055120 -1.600510 -1.192650
v 0.615900 -1.415230 -1.099340
v 1.022310 -1.289440 -0.811180
v 1.223530 1.230170 -1.545710
v 1.506980 0.160570 0.488170
v 1.417050 -0.010210 -0.675130
v 1.177360 0.933680 -2.507330
v -0.822710 0.944400 -2.099500
v 0.129940 1.305490 -3.256190
v 0.433030 1.031530 -17.153139
v -0.294510 0.609520 -18.338181
v -1.698600 -1.377730 -4.253700
v -1.298250 -1.170150 -2.076830
v -1.635720 -0.150910 -2.162090
v -1.635720 -0.150910 -2.162090
v -2.096410 -0.344940 -8.555500
v -2.208470 -1.642090 -7.026060
v -2.208470 -1.642090 -7.026060
v 2.392160 0.257880 -5.723100
v 1.040450 0.927800 -2.341920
v 1.384510 -0.133690 -0.654560
v 1.384510 -0.133690 -0.654560
v 2.259510 -0.345540 -3.594730
v 2.640850 -0.591350 -6.674170
v 1.384510 -0.133690 -0.654560
v 2.640850 -0.591350 -6.674170
v 2.392160 0.257880 -5.723100
v -2.096410 -0.344940 -8.555500
v -1.635720 -0.150910 -2.162090
v -0.822710 0.944400 -2.099500
v -0.822710 0.944400 -2.099500
v -0.294510 0.609520 -18.338181
v -0.543250 0.746410 -16.715851
v -0.822710 0.944400 -2.099500
v -0.543250 0.746410 -16.715851
v -2.096410 -0.344940 -8.555500
v 0.129940 1.305490 -3.256190
v 1.040450 0.927800 -2.341920
v 2.392160 0.257880 -5.723100
v 0.433030 1.031530 -17.153139
v -2.096410 -0.344940 -8.555500
v -0.543250 0.746410 -16.715851
v -0.294510 0.609520 -18.338181
v -2.526460 -0.526080 -14.523690
v -0.619010 -1.505920 -1.753840
v -0.679590 -1.494520 -1.747090
v -0.676420 -1.495590 -1.773240
v -3.197170 -1.742750 -8.952390
v -3.110260 -1.733900 -8.783060
v -2.208470 -1.642090 -7.026060
v -2.096410 -0.344940 -8.555500
v -0.676420 -1.495590 -1.773240
v -0.679590 -1.494520 -1.747090
v -0.798420 -1.472160 -1.733860
v -0.789130 -1.475320 -1.811320
v -0.798420 -1.472160 -1.733860
v -0.679590 -1.494520 -1.747090
v -0.688050 -1.491650 -1.677270
v -1.360160 -1.372600 -2.004270
v -0.688050 -1.491650 -1.677270
v -1.360160 -1.372600 -2.004270
v -0.798420 -1.472160 -1.733860
v -2.096410 -0.344940 -8.555500
v -2.526460 -0.526080 -14.523690
v -3.824180 -1.666310 -9.538850
v -2.096410 -0.344940 -8.555500
v -3.824180 -1.666310 -9.538850
v -3.577320 -1.696410 -9.307960
v -3.405000 -1.717410 -9.146780
v -3.197170 -1.742750 -8.952390
v -3.824180 -1.666310 -9.538850
v -3.095770 -2.164800 -10.352470
v -3.129730 -2.023480 -9.883660
v -3.362560 -1.858030 -9.601310
v -3.577320 -1.696410 -9.307960
v -3.197170 -1.742750 -8.952390
v -3.176110 -1.921630 -9.538970
v -3.046940 -1.896570 -9.281520
v -2.208470 -1.642090 -7.026060
v -3.110260 -1.733900 -8.783060
v -3.013050 -1.805560 -8.893540
v -3.013050 -1.805560 -8.893540
v -2.899230 -2.058670 -9.566200
v -2.708510 -2.007250 -9.167010
v -2.708510 -2.007250 -9.167010
v -2.213020 -2.308870 -9.484950
v -2.208470 -1.642090 -7.026060
v -3.013050 -1.805560 -8.893540
v -2.708510 -2.007250 -9.167010
v -2.208470 -1.642090 -7.026060
v -2.899230 -2.058670 -9.566200
v -3.129730 -2.023480 -9.883660
v -3.057900 -2.113920 -10.103580
v -2.956880 -2.087090 -9.842730
v -2.951380 -2.182230 -10.186110
v -2.861450 -2.222610 -10.191730
v -2.899230 -2.058670 -9.566200
v -3.057900 -2.113920 -10.103580
v -2.956880 -2.087090 -9.842730
v -2.899230 -2.058670 -9.566200
v -2.956880 -2.087090 -9.842730
v -2.861450 -2.222610 -10.191730
v -3.405000 -1.717410 -9.146780
v -3.176110 -1.921630 -9.538970
v -3.197170 -1.742750 -8.952390
v -2.398390 -2.560620 -10.702430
v -2.861450 -2.222610 -10.191730
v -2.951380 -2.182230 -10.186110
v -3.057900 -2.113920 -10.103580
v -3.129730 -2.023480 -9.883660
v -3.095770 -2.164800 -10.352470
v -2.216010 -2.747350 -11.101980
vt 0.000000 0.000000
vt 0.000000 0.000000
vt 0.000000 0.000000
vt 0.000000 0.000000
vt 0.000000 0.000000
vt 0.000000 0.000000
vt 0.000000 0.000000
vt 0.000000 0.000000
vt 0.000000 0.000000
vt 0.000000 0.000000
vt 0.000000 0.000000
vt 0.000000 0.000000
vt 0.000000 0.000000
vt 0.000000 0.000000
vt 0.000000 0.000000
vt 0.000000 0.000000
vt 0.000000 0.000000
vt 0.000000 0.000000
vt 0.000000 0.000000
vt 0.000000 0.000000
vt 0.000000 0.000000
vt 0.000000 0.000000
vt 0.000000 0.000000
vt 0.000000 0.000000
vt 0.000000 0.000000
vt 0.000000 0.000000
vt 0.000000 0.000000
vt 0.000000 0.000000
vt 0.000000 0.000000
vt 0.000000 0.000000
vt 0.000000 0.000000
vt 0.000000 0.000000
vt 0.000000 0.000000
vt 0.000000 0.000000
vt 0.000000 0.000000
vt 0.000000 0.000000
vt 0.000000 0.000000
vt 0.000000 0.000000
vt 0.000000 0.000000
vt 0.000000 0.000000
vt 0.000000 0.000000
vt 0.000000 0.000000
vt 0.000000 0.000000
vt 0.000000 0.000000
vt 0.000000 0.000000
vt 0.000000 0.000000
vt 0.000000 0.000000
vt 0.000000 0.000000
vt 0.000000 0.000000
vt 0.000000 0.000000
vt 0.000000 0.000000
vt 0.000000 0.000000
vt 0.000000 0.000000
vt 0.000000 0.000000
vt 0.000000 0.000000
vt 0.000000 0.000000
vt 0.000000 0.000000
vt 0.000000 0.000000
vt 0.000000 0.000000
vt 0.000000 0.000000
vt 0.000000 0.000000
vt 0.000000 0.000000
vt 0.000000 0.000000
vt 0.000000 0.000000
vt 0.000000 0.000000
vt 0.000000 0.000000
vt 0.000000 0.000000
vt 0.000000 0.000000
vt 0.000000 0.000000
vt 0.000000 0.000000
vt 0.000000 0.000000
vt 0.000000 0.000000
vt 0.000000 0.000000
vt 0.000000 0.000000
vt 0.000000 0.000000
vt 0.000000 0.000000
vt 0.000000 0.000000
vt 0.000000 0.000000
vt 0.000000 0.000000
vt 0.000000 0.000000
vt 0.000000 0.000000
vt 0.000000 0.000000
vt 0.000000 0.000000
vt 0.000000 0.000000
vt 0.000000 0.000000
vt 0.000000 0.000000
vt 0.000000 0.000000
vt 0.000000 0.000000
vt 0.000000 0.000000
vt 0.000000 0.000000
vt 0.000000 0.000000
vt 0.000000 0.000000
vt 0.000000 0.000000
vt 0.000000 0.000000
vt 0.000000 0.000000
vt 0.000000 0.000000
vt 0.000000 0.000000
vt 0.000000 0.000000
vt 0.000000 0.000000
vt 0.000000 0.000000
vt 0.000000 0.000000
vt 0.000000 0.000000
vt 0.000000 0.000000
vt 0.000000 0.000000
vt 0.000000 0.000000
vt 0.000000 0.000000
vt 0.000000 0.000000
vt 0.000000 0.000000
vt 0.000000 0.000000
vt 0.000000 0.000000
vt 0.000000 0.000000
vt 0.000000 0.000000
vt 0.000000 0.000000
vt 0.000000 0.000000
vt 0.000000 0.000000
vt 0.000000 0.000000
vt 0.000000 0.000000
vt 0.000000 0.000000
vt 0.000000 0.000000
vt 0.000000 0.000000
vt 0.000000 0.000000
vt 0.000000 0.000000
vt 0.000000 0.000000
vt 0.000000 0.000000
vt 0.000000 0.000000
vt 0.000000 0.000000
vt 0.000000 0.000000
vt 0.000000 0.000000
vt 0.000000 0.000000
vt 0.000000 0.000000
vt 0.000000 0.000000
vt 0.000000 0.000000
vt 0.000000 0.000000
vt 0.000000 0.000000
vt 0.000000 0.000000
vt 0.000000 0.000000
vt 0.000000 0.000000
vt 0.000000 0.000000
vt 0.000000 0.000000
vt 0.000000 0.000000
vt 0.000000 0.000000
vt 0.000000 0.000000
vt 0.000000 0.000000
vt 0.000000 0.000000
vt 0.000000 0.000000
vt 0.000000 0.000000
vt 0.000000 0.000000
vt 0.000000 0.000000
vt 0.000000 0.000000
vt 0.000000 0.000000
vt 0.000000 0.000000
vt 0.000000 0.000000
vt 0.000000 0.000000
vt 0.000000 0.000000
vt 0.000000 0.000000
vt 0.000000 0.000000
vt 0.000000 0.000000
vt 0.000000 0.000000
vt 0.000000 0.000000
vt 0.000000 0.000000
vt 0.000000 0.000000
vt 0.000000 0.000000
vt 0.000000 0.000000
vt 0.000000 0.000000
vt 0.000000 0.000000
vt 0.000000 0.000000
vt 0.000000 0.000000
vt 0.000000 0.000000
vt 0.000000 0.000000
vt 0.000000 0.000000
vt 0.000000 0.000000
vt 0.000000 0.000000
vt 0.000000 0.000000
vt 0.000000 0.000000
vt 0.000000 0.000000
vt 0.000000 0.000000
vt 0.000000 0.000000
vt 0.000000 0.000000
vt 0.000000 0.000000
vn 0.258021 0.959285 0.114881
vn 0.258021 0.959285 0.114881
vn 0.258021 0.959285 0.114881
vn 0.258021 0.959285 0.114881
vn 0.784688 0.603019 0.143640
vn 0.784688 0.603019 0.143640
vn 0.784688 0.603019 0.143640
vn 0.784688 0.603019 0.143640
vn 0.914531 -0.371580 0.159880
vn 0.914531 -0.371580 0.159880
vn 0.914531 -0.371580 0.159880
vn 0.914531 -0.371580 0.159880
vn 0.185331 -0.975145 0.121431
vn 0.185331 -0.975145 0.121431
vn 0.185331 -0.975145 0.121431
vn 0.185331 -0.975145 0.121431
vn -0.287110 -0.946071 0.150060
vn -0.287110 -0.946071 0.150060
vn -0.287110 -0.946071 0.150060
vn -0.287110 -0.946071 0.150060
vn -0.972173 -0.181631 0.147951
vn -0.972173 -0.181631 0.147951
vn -0.972173 -0.181631 0.147951
vn -0.972173 -0.181631 0.147951
vn -0.903030 0.242260 0.354750
vn -0.903030 0.242260 0.354750
vn -0.903030 0.242260 0.354750
vn -0.903030 0.242260 0.354750
vn -0.198151 0.967324 0.158181
vn -0.198151 0.967324 0.158181
vn -0.198151 0.967324 0.158181
vn -0.198151 0.967324 0.158181
vn -0.900292 0.423881 -0.098990
vn -0.900292 0.423881 -0.098990
vn -0.900292 0.423881 -0.098990
vn -0.900292 0.423881 -0.098990
vn -0.291969 -0.956398 0.007590
vn -0.291969 -0.956398 0.007590
vn -0.291969 -0.956398 0.007590
vn -0.223420 -0.968891 0.106460
vn -0.223420 -0.968891 0.106460
vn -0.223420 -0.968891 0.106460
vn -0.223420 -0.968891 0.106460
vn -0.223420 -0.968891 0.106460
vn -0.255709 -0.963987 0.073090
vn -0.255709 -0.963987 0.073090
vn -0.255709 -0.963987 0.073090
vn 0.951519 -0.307360 -0.011930
vn 0.951519 -0.307360 -0.011930
vn 0.951519 -0.307360 -0.011930
vn 0.951519 -0.307360 -0.011930
vn 0.588862 0.763402 -0.265441
vn 0.588862 0.763402 -0.265441
vn 0.588862 0.763402 -0.265441
vn 0.588862 0.763402 -0.265441
vn -0.660759 0.671979 -0.334429
vn -0.660759 0.671979 -0.334429
vn -0.660759 0.671979 -0.334429
vn -0.660759 0.671979 -0.334429
vn -0.956901 -0.247510 0.151920
vn -0.956901 -0.247510 0.151920
vn -0.956901 -0.247510 0.151920
vn -0.956901 -0.247510 0.151920
vn 0.258660 -0.964261 0.057410
vn 0.258660 -0.964261 0.057410
vn 0.258660 -0.964261 0.057410
vn 0.258429 -0.964377 0.056500
vn 0.258429 -0.964377 0.056500
vn 0.258429 -0.964377 0.056500
vn 0.258429 -0.964377 0.056500
vn 0.991841 0.095440 -0.084510
vn 0.991841 0.095440 -0.084510
vn 0.991841 0.095440 -0.084510
vn 0.991841 0.095440 -0.084510
vn -0.421842 0.906175 -0.029940
vn -0.421842 0.906175 -0.029940
vn -0.421842 0.906175 -0.029940
vn -0.421842 0.906175 -0.029940
vn -0.935025 -0.292869 0.199889
vn -0.935025 -0.292869 0.199889
vn -0.935025 -0.292869 0.199889
vn -0.984440 0.162860 0.065990
vn -0.984440 0.162860 0.065990
vn -0.984440 0.162860 0.065990
vn -0.935025 -0.292869 0.199889
vn 0.791142 0.577351 0.201891
vn 0.791142 0.577351 0.201891
vn 0.791142 0.577351 0.201891
vn -0.044500 0.995389 -0.084970
vn -0.044500 0.995389 -0.084970
vn -0.044500 0.995389 -0.084970
vn 0.977902 0.063180 0.199290
vn 0.977902 0.063180 0.199290
vn 0.977902 0.063180 0.199290
vn -0.803419 0.594079 0.039860
vn -0.803419 0.594079 0.039860
vn -0.803419 0.594079 0.039860
vn 0.466791 0.884362 -0.003050
vn 0.466791 0.884362 -0.003050
vn 0.466791 0.884362 -0.003050
vn -0.651978 0.757897 -0.022730
vn -0.651978 0.757897 -0.022730
vn -0.651978 0.757897 -0.022730
vn 0.410778 0.911675 -0.010460
vn 0.410778 0.911675 -0.010460
vn 0.410778 0.911675 -0.010460
vn 0.410778 0.911675 -0.010460
vn -0.556631 0.830482 -0.021500
vn -0.556631 0.830482 -0.021500
vn -0.556631 0.830482 -0.021500
vn -0.556631 0.830482 -0.021500
vn -0.182951 -0.982955 0.018140
vn -0.182951 -0.982955 0.018140
vn -0.182951 -0.982955 0.018140
vn -0.777557 0.506518 0.372619
vn -0.777557 0.506518 0.372619
vn -0.777557 0.506518 0.372619
vn -0.777557 0.506518 0.372619
vn -0.182951 -0.982955 0.018150
vn -0.182951 -0.982955 0.018150
vn -0.182951 -0.982955 0.018150
vn -0.182951 -0.982955 0.018150
vn -0.182951 -0.982954 0.018160
vn -0.182951 -0.982954 0.018160
vn -0.182951 -0.982954 0.018160
vn -0.182951 -0.982955 0.018150
vn -0.183029 -0.982937 0.018310
vn -0.183029 -0.982937 0.018310
vn -0.183029 -0.982937 0.018310
vn -0.614649 0.788538 0.020360
vn -0.614649 0.788538 0.020360
vn -0.614649 0.788538 0.020360
vn -0.633139 0.295460 0.715429
vn -0.633139 0.295460 0.715429
vn -0.633139 0.295460 0.715429
vn -0.633139 0.295460 0.715429
vn -0.633139 0.295460 0.715429
vn -0.342699 -0.906038 0.248299
vn -0.342699 -0.906038 0.248299
vn -0.342699 -0.906038 0.248299
vn -0.342699 -0.906038 0.248299
vn -0.342699 -0.906038 0.248299
vn -0.347641 -0.900261 0.262060
vn -0.347641 -0.900261 0.262060
vn -0.347641 -0.900261 0.262060
vn -0.381780 -0.891860 0.242550
vn -0.381780 -0.891860 0.242550
vn -0.381780 -0.891860 0.242550
vn -0.343041 -0.896802 0.279411
vn -0.343041 -0.896802 0.279411
vn -0.343041 -0.896802 0.279411
vn -0.386430 -0.889991 0.242050
vn -0.386430 -0.889991 0.242050
vn -0.386430 -0.889991 0.242050
vn -0.376511 -0.894642 0.240531
vn -0.376511 -0.894642 0.240531
vn -0.376511 -0.894642 0.240531
vn -0.433662 -0.874324 0.217931
vn -0.433662 -0.874324 0.217931
vn -0.433662 -0.874324 0.217931
vn -0.384928 -0.891005 0.240709
vn -0.384928 -0.891005 0.240709
vn -0.384928 -0.891005 0.240709
vn 0.000400 -0.994768 0.102160
vn 0.000400 -0.994768 0.102160
vn 0.000400 -0.994768 0.102160
vn -0.500312 -0.844493 0.191101
vn -0.500312 -0.844493 0.191101
vn -0.500312 -0.844493 0.191101
vn -0.353780 -0.898120 0.261190
vn -0.353780 -0.898120 0.261190
vn -0.353780 -0.898120 0.261190
vn -0.384931 -0.891003 0.240711
vn -0.384931 -0.891003 0.240711
vn -0.384931 -0.891003 0.240711
vn -0.384931 -0.891003 0.240711
vn -0.384931 -0.891003 0.240711
vn -0.384931 -0.891003 0.240711
vn -0.384931 -0.891003 0.240711
f 37/37/37 38/38/38 39/39/39
f 40/40/40 41/41/41 42/42/42
f 42/42/42 43/43/43 44/44/44
f 45/45/45 46/46/46 47/47/47
f 40/40/40 42/42/42 44/44/44
f 64/64/64 65/65/65 66/66/66
f 67/67/67 68/68/68 69/69/69
f 67/67/67 69/69/69 70/70/70
f 79/79/79 80/80/80 81/81/81
f 82/82/82 83/83/83 84/84/84
f 81/81/81 85/85/85 79/79/79
f 86/86/86 87/87/87 88/88/88
f 89/89/89 90/90/90 91/91/91
f 92/92/92 93/93/93 94/94/94
f 95/95/95 96/96/96 97/97/97
f 98/98/98 99/99/99 100/100/100
f 101/101/101 102/102/102 103/103/103
f 112/112/112 113/113/113 114/114/114
f 43/43/43 42/42/42 41/41/41
f 123/123/123 124/124/124 125/125/125
f 126/126/126 122/122/122 121/121/121
f 127/127/127 128/128/128 129/129/129
f 130/130/130 131/131/131 132/132/132
f 133/133/133 134/134/134 135/135/135
f 136/136/136 137/137/137 133/133/133
f 133/133/133 135/135/135 136/136/136
f 138/138/138 139/139/139 140/140/140
f 141/141/141 142/142/142 138/138/138
f 140/140/140 141/141/141 138/138/138
f 143/143/143 144/144/144 145/145/145
f 146/146/146 147/147/147 148/148/148
f 149/149/149 150/150/150 151/151/151
f 152/152/152 153/153/153 154/154/154
f 155/155/155 156/156/156 157/157/157
f 158/158/158 159/159/159 160/160/160
f 161/161/161 162/162/162 163/163/163
f 164/164/164 165/165/165 166/166/166
f 167/167/167 168/168/168 169/169/169
f 170/170/170 171/171/171 172/172/172
f 173/173/173 174/174/174 175/175/175
f 176/176/176 177/177/177 178/178/178
f 173/173/173 175/175/175 176/176/176
f 178/178/178 179/179/179 173/173/173
f 176/176/176 178/178/178 173/173/173
f 1/1/1 2/2/2 3/3/3
f 1/1/1 3/3/3 4/4/4
f 5/5/5 6/6/6 7/7/7
f 5/5/5 7/7/7 8/8/8
f 9/9/9 10/10/10 11/11/11
f 9/9/9 11/11/11 12/12/12
f 13/13/13 14/14/14 15/15/15
f 13/13/13 15/15/15 16/16/16
f 17/17/17 18/18/18 19/19/19
f 17/17/17 19/19/19 20/20/20
f 21/21/21 22/22/22 23/23/23
f 21/21/21 23/23/23 24/24/24
f 25/25/25 26/26/26 27/27/27
f 25/25/25 27/27/27 28/28/28
f 29/29/29 30/30/30 31/31/31
f 29/29/29 31/31/31 32/32/32
f 33/33/33 34/34/34 35/35/35
f 33/33/33 35/35/35 36/36/36
f 48/48/48 49/49/49 50/50/50
f 48/48/48 50/50/50 51/51/51
f 52/52/52 53/53/53 54/54/54
f 52/52/52 54/54/54 55/55/55
f 56/56/56 57/57/57 58/58/58
f 56/56/56 58/58/58 59/59/59
f 60/60/60 61/61/61 62/62/62
f 60/60/60 62/62/62 63/63/63
f 71/71/71 72/72/72 73/73/73
f 71/71/71 73/73/73 74/74/74
f 75/75/75 76/76/76 77/77/77
f 75/75/75 77/77/77 78/78/78
f 104/104/104 105/105/105 106/106/106
f 104/104/104 106/106/106 107/107/107
f 108/108/108 109/109/109 110/110/110
f 108/108/108 110/110/110 111/111/111
f 115/115/115 116/116/116 117/117/117
f 115/115/115 117/117/117 118/118/118
f 119/119/119 120/120/120 121/121/121
f 119/119/119 121/121/121 122/122/122
