v -0.619010 -1.505920 -1.753840
v -0.196540 -1.581910 -1.611090
v -0.197740 -1.578510 -1.438720
v -0.197740 -1.578510 -1.438720
v -0.252930 -1.568730 -1.465570
v -0.688050 -1.491650 -1.677270
v -0.688050 -1.491650 -1.677270
v -0.679590 -1.494520 -1.747090
v -0.619010 -1.505920 -1.753840
v -0.688050 -1.491650 -1.677270
v -0.621500 -1.789370 -5.866730
v -0.482770 -1.842380 -6.074480
v -0.363880 -1.784520 -5.419250
v -0.363880 -1.784520 -5.419250
v -0.351350 -1.548280 -3.493860
v -0.454460 -1.444880 -2.823240
v -0.454460 -1.444880 -2.823240
v -0.649720 -1.407640 -2.832390
v -0.817300 -1.431550 -3.290870
v -0.878440 -1.691170 -5.481950
v -0.657130 -1.775750 -5.813380
v -0.741530 -1.675660 -5.139830
v -0.710090 -1.512380 -3.772960
v -0.514150 -1.735020 -5.258200
v -0.494930 -1.555610 -3.780540
v -0.817300 -1.431550 -3.290870
v -0.817300 -1.431550 -3.290870
v -0.710090 -1.512380 -3.772960
v -0.588820 -1.478370 -3.306310
v -0.494930 -1.555610 -3.780540
v -0.817300 -1.431550 -3.290870
v -0.588820 -1.478370 -3.306310
v -0.454460 -1.444880 -2.823240
v -0.588820 -1.478370 -3.306310
v -0.657130 -1.775750 -5.813380
v -0.878440 -1.691170 -5.481950
v -0.754730 -1.833630 -6.400090
v -0.754730 -1.833630 -6.400090
v -0.946200 -1.936180 -7.507620
v -0.791350 -2.004340 -7.830900
v -0.754730 -1.833630 -6.400090
v -0.791350 -2.004340 -7.830900
v -0.696360 -1.932610 -7.110380
v -0.621500 -1.789370 -5.866730
v -0.576170 -1.890320 -6.581860
v -0.482770 -1.842380 -6.074480
v -0.621500 -1.789370 -5.866730
v -0.445920 -2.311580 -9.789630
v -0.408040 -2.019890 -7.376350
v -0.576170 -1.890320 -6.581860
v -0.556010 -2.025390 -7.643920
v -0.598060 -2.253170 -9.546840
v -0.445920 -2.311580 -9.789630
v -0.754730 -1.833630 -6.400090
v -0.696360 -1.932610 -7.110380
v -0.556010 -2.025390 -7.643920
v -0.576170 -1.890320 -6.581860
v -0.621500 -1.789370 -5.866730
v -0.754730 -1.833630 -6.400090
v -0.556010 -2.025390 -7.643920
v -0.445920 -2.311580 -9.789630
v -0.576170 -1.890320 -6.581860
v -0.754730 -1.833630 -6.400090
v -0.556010 -2.025390 -7.643920
v -0.576170 -1.890320 -6.581860
v -0.731220 -1.256490 -1.808010
v -0.805010 -1.285800 -2.158800
v -0.615260 -1.318560 -2.099930
v -0.619300 -1.290580 -1.887690
v -0.645870 -2.397480 -10.783700
v -0.445920 -2.311580 -9.789630
v -0.598060 -2.253170 -9.546840
v -0.645870 -2.397480 -10.783700
v -0.598060 -2.253170 -9.546840
v -0.688560 -2.304680 -10.098030
v -0.791350 -2.004340 -7.830900
v -0.946200 -1.936180 -7.507620
v -0.940030 -2.255280 -10.076330
v -0.645870 -2.397480 -10.783700
v -0.688560 -2.304680 -10.098030
v -0.783220 -2.238970 -9.709890
v -0.783220 -2.238970 -9.709890
v -0.791350 -2.004340 -7.830900
v -0.940030 -2.255280 -10.076330
v -0.783220 -2.238970 -9.709890
v -0.940030 -2.255280 -10.076330
v -0.645870 -2.397480 -10.783700
v -0.454460 -1.444880 -2.823240
v -0.177150 -1.381920 -1.875850
v -0.361570 -1.356320 -1.973720
v -0.593920 -1.360350 -2.392260
v -0.805010 -1.285800 -2.158800
v -0.649720 -1.407640 -2.832390
v -0.454460 -1.444880 -2.823240
v -0.361570 -1.356320 -1.973720
v -0.593920 -1.360350 -2.392260
v -0.593920 -1.360350 -2.392260
v -0.649720 -1.407640 -2.832390
v -0.454460 -1.444880 -2.823240
v -0.593920 -1.360350 -2.392260
v -0.615260 -1.318560 -2.099930
v -0.805010 -1.285800 -2.158800
v -0.361570 -1.356320 -1.973720
v -0.177150 -1.381920 -1.875850
v -0.171190 -1.341770 -1.542510
v -0.319590 -1.331060 -1.705770
v -0.055120 -1.600510 -1.192650
v -0.252930 -1.568730 -1.465570
v -0.023330 -1.613070 -1.552560
v 0.615900 -1.415230 -1.099340
v -0.055120 -1.600510 -1.192650
v -0.023330 -1.613070 -1.552560
v -3.110260 -1.733900 -8.783060
v -3.197170 -1.742750 -8.952390
v -3.046940 -1.896570 -9.281520
v -3.046940 -1.896570 -9.281520
v -2.899230 -2.058670 -9.566200
v -3.013050 -1.805560 -8.893540
v -3.046940 -1.896570 -9.281520
v -3.013050 -1.805560 -8.893540
v -3.110260 -1.733900 -8.783060
v -2.215260 -2.636770 -10.694160
v -2.109150 -2.486070 -10.203570
v -2.214510 -2.527660 -10.291810
v -1.395180 -2.408500 -10.359830
v -1.173600 -2.412180 -10.510780
v -1.351630 -2.211770 -9.660500
v -1.914640 -2.266330 -9.512890
v -1.966110 -2.466370 -10.219510
v -1.914640 -2.266330 -9.512890
v -1.966110 -2.466370 -10.219510
v -1.875110 -2.376990 -9.945940
v -1.508040 -2.340540 -10.038950
v -1.395180 -2.408500 -10.359830
v -1.351630 -2.211770 -9.660500
v -1.875110 -2.376990 -9.945940
v -1.351630 -2.211770 -9.660500
v -1.508040 -2.340540 -10.038950
v -2.213020 -2.308870 -9.484950
v -2.801830 -2.117100 -9.704110
v -2.899230 -2.058670 -9.566200
v -2.861450 -2.222610 -10.191730
v -2.861450 -2.222610 -10.191730
v -2.398390 -2.560620 -10.702430
v -2.592220 -2.338710 -10.179470
v -2.778820 -2.215850 -10.023090
v -2.801830 -2.117100 -9.704110
v -2.861450 -2.222610 -10.191730
v -2.861450 -2.222610 -10.191730
v -2.592220 -2.338710 -10.179470
v -2.778820 -2.215850 -10.023090
v -2.398390 -2.560620 -10.702430
v -2.214510 -2.527660 -10.291810
v -2.285150 -2.445150 -10.099590
v -2.421310 -2.461560 -10.374250
v -2.592220 -2.338710 -10.179470
v -2.398390 -2.560620 -10.702430
v -2.421310 -2.461560 -10.374250
v -2.213020 -2.308870 -9.484950
v -2.708510 -2.007250 -9.167010
v -2.419180 -2.300350 -9.745380
v -2.213020 -2.308870 -9.484950
v -2.213020 -2.308870 -9.484950
v -2.419180 -2.300350 -9.745380
v -2.285150 -2.445150 -10.099590
v -2.261500 -2.655580 -10.836130
v -2.215260 -2.636770 -10.694160
v -1.862170 -2.553090 -10.604150
v -1.920000 -2.629860 -10.851740
v -1.361770 -2.570830 -10.979860
v -1.173600 -2.412180 -10.510780
v -1.395180 -2.408500 -10.359830
v -1.471810 -2.498500 -10.644590
v -1.862170 -2.553090 -10.604150
v -2.109150 -2.486070 -10.203570
v -1.920000 -2.629860 -10.851740
v -1.173600 -2.412180 -10.510780
v -1.471810 -2.498500 -10.644590
v -2.899230 -2.058670 -9.566200
v -2.801830 -2.117100 -9.704110
v -2.619210 -2.153040 -9.518560
v -2.619210 -2.153040 -9.518560
v -2.419180 -2.300350 -9.745380
v -2.708510 -2.007250 -9.167010
v -2.619210 -2.153040 -9.518560
v -2.708510 -2.007250 -9.167010
v -2.899230 -2.058670 -9.566200
v -3.405000 -1.717410 -9.146780
v -3.577320 -1.696410 -9.307960
v -3.362560 -1.858030 -9.601310
v -3.362560 -1.858030 -9.601310
v -3.129730 -2.023480 -9.883660
v -3.176110 -1.921630 -9.538970
v -3.362560 -1.858030 -9.601310
v -3.176110 -1.921630 -9.538970
v -3.405000 -1.717410 -9.146780
v -3.046940 -1.896570 -9.281520
v -3.176110 -1.921630 -9.538970
v -3.129730 -2.023480 -9.883660
v -2.899230 -2.058670 -9.566200
v -3.057900 -2.113920 -10.103580
v -2.951380 -2.182230 -10.186110
v -2.956880 -2.087090 -9.842730
v -2.132720 -2.685410 -10.924940
v -1.996230 -2.665830 -10.937240
v -2.084580 -2.568260 -10.522240
vt 0.000000 0.000000
vt 0.000000 0.000000
vt 0.000000 0.000000
vt 0.000000 0.000000
vt 0.000000 0.000000
vt 0.000000 0.000000
vt 0.000000 0.000000
vt 0.000000 0.000000
vt 0.000000 0.000000
vt 0.000000 0.000000
vt 0.000000 0.000000
vt 0.000000 0.000000
vt 0.000000 0.000000
vt 0.000000 0.000000
vt 0.000000 0.000000
vt 0.000000 0.000000
vt 0.000000 0.000000
vt 0.000000 0.000000
vt 0.000000 0.000000
vt 0.000000 0.000000
vt 0.000000 0.000000
vt 0.000000 0.000000
vt 0.000000 0.000000
vt 0.000000 0.000000
vt 0.000000 0.000000
vt 0.000000 0.000000
vt 0.000000 0.000000
vt 0.000000 0.000000
vt 0.000000 0.000000
vt 0.000000 0.000000
vt 0.000000 0.000000
vt 0.000000 0.000000
vt 0.000000 0.000000
vt 0.000000 0.000000
vt 0.000000 0.000000
vt 0.000000 0.000000
vt 0.000000 0.000000
vt 0.000000 0.000000
vt 0.000000 0.000000
vt 0.000000 0.000000
vt 0.000000 0.000000
vt 0.000000 0.000000
vt 0.000000 0.000000
vt 0.000000 0.000000
vt 0.000000 0.000000
vt 0.000000 0.000000
vt 0.000000 0.000000
vt 0.000000 0.000000
vt 0.000000 0.000000
vt 0.000000 0.000000
vt 0.000000 0.000000
vt 0.000000 0.000000
vt 0.000000 0.000000
vt 0.000000 0.000000
vt 0.000000 0.000000
vt 0.000000 0.000000
vt 0.000000 0.000000
vt 0.000000 0.000000
vt 0.000000 0.000000
vt 0.000000 0.000000
vt 0.000000 0.000000
vt 0.000000 0.000000
vt 0.000000 0.000000
vt 0.000000 0.000000
vt 0.000000 0.000000
vt 0.000000 0.000000
vt 0.000000 0.000000
vt 0.000000 0.000000
vt 0.000000 0.000000
vt 0.000000 0.000000
vt 0.000000 0.000000
vt 0.000000 0.000000
vt 0.000000 0.000000
vt 0.000000 0.000000
vt 0.000000 0.000000
vt 0.000000 0.000000
vt 0.000000 0.000000
vt 0.000000 0.000000
vt 0.000000 0.000000
vt 0.000000 0.000000
vt 0.000000 0.000000
vt 0.000000 0.000000
vt 0.000000 0.000000
vt 0.000000 0.000000
vt 0.000000 0.000000
vt 0.000000 0.000000
vt 0.000000 0.000000
vt 0.000000 0.000000
vt 0.000000 0.000000
vt 0.000000 0.000000
vt 0.000000 0.000000
vt 0.000000 0.000000
vt 0.000000 0.000000
vt 0.000000 0.000000
vt 0.000000 0.000000
vt 0.000000 0.000000
vt 0.000000 0.000000
vt 0.000000 0.000000
vt 0.000000 0.000000
vt 0.000000 0.000000
vt 0.000000 0.000000
vt 0.000000 0.000000
vt 0.000000 0.000000
vt 0.000000 0.000000
vt 0.000000 0.000000
vt 0.000000 0.000000
vt 0.000000 0.000000
vt 0.000000 0.000000
vt 0.000000 0.000000
vt 0.000000 0.000000
vt 0.000000 0.000000
vt 0.000000 0.000000
vt 0.000000 0.000000
vt 0.000000 0.000000
vt 0.000000 0.000000
vt 0.000000 0.000000
vt 0.000000 0.000000
vt 0.000000 0.000000
vt 0.000000 0.000000
vt 0.000000 0.000000
vt 0.000000 0.000000
vt 0.000000 0.000000
vt 0.000000 0.000000
vt 0.000000 0.000000
vt 0.000000 0.000000
vt 0.000000 0.000000
vt 0.000000 0.000000
vt 0.000000 0.000000
vt 0.000000 0.000000
vt 0.000000 0.000000
vt 0.000000 0.000000
vt 0.000000 0.000000
vt 0.000000 0.000000
vt 0.000000 0.000000
vt 0.000000 0.000000
vt 0.000000 0.000000
vt 0.000000 0.000000
vt 0.000000 0.000000
vt 0.000000 0.000000
vt 0.000000 0.000000
vt 0.000000 0.000000
vt 0.000000 0.000000
vt 0.000000 0.000000
vt 0.000000 0.000000
vt 0.000000 0.000000
vt 0.000000 0.000000
vt 0.000000 0.000000
vt 0.000000 0.000000
vt 0.000000 0.000000
vt 0.000000 0.000000
vt 0.000000 0.000000
vt 0.000000 0.000000
vt 0.000000 0.000000
vt 0.000000 0.000000
vt 0.000000 0.000000
vt 0.000000 0.000000
vt 0.000000 0.000000
vt 0.000000 0.000000
vt 0.000000 0.000000
vt 0.000000 0.000000
vt 0.000000 0.000000
vt 0.000000 0.000000
vt 0.000000 0.000000
vt 0.000000 0.000000
vt 0.000000 0.000000
vt 0.000000 0.000000
vt 0.000000 0.000000
vt 0.000000 0.000000
vt 0.000000 0.000000
vt 0.000000 0.000000
vt 0.000000 0.000000
vt 0.000000 0.000000
vt 0.000000 0.000000
vt 0.000000 0.000000
vt 0.000000 0.000000
vt 0.000000 0.000000
vt 0.000000 0.000000
vt 0.000000 0.000000
vt 0.000000 0.000000
vt 0.000000 0.000000
vt 0.000000 0.000000
vt 0.000000 0.000000
vt 0.000000 0.000000
vt 0.000000 0.000000
vt 0.000000 0.000000
vt 0.000000 0.000000
vt 0.000000 0.000000
vt 0.000000 0.000000
vt 0.000000 0.000000
vt 0.000000 0.000000
vt 0.000000 0.000000
vt 0.000000 0.000000
vt 0.000000 0.000000
vt 0.000000 0.000000
vt 0.000000 0.000000
vt 0.000000 0.000000
vt 0.000000 0.000000
vt 0.000000 0.000000
vt 0.000000 0.000000
vt 0.000000 0.000000
vt 0.000000 0.000000
vt 0.000000 0.000000
vt 0.000000 0.000000
vt 0.000000 0.000000
vt 0.000000 0.000000
vt 0.000000 0.000000
vn -0.182951 -0.982955 0.018150
vn -0.182951 -0.982955 0.018150
vn -0.182951 -0.982955 0.018150
vn -0.418350 -0.664771 0.618921
vn -0.418350 -0.664771 0.618921
vn -0.418350 -0.664771 0.618921
vn -0.182951 -0.982954 0.018160
vn -0.182951 -0.982954 0.018160
vn -0.182951 -0.982954 0.018160
vn -0.182951 -0.982955 0.018150
vn -0.191411 -0.974053 0.120760
vn -0.191411 -0.974053 0.120760
vn -0.191411 -0.974053 0.120760
vn -0.191420 -0.974051 0.120760
vn -0.191420 -0.974051 0.120760
vn -0.191420 -0.974051 0.120760
vn -0.191411 -0.974054 0.120751
vn -0.191411 -0.974054 0.120751
vn -0.191411 -0.974054 0.120751
vn -0.191411 -0.974053 0.120760
vn -0.191411 -0.974053 0.120760
vn -0.191411 -0.974053 0.120760
vn -0.191411 -0.974053 0.120760
vn -0.191411 -0.974053 0.120760
vn -0.191411 -0.974053 0.120760
vn -0.191411 -0.974053 0.120760
vn -0.191420 -0.974052 0.120750
vn -0.191420 -0.974052 0.120750
vn -0.191420 -0.974052 0.120750
vn -0.191420 -0.974051 0.120760
vn -0.191420 -0.974051 0.120760
vn -0.191420 -0.974051 0.120760
vn -0.191411 -0.974053 0.120760
vn -0.191411 -0.974053 0.120760
vn -0.182970 -0.974930 0.126620
vn -0.182970 -0.974930 0.126620
vn -0.182970 -0.974930 0.126620
vn -0.177190 -0.976703 0.121060
vn -0.177190 -0.976703 0.121060
vn -0.177190 -0.976703 0.121060
vn -0.181440 -0.975920 0.121080
vn -0.181440 -0.975920 0.121080
vn -0.181440 -0.975920 0.121080
vn -0.182970 -0.974930 0.126620
vn -0.183929 -0.974837 0.125950
vn -0.183929 -0.974837 0.125950
vn -0.183929 -0.974837 0.125950
vn -0.181300 -0.975979 0.120810
vn -0.181300 -0.975979 0.120810
vn -0.181300 -0.975979 0.120810
vn -0.181830 -0.975878 0.120830
vn -0.181830 -0.975878 0.120830
vn -0.181830 -0.975878 0.120830
vn -0.186280 -0.975072 0.120560
vn -0.186280 -0.975072 0.120560
vn -0.186280 -0.975072 0.120560
vn -0.181170 -0.975321 0.126200
vn -0.181170 -0.975321 0.126200
vn -0.181170 -0.975321 0.126200
vn -0.186930 -0.974961 0.120450
vn -0.186930 -0.974961 0.120450
vn -0.186930 -0.974961 0.120450
vn -0.186909 -0.974965 0.120449
vn -0.186909 -0.974965 0.120449
vn -0.186909 -0.974965 0.120449
vn -0.206489 -0.970516 0.124340
vn -0.206489 -0.970516 0.124340
vn -0.206489 -0.970516 0.124340
vn -0.206489 -0.970516 0.124340
vn -0.181740 -0.975888 0.120890
vn -0.181740 -0.975888 0.120890
vn -0.181740 -0.975888 0.120890
vn -0.180569 -0.976107 0.120870
vn -0.180569 -0.976107 0.120870
vn -0.180569 -0.976107 0.120870
vn -0.177511 -0.976664 0.120901
vn -0.177511 -0.976664 0.120901
vn -0.177511 -0.976664 0.120901
vn -0.182349 -0.975795 0.120719
vn -0.182349 -0.975795 0.120719
vn -0.182349 -0.975795 0.120719
vn -0.181450 -0.975918 0.121080
vn -0.181450 -0.975918 0.121080
vn -0.181450 -0.975918 0.121080
vn -0.181051 -0.976013 0.120910
vn -0.181051 -0.976013 0.120910
vn -0.181051 -0.976013 0.120910
vn -0.200320 -0.971951 0.123220
vn -0.200320 -0.971951 0.123220
vn -0.200320 -0.971951 0.123220
vn -0.199631 -0.971253 0.129670
vn -0.199631 -0.971253 0.129670
vn -0.199631 -0.971253 0.129670
vn -0.206019 -0.970695 0.123719
vn -0.206019 -0.970695 0.123719
vn -0.206019 -0.970695 0.123719
vn -0.191591 -0.972983 0.128830
vn -0.191591 -0.972983 0.128830
vn -0.191591 -0.972983 0.128830
vn -0.206009 -0.970697 0.123720
vn -0.206009 -0.970697 0.123720
vn -0.206009 -0.970697 0.123720
vn -0.201601 -0.971865 0.121801
vn -0.201601 -0.971865 0.121801
vn -0.201601 -0.971865 0.121801
vn -0.201601 -0.971865 0.121801
vn -0.182951 -0.982955 0.018150
vn -0.182951 -0.982955 0.018150
vn -0.182951 -0.982955 0.018150
vn 0.258429 -0.964377 0.056500
vn 0.258429 -0.964377 0.056500
vn 0.258429 -0.964377 0.056500
vn -0.381771 -0.891863 0.242551
vn -0.381771 -0.891863 0.242551
vn -0.381771 -0.891863 0.242551
vn -0.469332 -0.849693 0.240311
vn -0.469332 -0.849693 0.240311
vn -0.469332 -0.849693 0.240311
vn -0.381780 -0.891860 0.242550
vn -0.381780 -0.891860 0.242550
vn -0.381780 -0.891860 0.242550
vn 0.159990 -0.952787 0.258069
vn 0.159990 -0.952787 0.258069
vn 0.159990 -0.952787 0.258069
vn 0.160001 -0.952785 0.258071
vn 0.160001 -0.952785 0.258071
vn 0.160001 -0.952785 0.258071
vn 0.159990 -0.952787 0.258069
vn 0.159990 -0.952787 0.258069
vn 0.159999 -0.952786 0.258069
vn 0.159999 -0.952786 0.258069
vn 0.159999 -0.952786 0.258069
vn 0.159990 -0.952787 0.258069
vn 0.159990 -0.952787 0.258069
vn 0.159990 -0.952787 0.258069
vn 0.159990 -0.952787 0.258069
vn 0.159999 -0.952786 0.258069
vn 0.159999 -0.952786 0.258069
vn 0.159990 -0.952787 0.258069
vn -0.236000 -0.943409 0.232990
vn -0.236000 -0.943409 0.232990
vn -0.236000 -0.943409 0.232990
vn -0.394112 -0.889465 0.231361
vn -0.394112 -0.889465 0.231361
vn -0.394112 -0.889465 0.231361
vn -0.419628 -0.875206 0.240679
vn -0.419628 -0.875206 0.240679
vn -0.419628 -0.875206 0.240679
vn -0.394252 -0.890055 0.228841
vn -0.394252 -0.890055 0.228841
vn -0.394252 -0.890055 0.228841
vn -0.381771 -0.891863 0.242551
vn -0.381771 -0.891863 0.242551
vn -0.381771 -0.891863 0.242551
vn -0.365599 -0.897818 0.245479
vn -0.365599 -0.897818 0.245479
vn -0.365599 -0.897818 0.245479
vn -0.381771 -0.891863 0.242551
vn -0.371549 -0.889778 0.265039
vn -0.371549 -0.889778 0.265039
vn -0.371549 -0.889778 0.265039
vn -0.381771 -0.891863 0.242551
vn -0.342579 -0.907917 0.241509
vn -0.342579 -0.907917 0.241509
vn -0.342579 -0.907917 0.241509
vn -0.381771 -0.891863 0.242551
vn -0.381771 -0.891863 0.242551
vn 0.159990 -0.952787 0.258069
vn 0.159999 -0.952786 0.258069
vn 0.159999 -0.952786 0.258069
vn 0.159999 -0.952786 0.258069
vn 0.159999 -0.952786 0.258069
vn 0.159999 -0.952786 0.258069
vn 0.159999 -0.952786 0.258069
vn 0.159999 -0.952786 0.258069
vn 0.160020 -0.952793 0.258031
vn 0.160020 -0.952793 0.258031
vn 0.160020 -0.952793 0.258031
vn -0.338961 -0.928144 0.153801
vn -0.338961 -0.928144 0.153801
vn -0.338961 -0.928144 0.153801
vn -0.335501 -0.897292 0.286891
vn -0.335501 -0.897292 0.286891
vn -0.335501 -0.897292 0.286891
vn -0.349139 -0.893657 0.281919
vn -0.349139 -0.893657 0.281919
vn -0.349139 -0.893657 0.281919
vn -0.342699 -0.906038 0.248299
vn -0.342699 -0.906038 0.248299
vn -0.342699 -0.906038 0.248299
vn -0.378911 -0.900122 0.214960
vn -0.378911 -0.900122 0.214960
vn -0.378911 -0.900122 0.214960
vn -0.384309 -0.891488 0.239909
vn -0.384309 -0.891488 0.239909
vn -0.384309 -0.891488 0.239909
vn -0.411220 -0.878889 0.241770
vn -0.411220 -0.878889 0.241770
vn -0.411220 -0.878889 0.241770
vn -0.411220 -0.878889 0.241770
vn -0.384931 -0.891003 0.240711
vn -0.384931 -0.891003 0.240711
vn -0.384931 -0.891003 0.240711
vn 0.159990 -0.952787 0.258069
vn 0.159990 -0.952787 0.258069
vn 0.159990 -0.952787 0.258069
f 1/1/1 2/2/2 3/3/3
f 4/4/4 5/5/5 6/6/6
f 7/7/7 8/8/8 9/9/9
f 3/3/3 10/10/10 1/1/1
f 11/11/11 12/12/12 13/13/13
f 14/14/14 15/15/15 16/16/16
f 17/17/17 18/18/18 19/19/19
f 20/20/20 21/21/21 22/22/22
f 20/20/20 22/22/22 23/23/23
f 24/24/24 11/11/11 13/13/13
f 25/25/25 24/24/24 13/13/13
f 26/26/26 20/20/20 23/23/23
f 27/27/27 28/28/28 29/29/29
f 30/30/30 14/14/14 16/16/16
f 16/16/16 31/31/31 32/32/32
f 33/33/33 34/34/34 25/25/25
f 35/35/35 36/36/36 37/37/37
f 38/38/38 39/39/39 40/40/40
f 41/41/41 42/42/42 43/43/43
f 44/44/44 35/35/35 37/37/37
f 45/45/45 46/46/46 47/47/47
f 48/48/48 49/49/49 50/50/50
f 51/51/51 52/52/52 53/53/53
f 54/54/54 55/55/55 56/56/56
f 57/57/57 58/58/58 59/59/59
f 60/60/60 61/61/61 62/62/62
f 63/63/63 64/64/64 65/65/65
f 70/70/70 71/71/71 72/72/72
f 73/73/73 74/74/74 75/75/75
f 76/76/76 77/77/77 78/78/78
f 79/79/79 80/80/80 81/81/81
f 82/82/82 83/83/83 84/84/84
f 85/85/85 86/86/86 87/87/87
f 88/88/88 89/89/89 90/90/90
f 91/91/91 92/92/92 93/93/93
f 94/94/94 95/95/95 96/96/96
f 97/97/97 98/98/98 99/99/99
f 100/100/100 101/101/101 102/102/102
f 107/107/107 108/108/108 3/3/3
f 3/3/3 2/2/2 109/109/109
f 107/107/107 3/3/3 109/109/109
f 110/110/110 111/111/111 112/112/112
f 113/113/113 114/114/114 115/115/115
f 116/116/116 117/117/117 118/118/118
f 119/119/119 120/120/120 121/121/121
f 122/122/122 123/123/123 124/124/124
f 125/125/125 126/126/126 127/127/127
f 128/128/128 123/123/123 129/129/129
f 130/130/130 131/131/131 132/132/132
f 133/133/133 134/134/134 135/135/135
f 128/128/128 136/136/136 133/133/133
f 137/137/137 130/130/130 138/138/138
f 124/124/124 123/123/123 139/139/139
f 140/140/140 141/141/141 142/142/142
f 143/143/143 144/144/144 145/145/145
f 146/146/146 147/147/147 148/148/148
f 149/149/149 150/150/150 151/151/151
f 152/152/152 153/153/153 154/154/154
f 155/155/155 156/156/156 157/157/157
f 154/154/154 158/158/158 152/152/152
f 159/159/159 160/160/160 161/161/161
f 154/154/154 153/153/153 162/162/162
f 163/163/163 164/164/164 165/165/165
f 168/168/168 129/129/129 123/123/123
f 169/169/169 170/170/170 171/171/171
f 171/171/171 172/172/172 173/173/173
f 174/174/174 175/175/175 169/169/169
f 176/176/176 177/177/177 178/178/178
f 173/173/173 174/174/174 169/169/169
f 179/179/179 180/180/180 181/181/181
f 182/182/182 183/183/183 184/184/184
f 185/185/185 186/186/186 187/187/187
f 188/188/188 189/189/189 190/190/190
f 191/191/191 192/192/192 193/193/193
f 194/194/194 195/195/195 196/196/196
f 201/201/201 202/202/202 203/203/203
f 204/204/204 205/205/205 206/206/206
f 66/66/66 67/67/67 68/68/68
f 66/66/66 68/68/68 69/69/69
f 103/103/103 104/104/104 105/105/105
f 103/103/103 105/105/105 106/106/106
f 166/166/166 167/167/167 153/153/153
f 166/166/166 153/153/153 152/152/152
f 197/197/197 198/198/198 199/199/199
f 197/197/197 199/199/199 200/200/200
