v 0.371600 -0.633310 7.951580
v 0.382010 -0.631990 7.871930
v 0.443890 -0.632790 7.818490
v 0.443890 -0.632790 7.818490
v 0.536770 -0.614390 7.808150
v 0.564360 -0.567050 7.851240
v 0.443890 -0.632790 7.818490
v 0.564360 -0.567050 7.851240
v 0.410690 -0.595280 7.920350
v 0.407330 -0.607940 7.969720
v 0.519480 -0.652480 8.026030
v 0.510450 -0.635290 8.062570
v 0.443890 -0.632790 7.818490
v 0.410690 -0.595280 7.920350
v 0.407330 -0.607940 7.969720
v 0.407330 -0.607940 7.969720
v 0.510450 -0.635290 8.062570
v 0.371600 -0.633310 7.951580
v 0.371600 -0.633310 7.951580
v 0.443890 -0.632790 7.818490
v 0.407330 -0.607940 7.969720
v -0.350240 -0.577830 7.962440
v -0.498100 -0.564840 8.011340
v -0.504560 -0.580940 7.992350
v -0.350240 -0.577830 7.962440
v -0.504560 -0.580940 7.992350
v -0.413450 -0.544810 7.958530
v -0.413560 -0.572890 7.790300
v -0.355800 -0.580450 7.847660
v -0.350240 -0.577830 7.962440
v -0.525610 -0.490900 7.815400
v -0.502110 -0.541820 7.773990
v -0.413560 -0.572890 7.790300
v -0.350240 -0.577830 7.962440
v -0.413450 -0.544810 7.958530
v -0.382200 -0.539890 7.894280
v -0.382200 -0.539890 7.894280
v -0.525610 -0.490900 7.815400
v -0.413560 -0.572890 7.790300
v -0.382200 -0.539890 7.894280
v -0.413560 -0.572890 7.790300
v -0.350240 -0.577830 7.962440
v 2.319250 -1.195070 8.190050
v 2.402200 -1.076560 8.268640
v 2.394940 -1.182190 8.313450
v 2.332720 -1.265780 8.251620
v 2.272440 -0.949220 7.975970
v 2.300880 -0.824970 8.097770
v 2.327160 -0.886180 8.155620
v 2.289470 -1.038650 8.053840
v 2.236150 -0.758690 7.810060
v 2.276200 -0.586850 7.981620
v 2.286210 -0.650950 8.027760
v 2.253900 -0.851890 7.891220
vt 0.000000 0.000000
vt 0.000000 0.000000
vt 0.000000 0.000000
vt 0.000000 0.000000
vt 0.000000 0.000000
vt 0.000000 0.000000
vt 0.000000 0.000000
vt 0.000000 0.000000
vt 0.000000 0.000000
vt 0.000000 0.000000
vt 0.000000 0.000000
vt 0.000000 0.000000
vt 0.000000 0.000000
vt 0.000000 0.000000
vt 0.000000 0.000000
vt 0.000000 0.000000
vt 0.000000 0.000000
vt 0.000000 0.000000
vt 0.000000 0.000000
vt 0.000000 0.000000
vt 0.000000 0.000000
vt 0.000000 0.000000
vt 0.000000 0.000000
vt 0.000000 0.000000
vt 0.000000 0.000000
vt 0.000000 0.000000
vt 0.000000 0.000000
vt 0.000000 0.000000
vt 0.000000 0.000000
vt 0.000000 0.000000
vt 0.000000 0.000000
vt 0.000000 0.000000
vt 0.000000 0.000000
vt 0.000000 0.000000
vt 0.000000 0.000000
vt 0.000000 0.000000
vt 0.000000 0.000000
vt 0.000000 0.000000
vt 0.000000 0.000000
vt 0.000000 0.000000
vt 0.000000 0.000000
vt 0.000000 0.000000
vt 0.000000 0.000000
vt 0.000000 0.000000
vt 0.000000 0.000000
vt 0.000000 0.000000
vt 0.000000 0.000000
vt 0.000000 0.000000
vt 0.000000 0.000000
vt 0.000000 0.000000
vt 0.000000 0.000000
vt 0.000000 0.000000
vt 0.000000 0.000000
vt 0.000000 0.000000
vn -0.030580 -0.999322 -0.020490
vn -0.030580 -0.999322 -0.020490
vn -0.030580 -0.999322 -0.020490
vn 0.216300 -0.723059 0.656049
vn 0.216300 -0.723059 0.656049
vn 0.216300 -0.723059 0.656049
vn 0.343620 -0.839380 0.421150
vn 0.343620 -0.839380 0.421150
vn 0.343620 -0.839380 0.421150
vn -0.471599 -0.837108 0.277209
vn -0.471599 -0.837108 0.277209
vn -0.471599 -0.837108 0.277209
vn 0.912650 0.376670 0.158710
vn 0.912650 0.376670 0.158710
vn 0.912650 0.376670 0.158710
vn 0.592843 -0.300771 -0.747044
vn 0.592843 -0.300771 -0.747044
vn 0.592843 -0.300771 -0.747044
vn 0.471532 -0.844834 0.252811
vn 0.471532 -0.844834 0.252811
vn 0.471532 -0.844834 0.252811
vn 0.134650 -0.777848 0.613858
vn 0.134650 -0.777848 0.613858
vn 0.134650 -0.777848 0.613858
vn -0.164501 -0.420611 -0.892203
vn -0.164501 -0.420611 -0.892203
vn -0.164501 -0.420611 -0.892203
vn -0.159170 -0.986788 0.030230
vn -0.159170 -0.986788 0.030230
vn -0.159170 -0.986788 0.030230
vn -0.357042 -0.683013 0.637193
vn -0.357042 -0.683013 0.637193
vn -0.357042 -0.683013 0.637193
vn -0.431571 -0.858893 -0.275771
vn -0.431571 -0.858893 -0.275771
vn -0.431571 -0.858893 -0.275771
vn -0.483660 -0.781591 0.393940
vn -0.483660 -0.781591 0.393940
vn -0.483660 -0.781591 0.393940
vn -0.925302 -0.177230 0.335271
vn -0.925302 -0.177230 0.335271
vn -0.925302 -0.177230 0.335271
vn 0.834468 -0.262829 -0.484339
vn 0.834468 -0.262829 -0.484339
vn 0.834468 -0.262829 -0.484339
vn 0.834468 -0.262829 -0.484339
vn 0.955632 0.009470 -0.294411
vn 0.955632 0.009470 -0.294411
vn 0.955632 0.009470 -0.294411
vn 0.955632 0.009470 -0.294411
vn 0.975262 -0.006680 -0.220951
vn 0.975262 -0.006680 -0.220951
vn 0.975262 -0.006680 -0.220951
vn 0.975262 -0.006680 -0.220951
f 1/1/1 2/2/2 3/3/3
f 4/4/4 5/5/5 6/6/6
f 7/7/7 8/8/8 9/9/9
f 10/10/10 11/11/11 12/12/12
f 13/13/13 14/14/14 15/15/15
f 16/16/16 17/17/17 18/18/18
f 19/19/19 20/20/20 21/21/21
f 22/22/22 23/23/23 24/24/24
f 25/25/25 26/26/26 27/27/27
f 28/28/28 29/29/29 30/30/30
f 31/31/31 32/32/32 33/33/33
f 34/34/34 35/35/35 36/36/36
f 37/37/37 38/38/38 39/39/39
f 40/40/40 41/41/41 42/42/42
f 43/43/43 44/44/44 45/45/45
f 43/43/43 45/45/45 46/46/46
f 47/47/47 48/48/48 49/49/49
f 47/47/47 49/49/49 50/50/50
f 51/51/51 52/52/52 53/53/53
f 51/51/51 53/53/53 54/54/54
