v -1.186510 -1.034940 -1.640540
v -1.215530 -1.196330 -1.720860
v -1.215500 -1.196320 -1.188880
v -1.215500 -1.196320 -1.188880
v -1.193020 -1.080700 -1.125960
v -0.861800 -1.231520 -1.293820
v -0.861800 -1.231520 -1.293820
v -1.180070 -1.006860 -1.262630
v -1.186510 -1.034940 -1.640540
v -1.215500 -1.196320 -1.188880
v -0.861800 -1.231520 -1.293820
v -1.186510 -1.034940 -1.640540
v -1.631590 -1.146380 -1.094950
v -1.540150 -1.156840 -0.747580
v -1.271030 -1.072050 -0.527000
v -1.021990 -0.937990 -0.686000
v -1.015420 -0.816280 -1.480720
v -1.320450 -0.878240 -1.661220
v -0.748600 -0.626740 -1.369090
v -0.748600 -0.626740 -1.369090
v -0.326390 -0.529030 -1.311550
v 0.310940 -0.702890 -1.413930
v -0.874530 -0.757620 -1.446160
v -1.015420 -0.816280 -1.480720
v -0.748600 -0.626740 -1.369090
v -0.111510 -1.057170 -1.622570
v -0.148610 -1.045250 -1.615550
v -0.333840 -0.737700 -1.434430
v -0.874530 -0.757620 -1.446160
v 0.637710 -0.928920 -1.547040
v 0.840610 -0.884850 -1.521090
v 0.785490 -1.190860 -1.701300
v -0.110160 -1.109090 -1.653150
v 0.322190 -0.953540 -1.561540
v -1.186510 -1.034940 -1.640540
v -1.180020 -0.999120 -1.602210
v -0.941590 -1.045980 -1.615980
v -0.941590 -1.045980 -1.615980
v -0.842480 -0.931510 -1.548570
v -0.630970 -0.951940 -1.560600
v -0.630970 -0.951940 -1.560600
v -0.706460 -1.039200 -1.611990
v -0.774970 -1.097280 -1.646190
v -0.393420 -1.129580 -1.665210
v -0.463100 -1.056520 -1.622190
v -0.148610 -1.045250 -1.615550
v -0.941590 -1.045980 -1.615980
v -0.630970 -0.951940 -1.560600
v -0.774970 -1.097280 -1.646190
v -0.393420 -1.129580 -1.665210
v -1.186510 -1.034940 -1.640540
v -0.941590 -1.045980 -1.615980
v -0.774970 -1.097280 -1.646190
v -0.110160 -1.109090 -1.653150
v 0.785490 -1.190860 -1.701300
v -1.215530 -1.196330 -1.720860
v -1.186510 -1.034940 -1.640540
v -0.774970 -1.097280 -1.646190
v -0.393420 -1.129580 -1.665210
v 0.785490 -1.190860 -1.701300
v -1.215530 -1.196330 -1.720860
v -0.774970 -1.097280 -1.646190
v -0.393420 -1.129580 -1.665210
v -1.215530 -1.196330 -1.720860
v -1.158870 -0.890700 -1.389260
v -1.159910 -0.893050 -1.540270
v -1.177820 -0.989650 -1.409430
v -1.177820 -0.989650 -1.409430
v -1.180070 -1.006860 -1.262630
v -1.166970 -0.936650 -1.261760
v -1.177820 -0.989650 -1.409430
v -1.166970 -0.936650 -1.261760
v -1.158870 -0.890700 -1.389260
v -1.116050 -0.644270 -1.379410
v -1.111280 -0.617760 -1.248500
v -1.099870 -0.554440 -1.286310
v -1.098000 -0.544060 -1.320400
v -1.071980 -0.829920 -0.631390
v -1.009840 -0.889590 -0.794870
v -1.042180 -0.978590 -0.763690
v -1.042180 -0.978590 -0.763690
v -1.013870 -1.039110 -0.848670
v -1.114820 -1.113440 -0.771150
v -1.114820 -1.113440 -0.771150
v -1.071980 -0.829920 -0.631390
v -1.042180 -0.978590 -0.763690
v -1.093770 -0.520540 -1.306550
v -1.083350 -0.462710 -1.098700
v -1.051820 -0.312560 -1.013180
v -1.033480 -0.243250 -1.054610
v -1.158870 -0.890700 -1.389260
v -1.138550 -0.775490 -1.352890
v -1.320450 -0.878240 -1.661220
v -1.159910 -0.893050 -1.540270
v -1.594600 -1.247190 -1.444460
v -1.496130 -1.266240 -1.214780
v -1.231480 -1.269770 -1.207740
v -0.991150 -1.247560 -1.526700
v -2.034050 -1.776700 -0.132620
v -1.871610 -1.715270 0.078350
v -1.739320 -1.674260 -0.101640
v -1.563500 -1.678360 -0.457780
v -1.629070 -1.616600 -0.462300
v -2.094410 -1.649630 -0.194480
v -2.034050 -1.776700 -0.132620
v -1.563500 -1.678360 -0.457780
v -1.771380 -1.606770 -0.134500
v -1.629070 -1.616600 -0.462300
v -1.563500 -1.678360 -0.457780
v -1.739320 -1.674260 -0.101640
v -2.094410 -1.649630 -0.194480
v -1.919120 -1.592180 -0.046590
v -1.871610 -1.715270 0.078350
v -2.034050 -1.776700 -0.132620
v -1.919120 -1.592180 -0.046590
v -1.771380 -1.606770 -0.134500
v -1.739320 -1.674260 -0.101640
v -1.871610 -1.715270 0.078350
v -1.176640 -1.005590 -0.606130
v -1.149760 -0.863300 -0.526230
v -1.053480 -0.859400 -0.650810
v -1.053480 -0.859400 -0.650810
v -1.135900 -0.770960 -0.463160
v -1.071980 -0.829920 -0.631390
v -1.071980 -0.829920 -0.631390
v -1.114820 -1.113440 -0.771150
v -1.216960 -1.188240 -0.690460
v -1.216960 -1.188240 -0.690460
v -1.176640 -1.005590 -0.606130
v -1.053480 -0.859400 -0.650810
v -1.053480 -0.859400 -0.650810
v -1.071980 -0.829920 -0.631390
v -1.216960 -1.188240 -0.690460
v -1.371120 -0.712030 -1.401940
v -1.212480 -0.714300 -1.006320
v -0.861350 -0.604750 -0.842870
v -0.577410 -0.441150 -1.196690
v -0.928860 -0.244580 -1.128560
v -0.839450 -0.255550 -0.749740
v -0.577910 -0.173320 -0.477700
v -0.333460 -0.044160 -0.704600
v -1.370330 -0.944060 -1.147610
v -1.255740 -0.900660 -1.007920
v -1.018260 -0.868390 -1.151820
v -0.835400 -0.882140 -1.572150
v -1.915220 -1.517760 -1.208510
v -1.809160 -1.515540 -0.761580
v -1.600350 -1.456000 -0.619550
v -1.580720 -1.427690 -0.909410
v -1.301960 -1.323060 -0.421880
v -1.113480 -1.277070 -0.823730
v -1.915220 -1.517760 -1.208510
v -1.600350 -1.456000 -0.619550
v -1.580720 -1.427690 -0.909410
v -1.915220 -1.517760 -1.208510
v -1.580720 -1.427690 -0.909410
v -1.113480 -1.277070 -0.823730
vt 0.000000 0.000000
vt 0.000000 0.000000
vt 0.000000 0.000000
vt 0.000000 0.000000
vt 0.000000 0.000000
vt 0.000000 0.000000
vt 0.000000 0.000000
vt 0.000000 0.000000
vt 0.000000 0.000000
vt 0.000000 0.000000
vt 0.000000 0.000000
vt 0.000000 0.000000
vt 0.000000 0.000000
vt 0.000000 0.000000
vt 0.000000 0.000000
vt 0.000000 0.000000
vt 0.000000 0.000000
vt 0.000000 0.000000
vt 0.000000 0.000000
vt 0.000000 0.000000
vt 0.000000 0.000000
vt 0.000000 0.000000
vt 0.000000 0.000000
vt 0.000000 0.000000
vt 0.000000 0.000000
vt 0.000000 0.000000
vt 0.000000 0.000000
vt 0.000000 0.000000
vt 0.000000 0.000000
vt 0.000000 0.000000
vt 0.000000 0.000000
vt 0.000000 0.000000
vt 0.000000 0.000000
vt 0.000000 0.000000
vt 0.000000 0.000000
vt 0.000000 0.000000
vt 0.000000 0.000000
vt 0.000000 0.000000
vt 0.000000 0.000000
vt 0.000000 0.000000
vt 0.000000 0.000000
vt 0.000000 0.000000
vt 0.000000 0.000000
vt 0.000000 0.000000
vt 0.000000 0.000000
vt 0.000000 0.000000
vt 0.000000 0.000000
vt 0.000000 0.000000
vt 0.000000 0.000000
vt 0.000000 0.000000
vt 0.000000 0.000000
vt 0.000000 0.000000
vt 0.000000 0.000000
vt 0.000000 0.000000
vt 0.000000 0.000000
vt 0.000000 0.000000
vt 0.000000 0.000000
vt 0.000000 0.000000
vt 0.000000 0.000000
vt 0.000000 0.000000
vt 0.000000 0.000000
vt 0.000000 0.000000
vt 0.000000 0.000000
vt 0.000000 0.000000
vt 0.000000 0.000000
vt 0.000000 0.000000
vt 0.000000 0.000000
vt 0.000000 0.000000
vt 0.000000 0.000000
vt 0.000000 0.000000
vt 0.000000 0.000000
vt 0.000000 0.000000
vt 0.000000 0.000000
vt 0.000000 0.000000
vt 0.000000 0.000000
vt 0.000000 0.000000
vt 0.000000 0.000000
vt 0.000000 0.000000
vt 0.000000 0.000000
vt 0.000000 0.000000
vt 0.000000 0.000000
vt 0.000000 0.000000
vt 0.000000 0.000000
vt 0.000000 0.000000
vt 0.000000 0.000000
vt 0.000000 0.000000
vt 0.000000 0.000000
vt 0.000000 0.000000
vt 0.000000 0.000000
vt 0.000000 0.000000
vt 0.000000 0.000000
vt 0.000000 0.000000
vt 0.000000 0.000000
vt 0.000000 0.000000
vt 0.000000 0.000000
vt 0.000000 0.000000
vt 0.000000 0.000000
vt 0.000000 0.000000
vt 0.000000 0.000000
vt 0.000000 0.000000
vt 0.000000 0.000000
vt 0.000000 0.000000
vt 0.000000 0.000000
vt 0.000000 0.000000
vt 0.000000 0.000000
vt 0.000000 0.000000
vt 0.000000 0.000000
vt 0.000000 0.000000
vt 0.000000 0.000000
vt 0.000000 0.000000
vt 0.000000 0.000000
vt 0.000000 0.000000
vt 0.000000 0.000000
vt 0.000000 0.000000
vt 0.000000 0.000000
vt 0.000000 0.000000
vt 0.000000 0.000000
vt 0.000000 0.000000
vt 0.000000 0.000000
vt 0.000000 0.000000
vt 0.000000 0.000000
vt 0.000000 0.000000
vt 0.000000 0.000000
vt 0.000000 0.000000
vt 0.000000 0.000000
vt 0.000000 0.000000
vt 0.000000 0.000000
vt 0.000000 0.000000
vt 0.000000 0.000000
vt 0.000000 0.000000
vt 0.000000 0.000000
vt 0.000000 0.000000
vt 0.000000 0.000000
vt 0.000000 0.000000
vt 0.000000 0.000000
vt 0.000000 0.000000
vt 0.000000 0.000000
vt 0.000000 0.000000
vt 0.000000 0.000000
vt 0.000000 0.000000
vt 0.000000 0.000000
vt 0.000000 0.000000
vt 0.000000 0.000000
vt 0.000000 0.000000
vt 0.000000 0.000000
vt 0.000000 0.000000
vt 0.000000 0.000000
vt 0.000000 0.000000
vt 0.000000 0.000000
vt 0.000000 0.000000
vt 0.000000 0.000000
vt 0.000000 0.000000
vt 0.000000 0.000000
vt 0.000000 0.000000
vt 0.000000 0.000000
vt 0.000000 0.000000
vt 0.000000 0.000000
vn -0.984220 0.176950 0.000040
vn -0.984220 0.176950 0.000040
vn -0.984220 0.176950 0.000040
vn -0.200739 0.498078 -0.843577
vn -0.200739 0.498078 -0.843577
vn -0.200739 0.498078 -0.843577
vn -0.570609 -0.818189 0.070510
vn -0.570609 -0.818189 0.070510
vn -0.570609 -0.818189 0.070510
vn 0.192760 0.920048 0.341109
vn 0.192760 0.920048 0.341109
vn 0.192760 0.920048 0.341109
vn -0.399079 0.906977 0.134640
vn -0.399079 0.906977 0.134640
vn -0.399079 0.906977 0.134640
vn -0.399079 0.906977 0.134640
vn 0.530389 -0.274190 -0.802189
vn 0.530389 -0.274190 -0.802189
vn 0.530389 -0.274190 -0.802189
vn 0.000000 0.507451 -0.861681
vn 0.000000 0.507451 -0.861681
vn 0.000000 0.507451 -0.861681
vn 0.000120 0.507362 -0.861733
vn 0.000120 0.507362 -0.861733
vn 0.000120 0.507362 -0.861733
vn -0.000000 0.507451 -0.861681
vn -0.000000 0.507451 -0.861681
vn -0.000000 0.507451 -0.861681
vn -0.000000 0.507451 -0.861681
vn 0.000000 0.507451 -0.861681
vn 0.000000 0.507451 -0.861681
vn 0.000000 0.507451 -0.861681
vn 0.000000 0.507451 -0.861681
vn -0.000000 0.507451 -0.861681
vn 0.101400 0.718102 -0.688512
vn 0.101400 0.718102 -0.688512
vn 0.101400 0.718102 -0.688512
vn 0.000010 0.507431 -0.861692
vn 0.000010 0.507431 -0.861692
vn 0.000010 0.507431 -0.861692
vn -0.000010 0.507451 -0.861681
vn -0.000010 0.507451 -0.861681
vn -0.000010 0.507451 -0.861681
vn 0.000000 0.507439 -0.861688
vn 0.000000 0.507439 -0.861688
vn 0.000000 0.507439 -0.861688
vn -0.000000 0.507451 -0.861681
vn -0.000000 0.507451 -0.861681
vn -0.000000 0.507451 -0.861681
vn -0.000000 0.507451 -0.861681
vn 0.100841 0.727315 -0.678855
vn 0.100841 0.727315 -0.678855
vn 0.100841 0.727315 -0.678855
vn -0.000000 0.507439 -0.861688
vn -0.000000 0.507439 -0.861688
vn 0.053880 0.437139 -0.897779
vn 0.053880 0.437139 -0.897779
vn 0.053880 0.437139 -0.897779
vn 0.006240 0.593851 -0.804551
vn 0.006240 0.593851 -0.804551
vn 0.006240 0.593851 -0.804551
vn 0.008270 0.578213 -0.815844
vn 0.008270 0.578213 -0.815844
vn 0.008270 0.578213 -0.815844
vn -0.982293 0.187311 0.003820
vn -0.982293 0.187311 0.003820
vn -0.982293 0.187311 0.003820
vn -0.983014 0.183421 0.006420
vn -0.983014 0.183421 0.006420
vn -0.983014 0.183421 0.006420
vn -0.982333 0.187071 0.005060
vn -0.982333 0.187071 0.005060
vn -0.982333 0.187071 0.005060
vn -0.984160 0.177280 0.000000
vn -0.984160 0.177280 0.000000
vn -0.984160 0.177280 0.000000
vn -0.984160 0.177280 0.000000
vn -0.895054 0.182601 -0.406862
vn -0.895054 0.182601 -0.406862
vn -0.895054 0.182601 -0.406862
vn -0.726766 0.421548 -0.542317
vn -0.726766 0.421548 -0.542317
vn -0.726766 0.421548 -0.542317
vn -0.685162 0.402711 -0.606941
vn -0.685162 0.402711 -0.606941
vn -0.685162 0.402711 -0.606941
vn -0.974038 0.225450 -0.020560
vn -0.974038 0.225450 -0.020560
vn -0.974038 0.225450 -0.020560
vn -0.974038 0.225450 -0.020560
vn -0.740451 -0.528111 0.415730
vn -0.740451 -0.528111 0.415730
vn -0.740451 -0.528111 0.415730
vn -0.740451 -0.528111 0.415730
vn 0.011230 0.996900 0.077880
vn 0.011230 0.996900 0.077880
vn 0.011230 0.996900 0.077880
vn 0.011230 0.996900 0.077880
vn -0.315151 0.941892 -0.116270
vn -0.315151 0.941892 -0.116270
vn -0.315151 0.941892 -0.116270
vn -0.315151 0.941892 -0.116270
vn 0.399719 0.529549 0.748199
vn 0.399719 0.529549 0.748199
vn 0.399719 0.529549 0.748199
vn 0.399719 0.529549 0.748199
vn -0.710232 -0.628262 -0.317581
vn -0.710232 -0.628262 -0.317581
vn -0.710232 -0.628262 -0.317581
vn -0.710232 -0.628262 -0.317581
vn 0.744829 -0.162130 -0.647259
vn 0.744829 -0.162130 -0.647259
vn 0.744829 -0.162130 -0.647259
vn 0.744829 -0.162130 -0.647259
vn -0.479390 -0.669730 -0.567140
vn -0.479390 -0.669730 -0.567140
vn -0.479390 -0.669730 -0.567140
vn -0.479390 -0.669730 -0.567140
vn -0.717468 0.439149 -0.540729
vn -0.717468 0.439149 -0.540729
vn -0.717468 0.439149 -0.540729
vn -0.882552 -0.432881 -0.183620
vn -0.882552 -0.432881 -0.183620
vn -0.882552 -0.432881 -0.183620
vn -0.729315 0.387982 -0.563534
vn -0.729315 0.387982 -0.563534
vn -0.729315 0.387982 -0.563534
vn -0.705330 0.419550 -0.571390
vn -0.705330 0.419550 -0.571390
vn -0.705330 0.419550 -0.571390
vn 0.410721 -0.307671 0.858282
vn 0.410721 -0.307671 0.858282
vn 0.410721 -0.307671 0.858282
vn -0.353831 0.923951 0.145320
vn -0.353831 0.923951 0.145320
vn -0.353831 0.923951 0.145320
vn -0.353831 0.923951 0.145320
vn -0.391520 0.913439 0.111090
vn -0.391520 0.913439 0.111090
vn -0.391520 0.913439 0.111090
vn -0.391520 0.913439 0.111090
vn -0.209891 0.969763 -0.124520
vn -0.209891 0.969763 -0.124520
vn -0.209891 0.969763 -0.124520
vn -0.209891 0.969763 -0.124520
vn -0.317718 0.945545 0.070710
vn -0.317718 0.945545 0.070710
vn -0.317718 0.945545 0.070710
vn -0.301289 0.952987 -0.032250
vn -0.301289 0.952987 -0.032250
vn -0.301289 0.952987 -0.032250
vn -0.317902 0.945475 0.070820
vn -0.317902 0.945475 0.070820
vn -0.317902 0.945475 0.070820
vn -0.317759 0.945537 0.070630
vn -0.317759 0.945537 0.070630
vn -0.317759 0.945537 0.070630
f 1/1/1 2/2/2 3/3/3
f 4/4/4 5/5/5 6/6/6
f 7/7/7 8/8/8 9/9/9
f 10/10/10 11/11/11 12/12/12
f 17/17/17 18/18/18 19/19/19
f 20/20/20 21/21/21 22/22/22
f 23/23/23 24/24/24 25/25/25
f 26/26/26 27/27/27 28/28/28
f 28/28/28 29/29/29 20/20/20
f 30/30/30 31/31/31 32/32/32
f 32/32/32 33/33/33 26/26/26
f 28/28/28 20/20/20 22/22/22
f 32/32/32 26/26/26 28/28/28
f 34/34/34 30/30/30 32/32/32
f 28/28/28 22/22/22 34/34/34
f 34/34/34 32/32/32 28/28/28
f 35/35/35 36/36/36 37/37/37
f 38/38/38 39/39/39 40/40/40
f 41/41/41 42/42/42 43/43/43
f 44/44/44 45/45/45 46/46/46
f 47/47/47 48/48/48 49/49/49
f 50/50/50 27/27/27 33/33/33
f 51/51/51 52/52/52 53/53/53
f 44/44/44 54/54/54 55/55/55
f 56/56/56 57/57/57 58/58/58
f 59/59/59 60/60/60 61/61/61
f 62/62/62 63/63/63 64/64/64
f 65/65/65 66/66/66 67/67/67
f 68/68/68 69/69/69 70/70/70
f 71/71/71 72/72/72 73/73/73
f 78/78/78 79/79/79 80/80/80
f 81/81/81 82/82/82 83/83/83
f 84/84/84 85/85/85 86/86/86
f 119/119/119 120/120/120 121/121/121
f 122/122/122 123/123/123 124/124/124
f 125/125/125 126/126/126 127/127/127
f 128/128/128 129/129/129 130/130/130
f 131/131/131 132/132/132 133/133/133
f 146/146/146 147/147/147 148/148/148
f 149/149/149 150/150/150 151/151/151
f 152/152/152 153/153/153 154/154/154
f 155/155/155 156/156/156 157/157/157
f 13/13/13 14/14/14 15/15/15
f 13/13/13 15/15/15 16/16/16
f 74/74/74 75/75/75 76/76/76
f 74/74/74 76/76/76 77/77/77
f 87/87/87 88/88/88 89/89/89
f 87/87/87 89/89/89 90/90/90
f 91/91/91 92/92/92 93/93/93
f 91/91/91 93/93/93 94/94/94
f 95/95/95 96/96/96 97/97/97
f 95/95/95 97/97/97 98/98/98
f 99/99/99 100/100/100 101/101/101
f 99/99/99 101/101/101 102/102/102
f 103/103/103 104/104/104 105/105/105
f 103/103/103 105/105/105 106/106/106
f 107/107/107 108/108/108 109/109/109
f 107/107/107 109/109/109 110/110/110
f 111/111/111 112/112/112 113/113/113
f 111/111/111 113/113/113 114/114/114
f 115/115/115 116/116/116 117/117/117
f 115/115/115 117/117/117 118/118/118
f 134/134/134 135/135/135 136/136/136
f 134/134/134 136/136/136 137/137/137
f 138/138/138 139/139/139 140/140/140
f 138/138/138 140/140/140 141/141/141
f 142/142/142 143/143/143 144/144/144
f 142/142/142 144/144/144 145/145/145
