v 1.336810 -0.707820 4.106200
v 1.783340 -0.243620 4.106330
v 1.535090 -0.574190 4.667060
v 1.301200 -0.802300 4.666380
v 2.197350 -1.492200 8.457990
v 2.414940 -1.496860 8.402810
v 2.502930 -1.803200 8.675470
v 2.326170 -1.813430 8.785010
v 2.308530 -1.650510 9.193280
v 2.478230 -1.903360 9.303230
v 2.410330 -2.092980 9.843540
v 2.321700 -2.022890 9.851130
v 0.846120 -0.761900 4.645320
v 0.769020 -0.602470 4.077690
v 1.336810 -0.707820 4.106200
v 1.301200 -0.802300 4.666380
v -1.025770 -0.496200 4.056160
v -0.975620 -0.602810 4.613040
v -1.272100 -0.465580 4.613040
v -1.601360 -0.207110 4.056160
v -0.504560 -0.580940 7.992350
v -0.553660 -0.667750 7.969250
v -0.495090 -0.652710 7.895110
v -0.413450 -0.544810 7.958530
v -0.559650 -0.412670 4.613040
v -0.975620 -0.602810 4.613040
v -1.025770 -0.496200 4.056160
v -0.525050 -0.207110 4.056160
v 2.475410 -1.982360 8.780960
v 2.691720 -1.740420 8.964680
v 2.774370 -1.906870 9.176840
v 2.558050 -2.148810 8.993120
vt 0.000000 0.000000
vt 0.000000 0.000000
vt 0.000000 0.000000
vt 0.000000 0.000000
vt 0.000000 0.000000
vt 0.000000 0.000000
vt 0.000000 0.000000
vt 0.000000 0.000000
vt 0.000000 0.000000
vt 0.000000 0.000000
vt 0.000000 0.000000
vt 0.000000 0.000000
vt 0.000000 0.000000
vt 0.000000 0.000000
vt 0.000000 0.000000
vt 0.000000 0.000000
vt 0.000000 0.000000
vt 0.000000 0.000000
vt 0.000000 0.000000
vt 0.000000 0.000000
vt 0.000000 0.000000
vt 0.000000 0.000000
vt 0.000000 0.000000
vt 0.000000 0.000000
vt 0.000000 0.000000
vt 0.000000 0.000000
vt 0.000000 0.000000
vt 0.000000 0.000000
vt 0.000000 0.000000
vt 0.000000 0.000000
vt 0.000000 0.000000
vt 0.000000 0.000000
vn 0.710690 -0.698370 -0.084850
vn 0.710690 -0.698370 -0.084850
vn 0.710690 -0.698370 -0.084850
vn 0.710690 -0.698370 -0.084850
vn -0.261869 -0.712517 -0.650957
vn -0.261869 -0.712517 -0.650957
vn -0.261869 -0.712517 -0.650957
vn -0.261869 -0.712517 -0.650957
vn -0.680460 -0.650990 -0.336430
vn -0.680460 -0.650990 -0.336430
vn -0.680460 -0.650990 -0.336430
vn -0.680460 -0.650990 -0.336430
vn -0.127681 -0.968594 -0.213361
vn -0.127681 -0.968594 -0.213361
vn -0.127681 -0.968594 -0.213361
vn -0.127681 -0.968594 -0.213361
vn -0.434651 -0.889112 -0.143380
vn -0.434651 -0.889112 -0.143380
vn -0.434651 -0.889112 -0.143380
vn -0.434651 -0.889112 -0.143380
vn 0.586239 -0.623519 0.517249
vn 0.586239 -0.623519 0.517249
vn 0.586239 -0.623519 0.517249
vn 0.586239 -0.623519 0.517249
vn 0.448951 -0.858751 -0.246960
vn 0.448951 -0.858751 -0.246960
vn 0.448951 -0.858751 -0.246960
vn 0.448951 -0.858751 -0.246960
vn 0.788600 -0.295680 -0.539150
vn 0.788600 -0.295680 -0.539150
vn 0.788600 -0.295680 -0.539150
vn 0.788600 -0.295680 -0.539150
f 1/1/1 2/2/2 3/3/3
f 1/1/1 3/3/3 4/4/4
f 5/5/5 6/6/6 7/7/7
f 5/5/5 7/7/7 8/8/8
f 9/9/9 10/10/10 11/11/11
f 9/9/9 11/11/11 12/12/12
f 13/13/13 14/14/14 15/15/15
f 13/13/13 15/15/15 16/16/16
f 17/17/17 18/18/18 19/19/19
f 17/17/17 19/19/19 20/20/20
f 21/21/21 22/22/22 23/23/23
f 21/21/21 23/23/23 24/24/24
f 25/25/25 26/26/26 27/27/27
f 25/25/25 27/27/27 28/28/28
f 29/29/29 30/30/30 31/31/31
f 29/29/29 31/31/31 32/32/32
