v -1.406280 -0.491810 11.770460
v -1.818480 -0.260040 12.286120
v -1.420970 1.059650 13.433360
v -1.657280 1.177320 13.367670
v -0.212610 -0.645810 10.863770
v -0.234010 -0.620510 10.912610
v -1.818480 -0.260040 12.286120
v -1.406280 -0.491810 11.770460
v -0.234010 -0.620510 10.912610
v -0.236020 -0.629270 10.867130
v -1.762440 -0.224210 12.022890
v -1.818480 -0.260040 12.286120
v -0.236020 -0.629270 10.867130
v -0.212610 -0.645810 10.863770
v -1.406280 -0.491810 11.770460
v -1.762440 -0.224210 12.022890
v -1.657280 1.177320 13.367670
v -1.420970 1.059650 13.433360
v -1.275200 0.292350 14.565780
v -2.299710 0.974070 15.134880
v -1.818480 -0.260040 12.286120
v -1.762440 -0.224210 12.022890
v -1.447650 1.096910 13.445230
v -1.420970 1.059650 13.433360
v -1.762440 -0.224210 12.022890
v -1.406280 -0.491810 11.770460
v -1.657280 1.177320 13.367670
v -1.447650 1.096910 13.445230
v -2.299710 0.974070 15.134880
v -1.275200 0.292350 14.565780
v -1.380660 0.377290 15.192210
v -1.420970 1.059650 13.433360
v -1.447650 1.096910 13.445230
v -1.380660 0.377290 15.192210
v -1.275200 0.292350 14.565780
v -1.447650 1.096910 13.445230
v -1.657280 1.177320 13.367670
v -2.299710 0.974070 15.134880
v -1.380660 0.377290 15.192210
vt 0.000000 0.000000
vt 0.000000 0.000000
vt 0.000000 0.000000
vt 0.000000 0.000000
vt 0.000000 0.000000
vt 0.000000 0.000000
vt 0.000000 0.000000
vt 0.000000 0.000000
vt 0.000000 0.000000
vt 0.000000 0.000000
vt 0.000000 0.000000
vt 0.000000 0.000000
vt 0.000000 0.000000
vt 0.000000 0.000000
vt 0.000000 0.000000
vt 0.000000 0.000000
vt 0.000000 0.000000
vt 0.000000 0.000000
vt 0.000000 0.000000
vt 0.000000 0.000000
vt 0.000000 0.000000
vt 0.000000 0.000000
vt 0.000000 0.000000
vt 0.000000 0.000000
vt 0.000000 0.000000
vt 0.000000 0.000000
vt 0.000000 0.000000
vt 0.000000 0.000000
vt 0.000000 0.000000
vt 0.000000 0.000000
vt 0.000000 0.000000
vt 0.000000 0.000000
vt 0.000000 0.000000
vt 0.000000 0.000000
vt 0.000000 0.000000
vt 0.000000 0.000000
vt 0.000000 0.000000
vt 0.000000 0.000000
vt 0.000000 0.000000
vn -0.875725 0.349138 -0.333478
vn -0.875725 0.349138 -0.333478
vn -0.875725 0.349138 -0.333478
vn -0.875725 0.349138 -0.333478
vn 0.362799 -0.710947 0.602438
vn 0.362799 -0.710947 0.602438
vn 0.362799 -0.710947 0.602438
vn 0.362799 -0.710947 0.602438
vn 0.343529 0.928418 0.141520
vn 0.343529 0.928418 0.141520
vn 0.343529 0.928418 0.141520
vn 0.343529 0.928418 0.141520
vn -0.615421 -0.120960 -0.778862
vn -0.615421 -0.120960 -0.778862
vn -0.615421 -0.120960 -0.778862
vn -0.615421 -0.120960 -0.778862
vn -0.596950 -0.724440 -0.344730
vn -0.596950 -0.724440 -0.344730
vn -0.596950 -0.724440 -0.344730
vn -0.596950 -0.724440 -0.344730
vn 0.957746 -0.286189 0.028630
vn 0.957746 -0.286189 0.028630
vn 0.957746 -0.286189 0.028630
vn 0.957746 -0.286189 0.028630
vn 0.546421 -0.600831 0.583461
vn 0.546421 -0.600831 0.583461
vn 0.546421 -0.600831 0.583461
vn 0.546421 -0.600831 0.583461
vn -0.545431 -0.837872 0.021790
vn -0.545431 -0.837872 0.021790
vn -0.545431 -0.837872 0.021790
vn 0.922669 0.366150 0.120900
vn 0.922669 0.366150 0.120900
vn 0.922669 0.366150 0.120900
vn 0.922669 0.366150 0.120900
vn 0.465332 0.834413 0.295331
vn 0.465332 0.834413 0.295331
vn 0.465332 0.834413 0.295331
vn 0.465332 0.834413 0.295331
f 29/29/29 30/30/30 31/31/31
f 1/1/1 2/2/2 3/3/3
f 1/1/1 3/3/3 4/4/4
f 5/5/5 6/6/6 7/7/7
f 5/5/5 7/7/7 8/8/8
f 9/9/9 10/10/10 11/11/11
f 9/9/9 11/11/11 12/12/12
f 13/13/13 14/14/14 15/15/15
f 13/13/13 15/15/15 16/16/16
f 17/17/17 18/18/18 19/19/19
f 17/17/17 19/19/19 20/20/20
f 21/21/21 22/22/22 23/23/23
f 21/21/21 23/23/23 24/24/24
f 25/25/25 26/26/26 27/27/27
f 25/25/25 27/27/27 28/28/28
f 32/32/32 33/33/33 34/34/34
f 32/32/32 34/34/34 35/35/35
f 36/36/36 37/37/37 38/38/38
f 36/36/36 38/38/38 39/39/39
