v -0.000000 -1.163860 -0.527720
v -0.000000 -1.000000 -0.495620
v -0.866030 -0.500000 -0.495620
v -1.007930 -0.581930 -0.527720
v 1.007930 -0.581930 -0.527720
v 0.866030 -0.500000 -0.495620
v -0.000000 -1.000000 -0.495620
v -0.000000 -1.163860 -0.527720
v -0.866030 0.500000 -0.495620
v -0.866030 0.500000 0.830450
v 0.000000 1.000000 0.830450
v 0.000000 1.000000 -0.495620
v -0.866030 -0.500000 -0.495620
v -0.866030 -0.500000 0.830450
v -0.866030 0.500000 0.830450
v -0.866030 0.500000 -0.495620
v -0.000000 -1.000000 -0.495620
v -0.000000 -1.000000 0.830450
v -0.866030 -0.500000 0.830450
v -0.866030 -0.500000 -0.495620
v 0.866030 -0.500000 -0.495620
v 0.866030 -0.500000 0.830450
v -0.000000 -1.000000 0.830450
v -0.000000 -1.000000 -0.495620
v 0.866030 0.500000 -0.495620
v 0.866030 0.500000 0.830450
v 0.866030 -0.500000 0.830450
v 0.866030 -0.500000 -0.495620
v 0.000000 1.000000 -0.495620
v 0.000000 1.000000 0.830450
v 0.866030 0.500000 0.830450
v 0.866030 0.500000 -0.495620
vt 0.000000 0.000000
vt 0.000000 0.000000
vt 0.000000 0.000000
vt 0.000000 0.000000
vt 0.000000 0.000000
vt 0.000000 0.000000
vt 0.000000 0.000000
vt 0.000000 0.000000
vt 0.000000 0.000000
vt 0.000000 0.000000
vt 0.000000 0.000000
vt 0.000000 0.000000
vt 0.000000 0.000000
vt 0.000000 0.000000
vt 0.000000 0.000000
vt 0.000000 0.000000
vt 0.000000 0.000000
vt 0.000000 0.000000
vt 0.000000 0.000000
vt 0.000000 0.000000
vt 0.000000 0.000000
vt 0.000000 0.000000
vt 0.000000 0.000000
vt 0.000000 0.000000
vt 0.000000 0.000000
vt 0.000000 0.000000
vt 0.000000 0.000000
vt 0.000000 0.000000
vt 0.000000 0.000000
vt 0.000000 0.000000
vt 0.000000 0.000000
vt 0.000000 0.000000
vn -0.110299 -0.191039 0.975366
vn -0.110299 -0.191039 0.975366
vn -0.110299 -0.191039 0.975366
vn -0.110299 -0.191039 0.975366
vn 0.110299 -0.191039 0.975366
vn 0.110299 -0.191039 0.975366
vn 0.110299 -0.191039 0.975366
vn 0.110299 -0.191039 0.975366
vn -0.499998 0.866027 0.000000
vn -0.499998 0.866027 0.000000
vn -0.499998 0.866027 0.000000
vn -0.499998 0.866027 0.000000
vn -1.000000 -0.000000 0.000000
vn -1.000000 -0.000000 0.000000
vn -1.000000 -0.000000 0.000000
vn -1.000000 -0.000000 0.000000
vn -0.499998 -0.866027 0.000000
vn -0.499998 -0.866027 0.000000
vn -0.499998 -0.866027 0.000000
vn -0.499998 -0.866027 0.000000
vn 0.499998 -0.866027 0.000000
vn 0.499998 -0.866027 0.000000
vn 0.499998 -0.866027 0.000000
vn 0.499998 -0.866027 0.000000
vn 1.000000 -0.000000 0.000000
vn 1.000000 -0.000000 0.000000
vn 1.000000 -0.000000 0.000000
vn 1.000000 -0.000000 0.000000
vn 0.499998 0.866027 0.000000
vn 0.499998 0.866027 0.000000
vn 0.499998 0.866027 0.000000
vn 0.499998 0.866027 0.000000
f 1/1/1 2/2/2 3/3/3
f 1/1/1 3/3/3 4/4/4
f 5/5/5 6/6/6 7/7/7
f 5/5/5 7/7/7 8/8/8
f 9/9/9 10/10/10 11/11/11
f 9/9/9 11/11/11 12/12/12
f 13/13/13 14/14/14 15/15/15
f 13/13/13 15/15/15 16/16/16
f 17/17/17 18/18/18 19/19/19
f 17/17/17 19/19/19 20/20/20
f 21/21/21 22/22/22 23/23/23
f 21/21/21 23/23/23 24/24/24
f 25/25/25 26/26/26 27/27/27
f 25/25/25 27/27/27 28/28/28
f 29/29/29 30/30/30 31/31/31
f 29/29/29 31/31/31 32/32/32
