v 0.000000 -0.737260 6.973400
v 0.421080 -0.757190 6.978590
v 0.457860 -0.780720 7.438640
v 0.019800 -0.757700 7.426400
v 0.000000 -0.737260 6.973400
v 0.019800 -0.757700 7.426400
v -0.417070 -0.719600 7.409870
v -0.429080 -0.735570 6.976210
vt 0.000000 0.000000
vt 0.000000 0.000000
vt 0.000000 0.000000
vt 0.000000 0.000000
vt 0.000000 0.000000
vt 0.000000 0.000000
vt 0.000000 0.000000
vt 0.000000 0.000000
vn -0.048970 -0.997785 -0.045020
vn -0.048970 -0.997785 -0.045020
vn -0.048970 -0.997785 -0.045020
vn -0.048970 -0.997785 -0.045020
vn -0.045840 -0.998943 -0.003400
vn -0.045840 -0.998943 -0.003400
vn -0.045840 -0.998943 -0.003400
vn -0.045840 -0.998943 -0.003400
f 1/1/1 2/2/2 3/3/3
f 1/1/1 3/3/3 4/4/4
f 5/5/5 6/6/6 7/7/7
f 5/5/5 7/7/7 8/8/8
