v 0.320650 0.220000 10.558490
v 0.382640 0.398130 10.545550
v 0.393430 0.407710 10.800190
v 0.462060 0.204240 10.701370
v 0.198140 0.052590 10.491250
v 0.320650 0.220000 10.558490
v 0.462060 0.204240 10.701370
v 0.380700 -0.195580 10.592770
v 0.317110 0.580220 10.500950
v 0.185440 0.675170 10.497200
v 0.288660 0.692120 10.686330
v 0.410200 0.586480 10.723130
v 0.032790 -0.020920 10.432590
v 0.198140 0.052590 10.491250
v 0.380700 -0.195580 10.592770
v 0.093890 -0.475930 10.514090
v 0.185440 0.675170 10.497200
v 0.007210 0.731400 10.490870
v 0.110620 0.746930 10.679980
v 0.288660 0.692120 10.686330
v 0.382640 0.398130 10.545550
v 0.317110 0.580220 10.500950
v 0.410200 0.586480 10.723130
v 0.393430 0.407710 10.800190
v 0.393430 0.407710 10.800190
v 0.410200 0.586480 10.723130
v 0.431380 0.592880 10.896850
v 0.495800 0.398310 10.992790
v 0.315100 -0.018680 11.629630
v 0.289690 -0.253360 11.404930
v 0.457870 -0.085580 11.357180
v 0.315100 -0.018680 11.629630
v 0.457870 -0.085580 11.357180
v 0.436410 0.086910 11.282270
v 0.436410 0.086910 11.282270
v 0.428520 0.150250 11.254760
v 0.367150 0.018020 11.633150
v 0.436410 0.086910 11.282270
v 0.367150 0.018020 11.633150
v 0.315100 -0.018680 11.629630
v 0.043610 -0.435160 11.536870
v 0.315100 -0.018680 11.629630
v 0.123590 -0.017780 11.780330
v -0.012820 -0.096280 11.727230
v 0.108970 -0.429020 11.239680
v 0.128130 -0.407980 11.109600
v 0.211560 -0.338880 11.114350
v 0.043610 -0.435160 11.536870
v 0.131470 -0.451850 11.308320
v 0.289690 -0.253360 11.404930
v 0.315100 -0.018680 11.629630
v 0.043610 -0.435160 11.536870
v 0.131470 -0.451850 11.308320
v 0.061260 -0.464160 11.222340
v 0.211560 -0.338880 11.114350
v 0.285220 -0.269730 11.141600
v 0.360980 -0.243620 11.199210
v 0.209880 -0.337480 11.178570
v 0.354120 -0.205040 11.167090
v 0.431150 -0.126350 11.214420
v 0.457870 -0.085580 11.357180
v 0.429100 -0.114130 11.347490
v 0.210380 -0.332840 11.215140
v 0.208220 -0.333280 11.273160
v 0.143820 -0.397170 11.251490
v 0.143820 -0.397170 11.251490
v 0.108970 -0.429020 11.239680
v 0.211560 -0.338880 11.114350
v 0.209880 -0.337480 11.178570
v 0.210380 -0.332840 11.215140
v 0.143820 -0.397170 11.251490
v 0.143820 -0.397170 11.251490
v 0.211560 -0.338880 11.114350
v 0.209880 -0.337480 11.178570
v 0.429100 -0.114130 11.347490
v 0.262910 -0.279010 11.291570
v 0.300560 -0.237130 11.234050
v 0.360980 -0.243620 11.199210
v 0.285220 -0.269730 11.141600
v 0.354120 -0.205040 11.167090
v 0.429100 -0.114130 11.347490
v 0.300560 -0.237130 11.234050
v 0.360980 -0.243620 11.199210
v 0.360980 -0.243620 11.199210
v 0.354120 -0.205040 11.167090
v 0.429100 -0.114130 11.347490
v 0.210380 -0.332840 11.215140
v 0.300560 -0.237130 11.234050
v 0.262910 -0.279010 11.291570
v 0.208220 -0.333280 11.273160
v -0.320320 0.128930 10.530610
v -0.463410 0.072760 10.661110
v -0.527980 0.262090 10.759370
v -0.428060 0.282950 10.510290
v -0.150840 0.003010 10.476070
v -0.265170 -0.287340 10.564680
v -0.463410 0.072760 10.661110
v -0.320320 0.128930 10.530610
v -0.412190 0.476610 10.469230
v -0.521910 0.454050 10.682590
v -0.431860 0.589750 10.654990
v -0.312280 0.604460 10.475550
v 0.032790 -0.020920 10.432590
v 0.093890 -0.475930 10.514090
v -0.265170 -0.287340 10.564680
v -0.150840 0.003010 10.476070
v -0.312280 0.604460 10.475550
v -0.431860 0.589750 10.654990
v -0.276200 0.691970 10.663160
v -0.156850 0.708090 10.483730
v -0.428060 0.282950 10.510290
v -0.527980 0.262090 10.759370
v -0.521910 0.454050 10.682590
v -0.412190 0.476610 10.469230
v -0.527980 0.262090 10.759370
v -0.574450 0.246250 10.946240
v -0.628820 0.426460 10.849940
v -0.521910 0.454050 10.682590
v 0.043610 -0.435160 11.536870
v -0.012820 -0.096280 11.727230
v -0.169680 -0.059440 11.767570
v -0.339840 -0.111730 11.601150
v 0.004660 -0.443840 11.235140
v -0.107890 -0.384260 11.100460
v -0.008450 -0.427390 11.103660
v 0.043610 -0.435160 11.536870
v -0.339840 -0.111730 11.601150
v -0.259150 -0.343030 11.339860
v -0.016360 -0.472860 11.301890
v 0.043610 -0.435160 11.536870
v 0.061260 -0.464160 11.222340
v -0.016360 -0.472860 11.301890
v -0.107890 -0.384260 11.100460
v -0.109840 -0.383230 11.171160
v -0.310900 -0.283410 11.168530
v -0.199910 -0.338650 11.120500
v -0.038540 -0.423080 11.243560
v -0.119770 -0.379870 11.258900
v -0.117020 -0.379350 11.200890
v -0.109840 -0.383230 11.171160
v -0.107890 -0.384260 11.100460
v 0.004660 -0.443840 11.235140
v -0.038540 -0.423080 11.243560
v -0.117020 -0.379350 11.200890
v -0.109840 -0.383230 11.171160
v -0.109840 -0.383230 11.171160
v 0.004660 -0.443840 11.235140
v -0.038540 -0.423080 11.243560
v -0.117020 -0.379350 11.200890
v -0.119770 -0.379870 11.258900
v -0.188750 -0.343180 11.271920
v -0.260740 -0.312720 11.210910
v 0.131470 -0.451850 11.308320
v 0.123830 -0.439960 11.240710
v 0.061260 -0.464160 11.222340
v -0.011660 -0.457630 11.260220
v 0.004660 -0.443840 11.235140
v 0.061260 -0.464160 11.222340
v -0.016360 -0.472860 11.301890
v 0.431150 -0.126350 11.214420
v 0.436410 0.086910 11.282270
v 0.457870 -0.085580 11.357180
v -0.434650 -0.212390 11.318360
v -0.385590 -0.242390 11.178890
v -0.260740 -0.312720 11.210910
v -0.260740 -0.312720 11.210910
v -0.188750 -0.343180 11.271920
v -0.434650 -0.212390 11.318360
v -0.385590 -0.242390 11.178890
v -0.199910 -0.338650 11.120500
v -0.310900 -0.283410 11.168530
v -0.310900 -0.283410 11.168530
v -0.260740 -0.312720 11.210910
v -0.385590 -0.242390 11.178890
vt 0.000000 0.000000
vt 0.000000 0.000000
vt 0.000000 0.000000
vt 0.000000 0.000000
vt 0.000000 0.000000
vt 0.000000 0.000000
vt 0.000000 0.000000
vt 0.000000 0.000000
vt 0.000000 0.000000
vt 0.000000 0.000000
vt 0.000000 0.000000
vt 0.000000 0.000000
vt 0.000000 0.000000
vt 0.000000 0.000000
vt 0.000000 0.000000
vt 0.000000 0.000000
vt 0.000000 0.000000
vt 0.000000 0.000000
vt 0.000000 0.000000
vt 0.000000 0.000000
vt 0.000000 0.000000
vt 0.000000 0.000000
vt 0.000000 0.000000
vt 0.000000 0.000000
vt 0.000000 0.000000
vt 0.000000 0.000000
vt 0.000000 0.000000
vt 0.000000 0.000000
vt 0.000000 0.000000
vt 0.000000 0.000000
vt 0.000000 0.000000
vt 0.000000 0.000000
vt 0.000000 0.000000
vt 0.000000 0.000000
vt 0.000000 0.000000
vt 0.000000 0.000000
vt 0.000000 0.000000
vt 0.000000 0.000000
vt 0.000000 0.000000
vt 0.000000 0.000000
vt 0.000000 0.000000
vt 0.000000 0.000000
vt 0.000000 0.000000
vt 0.000000 0.000000
vt 0.000000 0.000000
vt 0.000000 0.000000
vt 0.000000 0.000000
vt 0.000000 0.000000
vt 0.000000 0.000000
vt 0.000000 0.000000
vt 0.000000 0.000000
vt 0.000000 0.000000
vt 0.000000 0.000000
vt 0.000000 0.000000
vt 0.000000 0.000000
vt 0.000000 0.000000
vt 0.000000 0.000000
vt 0.000000 0.000000
vt 0.000000 0.000000
vt 0.000000 0.000000
vt 0.000000 0.000000
vt 0.000000 0.000000
vt 0.000000 0.000000
vt 0.000000 0.000000
vt 0.000000 0.000000
vt 0.000000 0.000000
vt 0.000000 0.000000
vt 0.000000 0.000000
vt 0.000000 0.000000
vt 0.000000 0.000000
vt 0.000000 0.000000
vt 0.000000 0.000000
vt 0.000000 0.000000
vt 0.000000 0.000000
vt 0.000000 0.000000
vt 0.000000 0.000000
vt 0.000000 0.000000
vt 0.000000 0.000000
vt 0.000000 0.000000
vt 0.000000 0.000000
vt 0.000000 0.000000
vt 0.000000 0.000000
vt 0.000000 0.000000
vt 0.000000 0.000000
vt 0.000000 0.000000
vt 0.000000 0.000000
vt 0.000000 0.000000
vt 0.000000 0.000000
vt 0.000000 0.000000
vt 0.000000 0.000000
vt 0.000000 0.000000
vt 0.000000 0.000000
vt 0.000000 0.000000
vt 0.000000 0.000000
vt 0.000000 0.000000
vt 0.000000 0.000000
vt 0.000000 0.000000
vt 0.000000 0.000000
vt 0.000000 0.000000
vt 0.000000 0.000000
vt 0.000000 0.000000
vt 0.000000 0.000000
vt 0.000000 0.000000
vt 0.000000 0.000000
vt 0.000000 0.000000
vt 0.000000 0.000000
vt 0.000000 0.000000
vt 0.000000 0.000000
vt 0.000000 0.000000
vt 0.000000 0.000000
vt 0.000000 0.000000
vt 0.000000 0.000000
vt 0.000000 0.000000
vt 0.000000 0.000000
vt 0.000000 0.000000
vt 0.000000 0.000000
vt 0.000000 0.000000
vt 0.000000 0.000000
vt 0.000000 0.000000
vt 0.000000 0.000000
vt 0.000000 0.000000
vt 0.000000 0.000000
vt 0.000000 0.000000
vt 0.000000 0.000000
vt 0.000000 0.000000
vt 0.000000 0.000000
vt 0.000000 0.000000
vt 0.000000 0.000000
vt 0.000000 0.000000
vt 0.000000 0.000000
vt 0.000000 0.000000
vt 0.000000 0.000000
vt 0.000000 0.000000
vt 0.000000 0.000000
vt 0.000000 0.000000
vt 0.000000 0.000000
vt 0.000000 0.000000
vt 0.000000 0.000000
vt 0.000000 0.000000
vt 0.000000 0.000000
vt 0.000000 0.000000
vt 0.000000 0.000000
vt 0.000000 0.000000
vt 0.000000 0.000000
vt 0.000000 0.000000
vt 0.000000 0.000000
vt 0.000000 0.000000
vt 0.000000 0.000000
vt 0.000000 0.000000
vt 0.000000 0.000000
vt 0.000000 0.000000
vt 0.000000 0.000000
vt 0.000000 0.000000
vt 0.000000 0.000000
vt 0.000000 0.000000
vt 0.000000 0.000000
vt 0.000000 0.000000
vt 0.000000 0.000000
vt 0.000000 0.000000
vt 0.000000 0.000000
vt 0.000000 0.000000
vt 0.000000 0.000000
vt 0.000000 0.000000
vt 0.000000 0.000000
vt 0.000000 0.000000
vt 0.000000 0.000000
vt 0.000000 0.000000
vt 0.000000 0.000000
vt 0.000000 0.000000
vt 0.000000 0.000000
vt 0.000000 0.000000
vt 0.000000 0.000000
vt 0.000000 0.000000
vt 0.000000 0.000000
vn 0.930060 0.096010 -0.354640
vn 0.930060 0.096010 -0.354640
vn 0.930060 0.096010 -0.354640
vn 0.930060 0.096010 -0.354640
vn 0.614292 0.023710 -0.788723
vn 0.614292 0.023710 -0.788723
vn 0.614292 0.023710 -0.788723
vn 0.614292 0.023710 -0.788723
vn 0.617467 0.711757 -0.334868
vn 0.617467 0.711757 -0.334868
vn 0.617467 0.711757 -0.334868
vn 0.617467 0.711757 -0.334868
vn 0.368379 -0.112550 -0.922838
vn 0.368379 -0.112550 -0.922838
vn 0.368379 -0.112550 -0.922838
vn 0.368379 -0.112550 -0.922838
vn 0.296579 0.924006 -0.241359
vn 0.296579 0.924006 -0.241359
vn 0.296579 0.924006 -0.241359
vn 0.296579 0.924006 -0.241359
vn 0.974940 0.059450 -0.214380
vn 0.974940 0.059450 -0.214380
vn 0.974940 0.059450 -0.214380
vn 0.974940 0.059450 -0.214380
vn 0.947137 -0.027250 -0.319669
vn 0.947137 -0.027250 -0.319669
vn 0.947137 -0.027250 -0.319669
vn 0.947137 -0.027250 -0.319669
vn 0.681320 -0.543390 0.490440
vn 0.681320 -0.543390 0.490440
vn 0.681320 -0.543390 0.490440
vn 0.877060 0.278980 0.391070
vn 0.877060 0.278980 0.391070
vn 0.877060 0.278980 0.391070
vn 0.948488 0.217900 0.229979
vn 0.948488 0.217900 0.229979
vn 0.948488 0.217900 0.229979
vn 0.577720 -0.814940 -0.045970
vn 0.577720 -0.814940 -0.045970
vn 0.577720 -0.814940 -0.045970
vn 0.354398 -0.520897 0.776575
vn 0.354398 -0.520897 0.776575
vn 0.354398 -0.520897 0.776575
vn 0.354398 -0.520897 0.776575
vn 0.638608 -0.768937 -0.030260
vn 0.638608 -0.768937 -0.030260
vn 0.638608 -0.768937 -0.030260
vn 0.674167 -0.602587 0.427068
vn 0.674167 -0.602587 0.427068
vn 0.674167 -0.602587 0.427068
vn 0.674167 -0.602587 0.427068
vn -0.057990 0.993797 -0.094890
vn -0.057990 0.993797 -0.094890
vn -0.057990 0.993797 -0.094890
vn 0.602677 -0.774647 -0.191579
vn 0.602677 -0.774647 -0.191579
vn 0.602677 -0.774647 -0.191579
vn 0.602677 -0.774647 -0.191579
vn 0.689062 -0.720622 0.076790
vn 0.689062 -0.720622 0.076790
vn 0.689062 -0.720622 0.076790
vn 0.689062 -0.720622 0.076790
vn 0.700642 -0.713212 0.020740
vn 0.700642 -0.713212 0.020740
vn 0.700642 -0.713212 0.020740
vn 0.671372 -0.740932 0.016710
vn 0.671372 -0.740932 0.016710
vn 0.671372 -0.740932 0.016710
vn 0.714651 -0.695061 0.078520
vn 0.714651 -0.695061 0.078520
vn 0.714651 -0.695061 0.078520
vn 0.690282 -0.722752 0.033780
vn 0.690282 -0.722752 0.033780
vn 0.690282 -0.722752 0.033780
vn 0.711238 -0.701488 -0.045340
vn 0.711238 -0.701488 -0.045340
vn 0.711238 -0.701488 -0.045340
vn 0.636272 -0.423741 -0.644672
vn 0.636272 -0.423741 -0.644672
vn 0.636272 -0.423741 -0.644672
vn 0.245290 -0.783230 0.571300
vn 0.245290 -0.783230 0.571300
vn 0.245290 -0.783230 0.571300
vn 0.936308 -0.111050 -0.333159
vn 0.936308 -0.111050 -0.333159
vn 0.936308 -0.111050 -0.333159
vn 0.719999 -0.693949 -0.006130
vn 0.719999 -0.693949 -0.006130
vn 0.719999 -0.693949 -0.006130
vn 0.719999 -0.693949 -0.006130
vn -0.785829 -0.267810 -0.557450
vn -0.785829 -0.267810 -0.557450
vn -0.785829 -0.267810 -0.557450
vn -0.785829 -0.267810 -0.557450
vn -0.527220 -0.138470 -0.838370
vn -0.527220 -0.138470 -0.838370
vn -0.527220 -0.138470 -0.838370
vn -0.527220 -0.138470 -0.838370
vn -0.760168 0.516029 -0.394789
vn -0.760168 0.516029 -0.394789
vn -0.760168 0.516029 -0.394789
vn -0.760168 0.516029 -0.394789
vn -0.242631 -0.199361 -0.949413
vn -0.242631 -0.199361 -0.949413
vn -0.242631 -0.199361 -0.949413
vn -0.242631 -0.199361 -0.949413
vn -0.520099 0.807979 -0.276890
vn -0.520099 0.807979 -0.276890
vn -0.520099 0.807979 -0.276890
vn -0.520099 0.807979 -0.276890
vn -0.905433 -0.076110 -0.417611
vn -0.905433 -0.076110 -0.417611
vn -0.905433 -0.076110 -0.417611
vn -0.905433 -0.076110 -0.417611
vn -0.860687 -0.302239 -0.409719
vn -0.860687 -0.302239 -0.409719
vn -0.860687 -0.302239 -0.409719
vn -0.860687 -0.302239 -0.409719
vn -0.260369 -0.608237 0.749837
vn -0.260369 -0.608237 0.749837
vn -0.260369 -0.608237 0.749837
vn -0.260369 -0.608237 0.749837
vn -0.394670 -0.915740 -0.075210
vn -0.394670 -0.915740 -0.075210
vn -0.394670 -0.915740 -0.075210
vn -0.494262 -0.772733 0.398232
vn -0.494262 -0.772733 0.398232
vn -0.494262 -0.772733 0.398232
vn -0.494262 -0.772733 0.398232
vn -0.212960 0.971769 -0.101550
vn -0.212960 0.971769 -0.101550
vn -0.212960 0.971769 -0.101550
vn -0.444423 -0.895815 0.001810
vn -0.444423 -0.895815 0.001810
vn -0.444423 -0.895815 0.001810
vn -0.444423 -0.895815 0.001810
vn -0.473851 -0.880082 -0.030360
vn -0.473851 -0.880082 -0.030360
vn -0.473851 -0.880082 -0.030360
vn -0.467750 -0.883861 -0.000030
vn -0.467750 -0.883861 -0.000030
vn -0.467750 -0.883861 -0.000030
vn -0.485457 -0.874255 -0.003040
vn -0.485457 -0.874255 -0.003040
vn -0.485457 -0.874255 -0.003040
vn -0.441470 -0.895400 -0.058000
vn -0.441470 -0.895400 -0.058000
vn -0.441470 -0.895400 -0.058000
vn -0.435219 -0.900127 0.018880
vn -0.435219 -0.900127 0.018880
vn -0.435219 -0.900127 0.018880
vn -0.435219 -0.900127 0.018880
vn -0.404402 0.891854 0.202621
vn -0.404402 0.891854 0.202621
vn -0.404402 0.891854 0.202621
vn -0.313310 -0.830850 -0.459920
vn -0.313310 -0.830850 -0.459920
vn -0.313310 -0.830850 -0.459920
vn -0.313310 -0.830850 -0.459920
vn 0.980234 0.037620 -0.194231
vn 0.980234 0.037620 -0.194231
vn 0.980234 0.037620 -0.194231
vn -0.493391 -0.869702 0.013560
vn -0.493391 -0.869702 0.013560
vn -0.493391 -0.869702 0.013560
vn -0.453830 -0.886221 0.093010
vn -0.453830 -0.886221 0.093010
vn -0.453830 -0.886221 0.093010
vn -0.491879 -0.857588 -0.150330
vn -0.491879 -0.857588 -0.150330
vn -0.491879 -0.857588 -0.150330
vn -0.484491 -0.874242 -0.031120
vn -0.484491 -0.874242 -0.031120
vn -0.484491 -0.874242 -0.031120
f 29/29/29 30/30/30 31/31/31
f 32/32/32 33/33/33 34/34/34
f 35/35/35 36/36/36 37/37/37
f 38/38/38 39/39/39 40/40/40
f 45/45/45 46/46/46 47/47/47
f 52/52/52 53/53/53 54/54/54
f 63/63/63 64/64/64 65/65/65
f 66/66/66 67/67/67 68/68/68
f 69/69/69 70/70/70 71/71/71
f 72/72/72 73/73/73 74/74/74
f 75/75/75 76/76/76 77/77/77
f 78/78/78 79/79/79 80/80/80
f 81/81/81 82/82/82 83/83/83
f 84/84/84 85/85/85 86/86/86
f 123/123/123 124/124/124 125/125/125
f 130/130/130 131/131/131 132/132/132
f 137/137/137 138/138/138 139/139/139
f 140/140/140 141/141/141 142/142/142
f 143/143/143 144/144/144 145/145/145
f 146/146/146 147/147/147 148/148/148
f 153/153/153 154/154/154 155/155/155
f 160/160/160 161/161/161 162/162/162
f 163/163/163 164/164/164 165/165/165
f 166/166/166 167/167/167 168/168/168
f 169/169/169 170/170/170 171/171/171
f 172/172/172 173/173/173 174/174/174
f 1/1/1 2/2/2 3/3/3
f 1/1/1 3/3/3 4/4/4
f 5/5/5 6/6/6 7/7/7
f 5/5/5 7/7/7 8/8/8
f 9/9/9 10/10/10 11/11/11
f 9/9/9 11/11/11 12/12/12
f 13/13/13 14/14/14 15/15/15
f 13/13/13 15/15/15 16/16/16
f 17/17/17 18/18/18 19/19/19
f 17/17/17 19/19/19 20/20/20
f 21/21/21 22/22/22 23/23/23
f 21/21/21 23/23/23 24/24/24
f 25/25/25 26/26/26 27/27/27
f 25/25/25 27/27/27 28/28/28
f 41/41/41 42/42/42 43/43/43
f 41/41/41 43/43/43 44/44/44
f 48/48/48 49/49/49 50/50/50
f 48/48/48 50/50/50 51/51/51
f 55/55/55 56/56/56 57/57/57
f 55/55/55 57/57/57 58/58/58
f 59/59/59 60/60/60 61/61/61
f 59/59/59 61/61/61 62/62/62
f 87/87/87 88/88/88 89/89/89
f 87/87/87 89/89/89 90/90/90
f 91/91/91 92/92/92 93/93/93
f 91/91/91 93/93/93 94/94/94
f 95/95/95 96/96/96 97/97/97
f 95/95/95 97/97/97 98/98/98
f 99/99/99 100/100/100 101/101/101
f 99/99/99 101/101/101 102/102/102
f 103/103/103 104/104/104 105/105/105
f 103/103/103 105/105/105 106/106/106
f 107/107/107 108/108/108 109/109/109
f 107/107/107 109/109/109 110/110/110
f 111/111/111 112/112/112 113/113/113
f 111/111/111 113/113/113 114/114/114
f 115/115/115 116/116/116 117/117/117
f 115/115/115 117/117/117 118/118/118
f 119/119/119 120/120/120 121/121/121
f 119/119/119 121/121/121 122/122/122
f 126/126/126 127/127/127 128/128/128
f 126/126/126 128/128/128 129/129/129
f 133/133/133 134/134/134 135/135/135
f 133/133/133 135/135/135 136/136/136
f 149/149/149 150/150/150 151/151/151
f 149/149/149 151/151/151 152/152/152
f 156/156/156 157/157/157 158/158/158
f 156/156/156 158/158/158 159/159/159
