v -26.972824 -6.083460 7.213654
v -27.602320 18.886436 7.213655
v -53.411549 19.515930 7.213655
v -37.884045 -4.404815 7.213655
v -76.283134 10.912854 7.213656
v -51.732895 -25.387920 7.213652
v -26.972824 -6.083460 -9.396119
v -37.884045 -4.404814 -9.396119
v -53.411549 19.515930 -9.396116
v -27.602320 18.886436 -9.395610
v -51.732895 -25.387920 -9.395615
v -76.283134 10.912855 -9.396117
v -26.972824 -6.083460 7.213654
v -37.884045 -4.404815 7.213655
v -37.884045 -4.404814 -9.396119
v -26.972824 -6.083460 -9.396119
v -53.411549 19.515930 7.213655
v -27.602320 18.886436 7.213655
v -27.602320 18.886436 -9.395610
v -53.411549 19.515930 -9.396116
v -37.884045 -4.404815 7.213655
v -51.732895 -25.387920 7.213652
v -51.732895 -25.387920 -9.395615
v -37.884045 -4.404814 -9.396119
v -76.283134 10.912854 7.213656
v -76.283134 10.912855 -9.396117
v -58.293442 -36.103477 7.213651
v -58.293442 -36.103477 -9.395616
v -67.925293 -39.343834 7.213653
v -70.902016 -36.462051 7.213653
v -70.902016 -36.462051 -9.396121
v -67.925293 -39.343834 -9.396119
v -64.483841 -40.287632 7.213653
v -64.483841 -40.287632 -9.396119
v -61.101585 -39.149776 7.213653
v -64.483841 -40.287632 7.213653
v -64.483841 -40.287632 -9.396119
v -61.101585 -39.149773 -9.396119
v -90.489700 4.311828 7.213654
v -90.489700 4.311829 -9.396119
v -92.688622 2.691219 7.213654
v -92.688622 2.691220 -9.396119
v -93.924660 0.411410 7.213653
v -93.924660 0.411411 -9.396119
v -94.009651 -2.180525 7.213653
v -94.009651 -2.180524 -9.396119
v -92.930656 -4.689981 7.213653
v -92.930656 -4.689981 -9.395614
v -90.489700 4.311828 7.213654
v -92.688622 2.691219 7.213654
v -93.924660 0.411410 7.213653
v -94.009651 -2.180525 7.213653
v -92.930656 -4.689981 7.213653
v -70.902016 -36.462051 7.213653
v -67.925293 -39.343834 7.213653
v -64.483841 -40.287632 7.213653
v -61.101585 -39.149776 7.213653
v -58.293442 -36.103477 7.213651
v -58.293442 -36.103477 -9.395616
v -61.101585 -39.149773 -9.396119
v -64.483841 -40.287632 -9.396119
v -67.925293 -39.343834 -9.396119
v -70.902016 -36.462051 -9.396121
v -92.930656 -4.689981 -9.395614
v -94.009651 -2.180524 -9.396119
v -93.924660 0.411411 -9.396119
v -92.688622 2.691220 -9.396119
v -90.489700 4.311829 -9.396119
vt 0.581363 0.427440
vt 0.647448 0.405596
vt 0.673384 0.472699
vt 0.596032 0.454480
vt 0.672340 0.540783
vt 0.554027 0.510547
vt 0.604258 0.252116
vt 0.630482 0.236034
vt 0.706580 0.258931
vt 0.650568 0.304076
vt 0.622138 0.166475
vt 0.739718 0.199446
vt 0.283419 0.498753
vt 0.283419 0.512417
vt 0.262861 0.512417
vt 0.262861 0.498753
vt 0.283419 0.688843
vt 0.283419 0.720797
vt 0.262862 0.720797
vt 0.262861 0.688843
vt 0.283419 0.512417
vt 0.283419 0.543535
vt 0.262861 0.543535
vt 0.262861 0.512417
vt 0.283419 0.658598
vt 0.262861 0.658598
vt 0.283419 0.559086
vt 0.262861 0.559086
vt 0.283419 0.573048
vt 0.283419 0.578176
vt 0.262861 0.578176
vt 0.262861 0.573048
vt 0.283419 0.568631
vt 0.262861 0.568631
vt 0.283419 0.564214
vt 0.283419 0.568631
vt 0.262861 0.568631
vt 0.262861 0.564214
vt 0.283419 0.639209
vt 0.262861 0.639209
vt 0.283419 0.635828
vt 0.262861 0.635828
vt 0.283419 0.632619
vt 0.262861 0.632619
vt 0.283419 0.629409
vt 0.262861 0.629409
vt 0.283419 0.626028
vt 0.262861 0.626028
vt 0.668393 0.584257
vt 0.666212 0.591549
vt 0.661395 0.596936
vt 0.654677 0.599598
vt 0.647079 0.599129
vt 0.543017 0.571246
vt 0.532658 0.566150
vt 0.526944 0.558011
vt 0.526746 0.548069
vt 0.532094 0.537837
vt 0.616789 0.131875
vt 0.617273 0.120340
vt 0.622415 0.111829
vt 0.631433 0.107637
vt 0.642953 0.108404
vt 0.747015 0.136287
vt 0.753828 0.139680
vt 0.758316 0.145344
vt 0.759794 0.152418
vt 0.758037 0.159824
vn 0.000000 -0.000000 1.000000
vn 0.000000 -0.000000 1.000000
vn 0.000000 -0.000000 1.000000
vn 0.000000 -0.000000 1.000000
vn 0.000000 -0.000000 1.000000
vn 0.000000 -0.000000 1.000000
vn 0.000015 0.000015 -1.000000
vn 0.000006 0.000003 -1.000000
vn 0.000002 -0.000002 -1.000000
vn 0.000015 0.000015 -1.000000
vn 0.000002 -0.000006 -1.000000
vn 0.000001 -0.000007 -1.000000
vn -0.152057 -0.988372 -0.000000
vn -0.152057 -0.988372 -0.000000
vn -0.152057 -0.988372 -0.000000
vn -0.152057 -0.988372 -0.000000
vn -0.166910 0.985972 0.000000
vn 0.024383 0.999703 0.000000
vn 0.024383 0.999703 0.000000
vn -0.166911 0.985972 0.000000
vn 0.834609 -0.550842 -0.000000
vn 0.843852 -0.536576 -0.000000
vn 0.843852 -0.536576 -0.000000
vn 0.834609 -0.550842 -0.000000
vn -0.386996 0.922082 0.000000
vn -0.386996 0.922081 0.000000
vn 0.797861 -0.602842 -0.000000
vn 0.797859 -0.602845 -0.000000
vn -0.495515 -0.868599 -0.000000
vn -0.762311 -0.647211 -0.000000
vn -0.762311 -0.647211 -0.000000
vn -0.495516 -0.868599 -0.000000
vn -0.264479 -0.964392 -0.000000
vn -0.264479 -0.964392 -0.000000
vn 0.544079 -0.839034 -0.000000
vn 0.318860 -0.947802 -0.000000
vn 0.318860 -0.947802 -0.000000
vn 0.544070 -0.839040 -0.000000
vn -0.509883 0.860244 0.000000
vn -0.509883 0.860244 0.000000
vn -0.754281 0.656551 0.000000
vn -0.754281 0.656551 0.000000
vn -0.965146 0.261711 0.000000
vn -0.965146 0.261711 0.000000
vn -0.982632 -0.185566 -0.000000
vn -0.982634 -0.185553 -0.000000
vn -0.874614 -0.484819 -0.000000
vn -0.874617 -0.484815 -0.000000
vn 0.000000 -0.000000 1.000000
vn 0.000000 -0.000000 1.000000
vn 0.000000 -0.000000 1.000000
vn 0.000000 -0.000000 1.000000
vn 0.000000 -0.000000 1.000000
vn 0.000000 -0.000000 1.000000
vn 0.000000 -0.000000 1.000000
vn 0.000000 -0.000000 1.000000
vn 0.000000 -0.000000 1.000000
vn 0.000000 -0.000000 1.000000
vn 0.000006 -0.000003 -1.000000
vn 0.000006 -0.000003 -1.000000
vn 0.000006 -0.000003 -1.000000
vn 0.000006 -0.000003 -1.000000
vn 0.000006 -0.000003 -1.000000
vn 0.000006 -0.000003 -1.000000
vn 0.000006 -0.000003 -1.000000
vn 0.000006 -0.000003 -1.000000
vn 0.000006 -0.000003 -1.000000
vn 0.000006 -0.000003 -1.000000
f 1/1/1 2/2/2 3/3/3
f 1/1/1 3/3/3 4/4/4
f 4/4/4 3/3/3 5/5/5
f 4/4/4 5/5/5 6/6/6
f 7/7/7 8/8/8 9/9/9
f 7/7/7 9/9/9 10/10/10
f 8/8/8 11/11/11 12/12/12
f 8/8/8 12/12/12 9/9/9
f 13/13/13 14/14/14 15/15/15
f 13/13/13 15/15/15 16/16/16
f 17/17/17 18/18/18 19/19/19
f 17/17/17 19/19/19 20/20/20
f 21/21/21 22/22/22 23/23/23
f 21/21/21 23/23/23 24/24/24
f 25/25/25 17/17/17 20/20/20
f 25/25/25 20/20/20 26/26/26
f 22/22/22 27/27/27 28/28/28
f 22/22/22 28/28/28 23/23/23
f 29/29/29 30/30/30 31/31/31
f 29/29/29 31/31/31 32/32/32
f 33/33/33 29/29/29 32/32/32
f 33/33/33 32/32/32 34/34/34
f 35/35/35 36/36/36 37/37/37
f 35/35/35 37/37/37 38/38/38
f 27/27/27 35/35/35 38/38/38
f 27/27/27 38/38/38 28/28/28
f 39/39/39 25/25/25 26/26/26
f 39/39/39 26/26/26 40/40/40
f 41/41/41 39/39/39 40/40/40
f 41/41/41 40/40/40 42/42/42
f 43/43/43 41/41/41 42/42/42
f 43/43/43 42/42/42 44/44/44
f 45/45/45 43/43/43 44/44/44
f 45/45/45 44/44/44 46/46/46
f 47/47/47 45/45/45 46/46/46
f 47/47/47 46/46/46 48/48/48
f 30/30/30 47/47/47 48/48/48
f 30/30/30 48/48/48 31/31/31
f 53/53/53 51/51/51 52/52/52
f 51/51/51 53/53/53 50/50/50
f 50/50/50 53/53/53 54/54/54
f 50/50/50 54/54/54 49/49/49
f 49/49/49 54/54/54 5/5/5
f 5/5/5 54/54/54 6/6/6
f 6/6/6 54/54/54 55/55/55
f 6/6/6 55/55/55 56/56/56
f 6/6/6 56/56/56 57/57/57
f 6/6/6 57/57/57 58/58/58
f 66/66/66 64/64/64 65/65/65
f 64/64/64 66/66/66 67/67/67
f 64/64/64 67/67/67 63/63/63
f 63/63/63 67/67/67 68/68/68
f 63/63/63 68/68/68 12/12/12
f 63/63/63 12/12/12 11/11/11
f 63/63/63 11/11/11 62/62/62
f 62/62/62 11/11/11 61/61/61
f 61/61/61 11/11/11 60/60/60
f 60/60/60 11/11/11 59/59/59
# ext.tangent -0.337668 0.941265 0.000000 1.0
# ext.tangent -0.337667 0.941265 0.000000 1.0
# ext.tangent -0.337668 0.941265 0.000000 1.0
# ext.tangent -0.337668 0.941265 0.000000 1.0
# ext.tangent -0.337668 0.941265 0.000000 1.0
# ext.tangent -0.337669 0.941265 0.000000 1.0
# ext.tangent -0.763062 0.646326 -0.000001 1.0
# ext.tangent -0.763062 0.646326 -0.000002 1.0
# ext.tangent -0.763062 0.646326 -0.000003 1.0
# ext.tangent -0.763062 0.646326 -0.000001 1.0
# ext.tangent -0.763064 0.646323 -0.000006 1.0
# ext.tangent -0.763061 0.646326 -0.000006 1.0
# ext.tangent 0.000000 -0.000000 1.000000 1.0
# ext.tangent 0.000000 -0.000000 1.000000 1.0
# ext.tangent 0.000000 -0.000000 1.000000 1.0
# ext.tangent 0.000000 -0.000000 1.000000 1.0
# ext.tangent 0.000000 -0.000000 1.000000 1.0
# ext.tangent 0.000000 -0.000000 1.000000 1.0
# ext.tangent 0.000000 -0.000000 1.000000 1.0
# ext.tangent 0.000002 0.000000 1.000000 1.0
# ext.tangent 0.000000 -0.000000 1.000000 1.0
# ext.tangent 0.000000 -0.000000 1.000000 1.0
# ext.tangent 0.000000 -0.000000 1.000000 1.0
# ext.tangent 0.000000 -0.000000 1.000000 1.0
# ext.tangent 0.000004 0.000001 1.000000 1.0
# ext.tangent 0.000005 0.000002 1.000000 1.0
# ext.tangent 0.000000 -0.000000 1.000000 1.0
# ext.tangent 0.000000 -0.000000 1.000000 1.0
# ext.tangent 0.000000 -0.000000 1.000000 1.0
# ext.tangent 0.000000 -0.000000 1.000000 1.0
# ext.tangent 0.000000 -0.000000 1.000000 1.0
# ext.tangent 0.000000 -0.000000 1.000000 1.0
# ext.tangent 0.000000 -0.000000 1.000000 1.0
# ext.tangent 0.000000 -0.000000 1.000000 1.0
# ext.tangent 0.000000 -0.000000 1.000000 1.0
# ext.tangent 0.000000 -0.000000 1.000000 1.0
# ext.tangent 0.000000 -0.000000 1.000000 1.0
# ext.tangent 0.000000 -0.000000 1.000000 1.0
# ext.tangent 0.000005 0.000003 1.000000 1.0
# ext.tangent 0.000004 0.000002 1.000000 1.0
# ext.tangent 0.000002 0.000003 1.000000 1.0
# ext.tangent 0.000001 0.000001 1.000000 1.0
# ext.tangent 0.000000 0.000001 1.000000 1.0
# ext.tangent 0.000000 -0.000000 1.000000 1.0
# ext.tangent 0.000000 -0.000000 1.000000 1.0
# ext.tangent 0.000000 -0.000000 1.000000 1.0
# ext.tangent 0.000000 -0.000000 1.000000 1.0
# ext.tangent 0.000000 -0.000000 1.000000 1.0
# ext.tangent -0.337667 0.941265 0.000000 1.0
# ext.tangent -0.337670 0.941264 0.000000 1.0
# ext.tangent -0.337676 0.941262 0.000000 1.0
# ext.tangent -0.337676 0.941262 0.000000 1.0
# ext.tangent -0.337673 0.941263 0.000000 1.0
# ext.tangent -0.337667 0.941265 0.000000 1.0
# ext.tangent -0.337668 0.941265 0.000000 1.0
# ext.tangent -0.337663 0.941267 0.000000 1.0
# ext.tangent -0.337672 0.941264 0.000000 1.0
# ext.tangent -0.337688 0.941258 0.000000 1.0
# ext.tangent -0.763089 0.646294 -0.000007 1.0
# ext.tangent -0.763070 0.646316 -0.000007 1.0
# ext.tangent -0.763058 0.646330 -0.000007 1.0
# ext.tangent -0.763062 0.646326 -0.000007 1.0
# ext.tangent -0.763061 0.646326 -0.000007 1.0
# ext.tangent -0.763067 0.646319 -0.000007 1.0
# ext.tangent -0.763075 0.646310 -0.000007 1.0
# ext.tangent -0.763070 0.646316 -0.000007 1.0
# ext.tangent -0.763063 0.646324 -0.000007 1.0
# ext.tangent -0.763062 0.646325 -0.000007 1.0
