v 25.233427 -33.443310 16.552269
v 27.354212 -36.981678 16.552269
v 27.354212 -36.981678 12.052267
v 25.233427 -33.443310 12.052267
v 21.915537 -30.953650 16.552269
v 21.915537 -30.953650 12.052267
v 17.905659 -29.891727 16.552132
v 17.905659 -29.891727 12.052267
v 13.814262 -30.419210 16.552269
v 13.814262 -30.419210 12.052267
v -25.496899 -57.155148 16.552265
v -25.496899 -57.155148 12.052264
v -26.683342 -59.338295 16.552130
v -26.683342 -59.338295 12.052264
v -26.588999 -61.242489 16.552265
v -26.683342 -59.338295 16.552130
v -26.683342 -59.338295 12.052264
v -26.588999 -61.242489 12.052264
v -25.228226 -62.577835 16.552265
v -26.588999 -61.242489 16.552265
v -26.588999 -61.242489 12.052264
v -25.228226 -62.577839 12.052264
v -22.808187 -63.141041 16.552265
v -25.228226 -62.577835 16.552265
v -25.228226 -62.577839 12.052264
v -22.808187 -63.141045 12.052264
v 29.331223 -65.672401 16.552265
v 29.331223 -65.672401 12.052264
v 32.351940 -65.222572 16.552265
v 32.351940 -65.222572 12.052264
v 34.477245 -63.627113 16.552128
v 34.477245 -63.627117 12.052264
v 35.383579 -61.128922 16.552265
v 34.477245 -63.627113 16.552128
v 34.477245 -63.627117 12.052264
v 35.383579 -61.128922 12.052262
v 34.932957 -58.108322 16.552265
v 34.932957 -58.108322 12.052264
v 25.233427 -33.443306 -20.631981
v 25.233427 -33.443306 -16.131979
v 27.354212 -36.981674 -16.131979
v 27.354212 -36.981674 -20.631981
v 21.915537 -30.953650 -20.631981
v 21.915537 -30.953650 -16.131979
v 17.905659 -29.891726 -20.631844
v 17.905659 -29.891727 -16.131979
v 13.814262 -30.419210 -20.631981
v 13.814262 -30.419210 -16.131979
v -25.496899 -57.155148 -20.631979
v -25.496899 -57.155148 -16.131977
v -26.683342 -59.338295 -20.631842
v -26.683342 -59.338291 -16.131977
v -26.588999 -61.242489 -20.631979
v -26.588999 -61.242489 -16.131977
v -26.683342 -59.338291 -16.131977
v -26.683342 -59.338295 -20.631842
v -25.228226 -62.577835 -20.631979
v -25.228226 -62.577835 -16.131977
v -26.588999 -61.242489 -16.131977
v -26.588999 -61.242489 -20.631979
v -22.808187 -63.141041 -20.631979
v -22.808187 -63.141041 -16.131977
v -25.228226 -62.577835 -16.131977
v -25.228226 -62.577835 -20.631979
v 29.331223 -65.672401 -20.631973
v 29.331223 -65.672401 -16.131971
v 32.351940 -65.222572 -20.631973
v 32.351940 -65.222572 -16.131971
v 34.477245 -63.627113 -20.631842
v 34.477245 -63.627113 -16.131971
v 35.383579 -61.128922 -20.631979
v 35.383579 -61.128922 -16.131977
v 34.477245 -63.627113 -16.131971
v 34.477245 -63.627113 -20.631842
v 34.932957 -58.108322 -20.631979
v 34.932957 -58.108318 -16.131977
v -25.496899 -57.155148 16.552265
v -26.683342 -59.338295 16.552130
v -26.588999 -61.242489 16.552265
v -25.228226 -62.577835 16.552265
v -22.808187 -63.141041 16.552265
v 29.331223 -65.672401 16.552265
v 32.351940 -65.222572 16.552265
v 34.477245 -63.627113 16.552128
v 35.383579 -61.128922 16.552265
v 34.932957 -58.108322 16.552265
v 27.354212 -36.981678 16.552269
v 25.233427 -33.443310 16.552269
v 21.915537 -30.953650 16.552269
v 17.905659 -29.891727 16.552132
v 13.814262 -30.419210 16.552269
v -25.496899 -57.155148 12.052264
v 13.814262 -30.419210 12.052267
v 17.905659 -29.891727 12.052267
v 21.915537 -30.953650 12.052267
v 25.233427 -33.443310 12.052267
v 27.354212 -36.981678 12.052267
v 34.932957 -58.108322 12.052264
v 35.383579 -61.128922 12.052262
v 34.477245 -63.627117 12.052264
v 32.351940 -65.222572 12.052264
v 29.331223 -65.672401 12.052264
v -22.808187 -63.141045 12.052264
v -25.228226 -62.577839 12.052264
v -26.588999 -61.242489 12.052264
v -26.683342 -59.338295 12.052264
v -25.496899 -57.155148 -20.631979
v 13.814262 -30.419210 -20.631981
v 17.905659 -29.891726 -20.631844
v 21.915537 -30.953650 -20.631981
v 25.233427 -33.443306 -20.631981
v 27.354212 -36.981674 -20.631981
v 34.932957 -58.108322 -20.631979
v 35.383579 -61.128922 -20.631979
v 34.477245 -63.627113 -20.631842
v 32.351940 -65.222572 -20.631973
v 29.331223 -65.672401 -20.631973
v -22.808187 -63.141041 -20.631979
v -25.228226 -62.577835 -20.631979
v -26.588999 -61.242489 -20.631979
v -26.683342 -59.338295 -20.631842
v -25.496899 -57.155148 -16.131977
v -26.683342 -59.338291 -16.131977
v -26.588999 -61.242489 -16.131977
v -25.228226 -62.577835 -16.131977
v -22.808187 -63.141041 -16.131977
v 29.331223 -65.672401 -16.131971
v 32.351940 -65.222572 -16.131971
v 34.477245 -63.627113 -16.131971
v 35.383579 -61.128922 -16.131977
v 34.932957 -58.108318 -16.131977
v 27.354212 -36.981674 -16.131979
v 25.233427 -33.443306 -16.131979
v 21.915537 -30.953650 -16.131979
v 17.905659 -29.891727 -16.131979
v 13.814262 -30.419210 -16.131979
vt 0.056562 0.531662
vt 0.056562 0.546703
vt 0.040155 0.546703
vt 0.040155 0.531662
vt 0.056562 0.516538
vt 0.040155 0.516538
vt 0.056561 0.501414
vt 0.040155 0.501414
vt 0.056562 0.486373
vt 0.040155 0.486373
vt 0.056562 0.313034
vt 0.040155 0.313034
vt 0.056561 0.303974
vt 0.040155 0.303974
vt 0.056562 0.297023
vt 0.056561 0.303974
vt 0.040155 0.303974
vt 0.040155 0.297023
vt 0.056562 0.290072
vt 0.056562 0.297023
vt 0.040155 0.297023
vt 0.040155 0.290072
vt 0.056562 0.860516
vt 0.056562 0.869576
vt 0.040155 0.869576
vt 0.040155 0.860516
vt 0.056562 0.670188
vt 0.040155 0.670188
vt 0.056562 0.659053
vt 0.040155 0.659053
vt 0.056561 0.649364
vt 0.040155 0.649364
vt 0.056562 0.639674
vt 0.056561 0.649364
vt 0.040155 0.649364
vt 0.040155 0.639674
vt 0.056562 0.628539
vt 0.040155 0.628539
vt 0.056562 0.531662
vt 0.040155 0.531662
vt 0.040155 0.546703
vt 0.056562 0.546703
vt 0.056562 0.516538
vt 0.040155 0.516538
vt 0.056561 0.501414
vt 0.040155 0.501414
vt 0.056562 0.486373
vt 0.040155 0.486373
vt 0.056562 0.313034
vt 0.040155 0.313034
vt 0.056561 0.303974
vt 0.040155 0.303974
vt 0.056562 0.297023
vt 0.040155 0.297023
vt 0.040155 0.303974
vt 0.056561 0.303974
vt 0.056562 0.290072
vt 0.040155 0.290072
vt 0.040155 0.297023
vt 0.056562 0.297023
vt 0.056562 0.860516
vt 0.040155 0.860516
vt 0.040155 0.869576
vt 0.056562 0.869576
vt 0.056562 0.670188
vt 0.040155 0.670188
vt 0.056562 0.659053
vt 0.040155 0.659053
vt 0.056561 0.649364
vt 0.040155 0.649364
vt 0.056562 0.639674
vt 0.040155 0.639674
vt 0.040155 0.649364
vt 0.056561 0.649364
vt 0.056562 0.628539
vt 0.040155 0.628539
vt 0.041115 0.275624
vt 0.045580 0.284282
vt 0.051964 0.288172
vt 0.059293 0.286701
vt 0.066452 0.280094
vt 0.189549 0.116582
vt 0.194746 0.105795
vt 0.194255 0.095387
vt 0.188151 0.086943
vt 0.177362 0.081748
vt 0.092148 0.059774
vt 0.076000 0.058855
vt 0.060615 0.064130
vt 0.048335 0.074794
vt 0.041031 0.089225
vt 0.041115 0.275624
vt 0.041031 0.089225
vt 0.048335 0.074794
vt 0.060615 0.064130
vt 0.076000 0.058855
vt 0.092148 0.059774
vt 0.177362 0.081748
vt 0.188151 0.086943
vt 0.194255 0.095387
vt 0.194746 0.105795
vt 0.189549 0.116582
vt 0.066452 0.280094
vt 0.059293 0.286701
vt 0.051964 0.288172
vt 0.045581 0.284282
vt 0.041115 0.275624
vt 0.041031 0.089225
vt 0.048335 0.074794
vt 0.060615 0.064130
vt 0.076000 0.058855
vt 0.092148 0.059774
vt 0.177362 0.081748
vt 0.188151 0.086943
vt 0.194255 0.095387
vt 0.194746 0.105795
vt 0.189549 0.116582
vt 0.066452 0.280094
vt 0.059293 0.286701
vt 0.051964 0.288172
vt 0.045580 0.284282
vt 0.041115 0.275624
vt 0.045581 0.284282
vt 0.051964 0.288172
vt 0.059293 0.286701
vt 0.066452 0.280094
vt 0.189549 0.116582
vt 0.194746 0.105795
vt 0.194255 0.095387
vt 0.188151 0.086943
vt 0.177362 0.081748
vt 0.092148 0.059774
vt 0.076000 0.058855
vt 0.060615 0.064130
vt 0.048335 0.074794
vt 0.041031 0.089225
vn 0.742832 0.669478 0.000000
vn 0.903816 0.427922 -0.000000
vn 0.903816 0.427922 -0.000000
vn 0.742832 0.669478 0.000000
vn 0.436148 0.899875 0.000000
vn 0.436147 0.899876 0.000000
vn 0.065287 0.997867 0.000000
vn 0.065287 0.997867 0.000000
vn -0.354835 0.934929 -0.000000
vn -0.354833 0.934930 -0.000000
vn -0.741375 0.671091 -0.000000
vn -0.741378 0.671087 -0.000000
vn -0.878633 0.477498 -0.000000
vn -0.878633 0.477498 -0.000000
vn -0.998775 -0.049484 0.000000
vn -0.998775 -0.049484 0.000000
vn -0.998775 -0.049484 0.000000
vn -0.998775 -0.049484 0.000000
vn -0.700407 -0.713743 0.000000
vn -0.700407 -0.713743 0.000000
vn -0.700407 -0.713743 0.000000
vn -0.700407 -0.713743 0.000000
vn -0.138141 -0.990413 0.000001
vn -0.226669 -0.973972 0.000001
vn -0.226669 -0.973972 0.000001
vn -0.138141 -0.990413 0.000001
vn 0.049638 -0.998767 0.000001
vn 0.049638 -0.998767 0.000001
vn 0.385623 -0.922656 0.000000
vn 0.385627 -0.922655 0.000000
vn 0.600357 -0.799732 0.000000
vn 0.600357 -0.799732 0.000000
vn 0.995008 -0.099798 0.000000
vn 0.940047 -0.341046 0.000000
vn 0.940047 -0.341046 0.000000
vn 0.995007 -0.099802 0.000000
vn 0.969831 0.243780 -0.000000
vn 0.969831 0.243780 -0.000000
vn 0.742832 0.669478 0.000000
vn 0.742832 0.669478 0.000000
vn 0.903816 0.427922 -0.000000
vn 0.903816 0.427922 -0.000000
vn 0.436148 0.899875 0.000000
vn 0.436146 0.899876 0.000000
vn 0.065287 0.997867 0.000000
vn 0.065287 0.997867 0.000000
vn -0.354835 0.934929 -0.000000
vn -0.354832 0.934930 -0.000000
vn -0.741375 0.671091 -0.000000
vn -0.741378 0.671088 -0.000000
vn -0.878633 0.477498 -0.000000
vn -0.878633 0.477498 -0.000000
vn -0.998775 -0.049484 0.000000
vn -0.998775 -0.049484 0.000000
vn -0.998775 -0.049484 0.000000
vn -0.998775 -0.049484 0.000000
vn -0.700406 -0.713744 0.000000
vn -0.700406 -0.713744 0.000000
vn -0.700406 -0.713744 0.000000
vn -0.700406 -0.713744 0.000000
vn -0.138141 -0.990413 0.000001
vn -0.138141 -0.990413 0.000001
vn -0.226669 -0.973972 0.000001
vn -0.226669 -0.973972 0.000001
vn 0.049638 -0.998767 0.000001
vn 0.049638 -0.998767 0.000001
vn 0.385624 -0.922656 0.000000
vn 0.385627 -0.922655 0.000000
vn 0.600357 -0.799732 0.000000
vn 0.600357 -0.799732 0.000000
vn 0.995008 -0.099798 0.000000
vn 0.995007 -0.099802 0.000000
vn 0.940047 -0.341045 0.000000
vn 0.940047 -0.341045 0.000000
vn 0.969831 0.243779 -0.000000
vn 0.969831 0.243779 -0.000000
vn 0.000000 0.000000 1.000000
vn 0.000000 0.000000 1.000000
vn 0.000000 0.000000 1.000000
vn 0.000000 0.000000 1.000000
vn 0.000000 0.000000 1.000000
vn 0.000000 0.000000 1.000000
vn 0.000000 0.000000 1.000000
vn 0.000000 0.000000 1.000000
vn 0.000000 0.000000 1.000000
vn 0.000000 0.000000 1.000000
vn 0.000000 0.000000 1.000000
vn 0.000000 0.000000 1.000000
vn 0.000000 0.000000 1.000000
vn 0.000000 0.000000 1.000000
vn 0.000000 0.000000 1.000000
vn 0.000000 0.000000 -1.000000
vn 0.000000 0.000000 -1.000000
vn 0.000000 0.000000 -1.000000
vn 0.000000 0.000000 -1.000000
vn 0.000000 0.000000 -1.000000
vn 0.000000 0.000000 -1.000000
vn 0.000000 0.000000 -1.000000
vn 0.000000 0.000000 -1.000000
vn 0.000000 0.000000 -1.000000
vn 0.000000 0.000000 -1.000000
vn 0.000000 0.000000 -1.000000
vn 0.000000 0.000000 -1.000000
vn 0.000000 0.000000 -1.000000
vn 0.000000 0.000000 -1.000000
vn 0.000000 0.000000 -1.000000
vn -0.000000 0.000000 -1.000000
vn -0.000000 0.000000 -1.000000
vn -0.000000 0.000000 -1.000000
vn -0.000000 0.000000 -1.000000
vn -0.000000 0.000000 -1.000000
vn -0.000000 0.000000 -1.000000
vn -0.000000 0.000000 -1.000000
vn -0.000000 0.000000 -1.000000
vn -0.000000 0.000000 -1.000000
vn -0.000000 0.000000 -1.000000
vn -0.000000 0.000000 -1.000000
vn -0.000000 0.000000 -1.000000
vn -0.000000 0.000000 -1.000000
vn -0.000000 0.000000 -1.000000
vn -0.000000 0.000000 -1.000000
vn -0.000000 0.000000 1.000000
vn -0.000000 0.000000 1.000000
vn -0.000000 0.000000 1.000000
vn -0.000000 0.000000 1.000000
vn -0.000000 0.000000 1.000000
vn -0.000000 0.000000 1.000000
vn -0.000000 0.000000 1.000000
vn -0.000000 0.000000 1.000000
vn -0.000000 0.000000 1.000000
vn -0.000000 0.000000 1.000000
vn -0.000000 0.000000 1.000000
vn -0.000000 0.000000 1.000000
vn -0.000000 0.000000 1.000000
vn -0.000000 0.000000 1.000000
vn -0.000000 0.000000 1.000000
f 1/1/1 2/2/2 3/3/3
f 1/1/1 3/3/3 4/4/4
f 5/5/5 1/1/1 4/4/4
f 5/5/5 4/4/4 6/6/6
f 7/7/7 5/5/5 6/6/6
f 7/7/7 6/6/6 8/8/8
f 9/9/9 7/7/7 8/8/8
f 9/9/9 8/8/8 10/10/10
f 11/11/11 9/9/9 10/10/10
f 11/11/11 10/10/10 12/12/12
f 13/13/13 11/11/11 12/12/12
f 13/13/13 12/12/12 14/14/14
f 15/15/15 16/16/16 17/17/17
f 15/15/15 17/17/17 18/18/18
f 19/19/19 20/20/20 21/21/21
f 19/19/19 21/21/21 22/22/22
f 23/23/23 24/24/24 25/25/25
f 23/23/23 25/25/25 26/26/26
f 27/27/27 23/23/23 26/26/26
f 27/27/27 26/26/26 28/28/28
f 29/29/29 27/27/27 28/28/28
f 29/29/29 28/28/28 30/30/30
f 31/31/31 29/29/29 30/30/30
f 31/31/31 30/30/30 32/32/32
f 33/33/33 34/34/34 35/35/35
f 33/33/33 35/35/35 36/36/36
f 37/37/37 33/33/33 36/36/36
f 37/37/37 36/36/36 38/38/38
f 2/2/2 37/37/37 38/38/38
f 2/2/2 38/38/38 3/3/3
f 39/39/39 40/40/40 41/41/41
f 39/39/39 41/41/41 42/42/42
f 43/43/43 44/44/44 40/40/40
f 43/43/43 40/40/40 39/39/39
f 45/45/45 46/46/46 44/44/44
f 45/45/45 44/44/44 43/43/43
f 47/47/47 48/48/48 46/46/46
f 47/47/47 46/46/46 45/45/45
f 49/49/49 50/50/50 48/48/48
f 49/49/49 48/48/48 47/47/47
f 51/51/51 52/52/52 50/50/50
f 51/51/51 50/50/50 49/49/49
f 53/53/53 54/54/54 55/55/55
f 53/53/53 55/55/55 56/56/56
f 57/57/57 58/58/58 59/59/59
f 57/57/57 59/59/59 60/60/60
f 61/61/61 62/62/62 63/63/63
f 61/61/61 63/63/63 64/64/64
f 65/65/65 66/66/66 62/62/62
f 65/65/65 62/62/62 61/61/61
f 67/67/67 68/68/68 66/66/66
f 67/67/67 66/66/66 65/65/65
f 69/69/69 70/70/70 68/68/68
f 69/69/69 68/68/68 67/67/67
f 71/71/71 72/72/72 73/73/73
f 71/71/71 73/73/73 74/74/74
f 75/75/75 76/76/76 72/72/72
f 75/75/75 72/72/72 71/71/71
f 42/42/42 41/41/41 76/76/76
f 42/42/42 76/76/76 75/75/75
f 79/79/79 77/77/77 78/78/78
f 77/77/77 79/79/79 80/80/80
f 77/77/77 80/80/80 91/91/91
f 91/91/91 80/80/80 81/81/81
f 91/91/91 81/81/81 82/82/82
f 91/91/91 82/82/82 90/90/90
f 90/90/90 82/82/82 89/89/89
f 89/89/89 82/82/82 88/88/88
f 88/88/88 82/82/82 87/87/87
f 87/87/87 82/82/82 86/86/86
f 86/86/86 82/82/82 83/83/83
f 86/86/86 83/83/83 84/84/84
f 86/86/86 84/84/84 85/85/85
f 92/92/92 105/105/105 106/106/106
f 105/105/105 92/92/92 104/104/104
f 104/104/104 92/92/92 93/93/93
f 104/104/104 93/93/93 103/103/103
f 103/103/103 93/93/93 102/102/102
f 102/102/102 93/93/93 94/94/94
f 102/102/102 94/94/94 95/95/95
f 102/102/102 95/95/95 96/96/96
f 102/102/102 96/96/96 97/97/97
f 102/102/102 97/97/97 98/98/98
f 102/102/102 98/98/98 101/101/101
f 101/101/101 98/98/98 100/100/100
f 100/100/100 98/98/98 99/99/99
f 107/107/107 120/120/120 121/121/121
f 120/120/120 107/107/107 119/119/119
f 119/119/119 107/107/107 108/108/108
f 119/119/119 108/108/108 118/118/118
f 118/118/118 108/108/108 117/117/117
f 117/117/117 108/108/108 109/109/109
f 117/117/117 109/109/109 110/110/110
f 117/117/117 110/110/110 111/111/111
f 117/117/117 111/111/111 112/112/112
f 117/117/117 112/112/112 113/113/113
f 117/117/117 113/113/113 116/116/116
f 116/116/116 113/113/113 115/115/115
f 115/115/115 113/113/113 114/114/114
f 124/124/124 122/122/122 123/123/123
f 122/122/122 124/124/124 125/125/125
f 122/122/122 125/125/125 136/136/136
f 136/136/136 125/125/125 126/126/126
f 136/136/136 126/126/126 127/127/127
f 136/136/136 127/127/127 135/135/135
f 135/135/135 127/127/127 134/134/134
f 134/134/134 127/127/127 133/133/133
f 133/133/133 127/127/127 132/132/132
f 132/132/132 127/127/127 131/131/131
f 131/131/131 127/127/127 128/128/128
f 131/131/131 128/128/128 129/129/129
f 131/131/131 129/129/129 130/130/130
# ext.tangent 0.000000 -0.000000 1.000000 1.0
# ext.tangent -0.000000 0.000000 1.000000 1.0
# ext.tangent 0.000000 -0.000000 1.000000 1.0
# ext.tangent 0.000000 -0.000000 1.000000 1.0
# ext.tangent 0.000000 -0.000000 1.000000 1.0
# ext.tangent 0.000000 -0.000000 1.000000 1.0
# ext.tangent 0.000000 -0.000000 1.000000 1.0
# ext.tangent 0.000000 -0.000000 1.000000 1.0
# ext.tangent -0.000000 -0.000000 1.000000 1.0
# ext.tangent -0.000001 -0.000000 1.000000 1.0
# ext.tangent -0.000001 -0.000001 1.000000 1.0
# ext.tangent -0.000001 -0.000001 1.000000 1.0
# ext.tangent -0.000000 -0.000001 1.000000 1.0
# ext.tangent 0.000000 0.000000 1.000000 1.0
# ext.tangent 0.000000 0.000000 1.000000 1.0
# ext.tangent 0.000000 0.000000 1.000000 1.0
# ext.tangent 0.000000 0.000000 1.000000 1.0
# ext.tangent 0.000000 0.000000 1.000000 1.0
# ext.tangent 0.000001 -0.000001 1.000000 1.0
# ext.tangent 0.000000 0.000000 1.000000 1.0
# ext.tangent 0.000001 -0.000001 1.000000 1.0
# ext.tangent 0.000003 -0.000002 1.000000 1.0
# ext.tangent 0.000005 -0.000000 1.000000 1.0
# ext.tangent 0.000007 -0.000001 1.000000 1.0
# ext.tangent 0.000005 -0.000001 1.000000 1.0
# ext.tangent 0.000002 0.000000 1.000000 1.0
# ext.tangent 0.000001 0.000001 1.000000 1.0
# ext.tangent -0.000000 0.000001 1.000000 1.0
# ext.tangent -0.000000 0.000000 1.000000 1.0
# ext.tangent -0.000000 0.000000 1.000000 1.0
# ext.tangent 0.000000 0.000000 1.000000 1.0
# ext.tangent 0.000000 0.000000 1.000000 1.0
# ext.tangent -0.000000 -0.000002 1.000000 1.0
# ext.tangent -0.000000 0.000000 1.000000 1.0
# ext.tangent -0.000001 -0.000001 1.000000 1.0
# ext.tangent -0.000000 -0.000002 1.000000 1.0
# ext.tangent 0.000000 -0.000001 1.000000 1.0
# ext.tangent -0.000000 0.000000 1.000000 1.0
# ext.tangent 0.000000 0.000000 -1.000000 -1.0
# ext.tangent 0.000000 0.000000 -1.000000 -1.0
# ext.tangent -0.000000 0.000000 -1.000000 -1.0
# ext.tangent 0.000000 -0.000000 -1.000000 -1.0
# ext.tangent 0.000000 0.000000 -1.000000 -1.0
# ext.tangent 0.000000 0.000000 -1.000000 -1.0
# ext.tangent 0.000000 0.000000 -1.000000 -1.0
# ext.tangent 0.000000 0.000000 -1.000000 -1.0
# ext.tangent 0.000000 -0.000000 -1.000000 -1.0
# ext.tangent -0.000001 -0.000000 -1.000000 -1.0
# ext.tangent -0.000001 -0.000001 -1.000000 -1.0
# ext.tangent -0.000001 -0.000001 -1.000000 -1.0
# ext.tangent -0.000000 -0.000001 -1.000000 -1.0
# ext.tangent -0.000000 -0.000001 -1.000000 -1.0
# ext.tangent -0.000000 -0.000000 -1.000000 -1.0
# ext.tangent -0.000000 -0.000000 -1.000000 -1.0
# ext.tangent -0.000000 -0.000000 -1.000000 -1.0
# ext.tangent 0.000000 -0.000001 -1.000000 -1.0
# ext.tangent 0.000001 -0.000002 -1.000000 -1.0
# ext.tangent 0.000003 -0.000003 -1.000000 -1.0
# ext.tangent 0.000001 -0.000002 -1.000000 -1.0
# ext.tangent -0.000000 -0.000000 -1.000000 -1.0
# ext.tangent 0.000005 -0.000001 -1.000000 -1.0
# ext.tangent 0.000002 -0.000001 -1.000000 -1.0
# ext.tangent 0.000005 -0.000002 -1.000000 -1.0
# ext.tangent 0.000007 -0.000002 -1.000000 -1.0
# ext.tangent 0.000001 -0.000001 -1.000000 -1.0
# ext.tangent 0.000000 -0.000001 -1.000000 -1.0
# ext.tangent 0.000000 -0.000000 -1.000000 -1.0
# ext.tangent 0.000000 -0.000000 -1.000000 -1.0
# ext.tangent -0.000000 -0.000000 -1.000000 -1.0
# ext.tangent -0.000000 -0.000000 -1.000000 -1.0
# ext.tangent -0.000000 -0.000003 -1.000000 -1.0
# ext.tangent -0.000000 -0.000003 -1.000000 -1.0
# ext.tangent -0.000001 -0.000002 -1.000000 -1.0
# ext.tangent 0.000000 -0.000000 -1.000000 -1.0
# ext.tangent 0.000000 -0.000002 -1.000000 -1.0
# ext.tangent -0.000000 -0.000000 -1.000000 -1.0
# ext.tangent 0.561995 -0.827140 0.000000 -1.0
# ext.tangent 0.561988 -0.827145 0.000000 -1.0
# ext.tangent 0.561994 -0.827142 0.000000 -1.0
# ext.tangent 0.561999 -0.827138 0.000000 -1.0
# ext.tangent 0.561999 -0.827138 0.000000 -1.0
# ext.tangent 0.562000 -0.827138 0.000000 -1.0
# ext.tangent 0.562000 -0.827137 0.000000 -1.0
# ext.tangent 0.561992 -0.827143 0.000000 -1.0
# ext.tangent 0.561987 -0.827146 0.000000 -1.0
# ext.tangent 0.561997 -0.827139 0.000000 -1.0
# ext.tangent 0.561999 -0.827138 0.000000 -1.0
# ext.tangent 0.561999 -0.827138 0.000000 -1.0
# ext.tangent 0.561999 -0.827138 0.000000 -1.0
# ext.tangent 0.561998 -0.827138 0.000000 -1.0
# ext.tangent 0.561999 -0.827138 0.000000 -1.0
# ext.tangent 0.561998 -0.827139 -0.000000 1.0
# ext.tangent 0.561999 -0.827138 -0.000000 1.0
# ext.tangent 0.561999 -0.827138 -0.000000 1.0
# ext.tangent 0.562000 -0.827137 -0.000000 1.0
# ext.tangent 0.561999 -0.827138 -0.000000 1.0
# ext.tangent 0.561999 -0.827138 -0.000000 1.0
# ext.tangent 0.561998 -0.827139 -0.000000 1.0
# ext.tangent 0.561995 -0.827140 -0.000000 1.0
# ext.tangent 0.561998 -0.827139 -0.000000 1.0
# ext.tangent 0.561999 -0.827138 -0.000000 1.0
# ext.tangent 0.561999 -0.827138 -0.000000 1.0
# ext.tangent 0.562000 -0.827138 -0.000000 1.0
# ext.tangent 0.561998 -0.827139 -0.000000 1.0
# ext.tangent 0.561997 -0.827139 -0.000000 1.0
# ext.tangent 0.562000 -0.827138 -0.000000 1.0
# ext.tangent 0.561996 -0.827140 -0.000000 1.0
# ext.tangent 0.561999 -0.827138 -0.000000 1.0
# ext.tangent 0.561998 -0.827138 -0.000000 1.0
# ext.tangent 0.561999 -0.827138 -0.000000 1.0
# ext.tangent 0.561999 -0.827138 -0.000000 1.0
# ext.tangent 0.561999 -0.827138 -0.000000 1.0
# ext.tangent 0.561997 -0.827139 -0.000000 1.0
# ext.tangent 0.561987 -0.827146 -0.000000 1.0
# ext.tangent 0.561992 -0.827143 -0.000000 1.0
# ext.tangent 0.562000 -0.827137 -0.000000 1.0
# ext.tangent 0.562000 -0.827138 -0.000000 1.0
# ext.tangent 0.561999 -0.827138 -0.000000 1.0
# ext.tangent 0.562000 -0.827138 -0.000000 1.0
# ext.tangent 0.561994 -0.827141 -0.000000 1.0
# ext.tangent 0.561988 -0.827145 -0.000000 1.0
# ext.tangent 0.561997 -0.827139 0.000000 -1.0
# ext.tangent 0.561999 -0.827138 0.000000 -1.0
# ext.tangent 0.561996 -0.827140 0.000000 -1.0
# ext.tangent 0.561998 -0.827138 0.000000 -1.0
# ext.tangent 0.562000 -0.827137 0.000000 -1.0
# ext.tangent 0.561999 -0.827138 0.000000 -1.0
# ext.tangent 0.561999 -0.827138 0.000000 -1.0
# ext.tangent 0.561998 -0.827139 0.000000 -1.0
# ext.tangent 0.561995 -0.827140 0.000000 -1.0
# ext.tangent 0.561998 -0.827138 0.000000 -1.0
# ext.tangent 0.562000 -0.827138 0.000000 -1.0
# ext.tangent 0.562000 -0.827137 0.000000 -1.0
# ext.tangent 0.562000 -0.827137 0.000000 -1.0
# ext.tangent 0.561999 -0.827138 0.000000 -1.0
# ext.tangent 0.562000 -0.827137 0.000000 -1.0
