v 85.945732 68.819717 4.069661
v 30.646025 16.556244 4.069654
v 30.646025 16.556244 -7.030345
v 85.945732 68.819717 -7.030338
v 30.646025 16.556244 4.069654
v 38.436543 74.570473 4.069660
v 38.436543 74.570473 -7.030339
v 30.646025 16.556244 -7.030345
v 44.463032 83.034096 4.069661
v 47.653591 84.219704 4.069661
v 47.653591 84.219704 -7.030339
v 44.463032 83.034096 -7.030339
v 41.591026 80.783997 4.069661
v 41.591026 80.783997 -7.030339
v 39.474800 77.811966 4.069661
v 39.474800 77.811974 -7.030339
v 90.020889 84.552872 4.069662
v 85.945732 68.819717 4.069661
v 85.945732 68.819717 -7.030338
v 90.020889 84.552872 -7.030338
v 90.188522 87.394272 4.069662
v 90.188522 87.394272 -7.029999
v 89.137962 89.586937 4.069662
v 89.137962 89.586937 -7.030338
v 87.029160 90.797043 4.069662
v 89.137962 89.586937 4.069662
v 89.137962 89.586937 -7.030338
v 87.029160 90.797043 -7.030337
v 84.183144 90.840378 4.069662
v 84.183144 90.840378 -7.030337
v 30.646025 16.556244 4.069654
v 85.945732 68.819717 4.069661
v 90.020889 84.552872 4.069662
v 90.188522 87.394272 4.069662
v 89.137962 89.586937 4.069662
v 87.029160 90.797043 4.069662
v 84.183144 90.840378 4.069662
v 47.653591 84.219704 4.069661
v 44.463032 83.034096 4.069661
v 41.591026 80.783997 4.069661
v 39.474800 77.811966 4.069661
v 38.436543 74.570473 4.069660
v 30.646025 16.556244 -7.030345
v 38.436543 74.570473 -7.030339
v 39.474800 77.811974 -7.030339
v 41.591026 80.783997 -7.030339
v 44.463032 83.034096 -7.030339
v 47.653591 84.219704 -7.030339
v 84.183144 90.840378 -7.030337
v 87.029160 90.797043 -7.030337
v 89.137962 89.586937 -7.030338
v 90.188522 87.394272 -7.029999
v 90.020889 84.552872 -7.030338
v 85.945732 68.819717 -7.030338
vt 0.202895 0.246273
vt 0.202895 0.000641
vt 0.238728 0.000641
vt 0.238728 0.246273
vt 0.202895 0.687154
vt 0.202895 0.498191
vt 0.238728 0.498191
vt 0.238728 0.687154
vt 0.202895 0.463647
vt 0.202895 0.452659
vt 0.238728 0.452659
vt 0.238728 0.463647
vt 0.202895 0.475425
vt 0.238728 0.475425
vt 0.202895 0.487204
vt 0.238728 0.487203
vt 0.202895 0.298739
vt 0.202895 0.246273
vt 0.238728 0.246273
vt 0.238728 0.298739
vt 0.202895 0.307927
vt 0.238727 0.307927
vt 0.202895 0.315776
vt 0.238728 0.315776
vt 0.202895 0.323625
vt 0.202895 0.315776
vt 0.238728 0.315776
vt 0.238728 0.323625
vt 0.202895 0.332814
vt 0.238728 0.332813
vt 0.195904 0.126495
vt 0.195904 0.376912
vt 0.167484 0.422225
vt 0.161067 0.429049
vt 0.153447 0.431493
vt 0.145786 0.429185
vt 0.139248 0.422475
vt 0.072507 0.320134
vt 0.068130 0.309822
vt 0.067020 0.297866
vt 0.069345 0.286086
vt 0.074751 0.276275
vt 0.195904 0.126495
vt 0.074751 0.276275
vt 0.069345 0.286086
vt 0.067020 0.297866
vt 0.068130 0.309822
vt 0.072507 0.320134
vt 0.139248 0.422475
vt 0.145786 0.429185
vt 0.153447 0.431493
vt 0.161067 0.429050
vt 0.167484 0.422225
vt 0.195904 0.376912
vn 0.686873 -0.726777 -0.000000
vn 0.686873 -0.726777 -0.000000
vn 0.686873 -0.726777 -0.000000
vn 0.686873 -0.726777 -0.000000
vn -0.991104 0.133092 0.000000
vn -0.975518 0.219920 0.000000
vn -0.975518 0.219920 0.000000
vn -0.991104 0.133092 0.000000
vn -0.488333 0.872657 0.000000
vn -0.264360 0.964424 0.000000
vn -0.264360 0.964424 0.000000
vn -0.488333 0.872657 0.000000
vn -0.723115 0.690727 0.000000
vn -0.723115 0.690727 0.000000
vn -0.894103 0.447861 0.000000
vn -0.894103 0.447861 0.000000
vn 0.987827 -0.155553 -0.000000
vn 0.968054 -0.250743 -0.000000
vn 0.968054 -0.250743 -0.000000
vn 0.987827 -0.155557 -0.000000
vn 0.981252 0.192726 0.000000
vn 0.981252 0.192728 0.000000
vn 0.901831 0.432089 0.000000
vn 0.901831 0.432089 0.000000
vn 0.264892 0.964278 0.000000
vn 0.497713 0.867342 0.000000
vn 0.497713 0.867342 0.000000
vn 0.264892 0.964278 0.000000
vn -0.081944 0.996637 0.000000
vn -0.081944 0.996637 0.000000
vn -0.000000 -0.000000 1.000000
vn -0.000000 -0.000000 1.000000
vn -0.000000 -0.000000 1.000000
vn -0.000000 -0.000000 1.000000
vn -0.000000 -0.000000 1.000000
vn -0.000000 -0.000000 1.000000
vn -0.000000 -0.000000 1.000000
vn -0.000000 -0.000000 1.000000
vn -0.000000 -0.000000 1.000000
vn -0.000000 -0.000000 1.000000
vn -0.000000 -0.000000 1.000000
vn -0.000000 -0.000000 1.000000
vn 0.000000 0.000000 -1.000000
vn 0.000000 0.000000 -1.000000
vn 0.000000 0.000000 -1.000000
vn 0.000000 0.000000 -1.000000
vn 0.000000 0.000000 -1.000000
vn 0.000000 0.000000 -1.000000
vn 0.000000 0.000000 -1.000000
vn 0.000000 0.000000 -1.000000
vn 0.000000 0.000000 -1.000000
vn 0.000000 0.000000 -1.000000
vn 0.000000 0.000000 -1.000000
vn 0.000000 0.000000 -1.000000
f 1/1/1 2/2/2 3/3/3
f 1/1/1 3/3/3 4/4/4
f 5/5/5 6/6/6 7/7/7
f 5/5/5 7/7/7 8/8/8
f 9/9/9 10/10/10 11/11/11
f 9/9/9 11/11/11 12/12/12
f 13/13/13 9/9/9 12/12/12
f 13/13/13 12/12/12 14/14/14
f 15/15/15 13/13/13 14/14/14
f 15/15/15 14/14/14 16/16/16
f 6/6/6 15/15/15 16/16/16
f 6/6/6 16/16/16 7/7/7
f 17/17/17 18/18/18 19/19/19
f 17/17/17 19/19/19 20/20/20
f 21/21/21 17/17/17 20/20/20
f 21/21/21 20/20/20 22/22/22
f 23/23/23 21/21/21 22/22/22
f 23/23/23 22/22/22 24/24/24
f 25/25/25 26/26/26 27/27/27
f 25/25/25 27/27/27 28/28/28
f 29/29/29 25/25/25 28/28/28
f 29/29/29 28/28/28 30/30/30
f 10/10/10 29/29/29 30/30/30
f 10/10/10 30/30/30 11/11/11
f 32/32/32 42/42/42 31/31/31
f 42/42/42 32/32/32 41/41/41
f 41/41/41 32/32/32 40/40/40
f 40/40/40 32/32/32 39/39/39
f 39/39/39 32/32/32 38/38/38
f 38/38/38 32/32/32 37/37/37
f 37/37/37 32/32/32 36/36/36
f 36/36/36 32/32/32 33/33/33
f 36/36/36 33/33/33 35/35/35
f 35/35/35 33/33/33 34/34/34
f 44/44/44 54/54/54 43/43/43
f 54/54/54 44/44/44 45/45/45
f 54/54/54 45/45/45 46/46/46
f 54/54/54 46/46/46 47/47/47
f 54/54/54 47/47/47 48/48/48
f 54/54/54 48/48/48 49/49/49
f 54/54/54 49/49/49 50/50/50
f 54/54/54 50/50/50 53/53/53
f 53/53/53 50/50/50 51/51/51
f 53/53/53 51/51/51 52/52/52
# ext.tangent 0.000000 0.000000 -1.000000 1.0
# ext.tangent 0.000000 0.000000 -1.000000 1.0
# ext.tangent 0.000000 0.000000 -1.000000 1.0
# ext.tangent 0.000000 0.000000 -1.000000 1.0
# ext.tangent 0.000000 0.000000 -1.000000 1.0
# ext.tangent -0.000000 -0.000001 -1.000000 1.0
# ext.tangent 0.000000 0.000000 -1.000000 1.0
# ext.tangent 0.000000 0.000000 -1.000000 1.0
# ext.tangent 0.000000 0.000000 -1.000000 1.0
# ext.tangent -0.000001 -0.000000 -1.000000 1.0
# ext.tangent 0.000000 0.000000 -1.000000 1.0
# ext.tangent 0.000000 0.000000 -1.000000 1.0
# ext.tangent 0.000000 0.000000 -1.000000 1.0
# ext.tangent -0.000001 -0.000001 -1.000000 1.0
# ext.tangent -0.000001 -0.000002 -1.000000 1.0
# ext.tangent -0.000001 -0.000002 -1.000000 1.0
# ext.tangent 0.000000 0.000000 -1.000000 1.0
# ext.tangent 0.000000 0.000000 -1.000000 1.0
# ext.tangent 0.000000 0.000000 -1.000000 1.0
# ext.tangent 0.000000 0.000000 -1.000000 1.0
# ext.tangent 0.000000 0.000000 -1.000000 1.0
# ext.tangent 0.000000 0.000000 -1.000000 1.0
# ext.tangent 0.000000 0.000000 -1.000000 1.0
# ext.tangent 0.000000 0.000000 -1.000000 1.0
# ext.tangent 0.000000 0.000000 -1.000000 1.0
# ext.tangent 0.000000 0.000000 -1.000000 1.0
# ext.tangent 0.000000 0.000000 -1.000000 1.0
# ext.tangent -0.000001 0.000000 -1.000000 1.0
# ext.tangent -0.000002 -0.000000 -1.000000 1.0
# ext.tangent -0.000002 -0.000000 -1.000000 1.0
# ext.tangent 0.686874 -0.726777 -0.000000 1.0
# ext.tangent 0.686873 -0.726778 -0.000000 1.0
# ext.tangent 0.686878 -0.726773 -0.000000 1.0
# ext.tangent 0.686889 -0.726763 -0.000000 1.0
# ext.tangent 0.686881 -0.726770 -0.000000 1.0
# ext.tangent 0.686872 -0.726778 -0.000000 1.0
# ext.tangent 0.686872 -0.726778 -0.000000 1.0
# ext.tangent 0.686872 -0.726778 -0.000000 1.0
# ext.tangent 0.686873 -0.726777 -0.000000 1.0
# ext.tangent 0.686874 -0.726777 -0.000000 1.0
# ext.tangent 0.686873 -0.726778 -0.000000 1.0
# ext.tangent 0.686873 -0.726777 -0.000000 1.0
# ext.tangent 0.686873 -0.726777 0.000000 -1.0
# ext.tangent 0.686873 -0.726777 0.000000 -1.0
# ext.tangent 0.686873 -0.726778 0.000000 -1.0
# ext.tangent 0.686874 -0.726777 0.000000 -1.0
# ext.tangent 0.686873 -0.726777 0.000000 -1.0
# ext.tangent 0.686873 -0.726778 0.000000 -1.0
# ext.tangent 0.686876 -0.726775 0.000000 -1.0
# ext.tangent 0.686874 -0.726776 0.000000 -1.0
# ext.tangent 0.686870 -0.726780 0.000000 -1.0
# ext.tangent 0.686867 -0.726784 0.000000 -1.0
# ext.tangent 0.686870 -0.726780 0.000000 -1.0
# ext.tangent 0.686873 -0.726777 0.000000 -1.0
