v -0.000000 228.138550 244.427277
v -0.000000 192.333542 309.312469
v 32.782700 190.517334 309.075897
v 34.906746 226.356964 243.488388
v -0.000000 183.410065 321.229614
v 32.442875 182.206757 320.293030
v 67.001640 187.180252 308.106628
v 66.293190 179.136520 319.049408
v 80.996994 176.028534 318.333069
v 91.564705 175.552216 315.439819
v 92.444305 182.286636 306.031372
v 96.936829 177.286896 309.932404
v 97.836258 180.430756 304.930969
v 93.325218 207.269165 260.461365
v 100.268379 205.325989 259.526031
v 98.550285 188.059204 291.040222
v 70.443176 222.482864 243.410660
v 90.600967 217.441193 243.315460
v 93.623100 215.717056 245.051758
v 98.550926 212.723053 247.777435
v 47.399773 -132.322296 242.534119
v 43.767792 -81.913948 336.642731
v -0.000002 -84.764366 339.209900
v -0.000000 -134.832031 246.032455
v 94.977272 -127.605141 236.516968
v 85.165710 -77.022026 332.786957
v 42.962757 -76.845024 343.143066
v -0.000000 -79.273766 345.715240
v 84.015373 -72.179420 339.622070
v 114.744743 -70.512421 327.517487
v 113.550880 -65.887146 334.584015
v 131.626419 -120.206627 228.558243
v 123.603790 -62.876816 332.420105
v 125.140038 -67.845459 324.859924
v 128.368210 -62.639267 328.589508
v 131.081665 -65.640450 321.988007
v 140.772446 -117.233620 226.952133
v 144.330444 -114.539566 227.996536
v 146.168808 -109.004814 235.417068
v -34.906746 226.356964 243.488388
v -32.782700 190.517334 309.075897
v -32.442875 182.206757 320.293030
v -67.001640 187.180252 308.106628
v -66.293190 179.136520 319.049408
v -80.996994 176.028534 318.333069
v -92.444305 182.286636 306.031372
v -91.564705 175.552216 315.439819
v -96.936829 177.286896 309.932404
v -97.836258 180.430756 304.930969
v -93.325218 207.269165 260.461365
v -100.268379 205.325989 259.526031
v -98.550285 188.059204 291.040222
v -70.443176 222.482864 243.410660
v -90.600967 217.441193 243.315460
v -93.623100 215.717056 245.051758
v -98.550926 212.723053 247.777435
v -47.399773 -132.322296 242.534119
v -43.767792 -81.913948 336.642731
v -94.977272 -127.605141 236.516968
v -85.165710 -77.022026 332.786957
v -42.962757 -76.845024 343.143066
v -84.015373 -72.179420 339.622070
v -113.550880 -65.887146 334.584015
v -114.744743 -70.512421 327.517487
v -131.626419 -120.206627 228.558243
v -123.603790 -62.876816 332.420105
v -125.140038 -67.845459 324.859924
v -128.368210 -62.639267 328.589508
v -131.081665 -65.640450 321.988007
v -140.772446 -117.233620 226.952133
v -144.330444 -114.539566 227.996536
v -146.168808 -109.004814 235.417068
v 135.764450 32.952641 324.747040
v 137.996231 37.518276 306.891388
v 135.395966 61.749527 321.880951
v 135.883850 -0.278931 326.207245
v 152.288208 21.111217 221.499573
v 140.696655 30.926743 291.454895
v 140.419327 -11.744522 297.665131
v 152.843872 -35.591206 223.894226
v 135.883850 -0.278931 326.207245
v 136.282211 -15.955326 323.499298
v 137.371216 -30.029255 317.521484
v 140.208191 -44.065529 302.369019
v 137.371216 -30.029255 317.521484
v 153.287582 -80.924629 225.808319
v 151.676010 83.412460 218.867065
v 141.031754 82.921730 283.887695
v 138.777649 82.818085 297.577515
v 135.573456 82.670410 318.505402
v -135.764450 32.952641 324.747040
v -135.395966 61.749527 321.880951
v -137.996231 37.518276 306.891388
v -135.883850 -0.278931 326.207245
v -152.288208 21.111217 221.499573
v -152.843872 -35.591206 223.894226
v -140.419327 -11.744522 297.665131
v -140.696655 30.926743 291.454895
v -135.883850 -0.278931 326.207245
v -136.282211 -15.955326 323.499298
v -137.371216 -30.029255 317.521484
v -140.208191 -44.065529 302.369019
v -137.371216 -30.029255 317.521484
v -153.287582 -80.924629 225.808319
v -151.676010 83.412460 218.867065
v -141.031754 82.921730 283.887695
v -135.573456 82.670410 318.505402
v -138.777649 82.818085 297.577515
v -139.295959 112.865356 291.399689
v -136.645050 112.764450 308.581818
v -137.876404 120.848091 299.740173
v -139.557907 128.154083 288.256256
v -135.759659 102.279648 315.066528
v -136.645050 112.764450 308.581818
v -138.992447 95.270355 295.017273
v -135.487930 94.731506 317.665192
v 139.295959 112.865356 291.399689
v 139.557907 128.154083 288.256256
v 137.876404 120.848091 299.740173
v 136.645050 112.764450 308.581818
v 136.645050 112.764450 308.581818
v 135.759659 102.279648 315.066528
v 135.487930 94.731506 317.665192
v 138.992447 95.270355 295.017273
v 141.243408 115.764374 279.107880
v 141.359711 133.935623 276.463257
v 151.544342 97.116035 218.266281
v 151.128418 132.545166 217.193069
v 141.113342 95.582291 282.045105
v 148.614975 150.628906 230.632797
v 150.955414 147.195435 216.749161
v 141.243408 115.764374 279.107880
v 150.955414 147.195435 216.749161
v 150.363190 150.683884 219.994797
v 148.614975 150.628906 230.632797
v -141.243408 115.764374 279.107880
v -141.359711 133.935623 276.463257
v -151.544342 97.116035 218.266281
v -141.113342 95.582291 282.045105
v -151.128418 132.545166 217.193069
v -148.614975 150.628906 230.632797
v -150.955414 147.195435 216.749161
v -141.243408 115.764374 279.107880
v -148.614975 150.628906 230.632797
v -150.363190 150.683884 219.994797
v -150.955414 147.195435 216.749161
vt 0.773918 0.549043
vt 0.773915 0.598655
vt 0.750118 0.600091
vt 0.746382 0.550202
vt 0.773914 0.608600
vt 0.750706 0.609417
vt 0.725280 0.603196
vt 0.726470 0.612183
vt 0.715923 0.614843
vt 0.708116 0.614791
vt 0.706595 0.607217
vt 0.703702 0.612181
vt 0.702446 0.608460
vt 0.701977 0.572626
vt 0.696442 0.574104
vt 0.700634 0.597938
vt 0.718600 0.554251
vt 0.702655 0.558895
vt 0.700415 0.560928
vt 0.696766 0.564357
vt 0.736321 0.903784
vt 0.742521 0.832862
vt 0.773905 0.834143
vt 0.773902 0.904528
vt 0.698752 0.901024
vt 0.712487 0.829474
vt 0.743334 0.827372
vt 0.773906 0.828445
vt 0.713844 0.824017
vt 0.690225 0.825193
vt 0.691991 0.819724
vt 0.669184 0.897098
vt 0.684327 0.817148
vt 0.682044 0.822908
vt 0.680098 0.817527
vt 0.676878 0.821331
vt 0.661393 0.894131
vt 0.658364 0.890993
vt 0.657308 0.883653
vt 0.801455 0.550206
vt 0.797711 0.600095
vt 0.797122 0.609420
vt 0.822549 0.603203
vt 0.821357 0.612190
vt 0.831904 0.614852
vt 0.841233 0.607227
vt 0.839711 0.614801
vt 0.844125 0.612192
vt 0.845381 0.608470
vt 0.845857 0.572636
vt 0.851391 0.574116
vt 0.847196 0.597949
vt 0.829236 0.554259
vt 0.845181 0.558906
vt 0.847420 0.560939
vt 0.851069 0.564368
vt 0.811482 0.903788
vt 0.805290 0.832865
vt 0.849052 0.901032
vt 0.835325 0.829481
vt 0.804477 0.827375
vt 0.833968 0.824023
vt 0.855822 0.819733
vt 0.857587 0.825202
vt 0.878621 0.897109
vt 0.863486 0.817158
vt 0.865768 0.822918
vt 0.867715 0.817537
vt 0.870934 0.821341
vt 0.886412 0.894143
vt 0.889441 0.891006
vt 0.890498 0.883666
vt 0.661983 0.734443
vt 0.651356 0.729825
vt 0.662046 0.710288
vt 0.661733 0.762557
vt 0.597125 0.739642
vt 0.641825 0.734692
vt 0.643613 0.770742
vt 0.595381 0.786771
vt 0.661733 0.762557
vt 0.659998 0.775891
vt 0.655983 0.787909
vt 0.644754 0.797840
vt 0.655983 0.787909
vt 0.593705 0.824259
vt 0.599344 0.688085
vt 0.640519 0.691225
vt 0.649032 0.691496
vt 0.661674 0.692569
vt 0.885828 0.734443
vt 0.885766 0.710288
vt 0.896456 0.729825
vt 0.886079 0.762557
vt 0.950687 0.739642
vt 0.952431 0.786771
vt 0.904199 0.770742
vt 0.905987 0.734692
vt 0.886079 0.762557
vt 0.887814 0.775891
vt 0.891829 0.787909
vt 0.903058 0.797840
vt 0.891829 0.787909
vt 0.954107 0.824259
vt 0.948467 0.688085
vt 0.907293 0.691225
vt 0.886137 0.692569
vt 0.898780 0.691496
vt 0.900321 0.666072
vt 0.889444 0.666250
vt 0.893912 0.657887
vt 0.901755 0.653175
vt 0.886576 0.675918
vt 0.889444 0.666250
vt 0.899419 0.680960
vt 0.885620 0.682379
vt 0.647491 0.666072
vt 0.646057 0.653175
vt 0.653900 0.657887
vt 0.658368 0.666250
vt 0.658368 0.666250
vt 0.661236 0.675918
vt 0.662191 0.682379
vt 0.648393 0.680960
vt 0.639694 0.663769
vt 0.638839 0.648539
vt 0.599823 0.676740
vt 0.601342 0.647448
vt 0.640201 0.680641
vt 0.610742 0.633035
vt 0.601801 0.635344
vt 0.639694 0.663769
vt 0.601801 0.635344
vt 0.604027 0.632588
vt 0.610742 0.633035
vt 0.908118 0.663769
vt 0.908973 0.648539
vt 0.947989 0.676740
vt 0.907611 0.680641
vt 0.946470 0.647448
vt 0.937070 0.633035
vt 0.946011 0.635344
vt 0.908118 0.663769
vt 0.937070 0.633035
vt 0.943785 0.632588
vt 0.946011 0.635344
vn -0.000000 0.876165 0.482011
vn -0.000000 0.865797 0.500395
vn 0.075625 0.863154 0.499245
vn 0.076486 0.873469 0.480834
vn -0.000000 0.801600 0.597860
vn 0.070998 0.800000 0.595785
vn 0.136538 0.858323 0.494610
vn 0.112461 0.796858 0.593607
vn 0.197557 0.786541 0.585085
vn 0.209159 0.784977 0.583150
vn 0.215959 0.843647 0.491551
vn 0.351312 0.751437 0.558500
vn 0.362395 0.780911 0.508771
vn 0.216353 0.853155 0.474677
vn 0.298576 0.832670 0.466383
vn 0.371757 0.805450 0.461571
vn 0.127144 0.868304 0.479461
vn 0.215931 0.854420 0.472589
vn 0.232009 0.851048 0.471051
vn 0.264399 0.841669 0.470836
vn 0.116315 -0.873776 0.472215
vn 0.113721 -0.868424 0.482605
vn 0.000000 -0.874029 0.485874
vn 0.000000 -0.880524 0.474002
vn 0.207299 -0.857302 0.471234
vn 0.196372 -0.855310 0.479461
vn 0.111944 -0.777285 0.619109
vn 0.000000 -0.773764 0.633474
vn 0.192198 -0.781858 0.593093
vn 0.283430 -0.833066 0.475047
vn 0.284977 -0.770677 0.569952
vn 0.289489 -0.834629 0.468605
vn 0.371698 -0.743748 0.555589
vn 0.366719 -0.800935 0.473309
vn 0.491470 -0.687616 0.534454
vn 0.494924 -0.735912 0.462042
vn 0.366231 -0.805659 0.465605
vn 0.449543 -0.766555 0.458590
vn 0.450321 -0.766112 0.458567
vn -0.076486 0.873469 0.480834
vn -0.075625 0.863154 0.499245
vn -0.070998 0.800000 0.595785
vn -0.136538 0.858323 0.494610
vn -0.112462 0.796858 0.593607
vn -0.197557 0.786541 0.585085
vn -0.215959 0.843647 0.491550
vn -0.209159 0.784977 0.583149
vn -0.351311 0.751438 0.558499
vn -0.362395 0.780911 0.508771
vn -0.216353 0.853155 0.474676
vn -0.298576 0.832670 0.466383
vn -0.371761 0.805448 0.461570
vn -0.127144 0.868304 0.479461
vn -0.215931 0.854420 0.472588
vn -0.232008 0.851048 0.471051
vn -0.264400 0.841669 0.470835
vn -0.116316 -0.873776 0.472215
vn -0.113721 -0.868424 0.482605
vn -0.207299 -0.857302 0.471234
vn -0.196372 -0.855310 0.479461
vn -0.111944 -0.777286 0.619109
vn -0.192198 -0.781857 0.593093
vn -0.284977 -0.770677 0.569952
vn -0.283429 -0.833066 0.475047
vn -0.289489 -0.834629 0.468605
vn -0.371698 -0.743748 0.555590
vn -0.366719 -0.800934 0.473309
vn -0.491470 -0.687617 0.534454
vn -0.494924 -0.735912 0.462042
vn -0.366232 -0.805659 0.465605
vn -0.449544 -0.766555 0.458590
vn -0.450322 -0.766112 0.458566
vn 0.991685 0.015073 0.127804
vn 0.988004 0.017999 0.153374
vn 0.988825 0.015473 0.148276
vn 0.991949 0.009114 0.126311
vn 0.986783 0.016748 0.161182
vn 0.986881 0.017139 0.160537
vn 0.986944 0.016532 0.160212
vn 0.986841 0.016675 0.160829
vn 0.987727 0.016041 0.155364
vn 0.987337 0.003055 0.158610
vn 0.987337 0.003055 0.158610
vn 0.986808 0.016713 0.161028
vn 0.985645 0.017993 0.167872
vn 0.986863 0.016651 0.160699
vn 0.986747 0.016795 0.161396
vn 0.986689 0.016840 0.161743
vn 0.987266 0.016028 0.158270
vn 0.988569 0.014443 0.150073
vn -0.991685 0.015073 0.127804
vn -0.988825 0.015473 0.148276
vn -0.988004 0.017999 0.153374
vn -0.991949 0.009114 0.126312
vn -0.986783 0.016748 0.161182
vn -0.986841 0.016675 0.160829
vn -0.986944 0.016532 0.160212
vn -0.986881 0.017139 0.160537
vn -0.987727 0.016041 0.155364
vn -0.987337 0.003055 0.158610
vn -0.987337 0.003055 0.158610
vn -0.986808 0.016713 0.161028
vn -0.985644 0.017993 0.167873
vn -0.986863 0.016651 0.160699
vn -0.986747 0.016795 0.161396
vn -0.986689 0.016840 0.161743
vn -0.988569 0.014443 0.150073
vn -0.987266 0.016028 0.158270
vn -0.987403 0.015936 0.157419
vn -0.988053 0.015499 0.153334
vn -0.988053 0.015499 0.153334
vn -0.987270 0.016240 0.158221
vn -0.987988 0.015093 0.153795
vn -0.988239 0.010887 0.152531
vn -0.987522 0.015901 0.156676
vn -0.987966 0.015447 0.153901
vn 0.987403 0.015936 0.157419
vn 0.987270 0.016240 0.158221
vn 0.988053 0.015499 0.153333
vn 0.988053 0.015499 0.153333
vn 0.988239 0.010886 0.152530
vn 0.987988 0.015093 0.153795
vn 0.987966 0.015447 0.153901
vn 0.987522 0.015901 0.156676
vn 0.986696 0.016753 0.161711
vn 0.986649 0.017170 0.161955
vn 0.986662 0.016748 0.161916
vn 0.986659 0.016697 0.161942
vn 0.986684 0.016729 0.161788
vn 0.986557 0.017335 0.162493
vn 0.986650 0.016560 0.162012
vn 0.986622 0.016834 0.162156
vn 0.986622 0.016834 0.162156
vn 0.986622 0.016834 0.162156
vn 0.986622 0.016834 0.162156
vn -0.986696 0.016753 0.161711
vn -0.986649 0.017170 0.161955
vn -0.986663 0.016748 0.161916
vn -0.986684 0.016729 0.161788
vn -0.986659 0.016697 0.161942
vn -0.986557 0.017335 0.162493
vn -0.986650 0.016560 0.162012
vn -0.986622 0.016834 0.162156
vn -0.986622 0.016834 0.162156
vn -0.986622 0.016834 0.162156
vn -0.986622 0.016834 0.162156
f 1/1/1 2/2/2 3/3/3
f 1/1/1 3/3/3 4/4/4
f 3/3/3 2/2/2 5/5/5
f 3/3/3 5/5/5 6/6/6
f 7/7/7 3/3/3 6/6/6
f 7/7/7 6/6/6 8/8/8
f 9/9/9 10/10/10 11/11/11
f 9/9/9 11/11/11 7/7/7
f 12/12/12 13/13/13 11/11/11
f 12/12/12 11/11/11 10/10/10
f 7/7/7 8/8/8 9/9/9
f 14/14/14 11/11/11 15/15/15
f 15/15/15 11/11/11 16/16/16
f 11/11/11 13/13/13 16/16/16
f 3/3/3 7/7/7 17/17/17
f 3/3/3 17/17/17 4/4/4
f 7/7/7 11/11/11 14/14/14
f 7/7/7 14/14/14 17/17/17
f 18/18/18 14/14/14 19/19/19
f 19/19/19 14/14/14 20/20/20
f 14/14/14 15/15/15 20/20/20
f 18/18/18 17/17/17 14/14/14
f 21/21/21 22/22/22 23/23/23
f 21/21/21 23/23/23 24/24/24
f 25/25/25 26/26/26 22/22/22
f 25/25/25 22/22/22 21/21/21
f 23/23/23 22/22/22 27/27/27
f 23/23/23 27/27/27 28/28/28
f 22/22/22 26/26/26 29/29/29
f 22/22/22 29/29/29 27/27/27
f 26/26/26 30/30/30 31/31/31
f 26/26/26 31/31/31 29/29/29
f 30/30/30 26/26/26 25/25/25
f 30/30/30 25/25/25 32/32/32
f 33/33/33 31/31/31 30/30/30
f 33/33/33 30/30/30 34/34/34
f 35/35/35 33/33/33 34/34/34
f 35/35/35 34/34/34 36/36/36
f 34/34/34 30/30/30 32/32/32
f 34/34/34 32/32/32 37/37/37
f 38/38/38 39/39/39 34/34/34
f 38/38/38 34/34/34 37/37/37
f 39/39/39 36/36/36 34/34/34
f 1/1/1 40/40/40 41/41/41
f 1/1/1 41/41/41 2/2/2
f 41/41/41 42/42/42 5/5/5
f 41/41/41 5/5/5 2/2/2
f 43/43/43 44/44/44 42/42/42
f 43/43/43 42/42/42 41/41/41
f 45/45/45 43/43/43 46/46/46
f 45/45/45 46/46/46 47/47/47
f 48/48/48 47/47/47 46/46/46
f 48/48/48 46/46/46 49/49/49
f 43/43/43 45/45/45 44/44/44
f 50/50/50 51/51/51 46/46/46
f 51/51/51 52/52/52 46/46/46
f 46/46/46 52/52/52 49/49/49
f 41/41/41 40/40/40 53/53/53
f 41/41/41 53/53/53 43/43/43
f 43/43/43 53/53/53 50/50/50
f 43/43/43 50/50/50 46/46/46
f 54/54/54 55/55/55 50/50/50
f 55/55/55 56/56/56 50/50/50
f 50/50/50 56/56/56 51/51/51
f 54/54/54 50/50/50 53/53/53
f 57/57/57 24/24/24 23/23/23
f 57/57/57 23/23/23 58/58/58
f 59/59/59 57/57/57 58/58/58
f 59/59/59 58/58/58 60/60/60
f 23/23/23 28/28/28 61/61/61
f 23/23/23 61/61/61 58/58/58
f 58/58/58 61/61/61 62/62/62
f 58/58/58 62/62/62 60/60/60
f 60/60/60 62/62/62 63/63/63
f 60/60/60 63/63/63 64/64/64
f 64/64/64 65/65/65 59/59/59
f 64/64/64 59/59/59 60/60/60
f 66/66/66 67/67/67 64/64/64
f 66/66/66 64/64/64 63/63/63
f 68/68/68 69/69/69 67/67/67
f 68/68/68 67/67/67 66/66/66
f 67/67/67 70/70/70 65/65/65
f 67/67/67 65/65/65 64/64/64
f 71/71/71 70/70/70 67/67/67
f 71/71/71 67/67/67 72/72/72
f 72/72/72 67/67/67 69/69/69
f 73/73/73 74/74/74 75/75/75
f 74/74/74 73/73/73 76/76/76
f 77/77/77 78/78/78 79/79/79
f 77/77/77 79/79/79 80/80/80
f 78/78/78 74/74/74 81/81/81
f 78/78/78 81/81/81 79/79/79
f 82/82/82 83/83/83 79/79/79
f 82/82/82 79/79/79 81/81/81
f 84/84/84 79/79/79 85/85/85
f 80/80/80 79/79/79 84/84/84
f 80/80/80 84/84/84 86/86/86
f 87/87/87 88/88/88 78/78/78
f 87/87/87 78/78/78 77/77/77
f 75/75/75 74/74/74 89/89/89
f 75/75/75 89/89/89 90/90/90
f 74/74/74 78/78/78 88/88/88
f 74/74/74 88/88/88 89/89/89
f 91/91/91 92/92/92 93/93/93
f 93/93/93 94/94/94 91/91/91
f 95/95/95 96/96/96 97/97/97
f 95/95/95 97/97/97 98/98/98
f 98/98/98 97/97/97 99/99/99
f 98/98/98 99/99/99 93/93/93
f 100/100/100 99/99/99 97/97/97
f 100/100/100 97/97/97 101/101/101
f 102/102/102 103/103/103 97/97/97
f 96/96/96 104/104/104 102/102/102
f 96/96/96 102/102/102 97/97/97
f 105/105/105 95/95/95 98/98/98
f 105/105/105 98/98/98 106/106/106
f 92/92/92 107/107/107 108/108/108
f 92/92/92 108/108/108 93/93/93
f 93/93/93 108/108/108 106/106/106
f 93/93/93 106/106/106 98/98/98
f 109/109/109 110/110/110 111/111/111
f 109/109/109 111/111/111 112/112/112
f 109/109/109 113/113/113 114/114/114
f 113/113/113 109/109/109 115/115/115
f 113/113/113 115/115/115 116/116/116
f 117/117/117 118/118/118 119/119/119
f 117/117/117 119/119/119 120/120/120
f 117/117/117 121/121/121 122/122/122
f 122/122/122 123/123/123 124/124/124
f 122/122/122 124/124/124 117/117/117
f 125/125/125 126/126/126 118/118/118
f 125/125/125 118/118/118 117/117/117
f 127/127/127 128/128/128 125/125/125
f 127/127/127 125/125/125 129/129/129
f 129/129/129 125/125/125 117/117/117
f 129/129/129 117/117/117 124/124/124
f 125/125/125 130/130/130 126/126/126
f 131/131/131 125/125/125 128/128/128
f 132/132/132 133/133/133 134/134/134
f 132/132/132 134/134/134 135/135/135
f 136/136/136 109/109/109 112/112/112
f 136/136/136 112/112/112 137/137/137
f 138/138/138 139/139/139 136/136/136
f 138/138/138 136/136/136 140/140/140
f 139/139/139 115/115/115 109/109/109
f 139/139/139 109/109/109 136/136/136
f 141/141/141 136/136/136 137/137/137
f 136/136/136 142/142/142 140/140/140
f 143/143/143 144/144/144 145/145/145
f 143/143/143 145/145/145 146/146/146
# ext.tangent -1.000000 0.000042 -0.000077 1.0
# ext.tangent -1.000000 0.000046 -0.000079 1.0
# ext.tangent -0.994452 0.028576 0.101233 1.0
# ext.tangent -0.993582 0.026463 0.109977 1.0
# ext.tangent -1.000000 0.000048 -0.000065 1.0
# ext.tangent -0.994417 0.010022 0.105045 1.0
# ext.tangent -0.977375 0.035300 0.208548 1.0
# ext.tangent -0.984169 0.006970 0.177097 1.0
# ext.tangent -0.964438 0.049041 0.259721 1.0
# ext.tangent -0.953331 0.030895 0.300344 1.0
# ext.tangent -0.941919 0.047396 0.332480 1.0
# ext.tangent -0.901984 0.111713 0.417068 1.0
# ext.tangent -0.891772 0.131834 0.432854 1.0
# ext.tangent -0.948959 0.069478 0.307651 1.0
# ext.tangent -0.914438 0.109691 0.389578 1.0
# ext.tangent -0.883471 0.154270 0.442358 1.0
# ext.tangent -0.978282 0.029996 0.205098 1.0
# ext.tangent -0.953115 0.079355 0.292019 1.0
# ext.tangent -0.946238 0.085249 0.312036 1.0
# ext.tangent -0.931681 0.096802 0.350143 1.0
# ext.tangent -0.989075 -0.058552 0.135284 1.0
# ext.tangent -0.986841 -0.042534 0.156001 1.0
# ext.tangent -1.000000 0.000026 0.000047 1.0
# ext.tangent -1.000000 0.000030 0.000055 1.0
# ext.tangent -0.959635 -0.084611 0.268220 1.0
# ext.tangent -0.959718 -0.067448 0.272750 1.0
# ext.tangent -0.991197 -0.043021 0.125211 1.0
# ext.tangent -1.000000 0.000032 0.000039 1.0
# ext.tangent -0.970013 -0.059733 0.235599 1.0
# ext.tangent -0.913638 -0.084030 0.397750 1.0
# ext.tangent -0.927413 -0.071403 0.367159 1.0
# ext.tangent -0.902401 -0.074734 0.424367 1.0
# ext.tangent -0.867736 -0.065629 0.492674 1.0
# ext.tangent -0.838438 -0.064060 0.541219 1.0
# ext.tangent -0.794339 -0.102333 0.598794 1.0
# ext.tangent -0.771659 -0.127771 0.623070 1.0
# ext.tangent -0.836913 -0.066464 0.543285 1.0
# ext.tangent -0.787922 -0.098424 0.607858 1.0
# ext.tangent -0.789912 -0.102415 0.604607 1.0
# ext.tangent -0.993568 -0.026381 -0.110123 1.0
# ext.tangent -0.994441 -0.028496 -0.101369 1.0
# ext.tangent -0.994405 -0.009930 -0.105167 1.0
# ext.tangent -0.977350 -0.035220 -0.208681 1.0
# ext.tangent -0.984144 -0.006862 -0.177239 1.0
# ext.tangent -0.964409 -0.048941 -0.259845 1.0
# ext.tangent -0.941880 -0.047316 -0.332600 1.0
# ext.tangent -0.953288 -0.030774 -0.300492 1.0
# ext.tangent -0.901961 -0.111655 -0.417132 1.0
# ext.tangent -0.891778 -0.131847 -0.432837 1.0
# ext.tangent -0.948912 -0.069371 -0.307822 1.0
# ext.tangent -0.914360 -0.109536 -0.389805 1.0
# ext.tangent -0.883444 -0.154224 -0.442427 1.0
# ext.tangent -0.978254 -0.029913 -0.205242 1.0
# ext.tangent -0.953080 -0.079272 -0.292154 1.0
# ext.tangent -0.946221 -0.085208 -0.312099 1.0
# ext.tangent -0.931625 -0.096686 -0.350323 1.0
# ext.tangent -0.989086 0.058609 -0.135183 1.0
# ext.tangent -0.986855 0.042594 -0.155896 1.0
# ext.tangent -0.959657 0.084670 -0.268122 1.0
# ext.tangent -0.959744 0.067515 -0.272641 1.0
# ext.tangent -0.991204 0.043086 -0.125130 1.0
# ext.tangent -0.970035 0.059824 -0.235486 1.0
# ext.tangent -0.927444 0.071481 -0.367068 1.0
# ext.tangent -0.913669 0.084087 -0.397667 1.0
# ext.tangent -0.902438 0.074797 -0.424276 1.0
# ext.tangent -0.867761 0.065680 -0.492622 1.0
# ext.tangent -0.838472 0.064110 -0.541160 1.0
# ext.tangent -0.794336 0.102328 -0.598798 1.0
# ext.tangent -0.771658 0.127768 -0.623073 1.0
# ext.tangent -0.836991 0.066578 -0.543151 1.0
# ext.tangent -0.787992 0.098530 -0.607750 1.0
# ext.tangent -0.789929 0.102442 -0.604581 1.0
# ext.tangent -0.128423 0.051981 0.990356 1.0
# ext.tangent -0.154055 0.045998 0.986991 1.0
# ext.tangent -0.148908 0.054654 0.987339 1.0
# ext.tangent -0.126611 0.050218 0.990681 1.0
# ext.tangent -0.161880 0.056357 0.985200 1.0
# ext.tangent -0.161229 0.052644 0.985512 1.0
# ext.tangent -0.160982 0.069711 0.984492 1.0
# ext.tangent -0.161556 0.061054 0.984973 1.0
# ext.tangent -0.156051 0.059355 0.985964 1.0
# ext.tangent -0.158469 0.065332 0.985200 1.0
# ext.tangent -0.158485 0.063114 0.985342 1.0
# ext.tangent -0.161862 0.082363 0.983370 1.0
# ext.tangent -0.168793 0.126904 0.977448 1.0
# ext.tangent -0.161432 0.062087 0.984929 1.0
# ext.tangent -0.162061 0.051865 0.985417 1.0
# ext.tangent -0.162275 0.037486 0.986033 1.0
# ext.tangent -0.158817 0.042228 0.986405 1.0
# ext.tangent -0.150637 0.053323 0.987150 1.0
# ext.tangent -0.128423 -0.051981 -0.990356 1.0
# ext.tangent -0.148908 -0.054654 -0.987340 1.0
# ext.tangent -0.154055 -0.045998 -0.986991 1.0
# ext.tangent -0.126612 -0.050218 -0.990680 1.0
# ext.tangent -0.161880 -0.056357 -0.985200 1.0
# ext.tangent -0.161556 -0.061054 -0.984973 1.0
# ext.tangent -0.160982 -0.069711 -0.984492 1.0
# ext.tangent -0.161229 -0.052644 -0.985512 1.0
# ext.tangent -0.156051 -0.059355 -0.985964 1.0
# ext.tangent -0.158469 -0.065332 -0.985200 1.0
# ext.tangent -0.158485 -0.063114 -0.985342 1.0
# ext.tangent -0.161862 -0.082363 -0.983370 1.0
# ext.tangent -0.168794 -0.126904 -0.977448 1.0
# ext.tangent -0.161432 -0.062087 -0.984929 1.0
# ext.tangent -0.162061 -0.051865 -0.985417 1.0
# ext.tangent -0.162275 -0.037486 -0.986033 1.0
# ext.tangent -0.150637 -0.053323 -0.987150 1.0
# ext.tangent -0.158817 -0.042228 -0.986405 1.0
# ext.tangent -0.157171 0.015766 -0.987446 1.0
# ext.tangent -0.153414 -0.004124 -0.988153 1.0
# ext.tangent -0.151763 0.075338 -0.985542 1.0
# ext.tangent -0.156901 0.063601 -0.985564 1.0
# ext.tangent -0.154240 -0.034982 -0.987414 1.0
# ext.tangent -0.152595 -0.005335 -0.988274 1.0
# ext.tangent -0.157148 -0.034844 -0.986960 1.0
# ext.tangent -0.154490 -0.050005 -0.986728 1.0
# ext.tangent -0.157171 -0.015765 0.987446 1.0
# ext.tangent -0.156901 -0.063601 0.985564 1.0
# ext.tangent -0.151762 -0.075337 0.985542 1.0
# ext.tangent -0.153413 0.004124 0.988154 1.0
# ext.tangent -0.152594 0.005335 0.988275 1.0
# ext.tangent -0.154240 0.034982 0.987414 1.0
# ext.tangent -0.154490 0.050005 0.986728 1.0
# ext.tangent -0.157148 0.034844 0.986960 1.0
# ext.tangent -0.162028 0.019690 0.986590 1.0
# ext.tangent -0.162132 0.009440 0.986724 1.0
# ext.tangent -0.162548 0.048249 0.985520 1.0
# ext.tangent -0.162566 0.047684 0.985545 1.0
# ext.tangent -0.162028 0.014131 0.986685 1.0
# ext.tangent -0.163085 0.041243 0.985750 1.0
# ext.tangent -0.162630 0.047795 0.985529 1.0
# ext.tangent -0.162770 0.045815 0.985600 1.0
# ext.tangent -0.162778 0.046774 0.985553 1.0
# ext.tangent -0.162770 0.045815 0.985600 1.0
# ext.tangent -0.162761 0.044859 0.985645 1.0
# ext.tangent -0.162028 -0.019690 -0.986590 1.0
# ext.tangent -0.162132 -0.009440 -0.986724 1.0
# ext.tangent -0.162547 -0.048249 -0.985520 1.0
# ext.tangent -0.162028 -0.014131 -0.986685 1.0
# ext.tangent -0.162566 -0.047684 -0.985545 1.0
# ext.tangent -0.163085 -0.041243 -0.985750 1.0
# ext.tangent -0.162630 -0.047795 -0.985529 1.0
# ext.tangent -0.162770 -0.045815 -0.985600 1.0
# ext.tangent -0.162761 -0.044859 -0.985645 1.0
# ext.tangent -0.162770 -0.045815 -0.985600 1.0
# ext.tangent -0.162778 -0.046774 -0.985553 1.0
