v -48.771072 155.542709 -84.741867
v 3.927824 163.738419 -88.527115
v -5.978291 247.826340 -100.137093
v -56.692284 240.470490 -96.739716
v -5.978291 247.826340 -100.137093
v -9.216978 402.987671 -115.041252
v -42.546852 402.987640 -115.041260
v -56.692284 240.470490 -96.739716
v -20.615763 559.540955 -137.802765
v 18.765312 540.743103 -137.967621
v 50.593952 700.886780 -185.711563
v 14.395336 723.167114 -186.270447
v 84.187515 862.719421 -240.354004
v 115.643028 840.474792 -238.965530
v 260.800079 1018.373901 -323.313538
v 241.786819 1045.483643 -327.114502
v 241.786819 1045.483643 -327.114502
v 260.800079 1018.373901 -323.313538
v 492.329865 1110.149170 -326.920746
v 487.578186 1142.383179 -333.465424
v 598.073669 1132.631958 -352.931152
v 687.174622 1145.085205 -371.183075
v 690.384399 1171.944092 -378.867096
v 589.497742 1164.303955 -358.778809
v 1010.041992 945.226379 -361.081543
v 980.281494 933.397095 -353.681335
v 1024.677124 743.702026 -276.891724
v 1056.741211 743.272217 -284.111603
v 1024.677124 743.702026 -276.891724
v 930.202515 461.193665 -138.256393
v 959.408081 450.561951 -130.757812
v 1056.741211 743.272217 -284.111603
v 920.343079 345.626953 -70.428360
v 890.346680 359.159149 -75.716797
v 808.687134 218.028580 -42.820328
v 838.107544 209.475586 -29.699265
v 838.107544 209.475586 -29.699265
v 808.687134 218.028580 -42.820328
v 727.598694 -3.505627 59.325584
v 758.062317 -7.781933 59.224716
v 742.464966 -210.268463 113.961197
v 711.117249 -209.616257 125.265862
v 745.918335 -318.514771 162.245651
v 777.083008 -315.569855 150.801544
v 936.244690 -481.962219 215.505280
v 915.470032 -493.837738 238.706192
v 1144.812378 -563.688721 283.708099
v 1152.642700 -544.350403 257.716827
v 1152.642700 -544.350403 257.716827
v 1144.812378 -563.688721 283.708099
v 1263.915039 -576.875488 295.327759
v 1254.979492 -553.535461 274.069611
v 1485.481201 -489.227264 275.719788
v 1487.863281 -502.913239 306.016846
v 1744.228516 -325.475922 267.014435
v 1733.988159 -309.433289 239.653320
v 1733.988159 -309.433289 239.653320
v 1744.228516 -325.475922 267.014435
v 1813.382690 -267.207825 241.645401
v 1789.996094 -260.112976 219.309723
v 1901.729736 -70.729553 87.391373
v 1921.395020 -68.248337 114.186081
v 1977.411621 76.342636 31.093527
v 1947.155518 63.473625 25.624628
v 1947.155518 63.473625 25.624628
v 1977.411621 76.342636 31.093527
v 1982.240112 163.576523 -20.238701
v 1949.730225 157.023148 -23.568001
v 1916.557007 413.769531 -169.399872
v 1939.077881 438.034332 -173.252319
v 1853.659790 558.973694 -253.656021
v 1831.280396 536.369873 -243.705246
v 1831.280396 536.369873 -243.705246
v 1853.659790 558.973694 -253.656021
v 1783.233276 594.147949 -261.217255
v 1774.717773 569.356262 -251.467758
v 1541.988892 541.573547 -250.599167
v 1534.000854 570.612427 -264.875244
v 1397.313110 502.106171 -249.965912
v 1412.140625 481.687531 -238.588531
v 1412.140625 481.687531 -238.588531
v 1397.313110 502.106171 -249.965912
v 1305.570190 422.248566 -217.281769
v 1327.542969 400.734985 -216.395493
v 1327.542969 400.734985 -216.395493
v 1305.570190 422.248566 -217.281769
v 1242.990601 272.017090 -194.081055
v 1266.659546 277.417084 -203.750244
v 1242.990601 272.017090 -194.081055
v 1236.516113 121.765961 -195.314163
v 1263.235229 134.357239 -202.410843
v 1266.659546 277.417084 -203.750244
v 1365.345947 -65.670609 -264.222290
v 1361.078125 -88.585861 -253.927994
v 1463.885254 -104.824867 -286.321075
v 1450.719482 -74.388329 -289.653625
v 1450.719482 -74.388329 -289.653625
v 1463.885254 -104.824867 -286.321075
v 1530.064453 -66.634567 -309.276947
v 1523.269775 -46.321369 -301.927856
v 1523.269775 -46.321369 -301.927856
v 1530.064453 -66.634567 -309.276947
v 1589.759155 70.984291 -331.520386
v 1584.798706 70.396690 -323.284668
v 1257.669922 21.927532 -215.415817
v 1361.078125 -88.585861 -253.927994
v 1365.345947 -65.670609 -264.222290
v 1274.538818 36.822392 -219.155975
v 687.174622 1145.085205 -371.183075
v 785.879700 1133.992188 -383.180420
v 800.214233 1157.322388 -392.487915
v 690.384399 1171.944092 -378.867096
v 980.281494 933.397095 -353.681335
v 1010.041992 945.226379 -361.081543
v 927.322754 1052.615601 -388.269135
v 909.092163 1031.010986 -378.202881
v 810.607910 -414.485687 213.801498
v 837.439575 -407.816345 197.454391
v 777.083008 -315.569855 150.801544
v 745.918335 -318.514771 162.245651
v 1263.915039 -576.875488 295.327759
v 1410.953613 -524.346558 312.896881
v 1408.613647 -514.678589 281.591309
v 1254.979492 -553.535461 274.069611
v 1921.395020 -68.248337 114.186081
v 1901.729736 -70.729553 87.391373
v 1843.388672 -178.063477 178.012695
v 1865.443604 -182.226730 202.651367
v 1716.999878 609.334778 -268.750305
v 1534.000854 570.612427 -264.875244
v 1541.988892 541.573547 -250.599167
v 1722.492310 582.332397 -259.204163
v -30.778822 35.843826 -72.441193
v 34.959877 49.557106 -78.774796
v -9.216978 402.987671 -115.041252
v 18.765312 540.743103 -137.967621
v -20.615763 559.540955 -137.802765
v -42.546852 402.987640 -115.041260
v 727.598694 -3.505627 59.325584
v 711.117249 -209.616257 125.265862
v 742.464966 -210.268463 113.961197
v 758.062317 -7.781933 59.224716
v 1939.077881 438.034332 -173.252319
v 1916.557007 413.769531 -169.399872
v 1950.245117 260.139038 -80.737320
v 1982.754883 266.692474 -77.407990
v 1988.685059 207.086105 -44.116673
v 1956.175171 200.532684 -47.445953
v 1949.730225 157.023148 -23.568001
v 1982.240112 163.576523 -20.238701
v 1236.516113 121.765961 -195.314163
v 1257.669922 21.927532 -215.415817
v 1274.538818 36.822392 -219.155975
v 1263.235229 134.357239 -202.410843
v 492.329865 1110.149170 -326.920746
v 598.073669 1132.631958 -352.931152
v 589.497742 1164.303955 -358.778809
v 487.578186 1142.383179 -333.465424
v 1783.233276 594.147949 -261.217255
v 1716.999878 609.334778 -268.750305
v 1722.492310 582.332397 -259.204163
v 1774.717773 569.356262 -251.467758
v 1982.754883 266.692474 -77.407990
v 1950.245117 260.139038 -80.737320
v 1956.175171 200.532684 -47.445953
v 1988.685059 207.086105 -44.116673
v 1865.443604 -182.226730 202.651367
v 1843.388672 -178.063477 178.012695
v 1789.996094 -260.112976 219.309723
v 1813.382690 -267.207825 241.645401
v 1487.863281 -502.913239 306.016846
v 1485.481201 -489.227264 275.719788
v 1408.613647 -514.678589 281.591309
v 1410.953613 -524.346558 312.896881
v 915.470032 -493.837738 238.706192
v 936.244690 -481.962219 215.505280
v 837.439575 -407.816345 197.454391
v 810.607910 -414.485687 213.801498
v 930.202515 461.193665 -138.256393
v 890.346680 359.159149 -75.716797
v 920.343079 345.626953 -70.428360
v 959.408081 450.561951 -130.757812
v 785.879700 1133.992188 -383.180420
v 855.315613 1088.500977 -386.637299
v 871.699341 1110.799072 -396.412964
v 800.214233 1157.322388 -392.487915
v 855.315613 1088.500977 -386.637299
v 909.092163 1031.010986 -378.202881
v 927.322754 1052.615601 -388.269135
v 871.699341 1110.799072 -396.412964
v 115.643028 840.474792 -238.965530
v 84.187515 862.719421 -240.354004
v 14.395336 723.167114 -186.270447
v 50.593952 700.886780 -185.711563
vt -0.279880 0.969731
vt -0.279880 0.864521
vt -0.002477 0.864521
vt -0.002477 0.969731
vt -0.002477 0.864521
vt 0.771200 0.864521
vt 0.771200 0.969731
vt -0.002477 0.969731
vt 1.259927 0.969731
vt 1.259927 0.864521
vt 1.821239 0.864521
vt 1.821239 0.969731
vt 2.393393 0.969731
vt 2.393393 0.864521
vt 2.762128 0.864521
vt 2.762128 0.969731
vt 2.762128 0.969731
vt 2.762128 0.864521
vt 3.664941 0.864521
vt 3.664941 0.969731
vt 4.014866 0.864521
vt 4.454141 0.864521
vt 4.454141 0.969731
vt 4.014866 0.969731
vt 4.776325 0.969731
vt 4.776325 0.864521
vt 5.699568 0.864521
vt 5.699568 0.969731
vt 5.699568 0.864521
vt 6.222801 0.864521
vt 6.222800 0.969731
vt 5.699568 0.969731
vt 6.422153 0.969731
vt 6.422153 0.864521
vt 7.077680 0.864521
vt 7.077680 0.969731
vt 7.077680 0.969731
vt 7.077680 0.864521
vt 7.737656 0.864521
vt 7.737656 0.969731
vt 8.296897 0.969731
vt 8.296897 0.864521
vt 8.460847 0.864521
vt 8.460847 0.969731
vt 8.931175 0.969731
vt 8.931175 0.864521
vt 9.700906 0.864521
vt 9.700906 0.969731
vt 9.700906 0.969731
vt 9.700906 0.864521
vt 10.083176 0.864521
vt 10.083176 0.969731
vt 10.553465 0.969731
vt 10.553465 0.864521
vt 11.276585 0.864521
vt 11.276585 0.969731
vt 11.276585 0.969731
vt 11.276585 0.864521
vt 11.582270 0.864521
vt 11.582270 0.969731
vt 12.327029 0.969731
vt 12.327029 0.864521
vt 13.272938 0.864521
vt 13.272938 0.969731
vt 13.272938 0.969731
vt 13.272938 0.864521
vt 13.339849 0.864521
vt 13.339850 0.969731
vt 14.115388 0.969731
vt 14.115388 0.864521
vt 14.636327 0.864521
vt 14.636327 0.969731
vt 14.636327 0.969731
vt 14.636327 0.864521
vt 14.768860 0.864521
vt 14.768860 0.969731
vt 15.416126 0.969731
vt 15.416126 0.864521
vt 16.108812 0.864521
vt 16.108812 0.969731
vt 16.108812 0.969731
vt 16.108812 0.864521
vt 16.585663 0.864521
vt 16.585663 0.969731
vt 16.585663 0.969731
vt 16.585663 0.864521
vt 17.034042 0.864521
vt 17.034042 0.969731
vt 17.034042 0.864521
vt 17.181541 0.864521
vt 17.181541 0.969731
vt 17.034042 0.969731
vt 17.771133 0.969731
vt 17.771133 0.864521
vt 18.104527 0.864521
vt 18.104527 0.969731
vt 18.104527 0.969731
vt 18.104527 0.864521
vt 18.375313 0.864521
vt 18.375313 0.969731
vt 18.375313 0.969731
vt 18.375313 0.864521
vt 18.579933 0.864521
vt 18.579933 0.969731
vt 17.342022 0.864521
vt 17.771133 0.864521
vt 17.771133 0.969731
vt 17.342022 0.969731
vt 4.454141 0.864521
vt 4.529810 0.864521
vt 4.529810 0.969731
vt 4.454141 0.969731
vt 4.776325 0.864521
vt 4.776325 0.969731
vt 4.623438 0.969731
vt 4.623438 0.864521
vt 8.656991 0.864521
vt 8.656991 0.969731
vt 8.460847 0.969731
vt 8.460847 0.864521
vt 10.083176 0.864521
vt 10.391243 0.864521
vt 10.391243 0.969731
vt 10.083176 0.969731
vt 12.327029 0.864521
vt 12.327029 0.969731
vt 11.908719 0.969731
vt 11.908719 0.864521
vt 14.902769 0.864521
vt 15.416126 0.864521
vt 15.416126 0.969731
vt 14.902769 0.969731
vt -0.679405 0.969731
vt -0.679405 0.864521
vt 0.771200 0.864521
vt 1.259927 0.864521
vt 1.259927 0.969731
vt 0.771200 0.969731
vt 7.737656 0.864521
vt 8.296897 0.864521
vt 8.296897 0.969731
vt 7.737656 0.969731
vt 14.115388 0.864521
vt 14.115388 0.969731
vt 13.444125 0.969731
vt 13.444124 0.864521
vt 13.381178 0.864521
vt 13.381180 0.969731
vt 13.339850 0.969731
vt 13.339849 0.864521
vt 17.181541 0.864521
vt 17.342022 0.864521
vt 17.342022 0.969731
vt 17.181541 0.969731
vt 3.664941 0.864521
vt 4.014866 0.864521
vt 4.014866 0.969731
vt 3.664941 0.969731
vt 14.768860 0.864521
vt 14.902769 0.864521
vt 14.902769 0.969731
vt 14.768860 0.969731
vt 13.444124 0.864521
vt 13.444125 0.969731
vt 13.381180 0.969731
vt 13.381178 0.864521
vt 11.908719 0.864521
vt 11.908719 0.969731
vt 11.582270 0.969731
vt 11.582270 0.864521
vt 10.553465 0.864521
vt 10.553465 0.969731
vt 10.391243 0.969731
vt 10.391243 0.864521
vt 8.931175 0.864521
vt 8.931175 0.969731
vt 8.656991 0.969731
vt 8.656991 0.864521
vt 6.222801 0.864521
vt 6.422153 0.864521
vt 6.422153 0.969731
vt 6.222800 0.969731
vt 4.529810 0.864521
vt 4.581517 0.864521
vt 4.581517 0.969731
vt 4.529810 0.969731
vt 4.581517 0.864521
vt 4.623438 0.864521
vt 4.623438 0.969731
vt 4.581517 0.969731
vt 2.393393 0.864521
vt 2.393393 0.969731
vt 1.821239 0.969731
vt 1.821239 0.864521
vn 0.056295 0.124654 0.990602
vn 0.056214 0.124816 0.990586
vn 0.047150 0.143058 0.988591
vn 0.047150 0.143058 0.988591
vn 0.031188 0.102850 0.994208
vn 0.031188 0.102850 0.994208
vn 0.031188 0.102850 0.994208
vn 0.031188 0.102850 0.994208
vn 0.134500 0.256646 0.957101
vn 0.134500 0.256646 0.957101
vn 0.134500 0.256646 0.957101
vn 0.134500 0.256646 0.957101
vn 0.186223 0.289160 0.938993
vn 0.186223 0.289160 0.938993
vn 0.186223 0.289160 0.938993
vn 0.186223 0.289160 0.938993
vn -0.040941 0.155666 0.986961
vn -0.040941 0.155666 0.986961
vn -0.040941 0.155666 0.986961
vn -0.040941 0.155666 0.986961
vn 0.168087 0.236645 0.956946
vn 0.168087 0.236645 0.956946
vn 0.168087 0.236645 0.956946
vn 0.168087 0.236645 0.956946
vn 0.143099 0.390342 0.909481
vn 0.143099 0.390342 0.909481
vn 0.143099 0.390342 0.909481
vn 0.143099 0.390342 0.909481
vn 0.073851 0.431711 0.898984
vn 0.073851 0.431711 0.898984
vn 0.073851 0.431711 0.898984
vn 0.073851 0.431711 0.898984
vn -0.160363 0.340763 0.926372
vn -0.160363 0.340763 0.926372
vn -0.160363 0.340763 0.926372
vn -0.160363 0.340763 0.926372
vn -0.103286 0.428743 0.897503
vn -0.103286 0.428743 0.897503
vn -0.103286 0.428743 0.897503
vn -0.103286 0.428743 0.897503
vn 0.301069 0.396464 0.867279
vn 0.301069 0.396464 0.867279
vn 0.301069 0.396464 0.867279
vn 0.301069 0.396464 0.867279
vn 0.124456 0.803468 0.582194
vn 0.124456 0.803468 0.582194
vn 0.124456 0.803468 0.582194
vn 0.124456 0.803468 0.582194
vn -0.009727 0.741943 0.670392
vn -0.009727 0.741943 0.670392
vn -0.009727 0.741943 0.670392
vn -0.009727 0.741943 0.670392
vn -0.456056 0.746391 0.484679
vn -0.456056 0.746391 0.484679
vn -0.456056 0.746391 0.484679
vn -0.456056 0.746391 0.484679
vn -0.389916 0.705205 0.592158
vn -0.389916 0.705205 0.592158
vn -0.389916 0.705205 0.592158
vn -0.389916 0.705205 0.592158
vn -0.568813 0.532609 0.626721
vn -0.568813 0.532609 0.626721
vn -0.568813 0.532609 0.626721
vn -0.568813 0.532609 0.626721
vn -0.265037 0.476862 0.838068
vn -0.265037 0.476862 0.838068
vn -0.265037 0.476862 0.838068
vn -0.265037 0.476862 0.838068
vn -0.181302 0.433638 0.882659
vn -0.181302 0.433638 0.882659
vn -0.181302 0.433638 0.882659
vn -0.181302 0.433638 0.882659
vn 0.071075 0.342993 0.936645
vn 0.071075 0.342993 0.936645
vn 0.071075 0.342993 0.936645
vn 0.071075 0.342993 0.936645
vn -0.109875 0.417244 0.902128
vn -0.109875 0.417244 0.902128
vn -0.109875 0.417244 0.902128
vn -0.109875 0.417244 0.902128
vn 0.023572 0.299628 0.953765
vn 0.023572 0.299628 0.953765
vn 0.023572 0.299628 0.953765
vn 0.023572 0.299628 0.953765
vn 0.201518 0.037306 0.978774
vn 0.201518 0.037306 0.978774
vn 0.201518 0.037306 0.978774
vn 0.201518 0.037306 0.978774
vn 0.319049 -0.010424 0.947681
vn 0.319049 -0.010424 0.947681
vn 0.319049 -0.010424 0.947681
vn 0.319049 -0.010424 0.947681
vn 0.315846 0.283913 0.905337
vn 0.315846 0.283913 0.905337
vn 0.315846 0.283913 0.905337
vn 0.315846 0.283913 0.905337
vn 0.238487 0.016951 0.970998
vn 0.238487 0.016951 0.970998
vn 0.238487 0.016951 0.970998
vn 0.238487 0.016951 0.970998
vn 0.655715 -0.187141 0.731448
vn 0.655715 -0.187141 0.731448
vn 0.655715 -0.187141 0.731448
vn 0.655715 -0.187141 0.731448
vn 0.459569 0.071678 0.885245
vn 0.459569 0.071678 0.885245
vn 0.459569 0.071678 0.885245
vn 0.459569 0.071678 0.885245
vn 0.150095 0.269565 0.951213
vn 0.150095 0.269565 0.951213
vn 0.150095 0.269565 0.951213
vn 0.150095 0.269565 0.951213
vn 0.116040 0.323950 0.938931
vn 0.116040 0.323950 0.938931
vn 0.116040 0.323950 0.938931
vn 0.116040 0.323950 0.938931
vn 0.271471 0.580799 0.767448
vn 0.271471 0.580799 0.767448
vn 0.271471 0.580799 0.767448
vn 0.271471 0.580799 0.767448
vn -0.284213 0.783310 0.552855
vn -0.284213 0.783310 0.552855
vn -0.284213 0.783310 0.552855
vn -0.284213 0.783310 0.552855
vn -0.561238 0.676121 0.477360
vn -0.561238 0.676121 0.477360
vn -0.561238 0.676121 0.477360
vn -0.561238 0.676121 0.477360
vn -0.051424 0.380186 0.923479
vn -0.051424 0.380186 0.923479
vn -0.051424 0.380186 0.923479
vn -0.051424 0.380186 0.923479
vn 0.064940 0.107161 0.992119
vn 0.064940 0.107161 0.992119
vn 0.040147 0.146625 0.988377
vn 0.040147 0.146625 0.988377
vn 0.040147 0.146625 0.988377
vn 0.040147 0.146625 0.988377
vn 0.195328 0.263657 0.944633
vn 0.195328 0.263657 0.944633
vn 0.195328 0.263657 0.944633
vn 0.195328 0.263657 0.944633
vn -0.236260 0.436613 0.868073
vn -0.236260 0.436613 0.868073
vn -0.236260 0.436613 0.868073
vn -0.236260 0.436613 0.868073
vn -0.186514 0.493756 0.849363
vn -0.186514 0.493756 0.849363
vn -0.186514 0.493756 0.849363
vn -0.186514 0.493756 0.849363
vn 0.312575 -0.124402 0.941712
vn 0.312575 -0.124402 0.941712
vn 0.312575 -0.124402 0.941712
vn 0.312575 -0.124402 0.941712
vn 0.188256 0.224659 0.956079
vn 0.188256 0.224659 0.956079
vn 0.188256 0.224659 0.956079
vn 0.188256 0.224659 0.956079
vn -0.037221 0.350771 0.935721
vn -0.037221 0.350771 0.935721
vn -0.037221 0.350771 0.935721
vn -0.037221 0.350771 0.935721
vn -0.182529 0.465524 0.866009
vn -0.182529 0.465524 0.866009
vn -0.182529 0.465524 0.866009
vn -0.182529 0.465524 0.866009
vn -0.491833 0.609434 0.621844
vn -0.491833 0.609434 0.621844
vn -0.491833 0.609434 0.621844
vn -0.491833 0.609434 0.621844
vn -0.244629 0.900287 0.360056
vn -0.244629 0.900287 0.360056
vn -0.244629 0.900287 0.360056
vn -0.244629 0.900287 0.360056
vn 0.331778 0.635356 0.697313
vn 0.331778 0.635356 0.697313
vn 0.331778 0.635356 0.697313
vn 0.331778 0.635356 0.697313
vn 0.019653 0.504830 0.862995
vn 0.019653 0.504830 0.862995
vn 0.019653 0.504830 0.862995
vn 0.019653 0.504830 0.862995
vn 0.213450 0.251158 0.944118
vn 0.213450 0.251158 0.944118
vn 0.213450 0.251158 0.944118
vn 0.213450 0.251158 0.944118
vn 0.167508 0.293319 0.941225
vn 0.167508 0.293319 0.941225
vn 0.167508 0.293319 0.941225
vn 0.167508 0.293319 0.941225
vn 0.160781 0.285621 0.944759
vn 0.160781 0.285621 0.944759
vn 0.160781 0.285621 0.944759
vn 0.160781 0.285621 0.944759
f 1/1/1 2/2/2 3/3/3
f 1/1/1 3/3/3 4/4/4
f 5/5/5 6/6/6 7/7/7
f 5/5/5 7/7/7 8/8/8
f 9/9/9 10/10/10 11/11/11
f 9/9/9 11/11/11 12/12/12
f 13/13/13 14/14/14 15/15/15
f 13/13/13 15/15/15 16/16/16
f 17/17/17 18/18/18 19/19/19
f 17/17/17 19/19/19 20/20/20
f 21/21/21 22/22/22 23/23/23
f 21/21/21 23/23/23 24/24/24
f 25/25/25 26/26/26 27/27/27
f 25/25/25 27/27/27 28/28/28
f 29/29/29 30/30/30 31/31/31
f 29/29/29 31/31/31 32/32/32
f 33/33/33 34/34/34 35/35/35
f 33/33/33 35/35/35 36/36/36
f 37/37/37 38/38/38 39/39/39
f 37/37/37 39/39/39 40/40/40
f 41/41/41 42/42/42 43/43/43
f 41/41/41 43/43/43 44/44/44
f 45/45/45 46/46/46 47/47/47
f 45/45/45 47/47/47 48/48/48
f 49/49/49 50/50/50 51/51/51
f 49/49/49 51/51/51 52/52/52
f 53/53/53 54/54/54 55/55/55
f 53/53/53 55/55/55 56/56/56
f 57/57/57 58/58/58 59/59/59
f 57/57/57 59/59/59 60/60/60
f 61/61/61 62/62/62 63/63/63
f 61/61/61 63/63/63 64/64/64
f 65/65/65 66/66/66 67/67/67
f 65/65/65 67/67/67 68/68/68
f 69/69/69 70/70/70 71/71/71
f 69/69/69 71/71/71 72/72/72
f 73/73/73 74/74/74 75/75/75
f 73/73/73 75/75/75 76/76/76
f 77/77/77 78/78/78 79/79/79
f 77/77/77 79/79/79 80/80/80
f 81/81/81 82/82/82 83/83/83
f 81/81/81 83/83/83 84/84/84
f 85/85/85 86/86/86 87/87/87
f 85/85/85 87/87/87 88/88/88
f 89/89/89 90/90/90 91/91/91
f 89/89/89 91/91/91 92/92/92
f 93/93/93 94/94/94 95/95/95
f 93/93/93 95/95/95 96/96/96
f 97/97/97 98/98/98 99/99/99
f 97/97/97 99/99/99 100/100/100
f 101/101/101 102/102/102 103/103/103
f 101/101/101 103/103/103 104/104/104
f 105/105/105 106/106/106 107/107/107
f 105/105/105 107/107/107 108/108/108
f 109/109/109 110/110/110 111/111/111
f 109/109/109 111/111/111 112/112/112
f 113/113/113 114/114/114 115/115/115
f 113/113/113 115/115/115 116/116/116
f 117/117/117 118/118/118 119/119/119
f 117/117/117 119/119/119 120/120/120
f 121/121/121 122/122/122 123/123/123
f 121/121/121 123/123/123 124/124/124
f 125/125/125 126/126/126 127/127/127
f 125/125/125 127/127/127 128/128/128
f 129/129/129 130/130/130 131/131/131
f 129/129/129 131/131/131 132/132/132
f 133/133/133 134/134/134 2/2/2
f 133/133/133 2/2/2 1/1/1
f 135/135/135 136/136/136 137/137/137
f 135/135/135 137/137/137 138/138/138
f 139/139/139 140/140/140 141/141/141
f 139/139/139 141/141/141 142/142/142
f 143/143/143 144/144/144 145/145/145
f 143/143/143 145/145/145 146/146/146
f 147/147/147 148/148/148 149/149/149
f 147/147/147 149/149/149 150/150/150
f 151/151/151 152/152/152 153/153/153
f 151/151/151 153/153/153 154/154/154
f 155/155/155 156/156/156 157/157/157
f 155/155/155 157/157/157 158/158/158
f 159/159/159 160/160/160 161/161/161
f 159/159/159 161/161/161 162/162/162
f 163/163/163 164/164/164 165/165/165
f 163/163/163 165/165/165 166/166/166
f 167/167/167 168/168/168 169/169/169
f 167/167/167 169/169/169 170/170/170
f 171/171/171 172/172/172 173/173/173
f 171/171/171 173/173/173 174/174/174
f 175/175/175 176/176/176 177/177/177
f 175/175/175 177/177/177 178/178/178
f 179/179/179 180/180/180 181/181/181
f 179/179/179 181/181/181 182/182/182
f 183/183/183 184/184/184 185/185/185
f 183/183/183 185/185/185 186/186/186
f 187/187/187 188/188/188 189/189/189
f 187/187/187 189/189/189 190/190/190
f 191/191/191 192/192/192 193/193/193
f 191/191/191 193/193/193 194/194/194
