v 104.687500 -209.187500 -108.583595
v 104.687500 -206.051147 -109.504509
v 102.991859 -206.549042 -109.504509
v 104.687500 -209.187500 -108.583595
v 101.834579 -207.884613 -109.504509
v 104.687500 -209.187500 -108.583595
v 101.583076 -209.633850 -109.504509
v 104.687500 -209.187500 -108.583595
v 102.317207 -211.241379 -109.504509
v 104.687500 -209.187500 -108.583595
v 103.803886 -212.196808 -109.504509
v 104.687500 -209.187500 -108.583595
v 105.571114 -212.196808 -109.504509
v 104.687500 -209.187500 -108.583595
v 107.057793 -211.241364 -109.504509
v 104.687500 -209.187500 -108.583595
v 107.791924 -209.633850 -109.504509
v 104.687500 -209.187500 -108.583595
v 107.540421 -207.884613 -109.504509
v 104.687500 -209.187500 -108.583595
v 106.383141 -206.549042 -109.504509
v 104.687500 -209.187500 -108.583595
v 104.687500 -206.051147 -109.504509
v 104.687500 -209.187500 -120.185936
v 102.317207 -205.499252 -118.183723
v 104.687500 -204.803268 -118.183723
v 104.687500 -209.187500 -120.185936
v 100.699463 -207.366226 -118.183723
v 104.687500 -209.187500 -120.185936
v 100.347893 -209.811447 -118.183723
v 104.687500 -209.187500 -120.185936
v 101.374123 -212.058563 -118.183723
v 104.687500 -209.187500 -120.185936
v 103.452316 -213.394135 -118.183723
v 104.687500 -209.187500 -120.185936
v 105.922684 -213.394135 -118.183723
v 104.687500 -209.187500 -120.185936
v 108.000877 -212.058563 -118.183723
v 104.687500 -209.187500 -120.185936
v 109.027107 -209.811447 -118.183723
v 104.687500 -209.187500 -120.185936
v 108.675537 -207.366226 -118.183723
v 104.687500 -209.187500 -120.185936
v 107.057793 -205.499252 -118.183723
v 104.687500 -209.187500 -120.185936
v 104.687500 -204.803268 -118.183723
v 104.687500 -203.910568 -111.974876
v 101.834579 -204.748260 -111.974876
v 99.887436 -206.995392 -111.974876
v 99.464279 -209.938492 -111.974876
v 100.699463 -212.643158 -111.974876
v 103.200821 -214.250671 -111.974876
v 106.174187 -214.250671 -111.974876
v 108.675537 -212.643158 -111.974876
v 109.910721 -209.938492 -111.974876
v 109.487564 -206.995392 -111.974876
v 107.540428 -204.748260 -111.974876
v 104.687500 -203.910568 -111.974876
v 104.687500 -203.445374 -115.210358
v 101.583076 -204.356918 -115.210358
v 99.464287 -206.802139 -115.210358
v 99.003822 -210.004684 -115.210358
v 100.347893 -212.947784 -115.210358
v 103.069756 -214.697021 -115.210358
v 106.305244 -214.697021 -115.210358
v 109.027107 -212.947784 -115.210358
v 110.371178 -210.004684 -115.210358
v 109.910721 -206.802139 -115.210358
v 107.791924 -204.356918 -115.210358
v 104.687500 -203.445374 -115.210358
vt 0.000000 0.000000
vt 0.000000 0.000000
vt 0.000000 0.000000
vt 0.000000 0.000000
vt 0.000000 0.000000
vt 0.000000 0.000000
vt 0.000000 0.000000
vt 0.000000 0.000000
vt 0.000000 0.000000
vt 0.000000 0.000000
vt 0.000000 0.000000
vt 0.000000 0.000000
vt 0.000000 0.000000
vt 0.000000 0.000000
vt 0.000000 0.000000
vt 0.000000 0.000000
vt 0.000000 0.000000
vt 0.000000 0.000000
vt 0.000000 0.000000
vt 0.000000 0.000000
vt 0.000000 0.000000
vt 0.000000 0.000000
vt 0.000000 0.000000
vt 0.000000 0.000000
vt 0.000000 0.000000
vt 0.000000 0.000000
vt 0.000000 0.000000
vt 0.000000 0.000000
vt 0.000000 0.000000
vt 0.000000 0.000000
vt 0.000000 0.000000
vt 0.000000 0.000000
vt 0.000000 0.000000
vt 0.000000 0.000000
vt 0.000000 0.000000
vt 0.000000 0.000000
vt 0.000000 0.000000
vt 0.000000 0.000000
vt 0.000000 0.000000
vt 0.000000 0.000000
vt 0.000000 0.000000
vt 0.000000 0.000000
vt 0.000000 0.000000
vt 0.000000 0.000000
vt 0.000000 0.000000
vt 0.000000 0.000000
vt 0.000000 0.000000
vt 0.000000 0.000000
vt 0.000000 0.000000
vt 0.000000 0.000000
vt 0.000000 0.000000
vt 0.000000 0.000000
vt 0.000000 0.000000
vt 0.000000 0.000000
vt 0.000000 0.000000
vt 0.000000 0.000000
vt 0.000000 0.000000
vt 0.000000 0.000000
vt 0.000000 0.000000
vt 0.000000 0.000000
vt 0.000000 0.000000
vt 0.000000 0.000000
vt 0.000000 0.000000
vt 0.000000 0.000000
vt 0.000000 0.000000
vt 0.000000 0.000000
vt 0.000000 0.000000
vt 0.000000 0.000000
vt 0.000000 0.000000
vt 0.000000 0.000000
vn 0.000000 0.000000 1.000000
vn -0.000000 0.574815 0.818283
vn -0.310769 0.483564 0.818284
vn 0.000000 0.000000 1.000000
vn -0.522870 0.238787 0.818283
vn 0.000000 0.000000 1.000000
vn -0.568964 -0.081804 0.818284
vn 0.000000 0.000000 1.000000
vn -0.434416 -0.376424 0.818283
vn 0.000000 0.000000 1.000000
vn -0.161944 -0.551532 0.818283
vn 0.000000 0.000000 1.000000
vn 0.161945 -0.551531 0.818283
vn 0.000000 0.000000 1.000000
vn 0.434416 -0.376423 0.818284
vn 0.000000 0.000000 1.000000
vn 0.568964 -0.081805 0.818284
vn 0.000000 0.000000 1.000000
vn 0.522870 0.238787 0.818283
vn 0.000000 0.000000 1.000000
vn 0.310769 0.483564 0.818284
vn 0.000000 0.000000 1.000000
vn -0.000000 0.574815 0.818283
vn 0.000000 -0.000000 -1.000000
vn -0.397935 0.619198 -0.676935
vn 0.000000 0.736043 -0.676935
vn 0.000000 -0.000000 -1.000000
vn -0.669528 0.305764 -0.676934
vn 0.000000 -0.000000 -1.000000
vn -0.728551 -0.104750 -0.676935
vn 0.000000 -0.000000 -1.000000
vn -0.556264 -0.482007 -0.676934
vn 0.000000 -0.000000 -1.000000
vn -0.207367 -0.706228 -0.676934
vn 0.000000 -0.000000 -1.000000
vn 0.207367 -0.706228 -0.676934
vn 0.000000 -0.000000 -1.000000
vn 0.556264 -0.482007 -0.676934
vn 0.000000 -0.000000 -1.000000
vn 0.728551 -0.104751 -0.676935
vn 0.000000 -0.000000 -1.000000
vn 0.669528 0.305764 -0.676935
vn 0.000000 -0.000000 -1.000000
vn 0.397935 0.619199 -0.676935
vn 0.000000 -0.000000 -1.000000
vn 0.000000 0.736043 -0.676935
vn -0.000000 0.917639 0.397415
vn -0.496114 0.771967 0.397414
vn -0.834714 0.381201 0.397414
vn -0.908299 -0.130594 0.397414
vn -0.693505 -0.600927 0.397414
vn -0.258528 -0.880469 0.397414
vn 0.258529 -0.880469 0.397414
vn 0.693505 -0.600927 0.397414
vn 0.908299 -0.130594 0.397415
vn 0.834714 0.381200 0.397415
vn 0.496114 0.771967 0.397415
vn -0.000000 0.917639 0.397415
vn -0.000000 0.990753 -0.135678
vn -0.535642 0.833474 -0.135678
vn -0.901221 0.411574 -0.135678
vn -0.980669 -0.140998 -0.135678
vn -0.748761 -0.648806 -0.135678
vn -0.279127 -0.950621 -0.135678
vn 0.279127 -0.950621 -0.135678
vn 0.748761 -0.648805 -0.135678
vn 0.980669 -0.140999 -0.135678
vn 0.901221 0.411574 -0.135678
vn 0.535642 0.833474 -0.135678
vn -0.000000 0.990753 -0.135678
f 1/1/1 2/2/2 3/3/3
f 4/4/4 3/3/3 5/5/5
f 6/6/6 5/5/5 7/7/7
f 8/8/8 7/7/7 9/9/9
f 10/10/10 9/9/9 11/11/11
f 12/12/12 11/11/11 13/13/13
f 14/14/14 13/13/13 15/15/15
f 16/16/16 15/15/15 17/17/17
f 18/18/18 17/17/17 19/19/19
f 20/20/20 19/19/19 21/21/21
f 22/22/22 21/21/21 23/23/23
f 24/24/24 25/25/25 26/26/26
f 27/27/27 28/28/28 25/25/25
f 29/29/29 30/30/30 28/28/28
f 31/31/31 32/32/32 30/30/30
f 33/33/33 34/34/34 32/32/32
f 35/35/35 36/36/36 34/34/34
f 37/37/37 38/38/38 36/36/36
f 39/39/39 40/40/40 38/38/38
f 41/41/41 42/42/42 40/40/40
f 43/43/43 44/44/44 42/42/42
f 45/45/45 46/46/46 44/44/44
f 2/2/2 47/47/47 48/48/48
f 2/2/2 48/48/48 3/3/3
f 3/3/3 48/48/48 49/49/49
f 3/3/3 49/49/49 5/5/5
f 5/5/5 49/49/49 50/50/50
f 5/5/5 50/50/50 7/7/7
f 7/7/7 50/50/50 51/51/51
f 7/7/7 51/51/51 9/9/9
f 9/9/9 51/51/51 52/52/52
f 9/9/9 52/52/52 11/11/11
f 11/11/11 52/52/52 53/53/53
f 11/11/11 53/53/53 13/13/13
f 13/13/13 53/53/53 54/54/54
f 13/13/13 54/54/54 15/15/15
f 15/15/15 54/54/54 55/55/55
f 15/15/15 55/55/55 17/17/17
f 17/17/17 55/55/55 56/56/56
f 17/17/17 56/56/56 19/19/19
f 19/19/19 56/56/56 57/57/57
f 19/19/19 57/57/57 21/21/21
f 21/21/21 57/57/57 58/58/58
f 21/21/21 58/58/58 23/23/23
f 47/47/47 59/59/59 60/60/60
f 47/47/47 60/60/60 48/48/48
f 48/48/48 60/60/60 61/61/61
f 48/48/48 61/61/61 49/49/49
f 49/49/49 61/61/61 62/62/62
f 49/49/49 62/62/62 50/50/50
f 50/50/50 62/62/62 63/63/63
f 50/50/50 63/63/63 51/51/51
f 51/51/51 63/63/63 64/64/64
f 51/51/51 64/64/64 52/52/52
f 52/52/52 64/64/64 65/65/65
f 52/52/52 65/65/65 53/53/53
f 53/53/53 65/65/65 66/66/66
f 53/53/53 66/66/66 54/54/54
f 54/54/54 66/66/66 67/67/67
f 54/54/54 67/67/67 55/55/55
f 55/55/55 67/67/67 68/68/68
f 55/55/55 68/68/68 56/56/56
f 56/56/56 68/68/68 69/69/69
f 56/56/56 69/69/69 57/57/57
f 57/57/57 69/69/69 70/70/70
f 57/57/57 70/70/70 58/58/58
f 59/59/59 26/26/26 25/25/25
f 59/59/59 25/25/25 60/60/60
f 60/60/60 25/25/25 28/28/28
f 60/60/60 28/28/28 61/61/61
f 61/61/61 28/28/28 30/30/30
f 61/61/61 30/30/30 62/62/62
f 62/62/62 30/30/30 32/32/32
f 62/62/62 32/32/32 63/63/63
f 63/63/63 32/32/32 34/34/34
f 63/63/63 34/34/34 64/64/64
f 64/64/64 34/34/34 36/36/36
f 64/64/64 36/36/36 65/65/65
f 65/65/65 36/36/36 38/38/38
f 65/65/65 38/38/38 66/66/66
f 66/66/66 38/38/38 40/40/40
f 66/66/66 40/40/40 67/67/67
f 67/67/67 40/40/40 42/42/42
f 67/67/67 42/42/42 68/68/68
f 68/68/68 42/42/42 44/44/44
f 68/68/68 44/44/44 69/69/69
f 69/69/69 44/44/44 46/46/46
f 69/69/69 46/46/46 70/70/70
