v -1483.396118 -107.882805 1497.909058
v -1483.396118 -95.324318 1494.221558
v -1490.185669 -97.317924 1494.221558
v -1483.396118 -107.882805 1497.909058
v -1494.819580 -102.665825 1494.221558
v -1483.396118 -107.882805 1497.909058
v -1495.826538 -109.670052 1494.221558
v -1483.396118 -107.882805 1497.909058
v -1492.887329 -116.106880 1494.221558
v -1483.396118 -107.882805 1497.909058
v -1486.934326 -119.932579 1494.221558
v -1483.396118 -107.882805 1497.909058
v -1479.857910 -119.932579 1494.221558
v -1483.396118 -107.882805 1497.909058
v -1473.904907 -116.106880 1494.221558
v -1483.396118 -107.882805 1497.909058
v -1470.965332 -109.670052 1494.221558
v -1483.396118 -107.882805 1497.909058
v -1471.972534 -102.665825 1494.221558
v -1483.396118 -107.882805 1497.909058
v -1476.606323 -97.317924 1494.221558
v -1483.396118 -107.882805 1497.909058
v -1483.396118 -95.324318 1494.221558
v -1483.396118 -107.882805 1451.451294
v -1492.887329 -93.114403 1459.468262
v -1483.396118 -90.327583 1459.468262
v -1483.396118 -107.882805 1451.451294
v -1499.364868 -100.590111 1459.468262
v -1483.396118 -107.882805 1451.451294
v -1500.772217 -110.381172 1459.468262
v -1483.396118 -107.882805 1451.451294
v -1496.663330 -119.379051 1459.468262
v -1483.396118 -107.882805 1451.451294
v -1488.341919 -124.726929 1459.468262
v -1483.396118 -107.882805 1451.451294
v -1478.450073 -124.726929 1459.468262
v -1483.396118 -107.882805 1451.451294
v -1470.128662 -119.379021 1459.468262
v -1483.396118 -107.882805 1451.451294
v -1466.019409 -110.381172 1459.468262
v -1483.396118 -107.882805 1451.451294
v -1467.427124 -100.590111 1459.468262
v -1483.396118 -107.882805 1451.451294
v -1473.904907 -93.114403 1459.468262
v -1483.396118 -107.882805 1451.451294
v -1483.396118 -90.327583 1459.468262
v -1483.396118 -86.753052 1484.329956
v -1494.819580 -90.107315 1484.329956
v -1502.616333 -99.105164 1484.329956
v -1504.310425 -110.889870 1484.329956
v -1499.364868 -121.719864 1484.329956
v -1489.349121 -128.156662 1484.329956
v -1477.442871 -128.156662 1484.329956
v -1467.427124 -121.719864 1484.329956
v -1462.481079 -110.889870 1484.329956
v -1464.175659 -99.105194 1484.329956
v -1471.972168 -90.107346 1484.329956
v -1483.396118 -86.753052 1484.329956
v -1483.396118 -84.890335 1471.374268
v -1495.826538 -88.540306 1471.374268
v -1504.310425 -98.331390 1471.374268
v -1506.154541 -111.154976 1471.374268
v -1500.772583 -122.939682 1471.374268
v -1489.873657 -129.943909 1471.374268
v -1476.918335 -129.943909 1471.374268
v -1466.019409 -122.939682 1471.374268
v -1460.637451 -111.154976 1471.374268
v -1462.481079 -98.331390 1471.374268
v -1470.965332 -88.540306 1471.374268
v -1483.396118 -84.890335 1471.374268
vt 0.000000 0.000000
vt 0.000000 0.000000
vt 0.000000 0.000000
vt 0.000000 0.000000
vt 0.000000 0.000000
vt 0.000000 0.000000
vt 0.000000 0.000000
vt 0.000000 0.000000
vt 0.000000 0.000000
vt 0.000000 0.000000
vt 0.000000 0.000000
vt 0.000000 0.000000
vt 0.000000 0.000000
vt 0.000000 0.000000
vt 0.000000 0.000000
vt 0.000000 0.000000
vt 0.000000 0.000000
vt 0.000000 0.000000
vt 0.000000 0.000000
vt 0.000000 0.000000
vt 0.000000 0.000000
vt 0.000000 0.000000
vt 0.000000 0.000000
vt 0.000000 0.000000
vt 0.000000 0.000000
vt 0.000000 0.000000
vt 0.000000 0.000000
vt 0.000000 0.000000
vt 0.000000 0.000000
vt 0.000000 0.000000
vt 0.000000 0.000000
vt 0.000000 0.000000
vt 0.000000 0.000000
vt 0.000000 0.000000
vt 0.000000 0.000000
vt 0.000000 0.000000
vt 0.000000 0.000000
vt 0.000000 0.000000
vt 0.000000 0.000000
vt 0.000000 0.000000
vt 0.000000 0.000000
vt 0.000000 0.000000
vt 0.000000 0.000000
vt 0.000000 0.000000
vt 0.000000 0.000000
vt 0.000000 0.000000
vt 0.000000 0.000000
vt 0.000000 0.000000
vt 0.000000 0.000000
vt 0.000000 0.000000
vt 0.000000 0.000000
vt 0.000000 0.000000
vt 0.000000 0.000000
vt 0.000000 0.000000
vt 0.000000 0.000000
vt 0.000000 0.000000
vt 0.000000 0.000000
vt 0.000000 0.000000
vt 0.000000 0.000000
vt 0.000000 0.000000
vt 0.000000 0.000000
vt 0.000000 0.000000
vt 0.000000 0.000000
vt 0.000000 0.000000
vt 0.000000 0.000000
vt 0.000000 0.000000
vt 0.000000 0.000000
vt 0.000000 0.000000
vt 0.000000 0.000000
vt 0.000000 0.000000
vn -0.000002 0.000001 1.000000
vn -0.000003 0.574811 0.818287
vn -0.310768 0.483561 0.818286
vn -0.000002 0.000001 1.000000
vn -0.522870 0.238780 0.818286
vn -0.000002 0.000001 1.000000
vn -0.568963 -0.081799 0.818285
vn -0.000002 0.000001 1.000000
vn -0.434424 -0.376414 0.818283
vn -0.000002 0.000001 1.000000
vn -0.161943 -0.551527 0.818286
vn -0.000002 0.000001 1.000000
vn 0.161941 -0.551526 0.818288
vn -0.000002 0.000001 1.000000
vn 0.434410 -0.376421 0.818288
vn -0.000002 0.000001 1.000000
vn 0.568955 -0.081799 0.818290
vn -0.000002 0.000001 1.000000
vn 0.522861 0.238784 0.818290
vn -0.000002 0.000001 1.000000
vn 0.310767 0.483559 0.818288
vn -0.000002 0.000001 1.000000
vn -0.000003 0.574811 0.818287
vn -0.000004 -0.000001 -1.000000
vn -0.397942 0.619197 -0.676932
vn -0.000001 0.736041 -0.676937
vn -0.000004 -0.000001 -1.000000
vn -0.669535 0.305756 -0.676932
vn -0.000004 -0.000001 -1.000000
vn -0.728545 -0.104748 -0.676941
vn -0.000004 -0.000001 -1.000000
vn -0.556265 -0.482001 -0.676938
vn -0.000004 -0.000001 -1.000000
vn -0.207367 -0.706227 -0.676936
vn -0.000004 -0.000001 -1.000000
vn 0.207368 -0.706226 -0.676937
vn -0.000004 -0.000001 -1.000000
vn 0.556260 -0.482005 -0.676939
vn -0.000004 -0.000001 -1.000000
vn 0.728546 -0.104753 -0.676940
vn -0.000004 -0.000001 -1.000000
vn 0.669523 0.305762 -0.676940
vn -0.000004 -0.000001 -1.000000
vn 0.397930 0.619199 -0.676938
vn -0.000004 -0.000001 -1.000000
vn -0.000001 0.736041 -0.676937
vn -0.000004 0.917638 0.397416
vn -0.496115 0.771966 0.397414
vn -0.834716 0.381198 0.397414
vn -0.908298 -0.130588 0.397418
vn -0.693510 -0.600919 0.397416
vn -0.258530 -0.880468 0.397415
vn 0.258531 -0.880467 0.397416
vn 0.693503 -0.600927 0.397417
vn 0.908297 -0.130592 0.397420
vn 0.834710 0.381202 0.397422
vn 0.496114 0.771965 0.397418
vn -0.000004 0.917638 0.397416
vn -0.000003 0.990753 -0.135677
vn -0.535643 0.833474 -0.135676
vn -0.901221 0.411573 -0.135676
vn -0.980669 -0.140993 -0.135678
vn -0.748764 -0.648802 -0.135680
vn -0.279125 -0.950621 -0.135679
vn 0.279125 -0.950621 -0.135679
vn 0.748758 -0.648808 -0.135681
vn 0.980668 -0.141003 -0.135681
vn 0.901220 0.411574 -0.135680
vn 0.535636 0.833478 -0.135679
vn -0.000003 0.990753 -0.135677
f 1/1/1 2/2/2 3/3/3
f 4/4/4 3/3/3 5/5/5
f 6/6/6 5/5/5 7/7/7
f 8/8/8 7/7/7 9/9/9
f 10/10/10 9/9/9 11/11/11
f 12/12/12 11/11/11 13/13/13
f 14/14/14 13/13/13 15/15/15
f 16/16/16 15/15/15 17/17/17
f 18/18/18 17/17/17 19/19/19
f 20/20/20 19/19/19 21/21/21
f 22/22/22 21/21/21 23/23/23
f 24/24/24 25/25/25 26/26/26
f 27/27/27 28/28/28 25/25/25
f 29/29/29 30/30/30 28/28/28
f 31/31/31 32/32/32 30/30/30
f 33/33/33 34/34/34 32/32/32
f 35/35/35 36/36/36 34/34/34
f 37/37/37 38/38/38 36/36/36
f 39/39/39 40/40/40 38/38/38
f 41/41/41 42/42/42 40/40/40
f 43/43/43 44/44/44 42/42/42
f 45/45/45 46/46/46 44/44/44
f 2/2/2 47/47/47 48/48/48
f 2/2/2 48/48/48 3/3/3
f 3/3/3 48/48/48 49/49/49
f 3/3/3 49/49/49 5/5/5
f 5/5/5 49/49/49 50/50/50
f 5/5/5 50/50/50 7/7/7
f 7/7/7 50/50/50 51/51/51
f 7/7/7 51/51/51 9/9/9
f 9/9/9 51/51/51 52/52/52
f 9/9/9 52/52/52 11/11/11
f 11/11/11 52/52/52 53/53/53
f 11/11/11 53/53/53 13/13/13
f 13/13/13 53/53/53 54/54/54
f 13/13/13 54/54/54 15/15/15
f 15/15/15 54/54/54 55/55/55
f 15/15/15 55/55/55 17/17/17
f 17/17/17 55/55/55 56/56/56
f 17/17/17 56/56/56 19/19/19
f 19/19/19 56/56/56 57/57/57
f 19/19/19 57/57/57 21/21/21
f 21/21/21 57/57/57 58/58/58
f 21/21/21 58/58/58 23/23/23
f 47/47/47 59/59/59 60/60/60
f 47/47/47 60/60/60 48/48/48
f 48/48/48 60/60/60 61/61/61
f 48/48/48 61/61/61 49/49/49
f 49/49/49 61/61/61 62/62/62
f 49/49/49 62/62/62 50/50/50
f 50/50/50 62/62/62 63/63/63
f 50/50/50 63/63/63 51/51/51
f 51/51/51 63/63/63 64/64/64
f 51/51/51 64/64/64 52/52/52
f 52/52/52 64/64/64 65/65/65
f 52/52/52 65/65/65 53/53/53
f 53/53/53 65/65/65 66/66/66
f 53/53/53 66/66/66 54/54/54
f 54/54/54 66/66/66 67/67/67
f 54/54/54 67/67/67 55/55/55
f 55/55/55 67/67/67 68/68/68
f 55/55/55 68/68/68 56/56/56
f 56/56/56 68/68/68 69/69/69
f 56/56/56 69/69/69 57/57/57
f 57/57/57 69/69/69 70/70/70
f 57/57/57 70/70/70 58/58/58
f 59/59/59 26/26/26 25/25/25
f 59/59/59 25/25/25 60/60/60
f 60/60/60 25/25/25 28/28/28
f 60/60/60 28/28/28 61/61/61
f 61/61/61 28/28/28 30/30/30
f 61/61/61 30/30/30 62/62/62
f 62/62/62 30/30/30 32/32/32
f 62/62/62 32/32/32 63/63/63
f 63/63/63 32/32/32 34/34/34
f 63/63/63 34/34/34 64/64/64
f 64/64/64 34/34/34 36/36/36
f 64/64/64 36/36/36 65/65/65
f 65/65/65 36/36/36 38/38/38
f 65/65/65 38/38/38 66/66/66
f 66/66/66 38/38/38 40/40/40
f 66/66/66 40/40/40 67/67/67
f 67/67/67 40/40/40 42/42/42
f 67/67/67 42/42/42 68/68/68
f 68/68/68 42/42/42 44/44/44
f 68/68/68 44/44/44 69/69/69
f 69/69/69 44/44/44 46/46/46
f 69/69/69 46/46/46 70/70/70
