v -569.143188 -637.507324 -33.835587
v -585.138306 -662.074707 -33.835583
v -568.316040 -674.585327 -33.835583
v -548.887329 -660.426636 -33.835583
v -592.292725 -669.884766 -47.356976
v -567.981201 -680.708252 -47.356976
v -568.316040 -674.585327 -33.835583
v -585.138306 -662.074707 -33.835583
v -569.143188 -637.507324 -33.835587
v -548.887329 -660.426636 -33.835583
v -540.781860 -660.996582 -47.356976
v -569.143188 -637.507324 -47.356968
v -548.887329 -660.426636 -33.835583
v -568.316040 -674.585327 -33.835583
v -567.981201 -680.708252 -47.356976
v -540.781860 -660.996582 -47.356976
v -585.138306 -662.074707 -33.835583
v -569.143188 -637.507324 -33.835587
v -569.143188 -637.507324 -47.356968
v -592.292725 -669.884766 -47.356976
v -569.143188 -637.507324 -60.878357
v -548.887329 -660.426636 -60.878365
v -568.316040 -674.585327 -60.878365
v -585.138306 -662.074707 -60.878365
v -568.316040 -674.585327 -60.878365
v -585.138306 -662.074707 -60.878365
v -548.887329 -660.426636 -60.878365
v -569.143188 -637.507324 -60.878357
v -568.316040 -674.585327 -60.878365
v -548.887329 -660.426636 -60.878365
v -569.143188 -637.507324 -60.878357
v -585.138306 -662.074707 -60.878365
vt 0.701807 0.098984
vt 0.709028 0.095663
vt 0.711565 0.100576
vt 0.706979 0.105368
vt 0.711530 0.092044
vt 0.715255 0.101221
vt 0.711565 0.100576
vt 0.709028 0.095663
vt 0.701807 0.098984
vt 0.706979 0.105368
vt 0.706604 0.109246
vt 0.699626 0.098443
vt 0.706979 0.105368
vt 0.711565 0.100576
vt 0.715255 0.101221
vt 0.706604 0.109246
vt 0.709028 0.095663
vt 0.701807 0.098984
vt 0.699626 0.098443
vt 0.711530 0.092044
vt 0.701807 0.098984
vt 0.706979 0.105368
vt 0.711565 0.100576
vt 0.709028 0.095663
vt 0.711565 0.100576
vt 0.709028 0.095663
vt 0.706979 0.105368
vt 0.701807 0.098984
vt 0.711565 0.100576
vt 0.706979 0.105368
vt 0.701807 0.098984
vt 0.709028 0.095663
vn -0.000000 0.000000 1.000000
vn -0.000000 0.000000 1.000000
vn -0.000000 0.000000 1.000000
vn -0.000000 0.000000 1.000000
vn -0.493412 -0.869796 -0.000000
vn -0.493412 -0.869796 -0.000000
vn -0.428192 -0.754825 0.496881
vn -0.428192 -0.754825 0.496881
vn 0.678136 0.710409 0.188284
vn 0.678136 0.710409 0.188284
vn 0.690486 0.723346 0.000000
vn 0.690486 0.723346 0.000000
vn 0.548708 -0.755385 0.358208
vn 0.548708 -0.755385 0.358209
vn 0.587707 -0.809074 -0.000000
vn 0.587707 -0.809074 -0.000000
vn -0.822858 0.565644 0.054335
vn -0.822858 0.565644 0.054335
vn -0.824075 0.566481 0.000000
vn -0.824075 0.566481 0.000000
vn -0.000000 0.000000 -1.000000
vn -0.000000 0.000000 -1.000000
vn -0.000000 0.000000 -1.000000
vn -0.000000 0.000000 -1.000000
vn -0.428192 -0.754825 -0.496881
vn -0.428192 -0.754825 -0.496881
vn 0.678136 0.710409 -0.188284
vn 0.678136 0.710409 -0.188284
vn 0.548708 -0.755385 -0.358209
vn 0.548708 -0.755385 -0.358209
vn -0.822858 0.565644 -0.054335
vn -0.822858 0.565644 -0.054335
f 1/1/1 2/2/2 3/3/3
f 1/1/1 3/3/3 4/4/4
f 5/5/5 6/6/6 7/7/7
f 5/5/5 7/7/7 8/8/8
f 9/9/9 10/10/10 11/11/11
f 9/9/9 11/11/11 12/12/12
f 13/13/13 14/14/14 15/15/15
f 13/13/13 15/15/15 16/16/16
f 17/17/17 18/18/18 19/19/19
f 17/17/17 19/19/19 20/20/20
f 21/21/21 22/22/22 23/23/23
f 21/21/21 23/23/23 24/24/24
f 25/25/25 6/6/6 5/5/5
f 25/25/25 5/5/5 26/26/26
f 11/11/11 27/27/27 28/28/28
f 11/11/11 28/28/28 12/12/12
f 15/15/15 29/29/29 30/30/30
f 15/15/15 30/30/30 16/16/16
f 19/19/19 31/31/31 32/32/32
f 19/19/19 32/32/32 20/20/20
