v -1483.396240 -107.882797 1412.429932
v -1483.396240 -99.592407 1409.995605
v -1487.878174 -100.908470 1409.995605
v -1483.396240 -107.882797 1412.429932
v -1490.937378 -104.438850 1409.995605
v -1483.396240 -107.882797 1412.429932
v -1491.602051 -109.062637 1409.995605
v -1483.396240 -107.882797 1412.429932
v -1489.661743 -113.311859 1409.995605
v -1483.396240 -107.882797 1412.429932
v -1485.731934 -115.837372 1409.995605
v -1483.396240 -107.882797 1412.429932
v -1481.060425 -115.837372 1409.995605
v -1483.396240 -107.882797 1412.429932
v -1477.130737 -113.311859 1409.995605
v -1483.396240 -107.882797 1412.429932
v -1475.190063 -109.062637 1409.995605
v -1483.396240 -107.882797 1412.429932
v -1475.855103 -104.438850 1409.995605
v -1483.396240 -107.882797 1412.429932
v -1478.913940 -100.908470 1409.995605
v -1483.396240 -107.882797 1412.429932
v -1483.396240 -99.592407 1409.995605
v -1483.396240 -107.882797 1381.761230
v -1489.661743 -98.133545 1387.053589
v -1483.396240 -96.293854 1387.053589
v -1483.396240 -107.882797 1381.761230
v -1493.937866 -103.068581 1387.053589
v -1483.396240 -107.882797 1381.761230
v -1494.866943 -109.532074 1387.053589
v -1483.396240 -107.882797 1381.761230
v -1492.154419 -115.471954 1387.053589
v -1483.396240 -107.882797 1381.761230
v -1486.661133 -119.002327 1387.053589
v -1483.396240 -107.882797 1381.761230
v -1480.131104 -119.002327 1387.053589
v -1483.396240 -107.882797 1381.761230
v -1474.637695 -115.471947 1387.053589
v -1483.396240 -107.882797 1381.761230
v -1471.925049 -109.532074 1387.053589
v -1483.396240 -107.882797 1381.761230
v -1472.854492 -103.068581 1387.053589
v -1483.396240 -107.882797 1381.761230
v -1477.130737 -98.133545 1387.053589
v -1483.396240 -107.882797 1381.761230
v -1483.396240 -96.293854 1387.053589
v -1483.396240 -93.934151 1403.465820
v -1490.937378 -96.148445 1403.465820
v -1496.084351 -102.088310 1403.465820
v -1497.202637 -109.867889 1403.465820
v -1493.937866 -117.017227 1403.465820
v -1487.326050 -121.266426 1403.465820
v -1479.466309 -121.266426 1403.465820
v -1472.854492 -117.017227 1403.465820
v -1469.589355 -109.867889 1403.465820
v -1470.707886 -102.088326 1403.465820
v -1475.854736 -96.148460 1403.465820
v -1483.396240 -93.934151 1403.465820
v -1483.396240 -92.704498 1394.913208
v -1491.602051 -95.113991 1394.913208
v -1497.202637 -101.577507 1394.913208
v -1498.420044 -110.042892 1394.913208
v -1494.867188 -117.822487 1394.913208
v -1487.672241 -122.446274 1394.913208
v -1479.119995 -122.446274 1394.913208
v -1471.925049 -117.822487 1394.913208
v -1468.372192 -110.042892 1394.913208
v -1469.589355 -101.577507 1394.913208
v -1475.190063 -95.113991 1394.913208
v -1483.396240 -92.704498 1394.913208
vt 0.000000 0.000000
vt 0.000000 0.000000
vt 0.000000 0.000000
vt 0.000000 0.000000
vt 0.000000 0.000000
vt 0.000000 0.000000
vt 0.000000 0.000000
vt 0.000000 0.000000
vt 0.000000 0.000000
vt 0.000000 0.000000
vt 0.000000 0.000000
vt 0.000000 0.000000
vt 0.000000 0.000000
vt 0.000000 0.000000
vt 0.000000 0.000000
vt 0.000000 0.000000
vt 0.000000 0.000000
vt 0.000000 0.000000
vt 0.000000 0.000000
vt 0.000000 0.000000
vt 0.000000 0.000000
vt 0.000000 0.000000
vt 0.000000 0.000000
vt 0.000000 0.000000
vt 0.000000 0.000000
vt 0.000000 0.000000
vt 0.000000 0.000000
vt 0.000000 0.000000
vt 0.000000 0.000000
vt 0.000000 0.000000
vt 0.000000 0.000000
vt 0.000000 0.000000
vt 0.000000 0.000000
vt 0.000000 0.000000
vt 0.000000 0.000000
vt 0.000000 0.000000
vt 0.000000 0.000000
vt 0.000000 0.000000
vt 0.000000 0.000000
vt 0.000000 0.000000
vt 0.000000 0.000000
vt 0.000000 0.000000
vt 0.000000 0.000000
vt 0.000000 0.000000
vt 0.000000 0.000000
vt 0.000000 0.000000
vt 0.000000 0.000000
vt 0.000000 0.000000
vt 0.000000 0.000000
vt 0.000000 0.000000
vt 0.000000 0.000000
vt 0.000000 0.000000
vt 0.000000 0.000000
vt 0.000000 0.000000
vt 0.000000 0.000000
vt 0.000000 0.000000
vt 0.000000 0.000000
vt 0.000000 0.000000
vt 0.000000 0.000000
vt 0.000000 0.000000
vt 0.000000 0.000000
vt 0.000000 0.000000
vt 0.000000 0.000000
vt 0.000000 0.000000
vt 0.000000 0.000000
vt 0.000000 0.000000
vt 0.000000 0.000000
vt 0.000000 0.000000
vt 0.000000 0.000000
vt 0.000000 0.000000
vn -0.000003 0.000001 1.000000
vn -0.000005 0.574810 0.818287
vn -0.310762 0.483561 0.818288
vn -0.000003 0.000001 1.000000
vn -0.522869 0.238780 0.818286
vn -0.000003 0.000001 1.000000
vn -0.568962 -0.081802 0.818286
vn -0.000003 0.000001 1.000000
vn -0.434423 -0.376414 0.818284
vn -0.000003 0.000001 1.000000
vn -0.161943 -0.551526 0.818287
vn -0.000003 0.000001 1.000000
vn 0.161945 -0.551525 0.818287
vn -0.000003 0.000001 1.000000
vn 0.434408 -0.376422 0.818289
vn -0.000003 0.000001 1.000000
vn 0.568957 -0.081802 0.818289
vn -0.000003 0.000001 1.000000
vn 0.522856 0.238782 0.818294
vn -0.000003 0.000001 1.000000
vn 0.310767 0.483557 0.818289
vn -0.000003 0.000001 1.000000
vn -0.000005 0.574810 0.818287
vn -0.000005 0.000000 -1.000000
vn -0.397942 0.619197 -0.676932
vn -0.000002 0.736041 -0.676937
vn -0.000005 0.000000 -1.000000
vn -0.669534 0.305758 -0.676932
vn -0.000005 0.000000 -1.000000
vn -0.728545 -0.104749 -0.676942
vn -0.000005 0.000000 -1.000000
vn -0.556262 -0.482002 -0.676939
vn -0.000005 0.000000 -1.000000
vn -0.207368 -0.706227 -0.676936
vn -0.000005 0.000000 -1.000000
vn 0.207366 -0.706227 -0.676937
vn -0.000005 0.000000 -1.000000
vn 0.556260 -0.482006 -0.676938
vn -0.000005 0.000000 -1.000000
vn 0.728546 -0.104745 -0.676941
vn -0.000005 0.000000 -1.000000
vn 0.669519 0.305766 -0.676943
vn -0.000005 0.000000 -1.000000
vn 0.397929 0.619197 -0.676940
vn -0.000005 0.000000 -1.000000
vn -0.000002 0.736041 -0.676937
vn -0.000006 0.917637 0.397419
vn -0.496115 0.771965 0.397416
vn -0.834715 0.381197 0.397416
vn -0.908296 -0.130590 0.397421
vn -0.693508 -0.600919 0.397420
vn -0.258530 -0.880467 0.397417
vn 0.258529 -0.880466 0.397420
vn 0.693498 -0.600929 0.397422
vn 0.908294 -0.130595 0.397426
vn 0.834711 0.381199 0.397423
vn 0.496113 0.771964 0.397421
vn -0.000006 0.917637 0.397419
vn -0.000005 0.990753 -0.135679
vn -0.535642 0.833474 -0.135678
vn -0.901220 0.411574 -0.135679
vn -0.980669 -0.140993 -0.135679
vn -0.748762 -0.648803 -0.135681
vn -0.279122 -0.950622 -0.135680
vn 0.279123 -0.950622 -0.135677
vn 0.748758 -0.648809 -0.135676
vn 0.980668 -0.140999 -0.135679
vn 0.901219 0.411575 -0.135684
vn 0.535638 0.833476 -0.135683
vn -0.000005 0.990753 -0.135679
f 1/1/1 2/2/2 3/3/3
f 4/4/4 3/3/3 5/5/5
f 6/6/6 5/5/5 7/7/7
f 8/8/8 7/7/7 9/9/9
f 10/10/10 9/9/9 11/11/11
f 12/12/12 11/11/11 13/13/13
f 14/14/14 13/13/13 15/15/15
f 16/16/16 15/15/15 17/17/17
f 18/18/18 17/17/17 19/19/19
f 20/20/20 19/19/19 21/21/21
f 22/22/22 21/21/21 23/23/23
f 24/24/24 25/25/25 26/26/26
f 27/27/27 28/28/28 25/25/25
f 29/29/29 30/30/30 28/28/28
f 31/31/31 32/32/32 30/30/30
f 33/33/33 34/34/34 32/32/32
f 35/35/35 36/36/36 34/34/34
f 37/37/37 38/38/38 36/36/36
f 39/39/39 40/40/40 38/38/38
f 41/41/41 42/42/42 40/40/40
f 43/43/43 44/44/44 42/42/42
f 45/45/45 46/46/46 44/44/44
f 2/2/2 47/47/47 48/48/48
f 2/2/2 48/48/48 3/3/3
f 3/3/3 48/48/48 49/49/49
f 3/3/3 49/49/49 5/5/5
f 5/5/5 49/49/49 50/50/50
f 5/5/5 50/50/50 7/7/7
f 7/7/7 50/50/50 51/51/51
f 7/7/7 51/51/51 9/9/9
f 9/9/9 51/51/51 52/52/52
f 9/9/9 52/52/52 11/11/11
f 11/11/11 52/52/52 53/53/53
f 11/11/11 53/53/53 13/13/13
f 13/13/13 53/53/53 54/54/54
f 13/13/13 54/54/54 15/15/15
f 15/15/15 54/54/54 55/55/55
f 15/15/15 55/55/55 17/17/17
f 17/17/17 55/55/55 56/56/56
f 17/17/17 56/56/56 19/19/19
f 19/19/19 56/56/56 57/57/57
f 19/19/19 57/57/57 21/21/21
f 21/21/21 57/57/57 58/58/58
f 21/21/21 58/58/58 23/23/23
f 47/47/47 59/59/59 60/60/60
f 47/47/47 60/60/60 48/48/48
f 48/48/48 60/60/60 61/61/61
f 48/48/48 61/61/61 49/49/49
f 49/49/49 61/61/61 62/62/62
f 49/49/49 62/62/62 50/50/50
f 50/50/50 62/62/62 63/63/63
f 50/50/50 63/63/63 51/51/51
f 51/51/51 63/63/63 64/64/64
f 51/51/51 64/64/64 52/52/52
f 52/52/52 64/64/64 65/65/65
f 52/52/52 65/65/65 53/53/53
f 53/53/53 65/65/65 66/66/66
f 53/53/53 66/66/66 54/54/54
f 54/54/54 66/66/66 67/67/67
f 54/54/54 67/67/67 55/55/55
f 55/55/55 67/67/67 68/68/68
f 55/55/55 68/68/68 56/56/56
f 56/56/56 68/68/68 69/69/69
f 56/56/56 69/69/69 57/57/57
f 57/57/57 69/69/69 70/70/70
f 57/57/57 70/70/70 58/58/58
f 59/59/59 26/26/26 25/25/25
f 59/59/59 25/25/25 60/60/60
f 60/60/60 25/25/25 28/28/28
f 60/60/60 28/28/28 61/61/61
f 61/61/61 28/28/28 30/30/30
f 61/61/61 30/30/30 62/62/62
f 62/62/62 30/30/30 32/32/32
f 62/62/62 32/32/32 63/63/63
f 63/63/63 32/32/32 34/34/34
f 63/63/63 34/34/34 64/64/64
f 64/64/64 34/34/34 36/36/36
f 64/64/64 36/36/36 65/65/65
f 65/65/65 36/36/36 38/38/38
f 65/65/65 38/38/38 66/66/66
f 66/66/66 38/38/38 40/40/40
f 66/66/66 40/40/40 67/67/67
f 67/67/67 40/40/40 42/42/42
f 67/67/67 42/42/42 68/68/68
f 68/68/68 42/42/42 44/44/44
f 68/68/68 44/44/44 69/69/69
f 69/69/69 44/44/44 46/46/46
f 69/69/69 46/46/46 70/70/70
