v -1483.396484 -107.882790 1198.579102
v -1483.396484 -99.571762 1196.138672
v -1487.889648 -100.891106 1196.138672
v -1483.396484 -107.882790 1198.579102
v -1490.956299 -104.430267 1196.138672
v -1483.396484 -107.882790 1198.579102
v -1491.622803 -109.065567 1196.138672
v -1483.396484 -107.882790 1198.579102
v -1489.677490 -113.325371 1196.138672
v -1483.396484 -107.882790 1198.579102
v -1485.738037 -115.857162 1196.138672
v -1483.396484 -107.882790 1198.579102
v -1481.054932 -115.857162 1196.138672
v -1483.396484 -107.882790 1198.579102
v -1477.115234 -113.325371 1196.138672
v -1483.396484 -107.882790 1198.579102
v -1475.169922 -109.065567 1196.138672
v -1483.396484 -107.882790 1198.579102
v -1475.836426 -104.430267 1196.138672
v -1483.396484 -107.882790 1198.579102
v -1478.903076 -100.891106 1196.138672
v -1483.396484 -107.882790 1198.579102
v -1483.396484 -99.571762 1196.138672
v -1483.396484 -107.882790 1167.833984
v -1489.677490 -98.109268 1173.139526
v -1483.396484 -96.264999 1173.139526
v -1483.396484 -107.882790 1167.833984
v -1493.964355 -103.056595 1173.139526
v -1483.396484 -107.882790 1167.833984
v -1494.895752 -109.536179 1173.139526
v -1483.396484 -107.882790 1167.833984
v -1492.176514 -115.490845 1173.139526
v -1483.396484 -107.882790 1167.833984
v -1486.669434 -119.029999 1173.139526
v -1483.396484 -107.882790 1167.833984
v -1480.123291 -119.029999 1173.139526
v -1483.396484 -107.882790 1167.833984
v -1474.616211 -115.490829 1173.139526
v -1483.396484 -107.882790 1167.833984
v -1471.896729 -109.536179 1173.139526
v -1483.396484 -107.882790 1167.833984
v -1472.828369 -103.056595 1173.139526
v -1483.396484 -107.882790 1167.833984
v -1477.115234 -98.109268 1173.139526
v -1483.396484 -107.882790 1167.833984
v -1483.396484 -96.264999 1173.139526
v -1483.396484 -93.899414 1189.592529
v -1490.956299 -96.119225 1189.592529
v -1496.116211 -102.073875 1189.592529
v -1497.237305 -109.872833 1189.592529
v -1493.964355 -117.039963 1189.592529
v -1487.336060 -121.299744 1189.592529
v -1479.456665 -121.299744 1189.592529
v -1472.828369 -117.039963 1189.592529
v -1469.555176 -109.872833 1189.592529
v -1470.676514 -102.073891 1189.592529
v -1475.836182 -96.119247 1189.592529
v -1483.396484 -93.899414 1189.592529
v -1483.396484 -92.666702 1181.018799
v -1491.622803 -95.082199 1181.018799
v -1497.237305 -101.561798 1181.018799
v -1498.457642 -110.048264 1181.018799
v -1494.895996 -117.847221 1181.018799
v -1487.683105 -122.482521 1181.018799
v -1479.109619 -122.482521 1181.018799
v -1471.896729 -117.847221 1181.018799
v -1468.334961 -110.048264 1181.018799
v -1469.555176 -101.561798 1181.018799
v -1475.169922 -95.082199 1181.018799
v -1483.396484 -92.666702 1181.018799
vt 0.000000 0.000000
vt 0.000000 0.000000
vt 0.000000 0.000000
vt 0.000000 0.000000
vt 0.000000 0.000000
vt 0.000000 0.000000
vt 0.000000 0.000000
vt 0.000000 0.000000
vt 0.000000 0.000000
vt 0.000000 0.000000
vt 0.000000 0.000000
vt 0.000000 0.000000
vt 0.000000 0.000000
vt 0.000000 0.000000
vt 0.000000 0.000000
vt 0.000000 0.000000
vt 0.000000 0.000000
vt 0.000000 0.000000
vt 0.000000 0.000000
vt 0.000000 0.000000
vt 0.000000 0.000000
vt 0.000000 0.000000
vt 0.000000 0.000000
vt 0.000000 0.000000
vt 0.000000 0.000000
vt 0.000000 0.000000
vt 0.000000 0.000000
vt 0.000000 0.000000
vt 0.000000 0.000000
vt 0.000000 0.000000
vt 0.000000 0.000000
vt 0.000000 0.000000
vt 0.000000 0.000000
vt 0.000000 0.000000
vt 0.000000 0.000000
vt 0.000000 0.000000
vt 0.000000 0.000000
vt 0.000000 0.000000
vt 0.000000 0.000000
vt 0.000000 0.000000
vt 0.000000 0.000000
vt 0.000000 0.000000
vt 0.000000 0.000000
vt 0.000000 0.000000
vt 0.000000 0.000000
vt 0.000000 0.000000
vt 0.000000 0.000000
vt 0.000000 0.000000
vt 0.000000 0.000000
vt 0.000000 0.000000
vt 0.000000 0.000000
vt 0.000000 0.000000
vt 0.000000 0.000000
vt 0.000000 0.000000
vt 0.000000 0.000000
vt 0.000000 0.000000
vt 0.000000 0.000000
vt 0.000000 0.000000
vt 0.000000 0.000000
vt 0.000000 0.000000
vt 0.000000 0.000000
vt 0.000000 0.000000
vt 0.000000 0.000000
vt 0.000000 0.000000
vt 0.000000 0.000000
vt 0.000000 0.000000
vt 0.000000 0.000000
vt 0.000000 0.000000
vt 0.000000 0.000000
vt 0.000000 0.000000
vn -0.000004 0.000001 1.000000
vn -0.000005 0.574815 0.818284
vn -0.310769 0.483565 0.818283
vn -0.000004 0.000001 1.000000
vn -0.522869 0.238785 0.818285
vn -0.000004 0.000001 1.000000
vn -0.568967 -0.081803 0.818282
vn -0.000004 0.000001 1.000000
vn -0.434422 -0.376419 0.818282
vn -0.000004 0.000001 1.000000
vn -0.161947 -0.551530 0.818283
vn -0.000004 0.000001 1.000000
vn 0.161940 -0.551530 0.818285
vn -0.000004 0.000001 1.000000
vn 0.434414 -0.376423 0.818285
vn -0.000004 0.000001 1.000000
vn 0.568958 -0.081801 0.818288
vn -0.000004 0.000001 1.000000
vn 0.522863 0.238784 0.818289
vn -0.000004 0.000001 1.000000
vn 0.310765 0.483564 0.818286
vn -0.000004 0.000001 1.000000
vn -0.000005 0.574815 0.818284
vn -0.000005 -0.000001 -1.000000
vn -0.397938 0.619198 -0.676933
vn -0.000004 0.736042 -0.676935
vn -0.000005 -0.000001 -1.000000
vn -0.669534 0.305758 -0.676932
vn -0.000005 -0.000001 -1.000000
vn -0.728547 -0.104749 -0.676939
vn -0.000005 -0.000001 -1.000000
vn -0.556264 -0.482004 -0.676936
vn -0.000005 -0.000001 -1.000000
vn -0.207365 -0.706229 -0.676935
vn -0.000005 -0.000001 -1.000000
vn 0.207366 -0.706228 -0.676935
vn -0.000005 -0.000001 -1.000000
vn 0.556257 -0.482009 -0.676939
vn -0.000005 -0.000001 -1.000000
vn 0.728545 -0.104752 -0.676941
vn -0.000005 -0.000001 -1.000000
vn 0.669523 0.305764 -0.676939
vn -0.000005 -0.000001 -1.000000
vn 0.397931 0.619200 -0.676936
vn -0.000005 -0.000001 -1.000000
vn -0.000004 0.736042 -0.676935
vn -0.000006 0.917638 0.397417
vn -0.496112 0.771967 0.397417
vn -0.834715 0.381199 0.397416
vn -0.908297 -0.130591 0.397419
vn -0.693508 -0.600921 0.397417
vn -0.258530 -0.880468 0.397415
vn 0.258530 -0.880467 0.397416
vn 0.693501 -0.600929 0.397419
vn 0.908295 -0.130594 0.397423
vn 0.834710 0.381201 0.397422
vn 0.496112 0.771966 0.397418
vn -0.000006 0.917638 0.397417
vn -0.000005 0.990753 -0.135675
vn -0.535643 0.833474 -0.135675
vn -0.901221 0.411573 -0.135677
vn -0.980669 -0.140995 -0.135677
vn -0.748762 -0.648804 -0.135678
vn -0.279121 -0.950623 -0.135677
vn 0.279121 -0.950623 -0.135677
vn 0.748756 -0.648811 -0.135678
vn 0.980668 -0.141002 -0.135678
vn 0.901219 0.411577 -0.135678
vn 0.535635 0.833479 -0.135678
vn -0.000005 0.990753 -0.135675
f 1/1/1 2/2/2 3/3/3
f 4/4/4 3/3/3 5/5/5
f 6/6/6 5/5/5 7/7/7
f 8/8/8 7/7/7 9/9/9
f 10/10/10 9/9/9 11/11/11
f 12/12/12 11/11/11 13/13/13
f 14/14/14 13/13/13 15/15/15
f 16/16/16 15/15/15 17/17/17
f 18/18/18 17/17/17 19/19/19
f 20/20/20 19/19/19 21/21/21
f 22/22/22 21/21/21 23/23/23
f 24/24/24 25/25/25 26/26/26
f 27/27/27 28/28/28 25/25/25
f 29/29/29 30/30/30 28/28/28
f 31/31/31 32/32/32 30/30/30
f 33/33/33 34/34/34 32/32/32
f 35/35/35 36/36/36 34/34/34
f 37/37/37 38/38/38 36/36/36
f 39/39/39 40/40/40 38/38/38
f 41/41/41 42/42/42 40/40/40
f 43/43/43 44/44/44 42/42/42
f 45/45/45 46/46/46 44/44/44
f 2/2/2 47/47/47 48/48/48
f 2/2/2 48/48/48 3/3/3
f 3/3/3 48/48/48 49/49/49
f 3/3/3 49/49/49 5/5/5
f 5/5/5 49/49/49 50/50/50
f 5/5/5 50/50/50 7/7/7
f 7/7/7 50/50/50 51/51/51
f 7/7/7 51/51/51 9/9/9
f 9/9/9 51/51/51 52/52/52
f 9/9/9 52/52/52 11/11/11
f 11/11/11 52/52/52 53/53/53
f 11/11/11 53/53/53 13/13/13
f 13/13/13 53/53/53 54/54/54
f 13/13/13 54/54/54 15/15/15
f 15/15/15 54/54/54 55/55/55
f 15/15/15 55/55/55 17/17/17
f 17/17/17 55/55/55 56/56/56
f 17/17/17 56/56/56 19/19/19
f 19/19/19 56/56/56 57/57/57
f 19/19/19 57/57/57 21/21/21
f 21/21/21 57/57/57 58/58/58
f 21/21/21 58/58/58 23/23/23
f 47/47/47 59/59/59 60/60/60
f 47/47/47 60/60/60 48/48/48
f 48/48/48 60/60/60 61/61/61
f 48/48/48 61/61/61 49/49/49
f 49/49/49 61/61/61 62/62/62
f 49/49/49 62/62/62 50/50/50
f 50/50/50 62/62/62 63/63/63
f 50/50/50 63/63/63 51/51/51
f 51/51/51 63/63/63 64/64/64
f 51/51/51 64/64/64 52/52/52
f 52/52/52 64/64/64 65/65/65
f 52/52/52 65/65/65 53/53/53
f 53/53/53 65/65/65 66/66/66
f 53/53/53 66/66/66 54/54/54
f 54/54/54 66/66/66 67/67/67
f 54/54/54 67/67/67 55/55/55
f 55/55/55 67/67/67 68/68/68
f 55/55/55 68/68/68 56/56/56
f 56/56/56 68/68/68 69/69/69
f 56/56/56 69/69/69 57/57/57
f 57/57/57 69/69/69 70/70/70
f 57/57/57 70/70/70 58/58/58
f 59/59/59 26/26/26 25/25/25
f 59/59/59 25/25/25 60/60/60
f 60/60/60 25/25/25 28/28/28
f 60/60/60 28/28/28 61/61/61
f 61/61/61 28/28/28 30/30/30
f 61/61/61 30/30/30 62/62/62
f 62/62/62 30/30/30 32/32/32
f 62/62/62 32/32/32 63/63/63
f 63/63/63 32/32/32 34/34/34
f 63/63/63 34/34/34 64/64/64
f 64/64/64 34/34/34 36/36/36
f 64/64/64 36/36/36 65/65/65
f 65/65/65 36/36/36 38/38/38
f 65/65/65 38/38/38 66/66/66
f 66/66/66 38/38/38 40/40/40
f 66/66/66 40/40/40 67/67/67
f 67/67/67 40/40/40 42/42/42
f 67/67/67 42/42/42 68/68/68
f 68/68/68 42/42/42 44/44/44
f 68/68/68 44/44/44 69/69/69
f 69/69/69 44/44/44 46/46/46
f 69/69/69 46/46/46 70/70/70
