v -1321.319702 24.796875 465.397003
v -1321.319702 31.276934 463.494293
v -1324.823120 30.248247 463.494293
v -1321.319702 24.796875 465.397003
v -1327.214111 27.488789 463.494293
v -1321.319702 24.796875 465.397003
v -1327.733765 23.874666 463.494293
v -1321.319702 24.796875 465.397003
v -1326.217041 20.553339 463.494293
v -1321.319702 24.796875 465.397003
v -1323.145386 18.579304 463.494293
v -1321.319702 24.796875 465.397003
v -1319.494019 18.579306 463.494293
v -1321.319702 24.796875 465.397003
v -1316.422363 20.553341 463.494293
v -1321.319702 24.796875 465.397003
v -1314.905640 23.874666 463.494293
v -1321.319702 24.796875 465.397003
v -1315.425293 27.488787 463.494293
v -1321.319702 24.796875 465.397003
v -1317.816284 30.248245 463.494293
v -1321.319702 24.796875 465.397003
v -1321.319702 31.276934 463.494293
v -1321.319702 24.796875 441.425262
v -1326.217041 32.417225 445.562042
v -1321.319702 33.855202 445.562042
v -1321.319702 24.796875 441.425262
v -1329.559448 28.559839 445.562042
v -1321.319702 24.796875 441.425262
v -1330.285767 23.507740 445.562042
v -1321.319702 24.796875 441.425262
v -1328.165527 18.864933 445.562042
v -1321.319702 24.796875 441.425262
v -1323.871704 16.105476 445.562042
v -1321.319702 24.796875 441.425262
v -1318.767700 16.105476 445.562042
v -1321.319702 24.796875 441.425262
v -1314.473877 18.864935 445.562042
v -1321.319702 24.796875 441.425262
v -1312.353638 23.507740 445.562042
v -1321.319702 24.796875 441.425262
v -1313.079956 28.559837 445.562042
v -1321.319702 24.796875 441.425262
v -1316.422363 32.417221 445.562042
v -1321.319702 24.796875 441.425262
v -1321.319702 33.855202 445.562042
v -1321.319702 35.699619 458.390259
v -1327.214111 33.968849 458.390259
v -1331.237183 29.326038 458.390259
v -1332.111450 23.245253 458.390259
v -1329.559448 17.657095 458.390259
v -1324.391357 14.335769 458.390259
v -1318.248047 14.335770 458.390259
v -1313.079956 17.657097 458.390259
v -1310.527954 23.245253 458.390259
v -1311.402222 29.326036 458.390259
v -1315.425171 33.968845 458.390259
v -1321.319702 35.699619 458.390259
v -1321.319702 36.660759 451.705353
v -1327.733765 34.777412 451.705353
v -1332.111450 29.725311 451.705353
v -1333.062866 23.108467 451.705353
v -1330.285889 17.027681 451.705353
v -1324.662109 13.413560 451.705353
v -1317.977295 13.413561 451.705353
v -1312.353516 17.027683 451.705353
v -1309.576538 23.108467 451.705353
v -1310.527954 29.725309 451.705353
v -1314.905640 34.777409 451.705353
v -1321.319702 36.660759 451.705353
vt 0.000000 0.000000
vt 0.000000 0.000000
vt 0.000000 0.000000
vt 0.000000 0.000000
vt 0.000000 0.000000
vt 0.000000 0.000000
vt 0.000000 0.000000
vt 0.000000 0.000000
vt 0.000000 0.000000
vt 0.000000 0.000000
vt 0.000000 0.000000
vt 0.000000 0.000000
vt 0.000000 0.000000
vt 0.000000 0.000000
vt 0.000000 0.000000
vt 0.000000 0.000000
vt 0.000000 0.000000
vt 0.000000 0.000000
vt 0.000000 0.000000
vt 0.000000 0.000000
vt 0.000000 0.000000
vt 0.000000 0.000000
vt 0.000000 0.000000
vt 0.000000 0.000000
vt 0.000000 0.000000
vt 0.000000 0.000000
vt 0.000000 0.000000
vt 0.000000 0.000000
vt 0.000000 0.000000
vt 0.000000 0.000000
vt 0.000000 0.000000
vt 0.000000 0.000000
vt 0.000000 0.000000
vt 0.000000 0.000000
vt 0.000000 0.000000
vt 0.000000 0.000000
vt 0.000000 0.000000
vt 0.000000 0.000000
vt 0.000000 0.000000
vt 0.000000 0.000000
vt 0.000000 0.000000
vt 0.000000 0.000000
vt 0.000000 0.000000
vt 0.000000 0.000000
vt 0.000000 0.000000
vt 0.000000 0.000000
vt 0.000000 0.000000
vt 0.000000 0.000000
vt 0.000000 0.000000
vt 0.000000 0.000000
vt 0.000000 0.000000
vt 0.000000 0.000000
vt 0.000000 0.000000
vt 0.000000 0.000000
vt 0.000000 0.000000
vt 0.000000 0.000000
vt 0.000000 0.000000
vt 0.000000 0.000000
vt 0.000000 0.000000
vt 0.000000 0.000000
vt 0.000000 0.000000
vt 0.000000 0.000000
vt 0.000000 0.000000
vt 0.000000 0.000000
vt 0.000000 0.000000
vt 0.000000 0.000000
vt 0.000000 0.000000
vt 0.000000 0.000000
vt 0.000000 0.000000
vt 0.000000 0.000000
vn 0.000000 0.000000 1.000000
vn -0.000001 0.574814 0.818285
vn -0.310771 0.483564 0.818283
vn 0.000000 0.000000 1.000000
vn -0.522868 0.238785 0.818285
vn 0.000000 0.000000 1.000000
vn -0.568963 -0.081801 0.818285
vn 0.000000 0.000000 1.000000
vn -0.434419 -0.376421 0.818284
vn 0.000000 0.000000 1.000000
vn -0.161944 -0.551530 0.818284
vn 0.000000 0.000000 1.000000
vn 0.161945 -0.551530 0.818284
vn 0.000000 0.000000 1.000000
vn 0.434418 -0.376421 0.818284
vn 0.000000 0.000000 1.000000
vn 0.568963 -0.081801 0.818285
vn 0.000000 0.000000 1.000000
vn 0.522868 0.238782 0.818286
vn 0.000000 0.000000 1.000000
vn 0.310770 0.483562 0.818285
vn 0.000000 0.000000 1.000000
vn -0.000001 0.574814 0.818285
vn 0.000000 -0.000000 -1.000000
vn -0.397937 0.619199 -0.676934
vn 0.000000 0.736043 -0.676935
vn 0.000000 -0.000000 -1.000000
vn -0.669529 0.305761 -0.676935
vn 0.000000 -0.000000 -1.000000
vn -0.728548 -0.104748 -0.676939
vn 0.000000 -0.000000 -1.000000
vn -0.556263 -0.482004 -0.676937
vn 0.000000 -0.000000 -1.000000
vn -0.207365 -0.706228 -0.676936
vn 0.000000 -0.000000 -1.000000
vn 0.207365 -0.706228 -0.676936
vn 0.000000 -0.000000 -1.000000
vn 0.556263 -0.482004 -0.676937
vn 0.000000 -0.000000 -1.000000
vn 0.728548 -0.104748 -0.676939
vn 0.000000 -0.000000 -1.000000
vn 0.669529 0.305761 -0.676935
vn 0.000000 -0.000000 -1.000000
vn 0.397937 0.619198 -0.676934
vn 0.000000 -0.000000 -1.000000
vn 0.000000 0.736043 -0.676935
vn -0.000001 0.917639 0.397415
vn -0.496112 0.771968 0.397415
vn -0.834713 0.381202 0.397416
vn -0.908298 -0.130590 0.397418
vn -0.693505 -0.600925 0.397417
vn -0.258528 -0.880469 0.397415
vn 0.258528 -0.880468 0.397415
vn 0.693505 -0.600925 0.397417
vn 0.908298 -0.130590 0.397419
vn 0.834714 0.381199 0.397416
vn 0.496117 0.771965 0.397414
vn -0.000001 0.917639 0.397415
vn -0.000000 0.990753 -0.135678
vn -0.535641 0.833475 -0.135677
vn -0.901220 0.411575 -0.135677
vn -0.980669 -0.140996 -0.135679
vn -0.748762 -0.648805 -0.135679
vn -0.279125 -0.950621 -0.135678
vn 0.279125 -0.950621 -0.135678
vn 0.748762 -0.648804 -0.135679
vn 0.980669 -0.140996 -0.135679
vn 0.901221 0.411574 -0.135679
vn 0.535641 0.833475 -0.135679
vn -0.000000 0.990753 -0.135678
f 1/1/1 2/2/2 3/3/3
f 4/4/4 3/3/3 5/5/5
f 6/6/6 5/5/5 7/7/7
f 8/8/8 7/7/7 9/9/9
f 10/10/10 9/9/9 11/11/11
f 12/12/12 11/11/11 13/13/13
f 14/14/14 13/13/13 15/15/15
f 16/16/16 15/15/15 17/17/17
f 18/18/18 17/17/17 19/19/19
f 20/20/20 19/19/19 21/21/21
f 22/22/22 21/21/21 23/23/23
f 24/24/24 25/25/25 26/26/26
f 27/27/27 28/28/28 25/25/25
f 29/29/29 30/30/30 28/28/28
f 31/31/31 32/32/32 30/30/30
f 33/33/33 34/34/34 32/32/32
f 35/35/35 36/36/36 34/34/34
f 37/37/37 38/38/38 36/36/36
f 39/39/39 40/40/40 38/38/38
f 41/41/41 42/42/42 40/40/40
f 43/43/43 44/44/44 42/42/42
f 45/45/45 46/46/46 44/44/44
f 2/2/2 47/47/47 48/48/48
f 2/2/2 48/48/48 3/3/3
f 3/3/3 48/48/48 49/49/49
f 3/3/3 49/49/49 5/5/5
f 5/5/5 49/49/49 50/50/50
f 5/5/5 50/50/50 7/7/7
f 7/7/7 50/50/50 51/51/51
f 7/7/7 51/51/51 9/9/9
f 9/9/9 51/51/51 52/52/52
f 9/9/9 52/52/52 11/11/11
f 11/11/11 52/52/52 53/53/53
f 11/11/11 53/53/53 13/13/13
f 13/13/13 53/53/53 54/54/54
f 13/13/13 54/54/54 15/15/15
f 15/15/15 54/54/54 55/55/55
f 15/15/15 55/55/55 17/17/17
f 17/17/17 55/55/55 56/56/56
f 17/17/17 56/56/56 19/19/19
f 19/19/19 56/56/56 57/57/57
f 19/19/19 57/57/57 21/21/21
f 21/21/21 57/57/57 58/58/58
f 21/21/21 58/58/58 23/23/23
f 47/47/47 59/59/59 60/60/60
f 47/47/47 60/60/60 48/48/48
f 48/48/48 60/60/60 61/61/61
f 48/48/48 61/61/61 49/49/49
f 49/49/49 61/61/61 62/62/62
f 49/49/49 62/62/62 50/50/50
f 50/50/50 62/62/62 63/63/63
f 50/50/50 63/63/63 51/51/51
f 51/51/51 63/63/63 64/64/64
f 51/51/51 64/64/64 52/52/52
f 52/52/52 64/64/64 65/65/65
f 52/52/52 65/65/65 53/53/53
f 53/53/53 65/65/65 66/66/66
f 53/53/53 66/66/66 54/54/54
f 54/54/54 66/66/66 67/67/67
f 54/54/54 67/67/67 55/55/55
f 55/55/55 67/67/67 68/68/68
f 55/55/55 68/68/68 56/56/56
f 56/56/56 68/68/68 69/69/69
f 56/56/56 69/69/69 57/57/57
f 57/57/57 69/69/69 70/70/70
f 57/57/57 70/70/70 58/58/58
f 59/59/59 26/26/26 25/25/25
f 59/59/59 25/25/25 60/60/60
f 60/60/60 25/25/25 28/28/28
f 60/60/60 28/28/28 61/61/61
f 61/61/61 28/28/28 30/30/30
f 61/61/61 30/30/30 62/62/62
f 62/62/62 30/30/30 32/32/32
f 62/62/62 32/32/32 63/63/63
f 63/63/63 32/32/32 34/34/34
f 63/63/63 34/34/34 64/64/64
f 64/64/64 34/34/34 36/36/36
f 64/64/64 36/36/36 65/65/65
f 65/65/65 36/36/36 38/38/38
f 65/65/65 38/38/38 66/66/66
f 66/66/66 38/38/38 40/40/40
f 66/66/66 40/40/40 67/67/67
f 67/67/67 40/40/40 42/42/42
f 67/67/67 42/42/42 68/68/68
f 68/68/68 42/42/42 44/44/44
f 68/68/68 44/44/44 69/69/69
f 69/69/69 44/44/44 46/46/46
f 69/69/69 46/46/46 70/70/70
