v -1457.534058 -116.572075 202.835632
v -1457.534058 -103.611938 199.030197
v -1464.540771 -105.669296 199.030197
v -1457.534058 -116.572075 202.835632
v -1469.322998 -111.188240 199.030197
v -1457.534058 -116.572075 202.835632
v -1470.362305 -118.416473 199.030197
v -1457.534058 -116.572075 202.835632
v -1467.328613 -125.059151 199.030182
v -1457.534058 -116.572075 202.835632
v -1461.185303 -129.007217 199.030182
v -1457.534058 -116.572075 202.835632
v -1453.882690 -129.007217 199.030212
v -1457.534058 -116.572075 202.835632
v -1447.739380 -125.059158 199.030197
v -1457.534058 -116.572075 202.835632
v -1444.705688 -118.416458 199.030197
v -1457.534058 -116.572075 202.835632
v -1445.744995 -111.188225 199.030197
v -1457.534058 -116.572075 202.835632
v -1450.527222 -105.669327 199.030182
v -1457.534058 -116.572075 202.835632
v -1457.534058 -103.611938 199.030197
v -1457.534058 -116.572060 154.892090
v -1467.328613 -101.331345 163.165680
v -1457.534058 -98.455399 163.165680
v -1457.534058 -116.572060 154.892090
v -1474.013550 -109.046127 163.165680
v -1457.534058 -116.572060 154.892090
v -1475.466309 -119.150352 163.165695
v -1457.534058 -116.572060 154.892090
v -1471.225708 -128.435974 163.165695
v -1457.534058 -116.572060 154.892090
v -1462.638184 -133.954895 163.165695
v -1457.534058 -116.572060 154.892090
v -1452.430054 -133.954895 163.165695
v -1457.534058 -116.572060 154.892090
v -1443.842407 -128.435974 163.165695
v -1457.534058 -116.572060 154.892090
v -1439.601807 -119.150337 163.165680
v -1457.534058 -116.572060 154.892090
v -1441.054443 -109.046097 163.165680
v -1457.534058 -116.572060 154.892090
v -1447.739502 -101.331375 163.165665
v -1457.534058 -116.572060 154.892090
v -1457.534058 -98.455399 163.165680
v -1457.534058 -94.766571 188.822098
v -1469.322998 -98.228119 188.822083
v -1477.368896 -107.513733 188.822098
v -1479.117432 -119.675285 188.822083
v -1474.013550 -130.851624 188.822083
v -1463.677490 -137.494278 188.822083
v -1451.390747 -137.494247 188.822083
v -1441.054443 -130.851593 188.822083
v -1435.950562 -119.675278 188.822083
v -1437.698975 -107.513718 188.822083
v -1445.745117 -98.228119 188.822098
v -1457.534058 -94.766571 188.822098
v -1457.533936 -92.844269 175.452316
v -1470.362183 -96.610992 175.452301
v -1479.117554 -106.715195 175.452316
v -1481.020264 -119.948853 175.452316
v -1475.466187 -132.110458 175.452332
v -1464.218872 -139.338715 175.452316
v -1450.849121 -139.338684 175.452332
v -1439.601807 -132.110458 175.452316
v -1434.047729 -119.948860 175.452316
v -1435.950562 -106.715210 175.452316
v -1444.705688 -96.610977 175.452316
v -1457.533936 -92.844269 175.452316
vt 0.000000 0.000000
vt 0.000000 0.000000
vt 0.000000 0.000000
vt 0.000000 0.000000
vt 0.000000 0.000000
vt 0.000000 0.000000
vt 0.000000 0.000000
vt 0.000000 0.000000
vt 0.000000 0.000000
vt 0.000000 0.000000
vt 0.000000 0.000000
vt 0.000000 0.000000
vt 0.000000 0.000000
vt 0.000000 0.000000
vt 0.000000 0.000000
vt 0.000000 0.000000
vt 0.000000 0.000000
vt 0.000000 0.000000
vt 0.000000 0.000000
vt 0.000000 0.000000
vt 0.000000 0.000000
vt 0.000000 0.000000
vt 0.000000 0.000000
vt 0.000000 0.000000
vt 0.000000 0.000000
vt 0.000000 0.000000
vt 0.000000 0.000000
vt 0.000000 0.000000
vt 0.000000 0.000000
vt 0.000000 0.000000
vt 0.000000 0.000000
vt 0.000000 0.000000
vt 0.000000 0.000000
vt 0.000000 0.000000
vt 0.000000 0.000000
vt 0.000000 0.000000
vt 0.000000 0.000000
vt 0.000000 0.000000
vt 0.000000 0.000000
vt 0.000000 0.000000
vt 0.000000 0.000000
vt 0.000000 0.000000
vt 0.000000 0.000000
vt 0.000000 0.000000
vt 0.000000 0.000000
vt 0.000000 0.000000
vt 0.000000 0.000000
vt 0.000000 0.000000
vt 0.000000 0.000000
vt 0.000000 0.000000
vt 0.000000 0.000000
vt 0.000000 0.000000
vt 0.000000 0.000000
vt 0.000000 0.000000
vt 0.000000 0.000000
vt 0.000000 0.000000
vt 0.000000 0.000000
vt 0.000000 0.000000
vt 0.000000 0.000000
vt 0.000000 0.000000
vt 0.000000 0.000000
vt 0.000000 0.000000
vt 0.000000 0.000000
vt 0.000000 0.000000
vt 0.000000 0.000000
vt 0.000000 0.000000
vt 0.000000 0.000000
vt 0.000000 0.000000
vt 0.000000 0.000000
vt 0.000000 0.000000
vn -0.000001 -0.000000 1.000000
vn 0.000000 0.574814 0.818284
vn -0.310769 0.483565 0.818283
vn -0.000001 -0.000000 1.000000
vn -0.522873 0.238787 0.818282
vn -0.000001 -0.000000 1.000000
vn -0.568968 -0.081805 0.818281
vn -0.000001 -0.000000 1.000000
vn -0.434417 -0.376423 0.818283
vn -0.000001 -0.000000 1.000000
vn -0.161944 -0.551531 0.818283
vn -0.000001 -0.000000 1.000000
vn 0.161944 -0.551531 0.818283
vn -0.000001 -0.000000 1.000000
vn 0.434416 -0.376424 0.818283
vn -0.000001 -0.000000 1.000000
vn 0.568967 -0.081805 0.818282
vn -0.000001 -0.000000 1.000000
vn 0.522870 0.238788 0.818283
vn -0.000001 -0.000000 1.000000
vn 0.310767 0.483566 0.818283
vn -0.000001 -0.000000 1.000000
vn 0.000000 0.574814 0.818284
vn -0.000000 -0.000000 -1.000000
vn -0.397935 0.619200 -0.676934
vn -0.000001 0.736043 -0.676935
vn -0.000000 -0.000000 -1.000000
vn -0.669529 0.305764 -0.676934
vn -0.000000 -0.000000 -1.000000
vn -0.728553 -0.104752 -0.676933
vn -0.000000 -0.000000 -1.000000
vn -0.556267 -0.482006 -0.676933
vn -0.000000 -0.000000 -1.000000
vn -0.207370 -0.706229 -0.676933
vn -0.000000 -0.000000 -1.000000
vn 0.207367 -0.706229 -0.676935
vn -0.000000 -0.000000 -1.000000
vn 0.556263 -0.482007 -0.676935
vn -0.000000 -0.000000 -1.000000
vn 0.728550 -0.104752 -0.676935
vn -0.000000 -0.000000 -1.000000
vn 0.669530 0.305763 -0.676933
vn -0.000000 -0.000000 -1.000000
vn 0.397932 0.619198 -0.676937
vn -0.000000 -0.000000 -1.000000
vn -0.000001 0.736043 -0.676935
vn -0.000001 0.917639 0.397415
vn -0.496116 0.771966 0.397414
vn -0.834715 0.381200 0.397414
vn -0.908300 -0.130592 0.397414
vn -0.693509 -0.600923 0.397413
vn -0.258532 -0.880468 0.397414
vn 0.258528 -0.880469 0.397414
vn 0.693507 -0.600925 0.397413
vn 0.908300 -0.130593 0.397412
vn 0.834715 0.381200 0.397412
vn 0.496112 0.771968 0.397416
vn -0.000001 0.917639 0.397415
vn 0.000001 0.990753 -0.135678
vn -0.535642 0.833475 -0.135677
vn -0.901221 0.411573 -0.135675
vn -0.980669 -0.140999 -0.135674
vn -0.748762 -0.648804 -0.135676
vn -0.279126 -0.950621 -0.135677
vn 0.279129 -0.950620 -0.135677
vn 0.748761 -0.648806 -0.135678
vn 0.980669 -0.140999 -0.135678
vn 0.901221 0.411573 -0.135678
vn 0.535644 0.833473 -0.135678
vn 0.000001 0.990753 -0.135678
f 1/1/1 2/2/2 3/3/3
f 4/4/4 3/3/3 5/5/5
f 6/6/6 5/5/5 7/7/7
f 8/8/8 7/7/7 9/9/9
f 10/10/10 9/9/9 11/11/11
f 12/12/12 11/11/11 13/13/13
f 14/14/14 13/13/13 15/15/15
f 16/16/16 15/15/15 17/17/17
f 18/18/18 17/17/17 19/19/19
f 20/20/20 19/19/19 21/21/21
f 22/22/22 21/21/21 23/23/23
f 24/24/24 25/25/25 26/26/26
f 27/27/27 28/28/28 25/25/25
f 29/29/29 30/30/30 28/28/28
f 31/31/31 32/32/32 30/30/30
f 33/33/33 34/34/34 32/32/32
f 35/35/35 36/36/36 34/34/34
f 37/37/37 38/38/38 36/36/36
f 39/39/39 40/40/40 38/38/38
f 41/41/41 42/42/42 40/40/40
f 43/43/43 44/44/44 42/42/42
f 45/45/45 46/46/46 44/44/44
f 2/2/2 47/47/47 48/48/48
f 2/2/2 48/48/48 3/3/3
f 3/3/3 48/48/48 49/49/49
f 3/3/3 49/49/49 5/5/5
f 5/5/5 49/49/49 50/50/50
f 5/5/5 50/50/50 7/7/7
f 7/7/7 50/50/50 51/51/51
f 7/7/7 51/51/51 9/9/9
f 9/9/9 51/51/51 52/52/52
f 9/9/9 52/52/52 11/11/11
f 11/11/11 52/52/52 53/53/53
f 11/11/11 53/53/53 13/13/13
f 13/13/13 53/53/53 54/54/54
f 13/13/13 54/54/54 15/15/15
f 15/15/15 54/54/54 55/55/55
f 15/15/15 55/55/55 17/17/17
f 17/17/17 55/55/55 56/56/56
f 17/17/17 56/56/56 19/19/19
f 19/19/19 56/56/56 57/57/57
f 19/19/19 57/57/57 21/21/21
f 21/21/21 57/57/57 58/58/58
f 21/21/21 58/58/58 23/23/23
f 47/47/47 59/59/59 60/60/60
f 47/47/47 60/60/60 48/48/48
f 48/48/48 60/60/60 61/61/61
f 48/48/48 61/61/61 49/49/49
f 49/49/49 61/61/61 62/62/62
f 49/49/49 62/62/62 50/50/50
f 50/50/50 62/62/62 63/63/63
f 50/50/50 63/63/63 51/51/51
f 51/51/51 63/63/63 64/64/64
f 51/51/51 64/64/64 52/52/52
f 52/52/52 64/64/64 65/65/65
f 52/52/52 65/65/65 53/53/53
f 53/53/53 65/65/65 66/66/66
f 53/53/53 66/66/66 54/54/54
f 54/54/54 66/66/66 67/67/67
f 54/54/54 67/67/67 55/55/55
f 55/55/55 67/67/67 68/68/68
f 55/55/55 68/68/68 56/56/56
f 56/56/56 68/68/68 69/69/69
f 56/56/56 69/69/69 57/57/57
f 57/57/57 69/69/69 70/70/70
f 57/57/57 70/70/70 58/58/58
f 59/59/59 26/26/26 25/25/25
f 59/59/59 25/25/25 60/60/60
f 60/60/60 25/25/25 28/28/28
f 60/60/60 28/28/28 61/61/61
f 61/61/61 28/28/28 30/30/30
f 61/61/61 30/30/30 62/62/62
f 62/62/62 30/30/30 32/32/32
f 62/62/62 32/32/32 63/63/63
f 63/63/63 32/32/32 34/34/34
f 63/63/63 34/34/34 64/64/64
f 64/64/64 34/34/34 36/36/36
f 64/64/64 36/36/36 65/65/65
f 65/65/65 36/36/36 38/38/38
f 65/65/65 38/38/38 66/66/66
f 66/66/66 38/38/38 40/40/40
f 66/66/66 40/40/40 67/67/67
f 67/67/67 40/40/40 42/42/42
f 67/67/67 42/42/42 68/68/68
f 68/68/68 42/42/42 44/44/44
f 68/68/68 44/44/44 69/69/69
f 69/69/69 44/44/44 46/46/46
f 69/69/69 46/46/46 70/70/70
