v 342.057861 23.087646 91.957718
v 342.057861 33.326141 88.951424
v 336.522461 31.700815 88.951424
v 342.057861 23.087646 91.957718
v 332.744629 27.340870 88.951424
v 342.057861 23.087646 91.957718
v 331.923584 21.630556 88.951424
v 342.057861 23.087646 91.957718
v 334.320068 16.382858 88.951424
v 342.057861 23.087646 91.957718
v 339.173340 13.263885 88.951424
v 342.057861 23.087646 91.957718
v 344.942383 13.263885 88.951424
v 342.057861 23.087646 91.957718
v 349.795654 16.382860 88.951424
v 342.057861 23.087646 91.957718
v 352.192139 21.630556 88.951424
v 342.057861 23.087646 91.957718
v 351.371094 27.340868 88.951424
v 342.057861 23.087646 91.957718
v 347.593262 31.700813 88.951424
v 342.057861 23.087646 91.957718
v 342.057861 33.326141 88.951424
v 342.057861 23.087646 54.082321
v 334.320068 35.127800 60.618462
v 342.057861 37.399803 60.618462
v 342.057861 23.087646 54.082321
v 329.039062 29.033131 60.618462
v 342.057861 23.087646 54.082321
v 327.891357 21.050814 60.618462
v 342.057861 23.087646 54.082321
v 331.241455 13.715177 60.618462
v 342.057861 23.087646 54.082321
v 338.025635 9.355233 60.618462
v 342.057861 23.087646 54.082321
v 346.090088 9.355235 60.618462
v 342.057861 23.087646 54.082321
v 352.874268 13.715179 60.618462
v 342.057861 23.087646 54.082321
v 356.224365 21.050814 60.618462
v 342.057861 23.087646 54.082321
v 355.076660 29.033127 60.618462
v 342.057861 23.087646 54.082321
v 349.795654 35.127792 60.618462
v 342.057861 23.087646 54.082321
v 342.057861 37.399803 60.618462
v 342.057861 40.313984 80.887024
v 332.744629 37.579365 80.887024
v 326.388184 30.243725 80.887024
v 325.006836 20.636082 80.887024
v 329.039062 11.806793 80.887024
v 337.204590 6.559097 80.887024
v 346.911133 6.559099 80.887024
v 355.076660 11.806796 80.887024
v 359.108887 20.636084 80.887024
v 357.727539 30.243721 80.887024
v 351.371094 37.579361 80.887024
v 342.057861 40.313984 80.887024
v 342.057861 41.832588 70.324905
v 331.923584 38.856895 70.324905
v 325.006836 30.874577 70.324905
v 323.503662 20.419962 70.324905
v 327.891357 10.812321 70.324905
v 336.776855 5.102009 70.324905
v 347.338867 5.102011 70.324905
v 356.224365 10.812324 70.324905
v 360.612061 20.419964 70.324905
v 359.108887 30.874573 70.324905
v 352.192139 38.856888 70.324905
v 342.057861 41.832588 70.324905
vt 0.000000 0.000000
vt 0.000000 0.000000
vt 0.000000 0.000000
vt 0.000000 0.000000
vt 0.000000 0.000000
vt 0.000000 0.000000
vt 0.000000 0.000000
vt 0.000000 0.000000
vt 0.000000 0.000000
vt 0.000000 0.000000
vt 0.000000 0.000000
vt 0.000000 0.000000
vt 0.000000 0.000000
vt 0.000000 0.000000
vt 0.000000 0.000000
vt 0.000000 0.000000
vt 0.000000 0.000000
vt 0.000000 0.000000
vt 0.000000 0.000000
vt 0.000000 0.000000
vt 0.000000 0.000000
vt 0.000000 0.000000
vt 0.000000 0.000000
vt 0.000000 0.000000
vt 0.000000 0.000000
vt 0.000000 0.000000
vt 0.000000 0.000000
vt 0.000000 0.000000
vt 0.000000 0.000000
vt 0.000000 0.000000
vt 0.000000 0.000000
vt 0.000000 0.000000
vt 0.000000 0.000000
vt 0.000000 0.000000
vt 0.000000 0.000000
vt 0.000000 0.000000
vt 0.000000 0.000000
vt 0.000000 0.000000
vt 0.000000 0.000000
vt 0.000000 0.000000
vt 0.000000 0.000000
vt 0.000000 0.000000
vt 0.000000 0.000000
vt 0.000000 0.000000
vt 0.000000 0.000000
vt 0.000000 0.000000
vt 0.000000 0.000000
vt 0.000000 0.000000
vt 0.000000 0.000000
vt 0.000000 0.000000
vt 0.000000 0.000000
vt 0.000000 0.000000
vt 0.000000 0.000000
vt 0.000000 0.000000
vt 0.000000 0.000000
vt 0.000000 0.000000
vt 0.000000 0.000000
vt 0.000000 0.000000
vt 0.000000 0.000000
vt 0.000000 0.000000
vt 0.000000 0.000000
vt 0.000000 0.000000
vt 0.000000 0.000000
vt 0.000000 0.000000
vt 0.000000 0.000000
vt 0.000000 0.000000
vt 0.000000 0.000000
vt 0.000000 0.000000
vt 0.000000 0.000000
vt 0.000000 0.000000
vn 0.000000 0.000000 1.000000
vn 0.000000 0.574815 0.818284
vn -0.310770 0.483565 0.818283
vn 0.000000 0.000000 1.000000
vn -0.522868 0.238786 0.818285
vn 0.000000 0.000000 1.000000
vn -0.568963 -0.081803 0.818284
vn 0.000000 0.000000 1.000000
vn -0.434417 -0.376423 0.818283
vn 0.000000 0.000000 1.000000
vn -0.161943 -0.551531 0.818284
vn 0.000000 0.000000 1.000000
vn 0.161943 -0.551531 0.818284
vn 0.000000 0.000000 1.000000
vn 0.434417 -0.376423 0.818283
vn 0.000000 0.000000 1.000000
vn 0.568963 -0.081803 0.818284
vn 0.000000 0.000000 1.000000
vn 0.522868 0.238786 0.818285
vn 0.000000 0.000000 1.000000
vn 0.310770 0.483565 0.818283
vn 0.000000 0.000000 1.000000
vn 0.000000 0.574815 0.818284
vn 0.000000 -0.000000 -1.000000
vn -0.397936 0.619199 -0.676934
vn 0.000000 0.736043 -0.676935
vn 0.000000 -0.000000 -1.000000
vn -0.669528 0.305763 -0.676935
vn 0.000000 -0.000000 -1.000000
vn -0.728550 -0.104750 -0.676936
vn 0.000000 -0.000000 -1.000000
vn -0.556263 -0.482007 -0.676935
vn 0.000000 -0.000000 -1.000000
vn -0.207368 -0.706228 -0.676934
vn 0.000000 -0.000000 -1.000000
vn 0.207368 -0.706228 -0.676934
vn 0.000000 -0.000000 -1.000000
vn 0.556263 -0.482007 -0.676935
vn 0.000000 -0.000000 -1.000000
vn 0.728550 -0.104750 -0.676936
vn 0.000000 -0.000000 -1.000000
vn 0.669528 0.305764 -0.676935
vn 0.000000 -0.000000 -1.000000
vn 0.397936 0.619199 -0.676934
vn 0.000000 -0.000000 -1.000000
vn 0.000000 0.736043 -0.676935
vn 0.000000 0.917639 0.397414
vn -0.496112 0.771968 0.397415
vn -0.834713 0.381202 0.397416
vn -0.908298 -0.130594 0.397416
vn -0.693505 -0.600927 0.397415
vn -0.258530 -0.880468 0.397414
vn 0.258530 -0.880468 0.397414
vn 0.693505 -0.600927 0.397415
vn 0.908298 -0.130594 0.397416
vn 0.834713 0.381202 0.397415
vn 0.496112 0.771968 0.397415
vn 0.000000 0.917639 0.397414
vn 0.000000 0.990753 -0.135677
vn -0.535641 0.833475 -0.135677
vn -0.901220 0.411575 -0.135678
vn -0.980668 -0.140999 -0.135678
vn -0.748760 -0.648807 -0.135678
vn -0.279125 -0.950621 -0.135678
vn 0.279126 -0.950621 -0.135678
vn 0.748760 -0.648807 -0.135678
vn 0.980668 -0.140999 -0.135678
vn 0.901220 0.411575 -0.135678
vn 0.535641 0.833475 -0.135677
vn 0.000000 0.990753 -0.135677
f 1/1/1 2/2/2 3/3/3
f 4/4/4 3/3/3 5/5/5
f 6/6/6 5/5/5 7/7/7
f 8/8/8 7/7/7 9/9/9
f 10/10/10 9/9/9 11/11/11
f 12/12/12 11/11/11 13/13/13
f 14/14/14 13/13/13 15/15/15
f 16/16/16 15/15/15 17/17/17
f 18/18/18 17/17/17 19/19/19
f 20/20/20 19/19/19 21/21/21
f 22/22/22 21/21/21 23/23/23
f 24/24/24 25/25/25 26/26/26
f 27/27/27 28/28/28 25/25/25
f 29/29/29 30/30/30 28/28/28
f 31/31/31 32/32/32 30/30/30
f 33/33/33 34/34/34 32/32/32
f 35/35/35 36/36/36 34/34/34
f 37/37/37 38/38/38 36/36/36
f 39/39/39 40/40/40 38/38/38
f 41/41/41 42/42/42 40/40/40
f 43/43/43 44/44/44 42/42/42
f 45/45/45 46/46/46 44/44/44
f 2/2/2 47/47/47 48/48/48
f 2/2/2 48/48/48 3/3/3
f 3/3/3 48/48/48 49/49/49
f 3/3/3 49/49/49 5/5/5
f 5/5/5 49/49/49 50/50/50
f 5/5/5 50/50/50 7/7/7
f 7/7/7 50/50/50 51/51/51
f 7/7/7 51/51/51 9/9/9
f 9/9/9 51/51/51 52/52/52
f 9/9/9 52/52/52 11/11/11
f 11/11/11 52/52/52 53/53/53
f 11/11/11 53/53/53 13/13/13
f 13/13/13 53/53/53 54/54/54
f 13/13/13 54/54/54 15/15/15
f 15/15/15 54/54/54 55/55/55
f 15/15/15 55/55/55 17/17/17
f 17/17/17 55/55/55 56/56/56
f 17/17/17 56/56/56 19/19/19
f 19/19/19 56/56/56 57/57/57
f 19/19/19 57/57/57 21/21/21
f 21/21/21 57/57/57 58/58/58
f 21/21/21 58/58/58 23/23/23
f 47/47/47 59/59/59 60/60/60
f 47/47/47 60/60/60 48/48/48
f 48/48/48 60/60/60 61/61/61
f 48/48/48 61/61/61 49/49/49
f 49/49/49 61/61/61 62/62/62
f 49/49/49 62/62/62 50/50/50
f 50/50/50 62/62/62 63/63/63
f 50/50/50 63/63/63 51/51/51
f 51/51/51 63/63/63 64/64/64
f 51/51/51 64/64/64 52/52/52
f 52/52/52 64/64/64 65/65/65
f 52/52/52 65/65/65 53/53/53
f 53/53/53 65/65/65 66/66/66
f 53/53/53 66/66/66 54/54/54
f 54/54/54 66/66/66 67/67/67
f 54/54/54 67/67/67 55/55/55
f 55/55/55 67/67/67 68/68/68
f 55/55/55 68/68/68 56/56/56
f 56/56/56 68/68/68 69/69/69
f 56/56/56 69/69/69 57/57/57
f 57/57/57 69/69/69 70/70/70
f 57/57/57 70/70/70 58/58/58
f 59/59/59 26/26/26 25/25/25
f 59/59/59 25/25/25 60/60/60
f 60/60/60 25/25/25 28/28/28
f 60/60/60 28/28/28 61/61/61
f 61/61/61 28/28/28 30/30/30
f 61/61/61 30/30/30 62/62/62
f 62/62/62 30/30/30 32/32/32
f 62/62/62 32/32/32 63/63/63
f 63/63/63 32/32/32 34/34/34
f 63/63/63 34/34/34 64/64/64
f 64/64/64 34/34/34 36/36/36
f 64/64/64 36/36/36 65/65/65
f 65/65/65 36/36/36 38/38/38
f 65/65/65 38/38/38 66/66/66
f 66/66/66 38/38/38 40/40/40
f 66/66/66 40/40/40 67/67/67
f 67/67/67 40/40/40 42/42/42
f 67/67/67 42/42/42 68/68/68
f 68/68/68 42/42/42 44/44/44
f 68/68/68 44/44/44 69/69/69
f 69/69/69 44/44/44 46/46/46
f 69/69/69 46/46/46 70/70/70
