v -20.038574 481.715149 -105.171768
v 28.483154 433.532166 -105.171738
v 60.344727 514.141418 -149.452988
v 28.483154 433.532166 -105.171738
v 28.483215 433.532166 -193.738144
v 60.344727 514.141418 -149.452988
v 28.483215 433.532166 -193.738144
v -20.038513 481.715149 -193.738144
v 60.344727 514.141418 -149.452988
v -20.038513 481.715149 -193.738144
v -20.038574 481.715149 -105.171768
v 60.344727 514.141418 -149.452988
v -107.448364 393.690887 -105.171799
v -107.448364 393.690887 -193.738205
v -141.697388 310.678131 -149.453079
v -107.448364 393.690887 -193.738205
v -58.926636 345.507874 -193.738205
v -141.697388 310.678131 -149.453079
v -58.926636 345.507874 -193.738205
v -58.926697 345.507904 -105.171799
v -141.697388 310.678131 -149.453079
v -58.926697 345.507904 -105.171799
v -107.448364 393.690887 -105.171799
v -141.697388 310.678131 -149.453079
v -107.448364 393.690887 -105.171799
v -58.926697 345.507904 -105.171799
v 28.483154 433.532166 -105.171738
v -20.038574 481.715149 -105.171768
v -58.926697 345.507904 -105.171799
v -58.926636 345.507874 -193.738205
v 28.483215 433.532166 -193.738144
v 28.483154 433.532166 -105.171738
v -58.926636 345.507874 -193.738205
v -107.448364 393.690887 -193.738205
v -20.038513 481.715149 -193.738144
v 28.483215 433.532166 -193.738144
v -107.448364 393.690887 -193.738205
v -107.448364 393.690887 -105.171799
v -20.038574 481.715149 -105.171768
v -20.038513 481.715149 -193.738144
vt 0.862641 0.063366
vt 0.850451 0.059638
vt 0.857841 0.037951
vt 0.850451 0.059638
vt 0.833796 0.051398
vt 0.857841 0.037951
vt 0.833796 0.051398
vt 0.823103 0.041511
vt 0.857841 0.037951
vt 0.882297 0.064112
vt 0.862641 0.063366
vt 0.857841 0.037951
vt 0.851611 0.092014
vt 0.866822 0.104584
vt 0.830535 0.108229
vt 0.807453 0.081134
vt 0.822081 0.081266
vt 0.830535 0.108229
vt 0.822081 0.081266
vt 0.839988 0.086551
vt 0.830535 0.108229
vt 0.839988 0.086551
vt 0.851611 0.092014
vt 0.830535 0.108229
vt 0.851611 0.092014
vt 0.839988 0.086551
vt 0.850451 0.059638
vt 0.862641 0.063366
vt 0.839988 0.086551
vt 0.822081 0.081266
vt 0.833796 0.051398
vt 0.850451 0.059638
vt 0.822081 0.081266
vt 0.807453 0.081134
vt 0.823103 0.041511
vt 0.833796 0.051398
vt 0.866822 0.104584
vt 0.851611 0.092014
vt 0.862641 0.063366
vt 0.882297 0.064112
vn 0.342384 0.344791 0.874009
vn 0.342384 0.344791 0.874010
vn 0.342384 0.344791 0.874010
vn 0.929989 -0.367587 0.000001
vn 0.929989 -0.367587 0.000001
vn 0.929989 -0.367587 0.000001
vn 0.342407 0.344814 -0.873991
vn 0.342407 0.344814 -0.873991
vn 0.342407 0.344814 -0.873991
vn -0.374104 0.927387 -0.000000
vn -0.374104 0.927387 -0.000000
vn -0.374104 0.927387 -0.000000
vn -0.924414 0.381391 0.000000
vn -0.924414 0.381391 0.000000
vn -0.924414 0.381391 0.000000
vn -0.331582 -0.333913 -0.882358
vn -0.331582 -0.333913 -0.882358
vn -0.331582 -0.333913 -0.882358
vn 0.387858 -0.921719 0.000001
vn 0.387858 -0.921719 0.000001
vn 0.387858 -0.921719 0.000001
vn -0.331559 -0.333890 0.882375
vn -0.331559 -0.333890 0.882375
vn -0.331559 -0.333890 0.882375
vn -0.000000 -0.000000 1.000000
vn -0.000000 -0.000000 1.000000
vn -0.000000 -0.000000 1.000000
vn -0.000000 -0.000000 1.000000
vn 0.709579 -0.704626 0.000001
vn 0.709579 -0.704626 0.000001
vn 0.709579 -0.704626 0.000001
vn 0.709579 -0.704626 0.000001
vn 0.000000 0.000000 -1.000000
vn 0.000000 0.000000 -1.000000
vn 0.000000 0.000000 -1.000000
vn 0.000000 0.000000 -1.000000
vn -0.709579 0.704626 -0.000000
vn -0.709579 0.704626 -0.000000
vn -0.709579 0.704626 -0.000000
vn -0.709579 0.704626 -0.000000
f 1/1/1 2/2/2 3/3/3
f 4/4/4 5/5/5 6/6/6
f 7/7/7 8/8/8 9/9/9
f 10/10/10 11/11/11 12/12/12
f 13/13/13 14/14/14 15/15/15
f 16/16/16 17/17/17 18/18/18
f 19/19/19 20/20/20 21/21/21
f 22/22/22 23/23/23 24/24/24
f 25/25/25 26/26/26 27/27/27
f 25/25/25 27/27/27 28/28/28
f 29/29/29 30/30/30 31/31/31
f 29/29/29 31/31/31 32/32/32
f 33/33/33 34/34/34 35/35/35
f 33/33/33 35/35/35 36/36/36
f 37/37/37 38/38/38 39/39/39
f 37/37/37 39/39/39 40/40/40
